<?xml version="1.0" standalone="no"?>
<!DOCTYPE svg PUBLIC "-//W3C//DTD SVG 1.1//EN" "http://www.w3.org/Graphics/SVG/1.1/DTD/svg11.dtd" >
<svg xmlns="http://www.w3.org/2000/svg" xmlns:xlink="http://www.w3.org/1999/xlink" version="1.1">
<metadata>
Created by FontForge 20170731 at Thu Aug  5 19:35:17 2021
 By Aleksey,,,
Copyright 2015-2016, 2019-2021 Dalton Maag Ltd. Modification of this file requires prior written permission from Dalton Maag Ltd.
</metadata>
<defs>
<font id="ObjektivMk2Trial-Bold" horiz-adv-x="0" >
  <font-face 
    font-family="Objektiv Mk2 Trial"
    font-weight="700"
    font-stretch="normal"
    units-per-em="1000"
    panose-1="2 11 7 2 2 2 4 2 2 3"
    ascent="800"
    descent="-200"
    x-height="510"
    cap-height="760"
    bbox="-233 -289 1367 1086"
    underline-thickness="76"
    underline-position="-244"
    unicode-range="U+000D-FEFF"
  />
<missing-glyph horiz-adv-x="500" 
d="M50 750h400v-750h-400v750zM400 50v650h-300v-650h300z" />
    <glyph glyph-name="f_i" unicode="fi" horiz-adv-x="706" 
d="M117 391h-90v119h90v61q0 118 55 181t158 63q29 0 55 -4.5t45 -12.5l-9 -121q-30 11 -62 11q-49 0 -72.5 -30.5t-23.5 -97.5v-50h135v-119h-135v-391h-146v391zM489 510h146v-510h-146v510zM475 694q0 35 24.5 59t61.5 24t61 -24t24 -59q0 -36 -24 -60t-61 -24t-61.5 24
t-24.5 60z" />
    <glyph glyph-name="f_l" unicode="fl" horiz-adv-x="706" 
d="M117 391h-90v119h90v61q0 118 55 181t158 63q29 0 55 -4.5t45 -12.5l-9 -121q-30 11 -62 11q-49 0 -72.5 -30.5t-23.5 -97.5v-50h135v-119h-135v-391h-146v391zM489 810h146v-810h-146v810z" />
    <glyph glyph-name="f_f_i" unicode="ffi" horiz-adv-x="1119" 
d="M117 391h-90v119h90v61q0 118 56.5 181t160.5 63q32 0 64.5 -6t54.5 -17l-15 -118q-16 6 -37 10t-39 4q-52 0 -75.5 -30.5t-23.5 -97.5v-50h135v-119h-135v-391h-146v391zM530 391h-90v119h90v61q0 118 55 181t158 63q29 0 55 -4.5t45 -12.5l-9 -121q-30 11 -62 11
q-49 0 -72.5 -30.5t-23.5 -97.5v-50h135v-119h-135v-391h-146v391zM902 510h146v-510h-146v510zM888 694q0 35 24.5 59t61.5 24t61 -24t24 -59q0 -36 -24 -60t-61 -24t-61.5 24t-24.5 60z" />
    <glyph glyph-name="f_f_l" unicode="ffl" horiz-adv-x="1119" 
d="M117 391h-90v119h90v61q0 118 56.5 181t160.5 63q32 0 64.5 -6t54.5 -17l-15 -118q-16 6 -37 10t-39 4q-52 0 -75.5 -30.5t-23.5 -97.5v-50h135v-119h-135v-391h-146v391zM530 391h-90v119h90v61q0 118 55 181t158 63q29 0 55 -4.5t45 -12.5l-9 -121q-30 11 -62 11
q-49 0 -72.5 -30.5t-23.5 -97.5v-50h135v-119h-135v-391h-146v391zM902 810h146v-810h-146v810z" />
    <glyph glyph-name="f_f" unicode="ff" horiz-adv-x="843" 
d="M117 391h-90v119h90v61q0 118 56.5 181t160.5 63q32 0 64.5 -6t54.5 -17l-15 -118q-16 6 -37 10t-39 4q-52 0 -75.5 -30.5t-23.5 -97.5v-50h135v-119h-135v-391h-146v391zM530 391h-90v119h90v61q0 118 56.5 181t160.5 63q32 0 64.5 -6t54.5 -17l-15 -118q-16 6 -37 10
t-39 4q-52 0 -75.5 -30.5t-23.5 -97.5v-50h135v-119h-135v-391h-146v391z" />
    <glyph glyph-name=".notdef" horiz-adv-x="500" 
d="M50 750h400v-750h-400v750zM400 50v650h-300v-650h300z" />
    <glyph glyph-name="uni0000" 
 />
    <glyph glyph-name="uni0000" 
 />
    <glyph glyph-name="uni000D" unicode="&#xd;" horiz-adv-x="218" 
 />
    <glyph glyph-name="space" unicode=" " horiz-adv-x="218" 
 />
    <glyph glyph-name="exclam" unicode="!" horiz-adv-x="355" 
d="M99 790h158l-13 -535h-132zM114 17.5q-25 23.5 -25 60.5t25 61t64 24q38 0 63 -24t25 -61t-25 -60.5t-63 -23.5q-39 0 -64 23.5z" />
    <glyph glyph-name="quotedbl" unicode="&#x22;" horiz-adv-x="440" 
d="M43 760h142l-14 -307h-114zM256 760h142l-14 -307h-114z" />
    <glyph glyph-name="numbersign" unicode="#" horiz-adv-x="691" 
d="M332 0l35 158h-127l-34 -158h-111l34 158h-89v97h110l37 167h-106v97h127l34 158h111l-34 -158h130l35 158h111l-35 -158h92v-97h-113l-36 -167h106v-97h-127l-35 -158h-115zM261 255h128l38 167h-129z" />
    <glyph glyph-name="dollar" unicode="$" horiz-adv-x="620" 
d="M272 -133v119q-59 3 -117.5 17.5t-100.5 42.5l15 120q88 -59 203 -64v224q-115 39 -166 90t-51 131q0 63 29 107.5t78 70t110 32.5v137h69v-135q42 -3 92 -16t91 -37l-21 -115q-75 43 -162 51v-207q120 -40 171 -93t51 -136q0 -62 -28.5 -108t-79 -74t-114.5 -35v-122
h-69zM341 301v-195q40 8 64.5 32t24.5 63q0 34 -21 57.5t-68 42.5zM272 458v183q-38 -6 -63 -26.5t-25 -58.5q0 -35 20.5 -58t67.5 -40z" />
    <glyph glyph-name="percent" unicode="%" horiz-adv-x="982" 
d="M691 744h122l-524 -744h-123zM729 -13q-56 0 -100.5 25t-70.5 69t-26 99t26 98.5t70.5 68.5t100.5 25q57 0 101.5 -25t70.5 -68.5t26 -98.5t-26 -99t-70.5 -69t-101.5 -25zM792.5 248q-23.5 26 -63.5 26q-39 0 -63 -26t-24 -68q0 -43 24 -69t63 -26q40 0 63.5 26t23.5 69
q0 42 -23.5 68zM252 375q-56 0 -100.5 25t-70.5 69t-26 99t26 98.5t70.5 68.5t100.5 25q57 0 101.5 -25t70.5 -68.5t26 -98.5t-26 -99t-70.5 -69t-101.5 -25zM315.5 636q-23.5 26 -63.5 26q-39 0 -63 -26t-24 -68q0 -43 24 -69t63 -26q40 0 63.5 26t23.5 69q0 42 -23.5 68z
" />
    <glyph glyph-name="ampersand" unicode="&#x26;" horiz-adv-x="760" 
d="M46 198q0 68 39.5 121t122.5 94q-32 38 -50.5 68t-26.5 57.5t-8 59.5q0 53 27 93.5t75 63.5t110 23t109 -22.5t74 -62.5t27 -92q0 -126 -161 -205l149 -169q20 34 31.5 76t13.5 91l120 -12q-3 -73 -25 -135.5t-58 -111.5l119 -135h-165l-43 49q-45 -32 -99.5 -48.5
t-113.5 -16.5q-81 0 -141 26.5t-93 75t-33 112.5zM185 209q0 -49 38.5 -80t100.5 -31q68 0 126 38l-175 199q-90 -53 -90 -126zM275 655.5q-23 -21.5 -23 -57.5q0 -28 14 -55t51 -71q52 29 75.5 59t23.5 67q0 36 -22.5 57.5t-58.5 21.5q-37 0 -60 -21.5z" />
    <glyph glyph-name="quotesingle" unicode="'" horiz-adv-x="228" 
d="M43 760h142l-14 -307h-114z" />
    <glyph glyph-name="parenleft" unicode="(" horiz-adv-x="428" 
d="M214 343q0 -139 54 -261.5t154 -214.5h-158q-57 54 -98.5 129.5t-64.5 164.5t-23 182q0 94 23 183t64.5 165t98.5 129h158q-100 -92 -154 -214.5t-54 -262.5z" />
    <glyph glyph-name="parenright" unicode=")" horiz-adv-x="428" 
d="M214 344q0 139 -53.5 262t-154.5 214h158q58 -53 99.5 -129t64.5 -165t23 -182t-23 -182.5t-64.5 -165.5t-99.5 -129h-158q101 92 154.5 215t53.5 262z" />
    <glyph glyph-name="asterisk" unicode="*" horiz-adv-x="475" 
d="M178 760h120l-17 -141l125 60l41 -111l-136 -34l98 -109l-97 -68l-75 126l-72 -126l-98 67l99 110l-138 35l42 110l123 -60z" />
    <glyph glyph-name="plus" unicode="+" horiz-adv-x="620" 
d="M245 275h-171v121h171v183h130v-183h171v-121h-171v-184h-130v184z" />
    <glyph glyph-name="comma" unicode="," horiz-adv-x="300" 
d="M88 153h140q0 -61 -14.5 -122.5t-40.5 -114.5t-60 -90h-115q42 68 65.5 153t24.5 174z" />
    <glyph glyph-name="hyphen" unicode="-" horiz-adv-x="428" 
d="M59 350h310v-125h-310v125z" />
    <glyph glyph-name="period" unicode="." horiz-adv-x="300" 
d="M150 163q39 0 64 -24t25 -61t-25 -60.5t-64 -23.5t-63.5 23.5t-24.5 60.5t24.5 61t63.5 24z" />
    <glyph glyph-name="slash" unicode="/" horiz-adv-x="552" 
d="M405 810h138l-395 -943h-139z" />
    <glyph glyph-name="zero" unicode="0" horiz-adv-x="620" 
d="M31 372q0 38 3.5 73t9.5 66q25 119 94 184t172 65q87 0 149.5 -46.5t96 -133t33.5 -208.5q0 -38 -3.5 -73t-9.5 -66q-24 -119 -93 -184t-173 -65q-87 0 -149.5 46.5t-96 133.5t-33.5 208zM425.5 293.5q3.5 35.5 3.5 78.5q0 126 -30.5 190.5t-88.5 64.5q-78 0 -105 -113
q-7 -28 -10.5 -63t-3.5 -79q0 -126 30.5 -190.5t88.5 -64.5q79 0 105 113q7 28 10.5 63.5z" />
    <glyph glyph-name="one" unicode="1" horiz-adv-x="620" 
d="M434 0h-148v592l-192 -84l-24 127l245 109h119v-744z" />
    <glyph glyph-name="two" unicode="2" horiz-adv-x="620" 
d="M379 253q-26 -28 -59 -61t-63 -61h295v-131h-493v114q65 59 111.5 105.5t81.5 86.5q46 55 72.5 93.5t38 69t11.5 60.5q0 47 -28.5 75t-78.5 28q-48 0 -93.5 -22t-82.5 -63l-27 126q43 41 102.5 64t125.5 23q109 0 173 -57.5t64 -154.5q0 -68 -35 -138t-115 -157z" />
    <glyph glyph-name="three" unicode="3" horiz-adv-x="620" 
d="M357 620h-286v124h459v-110l-186 -193q63 -3 110 -30.5t73 -74.5t26 -108q0 -75 -34.5 -129.5t-99 -84.5t-153.5 -30q-61 0 -116 13t-93 36l13 124q44 -25 91.5 -37t96.5 -12q67 0 105 31t38 86q0 53 -36.5 83t-101.5 30q-18 0 -34.5 -1.5t-31.5 -6.5l-37 83z" />
    <glyph glyph-name="four" unicode="4" horiz-adv-x="620" 
d="M352 744h149v-460h90v-118h-90v-166h-139v166h-336v116zM362 569l-202 -285h202v285z" />
    <glyph glyph-name="five" unicode="5" horiz-adv-x="620" 
d="M102 744h408v-128h-278l-6 -151q37 6 63 6q82 0 142 -29t93 -81.5t33 -123.5q0 -77 -36 -134t-101 -88t-154 -31q-61 0 -119 13t-92 33l13 126q89 -47 185 -47q71 0 111 33.5t40 90.5t-44 89.5t-122 32.5q-34 0 -77 -5.5t-75 -13.5z" />
    <glyph glyph-name="six" unicode="6" horiz-adv-x="620" 
d="M175 591q62 85 147 156l180 -6q-99 -83 -166.5 -162t-103.5 -155q46 43 122 43q66 0 117.5 -30.5t81 -83t29.5 -119.5q0 -73 -34.5 -129.5t-94.5 -88.5t-139 -32q-82 0 -142.5 32t-93.5 91.5t-33 140.5q0 82 34 170t96 173zM314 352q-52 0 -87 -35t-35 -88t35 -88t87 -35
q53 0 87 35t34 88q0 55 -33.5 89t-87.5 34z" />
    <glyph glyph-name="seven" unicode="7" horiz-adv-x="620" 
d="M289 -3l-158 6l270 602h-345v139h504v-123z" />
    <glyph glyph-name="eight" unicode="8" horiz-adv-x="620" 
d="M177.5 734q57.5 26 133.5 26t132.5 -26t88.5 -71.5t32 -106.5q0 -59 -29 -102.5t-82 -64.5q60 -19 95.5 -69t35.5 -116t-34 -115.5t-95.5 -77t-145.5 -27.5q-83 0 -144.5 27.5t-95 77t-33.5 115.5q0 65 35 115t95 70q-52 21 -81 64.5t-29 101.5q0 61 32 107t89.5 72z
M399.5 297q-33.5 31 -89.5 31q-55 0 -89 -31t-34 -81q0 -51 34 -82t89 -31q56 0 89.5 31t33.5 82q0 50 -33.5 81zM391 618.5q-31 28.5 -81 28.5t-81 -28.5t-31 -75.5q0 -46 30.5 -74.5t81.5 -28.5t81.5 28.5t30.5 74.5q0 47 -31 75.5z" />
    <glyph glyph-name="nine" unicode="9" horiz-adv-x="620" 
d="M118 3q198 165 271 319q-45 -45 -123 -45q-65 0 -117 30.5t-81.5 83.5t-29.5 119q0 74 34.5 130t95 88t138.5 32q83 0 143 -32t93 -91.5t33 -140.5t-34 -169.5t-96 -173.5t-147 -156zM185 515q0 -55 33.5 -89t87.5 -34q53 0 87.5 35t34.5 88q0 54 -34.5 88.5t-87.5 34.5
q-52 0 -86.5 -34.5t-34.5 -88.5z" />
    <glyph glyph-name="colon" unicode=":" horiz-adv-x="300" 
d="M150 163q39 0 64 -24t25 -61t-25 -60.5t-64 -23.5t-63.5 23.5t-24.5 60.5t24.5 61t63.5 24zM150 516q39 0 64 -24t25 -61t-25 -60.5t-64 -23.5t-63.5 23.5t-24.5 60.5t24.5 61t63.5 24z" />
    <glyph glyph-name="semicolon" unicode=";" horiz-adv-x="300" 
d="M88 153h140q0 -61 -14.5 -122.5t-40.5 -114.5t-60 -90h-115q42 68 65.5 153t24.5 174zM150 516q39 0 64 -24t25 -61t-25 -60.5t-64 -23.5t-63.5 23.5t-24.5 60.5t24.5 61t63.5 24z" />
    <glyph glyph-name="less" unicode="&#x3c;" horiz-adv-x="620" 
d="M92 270v138l435 179v-133l-290 -114l290 -114v-136z" />
    <glyph glyph-name="equal" unicode="=" horiz-adv-x="620" 
d="M92 155v117h436v-117h-436zM92 392v117h436v-117h-436z" />
    <glyph glyph-name="greater" unicode="&#x3e;" horiz-adv-x="620" 
d="M528 407v-137l-435 -180v135l289 114l-289 114v134z" />
    <glyph glyph-name="question" unicode="?" horiz-adv-x="515" 
d="M166 255q-3 14 -3 31q0 51 15 87t37.5 61.5t45.5 46.5q31 29 49.5 53.5t18.5 56.5q0 37 -26.5 58t-73.5 21q-48 0 -94 -23t-81 -62l-34 119q35 41 97 68t138 27q68 0 119.5 -24.5t81 -69t29.5 -103.5q0 -42 -12.5 -73t-34 -56.5t-50.5 -52.5q-31 -28 -57.5 -60.5
t-31.5 -80.5q-3 -13 -2 -24h-131zM319 78q0 -37 -25 -60.5t-63 -23.5q-37 0 -63 23.5t-26 60.5q0 38 26 61.5t63 23.5q38 0 63 -23.5t25 -61.5z" />
    <glyph glyph-name="at" unicode="@" horiz-adv-x="1029" 
d="M503 -230q-138 0 -240 52t-158.5 147t-56.5 222q0 104 39 193.5t109.5 156.5t164.5 104.5t204 37.5q125 0 219 -48t147 -134t53 -200q0 -89 -32 -158t-88 -108t-129 -39q-53 0 -89 20t-49 58q-22 -36 -60.5 -56.5t-81.5 -20.5q-52 0 -91.5 25.5t-61.5 70.5t-22 105
q0 71 29 128t77.5 90.5t108.5 33.5q43 0 77.5 -20.5t52.5 -55.5l13 61h116l-43 -255q-3 -22 -3 -34q0 -53 46 -53q33 0 59.5 27t42.5 73t16 102q0 89 -38 152.5t-108.5 98t-168.5 34.5q-86 0 -158.5 -28.5t-126 -81t-83 -123t-29.5 -154.5q0 -99 42 -170.5t120 -110.5
t186 -39q123 0 230 48l10 -102q-113 -49 -245 -49zM603 238q0 49 -22.5 75t-66.5 26q-48 0 -78.5 -36t-30.5 -93q0 -49 23 -75t66 -26q48 0 78.5 36t30.5 93z" />
    <glyph glyph-name="A" unicode="A" horiz-adv-x="818" 
d="M324 760h169l302 -760h-170l-69 196h-304l-69 -196h-160zM512 320l-108 305l-108 -305h216z" />
    <glyph glyph-name="B" unicode="B" horiz-adv-x="716" 
d="M89 760h285q122 0 187 -50.5t65 -143.5q0 -54 -27 -97t-75 -64q66 -16 103.5 -65.5t37.5 -119.5q0 -106 -69.5 -163t-202.5 -57h-304v760zM387 115q59 0 91 28.5t32 80.5q0 110 -130 110h-146v-219h153zM358 445q120 0 120 105q0 95 -118 95h-126v-200h124z" />
    <glyph glyph-name="C" unicode="C" horiz-adv-x="761" 
d="M48 376q0 87 30 159.5t85.5 125t131.5 81.5t167 29q63 0 127.5 -16.5t110.5 -44.5l-27 -135q-109 53 -207 53q-76 0 -132.5 -31t-87.5 -87t-31 -131q0 -76 31 -131.5t88 -85.5t134 -30q50 0 109.5 15.5t110.5 42.5l18 -140q-52 -28 -118 -44.5t-134 -16.5
q-123 0 -214.5 48t-141.5 135t-50 204z" />
    <glyph glyph-name="D" unicode="D" horiz-adv-x="850" 
d="M89 760h293q133 0 227 -45t143.5 -129.5t49.5 -204.5t-51 -205.5t-147 -130.5t-232 -45h-283v760zM368 129q267 0 267 251t-266 251h-121v-502h120z" />
    <glyph glyph-name="E" unicode="E" horiz-adv-x="673" 
d="M89 760h506v-125h-356v-186h316v-125h-316v-199h371v-125h-521v760z" />
    <glyph glyph-name="F" unicode="F" horiz-adv-x="628" 
d="M89 760h493v-129h-336v-203h291v-129h-291v-299h-157v760z" />
    <glyph glyph-name="G" unicode="G" horiz-adv-x="824" 
d="M756 46q-66 -28 -140.5 -42.5t-151.5 -14.5q-126 0 -219.5 47.5t-145 133.5t-51.5 202q0 119 54.5 209t151.5 140t226 50q68 0 137 -15.5t124 -44.5l-26 -130q-56 26 -117.5 39.5t-122.5 13.5q-80 0 -139.5 -32t-92.5 -89.5t-33 -134.5q0 -118 70 -186t194 -68
q68 0 134 18v161h-147v120h295v-377z" />
    <glyph glyph-name="H" unicode="H" horiz-adv-x="854" 
d="M89 760h161v-303h354v303h161v-760h-161v327h-354v-327h-161v760z" />
    <glyph glyph-name="I" unicode="I" horiz-adv-x="339" 
d="M89 760h161v-760h-161v760z" />
    <glyph glyph-name="J" unicode="J" horiz-adv-x="568" 
d="M485 266q0 -143 -65.5 -212.5t-200.5 -69.5q-51 0 -101.5 12t-82.5 31l15 128q33 -19 70 -28t74 -9q70 0 99.5 36.5t29.5 121.5v484h162v-494z" />
    <glyph glyph-name="K" unicode="K" horiz-adv-x="787" 
d="M89 760h159v-325l300 325h197l-348 -363l382 -397h-214l-317 343v-343h-159v760z" />
    <glyph glyph-name="L" unicode="L" horiz-adv-x="626" 
d="M89 760h161v-628h341v-132h-502v760z" />
    <glyph glyph-name="M.alt" unicode="M" horiz-adv-x="1019" 
d="M114 760h151l246 -482l242 482h152l42 -760h-151l-21 525l-201 -399h-128l-203 395l-20 -521h-150z" />
    <glyph glyph-name="N" unicode="N" horiz-adv-x="852" 
d="M89 760h141l387 -525v525h146v-760h-141l-386 523v-523h-147v760z" />
    <glyph glyph-name="O" unicode="O" horiz-adv-x="904" 
d="M48 380q0 84 30.5 156t86 126t129 84t158.5 30q87 0 160.5 -29.5t128.5 -83t85 -125.5t30 -158q0 -84 -30.5 -156t-86 -126t-128.5 -84t-159 -30q-87 0 -161 29.5t-128.5 83t-84.5 126t-30 157.5zM689 380q0 74 -30.5 131t-84 89.5t-122.5 32.5t-122.5 -32.5t-84 -89.5
t-30.5 -131q0 -73 30.5 -130.5t84 -90t122.5 -32.5t122.5 32.5t84 89.5t30.5 131z" />
    <glyph glyph-name="P" unicode="P" horiz-adv-x="663" 
d="M89 760h256q86 0 149.5 -30.5t98 -86.5t34.5 -133t-34.5 -133.5t-98 -87t-150.5 -30.5h-102v-259h-153v760zM320 379q150 0 150 130t-150 130h-78v-260h78z" />
    <glyph glyph-name="Q" unicode="Q" horiz-adv-x="904" 
d="M815 -182h-190l-140 168q-19 -2 -38 -2q-86 0 -159 30t-127 83.5t-83.5 125.5t-29.5 157q0 84 30.5 156t86 126t129 84t158.5 30q87 0 160.5 -29.5t128.5 -83t85 -125.5t30 -158q0 -84 -29 -153.5t-79.5 -120.5t-115.5 -82zM689 380q0 74 -30.5 131t-84 89.5t-122.5 32.5
t-122.5 -32.5t-84 -89.5t-30.5 -131q0 -73 30.5 -130.5t84 -90t122.5 -32.5t122.5 32.5t84 89.5t30.5 131z" />
    <glyph glyph-name="R" unicode="R" horiz-adv-x="730" 
d="M89 760h254q88 0 151.5 -30t98 -85.5t34.5 -132.5q0 -69 -34.5 -121.5t-87.5 -84.5l197 -306h-179l-156 266h-11h-114v-266h-153v760zM318 386q152 0 152 127q0 126 -148 126h-80v-253h76z" />
    <glyph glyph-name="S" unicode="S" horiz-adv-x="667" 
d="M69 181q48 -30 112.5 -48.5t123.5 -18.5q67 0 103.5 25t36.5 70q0 27 -13 45.5t-45 34t-90 32.5q-124 37 -177 90t-53 141q0 69 34 119.5t95.5 77.5t145.5 27q62 0 123.5 -15.5t105.5 -42.5l-22 -128q-42 26 -96.5 41t-104.5 15q-60 0 -92.5 -23t-32.5 -65
q0 -24 11.5 -41.5t40 -32t79.5 -30.5q91 -27 146 -60t80 -75.5t25 -100.5q0 -109 -77.5 -171.5t-214.5 -62.5q-48 0 -97.5 8t-91.5 22.5t-70 33.5z" />
    <glyph glyph-name="T" unicode="T" horiz-adv-x="717" 
d="M278 628h-243v132h647v-132h-242v-628h-162v628z" />
    <glyph glyph-name="U" unicode="U" horiz-adv-x="846" 
d="M84 760h161v-425q0 -208 178 -208q177 0 177 208v425h162v-437q0 -163 -89 -251t-251 -88t-250 88.5t-88 250.5v437z" />
    <glyph glyph-name="V" unicode="V" horiz-adv-x="782" 
d="M20 760h178l196 -593l196 593h173l-288 -760h-168z" />
    <glyph glyph-name="W" unicode="W" horiz-adv-x="1128" 
d="M23 760h169l141 -567l161 557h143l162 -550l139 560h167l-227 -760h-153l-163 546l-158 -546h-154z" />
    <glyph glyph-name="X" unicode="X" horiz-adv-x="763" 
d="M286 396l-250 364h189l163 -261l161 261h182l-253 -370l270 -390h-190l-183 287l-178 -287h-182z" />
    <glyph glyph-name="Y" unicode="Y" horiz-adv-x="738" 
d="M448 315v-315h-159v316l-279 444h179l183 -328l183 328h172z" />
    <glyph glyph-name="Z" unicode="Z" horiz-adv-x="736" 
d="M470 631h-392v129h589v-115l-416 -516h423v-129h-621v115z" />
    <glyph glyph-name="bracketleft" unicode="[" horiz-adv-x="428" 
d="M106 820h282v-119h-148v-715h148v-119h-282v953z" />
    <glyph glyph-name="backslash" unicode="\" horiz-adv-x="552" 
d="M9 810h139l395 -943h-138z" />
    <glyph glyph-name="bracketright" unicode="]" horiz-adv-x="428" 
d="M323 -133h-282v119h147v715h-147v119h282v-953z" />
    <glyph glyph-name="asciicircum" unicode="^" horiz-adv-x="620" 
d="M248 705h124l205 -399h-142l-126 270l-126 -270h-139z" />
    <glyph glyph-name="underscore" unicode="_" horiz-adv-x="500" 
d="M0 -36h500v-112h-500v112z" />
    <glyph glyph-name="grave" unicode="`" horiz-adv-x="500" 
d="M116 778h161l106 -168h-125z" />
    <glyph glyph-name="a" unicode="a" horiz-adv-x="658" 
d="M587 0h-139l-2 76q-52 -92 -170 -92q-68 0 -120.5 34.5t-82.5 95.5t-30 140q0 77 32 138.5t86.5 97.5t121.5 36q53 0 96 -24t67 -67l2 75h139v-510zM449 255q0 62 -36 101.5t-94 39.5q-57 0 -93 -39.5t-36 -101.5t36 -101.5t93 -39.5q58 0 94 39.5t36 101.5z" />
    <glyph glyph-name="b" unicode="b" horiz-adv-x="658" 
d="M72 810h146v-367q55 83 164 83q68 0 120.5 -34.5t82.5 -95.5t30 -140q0 -77 -32 -138.5t-86 -97.5t-122 -36q-53 0 -96 24t-67 67l-2 -75h-138v810zM339 396q-57 0 -93.5 -39.5t-36.5 -101.5t36.5 -101.5t93.5 -39.5t93.5 39.5t36.5 101.5t-36.5 101.5t-93.5 39.5z" />
    <glyph glyph-name="c" unicode="c" horiz-adv-x="541" 
d="M177.5 489.5q63.5 34.5 146.5 34.5q44 0 89.5 -10.5t76.5 -28.5l-18 -122q-65 31 -134 31q-68 0 -108 -37t-40 -101q0 -65 40.5 -102t112.5 -37q33 0 66.5 7t70.5 23l16 -120q-34 -19 -79.5 -29.5t-91.5 -10.5q-85 0 -148.5 32.5t-98.5 92.5t-35 141q0 80 35.5 141
t99 95.5z" />
    <glyph glyph-name="d" unicode="d" horiz-adv-x="658" 
d="M587 0h-139l-2 75q-54 -91 -170 -91q-68 0 -120.5 34.5t-82.5 95.5t-30 140q0 77 32 138.5t86.5 97.5t121.5 36q104 0 158 -83v367h146v-810zM413 153.5q36 39.5 36 101.5t-36 101.5t-94 39.5q-57 0 -93 -39.5t-36 -101.5t36 -101.5t93 -39.5q58 0 94 39.5z" />
    <glyph glyph-name="e" unicode="e" horiz-adv-x="600" 
d="M342 -16q-93 0 -160 32.5t-103 93.5t-36 144q0 81 33.5 142t93 95.5t136.5 34.5q74 0 128.5 -31t84 -88t29.5 -134q0 -25 -3 -54h-359q10 -63 54 -92.5t119 -29.5q42 0 86 10t81 27l14 -109q-39 -19 -91.5 -30t-106.5 -11zM223.5 392q-30.5 -30 -38.5 -86h227q0 11 -2 20
q-7 46 -35 71t-73 25q-48 0 -78.5 -30z" />
    <glyph glyph-name="f" unicode="f" horiz-adv-x="431" 
d="M117 391h-90v119h90v61q0 118 56.5 181t160.5 63q32 0 64.5 -6t54.5 -17l-15 -118q-16 6 -37 10t-39 4q-52 0 -75.5 -30.5t-23.5 -97.5v-50h135v-119h-135v-391h-146v391z" />
    <glyph glyph-name="g" unicode="g" horiz-adv-x="658" 
d="M587 37q0 -143 -73 -217t-215 -74q-37 0 -75 6t-70.5 15.5t-52.5 21.5l16 122q32 -19 78 -30.5t87 -11.5q164 0 164 161v50q-26 -43 -69.5 -66.5t-99.5 -23.5q-68 0 -121 34t-83 94t-30 138q0 77 32 138t86.5 96.5t122.5 35.5q52 0 94.5 -23.5t67.5 -67.5l2 75h139v-473z
M413 359.5q-36 39.5 -94 39.5q-57 0 -93 -39.5t-36 -101.5t36 -101.5t93 -39.5q58 0 94 39.5t36 101.5t-36 101.5z" />
    <glyph glyph-name="h" unicode="h" horiz-adv-x="619" 
d="M72 810h146v-367q21 40 61.5 61.5t91.5 21.5q87 0 134 -55.5t47 -160.5v-310h-146v282q0 115 -88 115q-48 0 -74 -32t-26 -91v-274h-146v810z" />
    <glyph glyph-name="i" unicode="i" horiz-adv-x="289" 
d="M72 510h146v-510h-146v510zM58 694q0 35 24.5 59t61.5 24t61 -24t24 -59q0 -36 -24 -60t-61 -24t-61.5 24t-24.5 60z" />
    <glyph glyph-name="j.alt" unicode="j" horiz-adv-x="289" 
d="M218 -33q0 -221 -205 -221q-35 0 -69 7t-54 17l15 120q43 -17 83 -17q43 0 63.5 25t20.5 78v534h146v-543zM58 694q0 35 24.5 59t61.5 24t61 -24t24 -59q0 -36 -24 -60t-61 -24t-61.5 24t-24.5 60z" />
    <glyph glyph-name="k" unicode="k" horiz-adv-x="614" 
d="M72 810h146v-494l183 194h173l-224 -227l261 -283h-184l-209 235v-235h-146v810z" />
    <glyph glyph-name="l" unicode="l" horiz-adv-x="289" 
d="M72 810h146v-810h-146v810z" />
    <glyph glyph-name="m" unicode="m" horiz-adv-x="938" 
d="M72 510h141l1 -71q21 42 61 64.5t93 22.5q113 0 155 -95q21 44 65 69.5t100 25.5q89 0 136 -55t47 -161v-310h-145v282q0 115 -87 115q-46 0 -70.5 -32t-24.5 -91v-274h-145v283q0 114 -86 114q-46 0 -71 -31.5t-25 -90.5v-275h-145v510z" />
    <glyph glyph-name="n" unicode="n" horiz-adv-x="619" 
d="M72 510h141l2 -73q20 43 61 66t95 23q87 0 134 -55.5t47 -160.5v-310h-146v282q0 115 -88 115q-48 0 -74 -32t-26 -91v-274h-146v510z" />
    <glyph glyph-name="o" unicode="o" horiz-adv-x="639" 
d="M319 -16q-79 0 -141.5 35.5t-98.5 96.5t-36 139t36.5 139t99 96.5t140.5 35.5q80 0 142 -35.5t98 -96.5t36 -139q0 -77 -36.5 -138.5t-98.5 -97t-141 -35.5zM413 356.5q-36 39.5 -94 39.5q-57 0 -93 -39.5t-36 -101.5t36 -101.5t93 -39.5q58 0 94 39.5t36 101.5
t-36 101.5z" />
    <glyph glyph-name="p" unicode="p" horiz-adv-x="658" 
d="M72 510h136l3 -78q53 94 171 94q68 0 120.5 -34.5t82.5 -95.5t30 -140q0 -77 -32 -138.5t-86 -97.5t-122 -36q-103 0 -157 80v-309h-146v755zM432.5 153.5q36.5 39.5 36.5 101.5t-36.5 101.5t-93.5 39.5t-93.5 -39.5t-36.5 -101.5t36.5 -101.5t93.5 -39.5t93.5 39.5z" />
    <glyph glyph-name="q" unicode="q" horiz-adv-x="658" 
d="M587 -245h-146v312q-27 -40 -69 -61.5t-96 -21.5q-68 0 -120.5 34.5t-82.5 95.5t-30 140q0 77 32 138.5t86.5 97.5t121.5 36q53 0 95.5 -23.5t67.5 -66.5l2 74h139v-755zM319 396q-57 0 -93 -39.5t-36 -101.5t36 -101.5t93 -39.5q58 0 94 39.5t36 101.5t-36 101.5
t-94 39.5z" />
    <glyph glyph-name="r" unicode="r" horiz-adv-x="436" 
d="M72 510h141l1 -99q18 51 54 79.5t84 28.5q16 0 32.5 -3t26.5 -8l-13 -137q-31 12 -65 12q-55 0 -85 -39.5t-30 -113.5v-230h-146v510z" />
    <glyph glyph-name="s" unicode="s" horiz-adv-x="497" 
d="M58 142q36 -24 81 -37.5t87 -13.5q86 0 86 49q0 23 -18 36t-75 29q-92 25 -130.5 62t-38.5 101q0 74 55.5 116t152.5 42q48 0 96 -11t79 -29l-17 -106q-75 39 -151 39q-75 0 -75 -46q0 -22 19 -35t71 -27q96 -28 136.5 -66t40.5 -103q0 -73 -59.5 -115.5t-163.5 -42.5
q-55 0 -108.5 14t-85.5 36z" />
    <glyph glyph-name="t.alt" unicode="t" horiz-adv-x="463" 
d="M110 391h-98v119h98v137h145v-137h157v-119h-157v-181q0 -52 18 -74.5t59 -22.5q46 0 89 21l16 -120q-26 -15 -63.5 -22.5t-81.5 -7.5q-182 0 -182 198v209z" />
    <glyph glyph-name="u.alt" unicode="u" horiz-adv-x="618" 
d="M546 0h-142l-2 70q-20 -41 -61.5 -63.5t-97.5 -22.5q-85 0 -130 53.5t-45 154.5v318h146v-285q0 -58 20.5 -84.5t66.5 -26.5q47 0 73 32t26 90v274h146v-510z" />
    <glyph glyph-name="v" unicode="v" horiz-adv-x="574" 
d="M15 510h162l113 -369l118 369h151l-196 -510h-151z" />
    <glyph glyph-name="w" unicode="w" horiz-adv-x="861" 
d="M20 510h153l89 -354l105 354h122l112 -355l88 355h151l-169 -510h-131l-114 336l-108 -336h-128z" />
    <glyph glyph-name="x" unicode="x" horiz-adv-x="593" 
d="M570 0h-165l-115 176l-111 -176h-156l190 262l-181 248h165l102 -158l101 158h155l-177 -247z" />
    <glyph glyph-name="y" unicode="y" horiz-adv-x="595" 
d="M244 -245h-148l133 277l-214 478h160l128 -330l121 330h156z" />
    <glyph glyph-name="z" unicode="z" horiz-adv-x="543" 
d="M227 119h270v-119h-454v102l263 289h-252v119h436v-101z" />
    <glyph glyph-name="braceleft" unicode="{" horiz-adv-x="445" 
d="M45 398h26q49 0 67.5 17t18.5 60q0 49 -12.5 94.5t-12.5 88.5q0 83 50 123t154 40q16 0 34.5 -0.5t31.5 -2.5v-114q-7 1 -16.5 1h-29.5q-90 0 -90 -74q0 -23 6.5 -52t12.5 -60.5t6 -63.5q0 -42 -21 -72.5t-60 -44.5q81 -27 81 -116q0 -31 -6 -63t-12.5 -61t-6.5 -52
q0 -74 90 -74h29t17 1v-114q-13 -1 -31.5 -2t-34.5 -1q-104 0 -154 40t-50 123q0 43 12.5 88.5t12.5 94.5q0 44 -18.5 60.5t-67.5 16.5h-26v119z" />
    <glyph glyph-name="bar" unicode="|" horiz-adv-x="331" 
d="M99 866h133v-1093h-133v1093z" />
    <glyph glyph-name="braceright" unicode="}" horiz-adv-x="445" 
d="M400 279h-26q-48 0 -67 -16.5t-19 -60.5q0 -49 13 -94.5t13 -88.5q0 -83 -50.5 -123t-154.5 -40q-15 0 -34 1t-32 2v114q8 -1 17.5 -1h28.5q90 0 90 74q0 23 -6 52t-12.5 61t-6.5 63q0 42 21 72.5t60 44.5q-81 27 -81 116q0 32 6.5 63.5t12.5 60.5t6 52q0 74 -90 74
h-28.5t-17.5 -1v114q13 2 32 2.5t34 0.5q104 0 154.5 -40t50.5 -123q0 -43 -13 -88.5t-13 -94.5q0 -43 19 -60t67 -17h26v-119z" />
    <glyph glyph-name="asciitilde" unicode="~" horiz-adv-x="620" 
d="M88.5 403.5q44.5 49.5 111.5 49.5q36 0 65.5 -12t57.5 -35q29 -22 46.5 -33t35.5 -11q24 0 39 20.5t17 70.5h116v-10q-1 -112 -45.5 -162t-111.5 -50q-36 0 -65 12.5t-58 34.5q-28 22 -46 33t-36 11q-24 0 -39 -20.5t-17 -70.5h-116v10q1 113 45.5 162.5z" />
    <glyph glyph-name="uni00A0" unicode="&#xa0;" horiz-adv-x="218" 
 />
    <glyph glyph-name="exclamdown" unicode="&#xa1;" horiz-adv-x="355" 
d="M98 -280l14 535h131l13 -535h-158zM114 492.5q25 23.5 64 23.5q38 0 63 -23.5t25 -60.5t-25 -61t-63 -24q-39 0 -64 24t-25 61t25 60.5z" />
    <glyph glyph-name="cent" unicode="&#xa2;" horiz-adv-x="620" 
d="M380 112q32 1 63.5 8t67.5 23l15 -115q-61 -35 -146 -40v-121h-70v123q-67 9 -118.5 43t-80.5 89t-29 129t29 131t80.5 93t118.5 45v123h70v-121q38 -2 73.5 -11.5t67.5 -26.5l-18 -118q-29 14 -61.5 22t-61.5 10v-286zM310 120v270q-44 -14 -68.5 -48.5t-24.5 -85.5
t24.5 -86.5t68.5 -49.5z" />
    <glyph glyph-name="sterling" unicode="&#xa3;" horiz-adv-x="620" 
d="M150 309h-91v115h91v44q0 141 69.5 216.5t199.5 75.5q44 0 86.5 -10t74.5 -27l-21 -119q-65 32 -129 32q-138 0 -138 -173v-39h198v-115h-198v-187h293v-122h-531v122h96v187z" />
    <glyph glyph-name="currency" unicode="&#xa4;" horiz-adv-x="620" 
d="M310 191q-66 0 -120 33l-77 -86l-85 77l84 92q-26 50 -26 110t26 110l-84 92l85 77l77 -86q54 33 120 33t120 -33l77 86l85 -77l-84 -92q26 -50 26 -110t-26 -110l84 -92l-85 -77l-77 86q-54 -33 -120 -33zM389.5 503q-30.5 33 -79.5 33t-79.5 -33t-30.5 -86t30.5 -86
t79.5 -33t79.5 33t30.5 86t-30.5 86z" />
    <glyph glyph-name="yen" unicode="&#xa5;" horiz-adv-x="620" 
d="M1 744h165l147 -309l147 309h159l-191 -343h145v-86h-192v-86h192v-86h-192v-143h-141v143h-198v86h198v86h-198v86h150z" />
    <glyph glyph-name="brokenbar" unicode="&#xa6;" horiz-adv-x="331" 
d="M99 -227v445h133v-445h-133zM99 421v445h133v-445h-133z" />
    <glyph glyph-name="section" unicode="&#xa7;" horiz-adv-x="538" 
d="M252 -122q-58 0 -114 14.5t-90 38.5l17 109q87 -56 184 -56q39 0 61.5 16t22.5 44q0 26 -21 41.5t-77 31.5q-99 27 -143 69t-44 109q0 56 30.5 97t84.5 57q-49 25 -71.5 59t-22.5 82q0 74 56 116.5t153 42.5q50 0 97 -10t83 -30l-16 -105q-37 20 -77.5 29.5t-80.5 9.5
q-36 0 -56.5 -13t-20.5 -36q0 -22 20.5 -37t81.5 -35q98 -31 140 -73.5t42 -110.5q0 -53 -27 -92.5t-76 -57.5q88 -47 88 -136q0 -81 -60 -127.5t-164 -46.5zM270 233q38 0 63.5 25t25.5 65q0 37 -25 60t-65 23q-39 0 -64.5 -25t-25.5 -65q0 -37 25.5 -60t65.5 -23z" />
    <glyph glyph-name="dieresis" unicode="&#xa8;" horiz-adv-x="500" 
d="M65 684q0 31 21 51t53 20q33 0 54 -19.5t21 -51.5q0 -31 -21 -51t-54 -20t-53.5 20t-20.5 51zM286 684q0 31 21 51t53 20q33 0 54 -19.5t21 -51.5q0 -31 -21 -51t-54 -20t-53.5 20t-20.5 51z" />
    <glyph glyph-name="copyright" unicode="&#xa9;" horiz-adv-x="795" 
d="M36 380q0 77 27 141.5t76 112.5t115 74.5t144 26.5t144 -26.5t114.5 -74.5t75.5 -112.5t27 -141.5q0 -76 -27 -141t-75.5 -113t-114.5 -74.5t-144 -26.5t-144 26.5t-115 74.5t-76 113t-27 141zM672 380q0 81 -35 143t-97 97t-142 35t-142.5 -35t-97.5 -97t-35 -143
q0 -80 35 -142.5t97.5 -97.5t142.5 -35t142 35t97 97.5t35 142.5zM240.5 481q25.5 43 70.5 67.5t105 24.5q30 0 61.5 -7t52.5 -18l-16 -98q-19 9 -44.5 15t-46.5 6q-41 0 -67 -24.5t-26 -63.5q0 -41 27 -64.5t74 -23.5q20 0 43 5.5t48 15.5l13 -96q-49 -27 -122 -27
q-91 0 -144.5 50.5t-53.5 136.5q0 58 25.5 101z" />
    <glyph glyph-name="ordfeminine" unicode="&#xaa;" horiz-adv-x="471" 
d="M423 397h-104l-2 50q-17 -29 -46.5 -45.5t-62.5 -16.5q-47 0 -84.5 25t-59 67.5t-21.5 96.5q0 52 22.5 94t60 67t83.5 25q32 0 60 -14.5t46 -39.5l1 44h107v-353zM422 318v-98h-361v98h361zM315 573q0 39 -21.5 63t-56.5 24q-36 0 -58 -24t-22 -63q0 -38 21.5 -62
t56.5 -24q36 0 58 24t22 62z" />
    <glyph glyph-name="guillemotleft" unicode="&#xab;" horiz-adv-x="621" 
d="M28 257l149 220h158l-153 -220l153 -220h-158zM281 257l149 220h158l-153 -220l153 -220h-158z" />
    <glyph glyph-name="logicalnot" unicode="&#xac;" horiz-adv-x="620" 
d="M539 157h-132v149h-326v123h458v-272z" />
    <glyph glyph-name="uni00AD" unicode="&#xad;" horiz-adv-x="428" 
d="M59 350h310v-125h-310v125z" />
    <glyph glyph-name="registered" unicode="&#xae;" horiz-adv-x="510" 
d="M141 415q-51 29 -80.5 79t-29.5 112q0 63 29.5 113t80.5 78.5t114 28.5q64 0 114.5 -28.5t80 -78.5t29.5 -113q0 -62 -29.5 -112t-80 -79t-114.5 -29q-63 0 -114 29zM92 606q0 -73 45.5 -118.5t117.5 -45.5t117 45.5t45 118.5t-45 118.5t-117 45.5t-117.5 -45.5
t-45.5 -118.5zM321 696.5q24 -18.5 24 -53.5q0 -42 -32 -60l43 -78h-68l-28 60h-29v-60h-62v210h84q44 0 68 -18.5zM249 665h-18v-50h18q32 0 32 25t-32 25z" />
    <glyph glyph-name="macron" unicode="&#xaf;" horiz-adv-x="500" 
d="M88 733h324v-103h-324v103z" />
    <glyph glyph-name="degree" unicode="&#xb0;" horiz-adv-x="491" 
d="M245 415q-52 0 -94 23.5t-66 64t-24 92.5q0 51 24.5 92t66 64.5t93.5 23.5q53 0 95 -23.5t66 -64t24 -92.5q0 -51 -24.5 -91.5t-66 -64.5t-94.5 -24zM302 655q-22 23 -57 23q-34 0 -56 -23t-22 -60t22 -60t56 -23q35 0 57 23t22 60t-22 60z" />
    <glyph glyph-name="plusminus" unicode="&#xb1;" horiz-adv-x="620" 
d="M245 186v179h-171v121h171v178h130v-178h171v-121h-171v-179h-130zM74 0v123h472v-123h-472z" />
    <glyph glyph-name="uni00B2" unicode="&#xb2;" horiz-adv-x="392" 
d="M346 456h-304v89q31 21 62 46.5t53 46.5q36 35 51 57.5t15 44.5q0 20 -15 32t-41 12q-54 0 -104 -49l-19 86q23 24 62.5 38.5t79.5 14.5q66 0 106.5 -33t40.5 -88q0 -80 -95 -163q-13 -12 -25.5 -22.5t-25.5 -20.5h159v-91z" />
    <glyph glyph-name="uni00B3" unicode="&#xb3;" horiz-adv-x="392" 
d="M208 778h-156v86h275v-80l-94 -85q50 -6 80 -38t30 -78q0 -62 -48 -99.5t-128 -37.5t-126 27l9 86q24 -13 53.5 -20t57.5 -7q35 0 54.5 14.5t19.5 39.5q0 22 -18.5 34.5t-50.5 12.5q-23 0 -41 -6l-23 55z" />
    <glyph glyph-name="acute" unicode="&#xb4;" horiz-adv-x="500" 
d="M243 778h160l-141 -168h-125z" />
    <glyph glyph-name="mu" unicode="&#xb5;" horiz-adv-x="619" 
d="M69 510h146v-285q0 -58 20.5 -84.5t66.5 -26.5q47 0 73.5 32t26.5 90v274h146v-510h-142l-2 70q-16 -38 -49.5 -62t-72.5 -24q-40 0 -67 25v-254h-146v755z" />
    <glyph glyph-name="paragraph" unicode="&#xb6;" horiz-adv-x="643" 
d="M568 -130h-122v774h-93v-774h-123v460q-98 13 -151 68.5t-53 144.5q0 102 69 159.5t191 57.5h282v-890z" />
    <glyph glyph-name="periodcentered" unicode="&#xb7;" horiz-adv-x="300" 
d="M150 464q39 0 64 -24t25 -61t-25 -60.5t-64 -23.5t-63.5 23.5t-24.5 60.5t24.5 61t63.5 24z" />
    <glyph glyph-name="cedilla" unicode="&#xb8;" horiz-adv-x="500" 
d="M213 10h83l-21 -68q47 -2 74.5 -28t27.5 -67q0 -51 -39.5 -80.5t-107.5 -29.5q-27 0 -56 6t-43 13l16 75q29 -13 68 -13q55 0 55 35q0 33 -57 33q-23 0 -35 -3z" />
    <glyph glyph-name="uni00B9" unicode="&#xb9;" horiz-adv-x="392" 
d="M283 456h-110v300l-105 -48l-15 95l134 61h96v-408z" />
    <glyph glyph-name="ordmasculine" unicode="&#xba;" horiz-adv-x="472" 
d="M43 573q0 54 25 96.5t69 66.5t99 24t98.5 -24t69 -66.5t25.5 -96.5t-25.5 -96t-69 -66.5t-98.5 -24.5t-99 24.5t-69 66.5t-25 96zM55 220v98h361v-98h-361zM157 573q0 -38 21.5 -62t56.5 -24q36 0 58 24t22 62q0 39 -21.5 63t-56.5 24q-36 0 -58 -24t-22 -63z" />
    <glyph glyph-name="guillemotright" unicode="&#xbb;" horiz-adv-x="621" 
d="M186 257l-153 220h158l149 -220l-149 -220h-158zM439 257l-153 220h158l149 -220l-149 -220h-158z" />
    <glyph glyph-name="onequarter" unicode="&#xbc;" horiz-adv-x="966" 
d="M704 744h122l-524 -744h-123zM888 164h47v-81h-47v-83h-96v83h-196v83l181 242h111v-244zM792 164v136l-102 -136h102zM283 336h-110v300l-105 -48l-15 95l134 61h96v-408z" />
    <glyph glyph-name="onehalf" unicode="&#xbd;" horiz-adv-x="966" 
d="M668 744h122l-524 -744h-123zM919 0h-304v89q31 21 62 46.5t53 46.5q36 35 51 57.5t15 44.5q0 20 -15 32t-41 12q-54 0 -104 -49l-19 86q23 24 62.5 38.5t79.5 14.5q66 0 106.5 -33t40.5 -88q0 -80 -95 -163q-13 -12 -25.5 -22.5t-25.5 -20.5h159v-91zM283 336h-110v300
l-105 -48l-15 95l134 61h96v-408z" />
    <glyph glyph-name="threequarters" unicode="&#xbe;" horiz-adv-x="966" 
d="M705 744h122l-524 -744h-123zM888 164h47v-81h-47v-83h-96v83h-196v83l181 242h111v-244zM792 164v136l-102 -136h102zM208 658h-156v86h275v-80l-94 -85q50 -6 80 -38t30 -78q0 -62 -48 -99.5t-128 -37.5t-126 27l9 86q24 -13 53.5 -20t57.5 -7q35 0 54.5 14.5
t19.5 39.5q0 22 -18.5 34.5t-50.5 12.5q-23 0 -41 -6l-23 55z" />
    <glyph glyph-name="questiondown" unicode="&#xbf;" horiz-adv-x="515" 
d="M259 -289q-67 0 -118.5 24.5t-81 69t-29.5 103.5q0 45 14.5 77.5t36.5 57.5t46 47q32 29 58.5 61t30.5 80q2 7 2 12v12h131q3 -13 3 -31q0 -50 -15 -86.5t-37.5 -62.5t-45.5 -47q-27 -25 -47.5 -49.5t-20.5 -58.5q0 -37 26.5 -58.5t73.5 -21.5q48 0 94 23.5t80 61.5
l35 -119q-34 -41 -96.5 -68t-139.5 -27zM347.5 370.5q-25.5 -23.5 -63.5 -23.5q-37 0 -62.5 23.5t-25.5 61.5t25.5 61t62.5 23q38 0 63.5 -23t25.5 -61t-25.5 -61.5z" />
    <glyph glyph-name="Agrave" unicode="&#xc0;" horiz-adv-x="818" 
d="M324 760h169l302 -760h-170l-69 196h-304l-69 -196h-160zM512 320l-108 305l-108 -305h216zM221 980h175l114 -145h-136z" />
    <glyph glyph-name="Aacute" unicode="&#xc1;" horiz-adv-x="818" 
d="M324 760h169l302 -760h-170l-69 196h-304l-69 -196h-160zM512 320l-108 305l-108 -305h216zM418 980h175l-153 -145h-137z" />
    <glyph glyph-name="Acircumflex" unicode="&#xc2;" horiz-adv-x="818" 
d="M324 760h169l302 -760h-170l-69 196h-304l-69 -196h-160zM512 320l-108 305l-108 -305h216zM336 987h144l142 -152h-145l-69 77l-69 -77h-145z" />
    <glyph glyph-name="Atilde" unicode="&#xc3;" horiz-adv-x="818" 
d="M324 760h169l302 -760h-170l-69 196h-304l-69 -196h-160zM512 320l-108 305l-108 -305h216zM331 993q27 0 47 -9t35 -20t28.5 -20t27.5 -9q32 0 32 56h97q0 -159 -113 -159q-27 0 -46.5 9t-35 20t-28.5 20t-28 9q-31 0 -31 -56h-97q0 159 112 159z" />
    <glyph glyph-name="Adieresis" unicode="&#xc4;" horiz-adv-x="818" 
d="M324 760h169l302 -760h-170l-69 196h-304l-69 -196h-160zM512 320l-108 305l-108 -305h216zM520 978q34 0 55.5 -20.5t21.5 -52.5t-21.5 -52t-55.5 -20t-55 20t-21 52t21.5 52.5t54.5 20.5zM295 978q34 0 55.5 -20.5t21.5 -52.5t-21.5 -52t-55.5 -20q-33 0 -54.5 20
t-21.5 52t21.5 52.5t54.5 20.5z" />
    <glyph glyph-name="Aring" unicode="&#xc5;" horiz-adv-x="818" 
d="M324 760h169l302 -760h-170l-69 196h-304l-69 -196h-160zM512 320l-108 305l-108 -305h216zM266 951q0 39 18.5 69.5t50.5 48t73 17.5t73 -17.5t50.5 -48t18.5 -69.5q0 -58 -40 -96t-102 -38q-61 0 -101.5 38t-40.5 96zM467 951q0 27 -16 43t-43 16t-43 -16t-16 -43
q0 -26 16 -42.5t43 -16.5t43 16.5t16 42.5z" />
    <glyph glyph-name="AE" unicode="&#xc6;" horiz-adv-x="1113" 
d="M466 760h569v-125h-356v-186h323v-125h-323v-199h371v-125h-521v196h-245l-110 -196h-166zM529 320v315l-176 -315h176z" />
    <glyph glyph-name="Ccedilla" unicode="&#xc7;" horiz-adv-x="761" 
d="M48 376q0 87 30 159.5t85.5 125t131.5 81.5t167 29q63 0 127.5 -16.5t110.5 -44.5l-27 -135q-109 53 -207 53q-76 0 -132.5 -31t-87.5 -87t-31 -131q0 -76 31 -131.5t88 -85.5t134 -30q50 0 109.5 15.5t110.5 42.5l18 -140q-52 -28 -118 -44.5t-134 -16.5
q-123 0 -214.5 48t-141.5 135t-50 204zM373 10h87l-20 -67q45 -2 74 -28t29 -66q0 -54 -41 -83t-116 -29q-25 0 -52.5 6t-41.5 13l16 78q14 -7 31 -10t35 -3q54 0 54 32q0 30 -56 30q-20 0 -34 -2z" />
    <glyph glyph-name="Egrave" unicode="&#xc8;" horiz-adv-x="673" 
d="M89 760h506v-125h-356v-186h316v-125h-316v-199h371v-125h-521v760zM162 980h175l114 -145h-136z" />
    <glyph glyph-name="Eacute" unicode="&#xc9;" horiz-adv-x="673" 
d="M89 760h506v-125h-356v-186h316v-125h-316v-199h371v-125h-521v760zM359 980h175l-153 -145h-137z" />
    <glyph glyph-name="Ecircumflex" unicode="&#xca;" horiz-adv-x="673" 
d="M89 760h506v-125h-356v-186h316v-125h-316v-199h371v-125h-521v760zM277 987h144l142 -152h-145l-69 77l-69 -77h-145z" />
    <glyph glyph-name="Edieresis" unicode="&#xcb;" horiz-adv-x="673" 
d="M89 760h506v-125h-356v-186h316v-125h-316v-199h371v-125h-521v760zM461 978q34 0 55.5 -20.5t21.5 -52.5t-21.5 -52t-55.5 -20t-55 20t-21 52t21.5 52.5t54.5 20.5zM236 978q34 0 55.5 -20.5t21.5 -52.5t-21.5 -52t-55.5 -20q-33 0 -54.5 20t-21.5 52t21.5 52.5
t54.5 20.5z" />
    <glyph glyph-name="Igrave" unicode="&#xcc;" horiz-adv-x="339" 
d="M89 760h161v-760h-161v760zM-18 980h175l114 -145h-136z" />
    <glyph glyph-name="Iacute" unicode="&#xcd;" horiz-adv-x="339" 
d="M89 760h161v-760h-161v760zM179 980h175l-153 -145h-137z" />
    <glyph glyph-name="Icircumflex" unicode="&#xce;" horiz-adv-x="339" 
d="M89 760h161v-760h-161v760zM97 987h144l142 -152h-145l-69 77l-69 -77h-145z" />
    <glyph glyph-name="Idieresis" unicode="&#xcf;" horiz-adv-x="339" 
d="M89 760h161v-760h-161v760zM281 978q34 0 55.5 -20.5t21.5 -52.5t-21.5 -52t-55.5 -20t-55 20t-21 52t21.5 52.5t54.5 20.5zM56 978q34 0 55.5 -20.5t21.5 -52.5t-21.5 -52t-55.5 -20q-33 0 -54.5 20t-21.5 52t21.5 52.5t54.5 20.5z" />
    <glyph glyph-name="Eth" unicode="&#xd0;" horiz-adv-x="868" 
d="M108 0v330h-91v105h91v325h293q133 0 227 -45t143.5 -129.5t49.5 -204.5t-51 -205.5t-147 -130.5t-232 -45h-283zM267 129h120q266 0 266 251t-266 251h-120v-196h158v-105h-158v-201z" />
    <glyph glyph-name="Ntilde" unicode="&#xd1;" horiz-adv-x="852" 
d="M89 760h141l387 -525v525h146v-760h-141l-386 523v-523h-147v760zM344 993q27 0 47 -9t35 -20t28.5 -20t27.5 -9q32 0 32 56h97q0 -159 -113 -159q-27 0 -46.5 9t-35 20t-28.5 20t-28 9q-31 0 -31 -56h-97q0 159 112 159z" />
    <glyph glyph-name="Ograve" unicode="&#xd2;" horiz-adv-x="904" 
d="M48 380q0 84 30.5 156t86 126t129 84t158.5 30q87 0 160.5 -29.5t128.5 -83t85 -125.5t30 -158q0 -84 -30.5 -156t-86 -126t-128.5 -84t-159 -30q-87 0 -161 29.5t-128.5 83t-84.5 126t-30 157.5zM689 380q0 74 -30.5 131t-84 89.5t-122.5 32.5t-122.5 -32.5t-84 -89.5
t-30.5 -131q0 -73 30.5 -130.5t84 -90t122.5 -32.5t122.5 32.5t84 89.5t30.5 131zM265 980h175l114 -145h-136z" />
    <glyph glyph-name="Oacute" unicode="&#xd3;" horiz-adv-x="904" 
d="M48 380q0 84 30.5 156t86 126t129 84t158.5 30q87 0 160.5 -29.5t128.5 -83t85 -125.5t30 -158q0 -84 -30.5 -156t-86 -126t-128.5 -84t-159 -30q-87 0 -161 29.5t-128.5 83t-84.5 126t-30 157.5zM689 380q0 74 -30.5 131t-84 89.5t-122.5 32.5t-122.5 -32.5t-84 -89.5
t-30.5 -131q0 -73 30.5 -130.5t84 -90t122.5 -32.5t122.5 32.5t84 89.5t30.5 131zM462 980h175l-153 -145h-137z" />
    <glyph glyph-name="Ocircumflex" unicode="&#xd4;" horiz-adv-x="904" 
d="M48 380q0 84 30.5 156t86 126t129 84t158.5 30q87 0 160.5 -29.5t128.5 -83t85 -125.5t30 -158q0 -84 -30.5 -156t-86 -126t-128.5 -84t-159 -30q-87 0 -161 29.5t-128.5 83t-84.5 126t-30 157.5zM689 380q0 74 -30.5 131t-84 89.5t-122.5 32.5t-122.5 -32.5t-84 -89.5
t-30.5 -131q0 -73 30.5 -130.5t84 -90t122.5 -32.5t122.5 32.5t84 89.5t30.5 131zM380 987h144l142 -152h-145l-69 77l-69 -77h-145z" />
    <glyph glyph-name="Otilde" unicode="&#xd5;" horiz-adv-x="904" 
d="M48 380q0 84 30.5 156t86 126t129 84t158.5 30q87 0 160.5 -29.5t128.5 -83t85 -125.5t30 -158q0 -84 -30.5 -156t-86 -126t-128.5 -84t-159 -30q-87 0 -161 29.5t-128.5 83t-84.5 126t-30 157.5zM689 380q0 74 -30.5 131t-84 89.5t-122.5 32.5t-122.5 -32.5t-84 -89.5
t-30.5 -131q0 -73 30.5 -130.5t84 -90t122.5 -32.5t122.5 32.5t84 89.5t30.5 131zM375 993q27 0 47 -9t35 -20t28.5 -20t27.5 -9q32 0 32 56h97q0 -159 -113 -159q-27 0 -46.5 9t-35 20t-28.5 20t-28 9q-31 0 -31 -56h-97q0 159 112 159z" />
    <glyph glyph-name="Odieresis" unicode="&#xd6;" horiz-adv-x="904" 
d="M48 380q0 84 30.5 156t86 126t129 84t158.5 30q87 0 160.5 -29.5t128.5 -83t85 -125.5t30 -158q0 -84 -30.5 -156t-86 -126t-128.5 -84t-159 -30q-87 0 -161 29.5t-128.5 83t-84.5 126t-30 157.5zM689 380q0 74 -30.5 131t-84 89.5t-122.5 32.5t-122.5 -32.5t-84 -89.5
t-30.5 -131q0 -73 30.5 -130.5t84 -90t122.5 -32.5t122.5 32.5t84 89.5t30.5 131zM564 978q34 0 55.5 -20.5t21.5 -52.5t-21.5 -52t-55.5 -20t-55 20t-21 52t21.5 52.5t54.5 20.5zM339 978q34 0 55.5 -20.5t21.5 -52.5t-21.5 -52t-55.5 -20q-33 0 -54.5 20t-21.5 52
t21.5 52.5t54.5 20.5z" />
    <glyph glyph-name="multiply" unicode="&#xd7;" horiz-adv-x="620" 
d="M532 202l-87 -85l-137 138l-138 -138l-83 83l138 138l-138 137l86 86l138 -137l137 137l83 -83l-137 -137z" />
    <glyph glyph-name="Oslash" unicode="&#xd8;" horiz-adv-x="904" 
d="M315.5 5q-63.5 21 -114.5 58l-85 -84l-70 69l85 84q-40 50 -61.5 113t-21.5 135q0 84 30.5 156t86 126t129 84t158.5 30q72 0 136 -21t114 -59l86 85l70 -69l-85 -84q39 -50 61 -113t22 -135q0 -84 -30.5 -156t-86 -126t-128.5 -84t-159 -30q-73 0 -136.5 21zM247 247
l346 341q-29 22 -64.5 33.5t-76.5 11.5q-69 0 -122.5 -32.5t-84 -89.5t-30.5 -131t32 -133zM452 127q69 0 122.5 32.5t84 89.5t30.5 131t-32 133l-346 -341q29 -22 64.5 -33.5t76.5 -11.5z" />
    <glyph glyph-name="Ugrave" unicode="&#xd9;" horiz-adv-x="846" 
d="M84 760h161v-425q0 -208 178 -208q177 0 177 208v425h162v-437q0 -163 -89 -251t-251 -88t-250 88.5t-88 250.5v437zM236 980h175l114 -145h-136z" />
    <glyph glyph-name="Uacute" unicode="&#xda;" horiz-adv-x="846" 
d="M84 760h161v-425q0 -208 178 -208q177 0 177 208v425h162v-437q0 -163 -89 -251t-251 -88t-250 88.5t-88 250.5v437zM433 980h175l-153 -145h-137z" />
    <glyph glyph-name="Ucircumflex" unicode="&#xdb;" horiz-adv-x="846" 
d="M84 760h161v-425q0 -208 178 -208q177 0 177 208v425h162v-437q0 -163 -89 -251t-251 -88t-250 88.5t-88 250.5v437zM351 987h144l142 -152h-145l-69 77l-69 -77h-145z" />
    <glyph glyph-name="Udieresis" unicode="&#xdc;" horiz-adv-x="846" 
d="M84 760h161v-425q0 -208 178 -208q177 0 177 208v425h162v-437q0 -163 -89 -251t-251 -88t-250 88.5t-88 250.5v437zM535 978q34 0 55.5 -20.5t21.5 -52.5t-21.5 -52t-55.5 -20t-55 20t-21 52t21.5 52.5t54.5 20.5zM310 978q34 0 55.5 -20.5t21.5 -52.5t-21.5 -52
t-55.5 -20q-33 0 -54.5 20t-21.5 52t21.5 52.5t54.5 20.5z" />
    <glyph glyph-name="Yacute" unicode="&#xdd;" horiz-adv-x="738" 
d="M448 315v-315h-159v316l-279 444h179l183 -328l183 328h172zM379 980h175l-153 -145h-137z" />
    <glyph glyph-name="Thorn" unicode="&#xde;" horiz-adv-x="663" 
d="M89 760h149v-119h107q86 0 149.5 -31t98 -87t34.5 -132q0 -77 -34.5 -133.5t-98 -87.5t-150.5 -31h-106v-139h-149v760zM320 260q150 0 150 130t-150 130h-82v-260h82z" />
    <glyph glyph-name="germandbls" unicode="&#xdf;" horiz-adv-x="676" 
d="M72 538q0 131 70 204t195 73q76 0 131.5 -26.5t86.5 -74t31 -112.5q0 -58 -28 -105t-76 -67q70 -18 111.5 -74.5t41.5 -134.5q0 -72 -29.5 -125.5t-84 -82.5t-129.5 -29q-38 0 -72 7.5t-59 21.5l16 117q18 -10 45 -17t50 -7q55 0 88.5 34.5t33.5 89.5q0 57 -39 90
t-107 33h-45v116h26q55 0 86 30.5t31 85.5q0 50 -29.5 78t-81.5 28q-58 0 -90 -41.5t-32 -118.5v-531h-141v538z" />
    <glyph glyph-name="agrave" unicode="&#xe0;" horiz-adv-x="658" 
d="M587 0h-139l-2 76q-52 -92 -170 -92q-68 0 -120.5 34.5t-82.5 95.5t-30 140q0 77 32 138.5t86.5 97.5t121.5 36q53 0 96 -24t67 -67l2 75h139v-510zM449 255q0 62 -36 101.5t-94 39.5q-57 0 -93 -39.5t-36 -101.5t36 -101.5t93 -39.5q58 0 94 39.5t36 101.5zM165 778h161
l106 -168h-125z" />
    <glyph glyph-name="aacute" unicode="&#xe1;" horiz-adv-x="658" 
d="M587 0h-139l-2 76q-52 -92 -170 -92q-68 0 -120.5 34.5t-82.5 95.5t-30 140q0 77 32 138.5t86.5 97.5t121.5 36q53 0 96 -24t67 -67l2 75h139v-510zM449 255q0 62 -36 101.5t-94 39.5q-57 0 -93 -39.5t-36 -101.5t36 -101.5t93 -39.5q58 0 94 39.5t36 101.5zM347 778h160
l-141 -168h-125z" />
    <glyph glyph-name="acircumflex" unicode="&#xe2;" horiz-adv-x="658" 
d="M587 0h-139l-2 76q-52 -92 -170 -92q-68 0 -120.5 34.5t-82.5 95.5t-30 140q0 77 32 138.5t86.5 97.5t121.5 36q53 0 96 -24t67 -67l2 75h139v-510zM449 255q0 62 -36 101.5t-94 39.5q-57 0 -93 -39.5t-36 -101.5t36 -101.5t93 -39.5q58 0 94 39.5t36 101.5zM273 778h126
l138 -168h-129l-72 88l-72 -88h-129z" />
    <glyph glyph-name="atilde" unicode="&#xe3;" horiz-adv-x="658" 
d="M587 0h-139l-2 76q-52 -92 -170 -92q-68 0 -120.5 34.5t-82.5 95.5t-30 140q0 77 32 138.5t86.5 97.5t121.5 36q53 0 96 -24t67 -67l2 75h139v-510zM449 255q0 62 -36 101.5t-94 39.5q-57 0 -93 -39.5t-36 -101.5t36 -101.5t93 -39.5q58 0 94 39.5t36 101.5zM416 612
q-28 0 -48 9t-35.5 21t-29 21t-28.5 9q-32 0 -32 -58h-95q0 156 108 156q29 0 49 -9t35.5 -20.5t29 -20.5t28.5 -9q32 0 32 58h94q0 -157 -108 -157z" />
    <glyph glyph-name="adieresis" unicode="&#xe4;" horiz-adv-x="658" 
d="M587 0h-139l-2 76q-52 -92 -170 -92q-68 0 -120.5 34.5t-82.5 95.5t-30 140q0 77 32 138.5t86.5 97.5t121.5 36q53 0 96 -24t67 -67l2 75h139v-510zM449 255q0 62 -36 101.5t-94 39.5q-57 0 -93 -39.5t-36 -101.5t36 -101.5t93 -39.5q58 0 94 39.5t36 101.5zM151 684
q0 31 21 51t53 20q33 0 54 -19.5t21 -51.5q0 -31 -21 -51t-54 -20t-53.5 20t-20.5 51zM372 684q0 31 21 51t53 20q33 0 54 -19.5t21 -51.5q0 -31 -21 -51t-54 -20t-53.5 20t-20.5 51z" />
    <glyph glyph-name="aring" unicode="&#xe5;" horiz-adv-x="658" 
d="M587 0h-139l-2 76q-52 -92 -170 -92q-68 0 -120.5 34.5t-82.5 95.5t-30 140q0 77 32 138.5t86.5 97.5t121.5 36q53 0 96 -24t67 -67l2 75h139v-510zM449 255q0 62 -36 101.5t-94 39.5q-57 0 -93 -39.5t-36 -101.5t36 -101.5t93 -39.5q58 0 94 39.5t36 101.5zM336 577
q-41 0 -73 17.5t-50.5 48.5t-18.5 69q0 39 18.5 69.5t50.5 48t73 17.5t73 -17.5t50.5 -48t18.5 -69.5q0 -38 -18.5 -69t-50.5 -48.5t-73 -17.5zM379 755q-16 16 -43 16t-43 -16t-16 -43q0 -26 16 -42.5t43 -16.5t43 16.5t16 42.5q0 27 -16 43z" />
    <glyph glyph-name="ae" unicode="&#xe6;" horiz-adv-x="998" 
d="M443 510h119l1 -58q25 36 66 55t90 19q69 0 120 -31.5t79.5 -88t28.5 -132.5q0 -16 -0.5 -28.5t-2.5 -26.5h-359q10 -63 53.5 -92.5t117.5 -29.5q44 0 88 9.5t81 27.5l14 -109q-33 -18 -83 -29.5t-98 -11.5q-65 0 -116 20t-79 55l-1 -59h-119l-2 69q-25 -41 -68 -63
t-98 -22q-67 0 -119.5 34.5t-82.5 95.5t-30 140q0 77 32 138.5t86.5 97.5t122.5 36q48 0 90 -22.5t67 -62.5zM190 255q0 -62 36 -101.5t93 -39.5q58 0 94 39.5t36 101.5t-36 101.5t-94 39.5q-57 0 -93 -39.5t-36 -101.5zM809 326q-7 46 -35 71t-73 25q-48 0 -78.5 -30
t-38.5 -86h227q0 11 -2 20z" />
    <glyph glyph-name="ccedilla" unicode="&#xe7;" horiz-adv-x="541" 
d="M177.5 489.5q63.5 34.5 146.5 34.5q44 0 89.5 -10.5t76.5 -28.5l-18 -122q-65 31 -134 31q-68 0 -108 -37t-40 -101q0 -65 40.5 -102t112.5 -37q33 0 66.5 7t70.5 23l16 -120q-34 -19 -79.5 -29.5t-91.5 -10.5q-85 0 -148.5 32.5t-98.5 92.5t-35 141q0 80 35.5 141
t99 95.5zM260 10h83l-21 -68q47 -2 74.5 -28t27.5 -67q0 -51 -39.5 -80.5t-107.5 -29.5q-27 0 -56 6t-43 13l16 75q29 -13 68 -13q55 0 55 35q0 33 -57 33q-23 0 -35 -3z" />
    <glyph glyph-name="egrave" unicode="&#xe8;" horiz-adv-x="600" 
d="M342 -16q-93 0 -160 32.5t-103 93.5t-36 144q0 81 33.5 142t93 95.5t136.5 34.5q74 0 128.5 -31t84 -88t29.5 -134q0 -25 -3 -54h-359q10 -63 54 -92.5t119 -29.5q42 0 86 10t81 27l14 -109q-39 -19 -91.5 -30t-106.5 -11zM223.5 392q-30.5 -30 -38.5 -86h227q0 11 -2 20
q-7 46 -35 71t-73 25q-48 0 -78.5 -30zM130 778h161l106 -168h-125z" />
    <glyph glyph-name="eacute" unicode="&#xe9;" horiz-adv-x="600" 
d="M342 -16q-93 0 -160 32.5t-103 93.5t-36 144q0 81 33.5 142t93 95.5t136.5 34.5q74 0 128.5 -31t84 -88t29.5 -134q0 -25 -3 -54h-359q10 -63 54 -92.5t119 -29.5q42 0 86 10t81 27l14 -109q-39 -19 -91.5 -30t-106.5 -11zM223.5 392q-30.5 -30 -38.5 -86h227q0 11 -2 20
q-7 46 -35 71t-73 25q-48 0 -78.5 -30zM312 778h160l-141 -168h-125z" />
    <glyph glyph-name="ecircumflex" unicode="&#xea;" horiz-adv-x="600" 
d="M342 -16q-93 0 -160 32.5t-103 93.5t-36 144q0 81 33.5 142t93 95.5t136.5 34.5q74 0 128.5 -31t84 -88t29.5 -134q0 -25 -3 -54h-359q10 -63 54 -92.5t119 -29.5q42 0 86 10t81 27l14 -109q-39 -19 -91.5 -30t-106.5 -11zM223.5 392q-30.5 -30 -38.5 -86h227q0 11 -2 20
q-7 46 -35 71t-73 25q-48 0 -78.5 -30zM238 778h126l138 -168h-129l-72 88l-72 -88h-129z" />
    <glyph glyph-name="edieresis" unicode="&#xeb;" horiz-adv-x="600" 
d="M342 -16q-93 0 -160 32.5t-103 93.5t-36 144q0 81 33.5 142t93 95.5t136.5 34.5q74 0 128.5 -31t84 -88t29.5 -134q0 -25 -3 -54h-359q10 -63 54 -92.5t119 -29.5q42 0 86 10t81 27l14 -109q-39 -19 -91.5 -30t-106.5 -11zM223.5 392q-30.5 -30 -38.5 -86h227q0 11 -2 20
q-7 46 -35 71t-73 25q-48 0 -78.5 -30zM116 684q0 31 21 51t53 20q33 0 54 -19.5t21 -51.5q0 -31 -21 -51t-54 -20t-53.5 20t-20.5 51zM337 684q0 31 21 51t53 20q33 0 54 -19.5t21 -51.5q0 -31 -21 -51t-54 -20t-53.5 20t-20.5 51z" />
    <glyph glyph-name="igrave" unicode="&#xec;" horiz-adv-x="289" 
d="M72 510h146v-510h-146v510zM-27 778h161l106 -168h-125z" />
    <glyph glyph-name="iacute" unicode="&#xed;" horiz-adv-x="289" 
d="M72 510h146v-510h-146v510zM155 778h160l-141 -168h-125z" />
    <glyph glyph-name="icircumflex" unicode="&#xee;" horiz-adv-x="289" 
d="M72 510h146v-510h-146v510zM81 778h126l138 -168h-129l-72 88l-72 -88h-129z" />
    <glyph glyph-name="idieresis" unicode="&#xef;" horiz-adv-x="289" 
d="M72 510h146v-510h-146v510zM-41 684q0 31 21 51t53 20q33 0 54 -19.5t21 -51.5q0 -31 -21 -51t-54 -20t-53.5 20t-20.5 51zM180 684q0 31 21 51t53 20q33 0 54 -19.5t21 -51.5q0 -31 -21 -51t-54 -20t-53.5 20t-20.5 51z" />
    <glyph glyph-name="eth" unicode="&#xf0;" horiz-adv-x="638" 
d="M592 286q0 -141 -73.5 -221.5t-202.5 -80.5q-81 0 -142.5 34t-96 94.5t-34.5 138.5q0 74 33 134t88 95.5t122 35.5q75 0 125 -46q-16 39 -39.5 78t-52.5 76l-155 -67l-32 75l132 57q-57 61 -122 110l175 11q37 -32 71 -67l118 52l32 -76l-94 -41q69 -87 108.5 -187
t39.5 -205zM450 251q0 62 -36.5 101t-94.5 39t-94 -39t-36 -101q0 -61 36 -100t94 -39t94.5 39t36.5 100z" />
    <glyph glyph-name="ntilde" unicode="&#xf1;" horiz-adv-x="619" 
d="M72 510h141l2 -73q20 43 61 66t95 23q87 0 134 -55.5t47 -160.5v-310h-146v282q0 115 -88 115q-48 0 -74 -32t-26 -91v-274h-146v510zM392 612q-28 0 -48 9t-35.5 21t-29 21t-28.5 9q-32 0 -32 -58h-95q0 156 108 156q29 0 49 -9t35.5 -20.5t29 -20.5t28.5 -9q32 0 32 58
h94q0 -157 -108 -157z" />
    <glyph glyph-name="ograve" unicode="&#xf2;" horiz-adv-x="639" 
d="M319 -16q-79 0 -141.5 35.5t-98.5 96.5t-36 139t36.5 139t99 96.5t140.5 35.5q80 0 142 -35.5t98 -96.5t36 -139q0 -77 -36.5 -138.5t-98.5 -97t-141 -35.5zM413 356.5q-36 39.5 -94 39.5q-57 0 -93 -39.5t-36 -101.5t36 -101.5t93 -39.5q58 0 94 39.5t36 101.5
t-36 101.5zM148 778h161l106 -168h-125z" />
    <glyph glyph-name="oacute" unicode="&#xf3;" horiz-adv-x="639" 
d="M319 -16q-79 0 -141.5 35.5t-98.5 96.5t-36 139t36.5 139t99 96.5t140.5 35.5q80 0 142 -35.5t98 -96.5t36 -139q0 -77 -36.5 -138.5t-98.5 -97t-141 -35.5zM413 356.5q-36 39.5 -94 39.5q-57 0 -93 -39.5t-36 -101.5t36 -101.5t93 -39.5q58 0 94 39.5t36 101.5
t-36 101.5zM330 778h160l-141 -168h-125z" />
    <glyph glyph-name="ocircumflex" unicode="&#xf4;" horiz-adv-x="639" 
d="M319 -16q-79 0 -141.5 35.5t-98.5 96.5t-36 139t36.5 139t99 96.5t140.5 35.5q80 0 142 -35.5t98 -96.5t36 -139q0 -77 -36.5 -138.5t-98.5 -97t-141 -35.5zM413 356.5q-36 39.5 -94 39.5q-57 0 -93 -39.5t-36 -101.5t36 -101.5t93 -39.5q58 0 94 39.5t36 101.5
t-36 101.5zM256 778h126l138 -168h-129l-72 88l-72 -88h-129z" />
    <glyph glyph-name="otilde" unicode="&#xf5;" horiz-adv-x="639" 
d="M319 -16q-79 0 -141.5 35.5t-98.5 96.5t-36 139t36.5 139t99 96.5t140.5 35.5q80 0 142 -35.5t98 -96.5t36 -139q0 -77 -36.5 -138.5t-98.5 -97t-141 -35.5zM413 356.5q-36 39.5 -94 39.5q-57 0 -93 -39.5t-36 -101.5t36 -101.5t93 -39.5q58 0 94 39.5t36 101.5
t-36 101.5zM399 612q-28 0 -48 9t-35.5 21t-29 21t-28.5 9q-32 0 -32 -58h-95q0 156 108 156q29 0 49 -9t35.5 -20.5t29 -20.5t28.5 -9q32 0 32 58h94q0 -157 -108 -157z" />
    <glyph glyph-name="odieresis" unicode="&#xf6;" horiz-adv-x="639" 
d="M319 -16q-79 0 -141.5 35.5t-98.5 96.5t-36 139t36.5 139t99 96.5t140.5 35.5q80 0 142 -35.5t98 -96.5t36 -139q0 -77 -36.5 -138.5t-98.5 -97t-141 -35.5zM413 356.5q-36 39.5 -94 39.5q-57 0 -93 -39.5t-36 -101.5t36 -101.5t93 -39.5q58 0 94 39.5t36 101.5
t-36 101.5zM134 684q0 31 21 51t53 20q33 0 54 -19.5t21 -51.5q0 -31 -21 -51t-54 -20t-53.5 20t-20.5 51zM355 684q0 31 21 51t53 20q33 0 54 -19.5t21 -51.5q0 -31 -21 -51t-54 -20t-53.5 20t-20.5 51z" />
    <glyph glyph-name="divide" unicode="&#xf7;" horiz-adv-x="620" 
d="M74 277v116h472v-116h-472zM256 191q21 20 54 20t54 -20t21 -50q0 -31 -21 -51t-54 -20t-54 20t-21 51q0 30 21 50zM256 580q21 20 54 20t54 -20t21 -50q0 -31 -21 -51t-54 -20t-54 20t-21 51q0 30 21 50z" />
    <glyph glyph-name="oslash" unicode="&#xf8;" horiz-adv-x="639" 
d="M42 34l55 55q-26 34 -40 76t-14 90q0 78 36.5 139t99 96.5t140.5 35.5q48 0 90.5 -13.5t77.5 -38.5l55 55l54 -53l-55 -55q26 -33 40 -75.5t14 -90.5q0 -77 -36.5 -138.5t-98.5 -97t-141 -35.5q-48 0 -90.5 13.5t-76.5 38.5l-55 -55zM319 414q-64 0 -105 -44t-41 -115
q0 -42 16 -76l212 211q-35 24 -82 24zM465 255q0 42 -15 76l-212 -210q35 -24 81 -24q65 0 105.5 44t40.5 114z" />
    <glyph glyph-name="ugrave.alt" unicode="&#xf9;" horiz-adv-x="618" 
d="M546 0h-142l-2 70q-20 -41 -61.5 -63.5t-97.5 -22.5q-85 0 -130 53.5t-45 154.5v318h146v-285q0 -58 20.5 -84.5t66.5 -26.5q47 0 73 32t26 90v274h146v-510zM133 778h161l106 -168h-125z" />
    <glyph glyph-name="uacute.alt" unicode="&#xfa;" horiz-adv-x="618" 
d="M546 0h-142l-2 70q-20 -41 -61.5 -63.5t-97.5 -22.5q-85 0 -130 53.5t-45 154.5v318h146v-285q0 -58 20.5 -84.5t66.5 -26.5q47 0 73 32t26 90v274h146v-510zM315 778h160l-141 -168h-125z" />
    <glyph glyph-name="ucircumflex.alt" unicode="&#xfb;" horiz-adv-x="618" 
d="M546 0h-142l-2 70q-20 -41 -61.5 -63.5t-97.5 -22.5q-85 0 -130 53.5t-45 154.5v318h146v-285q0 -58 20.5 -84.5t66.5 -26.5q47 0 73 32t26 90v274h146v-510zM241 778h126l138 -168h-129l-72 88l-72 -88h-129z" />
    <glyph glyph-name="udieresis.alt" unicode="&#xfc;" horiz-adv-x="618" 
d="M546 0h-142l-2 70q-20 -41 -61.5 -63.5t-97.5 -22.5q-85 0 -130 53.5t-45 154.5v318h146v-285q0 -58 20.5 -84.5t66.5 -26.5q47 0 73 32t26 90v274h146v-510zM119 684q0 31 21 51t53 20q33 0 54 -19.5t21 -51.5q0 -31 -21 -51t-54 -20t-53.5 20t-20.5 51zM340 684
q0 31 21 51t53 20q33 0 54 -19.5t21 -51.5q0 -31 -21 -51t-54 -20t-53.5 20t-20.5 51z" />
    <glyph glyph-name="yacute" unicode="&#xfd;" horiz-adv-x="595" 
d="M244 -245h-148l133 277l-214 478h160l128 -330l121 330h156zM311 778h160l-141 -168h-125z" />
    <glyph glyph-name="thorn" unicode="&#xfe;" horiz-adv-x="658" 
d="M72 810h146v-367q55 83 164 83q68 0 120.5 -34.5t82.5 -95.5t30 -140q0 -77 -32 -138.5t-86 -97.5t-122 -36q-103 0 -157 80v-309h-146v1055zM432.5 153.5q36.5 39.5 36.5 101.5t-36.5 101.5t-93.5 39.5t-93.5 -39.5t-36.5 -101.5t36.5 -101.5t93.5 -39.5t93.5 39.5z" />
    <glyph glyph-name="ydieresis" unicode="&#xff;" horiz-adv-x="595" 
d="M244 -245h-148l133 277l-214 478h160l128 -330l121 330h156zM115 684q0 31 21 51t53 20q33 0 54 -19.5t21 -51.5q0 -31 -21 -51t-54 -20t-53.5 20t-20.5 51zM336 684q0 31 21 51t53 20q33 0 54 -19.5t21 -51.5q0 -31 -21 -51t-54 -20t-53.5 20t-20.5 51z" />
    <glyph glyph-name="Amacron" unicode="&#x100;" horiz-adv-x="818" 
d="M324 760h169l302 -760h-170l-69 196h-304l-69 -196h-160zM512 320l-108 305l-108 -305h216zM243 950h330v-105h-330v105z" />
    <glyph glyph-name="amacron" unicode="&#x101;" horiz-adv-x="658" 
d="M587 0h-139l-2 76q-52 -92 -170 -92q-68 0 -120.5 34.5t-82.5 95.5t-30 140q0 77 32 138.5t86.5 97.5t121.5 36q53 0 96 -24t67 -67l2 75h139v-510zM449 255q0 62 -36 101.5t-94 39.5q-57 0 -93 -39.5t-36 -101.5t36 -101.5t93 -39.5q58 0 94 39.5t36 101.5zM174 733h324
v-103h-324v103z" />
    <glyph glyph-name="Abreve" unicode="&#x102;" horiz-adv-x="818" 
d="M324 760h169l302 -760h-170l-69 196h-304l-69 -196h-160zM512 320l-108 305l-108 -305h216zM227 971q0 8 1 13h104v-8q0 -30 21 -48t55 -18q35 0 55.5 18t20.5 47v9h104q1 -5 1 -13q0 -70 -49 -111t-132 -41t-132 41t-49 111z" />
    <glyph glyph-name="abreve" unicode="&#x103;" horiz-adv-x="658" 
d="M587 0h-139l-2 76q-52 -92 -170 -92q-68 0 -120.5 34.5t-82.5 95.5t-30 140q0 77 32 138.5t86.5 97.5t121.5 36q53 0 96 -24t67 -67l2 75h139v-510zM449 255q0 62 -36 101.5t-94 39.5q-57 0 -93 -39.5t-36 -101.5t36 -101.5t93 -39.5q58 0 94 39.5t36 101.5zM160 748v6
t1 7h99v-6q0 -36 20 -56t56 -20t56 20t20 56v6h99q1 -4 1 -7v-6q0 -73 -47 -115t-129 -42t-129 42t-47 115z" />
    <glyph glyph-name="Aogonek" unicode="&#x104;" horiz-adv-x="818" 
d="M324 760h169l302 -760h-170l-69 196h-304l-69 -196h-160zM512 320l-108 305l-108 -305h216zM747 38l49 -38q-90 -66 -90 -119q0 -34 40 -34q26 0 47 12l10 -99q-14 -9 -38 -14t-50 -5q-60 0 -93 28t-33 77q0 51 41.5 101.5t116.5 90.5z" />
    <glyph glyph-name="aogonek" unicode="&#x105;" horiz-adv-x="658" 
d="M587 0h-139l-2 76q-52 -92 -170 -92q-68 0 -120.5 34.5t-82.5 95.5t-30 140q0 77 32 138.5t86.5 97.5t121.5 36q53 0 96 -24t67 -67l2 75h139v-510zM449 255q0 62 -36 101.5t-94 39.5q-57 0 -93 -39.5t-36 -101.5t36 -101.5t93 -39.5q58 0 94 39.5t36 101.5zM538 38
l49 -38q-93 -66 -93 -119q0 -37 43 -37q26 0 48 12l9 -96q-14 -9 -37.5 -14t-49.5 -5q-60 0 -93.5 28t-33.5 77q0 51 41.5 101.5t116.5 90.5z" />
    <glyph glyph-name="Cacute" unicode="&#x106;" horiz-adv-x="761" 
d="M48 376q0 87 30 159.5t85.5 125t131.5 81.5t167 29q63 0 127.5 -16.5t110.5 -44.5l-27 -135q-109 53 -207 53q-76 0 -132.5 -31t-87.5 -87t-31 -131q0 -76 31 -131.5t88 -85.5t134 -30q50 0 109.5 15.5t110.5 42.5l18 -140q-52 -28 -118 -44.5t-134 -16.5
q-123 0 -214.5 48t-141.5 135t-50 204zM430 980h175l-153 -145h-137z" />
    <glyph glyph-name="cacute" unicode="&#x107;" horiz-adv-x="541" 
d="M177.5 489.5q63.5 34.5 146.5 34.5q44 0 89.5 -10.5t76.5 -28.5l-18 -122q-65 31 -134 31q-68 0 -108 -37t-40 -101q0 -65 40.5 -102t112.5 -37q33 0 66.5 7t70.5 23l16 -120q-34 -19 -79.5 -29.5t-91.5 -10.5q-85 0 -148.5 32.5t-98.5 92.5t-35 141q0 80 35.5 141
t99 95.5zM307 778h160l-141 -168h-125z" />
    <glyph glyph-name="Cdotaccent" unicode="&#x10a;" horiz-adv-x="761" 
d="M48 376q0 87 30 159.5t85.5 125t131.5 81.5t167 29q63 0 127.5 -16.5t110.5 -44.5l-27 -135q-109 53 -207 53q-76 0 -132.5 -31t-87.5 -87t-31 -131q0 -76 31 -131.5t88 -85.5t134 -30q50 0 109.5 15.5t110.5 42.5l18 -140q-52 -28 -118 -44.5t-134 -16.5
q-123 0 -214.5 48t-141.5 135t-50 204zM420 992q38 0 61.5 -22.5t23.5 -59.5q0 -36 -23.5 -58.5t-61.5 -22.5t-61.5 22.5t-23.5 58.5t24 59t61 23z" />
    <glyph glyph-name="cdotaccent" unicode="&#x10b;" horiz-adv-x="541" 
d="M177.5 489.5q63.5 34.5 146.5 34.5q44 0 89.5 -10.5t76.5 -28.5l-18 -122q-65 31 -134 31q-68 0 -108 -37t-40 -101q0 -65 40.5 -102t112.5 -37q33 0 66.5 7t70.5 23l16 -120q-34 -19 -79.5 -29.5t-91.5 -10.5q-85 0 -148.5 32.5t-98.5 92.5t-35 141q0 80 35.5 141
t99 95.5zM296 767q37 0 59.5 -21.5t22.5 -57.5q0 -34 -22.5 -55.5t-59.5 -21.5t-59 21t-22 56t22.5 57t58.5 22z" />
    <glyph glyph-name="Ccaron" unicode="&#x10c;" horiz-adv-x="761" 
d="M48 376q0 87 30 159.5t85.5 125t131.5 81.5t167 29q63 0 127.5 -16.5t110.5 -44.5l-27 -135q-109 53 -207 53q-76 0 -132.5 -31t-87.5 -87t-31 -131q0 -76 31 -131.5t88 -85.5t134 -30q50 0 109.5 15.5t110.5 42.5l18 -140q-52 -28 -118 -44.5t-134 -16.5
q-123 0 -214.5 48t-141.5 135t-50 204zM206 987h145l69 -77l69 77h145l-142 -152h-144z" />
    <glyph glyph-name="ccaron" unicode="&#x10d;" horiz-adv-x="541" 
d="M177.5 489.5q63.5 34.5 146.5 34.5q44 0 89.5 -10.5t76.5 -28.5l-18 -122q-65 31 -134 31q-68 0 -108 -37t-40 -101q0 -65 40.5 -102t112.5 -37q33 0 66.5 7t70.5 23l16 -120q-34 -19 -79.5 -29.5t-91.5 -10.5q-85 0 -148.5 32.5t-98.5 92.5t-35 141q0 80 35.5 141
t99 95.5zM95 778h129l72 -88l72 88h129l-138 -168h-126z" />
    <glyph glyph-name="Dcaron" unicode="&#x10e;" horiz-adv-x="850" 
d="M89 760h293q133 0 227 -45t143.5 -129.5t49.5 -204.5t-51 -205.5t-147 -130.5t-232 -45h-283v760zM368 129q267 0 267 251t-266 251h-121v-502h120zM181 987h145l69 -77l69 77h145l-142 -152h-144z" />
    <glyph glyph-name="dcaron" unicode="&#x10f;" horiz-adv-x="658" 
d="M587 0h-139l-2 75q-54 -91 -170 -91q-68 0 -120.5 34.5t-82.5 95.5t-30 140q0 77 32 138.5t86.5 97.5t121.5 36q104 0 158 -83v367h146v-810zM413 153.5q36 39.5 36 101.5t-36 101.5t-94 39.5q-57 0 -93 -39.5t-36 -101.5t36 -101.5t93 -39.5q58 0 94 39.5zM664 810h139
l-56 -239h-95z" />
    <glyph glyph-name="Dcroat" unicode="&#x110;" horiz-adv-x="868" 
d="M108 0v330h-91v105h91v325h293q133 0 227 -45t143.5 -129.5t49.5 -204.5t-51 -205.5t-147 -130.5t-232 -45h-283zM267 129h120q266 0 266 251t-266 251h-120v-196h158v-105h-158v-201z" />
    <glyph glyph-name="dcroat" unicode="&#x111;" horiz-adv-x="658" 
d="M587 0h-139l-2 75q-54 -91 -170 -91q-68 0 -120.5 34.5t-82.5 95.5t-30 140q0 77 32 138.5t86.5 97.5t121.5 36q104 0 158 -83v166h-152v89h152v112h146v-112h74v-89h-74v-609zM190 255q0 -62 36 -101.5t93 -39.5q58 0 94 39.5t36 101.5t-36 101.5t-94 39.5
q-57 0 -93 -39.5t-36 -101.5z" />
    <glyph glyph-name="Emacron" unicode="&#x112;" horiz-adv-x="673" 
d="M89 760h506v-125h-356v-186h316v-125h-316v-199h371v-125h-521v760zM184 950h330v-105h-330v105z" />
    <glyph glyph-name="emacron" unicode="&#x113;" horiz-adv-x="600" 
d="M342 -16q-93 0 -160 32.5t-103 93.5t-36 144q0 81 33.5 142t93 95.5t136.5 34.5q74 0 128.5 -31t84 -88t29.5 -134q0 -25 -3 -54h-359q10 -63 54 -92.5t119 -29.5q42 0 86 10t81 27l14 -109q-39 -19 -91.5 -30t-106.5 -11zM223.5 392q-30.5 -30 -38.5 -86h227q0 11 -2 20
q-7 46 -35 71t-73 25q-48 0 -78.5 -30zM139 733h324v-103h-324v103z" />
    <glyph glyph-name="Edotaccent" unicode="&#x116;" horiz-adv-x="673" 
d="M89 760h506v-125h-356v-186h316v-125h-316v-199h371v-125h-521v760zM349 992q38 0 61.5 -22.5t23.5 -59.5q0 -36 -23.5 -58.5t-61.5 -22.5t-61.5 22.5t-23.5 58.5t24 59t61 23z" />
    <glyph glyph-name="edotaccent" unicode="&#x117;" horiz-adv-x="600" 
d="M342 -16q-93 0 -160 32.5t-103 93.5t-36 144q0 81 33.5 142t93 95.5t136.5 34.5q74 0 128.5 -31t84 -88t29.5 -134q0 -25 -3 -54h-359q10 -63 54 -92.5t119 -29.5q42 0 86 10t81 27l14 -109q-39 -19 -91.5 -30t-106.5 -11zM223.5 392q-30.5 -30 -38.5 -86h227q0 11 -2 20
q-7 46 -35 71t-73 25q-48 0 -78.5 -30zM301 767q37 0 59.5 -21.5t22.5 -57.5q0 -34 -22.5 -55.5t-59.5 -21.5t-59 21t-22 56t22.5 57t58.5 22z" />
    <glyph glyph-name="Eogonek" unicode="&#x118;" horiz-adv-x="673" 
d="M89 760h506v-125h-356v-186h316v-125h-316v-199h371v-125h-521v760zM561 38l49 -38q-90 -66 -90 -119q0 -34 40 -34q26 0 47 12l10 -99q-14 -9 -38 -14t-50 -5q-60 0 -93 28t-33 77q0 51 41.5 101.5t116.5 90.5z" />
    <glyph glyph-name="eogonek" unicode="&#x119;" horiz-adv-x="600" 
d="M342 -16q-93 0 -160 32.5t-103 93.5t-36 144q0 81 33.5 142t93 95.5t136.5 34.5q74 0 128.5 -31t84 -88t29.5 -134q0 -25 -3 -54h-359q10 -63 54 -92.5t119 -29.5q42 0 86 10t81 27l14 -109q-39 -19 -91.5 -30t-106.5 -11zM223.5 392q-30.5 -30 -38.5 -86h227q0 11 -2 20
q-7 46 -35 71t-73 25q-48 0 -78.5 -30zM483 35l58 -10q-117 -79 -117 -143q0 -38 42 -38q29 0 50 12l9 -96q-13 -9 -36.5 -14t-49.5 -5q-61 0 -95 27t-34 76q0 57 45.5 107.5t127.5 83.5z" />
    <glyph glyph-name="Ecaron" unicode="&#x11a;" horiz-adv-x="673" 
d="M89 760h506v-125h-356v-186h316v-125h-316v-199h371v-125h-521v760zM135 987h145l69 -77l69 77h145l-142 -152h-144z" />
    <glyph glyph-name="ecaron" unicode="&#x11b;" horiz-adv-x="600" 
d="M342 -16q-93 0 -160 32.5t-103 93.5t-36 144q0 81 33.5 142t93 95.5t136.5 34.5q74 0 128.5 -31t84 -88t29.5 -134q0 -25 -3 -54h-359q10 -63 54 -92.5t119 -29.5q42 0 86 10t81 27l14 -109q-39 -19 -91.5 -30t-106.5 -11zM223.5 392q-30.5 -30 -38.5 -86h227q0 11 -2 20
q-7 46 -35 71t-73 25q-48 0 -78.5 -30zM100 778h129l72 -88l72 88h129l-138 -168h-126z" />
    <glyph glyph-name="Gbreve" unicode="&#x11e;" horiz-adv-x="824" 
d="M756 46q-66 -28 -140.5 -42.5t-151.5 -14.5q-126 0 -219.5 47.5t-145 133.5t-51.5 202q0 119 54.5 209t151.5 140t226 50q68 0 137 -15.5t124 -44.5l-26 -130q-56 26 -117.5 39.5t-122.5 13.5q-80 0 -139.5 -32t-92.5 -89.5t-33 -134.5q0 -118 70 -186t194 -68
q68 0 134 18v161h-147v120h295v-377zM250 971q0 8 1 13h104v-8q0 -30 21 -48t55 -18q35 0 55.5 18t20.5 47v9h104q1 -5 1 -13q0 -70 -49 -111t-132 -41t-132 41t-49 111z" />
    <glyph glyph-name="gbreve" unicode="&#x11f;" horiz-adv-x="658" 
d="M587 37q0 -143 -73 -217t-215 -74q-37 0 -75 6t-70.5 15.5t-52.5 21.5l16 122q32 -19 78 -30.5t87 -11.5q164 0 164 161v50q-26 -43 -69.5 -66.5t-99.5 -23.5q-68 0 -121 34t-83 94t-30 138q0 77 32 138t86.5 96.5t122.5 35.5q52 0 94.5 -23.5t67.5 -67.5l2 75h139v-473z
M413 359.5q-36 39.5 -94 39.5q-57 0 -93 -39.5t-36 -101.5t36 -101.5t93 -39.5q58 0 94 39.5t36 101.5t-36 101.5zM160 748v6t1 7h99v-6q0 -36 20 -56t56 -20t56 20t20 56v6h99q1 -4 1 -7v-6q0 -73 -47 -115t-129 -42t-129 42t-47 115z" />
    <glyph glyph-name="Gdotaccent" unicode="&#x120;" horiz-adv-x="824" 
d="M756 46q-66 -28 -140.5 -42.5t-151.5 -14.5q-126 0 -219.5 47.5t-145 133.5t-51.5 202q0 119 54.5 209t151.5 140t226 50q68 0 137 -15.5t124 -44.5l-26 -130q-56 26 -117.5 39.5t-122.5 13.5q-80 0 -139.5 -32t-92.5 -89.5t-33 -134.5q0 -118 70 -186t194 -68
q68 0 134 18v161h-147v120h295v-377zM431 992q38 0 61.5 -22.5t23.5 -59.5q0 -36 -23.5 -58.5t-61.5 -22.5t-61.5 22.5t-23.5 58.5t24 59t61 23z" />
    <glyph glyph-name="gdotaccent" unicode="&#x121;" horiz-adv-x="658" 
d="M587 37q0 -143 -73 -217t-215 -74q-37 0 -75 6t-70.5 15.5t-52.5 21.5l16 122q32 -19 78 -30.5t87 -11.5q164 0 164 161v50q-26 -43 -69.5 -66.5t-99.5 -23.5q-68 0 -121 34t-83 94t-30 138q0 77 32 138t86.5 96.5t122.5 35.5q52 0 94.5 -23.5t67.5 -67.5l2 75h139v-473z
M413 359.5q-36 39.5 -94 39.5q-57 0 -93 -39.5t-36 -101.5t36 -101.5t93 -39.5q58 0 94 39.5t36 101.5t-36 101.5zM336 767q37 0 59.5 -21.5t22.5 -57.5q0 -34 -22.5 -55.5t-59.5 -21.5t-59 21t-22 56t22.5 57t58.5 22z" />
    <glyph glyph-name="uni0122" unicode="&#x122;" horiz-adv-x="824" 
d="M756 46q-66 -28 -140.5 -42.5t-151.5 -14.5q-126 0 -219.5 47.5t-145 133.5t-51.5 202q0 119 54.5 209t151.5 140t226 50q68 0 137 -15.5t124 -44.5l-26 -130q-56 26 -117.5 39.5t-122.5 13.5q-80 0 -139.5 -32t-92.5 -89.5t-33 -134.5q0 -118 70 -186t194 -68
q68 0 134 18v161h-147v120h295v-377zM366 -63h136q-1 -31 -10.5 -66.5t-24.5 -66.5t-33 -51h-110q19 37 30.5 87t11.5 97z" />
    <glyph glyph-name="uni0123" unicode="&#x123;" horiz-adv-x="658" 
d="M587 37q0 -143 -73 -217t-215 -74q-37 0 -75 6t-70.5 15.5t-52.5 21.5l16 122q32 -19 78 -30.5t87 -11.5q164 0 164 161v50q-26 -43 -69.5 -66.5t-99.5 -23.5q-68 0 -121 34t-83 94t-30 138q0 77 32 138t86.5 96.5t122.5 35.5q52 0 94.5 -23.5t67.5 -67.5l2 75h139v-473z
M413 359.5q-36 39.5 -94 39.5q-57 0 -93 -39.5t-36 -101.5t36 -101.5t93 -39.5q58 0 94 39.5t36 101.5t-36 101.5zM325 785h103q-19 -37 -29 -81t-11 -94h-131q2 46 20.5 94t47.5 81z" />
    <glyph glyph-name="Hbar" unicode="&#x126;" horiz-adv-x="889" 
d="M106 546h-89v100h89v114h162v-114h353v114h162v-114h89v-100h-89v-546h-162v304h-353v-304h-162v546zM621 435v111h-353v-111h353z" />
    <glyph glyph-name="hbar" unicode="&#x127;" horiz-adv-x="619" 
d="M72 609h-82v89h82v112h146v-112h142v-89h-142v-166q21 40 61.5 61.5t91.5 21.5q87 0 134 -55.5t47 -160.5v-310h-146v282q0 115 -88 115q-48 0 -74 -32t-26 -91v-274h-146v609z" />
    <glyph glyph-name="Itilde" unicode="&#x128;" horiz-adv-x="339" 
d="M89 760h161v-760h-161v760zM92 993q27 0 47 -9t35 -20t28.5 -20t27.5 -9q32 0 32 56h97q0 -159 -113 -159q-27 0 -46.5 9t-35 20t-28.5 20t-28 9q-31 0 -31 -56h-97q0 159 112 159z" />
    <glyph glyph-name="itilde" unicode="&#x129;" horiz-adv-x="289" 
d="M72 510h146v-510h-146v510zM224 612q-28 0 -48 9t-35.5 21t-29 21t-28.5 9q-32 0 -32 -58h-95q0 156 108 156q29 0 49 -9t35.5 -20.5t29 -20.5t28.5 -9q32 0 32 58h94q0 -157 -108 -157z" />
    <glyph glyph-name="Imacron" unicode="&#x12a;" horiz-adv-x="339" 
d="M89 760h161v-760h-161v760zM4 950h330v-105h-330v105z" />
    <glyph glyph-name="imacron" unicode="&#x12b;" horiz-adv-x="289" 
d="M72 510h146v-510h-146v510zM-18 733h324v-103h-324v103z" />
    <glyph glyph-name="Iogonek" unicode="&#x12e;" horiz-adv-x="339" 
d="M89 760h161v-760h-161v760zM202 38l49 -38q-90 -66 -90 -119q0 -34 40 -34q26 0 47 12l10 -99q-14 -9 -38 -14t-50 -5q-60 0 -93 28t-33 77q0 51 41.5 101.5t116.5 90.5z" />
    <glyph glyph-name="iogonek" unicode="&#x12f;" horiz-adv-x="289" 
d="M72 510h146v-510h-146v510zM58 694q0 35 24.5 59t61.5 24t61 -24t24 -59q0 -36 -24 -60t-61 -24t-61.5 24t-24.5 60zM169 38l49 -38q-93 -66 -93 -119q0 -37 43 -37q26 0 48 12l9 -96q-14 -9 -37.5 -14t-49.5 -5q-60 0 -93.5 28t-33.5 77q0 51 41.5 101.5t116.5 90.5z
" />
    <glyph glyph-name="Idotaccent" unicode="&#x130;" horiz-adv-x="339" 
d="M89 760h161v-760h-161v760zM169 992q38 0 61.5 -22.5t23.5 -59.5q0 -36 -23.5 -58.5t-61.5 -22.5t-61.5 22.5t-23.5 58.5t24 59t61 23z" />
    <glyph glyph-name="dotlessi" unicode="&#x131;" horiz-adv-x="289" 
d="M72 510h146v-510h-146v510z" />
    <glyph glyph-name="IJ" unicode="&#x132;" horiz-adv-x="908" 
d="M89 760h161v-760h-161v760zM824 266q0 -143 -65.5 -212.5t-200.5 -69.5q-51 0 -101.5 12t-82.5 31l15 128q33 -19 70 -28t74 -9q70 0 99.5 36.5t29.5 121.5v484h162v-494z" />
    <glyph glyph-name="ij.alt" unicode="&#x133;" horiz-adv-x="578" 
d="M72 510h146v-510h-146v510zM58 694q0 35 24.5 59t61.5 24t61 -24t24 -59q0 -36 -24 -60t-61 -24t-61.5 24t-24.5 60zM507 -33q0 -221 -205 -221q-35 0 -69 7t-54 17l15 120q43 -17 83 -17q43 0 63.5 25t20.5 78v534h146v-543zM347 694q0 35 24.5 59t61.5 24t61 -24
t24 -59q0 -36 -24 -60t-61 -24t-61.5 24t-24.5 60z" />
    <glyph glyph-name="uni0136" unicode="&#x136;" horiz-adv-x="787" 
d="M89 760h159v-325l300 325h197l-348 -363l382 -397h-214l-317 343v-343h-159v760zM348 -63h136q-1 -31 -10.5 -66.5t-24.5 -66.5t-33 -51h-110q19 37 30.5 87t11.5 97z" />
    <glyph glyph-name="uni0137" unicode="&#x137;" horiz-adv-x="614" 
d="M72 810h146v-494l183 194h173l-224 -227l261 -283h-184l-209 235v-235h-146v810zM253 -63h133q-1 -31 -10.5 -66.5t-24.5 -66.5t-33 -51h-107q19 37 30.5 87t11.5 97z" />
    <glyph glyph-name="kgreenlandic" unicode="&#x138;" horiz-adv-x="614" 
d="M72 510h146v-207l185 207h171l-226 -237l263 -273h-189l-204 219v-219h-146v510z" />
    <glyph glyph-name="Lacute" unicode="&#x139;" horiz-adv-x="626" 
d="M89 760h161v-628h341v-132h-502v760zM179 980h175l-153 -145h-137z" />
    <glyph glyph-name="lacute" unicode="&#x13a;" horiz-adv-x="289" 
d="M72 810h146v-810h-146v810zM154 995h175l-153 -145h-137z" />
    <glyph glyph-name="uni013B" unicode="&#x13b;" horiz-adv-x="626" 
d="M89 760h161v-628h341v-132h-502v760zM275 -63h136q-1 -31 -10.5 -66.5t-24.5 -66.5t-33 -51h-110q19 37 30.5 87t11.5 97z" />
    <glyph glyph-name="uni013C" unicode="&#x13c;" horiz-adv-x="289" 
d="M72 810h146v-810h-146v810zM84 -63h133q-1 -31 -10.5 -66.5t-24.5 -66.5t-33 -51h-107q19 37 30.5 87t11.5 97z" />
    <glyph glyph-name="Lcaron" unicode="&#x13d;" horiz-adv-x="626" 
d="M89 760h161v-628h341v-132h-502v760zM349 810h139l-56 -239h-95z" />
    <glyph glyph-name="lcaron" unicode="&#x13e;" horiz-adv-x="289" 
d="M72 810h146v-810h-146v810zM294 810h139l-56 -239h-95z" />
    <glyph glyph-name="Lslash" unicode="&#x141;" horiz-adv-x="656" 
d="M119 760h161v-298l185 117l9 -125l-194 -123v-199h341v-132h-502v240l-90 -56l-9 125l99 61v390z" />
    <glyph glyph-name="lslash" unicode="&#x142;" horiz-adv-x="356" 
d="M105 810h146v-331l88 43l4 -109l-92 -45v-368h-146v297l-89 -43l-3 109l92 45v402z" />
    <glyph glyph-name="Nacute" unicode="&#x143;" horiz-adv-x="852" 
d="M89 760h141l387 -525v525h146v-760h-141l-386 523v-523h-147v760zM431 980h175l-153 -145h-137z" />
    <glyph glyph-name="nacute" unicode="&#x144;" horiz-adv-x="619" 
d="M72 510h141l2 -73q20 43 61 66t95 23q87 0 134 -55.5t47 -160.5v-310h-146v282q0 115 -88 115q-48 0 -74 -32t-26 -91v-274h-146v510zM323 778h160l-141 -168h-125z" />
    <glyph glyph-name="uni0145" unicode="&#x145;" horiz-adv-x="852" 
d="M89 760h141l387 -525v525h146v-760h-141l-386 523v-523h-147v760zM367 -63h136q-1 -31 -10.5 -66.5t-24.5 -66.5t-33 -51h-110q19 37 30.5 87t11.5 97z" />
    <glyph glyph-name="uni0146" unicode="&#x146;" horiz-adv-x="619" 
d="M72 510h141l2 -73q20 43 61 66t95 23q87 0 134 -55.5t47 -160.5v-310h-146v282q0 115 -88 115q-48 0 -74 -32t-26 -91v-274h-146v510zM239 -63h133q-1 -31 -10.5 -66.5t-24.5 -66.5t-33 -51h-107q19 37 30.5 87t11.5 97z" />
    <glyph glyph-name="Ncaron" unicode="&#x147;" horiz-adv-x="852" 
d="M89 760h141l387 -525v525h146v-760h-141l-386 523v-523h-147v760zM207 987h145l69 -77l69 77h145l-142 -152h-144z" />
    <glyph glyph-name="ncaron" unicode="&#x148;" horiz-adv-x="619" 
d="M72 510h141l2 -73q20 43 61 66t95 23q87 0 134 -55.5t47 -160.5v-310h-146v282q0 115 -88 115q-48 0 -74 -32t-26 -91v-274h-146v510zM111 778h129l72 -88l72 88h129l-138 -168h-126z" />
    <glyph glyph-name="Eng" unicode="&#x14a;" horiz-adv-x="861" 
d="M89 760h141l395 -525v525h147v-747q0 -267 -242 -267q-52 0 -98.5 10.5t-77.5 29.5l15 128q32 -17 66 -25.5t68 -8.5q60 0 88 30.5t31 100.5l-386 514v-525h-147v760z" />
    <glyph glyph-name="eng" unicode="&#x14b;" horiz-adv-x="619" 
d="M72 510h141l2 -73q20 43 61 66t95 23q87 0 134 -55.5t47 -160.5v-343q0 -221 -205 -221q-35 0 -69 7t-54 17l15 115q42 -17 83 -17q43 0 63.5 25t20.5 78v311q0 115 -88 115q-48 0 -74 -32t-26 -91v-274h-146v510z" />
    <glyph glyph-name="Omacron" unicode="&#x14c;" horiz-adv-x="904" 
d="M48 380q0 84 30.5 156t86 126t129 84t158.5 30q87 0 160.5 -29.5t128.5 -83t85 -125.5t30 -158q0 -84 -30.5 -156t-86 -126t-128.5 -84t-159 -30q-87 0 -161 29.5t-128.5 83t-84.5 126t-30 157.5zM689 380q0 74 -30.5 131t-84 89.5t-122.5 32.5t-122.5 -32.5t-84 -89.5
t-30.5 -131q0 -73 30.5 -130.5t84 -90t122.5 -32.5t122.5 32.5t84 89.5t30.5 131zM287 950h330v-105h-330v105z" />
    <glyph glyph-name="omacron" unicode="&#x14d;" horiz-adv-x="639" 
d="M319 -16q-79 0 -141.5 35.5t-98.5 96.5t-36 139t36.5 139t99 96.5t140.5 35.5q80 0 142 -35.5t98 -96.5t36 -139q0 -77 -36.5 -138.5t-98.5 -97t-141 -35.5zM413 356.5q-36 39.5 -94 39.5q-57 0 -93 -39.5t-36 -101.5t36 -101.5t93 -39.5q58 0 94 39.5t36 101.5
t-36 101.5zM157 733h324v-103h-324v103z" />
    <glyph glyph-name="Ohungarumlaut" unicode="&#x150;" horiz-adv-x="904" 
d="M48 380q0 84 30.5 156t86 126t129 84t158.5 30q87 0 160.5 -29.5t128.5 -83t85 -125.5t30 -158q0 -84 -30.5 -156t-86 -126t-128.5 -84t-159 -30q-87 0 -161 29.5t-128.5 83t-84.5 126t-30 157.5zM689 380q0 74 -30.5 131t-84 89.5t-122.5 32.5t-122.5 -32.5t-84 -89.5
t-30.5 -131q0 -73 30.5 -130.5t84 -90t122.5 -32.5t122.5 32.5t84 89.5t30.5 131zM563 979h162l-114 -144h-135zM346 979h161l-114 -144h-134z" />
    <glyph glyph-name="ohungarumlaut" unicode="&#x151;" horiz-adv-x="639" 
d="M319 -16q-79 0 -141.5 35.5t-98.5 96.5t-36 139t36.5 139t99 96.5t140.5 35.5q80 0 142 -35.5t98 -96.5t36 -139q0 -77 -36.5 -138.5t-98.5 -97t-141 -35.5zM413 356.5q-36 39.5 -94 39.5q-57 0 -93 -39.5t-36 -101.5t36 -101.5t93 -39.5q58 0 94 39.5t36 101.5
t-36 101.5zM234 778h144l-114 -168h-115zM429 778h143l-114 -168h-115z" />
    <glyph glyph-name="OE" unicode="&#x152;" horiz-adv-x="1260" 
d="M826 125h371v-125h-521v101q-38 -56 -100.5 -86.5t-142.5 -30.5q-82 0 -152 30t-122.5 83.5t-81.5 125.5t-29 157q0 84 29 156.5t81.5 126t122.5 83.5t152 30q79 0 142 -29.5t101 -83.5v97h506v-125h-356v-186h316v-125h-316v-199zM574.5 600.5q-53.5 32.5 -122.5 32.5
t-122.5 -32.5t-84 -89.5t-30.5 -131q0 -73 30.5 -130.5t84 -90t122.5 -32.5t122.5 32.5t84 89.5t30.5 131t-30.5 131t-84 89.5z" />
    <glyph glyph-name="oe" unicode="&#x153;" horiz-adv-x="1004" 
d="M598.5 499.5q51.5 26.5 114.5 26.5q73 0 126.5 -31.5t83 -88t29.5 -133.5q0 -25 -3 -54h-359q10 -63 54 -92.5t119 -29.5q42 0 86 10t81 27l14 -109q-42 -20 -89 -30.5t-102 -10.5q-78 0 -139.5 27t-93.5 78q-34 -50 -88.5 -77.5t-118.5 -27.5q-77 0 -138 35.5t-96.5 97
t-35.5 138.5t36 138.5t98 97t140 35.5q62 0 116.5 -27.5t84.5 -73.5q29 48 80.5 74.5zM413 153.5q36 39.5 36 101.5t-36 101.5t-94 39.5q-57 0 -93 -39.5t-36 -101.5t36 -101.5t93 -39.5q58 0 94 39.5zM779 397q-28 25 -73 25q-48 0 -78.5 -30t-38.5 -86h227q0 11 -2 20
q-7 46 -35 71z" />
    <glyph glyph-name="Racute" unicode="&#x154;" horiz-adv-x="730" 
d="M89 760h254q88 0 151.5 -30t98 -85.5t34.5 -132.5q0 -69 -34.5 -121.5t-87.5 -84.5l197 -306h-179l-156 266h-11h-114v-266h-153v760zM318 386q152 0 152 127q0 126 -148 126h-80v-253h76zM348 980h175l-153 -145h-137z" />
    <glyph glyph-name="racute" unicode="&#x155;" horiz-adv-x="436" 
d="M72 510h141l1 -99q18 51 54 79.5t84 28.5q16 0 32.5 -3t26.5 -8l-13 -137q-31 12 -65 12q-55 0 -85 -39.5t-30 -113.5v-230h-146v510zM244 778h160l-141 -168h-125z" />
    <glyph glyph-name="Rcaron" unicode="&#x158;" horiz-adv-x="730" 
d="M89 760h254q88 0 151.5 -30t98 -85.5t34.5 -132.5q0 -69 -34.5 -121.5t-87.5 -84.5l197 -306h-179l-156 266h-11h-114v-266h-153v760zM318 386q152 0 152 127q0 126 -148 126h-80v-253h76zM124 987h145l69 -77l69 77h145l-142 -152h-144z" />
    <glyph glyph-name="rcaron" unicode="&#x159;" horiz-adv-x="436" 
d="M72 510h141l1 -99q18 51 54 79.5t84 28.5q16 0 32.5 -3t26.5 -8l-13 -137q-31 12 -65 12q-55 0 -85 -39.5t-30 -113.5v-230h-146v510zM32 778h129l72 -88l72 88h129l-138 -168h-126z" />
    <glyph glyph-name="Sacute" unicode="&#x15a;" horiz-adv-x="667" 
d="M69 181q48 -30 112.5 -48.5t123.5 -18.5q67 0 103.5 25t36.5 70q0 27 -13 45.5t-45 34t-90 32.5q-124 37 -177 90t-53 141q0 69 34 119.5t95.5 77.5t145.5 27q62 0 123.5 -15.5t105.5 -42.5l-22 -128q-42 26 -96.5 41t-104.5 15q-60 0 -92.5 -23t-32.5 -65
q0 -24 11.5 -41.5t40 -32t79.5 -30.5q91 -27 146 -60t80 -75.5t25 -100.5q0 -109 -77.5 -171.5t-214.5 -62.5q-48 0 -97.5 8t-91.5 22.5t-70 33.5zM340 980h175l-153 -145h-137z" />
    <glyph glyph-name="sacute" unicode="&#x15b;" horiz-adv-x="497" 
d="M58 142q36 -24 81 -37.5t87 -13.5q86 0 86 49q0 23 -18 36t-75 29q-92 25 -130.5 62t-38.5 101q0 74 55.5 116t152.5 42q48 0 96 -11t79 -29l-17 -106q-75 39 -151 39q-75 0 -75 -46q0 -22 19 -35t71 -27q96 -28 136.5 -66t40.5 -103q0 -73 -59.5 -115.5t-163.5 -42.5
q-55 0 -108.5 14t-85.5 36zM267 778h160l-141 -168h-125z" />
    <glyph glyph-name="Scedilla" unicode="&#x15e;" horiz-adv-x="667" 
d="M69 181q48 -30 112.5 -48.5t123.5 -18.5q67 0 103.5 25t36.5 70q0 27 -13 45.5t-45 34t-90 32.5q-124 37 -177 90t-53 141q0 69 34 119.5t95.5 77.5t145.5 27q62 0 123.5 -15.5t105.5 -42.5l-22 -128q-42 26 -96.5 41t-104.5 15q-60 0 -92.5 -23t-32.5 -65
q0 -24 11.5 -41.5t40 -32t79.5 -30.5q91 -27 146 -60t80 -75.5t25 -100.5q0 -109 -77.5 -171.5t-214.5 -62.5q-48 0 -97.5 8t-91.5 22.5t-70 33.5zM280 10h87l-20 -67q45 -2 74 -28t29 -66q0 -54 -41 -83t-116 -29q-25 0 -52.5 6t-41.5 13l16 78q14 -7 31 -10t35 -3
q54 0 54 32q0 30 -56 30q-20 0 -34 -2z" />
    <glyph glyph-name="scedilla" unicode="&#x15f;" horiz-adv-x="497" 
d="M58 142q36 -24 81 -37.5t87 -13.5q86 0 86 49q0 23 -18 36t-75 29q-92 25 -130.5 62t-38.5 101q0 74 55.5 116t152.5 42q48 0 96 -11t79 -29l-17 -106q-75 39 -151 39q-75 0 -75 -46q0 -22 19 -35t71 -27q96 -28 136.5 -66t40.5 -103q0 -73 -59.5 -115.5t-163.5 -42.5
q-55 0 -108.5 14t-85.5 36zM203 10h83l-21 -68q47 -2 74.5 -28t27.5 -67q0 -51 -39.5 -80.5t-107.5 -29.5q-27 0 -56 6t-43 13l16 75q29 -13 68 -13q55 0 55 35q0 33 -57 33q-23 0 -35 -3z" />
    <glyph glyph-name="Scaron" unicode="&#x160;" horiz-adv-x="667" 
d="M69 181q48 -30 112.5 -48.5t123.5 -18.5q67 0 103.5 25t36.5 70q0 27 -13 45.5t-45 34t-90 32.5q-124 37 -177 90t-53 141q0 69 34 119.5t95.5 77.5t145.5 27q62 0 123.5 -15.5t105.5 -42.5l-22 -128q-42 26 -96.5 41t-104.5 15q-60 0 -92.5 -23t-32.5 -65
q0 -24 11.5 -41.5t40 -32t79.5 -30.5q91 -27 146 -60t80 -75.5t25 -100.5q0 -109 -77.5 -171.5t-214.5 -62.5q-48 0 -97.5 8t-91.5 22.5t-70 33.5zM116 987h145l69 -77l69 77h145l-142 -152h-144z" />
    <glyph glyph-name="scaron" unicode="&#x161;" horiz-adv-x="497" 
d="M58 142q36 -24 81 -37.5t87 -13.5q86 0 86 49q0 23 -18 36t-75 29q-92 25 -130.5 62t-38.5 101q0 74 55.5 116t152.5 42q48 0 96 -11t79 -29l-17 -106q-75 39 -151 39q-75 0 -75 -46q0 -22 19 -35t71 -27q96 -28 136.5 -66t40.5 -103q0 -73 -59.5 -115.5t-163.5 -42.5
q-55 0 -108.5 14t-85.5 36zM55 778h129l72 -88l72 88h129l-138 -168h-126z" />
    <glyph glyph-name="uni0162" unicode="&#x162;" horiz-adv-x="717" 
d="M278 628h-243v132h647v-132h-242v-628h-162v628zM315 10h87l-20 -67q45 -2 74 -28t29 -66q0 -54 -41 -83t-116 -29q-25 0 -52.5 6t-41.5 13l16 78q14 -7 31 -10t35 -3q54 0 54 32q0 30 -56 30q-20 0 -34 -2z" />
    <glyph glyph-name="uni0163.alt" unicode="&#x163;" horiz-adv-x="463" 
d="M110 391h-98v119h98v137h145v-137h157v-119h-157v-181q0 -52 18 -74.5t59 -22.5q46 0 89 21l16 -120q-26 -15 -63.5 -22.5t-81.5 -7.5q-182 0 -182 198v209zM224 10h83l-21 -68q47 -2 74.5 -28t27.5 -67q0 -51 -39.5 -80.5t-107.5 -29.5q-27 0 -56 6t-43 13l16 75
q29 -13 68 -13q55 0 55 35q0 33 -57 33q-23 0 -35 -3z" />
    <glyph glyph-name="Tcaron" unicode="&#x164;" horiz-adv-x="717" 
d="M278 628h-243v132h647v-132h-242v-628h-162v628zM144 987h145l69 -77l69 77h145l-142 -152h-144z" />
    <glyph glyph-name="tcaron.alt" unicode="&#x165;" horiz-adv-x="463" 
d="M110 391h-98v119h98v137h145v-137h157v-119h-157v-181q0 -52 18 -74.5t59 -22.5q46 0 89 21l16 -120q-26 -15 -63.5 -22.5t-81.5 -7.5q-182 0 -182 198v209zM332 810h133l-52 -217h-92z" />
    <glyph glyph-name="Tbar" unicode="&#x166;" horiz-adv-x="717" 
d="M278 296h-137v105h137v227h-243v132h647v-132h-242v-227h136v-105h-136v-296h-162v296z" />
    <glyph glyph-name="tbar.alt" unicode="&#x167;" horiz-adv-x="463" 
d="M110 182v32h-80v91h80v96h-98v109h98v137h145v-137h157v-109h-157v-96h128v-91h-128v-8q0 -52 18 -75t59 -23q46 0 90 22l15 -116q-26 -15 -63.5 -22.5t-81.5 -7.5q-182 0 -182 198z" />
    <glyph glyph-name="Utilde" unicode="&#x168;" horiz-adv-x="846" 
d="M84 760h161v-425q0 -208 178 -208q177 0 177 208v425h162v-437q0 -163 -89 -251t-251 -88t-250 88.5t-88 250.5v437zM346 993q27 0 47 -9t35 -20t28.5 -20t27.5 -9q32 0 32 56h97q0 -159 -113 -159q-27 0 -46.5 9t-35 20t-28.5 20t-28 9q-31 0 -31 -56h-97q0 159 112 159
z" />
    <glyph glyph-name="utilde.alt" unicode="&#x169;" horiz-adv-x="618" 
d="M546 0h-142l-2 70q-20 -41 -61.5 -63.5t-97.5 -22.5q-85 0 -130 53.5t-45 154.5v318h146v-285q0 -58 20.5 -84.5t66.5 -26.5q47 0 73 32t26 90v274h146v-510zM384 612q-28 0 -48 9t-35.5 21t-29 21t-28.5 9q-32 0 -32 -58h-95q0 156 108 156q29 0 49 -9t35.5 -20.5
t29 -20.5t28.5 -9q32 0 32 58h94q0 -157 -108 -157z" />
    <glyph glyph-name="Umacron" unicode="&#x16a;" horiz-adv-x="846" 
d="M84 760h161v-425q0 -208 178 -208q177 0 177 208v425h162v-437q0 -163 -89 -251t-251 -88t-250 88.5t-88 250.5v437zM258 950h330v-105h-330v105z" />
    <glyph glyph-name="umacron.alt" unicode="&#x16b;" horiz-adv-x="618" 
d="M546 0h-142l-2 70q-20 -41 -61.5 -63.5t-97.5 -22.5q-85 0 -130 53.5t-45 154.5v318h146v-285q0 -58 20.5 -84.5t66.5 -26.5q47 0 73 32t26 90v274h146v-510zM142 733h324v-103h-324v103z" />
    <glyph glyph-name="Uring" unicode="&#x16e;" horiz-adv-x="846" 
d="M84 760h161v-425q0 -208 178 -208q177 0 177 208v425h162v-437q0 -163 -89 -251t-251 -88t-250 88.5t-88 250.5v437zM281 951q0 39 18.5 69.5t50.5 48t73 17.5t73 -17.5t50.5 -48t18.5 -69.5q0 -58 -40 -96t-102 -38q-61 0 -101.5 38t-40.5 96zM482 951q0 27 -16 43
t-43 16t-43 -16t-16 -43q0 -26 16 -42.5t43 -16.5t43 16.5t16 42.5z" />
    <glyph glyph-name="uring.alt" unicode="&#x16f;" horiz-adv-x="618" 
d="M546 0h-142l-2 70q-20 -41 -61.5 -63.5t-97.5 -22.5q-85 0 -130 53.5t-45 154.5v318h146v-285q0 -58 20.5 -84.5t66.5 -26.5q47 0 73 32t26 90v274h146v-510zM304 577q-41 0 -73 17.5t-50.5 48.5t-18.5 69q0 39 18.5 69.5t50.5 48t73 17.5t73 -17.5t50.5 -48t18.5 -69.5
q0 -38 -18.5 -69t-50.5 -48.5t-73 -17.5zM347 755q-16 16 -43 16t-43 -16t-16 -43q0 -26 16 -42.5t43 -16.5t43 16.5t16 42.5q0 27 -16 43z" />
    <glyph glyph-name="Uhungarumlaut" unicode="&#x170;" horiz-adv-x="846" 
d="M84 760h161v-425q0 -208 178 -208q177 0 177 208v425h162v-437q0 -163 -89 -251t-251 -88t-250 88.5t-88 250.5v437zM534 979h162l-114 -144h-135zM317 979h161l-114 -144h-134z" />
    <glyph glyph-name="uhungarumlaut.alt" unicode="&#x171;" horiz-adv-x="618" 
d="M546 0h-142l-2 70q-20 -41 -61.5 -63.5t-97.5 -22.5q-85 0 -130 53.5t-45 154.5v318h146v-285q0 -58 20.5 -84.5t66.5 -26.5q47 0 73 32t26 90v274h146v-510zM219 778h144l-114 -168h-115zM414 778h143l-114 -168h-115z" />
    <glyph glyph-name="Uogonek" unicode="&#x172;" horiz-adv-x="846" 
d="M84 760h161v-425q0 -208 178 -208q177 0 177 208v425h162v-437q0 -163 -89 -251t-251 -88t-250 88.5t-88 250.5v437zM617 -239q-14 -9 -41.5 -14.5t-53.5 -5.5q-61 0 -95.5 27.5t-34.5 74.5q0 40 22.5 78.5t62 71t91.5 54.5l57 -12q-54 -37 -84.5 -76.5t-30.5 -72.5
q0 -39 45 -39q26 0 52 13z" />
    <glyph glyph-name="uogonek.alt" unicode="&#x173;" horiz-adv-x="618" 
d="M546 0h-142l-2 70q-20 -41 -61.5 -63.5t-97.5 -22.5q-85 0 -130 53.5t-45 154.5v318h146v-285q0 -58 20.5 -84.5t66.5 -26.5q47 0 73 32t26 90v274h146v-510zM498 38l49 -38q-93 -66 -93 -119q0 -37 43 -37q26 0 48 12l9 -96q-14 -9 -37.5 -14t-49.5 -5q-60 0 -93.5 28
t-33.5 77q0 51 41.5 101.5t116.5 90.5z" />
    <glyph glyph-name="Wcircumflex" unicode="&#x174;" horiz-adv-x="1128" 
d="M23 760h169l141 -567l161 557h143l162 -550l139 560h167l-227 -760h-153l-163 546l-158 -546h-154zM492 987h144l142 -152h-145l-69 77l-69 -77h-145z" />
    <glyph glyph-name="wcircumflex" unicode="&#x175;" horiz-adv-x="861" 
d="M20 510h153l89 -354l105 354h122l112 -355l88 355h151l-169 -510h-131l-114 336l-108 -336h-128zM367 778h126l138 -168h-129l-72 88l-72 -88h-129z" />
    <glyph glyph-name="Ycircumflex" unicode="&#x176;" horiz-adv-x="738" 
d="M448 315v-315h-159v316l-279 444h179l183 -328l183 328h172zM297 987h144l142 -152h-145l-69 77l-69 -77h-145z" />
    <glyph glyph-name="ycircumflex" unicode="&#x177;" horiz-adv-x="595" 
d="M244 -245h-148l133 277l-214 478h160l128 -330l121 330h156zM237 778h126l138 -168h-129l-72 88l-72 -88h-129z" />
    <glyph glyph-name="Ydieresis" unicode="&#x178;" horiz-adv-x="738" 
d="M448 315v-315h-159v316l-279 444h179l183 -328l183 328h172zM481 978q34 0 55.5 -20.5t21.5 -52.5t-21.5 -52t-55.5 -20t-55 20t-21 52t21.5 52.5t54.5 20.5zM256 978q34 0 55.5 -20.5t21.5 -52.5t-21.5 -52t-55.5 -20q-33 0 -54.5 20t-21.5 52t21.5 52.5t54.5 20.5z" />
    <glyph glyph-name="Zacute" unicode="&#x179;" horiz-adv-x="736" 
d="M470 631h-392v129h589v-115l-416 -516h423v-129h-621v115zM373 980h175l-153 -145h-137z" />
    <glyph glyph-name="zacute" unicode="&#x17a;" horiz-adv-x="543" 
d="M227 119h270v-119h-454v102l263 289h-252v119h436v-101zM279 778h160l-141 -168h-125z" />
    <glyph glyph-name="Zdotaccent" unicode="&#x17b;" horiz-adv-x="736" 
d="M470 631h-392v129h589v-115l-416 -516h423v-129h-621v115zM363 992q38 0 61.5 -22.5t23.5 -59.5q0 -36 -23.5 -58.5t-61.5 -22.5t-61.5 22.5t-23.5 58.5t24 59t61 23z" />
    <glyph glyph-name="zdotaccent" unicode="&#x17c;" horiz-adv-x="543" 
d="M227 119h270v-119h-454v102l263 289h-252v119h436v-101zM268 767q37 0 59.5 -21.5t22.5 -57.5q0 -34 -22.5 -55.5t-59.5 -21.5t-59 21t-22 56t22.5 57t58.5 22z" />
    <glyph glyph-name="Zcaron" unicode="&#x17d;" horiz-adv-x="736" 
d="M470 631h-392v129h589v-115l-416 -516h423v-129h-621v115zM149 987h145l69 -77l69 77h145l-142 -152h-144z" />
    <glyph glyph-name="zcaron" unicode="&#x17e;" horiz-adv-x="543" 
d="M227 119h270v-119h-454v102l263 289h-252v119h436v-101zM67 778h129l72 -88l72 88h129l-138 -168h-126z" />
    <glyph glyph-name="florin" unicode="&#x192;" horiz-adv-x="431" 
d="M263 -33q0 -221 -204 -221q-35 0 -69 7t-54 17l15 120q43 -17 83 -17q43 0 63 25t20 78v415h-90v119h90v61q0 118 56.5 181t160.5 63q32 0 64.5 -6t54.5 -17l-15 -118q-16 6 -37 10t-39 4q-52 0 -75.5 -30.5t-23.5 -97.5v-50h135v-119h-135v-424z" />
    <glyph glyph-name="uni0218" unicode="&#x218;" horiz-adv-x="667" 
d="M69 181q48 -30 112.5 -48.5t123.5 -18.5q67 0 103.5 25t36.5 70q0 27 -13 45.5t-45 34t-90 32.5q-124 37 -177 90t-53 141q0 69 34 119.5t95.5 77.5t145.5 27q62 0 123.5 -15.5t105.5 -42.5l-22 -128q-42 26 -96.5 41t-104.5 15q-60 0 -92.5 -23t-32.5 -65
q0 -24 11.5 -41.5t40 -32t79.5 -30.5q91 -27 146 -60t80 -75.5t25 -100.5q0 -109 -77.5 -171.5t-214.5 -62.5q-48 0 -97.5 8t-91.5 22.5t-70 33.5zM257 -63h136q-1 -31 -10.5 -66.5t-24.5 -66.5t-33 -51h-110q19 37 30.5 87t11.5 97z" />
    <glyph glyph-name="uni0219" unicode="&#x219;" horiz-adv-x="497" 
d="M58 142q36 -24 81 -37.5t87 -13.5q86 0 86 49q0 23 -18 36t-75 29q-92 25 -130.5 62t-38.5 101q0 74 55.5 116t152.5 42q48 0 96 -11t79 -29l-17 -106q-75 39 -151 39q-75 0 -75 -46q0 -22 19 -35t71 -27q96 -28 136.5 -66t40.5 -103q0 -73 -59.5 -115.5t-163.5 -42.5
q-55 0 -108.5 14t-85.5 36zM183 -63h133q-1 -31 -10.5 -66.5t-24.5 -66.5t-33 -51h-107q19 37 30.5 87t11.5 97z" />
    <glyph glyph-name="uni021A" unicode="&#x21a;" horiz-adv-x="717" 
d="M278 628h-243v132h647v-132h-242v-628h-162v628zM291 -63h136q-1 -31 -10.5 -66.5t-24.5 -66.5t-33 -51h-110q19 37 30.5 87t11.5 97z" />
    <glyph glyph-name="uni021B.alt" unicode="&#x21b;" horiz-adv-x="463" 
d="M110 391h-98v119h98v137h145v-137h157v-119h-157v-181q0 -52 18 -74.5t59 -22.5q46 0 89 21l16 -120q-26 -15 -63.5 -22.5t-81.5 -7.5q-182 0 -182 198v209zM195 -63h133q-1 -31 -10.5 -66.5t-24.5 -66.5t-33 -51h-107q19 37 30.5 87t11.5 97z" />
    <glyph glyph-name="uni0237.alt" unicode="&#x237;" horiz-adv-x="289" 
d="M218 -33q0 -221 -205 -221q-35 0 -69 7t-54 17l15 120q43 -17 83 -17q43 0 63.5 25t20.5 78v534h146v-543z" />
    <glyph glyph-name="circumflex" unicode="&#x2c6;" horiz-adv-x="500" 
d="M187 778h126l138 -168h-129l-72 88l-72 -88h-129z" />
    <glyph glyph-name="caron" unicode="&#x2c7;" horiz-adv-x="500" 
d="M49 778h129l72 -88l72 88h129l-138 -168h-126z" />
    <glyph glyph-name="uni02C9" unicode="&#x2c9;" horiz-adv-x="500" 
d="M88 733h324v-103h-324v103z" />
    <glyph glyph-name="uni02CB" unicode="&#x2cb;" horiz-adv-x="500" 
d="M116 778h161l106 -168h-125z" />
    <glyph glyph-name="breve" unicode="&#x2d8;" horiz-adv-x="500" 
d="M74 748v6t1 7h99v-6q0 -36 20 -56t56 -20t56 20t20 56v6h99q1 -4 1 -7v-6q0 -73 -47 -115t-129 -42t-129 42t-47 115z" />
    <glyph glyph-name="dotaccent" unicode="&#x2d9;" horiz-adv-x="500" 
d="M249 767q37 0 59.5 -21.5t22.5 -57.5q0 -34 -22.5 -55.5t-59.5 -21.5t-59 21t-22 56t22.5 57t58.5 22z" />
    <glyph glyph-name="ring" unicode="&#x2da;" horiz-adv-x="500" 
d="M250 577q-41 0 -73 17.5t-50.5 48.5t-18.5 69q0 39 18.5 69.5t50.5 48t73 17.5t73 -17.5t50.5 -48t18.5 -69.5q0 -38 -18.5 -69t-50.5 -48.5t-73 -17.5zM293 755q-16 16 -43 16t-43 -16t-16 -43q0 -26 16 -42.5t43 -16.5t43 16.5t16 42.5q0 27 -16 43z" />
    <glyph glyph-name="ogonek" unicode="&#x2db;" horiz-adv-x="500" 
d="M322 38l49 -38q-93 -66 -93 -119q0 -37 43 -37q26 0 48 12l9 -96q-14 -9 -37.5 -14t-49.5 -5q-60 0 -93.5 28t-33.5 77q0 51 41.5 101.5t116.5 90.5z" />
    <glyph glyph-name="tilde" unicode="&#x2dc;" horiz-adv-x="500" 
d="M330 612q-28 0 -48 9t-35.5 21t-29 21t-28.5 9q-32 0 -32 -58h-95q0 156 108 156q29 0 49 -9t35.5 -20.5t29 -20.5t28.5 -9q32 0 32 58h94q0 -157 -108 -157z" />
    <glyph glyph-name="hungarumlaut" unicode="&#x2dd;" horiz-adv-x="500" 
d="M139 778h144l-114 -168h-115zM334 778h143l-114 -168h-115z" />
    <glyph glyph-name="gravecomb" unicode="&#x300;" 
d="M-171 778h161l106 -168h-125z" />
    <glyph glyph-name="acutecomb" unicode="&#x301;" 
d="M11 778h160l-141 -168h-125z" />
    <glyph glyph-name="uni0302" unicode="&#x302;" 
d="M-63 778h126l138 -168h-129l-72 88l-72 -88h-129z" />
    <glyph glyph-name="tildecomb" unicode="&#x303;" 
d="M80 612q-28 0 -48 9t-35.5 21t-29 21t-28.5 9q-32 0 -32 -58h-95q0 156 108 156q29 0 49 -9t35.5 -20.5t29 -20.5t28.5 -9q32 0 32 58h94q0 -157 -108 -157z" />
    <glyph glyph-name="uni0304" unicode="&#x304;" 
d="M-162 733h324v-103h-324v103z" />
    <glyph glyph-name="uni0306" unicode="&#x306;" 
d="M-176 748v6t1 7h99v-6q0 -36 20 -56t56 -20t56 20t20 56v6h99q1 -4 1 -7v-6q0 -73 -47 -115t-129 -42t-129 42t-47 115z" />
    <glyph glyph-name="uni0307" unicode="&#x307;" 
d="M0 767q37 0 59.5 -21.5t22.5 -57.5q0 -34 -22.5 -55.5t-59.5 -21.5t-59 21t-22 56t22.5 57t58.5 22z" />
    <glyph glyph-name="uni0308" unicode="&#x308;" 
d="M-185 684q0 31 21 51t53 20q33 0 54 -19.5t21 -51.5q0 -31 -21 -51t-54 -20t-53.5 20t-20.5 51zM36 684q0 31 21 51t53 20q33 0 54 -19.5t21 -51.5q0 -31 -21 -51t-54 -20t-53.5 20t-20.5 51z" />
    <glyph glyph-name="uni030A" unicode="&#x30a;" 
d="M0 577q-41 0 -73 17.5t-50.5 48.5t-18.5 69q0 39 18.5 69.5t50.5 48t73 17.5t73 -17.5t50.5 -48t18.5 -69.5q0 -38 -18.5 -69t-50.5 -48.5t-73 -17.5zM43 755q-16 16 -43 16t-43 -16t-16 -43q0 -26 16 -42.5t43 -16.5t43 16.5t16 42.5q0 27 -16 43z" />
    <glyph glyph-name="uni030B" unicode="&#x30b;" 
d="M-85 778h144l-114 -168h-115zM110 778h143l-114 -168h-115z" />
    <glyph glyph-name="uni030C" unicode="&#x30c;" 
d="M-201 778h129l72 -88l72 88h129l-138 -168h-126z" />
    <glyph glyph-name="uni0312" unicode="&#x312;" 
d="M-11 785h103q-19 -37 -29 -81t-11 -94h-131q2 46 20.5 94t47.5 81z" />
    <glyph glyph-name="uni0315" unicode="&#x315;" 
d="M-57 810h139l-56 -239h-95z" />
    <glyph glyph-name="dotbelowcomb" unicode="&#x323;" 
d="M0 -53q37 0 59.5 -22t22.5 -57q0 -34 -22.5 -56t-59.5 -22t-59 21.5t-22 56.5t22.5 57t58.5 22z" />
    <glyph glyph-name="uni0326" unicode="&#x326;" 
d="M-60 -63h133q-1 -31 -10.5 -66.5t-24.5 -66.5t-33 -51h-107q19 37 30.5 87t11.5 97z" />
    <glyph glyph-name="uni0327" unicode="&#x327;" 
d="M-45 10h83l-21 -68q47 -2 74.5 -28t27.5 -67q0 -51 -39.5 -80.5t-107.5 -29.5q-27 0 -56 6t-43 13l16 75q29 -13 68 -13q55 0 55 35q0 33 -57 33q-23 0 -35 -3z" />
    <glyph glyph-name="uni0328" unicode="&#x328;" 
d="M25 38l49 -38q-93 -66 -93 -119q0 -37 43 -37q26 0 48 12l9 -96q-14 -9 -37.5 -14t-49.5 -5q-60 0 -93.5 28t-33.5 77q0 51 41.5 101.5t116.5 90.5z" />
    <glyph glyph-name="uni0344" unicode="&#x344;" 
d="M-26 779h122l-83 -177h-93zM-210.5 635.5q-18.5 18.5 -18.5 48.5t18.5 49t47.5 19q31 0 50 -19t19 -49t-19 -48.5t-48 -18.5q-31 0 -49.5 18.5zM112.5 635.5q-18.5 18.5 -18.5 48.5t19 49t48 19q30 0 49 -19t19 -49t-18.5 -48.5t-48.5 -18.5q-31 0 -49.5 18.5z" />
    <glyph glyph-name="uni0374" unicode="&#x374;" horiz-adv-x="243" 
d="M73 744h137l-63 -269h-104z" />
    <glyph glyph-name="uni0375" unicode="&#x375;" horiz-adv-x="243" 
d="M55 124h137l-63 -269h-104z" />
    <glyph glyph-name="uni037E" unicode="&#x37e;" horiz-adv-x="300" 
d="M88 153h140q0 -61 -14.5 -122.5t-40.5 -114.5t-60 -90h-115q42 68 65.5 153t24.5 174zM150 516q39 0 64 -24t25 -61t-25 -60.5t-64 -23.5t-63.5 23.5t-24.5 60.5t24.5 61t63.5 24z" />
    <glyph glyph-name="tonos" unicode="&#x384;" horiz-adv-x="500" 
d="M254 779h145l-89 -177h-116z" />
    <glyph glyph-name="dieresistonos" unicode="&#x385;" horiz-adv-x="500" 
d="M224 779h122l-83 -177h-93zM39.5 635.5q-18.5 18.5 -18.5 48.5t18.5 49t47.5 19q31 0 50 -19t19 -49t-19 -48.5t-48 -18.5q-31 0 -49.5 18.5zM362.5 635.5q-18.5 18.5 -18.5 48.5t19 49t48 19q30 0 49 -19t19 -49t-18.5 -48.5t-48.5 -18.5q-31 0 -49.5 18.5z" />
    <glyph glyph-name="Alphatonos" unicode="&#x386;" horiz-adv-x="852" 
d="M358 760h169l302 -760h-170l-69 196h-304l-69 -196h-160zM546 320l-108 305l-108 -305h216zM89 760h146l-89 -213h-115z" />
    <glyph glyph-name="anoteleia" unicode="&#x387;" horiz-adv-x="300" 
d="M150 516q39 0 64 -24t25 -61t-25 -60.5t-64 -23.5t-63.5 23.5t-24.5 60.5t24.5 61t63.5 24z" />
    <glyph glyph-name="Epsilontonos" unicode="&#x388;" horiz-adv-x="877" 
d="M293 760h506v-125h-356v-186h316v-125h-316v-199h371v-125h-521v760zM87 760h146l-89 -213h-115z" />
    <glyph glyph-name="Etatonos" unicode="&#x389;" horiz-adv-x="1058" 
d="M293 760h161v-303h354v303h161v-760h-161v327h-354v-327h-161v760zM87 760h146l-89 -213h-115z" />
    <glyph glyph-name="Iotatonos" unicode="&#x38a;" horiz-adv-x="543" 
d="M293 760h161v-760h-161v760zM87 760h146l-89 -213h-115z" />
    <glyph glyph-name="Omicrontonos" unicode="&#x38c;" horiz-adv-x="1055" 
d="M199 380q0 84 30.5 156t86 126t129 84t158.5 30q87 0 160.5 -29.5t128.5 -83t85 -125.5t30 -158q0 -84 -30.5 -156t-86 -126t-128.5 -84t-159 -30q-87 0 -161 29.5t-128.5 83t-84.5 126t-30 157.5zM840 380q0 74 -30.5 131t-84 89.5t-122.5 32.5t-122.5 -32.5t-84 -89.5
t-30.5 -131q0 -73 30.5 -130.5t84 -90t122.5 -32.5t122.5 32.5t84 89.5t30.5 131zM87 760h146l-89 -213h-115z" />
    <glyph glyph-name="Upsilontonos" unicode="&#x38e;" horiz-adv-x="1000" 
d="M710 315v-315h-159v316l-279 444h179l183 -328l183 328h172zM87 760h146l-89 -213h-115z" />
    <glyph glyph-name="Omegatonos" unicode="&#x38f;" horiz-adv-x="1065" 
d="M211 416q0 78 29 143.5t82 114t124.5 75.5t155.5 27q86 0 157.5 -26.5t124 -74.5t81 -114t28.5 -145q0 -90 -37 -163.5t-107 -121.5h145v-131h-331v126q78 41 120.5 112t42.5 160q0 70 -28.5 122.5t-78.5 82.5t-117 30q-66 0 -116.5 -30t-79 -82.5t-28.5 -122.5
q0 -89 42.5 -160t120.5 -112v-126h-331v131h144q-69 48 -106 121.5t-37 163.5zM87 760h146l-89 -213h-115z" />
    <glyph glyph-name="iotadieresistonos" unicode="&#x390;" horiz-adv-x="355" 
d="M68 510h146v-318q0 -43 11 -61t38 -18q14 0 29 4.5t27 11.5l16 -121q-18 -10 -47.5 -17t-62.5 -7q-82 0 -119.5 43.5t-37.5 140.5v342zM114 779h122l-83 -177h-93zM-70.5 635.5q-18.5 18.5 -18.5 48.5t18.5 49t47.5 19q31 0 50 -19t19 -49t-19 -48.5t-48 -18.5
q-31 0 -49.5 18.5zM252.5 635.5q-18.5 18.5 -18.5 48.5t19 49t48 19q30 0 49 -19t19 -49t-18.5 -48.5t-48.5 -18.5q-31 0 -49.5 18.5z" />
    <glyph glyph-name="Alpha" unicode="&#x391;" horiz-adv-x="818" 
d="M324 760h169l302 -760h-170l-69 196h-304l-69 -196h-160zM512 320l-108 305l-108 -305h216z" />
    <glyph glyph-name="Beta" unicode="&#x392;" horiz-adv-x="716" 
d="M89 760h285q122 0 187 -50.5t65 -143.5q0 -54 -27 -97t-75 -64q66 -16 103.5 -65.5t37.5 -119.5q0 -106 -69.5 -163t-202.5 -57h-304v760zM387 115q59 0 91 28.5t32 80.5q0 110 -130 110h-146v-219h153zM358 445q120 0 120 105q0 95 -118 95h-126v-200h124z" />
    <glyph glyph-name="Gamma" unicode="&#x393;" horiz-adv-x="623" 
d="M89 760h499v-132h-338v-628h-161v760z" />
    <glyph glyph-name="uni0394" unicode="&#x394;" horiz-adv-x="813" 
d="M324 760h166l278 -645v-115h-723v115zM402 620l-196 -491h392z" />
    <glyph glyph-name="Epsilon" unicode="&#x395;" horiz-adv-x="673" 
d="M89 760h506v-125h-356v-186h316v-125h-316v-199h371v-125h-521v760z" />
    <glyph glyph-name="Zeta" unicode="&#x396;" horiz-adv-x="736" 
d="M470 631h-392v129h589v-115l-416 -516h423v-129h-621v115z" />
    <glyph glyph-name="Eta" unicode="&#x397;" horiz-adv-x="854" 
d="M89 760h161v-303h354v303h161v-760h-161v327h-354v-327h-161v760z" />
    <glyph glyph-name="Theta" unicode="&#x398;" horiz-adv-x="904" 
d="M825.5 224q-30.5 -72 -86 -126t-128.5 -84t-159 -30q-87 0 -161 29.5t-128.5 83t-84.5 126t-30 157.5q0 84 30.5 156t86 126t129 84t158.5 30q87 0 160.5 -29.5t128.5 -83t85 -125.5t30 -158q0 -84 -30.5 -156zM699 380q0 77 -32 136t-87.5 93t-127.5 34q-71 0 -127 -34
t-88 -93t-32 -136q0 -76 32 -135.5t88 -93.5t127 -34q72 0 127.5 34t87.5 93.5t32 135.5zM305 318v123h294v-123h-294z" />
    <glyph glyph-name="Iota" unicode="&#x399;" horiz-adv-x="339" 
d="M89 760h161v-760h-161v760z" />
    <glyph glyph-name="Kappa" unicode="&#x39a;" horiz-adv-x="787" 
d="M89 760h159v-325l300 325h197l-348 -363l382 -397h-214l-317 343v-343h-159v760z" />
    <glyph glyph-name="Lambda" unicode="&#x39b;" horiz-adv-x="787" 
d="M308 760h171l286 -760h-173l-200 570l-201 -570h-168z" />
    <glyph glyph-name="Mu.alt" unicode="&#x39c;" horiz-adv-x="1019" 
d="M114 760h151l246 -482l242 482h152l42 -760h-151l-21 525l-201 -399h-128l-203 395l-20 -521h-150z" />
    <glyph glyph-name="Nu" unicode="&#x39d;" horiz-adv-x="852" 
d="M89 760h141l387 -525v525h146v-760h-141l-386 523v-523h-147v760z" />
    <glyph glyph-name="Xi" unicode="&#x39e;" horiz-adv-x="691" 
d="M62 0v130h567v-130h-567zM77 630v130h537v-130h-537zM163 321v130h365v-130h-365z" />
    <glyph glyph-name="Omicron" unicode="&#x39f;" horiz-adv-x="904" 
d="M48 380q0 84 30.5 156t86 126t129 84t158.5 30q87 0 160.5 -29.5t128.5 -83t85 -125.5t30 -158q0 -84 -30.5 -156t-86 -126t-128.5 -84t-159 -30q-87 0 -161 29.5t-128.5 83t-84.5 126t-30 157.5zM689 380q0 74 -30.5 131t-84 89.5t-122.5 32.5t-122.5 -32.5t-84 -89.5
t-30.5 -131q0 -73 30.5 -130.5t84 -90t122.5 -32.5t122.5 32.5t84 89.5t30.5 131z" />
    <glyph glyph-name="Pi" unicode="&#x3a0;" horiz-adv-x="844" 
d="M89 760h666v-760h-161v628h-344v-628h-161v760z" />
    <glyph glyph-name="Rho" unicode="&#x3a1;" horiz-adv-x="663" 
d="M89 760h256q86 0 149.5 -30.5t98 -86.5t34.5 -133t-34.5 -133.5t-98 -87t-150.5 -30.5h-102v-259h-153v760zM320 379q150 0 150 130t-150 130h-78v-260h78z" />
    <glyph glyph-name="Sigma" unicode="&#x3a3;" horiz-adv-x="707" 
d="M322 382l-265 267v111h572v-125h-361l207 -208v-81l-219 -221h387v-125h-590v111z" />
    <glyph glyph-name="Tau" unicode="&#x3a4;" horiz-adv-x="717" 
d="M278 628h-243v132h647v-132h-242v-628h-162v628z" />
    <glyph glyph-name="Upsilon" unicode="&#x3a5;" horiz-adv-x="738" 
d="M448 315v-315h-159v316l-279 444h179l183 -328l183 328h172z" />
    <glyph glyph-name="Phi" unicode="&#x3a6;" horiz-adv-x="1002" 
d="M422 54q-114 6 -198 47t-130 112.5t-46 166.5t46 166t130 112.5t198 47.5v75h157v-75q114 -6 198 -47t130.5 -112.5t46.5 -166.5t-46.5 -166t-130.5 -112.5t-198 -47.5v-75h-157v75zM264 519.5q-59 -52.5 -59 -139.5t59 -139.5t161 -60.5v400q-102 -8 -161 -60.5z
M796 380q0 87 -58.5 139.5t-160.5 60.5v-400q102 8 160.5 60.5t58.5 139.5z" />
    <glyph glyph-name="Chi" unicode="&#x3a7;" horiz-adv-x="763" 
d="M286 396l-250 364h189l163 -261l161 261h182l-253 -370l270 -390h-190l-183 287l-178 -287h-182z" />
    <glyph glyph-name="Psi" unicode="&#x3a8;" horiz-adv-x="985" 
d="M417 760h150v-414q96 6 140 59t44 165v190h150v-203q0 -156 -87 -245t-247 -97v-215h-150v215q-159 8 -246 97t-87 245v203h150v-190q0 -112 44 -165t139 -59v414z" />
    <glyph glyph-name="uni03A9" unicode="&#x3a9;" horiz-adv-x="926" 
d="M72 416q0 78 29 143.5t82 114t124.5 75.5t155.5 27q86 0 157.5 -26.5t124 -74.5t81 -114t28.5 -145q0 -90 -37 -163.5t-107 -121.5h145v-131h-331v126q78 41 120.5 112t42.5 160q0 70 -28.5 122.5t-78.5 82.5t-117 30q-66 0 -116.5 -30t-79 -82.5t-28.5 -122.5
q0 -89 42.5 -160t120.5 -112v-126h-331v131h144q-69 48 -106 121.5t-37 163.5z" />
    <glyph glyph-name="Iotadieresis" unicode="&#x3aa;" horiz-adv-x="339" 
d="M89 760h161v-760h-161v760zM281 978q34 0 55.5 -20.5t21.5 -52.5t-21.5 -52t-55.5 -20t-55 20t-21 52t21.5 52.5t54.5 20.5zM56 978q34 0 55.5 -20.5t21.5 -52.5t-21.5 -52t-55.5 -20q-33 0 -54.5 20t-21.5 52t21.5 52.5t54.5 20.5z" />
    <glyph glyph-name="Upsilondieresis" unicode="&#x3ab;" horiz-adv-x="738" 
d="M448 315v-315h-159v316l-279 444h179l183 -328l183 328h172zM481 978q34 0 55.5 -20.5t21.5 -52.5t-21.5 -52t-55.5 -20t-55 20t-21 52t21.5 52.5t54.5 20.5zM256 978q34 0 55.5 -20.5t21.5 -52.5t-21.5 -52t-55.5 -20q-33 0 -54.5 20t-21.5 52t21.5 52.5t54.5 20.5z" />
    <glyph glyph-name="alphatonos" unicode="&#x3ac;" horiz-adv-x="660" 
d="M570 176q0 -28 7.5 -42t26.5 -14q14 0 29 6l7 -117q-31 -18 -89 -18q-53 0 -81.5 23.5t-34.5 67.5q-25 -49 -68.5 -73.5t-96.5 -24.5q-66 0 -117 34.5t-80.5 95.5t-29.5 139q0 79 30 140.5t82 97t117 35.5q52 0 93.5 -25t63.5 -67l3 76h138v-334zM432 255q0 63 -33.5 102
t-87.5 39t-87.5 -39t-33.5 -102q0 -62 33.5 -101.5t87.5 -39.5t87.5 39.5t33.5 101.5zM303 779h145l-89 -177h-116z" />
    <glyph glyph-name="epsilontonos" unicode="&#x3ad;" horiz-adv-x="536" 
d="M490 23q-34 -16 -90 -27.5t-120 -11.5q-115 0 -176 39.5t-61 113.5q0 46 27.5 78t76.5 44q-40 12 -64 42t-24 73q0 70 61 111t164 41q55 0 106.5 -10.5t86.5 -26.5l-15 -109q-40 15 -81 24t-85 9q-94 0 -94 -55q0 -29 24.5 -41t77.5 -12h86v-91h-80q-58 0 -85.5 -13
t-27.5 -44q0 -29 26 -43.5t72 -14.5q49 0 94.5 10t86.5 28zM272 779h145l-89 -177h-116z" />
    <glyph glyph-name="etatonos" unicode="&#x3ae;" horiz-adv-x="637" 
d="M570 -250h-146v532q0 115 -87 115q-49 0 -75 -32.5t-26 -93.5v-271h-146v339q0 28 -9 39.5t-26 11.5q-14 0 -29 -6l-6 116q13 8 35.5 13.5t50.5 5.5q53 0 82 -21.5t38 -61.5q20 42 62.5 66t96.5 24q90 0 137.5 -55t47.5 -161v-560zM318 779h145l-89 -177h-116z" />
    <glyph glyph-name="iotatonos" unicode="&#x3af;" horiz-adv-x="355" 
d="M68 510h146v-318q0 -43 11 -61t38 -18q14 0 29 4.5t27 11.5l16 -121q-18 -10 -47.5 -17t-62.5 -7q-82 0 -119.5 43.5t-37.5 140.5v342zM128 779h145l-89 -177h-116z" />
    <glyph glyph-name="upsilondieresistonos.alt" unicode="&#x3b0;" horiz-adv-x="594" 
d="M68 510h146v-271q0 -125 89 -125q56 0 80 42t24 114q0 62 -13 119.5t-36 114.5l144 12q23 -51 35.5 -113.5t12.5 -132.5q0 -139 -62.5 -212.5t-187.5 -73.5q-116 0 -174 63.5t-58 185.5v277zM272 779h122l-83 -177h-93zM87.5 635.5q-18.5 18.5 -18.5 48.5t18.5 49
t47.5 19q31 0 50 -19t19 -49t-19 -48.5t-48 -18.5q-31 0 -49.5 18.5zM410.5 635.5q-18.5 18.5 -18.5 48.5t19 49t48 19q30 0 49 -19t19 -49t-18.5 -48.5t-48.5 -18.5q-31 0 -49.5 18.5z" />
    <glyph glyph-name="alpha" unicode="&#x3b1;" horiz-adv-x="660" 
d="M570 176q0 -28 7.5 -42t26.5 -14q14 0 29 6l7 -117q-31 -18 -89 -18q-53 0 -81.5 23.5t-34.5 67.5q-25 -49 -68.5 -73.5t-96.5 -24.5q-66 0 -117 34.5t-80.5 95.5t-29.5 139q0 79 30 140.5t82 97t117 35.5q52 0 93.5 -25t63.5 -67l3 76h138v-334zM432 255q0 63 -33.5 102
t-87.5 39t-87.5 -39t-33.5 -102q0 -62 33.5 -101.5t87.5 -39.5t87.5 39.5t33.5 101.5z" />
    <glyph glyph-name="beta" unicode="&#x3b2;" horiz-adv-x="657" 
d="M70 533q0 86 31 149.5t89 98t139 34.5q69 0 120 -26t79.5 -73t28.5 -111q0 -62 -32 -109t-85 -66q80 -15 126.5 -71t46.5 -143q0 -70 -29 -122.5t-79 -81t-115 -28.5q-60 0 -104 23.5t-70 64.5v-317h-146v778zM435.5 143.5q33.5 31.5 33.5 87.5q0 65 -42.5 96.5
t-116.5 31.5h-21v116h18q51 0 80.5 31t29.5 85q0 47 -25.5 73.5t-65.5 26.5q-51 0 -80.5 -40t-29.5 -110v-255q0 -64 20 -102.5t51 -55t65 -16.5q50 0 83.5 31.5z" />
    <glyph glyph-name="gamma" unicode="&#x3b3;" horiz-adv-x="574" 
d="M15 510h162l113 -400l118 400h151l-198 -526v-229h-146v228z" />
    <glyph glyph-name="delta" unicode="&#x3b4;" horiz-adv-x="631" 
d="M316 -16q-79 0 -141 33t-97 92t-35 138q0 87 47 147t124 81q-57 29 -88 70t-31 95q0 56 30 95t82.5 59.5t121.5 20.5q56 0 108.5 -12.5t89.5 -31.5l-17 -123q-39 19 -82.5 29t-81.5 10q-47 0 -77.5 -15t-30.5 -49t29.5 -54t72.5 -37q39 -16 82 -36t81 -51t61.5 -78
t23.5 -117q0 -80 -35 -140t-96 -93t-141 -33zM316 114q56 0 91.5 39.5t35.5 99.5t-35.5 99t-91.5 39q-55 0 -91 -39t-36 -99q0 -61 36 -100t91 -39z" />
    <glyph glyph-name="epsilon" unicode="&#x3b5;" horiz-adv-x="536" 
d="M490 23q-34 -16 -90 -27.5t-120 -11.5q-115 0 -176 39.5t-61 113.5q0 46 27.5 78t76.5 44q-40 12 -64 42t-24 73q0 70 61 111t164 41q55 0 106.5 -10.5t86.5 -26.5l-15 -109q-40 15 -81 24t-85 9q-94 0 -94 -55q0 -29 24.5 -41t77.5 -12h86v-91h-80q-58 0 -85.5 -13
t-27.5 -44q0 -29 26 -43.5t72 -14.5q49 0 94.5 10t86.5 28z" />
    <glyph glyph-name="zeta" unicode="&#x3b6;" horiz-adv-x="515" 
d="M314 691h-246v119h419v-103l-26 -24q-132 -122 -201.5 -234.5t-69.5 -200.5q0 -61 33.5 -95.5t100.5 -49.5l5 -1q46 -10 84 -28.5t61 -51.5t23 -87q0 -37 -12.5 -70.5t-31.5 -57.5l-134 11q12 17 24.5 41t12.5 48q0 32 -22 46.5t-61 22.5l-5 1q-87 20 -136 59t-69 89
t-20 102q0 107 70.5 223.5t200.5 240.5z" />
    <glyph glyph-name="eta" unicode="&#x3b7;" horiz-adv-x="637" 
d="M570 -250h-146v532q0 115 -87 115q-49 0 -75 -32.5t-26 -93.5v-271h-146v339q0 28 -9 39.5t-26 11.5q-14 0 -29 -6l-6 116q13 8 35.5 13.5t50.5 5.5q53 0 82 -21.5t38 -61.5q20 42 62.5 66t96.5 24q90 0 137.5 -55t47.5 -161v-560z" />
    <glyph glyph-name="theta" unicode="&#x3b8;" horiz-adv-x="639" 
d="M320 815q133 0 204.5 -109.5t71.5 -305.5q0 -51 -5 -96t-14 -84q-28 -113 -93.5 -174.5t-164.5 -61.5q-133 0 -204.5 109.5t-71.5 305.5q0 51 5 96t15 84q28 113 93 174.5t164 61.5zM444 250q9 42 12 93h-273q6 -117 41.5 -175.5t95.5 -58.5q94 0 124 141zM414.5 631.5
q-35.5 58.5 -95.5 58.5q-92 0 -124 -141q-9 -42 -12 -93h273q-6 117 -41.5 175.5z" />
    <glyph glyph-name="iota" unicode="&#x3b9;" horiz-adv-x="355" 
d="M68 510h146v-318q0 -43 11 -61t38 -18q14 0 29 4.5t27 11.5l16 -121q-18 -10 -47.5 -17t-62.5 -7q-82 0 -119.5 43.5t-37.5 140.5v342z" />
    <glyph glyph-name="kappa" unicode="&#x3ba;" horiz-adv-x="614" 
d="M72 510h146v-212l185 212h171l-223 -242l260 -268h-184l-209 219v-219h-146v510z" />
    <glyph glyph-name="lambda" unicode="&#x3bb;" horiz-adv-x="603" 
d="M587 0h-157l-129 367l-129 -367h-157l213 515l-126 295h147z" />
    <glyph glyph-name="uni03BC" unicode="&#x3bc;" horiz-adv-x="637" 
d="M69 510h146v-284q0 -58 21 -85t67 -27q47 0 73 32.5t26 89.5v274h146v-334q0 -28 7.5 -42t26.5 -14q13 0 29 6l7 -117q-29 -18 -83 -18q-88 0 -106 75q-19 -43 -49.5 -62.5t-71.5 -19.5q-65 0 -93 39v-268h-146v755z" />
    <glyph glyph-name="nu" unicode="&#x3bd;" horiz-adv-x="574" 
d="M15 510h162l113 -369l118 369h151l-196 -510h-151z" />
    <glyph glyph-name="xi" unicode="&#x3be;" horiz-adv-x="549" 
d="M494 657q-25 14 -64.5 22.5t-77.5 8.5q-68 0 -106 -29.5t-38 -77.5q0 -46 36.5 -76t110.5 -30h83v-115h-74q-79 0 -127 -32t-48 -96q0 -54 39.5 -83.5t115.5 -46.5l4 -1q48 -10 88.5 -27.5t65 -50t24.5 -88.5q0 -40 -13.5 -72.5t-31.5 -55.5l-134 11q13 17 25 40.5
t12 47.5q0 34 -24 46.5t-68 22.5l-4 1q-117 26 -181 83.5t-64 157.5q0 74 40.5 131t117.5 74q-68 22 -101.5 67t-33.5 108q0 65 33 114t93 76.5t141 27.5q45 0 92.5 -9.5t86.5 -29.5z" />
    <glyph glyph-name="omicron" unicode="&#x3bf;" horiz-adv-x="631" 
d="M316 -16q-79 0 -140.5 35t-97 96.5t-35.5 139.5t36 139t97.5 96.5t139.5 35.5q79 0 140.5 -35t96.5 -96t35 -140q0 -77 -35.5 -138.5t-97 -97t-139.5 -35.5zM406.5 357q-34.5 39 -90.5 39t-91 -39t-35 -102q0 -62 35 -101.5t91 -39.5t90.5 39.5t34.5 101.5
q0 63 -34.5 102z" />
    <glyph glyph-name="pi.alt" unicode="&#x3c0;" horiz-adv-x="680" 
d="M256 0h-143v391h-91v119h631v-119h-95v-219q0 -31 10 -44t35 -13q11 0 20.5 2t18.5 6l8 -114q-13 -9 -39 -15t-55 -6q-75 0 -108.5 37t-33.5 115v251h-158v-391z" />
    <glyph glyph-name="rho" unicode="&#x3c1;" horiz-adv-x="653" 
d="M68 231q0 89 34 155t94.5 103t141.5 37t142 -34.5t95.5 -95t34.5 -140.5q0 -77 -32 -138.5t-87 -97.5t-123 -36q-100 0 -154 72v-301h-146v476zM428 154q35 40 35 101q0 62 -35 101.5t-90 39.5t-90.5 -39.5t-35.5 -101.5q0 -61 35.5 -101t90.5 -40t90 40z" />
    <glyph glyph-name="sigma1" unicode="&#x3c2;" horiz-adv-x="541" 
d="M178.5 489q63.5 35 145.5 35q44 0 89.5 -10.5t76.5 -28.5l-18 -122q-65 31 -132 31q-71 0 -110.5 -40t-39.5 -107q0 -57 30 -92.5t103 -51.5l4 -1q48 -10 86 -29t60.5 -52.5t22.5 -89.5q0 -34 -13.5 -67.5t-31.5 -56.5l-134 11q13 17 25 41t12 48q0 32 -22 46.5t-61 22.5
l-4 1q-85 19 -134 60t-69.5 95.5t-20.5 112.5q0 83 36 146t99.5 98z" />
    <glyph glyph-name="sigma" unicode="&#x3c3;" horiz-adv-x="653" 
d="M317 -16q-79 0 -141 34t-97.5 93.5t-35.5 136.5q0 81 37 139.5t106.5 90.5t165.5 32h279v-119h-136q44 -24 68.5 -66t24.5 -96q0 -70 -36 -125.5t-97.5 -87.5t-137.5 -32zM316 383q-55 0 -90.5 -38t-35.5 -97t35 -96.5t91 -37.5t90.5 37.5t34.5 96.5t-34.5 97t-90.5 38z
" />
    <glyph glyph-name="tau.alt" unicode="&#x3c4;" horiz-adv-x="491" 
d="M153 391h-135v119h446v-119h-165v-202q0 -42 12.5 -59t42.5 -17q29 0 54 15l15 -120q-18 -10 -48.5 -17t-61.5 -7q-85 0 -122.5 43.5t-37.5 140.5v223z" />
    <glyph glyph-name="upsilon.alt" unicode="&#x3c5;" horiz-adv-x="594" 
d="M68 510h146v-271q0 -125 89 -125q56 0 80 42t24 114q0 62 -13 119.5t-36 114.5l144 12q23 -51 35.5 -113.5t12.5 -132.5q0 -139 -62.5 -212.5t-187.5 -73.5q-116 0 -174 63.5t-58 185.5v277z" />
    <glyph glyph-name="phi" unicode="&#x3c6;" horiz-adv-x="825" 
d="M345 -245v228q-141 10 -221.5 81.5t-80.5 188.5q0 78 36.5 136.5t104.5 92.5t161 40v114h135v-114q93 -6 160.5 -40t104 -92.5t36.5 -136.5q0 -117 -80 -188.5t-221 -81.5v-228h-135zM226 358q-43 -38 -43 -105q0 -135 167 -150v300q-81 -7 -124 -45zM642 253
q0 67 -43 105t-124 45v-300q167 15 167 150z" />
    <glyph glyph-name="chi" unicode="&#x3c7;" horiz-adv-x="626" 
d="M614 -245h-158l-143 294l-146 -294h-154l219 393l-203 362h158l125 -260l130 260h154l-202 -361z" />
    <glyph glyph-name="psi.alt" unicode="&#x3c8;" horiz-adv-x="838" 
d="M362 636h136v-522q85 11 119 56t34 134q0 50 -9 99t-26 101l141 11q16 -46 27 -99t11 -112q0 -159 -74 -233t-223 -86v-230h-136v230q-154 11 -224 83.5t-70 215.5v226h143v-211q0 -91 34.5 -133.5t116.5 -51.5v522z" />
    <glyph glyph-name="omega" unicode="&#x3c9;" horiz-adv-x="844" 
d="M590 -16q-53 0 -97 26.5t-71 83.5q-27 -57 -71 -83.5t-98 -26.5q-64 0 -111.5 32.5t-73 92t-25.5 140.5q0 49 10 99t27.5 94.5t38.5 74.5l148 -13q-34 -49 -56.5 -115t-22.5 -132q0 -63 19.5 -100t62.5 -37q25 0 44 16t30.5 60.5t11.5 129.5v95h133v-95q0 -85 11 -129.5
t30 -60.5t44 -16q43 0 62.5 37t19.5 100q0 66 -22 132t-56 115l147 13q21 -30 38 -74.5t27.5 -94.5t10.5 -99q0 -122 -56.5 -193.5t-154.5 -71.5z" />
    <glyph glyph-name="iotadieresis" unicode="&#x3ca;" horiz-adv-x="355" 
d="M68 510h146v-318q0 -43 11 -61t38 -18q14 0 29 4.5t27 11.5l16 -121q-18 -10 -47.5 -17t-62.5 -7q-82 0 -119.5 43.5t-37.5 140.5v342zM-45 684q0 31 21 51t53 20q33 0 54 -19.5t21 -51.5q0 -31 -21 -51t-54 -20t-53.5 20t-20.5 51zM176 684q0 31 21 51t53 20
q33 0 54 -19.5t21 -51.5q0 -31 -21 -51t-54 -20t-53.5 20t-20.5 51z" />
    <glyph glyph-name="upsilondieresis.alt" unicode="&#x3cb;" horiz-adv-x="594" 
d="M68 510h146v-271q0 -125 89 -125q56 0 80 42t24 114q0 62 -13 119.5t-36 114.5l144 12q23 -51 35.5 -113.5t12.5 -132.5q0 -139 -62.5 -212.5t-187.5 -73.5q-116 0 -174 63.5t-58 185.5v277zM113 684q0 31 21 51t53 20q33 0 54 -19.5t21 -51.5q0 -31 -21 -51t-54 -20
t-53.5 20t-20.5 51zM334 684q0 31 21 51t53 20q33 0 54 -19.5t21 -51.5q0 -31 -21 -51t-54 -20t-53.5 20t-20.5 51z" />
    <glyph glyph-name="omicrontonos" unicode="&#x3cc;" horiz-adv-x="631" 
d="M316 -16q-79 0 -140.5 35t-97 96.5t-35.5 139.5t36 139t97.5 96.5t139.5 35.5q79 0 140.5 -35t96.5 -96t35 -140q0 -77 -35.5 -138.5t-97 -97t-139.5 -35.5zM406.5 357q-34.5 39 -90.5 39t-91 -39t-35 -102q0 -62 35 -101.5t91 -39.5t90.5 39.5t34.5 101.5
q0 63 -34.5 102zM304 779h145l-89 -177h-116z" />
    <glyph glyph-name="upsilontonos.alt" unicode="&#x3cd;" horiz-adv-x="594" 
d="M68 510h146v-271q0 -125 89 -125q56 0 80 42t24 114q0 62 -13 119.5t-36 114.5l144 12q23 -51 35.5 -113.5t12.5 -132.5q0 -139 -62.5 -212.5t-187.5 -73.5q-116 0 -174 63.5t-58 185.5v277zM286 779h145l-89 -177h-116z" />
    <glyph glyph-name="omegatonos" unicode="&#x3ce;" horiz-adv-x="844" 
d="M590 -16q-53 0 -97 26.5t-71 83.5q-27 -57 -71 -83.5t-98 -26.5q-64 0 -111.5 32.5t-73 92t-25.5 140.5q0 49 10 99t27.5 94.5t38.5 74.5l148 -13q-34 -49 -56.5 -115t-22.5 -132q0 -63 19.5 -100t62.5 -37q25 0 44 16t30.5 60.5t11.5 129.5v95h133v-95q0 -85 11 -129.5
t30 -60.5t44 -16q43 0 62.5 37t19.5 100q0 66 -22 132t-56 115l147 13q21 -30 38 -74.5t27.5 -94.5t10.5 -99q0 -122 -56.5 -193.5t-154.5 -71.5zM410 779h145l-89 -177h-116z" />
    <glyph glyph-name="uni03CF" unicode="&#x3cf;" horiz-adv-x="827" 
d="M89 760h159v-326l305 326h197l-323 -332q116 -2 194 -43.5t118 -112.5t40 -160t-39 -155.5t-107.5 -103t-157.5 -36.5q-40 0 -77 7.5t-60 20.5l16 128q41 -24 93 -24q72 0 119.5 44t47.5 120q0 58 -27 104t-85.5 73.5t-153.5 27.5q-55 0 -100 -9v-309h-159v760z" />
    <glyph glyph-name="uni03D7" unicode="&#x3d7;" horiz-adv-x="624" 
d="M72 510h146v-231l194 231h167l-197 -225q104 -68 165 -143.5t61 -170.5q0 -65 -30 -113t-82.5 -74t-120.5 -26q-40 0 -75.5 9t-62.5 23l16 110q20 -12 46 -20.5t55 -8.5q46 0 77 27.5t31 76.5q0 59 -44 113.5t-137 115.5l-63 -72v-132h-146v510z" />
    <glyph glyph-name="uni0400" unicode="&#x400;" horiz-adv-x="673" 
d="M89 760h506v-125h-356v-186h316v-125h-316v-199h371v-125h-521v760zM162 980h175l114 -145h-136z" />
    <glyph glyph-name="uni0401" unicode="&#x401;" horiz-adv-x="673" 
d="M89 760h506v-125h-356v-186h316v-125h-316v-199h371v-125h-521v760zM461 978q34 0 55.5 -20.5t21.5 -52.5t-21.5 -52t-55.5 -20t-55 20t-21 52t21.5 52.5t54.5 20.5zM236 978q34 0 55.5 -20.5t21.5 -52.5t-21.5 -52t-55.5 -20q-33 0 -54.5 20t-21.5 52t21.5 52.5
t54.5 20.5z" />
    <glyph glyph-name="uni0402" unicode="&#x402;" horiz-adv-x="909" 
d="M234 628h-199v132h621v-132h-260v-186q55 14 94 19t86 5q90 0 155.5 -29t101 -82.5t35.5 -126.5q0 -111 -70 -173t-195 -62q-23 0 -49.5 2t-44.5 6l10 126q36 -4 59 -4q63 0 95.5 27t32.5 77q0 112 -153 112q-44 0 -83 -5t-74 -17v-317h-162v628z" />
    <glyph glyph-name="uni0403" unicode="&#x403;" horiz-adv-x="623" 
d="M89 760h499v-132h-338v-628h-161v760zM341 980h175l-153 -145h-137z" />
    <glyph glyph-name="uni0404" unicode="&#x404;" horiz-adv-x="761" 
d="M48 376q0 87 30 159.5t85.5 125t131.5 81.5t167 29q63 0 127.5 -16.5t110.5 -44.5l-25 -129q-108 54 -209 54q-99 0 -165.5 -49.5t-86.5 -135.5h347v-122h-351q15 -95 83 -149t175 -54q50 0 109.5 15.5t111.5 42.5l17 -133q-52 -28 -118 -44.5t-134 -16.5
q-123 0 -214.5 48t-141.5 135t-50 204z" />
    <glyph glyph-name="uni0405" unicode="&#x405;" horiz-adv-x="667" 
d="M69 181q48 -30 112.5 -48.5t123.5 -18.5q67 0 103.5 25t36.5 70q0 27 -13 45.5t-45 34t-90 32.5q-124 37 -177 90t-53 141q0 69 34 119.5t95.5 77.5t145.5 27q62 0 123.5 -15.5t105.5 -42.5l-22 -128q-42 26 -96.5 41t-104.5 15q-60 0 -92.5 -23t-32.5 -65
q0 -24 11.5 -41.5t40 -32t79.5 -30.5q91 -27 146 -60t80 -75.5t25 -100.5q0 -109 -77.5 -171.5t-214.5 -62.5q-48 0 -97.5 8t-91.5 22.5t-70 33.5z" />
    <glyph glyph-name="uni0406" unicode="&#x406;" horiz-adv-x="339" 
d="M89 760h161v-760h-161v760z" />
    <glyph glyph-name="uni0407" unicode="&#x407;" horiz-adv-x="339" 
d="M89 760h161v-760h-161v760zM281 978q34 0 55.5 -20.5t21.5 -52.5t-21.5 -52t-55.5 -20t-55 20t-21 52t21.5 52.5t54.5 20.5zM56 978q34 0 55.5 -20.5t21.5 -52.5t-21.5 -52t-55.5 -20q-33 0 -54.5 20t-21.5 52t21.5 52.5t54.5 20.5z" />
    <glyph glyph-name="uni0408" unicode="&#x408;" horiz-adv-x="568" 
d="M485 266q0 -143 -65.5 -212.5t-200.5 -69.5q-51 0 -101.5 12t-82.5 31l15 128q33 -19 70 -28t74 -9q70 0 99.5 36.5t29.5 121.5v484h162v-494z" />
    <glyph glyph-name="uni0409.alt" unicode="&#x409;" horiz-adv-x="1193" 
d="M599 628h-260l-9 -230q-5 -116 -19 -194t-41 -124t-70 -66.5t-106 -20.5q-19 0 -40 2.5t-35 5.5l8 127q8 -1 17.5 -2t17.5 -1q32 0 53 14t34 48.5t20 96t11 156.5l14 320h559v-259h122q86 0 149.5 -30.5t98 -86.5t34.5 -132q0 -77 -34.5 -134t-98 -87.5t-149.5 -30.5
h-276v628zM850 381h-97v-260h97q150 0 150 130q0 63 -38 96.5t-112 33.5z" />
    <glyph glyph-name="uni040A" unicode="&#x40a;" horiz-adv-x="1171" 
d="M89 760h161v-298h328v298h153v-273h122q87 0 150.5 -30t98 -84t34.5 -128q0 -75 -34.5 -130t-98 -85t-150.5 -30h-275v332h-328v-332h-161v760zM731 121h97q151 0 151 123q0 59 -38.5 90.5t-112.5 31.5h-97v-245z" />
    <glyph glyph-name="uni040B" unicode="&#x40b;" horiz-adv-x="924" 
d="M234 628h-199v132h621v-132h-260v-186q38 9 66 14.5t53.5 7.5t57.5 2q134 0 209.5 -63.5t75.5 -177.5v-225h-161v191q0 146 -166 146q-35 0 -66.5 -5t-68.5 -16v-316h-162v628z" />
    <glyph glyph-name="uni040C" unicode="&#x40c;" horiz-adv-x="787" 
d="M89 760h159v-325l300 325h197l-348 -363l382 -397h-214l-317 343v-343h-159v760zM396 980h175l-153 -145h-137z" />
    <glyph glyph-name="uni040D" unicode="&#x40d;" horiz-adv-x="859" 
d="M89 760h147v-527l397 527h137v-760h-146v528l-398 -528h-137v760zM243 980h175l114 -145h-136z" />
    <glyph glyph-name="uni040E" unicode="&#x40e;" horiz-adv-x="783" 
d="M382 0h-170l116 211l-308 549h177l209 -402l184 402h173zM197 969q1 5 1 8v7h113v-9q2 -36 24.5 -55.5t59.5 -19.5q38 0 60.5 19.5t23.5 55.5v9h113q1 -5 1 -15q0 -73 -53.5 -116t-144.5 -43t-144.5 43.5t-53.5 115.5z" />
    <glyph glyph-name="uni040F" unicode="&#x40f;" horiz-adv-x="841" 
d="M89 760h161v-628h341v628h161v-760h-254v-176h-155v176h-254v760z" />
    <glyph glyph-name="uni0410" unicode="&#x410;" horiz-adv-x="818" 
d="M324 760h169l302 -760h-170l-69 196h-304l-69 -196h-160zM512 320l-108 305l-108 -305h216z" />
    <glyph glyph-name="uni0411" unicode="&#x411;" horiz-adv-x="700" 
d="M89 760h499v-127h-353v-169h137q87 0 149 -29t95 -81t33 -122t-33 -122t-95 -81t-149 -29h-283v760zM235 116h122q66 0 101.5 31.5t35.5 84.5q0 55 -36 85.5t-101 30.5h-122v-232z" />
    <glyph glyph-name="uni0412" unicode="&#x412;" horiz-adv-x="716" 
d="M89 760h285q122 0 187 -50.5t65 -143.5q0 -54 -27 -97t-75 -64q66 -16 103.5 -65.5t37.5 -119.5q0 -106 -69.5 -163t-202.5 -57h-304v760zM387 115q59 0 91 28.5t32 80.5q0 110 -130 110h-146v-219h153zM358 445q120 0 120 105q0 95 -118 95h-126v-200h124z" />
    <glyph glyph-name="uni0413" unicode="&#x413;" horiz-adv-x="623" 
d="M89 760h499v-132h-338v-628h-161v760z" />
    <glyph glyph-name="uni0414.alt" unicode="&#x414;" horiz-adv-x="892" 
d="M760 132h104v-308h-155v176h-533v-176h-156v308h77q28 31 45.5 75.5t27 113.5t13.5 175l11 264h566v-628zM601 628h-263l-7 -175q-4 -122 -19 -197.5t-43 -123.5h332v496z" />
    <glyph glyph-name="uni0415" unicode="&#x415;" horiz-adv-x="673" 
d="M89 760h506v-125h-356v-186h316v-125h-316v-199h371v-125h-521v760z" />
    <glyph glyph-name="uni0416" unicode="&#x416;" horiz-adv-x="1162" 
d="M1150 0h-203l-288 346v-346h-158v345l-288 -345h-200l347 393l-317 367h187l271 -328v328h158v-330l272 330h186l-315 -364z" />
    <glyph glyph-name="uni0417" unicode="&#x417;" horiz-adv-x="678" 
d="M83 175q46 -28 110 -44.5t128 -16.5q70 0 108 29.5t38 82.5q0 50 -33 76.5t-94 26.5h-151v120h136q121 0 121 95q0 49 -39 75.5t-110 26.5q-47 0 -96 -14.5t-96 -40.5l-34 124q46 28 110.5 44.5t128.5 16.5q134 0 209 -54.5t75 -152.5q0 -58 -29 -101t-81 -64
q64 -17 101 -67.5t37 -120.5q0 -110 -79 -171t-222 -61q-47 0 -96.5 8t-93 21.5t-75.5 32.5z" />
    <glyph glyph-name="uni0418" unicode="&#x418;" horiz-adv-x="859" 
d="M89 760h147v-527l397 527h137v-760h-146v528l-398 -528h-137v760z" />
    <glyph glyph-name="uni0419" unicode="&#x419;" horiz-adv-x="859" 
d="M89 760h147v-527l397 527h137v-760h-146v528l-398 -528h-137v760zM232 969q1 5 1 8v7h113v-9q2 -36 24.5 -55.5t59.5 -19.5q38 0 60.5 19.5t23.5 55.5v9h113q1 -5 1 -15q0 -73 -53.5 -116t-144.5 -43t-144.5 43.5t-53.5 115.5z" />
    <glyph glyph-name="uni041A" unicode="&#x41a;" horiz-adv-x="787" 
d="M89 760h159v-325l300 325h197l-348 -363l382 -397h-214l-317 343v-343h-159v760z" />
    <glyph glyph-name="uni041B.alt" unicode="&#x41b;" horiz-adv-x="853" 
d="M764 0h-159v628h-266l-9 -230q-5 -116 -19 -194t-41 -124t-70 -66.5t-106 -20.5q-19 0 -40 2.5t-35 5.5l8 127q8 -1 17.5 -2t17.5 -1q32 0 53 14t34 48.5t20 96t11 156.5l14 320h570v-760z" />
    <glyph glyph-name="uni041C.alt" unicode="&#x41c;" horiz-adv-x="1019" 
d="M114 760h151l246 -482l242 482h152l42 -760h-151l-21 525l-201 -399h-128l-203 395l-20 -521h-150z" />
    <glyph glyph-name="uni041D" unicode="&#x41d;" horiz-adv-x="854" 
d="M89 760h161v-303h354v303h161v-760h-161v327h-354v-327h-161v760z" />
    <glyph glyph-name="uni041E" unicode="&#x41e;" horiz-adv-x="904" 
d="M48 380q0 84 30.5 156t86 126t129 84t158.5 30q87 0 160.5 -29.5t128.5 -83t85 -125.5t30 -158q0 -84 -30.5 -156t-86 -126t-128.5 -84t-159 -30q-87 0 -161 29.5t-128.5 83t-84.5 126t-30 157.5zM689 380q0 74 -30.5 131t-84 89.5t-122.5 32.5t-122.5 -32.5t-84 -89.5
t-30.5 -131q0 -73 30.5 -130.5t84 -90t122.5 -32.5t122.5 32.5t84 89.5t30.5 131z" />
    <glyph glyph-name="uni041F" unicode="&#x41f;" horiz-adv-x="844" 
d="M89 760h666v-760h-161v628h-344v-628h-161v760z" />
    <glyph glyph-name="uni0420" unicode="&#x420;" horiz-adv-x="663" 
d="M89 760h256q86 0 149.5 -30.5t98 -86.5t34.5 -133t-34.5 -133.5t-98 -87t-150.5 -30.5h-102v-259h-153v760zM320 379q150 0 150 130t-150 130h-78v-260h78z" />
    <glyph glyph-name="uni0421" unicode="&#x421;" horiz-adv-x="761" 
d="M48 376q0 87 30 159.5t85.5 125t131.5 81.5t167 29q63 0 127.5 -16.5t110.5 -44.5l-27 -135q-109 53 -207 53q-76 0 -132.5 -31t-87.5 -87t-31 -131q0 -76 31 -131.5t88 -85.5t134 -30q50 0 109.5 15.5t110.5 42.5l18 -140q-52 -28 -118 -44.5t-134 -16.5
q-123 0 -214.5 48t-141.5 135t-50 204z" />
    <glyph glyph-name="uni0422" unicode="&#x422;" horiz-adv-x="717" 
d="M278 628h-243v132h647v-132h-242v-628h-162v628z" />
    <glyph glyph-name="uni0423" unicode="&#x423;" horiz-adv-x="783" 
d="M382 0h-170l116 211l-308 549h177l209 -402l184 402h173z" />
    <glyph glyph-name="uni0424" unicode="&#x424;" horiz-adv-x="1002" 
d="M422 54q-114 6 -198 47t-130 112.5t-46 166.5t46 166t130 112.5t198 47.5v75h157v-75q114 -6 198 -47t130.5 -112.5t46.5 -166.5t-46.5 -166t-130.5 -112.5t-198 -47.5v-75h-157v75zM264 519.5q-59 -52.5 -59 -139.5t59 -139.5t161 -60.5v400q-102 -8 -161 -60.5z
M796 380q0 87 -58.5 139.5t-160.5 60.5v-400q102 8 160.5 60.5t58.5 139.5z" />
    <glyph glyph-name="uni0425" unicode="&#x425;" horiz-adv-x="763" 
d="M286 396l-250 364h189l163 -261l161 261h182l-253 -370l270 -390h-190l-183 287l-178 -287h-182z" />
    <glyph glyph-name="uni0426" unicode="&#x426;" horiz-adv-x="874" 
d="M89 760h161v-628h331v628h161v-628h105v-308h-156v176h-602v760z" />
    <glyph glyph-name="uni0427" unicode="&#x427;" horiz-adv-x="781" 
d="M693 0h-156v284q-47 -14 -89.5 -20.5t-89.5 -6.5q-145 0 -220 62.5t-75 183.5v257h155v-227q0 -75 41 -109.5t130 -34.5q79 0 148 28v343h156v-760z" />
    <glyph glyph-name="uni0428" unicode="&#x428;" horiz-adv-x="1191" 
d="M89 760h157v-628h271v628h157v-628h271v628h157v-760h-1013v760z" />
    <glyph glyph-name="uni0429" unicode="&#x429;" horiz-adv-x="1225" 
d="M89 760h157v-628h266v628h157v-628h266v628h157v-628h105v-308h-156v176h-952v760z" />
    <glyph glyph-name="uni042A" unicode="&#x42a;" horiz-adv-x="839" 
d="M248 628h-213v132h366v-259h120q87 0 150.5 -30.5t98 -86.5t34.5 -132q0 -77 -34.5 -134t-98 -87.5t-150.5 -30.5h-273v628zM401 121h95q150 0 150 130q0 63 -38 96.5t-112 33.5h-95v-260z" />
    <glyph glyph-name="uni042B" unicode="&#x42b;" horiz-adv-x="988" 
d="M89 760h153v-259h123q86 0 149.5 -30.5t98 -86.5t34.5 -132q0 -77 -34.5 -134t-98 -87.5t-149.5 -30.5h-276v760zM737 760h162v-760h-162v760zM242 121h97q151 0 151 130q0 63 -38.5 96.5t-112.5 33.5h-97v-260z" />
    <glyph glyph-name="uni042C" unicode="&#x42c;" horiz-adv-x="685" 
d="M89 760h153v-259h125q87 0 150.5 -30.5t98 -86.5t34.5 -132q0 -77 -34.5 -134t-98 -87.5t-150.5 -30.5h-278v760zM242 121h100q151 0 151 130q0 63 -38.5 96.5t-112.5 33.5h-100v-260z" />
    <glyph glyph-name="uni042D" unicode="&#x42d;" horiz-adv-x="761" 
d="M713 377q0 -113 -50 -201t-141.5 -137.5t-214.5 -49.5q-67 0 -133.5 16.5t-117.5 44.5l16 133q52 -27 111.5 -42.5t109.5 -15.5q107 0 175 54t83 149h-350v122h346q-20 86 -86.5 135.5t-164.5 49.5q-101 0 -209 -54l-25 129q46 28 111 44.5t127 16.5q125 0 217.5 -50
t144 -138.5t51.5 -205.5z" />
    <glyph glyph-name="uni042E" unicode="&#x42e;" horiz-adv-x="1198" 
d="M89 760h161v-303h114q17 94 72 165.5t137 112.5t181 41q85 0 157.5 -29t126 -82t83 -125.5t29.5 -159.5q0 -85 -30 -157.5t-84 -126t-126 -83t-156 -29.5q-105 0 -190 43.5t-138.5 121t-65.5 178.5h-110v-327h-161v760zM871.5 160q51.5 32 81 89t29.5 130q0 75 -29.5 132
t-81 89t-117.5 32q-65 0 -117 -32t-82 -88.5t-30 -130.5t30 -131.5t82 -89.5t117 -32q66 0 117.5 32z" />
    <glyph glyph-name="uni042F" unicode="&#x42f;" horiz-adv-x="730" 
d="M642 0h-154v266h-111h-4l-165 -266h-180l202 296q-63 29 -100 85t-37 133t38 132t101 84.5t138 29.5h272v-760zM250 513q0 -127 148 -127h90v253h-85q-153 0 -153 -126z" />
    <glyph glyph-name="uni0430" unicode="&#x430;" horiz-adv-x="658" 
d="M587 0h-139l-2 76q-52 -92 -170 -92q-68 0 -120.5 34.5t-82.5 95.5t-30 140q0 77 32 138.5t86.5 97.5t121.5 36q53 0 96 -24t67 -67l2 75h139v-510zM449 255q0 62 -36 101.5t-94 39.5q-57 0 -93 -39.5t-36 -101.5t36 -101.5t93 -39.5q58 0 94 39.5t36 101.5z" />
    <glyph glyph-name="uni0431" unicode="&#x431;" horiz-adv-x="657" 
d="M183.5 697.5q69.5 46.5 181.5 58.5q37 4 63 10.5t45 13.5q32 13 53 37l56 -108q-10 -13 -29 -26.5t-36 -21.5q-23 -10 -52 -16t-86 -13q-106 -12 -152.5 -70t-49.5 -174q26 59 77 91t121 32q68 0 122 -34t85.5 -92.5t31.5 -132.5q0 -77 -35 -137.5t-95 -95.5t-137 -35
q-118 0 -192 65t-96 186q-9 51 -9 109q0 134 32 220.5t101.5 133zM243.5 352q-36.5 -39 -36.5 -101q0 -61 37 -100t94 -39q58 0 94 39t36 100q0 62 -36 101t-94 39t-94.5 -39z" />
    <glyph glyph-name="uni0432" unicode="&#x432;" horiz-adv-x="588" 
d="M72 510h251q100 0 149.5 -35t49.5 -98q0 -36 -19.5 -64.5t-60.5 -43.5q50 -12 76 -44.5t26 -76.5q0 -68 -51 -108t-155 -40h-266v510zM316 97q39 0 60.5 15.5t21.5 43.5q0 60 -86 60h-102v-119h106zM303 301q78 0 78 56t-81 56h-90v-112h93z" />
    <glyph glyph-name="uni0433" unicode="&#x433;" horiz-adv-x="469" 
d="M72 510h375v-119h-229v-391h-146v510z" />
    <glyph glyph-name="uni0434.alt" unicode="&#x434;" horiz-adv-x="692" 
d="M581 119h91v-272h-139v153h-381v-153h-138v272h68q18 24 30 52.5t18.5 69t8.5 100.5l8 169h434v-391zM436 392h-158l-4 -89q-3 -65 -14 -109t-28 -75h204v273z" />
    <glyph glyph-name="uni0435" unicode="&#x435;" horiz-adv-x="600" 
d="M342 -16q-93 0 -160 32.5t-103 93.5t-36 144q0 81 33.5 142t93 95.5t136.5 34.5q74 0 128.5 -31t84 -88t29.5 -134q0 -25 -3 -54h-359q10 -63 54 -92.5t119 -29.5q42 0 86 10t81 27l14 -109q-39 -19 -91.5 -30t-106.5 -11zM223.5 392q-30.5 -30 -38.5 -86h227q0 11 -2 20
q-7 46 -35 71t-73 25q-48 0 -78.5 -30z" />
    <glyph glyph-name="uni0436" unicode="&#x436;" horiz-adv-x="862" 
d="M233 267l-193 243h156l162 -216v216h144v-216l162 216h157l-195 -243l232 -267h-168l-188 230v-230h-144v231l-189 -231h-166z" />
    <glyph glyph-name="uni0437" unicode="&#x437;" horiz-adv-x="536" 
d="M60 137q41 -18 86.5 -28t93.5 -10q47 0 73 14.5t26 43.5q0 31 -27.5 44t-85.5 13h-81v91h87q53 0 77.5 12t24.5 41q0 55 -94 55q-43 0 -84.5 -9t-81.5 -24l-15 109q35 16 86.5 26.5t106.5 10.5q104 0 164.5 -41t60.5 -111q0 -43 -24 -73t-64 -42q48 -13 75.5 -44.5
t27.5 -77.5q0 -74 -60.5 -113.5t-175.5 -39.5q-64 0 -119.5 11.5t-90.5 27.5z" />
    <glyph glyph-name="uni0438" unicode="&#x438;" horiz-adv-x="643" 
d="M72 510h143v-310l235 310h122v-510h-144v309l-234 -309h-122v510z" />
    <glyph glyph-name="uni0439" unicode="&#x439;" horiz-adv-x="643" 
d="M72 510h143v-310l235 310h122v-510h-144v309l-234 -309h-122v510zM130 742q0 12 1 15h107v-9t1 -9q2 -35 24 -53.5t57 -18.5q37 0 59 19.5t23 58.5v12h107q1 -3 1 -15q0 -75 -51 -119t-139 -44t-139 44t-51 119z" />
    <glyph glyph-name="uni043A" unicode="&#x43a;" horiz-adv-x="614" 
d="M72 510h146v-213l188 213h168l-223 -241l260 -269h-182l-211 227v-227h-146v510z" />
    <glyph glyph-name="uni043B.alt" unicode="&#x43b;" horiz-adv-x="649" 
d="M578 0h-146v391h-160l-6 -127q-5 -100 -25 -159t-60 -85t-104 -26q-17 0 -33 2t-33 5l7 117q15 -3 30 -3q29 0 45.5 16.5t25 57t12.5 112.5l9 209h438v-510z" />
    <glyph glyph-name="uni043C.alt" unicode="&#x43c;" horiz-adv-x="764" 
d="M84 510h151l149 -281l146 281h150l28 -510h-134l-13 336l-135 -257h-87l-136 254l-13 -333h-134z" />
    <glyph glyph-name="uni043D" unicode="&#x43d;" horiz-adv-x="631" 
d="M72 510h146v-195h195v195h146v-510h-146v198h-195v-198h-146v510z" />
    <glyph glyph-name="uni043E" unicode="&#x43e;" horiz-adv-x="639" 
d="M319 -16q-79 0 -141.5 35.5t-98.5 96.5t-36 139t36.5 139t99 96.5t140.5 35.5q80 0 142 -35.5t98 -96.5t36 -139q0 -77 -36.5 -138.5t-98.5 -97t-141 -35.5zM413 356.5q-36 39.5 -94 39.5q-57 0 -93 -39.5t-36 -101.5t36 -101.5t93 -39.5q58 0 94 39.5t36 101.5
t-36 101.5z" />
    <glyph glyph-name="uni043F" unicode="&#x43f;" horiz-adv-x="628" 
d="M72 510h484v-510h-146v391h-192v-391h-146v510z" />
    <glyph glyph-name="uni0440" unicode="&#x440;" horiz-adv-x="658" 
d="M72 510h136l3 -78q53 94 171 94q68 0 120.5 -34.5t82.5 -95.5t30 -140q0 -77 -32 -138.5t-86 -97.5t-122 -36q-103 0 -157 80v-309h-146v755zM432.5 153.5q36.5 39.5 36.5 101.5t-36.5 101.5t-93.5 39.5t-93.5 -39.5t-36.5 -101.5t36.5 -101.5t93.5 -39.5t93.5 39.5z" />
    <glyph glyph-name="uni0441" unicode="&#x441;" horiz-adv-x="541" 
d="M177.5 489.5q63.5 34.5 146.5 34.5q44 0 89.5 -10.5t76.5 -28.5l-18 -122q-65 31 -134 31q-68 0 -108 -37t-40 -101q0 -65 40.5 -102t112.5 -37q33 0 66.5 7t70.5 23l16 -120q-34 -19 -79.5 -29.5t-91.5 -10.5q-85 0 -148.5 32.5t-98.5 92.5t-35 141q0 80 35.5 141
t99 95.5z" />
    <glyph glyph-name="uni0442" unicode="&#x442;" horiz-adv-x="528" 
d="M191 391h-169v119h483v-119h-168v-391h-146v391z" />
    <glyph glyph-name="uni0443" unicode="&#x443;" horiz-adv-x="595" 
d="M244 -245h-148l133 277l-214 478h160l128 -330l121 330h156z" />
    <glyph glyph-name="uni0444" unicode="&#x444;" horiz-adv-x="825" 
d="M345 -245v228q-141 10 -221.5 81.5t-80.5 188.5q0 78 36.5 136.5t104.5 92.5t161 40v288h135v-288q93 -6 160.5 -40t104 -92.5t36.5 -136.5q0 -117 -80 -188.5t-221 -81.5v-228h-135zM226 358q-43 -38 -43 -105q0 -135 167 -150v300q-81 -7 -124 -45zM642 253
q0 67 -43 105t-124 45v-300q167 15 167 150z" />
    <glyph glyph-name="uni0445" unicode="&#x445;" horiz-adv-x="593" 
d="M570 0h-165l-115 176l-111 -176h-156l190 262l-181 248h165l102 -158l101 158h155l-177 -247z" />
    <glyph glyph-name="uni0446" unicode="&#x446;" horiz-adv-x="658" 
d="M72 510h146v-391h184v391h146v-391h90v-272h-138v153h-428v510z" />
    <glyph glyph-name="uni0447" unicode="&#x447;" horiz-adv-x="585" 
d="M513 0h-141v181q-58 -25 -119 -25q-102 0 -156.5 49t-54.5 142v163h141v-133q0 -54 25 -78.5t76 -24.5q48 0 88 20v216h141v-510z" />
    <glyph glyph-name="uni0448" unicode="&#x448;" horiz-adv-x="900" 
d="M72 510h143v-391h163v391h143v-391h163v391h144v-510h-756v510z" />
    <glyph glyph-name="uni0449" unicode="&#x449;" horiz-adv-x="933" 
d="M72 510h143v-391h161v391h143v-391h160v391h144v-391h90v-272h-139v153h-702v510z" />
    <glyph glyph-name="uni044A" unicode="&#x44a;" horiz-adv-x="655" 
d="M172 391h-151v119h292v-158h96q104 0 160 -46.5t56 -128.5q0 -83 -56.5 -130t-159.5 -47h-237v391zM313 102h78q93 0 93 75q0 35 -24 54t-69 19h-78v-148z" />
    <glyph glyph-name="uni044B" unicode="&#x44b;" horiz-adv-x="811" 
d="M72 510h141v-158h96q104 0 160 -46.5t56 -128.5q0 -83 -56.5 -130t-159.5 -47h-237v510zM593 510h146v-510h-146v510zM213 102h78q93 0 93 75q0 35 -24 54t-69 19h-78v-148z" />
    <glyph glyph-name="uni044C" unicode="&#x44c;" horiz-adv-x="560" 
d="M72 510h141v-158h101q104 0 160 -46.5t56 -128.5q0 -83 -56.5 -130t-159.5 -47h-242v510zM213 102h83q93 0 93 75q0 35 -24 54t-69 19h-83v-148z" />
    <glyph glyph-name="uni044D" unicode="&#x44d;" horiz-adv-x="542" 
d="M498 254q0 -80 -34.5 -140.5t-97 -93.5t-148.5 -33q-48 0 -93.5 10.5t-78.5 27.5l14 109q33 -15 70 -24t71 -9q71 0 112.5 29.5t53.5 82.5h-223v92h221q-13 49 -53 77t-106 28q-34 0 -70.5 -8t-67.5 -24l-16 109q30 17 76 27t90 10q85 0 147.5 -33.5t97.5 -94t35 -142.5z
" />
    <glyph glyph-name="uni044E" unicode="&#x44e;" horiz-adv-x="886" 
d="M72 510h146v-195h90q13 62 50.5 109.5t92.5 74.5t121 27q78 0 139 -35.5t96 -96.5t35 -139q0 -77 -35.5 -138.5t-96.5 -97t-138 -35.5q-68 0 -123.5 27t-92 75.5t-49.5 111.5h-89v-198h-146v510zM661.5 152.5q34.5 38.5 34.5 102.5q0 63 -34.5 102t-89.5 39t-89.5 -39
t-34.5 -102q0 -64 34.5 -102.5t89.5 -38.5t89.5 38.5z" />
    <glyph glyph-name="uni044F" unicode="&#x44f;" horiz-adv-x="593" 
d="M521 0h-141v176h-83l-110 -176h-154l133 194q-48 18 -77 55t-29 93q0 77 57.5 122.5t160.5 45.5h243v-510zM380 273v140h-84q-47 0 -71 -19t-24 -52q0 -32 24 -50.5t71 -18.5h84z" />
    <glyph glyph-name="uni0450" unicode="&#x450;" horiz-adv-x="600" 
d="M342 -16q-93 0 -160 32.5t-103 93.5t-36 144q0 81 33.5 142t93 95.5t136.5 34.5q74 0 128.5 -31t84 -88t29.5 -134q0 -25 -3 -54h-359q10 -63 54 -92.5t119 -29.5q42 0 86 10t81 27l14 -109q-39 -19 -91.5 -30t-106.5 -11zM223.5 392q-30.5 -30 -38.5 -86h227q0 11 -2 20
q-7 46 -35 71t-73 25q-48 0 -78.5 -30zM130 778h161l106 -168h-125z" />
    <glyph glyph-name="uni0451" unicode="&#x451;" horiz-adv-x="600" 
d="M342 -16q-93 0 -160 32.5t-103 93.5t-36 144q0 81 33.5 142t93 95.5t136.5 34.5q74 0 128.5 -31t84 -88t29.5 -134q0 -25 -3 -54h-359q10 -63 54 -92.5t119 -29.5q42 0 86 10t81 27l14 -109q-39 -19 -91.5 -30t-106.5 -11zM223.5 392q-30.5 -30 -38.5 -86h227q0 11 -2 20
q-7 46 -35 71t-73 25q-48 0 -78.5 -30zM116 684q0 31 21 51t53 20q33 0 54 -19.5t21 -51.5q0 -31 -21 -51t-54 -20t-53.5 20t-20.5 51zM337 684q0 31 21 51t53 20q33 0 54 -19.5t21 -51.5q0 -31 -21 -51t-54 -20t-53.5 20t-20.5 51z" />
    <glyph glyph-name="uni0452" unicode="&#x452;" horiz-adv-x="617" 
d="M72 609h-82v89h82v112h146v-112h180v-89h-180v-165q20 39 57 60.5t84 21.5q68 0 112.5 -41.5t66.5 -115t22 -171.5q0 -145 -38 -259.5t-95 -196.5l-152 13q36 52 68 119t51.5 147.5t19.5 174.5q0 106 -25.5 153.5t-75.5 47.5q-43 0 -69 -32t-26 -90v-275h-146v609z" />
    <glyph glyph-name="uni0453" unicode="&#x453;" horiz-adv-x="469" 
d="M72 510h375v-119h-229v-391h-146v510zM267 778h160l-141 -168h-125z" />
    <glyph glyph-name="uni0454" unicode="&#x454;" horiz-adv-x="542" 
d="M176.5 490q63.5 34 147.5 34q44 0 90 -10t76 -27l-16 -109q-31 16 -67.5 24t-70.5 8q-66 0 -106 -28t-53 -77h221v-92h-223q12 -53 53.5 -82.5t112.5 -29.5q35 0 71.5 9t69.5 24l14 -109q-33 -17 -78.5 -27.5t-93.5 -10.5q-85 0 -148.5 32.5t-98 92t-34.5 141.5
q0 81 35 142t98.5 95z" />
    <glyph glyph-name="uni0455" unicode="&#x455;" horiz-adv-x="497" 
d="M58 142q36 -24 81 -37.5t87 -13.5q86 0 86 49q0 23 -18 36t-75 29q-92 25 -130.5 62t-38.5 101q0 74 55.5 116t152.5 42q48 0 96 -11t79 -29l-17 -106q-75 39 -151 39q-75 0 -75 -46q0 -22 19 -35t71 -27q96 -28 136.5 -66t40.5 -103q0 -73 -59.5 -115.5t-163.5 -42.5
q-55 0 -108.5 14t-85.5 36z" />
    <glyph glyph-name="uni0456" unicode="&#x456;" horiz-adv-x="289" 
d="M72 510h146v-510h-146v510zM58 694q0 35 24.5 59t61.5 24t61 -24t24 -59q0 -36 -24 -60t-61 -24t-61.5 24t-24.5 60z" />
    <glyph glyph-name="uni0457" unicode="&#x457;" horiz-adv-x="289" 
d="M72 510h146v-510h-146v510zM-41 684q0 31 21 51t53 20q33 0 54 -19.5t21 -51.5q0 -31 -21 -51t-54 -20t-53.5 20t-20.5 51zM180 684q0 31 21 51t53 20q33 0 54 -19.5t21 -51.5q0 -31 -21 -51t-54 -20t-53.5 20t-20.5 51z" />
    <glyph glyph-name="uni0458.alt" unicode="&#x458;" horiz-adv-x="289" 
d="M218 -33q0 -221 -205 -221q-35 0 -69 7t-54 17l15 120q43 -17 83 -17q43 0 63.5 25t20.5 78v534h146v-543zM58 694q0 35 24.5 59t61.5 24t61 -24t24 -59q0 -36 -24 -60t-61 -24t-61.5 24t-24.5 60z" />
    <glyph glyph-name="uni0459.alt" unicode="&#x459;" horiz-adv-x="906" 
d="M422 391h-150l-6 -127q-5 -100 -25.5 -159.5t-60 -85t-103.5 -25.5q-17 0 -33 2t-33 5l7 117q15 -3 30 -3q29 0 45.5 16.5t25 57t12.5 112.5l9 209h424v-158h95q105 0 161 -46.5t56 -128.5q0 -83 -56.5 -130t-160.5 -47h-237v391zM735 177q0 35 -24 54t-69 19h-78v-148
h78q93 0 93 75z" />
    <glyph glyph-name="uni045A" unicode="&#x45a;" horiz-adv-x="879" 
d="M72 510h146v-187h177v187h141v-172h107q98 0 151.5 -44t53.5 -125t-54 -125t-151 -44h-248v206h-177v-206h-146v510zM536 102h95q35 0 56 18t21 49t-20.5 49t-56.5 18h-95v-134z" />
    <glyph glyph-name="uni045B" unicode="&#x45b;" horiz-adv-x="619" 
d="M72 609h-82v89h82v112h146v-112h180v-89h-180v-166q21 40 61.5 61.5t91.5 21.5q87 0 134 -55.5t47 -160.5v-310h-146v282q0 115 -88 115q-48 0 -74 -32t-26 -91v-274h-146v609z" />
    <glyph glyph-name="uni045C" unicode="&#x45c;" horiz-adv-x="614" 
d="M72 510h146v-213l188 213h168l-223 -241l260 -269h-182l-211 227v-227h-146v510zM308 778h160l-141 -168h-125z" />
    <glyph glyph-name="uni045D" unicode="&#x45d;" horiz-adv-x="643" 
d="M72 510h143v-310l235 310h122v-510h-144v309l-234 -309h-122v510zM149 778h161l106 -168h-125z" />
    <glyph glyph-name="uni045E" unicode="&#x45e;" horiz-adv-x="595" 
d="M244 -245h-148l133 277l-214 478h160l128 -330l121 330h156zM110 742q0 12 1 15h107v-9t1 -9q2 -35 24 -53.5t57 -18.5q37 0 59 19.5t23 58.5v12h107q1 -3 1 -15q0 -75 -51 -119t-139 -44t-139 44t-51 119z" />
    <glyph glyph-name="uni045F" unicode="&#x45f;" horiz-adv-x="626" 
d="M72 510h146v-391h191v391h146v-510h-173v-153h-138v153h-172v510z" />
    <glyph glyph-name="uni0462" unicode="&#x462;" horiz-adv-x="778" 
d="M168 555h-148v119h148v86h153v-86h253v-119h-253v-125h163q78 0 135.5 -27t88.5 -74.5t31 -110.5q0 -66 -31 -115t-88 -76t-136 -27h-316v555zM321 118h139q59 0 90.5 26t31.5 73t-31 73t-91 26h-139v-198z" />
    <glyph glyph-name="uni0463" unicode="&#x463;" horiz-adv-x="644" 
d="M158 407h-137v103h137v300h141v-300h201v-103h-201v-91h116q94 0 146.5 -41.5t52.5 -115.5q0 -71 -53.5 -115t-145.5 -44h-257v407zM299 95h96q81 0 81 64q0 61 -81 61h-96v-125z" />
    <glyph glyph-name="uni0472" unicode="&#x472;" horiz-adv-x="904" 
d="M452 776q87 0 160.5 -29.5t128.5 -83t85 -125.5t30 -158q0 -84 -30.5 -156t-86 -126t-128.5 -84t-159 -30q-87 0 -161 29.5t-128.5 83t-84.5 126t-30 157.5q0 84 30.5 156t86 126t129 84t158.5 30zM646 223q32 47 41 109h-470q9 -62 41 -109t81.5 -73t112.5 -26
q62 0 112 26t82 73zM684 445q-18 86 -80.5 138.5t-151.5 52.5t-151.5 -52.5t-80.5 -138.5h464z" />
    <glyph glyph-name="uni0473" unicode="&#x473;" horiz-adv-x="639" 
d="M319 526q80 0 142 -35.5t98 -96.5t36 -139q0 -77 -36.5 -138.5t-98.5 -97t-141 -35.5t-141.5 35.5t-98.5 96.5t-36 139t36.5 139t99 96.5t140.5 35.5zM461 216h-284q11 -54 49 -86.5t93 -32.5t93 32.5t49 86.5zM409.5 383.5q-37.5 30.5 -90.5 30.5t-90.5 -30.5
t-50.5 -81.5h282q-13 51 -50.5 81.5z" />
    <glyph glyph-name="uni0474" unicode="&#x474;" horiz-adv-x="818" 
d="M20 760h178l194 -589l132 437q26 89 75.5 123.5t136.5 34.5q24 0 44 -2t33 -4l-10 -128q-7 1 -16 1.5t-15 0.5q-37 0 -61.5 -17t-39.5 -59l-196 -558h-168z" />
    <glyph glyph-name="uni0475" unicode="&#x475;" horiz-adv-x="602" 
d="M15 510h162l112 -367l74 243q18 65 58.5 97t110.5 32q15 0 34 -2t29 -4l-6 -121q-4 1 -11 2t-18 1q-55 0 -71 -46l-126 -345h-151z" />
    <glyph glyph-name="uni0490" unicode="&#x490;" horiz-adv-x="623" 
d="M89 760h343v143h156v-275h-338v-628h-161v760z" />
    <glyph glyph-name="uni0491" unicode="&#x491;" horiz-adv-x="469" 
d="M72 510h236v133h139v-252h-229v-391h-146v510z" />
    <glyph glyph-name="uni1E24" unicode="&#x1e24;" horiz-adv-x="854" 
d="M89 760h161v-303h354v303h161v-760h-161v327h-354v-327h-161v760zM427 -53q38 0 61.5 -23t23.5 -59t-23.5 -58.5t-61.5 -22.5t-61.5 22t-23.5 59q0 36 24 59t61 23z" />
    <glyph glyph-name="uni1E25" unicode="&#x1e25;" horiz-adv-x="619" 
d="M72 810h146v-367q21 40 61.5 61.5t91.5 21.5q87 0 134 -55.5t47 -160.5v-310h-146v282q0 115 -88 115q-48 0 -74 -32t-26 -91v-274h-146v810zM299 -53q37 0 59.5 -22t22.5 -57q0 -34 -22.5 -56t-59.5 -22t-59 21.5t-22 56.5t22.5 57t58.5 22z" />
    <glyph glyph-name="uni1E36" unicode="&#x1e36;" horiz-adv-x="626" 
d="M89 760h161v-628h341v-132h-502v760zM342 -53q38 0 61.5 -23t23.5 -59t-23.5 -58.5t-61.5 -22.5t-61.5 22t-23.5 59q0 36 24 59t61 23z" />
    <glyph glyph-name="uni1E37" unicode="&#x1e37;" horiz-adv-x="289" 
d="M72 810h146v-810h-146v810zM144 -53q37 0 59.5 -22t22.5 -57q0 -34 -22.5 -56t-59.5 -22t-59 21.5t-22 56.5t22.5 57t58.5 22z" />
    <glyph glyph-name="Wgrave" unicode="&#x1e80;" horiz-adv-x="1128" 
d="M23 760h169l141 -567l161 557h143l162 -550l139 560h167l-227 -760h-153l-163 546l-158 -546h-154zM377 980h175l114 -145h-136z" />
    <glyph glyph-name="wgrave" unicode="&#x1e81;" horiz-adv-x="861" 
d="M20 510h153l89 -354l105 354h122l112 -355l88 355h151l-169 -510h-131l-114 336l-108 -336h-128zM259 778h161l106 -168h-125z" />
    <glyph glyph-name="Wacute" unicode="&#x1e82;" horiz-adv-x="1128" 
d="M23 760h169l141 -567l161 557h143l162 -550l139 560h167l-227 -760h-153l-163 546l-158 -546h-154zM574 980h175l-153 -145h-137z" />
    <glyph glyph-name="wacute" unicode="&#x1e83;" horiz-adv-x="861" 
d="M20 510h153l89 -354l105 354h122l112 -355l88 355h151l-169 -510h-131l-114 336l-108 -336h-128zM441 778h160l-141 -168h-125z" />
    <glyph glyph-name="Wdieresis" unicode="&#x1e84;" horiz-adv-x="1128" 
d="M23 760h169l141 -567l161 557h143l162 -550l139 560h167l-227 -760h-153l-163 546l-158 -546h-154zM676 978q34 0 55.5 -20.5t21.5 -52.5t-21.5 -52t-55.5 -20t-55 20t-21 52t21.5 52.5t54.5 20.5zM451 978q34 0 55.5 -20.5t21.5 -52.5t-21.5 -52t-55.5 -20
q-33 0 -54.5 20t-21.5 52t21.5 52.5t54.5 20.5z" />
    <glyph glyph-name="wdieresis" unicode="&#x1e85;" horiz-adv-x="861" 
d="M20 510h153l89 -354l105 354h122l112 -355l88 355h151l-169 -510h-131l-114 336l-108 -336h-128zM245 684q0 31 21 51t53 20q33 0 54 -19.5t21 -51.5q0 -31 -21 -51t-54 -20t-53.5 20t-20.5 51zM466 684q0 31 21 51t53 20q33 0 54 -19.5t21 -51.5q0 -31 -21 -51t-54 -20
t-53.5 20t-20.5 51z" />
    <glyph glyph-name="uni1E9E" unicode="&#x1e9e;" horiz-adv-x="795" 
d="M84 431q0 163 87 254t242 91q77 0 150 -26t125 -71v-92l-118 -148q81 -17 129.5 -77t48.5 -143q0 -70 -33 -123t-91.5 -82.5t-137.5 -29.5q-47 0 -92.5 11.5t-77.5 31.5l14 124q29 -19 65.5 -29t73.5 -10q62 0 97 31.5t35 86.5q0 53 -35 83t-96 30q-21 0 -43 -5l-31 75
l150 191q-27 19 -61 29.5t-69 10.5q-88 0 -135.5 -58t-47.5 -168v-418h-149v431z" />
    <glyph glyph-name="Ygrave" unicode="&#x1ef2;" horiz-adv-x="738" 
d="M448 315v-315h-159v316l-279 444h179l183 -328l183 328h172zM182 980h175l114 -145h-136z" />
    <glyph glyph-name="ygrave" unicode="&#x1ef3;" horiz-adv-x="595" 
d="M244 -245h-148l133 277l-214 478h160l128 -330l121 330h156zM129 778h161l106 -168h-125z" />
    <glyph glyph-name="uni2000" unicode="&#x2000;" horiz-adv-x="500" 
 />
    <glyph glyph-name="uni2001" unicode="&#x2001;" horiz-adv-x="1000" 
 />
    <glyph glyph-name="uni2002" unicode="&#x2002;" horiz-adv-x="500" 
 />
    <glyph glyph-name="uni2003" unicode="&#x2003;" horiz-adv-x="1000" 
 />
    <glyph glyph-name="uni2004" unicode="&#x2004;" horiz-adv-x="333" 
 />
    <glyph glyph-name="uni2005" unicode="&#x2005;" horiz-adv-x="250" 
 />
    <glyph glyph-name="uni2006" unicode="&#x2006;" horiz-adv-x="166" 
 />
    <glyph glyph-name="uni2007" unicode="&#x2007;" horiz-adv-x="620" 
 />
    <glyph glyph-name="uni2008" unicode="&#x2008;" horiz-adv-x="300" 
 />
    <glyph glyph-name="uni2009" unicode="&#x2009;" horiz-adv-x="200" 
 />
    <glyph glyph-name="uni200A" unicode="&#x200a;" horiz-adv-x="55" 
 />
    <glyph glyph-name="uni200B" unicode="&#x200b;" 
 />
    <glyph glyph-name="uni2010" unicode="&#x2010;" horiz-adv-x="428" 
d="M59 350h310v-125h-310v125z" />
    <glyph glyph-name="uni2011" unicode="&#x2011;" horiz-adv-x="428" 
d="M59 350h310v-125h-310v125z" />
    <glyph glyph-name="figuredash" unicode="&#x2012;" horiz-adv-x="500" 
d="M0 344h500v-112h-500v112z" />
    <glyph glyph-name="endash" unicode="&#x2013;" horiz-adv-x="500" 
d="M0 344h500v-112h-500v112z" />
    <glyph glyph-name="emdash" unicode="&#x2014;" horiz-adv-x="1000" 
d="M0 344h1000v-112h-1000v112z" />
    <glyph glyph-name="uni2015" unicode="&#x2015;" horiz-adv-x="1000" 
d="M0 344h1000v-112h-1000v112z" />
    <glyph glyph-name="quoteleft" unicode="&#x2018;" horiz-adv-x="231" 
d="M103 760h108q-41 -115 -41 -250h-135q2 66 20.5 133.5t47.5 116.5z" />
    <glyph glyph-name="quoteright" unicode="&#x2019;" horiz-adv-x="231" 
d="M128 510h-108q20 57 31 121t11 129h134q-1 -66 -19.5 -133t-48.5 -117z" />
    <glyph glyph-name="quotesinglbase" unicode="&#x201a;" horiz-adv-x="231" 
d="M128 -127h-108q20 57 31 121t11 129h134q-1 -66 -19.5 -133t-48.5 -117z" />
    <glyph glyph-name="quotedblleft" unicode="&#x201c;" horiz-adv-x="434" 
d="M103 760h108q-41 -115 -41 -250h-135q2 66 20.5 133.5t47.5 116.5zM306 760h108q-41 -115 -41 -250h-135q2 66 20.5 133.5t47.5 116.5z" />
    <glyph glyph-name="quotedblright" unicode="&#x201d;" horiz-adv-x="434" 
d="M128 510h-108q20 57 31 121t11 129h134q-1 -66 -19.5 -133t-48.5 -117zM331 510h-108q20 57 31 121t11 129h134q-1 -66 -19.5 -133t-48.5 -117z" />
    <glyph glyph-name="quotedblbase" unicode="&#x201e;" horiz-adv-x="434" 
d="M128 -127h-108q20 57 31 121t11 129h134q-1 -66 -19.5 -133t-48.5 -117zM331 -127h-108q20 57 31 121t11 129h134q-1 -66 -19.5 -133t-48.5 -117z" />
    <glyph glyph-name="dagger" unicode="&#x2020;" horiz-adv-x="526" 
d="M336 -130h-145v555h-155v116h155v219h145v-219h155v-116h-155v-555z" />
    <glyph glyph-name="daggerdbl" unicode="&#x2021;" horiz-adv-x="526" 
d="M191 436h-155v116h155v208h145v-208h155v-116h-155v-243h155v-116h-155v-207h-145v207h-155v116h155v243z" />
    <glyph glyph-name="bullet" unicode="&#x2022;" horiz-adv-x="358" 
d="M48 273q0 37 17.5 66.5t47.5 47t66 17.5q37 0 66.5 -17.5t47.5 -47t18 -66.5q0 -36 -18 -66t-47.5 -47.5t-66.5 -17.5q-36 0 -66 17.5t-47.5 47.5t-17.5 66z" />
    <glyph glyph-name="ellipsis" unicode="&#x2026;" horiz-adv-x="1000" 
d="M166 163q39 0 64 -24t25 -61t-25 -60.5t-64 -23.5t-63.5 23.5t-24.5 60.5t24.5 61t63.5 24zM499 163q39 0 64 -24t25 -61t-25 -60.5t-64 -23.5t-63.5 23.5t-24.5 60.5t24.5 61t63.5 24zM833 163q39 0 64 -24t25 -61t-25 -60.5t-64 -23.5t-63.5 23.5t-24.5 60.5t24.5 61
t63.5 24z" />
    <glyph glyph-name="perthousand" unicode="&#x2030;" horiz-adv-x="1421" 
d="M691 744h122l-524 -744h-123zM729 -13q-56 0 -100.5 25t-70.5 69t-26 99t26 98.5t70.5 68.5t100.5 25q57 0 101.5 -25t70.5 -68.5t26 -98.5t-26 -99t-70.5 -69t-101.5 -25zM792.5 248q-23.5 26 -63.5 26q-39 0 -63 -26t-24 -68q0 -43 24 -69t63 -26q40 0 63.5 26t23.5 69
q0 42 -23.5 68zM1169 -13q-56 0 -100.5 25t-70.5 69t-26 99t26 98.5t70.5 68.5t100.5 25q57 0 101.5 -25t70.5 -68.5t26 -98.5t-26 -99t-70.5 -69t-101.5 -25zM1232.5 248q-23.5 26 -63.5 26q-39 0 -63 -26t-24 -68q0 -43 24 -69t63 -26q40 0 63.5 26t23.5 69q0 42 -23.5 68
zM252 375q-56 0 -100.5 25t-70.5 69t-26 99t26 98.5t70.5 68.5t100.5 25q57 0 101.5 -25t70.5 -68.5t26 -98.5t-26 -99t-70.5 -69t-101.5 -25zM315.5 636q-23.5 26 -63.5 26q-39 0 -63 -26t-24 -68q0 -43 24 -69t63 -26q40 0 63.5 26t23.5 69q0 42 -23.5 68z" />
    <glyph glyph-name="minute" unicode="&#x2032;" horiz-adv-x="218" 
d="M60 760h142l-69 -291h-115z" />
    <glyph glyph-name="second" unicode="&#x2033;" horiz-adv-x="421" 
d="M60 760h142l-69 -291h-115zM262 760h142l-69 -291h-115z" />
    <glyph glyph-name="guilsinglleft" unicode="&#x2039;" horiz-adv-x="368" 
d="M28 257l149 220h158l-153 -220l153 -220h-158z" />
    <glyph glyph-name="guilsinglright" unicode="&#x203a;" horiz-adv-x="368" 
d="M186 257l-153 220h158l149 -220l-149 -220h-158z" />
    <glyph glyph-name="fraction" unicode="&#x2044;" horiz-adv-x="181" 
d="M292 744h122l-524 -744h-123z" />
    <glyph glyph-name="uni2070" unicode="&#x2070;" horiz-adv-x="392" 
d="M23 722q14 72 59 112t114 40q83 0 131 -57t48 -157q0 -33 -6 -62q-13 -72 -58.5 -112t-114.5 -40q-83 0 -130.5 57t-47.5 157q0 17 1.5 32.5t3.5 29.5zM129 660q0 -121 67 -121q47 0 62 64q2 12 3.5 26.5t1.5 30.5q0 121 -67 121q-47 0 -61 -64q-6 -24 -6 -57z" />
    <glyph glyph-name="uni2074" unicode="&#x2074;" horiz-adv-x="392" 
d="M315 620h47v-81h-47v-83h-96v83h-196v83l181 242h111v-244zM219 620v136l-102 -136h102z" />
    <glyph glyph-name="uni2075" unicode="&#x2075;" horiz-adv-x="392" 
d="M74 864h250v-87h-160l-2 -62q16 2 31 2q74 0 115.5 -34t41.5 -96q0 -66 -47 -103.5t-129 -37.5q-39 0 -74 7.5t-52 19.5l9 87q45 -28 106 -28q79 0 79 55q0 50 -78 50q-52 0 -99 -9z" />
    <glyph glyph-name="uni2076" unicode="&#x2076;" horiz-adv-x="392" 
d="M187 866l129 -3q-42 -31 -81.5 -71.5t-65.5 -80.5q24 14 56 14q59 0 97 -38t38 -94q0 -65 -45.5 -106t-119.5 -41q-73 0 -118.5 42.5t-45.5 109.5q0 65 42 137.5t114 130.5zM196 649q-28 0 -45.5 -17t-17.5 -43q0 -25 17.5 -42t45.5 -17q27 0 44.5 17t17.5 42
q0 26 -17.5 43t-44.5 17z" />
    <glyph glyph-name="uni2077" unicode="&#x2077;" horiz-adv-x="392" 
d="M192 454l-115 3l156 311h-187v96h303v-86z" />
    <glyph glyph-name="uni2078" unicode="&#x2078;" horiz-adv-x="392" 
d="M307.5 842q42.5 -32 42.5 -85q0 -59 -52 -87q30 -13 47.5 -39.5t17.5 -58.5q0 -58 -44.5 -92t-122.5 -34q-77 0 -122 34t-45 92q0 33 18 59t49 39q-54 27 -54 87q0 53 43 85t111 32q69 0 111.5 -32zM151 539.5q17 -14.5 45 -14.5q29 0 45.5 14.5t16.5 38.5t-17 38.5
t-45 14.5t-45 -14.5t-17 -38.5t17 -38.5zM156.5 715q14.5 -13 39.5 -13t40 13t15 35t-15 35t-40 13t-39.5 -13t-14.5 -35t14.5 -35z" />
    <glyph glyph-name="uni2079" unicode="&#x2079;" horiz-adv-x="392" 
d="M204 454l-128 3q42 31 82 72t65 80q-24 -14 -56 -14q-39 0 -69.5 17.5t-48.5 47.5t-18 67q0 65 46 106t119 41q74 0 119 -42t45 -110q0 -65 -42 -137t-114 -131zM151.5 773.5q-17.5 -16.5 -17.5 -42.5q0 -25 17.5 -42.5t44.5 -17.5q28 0 45.5 17t17.5 43t-17.5 42.5
t-45.5 16.5q-27 0 -44.5 -16.5z" />
    <glyph glyph-name="uni2080" unicode="&#x2080;" horiz-adv-x="392" 
d="M23 140q14 72 59 112t114 40q83 0 131 -57t48 -157q0 -33 -6 -62q-13 -72 -58.5 -112t-114.5 -40q-83 0 -130.5 57t-47.5 157q0 17 1.5 32.5t3.5 29.5zM129 78q0 -121 67 -121q47 0 62 64q2 12 3.5 26.5t1.5 30.5q0 121 -67 121q-47 0 -61 -64q-6 -24 -6 -57z" />
    <glyph glyph-name="uni2081" unicode="&#x2081;" horiz-adv-x="392" 
d="M283 -126h-110v300l-105 -48l-15 95l134 61h96v-408z" />
    <glyph glyph-name="uni2082" unicode="&#x2082;" horiz-adv-x="392" 
d="M346 -126h-304v89q31 21 62 46.5t53 46.5q36 35 51 57.5t15 44.5q0 20 -15 32t-41 12q-54 0 -104 -49l-19 86q23 24 62.5 38.5t79.5 14.5q66 0 106.5 -33t40.5 -88q0 -80 -95 -163q-13 -12 -25.5 -22.5t-25.5 -20.5h159v-91z" />
    <glyph glyph-name="uni2083" unicode="&#x2083;" horiz-adv-x="392" 
d="M208 196h-156v86h275v-80l-94 -85q50 -6 80 -38t30 -78q0 -62 -48 -99.5t-128 -37.5t-126 27l9 86q24 -13 53.5 -20t57.5 -7q35 0 54.5 14.5t19.5 39.5q0 22 -18.5 34.5t-50.5 12.5q-23 0 -41 -6l-23 55z" />
    <glyph glyph-name="uni2084" unicode="&#x2084;" horiz-adv-x="392" 
d="M315 38h47v-81h-47v-83h-96v83h-196v83l181 242h111v-244zM219 38v136l-102 -136h102z" />
    <glyph glyph-name="uni2085" unicode="&#x2085;" horiz-adv-x="392" 
d="M74 282h250v-87h-160l-2 -62q16 2 31 2q74 0 115.5 -34t41.5 -96q0 -66 -47 -103.5t-129 -37.5q-39 0 -74 7.5t-52 19.5l9 87q45 -28 106 -28q79 0 79 55q0 50 -78 50q-52 0 -99 -9z" />
    <glyph glyph-name="uni2086" unicode="&#x2086;" horiz-adv-x="392" 
d="M187 284l129 -3q-42 -31 -81.5 -71.5t-65.5 -80.5q24 14 56 14q59 0 97 -38t38 -94q0 -65 -45.5 -106t-119.5 -41q-73 0 -118.5 42.5t-45.5 109.5q0 65 42 137.5t114 130.5zM196 67q-28 0 -45.5 -17t-17.5 -43q0 -25 17.5 -42t45.5 -17q27 0 44.5 17t17.5 42
q0 26 -17.5 43t-44.5 17z" />
    <glyph glyph-name="uni2087" unicode="&#x2087;" horiz-adv-x="392" 
d="M192 -128l-115 3l156 311h-187v96h303v-86z" />
    <glyph glyph-name="uni2088" unicode="&#x2088;" horiz-adv-x="392" 
d="M307.5 260q42.5 -32 42.5 -85q0 -59 -52 -87q30 -13 47.5 -39.5t17.5 -58.5q0 -58 -44.5 -92t-122.5 -34q-77 0 -122 34t-45 92q0 33 18 59t49 39q-54 27 -54 87q0 53 43 85t111 32q69 0 111.5 -32zM151 -42.5q17 -14.5 45 -14.5q29 0 45.5 14.5t16.5 38.5t-17 38.5
t-45 14.5t-45 -14.5t-17 -38.5t17 -38.5zM156.5 133q14.5 -13 39.5 -13t40 13t15 35t-15 35t-40 13t-39.5 -13t-14.5 -35t14.5 -35z" />
    <glyph glyph-name="uni2089" unicode="&#x2089;" horiz-adv-x="392" 
d="M204 -128l-128 3q42 31 82 72t65 80q-24 -14 -56 -14q-39 0 -69.5 17.5t-48.5 47.5t-18 67q0 65 46 106t119 41q74 0 119 -42t45 -110q0 -65 -42 -137t-114 -131zM151.5 191.5q-17.5 -16.5 -17.5 -42.5q0 -25 17.5 -42.5t44.5 -17.5q28 0 45.5 17t17.5 43t-17.5 42.5
t-45.5 16.5q-27 0 -44.5 -16.5z" />
    <glyph glyph-name="Euro" unicode="&#x20ac;" horiz-adv-x="620" 
d="M131 242h-104v87h93q-1 19 -1 38q0 24 2 48h-94v87h107q19 77 60 135t104 90.5t147 32.5q53 0 94 -10t75 -27l-20 -117q-32 16 -66.5 24t-73.5 8q-71 0 -113 -37t-60 -99h243v-87h-258q-2 -21 -2 -44q0 -22 1 -42h259v-87h-244q20 -66 65.5 -101t119.5 -35q31 0 68 8.5
t73 25.5l16 -117q-38 -21 -82 -30t-93 -9q-135 0 -213 70t-103 188z" />
    <glyph glyph-name="uni20B4" unicode="&#x20b4;" horiz-adv-x="620" 
d="M542 33q-78 -49 -202 -49q-126 0 -198 51.5t-72 139.5q0 47 17 79h-62v86h130q39 32 112 74h-242v86h353q24 27 24 56q0 37 -29.5 58t-81.5 21q-37 0 -78.5 -11t-79.5 -31l-21 119q41 22 94.5 35t108.5 13q107 0 169 -48.5t62 -131.5q0 -46 -16 -80h62v-86h-130
q-41 -33 -109 -72l-3 -2h242v-86h-357q-18 -25 -18 -55q0 -41 37 -65.5t101 -24.5q93 0 168 48z" />
    <glyph glyph-name="uni20B9" unicode="&#x20b9;" horiz-adv-x="620" 
d="M519 0h-194l-266 269v84h131q135 0 163 102h-294v93h296q-23 103 -157 103h-139v93h529v-93h-144q46 -39 59 -103h85v-93h-83q-13 -87 -79.5 -137.5t-178.5 -57.5z" />
    <glyph glyph-name="uni20BA" unicode="&#x20ba;" horiz-adv-x="620" 
d="M111 260l-95 -42v89l95 43v81l-95 -42v89l95 43v223h141v-160l181 80v-89l-181 -80v-82l181 80v-89l-181 -80v-218q181 13 209 228l129 -6q-10 -166 -106 -255t-269 -89q-60 0 -104 10v266z" />
    <glyph glyph-name="uni20BD" unicode="&#x20bd;" horiz-adv-x="620" 
d="M111 0v134h-89v93h89v70h-89v99h89v348h206q84 0 144.5 -27.5t93 -77.5t32.5 -117q0 -103 -72 -164t-198 -61h-71v-70h195v-93h-195v-134h-135zM303 636h-57v-240h57q71 0 107 31t36 89t-36.5 89t-106.5 31z" />
    <glyph glyph-name="uni2116" unicode="&#x2116;" horiz-adv-x="1332" 
d="M89 760h141l387 -525v525h146v-760h-141l-386 523v-523h-147v760zM904 573q0 54 25 96.5t69 66.5t99 24t98.5 -24t69 -66.5t25.5 -96.5t-25.5 -96t-69 -66.5t-98.5 -24.5t-99 24.5t-69 66.5t-25 96zM916 220v98h361v-98h-361zM1018 573q0 -38 21.5 -62t56.5 -24
q36 0 58 24t22 62q0 39 -21.5 63t-56.5 24q-36 0 -58 -24t-22 -63z" />
    <glyph glyph-name="trademark" unicode="&#x2122;" horiz-adv-x="856" 
d="M398 760h109l89 -202l92 202h108l23 -370h-96l-12 236l-77 -173h-74l-77 171l-11 -234h-96zM116 675h-105v85h317v-85h-105v-285h-107v285z" />
    <glyph glyph-name="Omega" unicode="&#x2126;" horiz-adv-x="926" 
d="M72 416q0 78 29 143.5t82 114t124.5 75.5t155.5 27q86 0 157.5 -26.5t124 -74.5t81 -114t28.5 -145q0 -90 -37 -163.5t-107 -121.5h143v-131h-329v126q78 41 120.5 112t42.5 160q0 70 -28.5 122.5t-78.5 82.5t-117 30q-66 0 -116.5 -30t-79 -82.5t-28.5 -122.5
q0 -89 42.5 -160t120.5 -112v-126h-329v131h142q-69 48 -106 121.5t-37 163.5z" />
    <glyph glyph-name="uni2150" unicode="&#x2150;" horiz-adv-x="966" 
d="M654 744h122l-524 -744h-123zM765 -2l-115 3l156 311h-187v96h303v-86zM283 336h-110v300l-105 -48l-15 95l134 61h96v-408z" />
    <glyph glyph-name="uni2151" unicode="&#x2151;" horiz-adv-x="966" 
d="M680 744h122l-524 -744h-123zM777 -2l-128 3q42 31 82 72t65 80q-24 -14 -56 -14q-39 0 -69.5 17.5t-48.5 47.5t-18 67q0 65 46 106t119 41q74 0 119 -42t45 -110q0 -65 -42 -137t-114 -131zM724.5 317.5q-17.5 -16.5 -17.5 -42.5q0 -25 17.5 -42.5t44.5 -17.5
q28 0 45.5 17t17.5 43t-17.5 42.5t-45.5 16.5q-27 0 -44.5 -16.5zM283 336h-110v300l-105 -48l-15 95l134 61h96v-408z" />
    <glyph glyph-name="onethird" unicode="&#x2153;" horiz-adv-x="966" 
d="M663 744h122l-524 -744h-123zM781 322h-156v86h275v-80l-94 -85q50 -6 80 -38t30 -78q0 -62 -48 -99.5t-128 -37.5t-126 27l9 86q24 -13 53.5 -20t57.5 -7q35 0 54.5 14.5t19.5 39.5q0 22 -18.5 34.5t-50.5 12.5q-23 0 -41 -6l-23 55zM283 336h-110v300l-105 -48l-15 95
l134 61h96v-408z" />
    <glyph glyph-name="twothirds" unicode="&#x2154;" horiz-adv-x="966" 
d="M687 744h122l-524 -744h-123zM781 322h-156v86h275v-80l-94 -85q50 -6 80 -38t30 -78q0 -62 -48 -99.5t-128 -37.5t-126 27l9 86q24 -13 53.5 -20t57.5 -7q35 0 54.5 14.5t19.5 39.5q0 22 -18.5 34.5t-50.5 12.5q-23 0 -41 -6l-23 55zM346 336h-304v89q31 21 62 46.5
t53 46.5q36 35 51 57.5t15 44.5q0 20 -15 32t-41 12q-54 0 -104 -49l-19 86q23 24 62.5 38.5t79.5 14.5q66 0 106.5 -33t40.5 -88q0 -80 -95 -163q-13 -12 -25.5 -22.5t-25.5 -20.5h159v-91z" />
    <glyph glyph-name="uni2155" unicode="&#x2155;" horiz-adv-x="966" 
d="M669 744h122l-524 -744h-123zM647 408h250v-87h-160l-2 -62q16 2 31 2q74 0 115.5 -34t41.5 -96q0 -66 -47 -103.5t-129 -37.5q-39 0 -74 7.5t-52 19.5l9 87q45 -28 106 -28q79 0 79 55q0 50 -78 50q-52 0 -99 -9zM283 336h-110v300l-105 -48l-15 95l134 61h96v-408z" />
    <glyph glyph-name="uni2156" unicode="&#x2156;" horiz-adv-x="966" 
d="M695 744h122l-524 -744h-123zM647 408h250v-87h-160l-2 -62q16 2 31 2q74 0 115.5 -34t41.5 -96q0 -66 -47 -103.5t-129 -37.5q-39 0 -74 7.5t-52 19.5l9 87q45 -28 106 -28q79 0 79 55q0 50 -78 50q-52 0 -99 -9zM346 336h-304v89q31 21 62 46.5t53 46.5q36 35 51 57.5
t15 44.5q0 20 -15 32t-41 12q-54 0 -104 -49l-19 86q23 24 62.5 38.5t79.5 14.5q66 0 106.5 -33t40.5 -88q0 -80 -95 -163q-13 -12 -25.5 -22.5t-25.5 -20.5h159v-91z" />
    <glyph glyph-name="uni2157" unicode="&#x2157;" horiz-adv-x="966" 
d="M670 744h122l-524 -744h-123zM647 408h250v-87h-160l-2 -62q16 2 31 2q74 0 115.5 -34t41.5 -96q0 -66 -47 -103.5t-129 -37.5q-39 0 -74 7.5t-52 19.5l9 87q45 -28 106 -28q79 0 79 55q0 50 -78 50q-52 0 -99 -9zM208 658h-156v86h275v-80l-94 -85q50 -6 80 -38t30 -78
q0 -62 -48 -99.5t-128 -37.5t-126 27l9 86q24 -13 53.5 -20t57.5 -7q35 0 54.5 14.5t19.5 39.5q0 22 -18.5 34.5t-50.5 12.5q-23 0 -41 -6l-23 55z" />
    <glyph glyph-name="uni2158" unicode="&#x2158;" horiz-adv-x="966" 
d="M687 744h122l-524 -744h-123zM647 408h250v-87h-160l-2 -62q16 2 31 2q74 0 115.5 -34t41.5 -96q0 -66 -47 -103.5t-129 -37.5q-39 0 -74 7.5t-52 19.5l9 87q45 -28 106 -28q79 0 79 55q0 50 -78 50q-52 0 -99 -9zM315 500h47v-81h-47v-83h-96v83h-196v83l181 242h111
v-244zM219 500v136l-102 -136h102z" />
    <glyph glyph-name="uni2159" unicode="&#x2159;" horiz-adv-x="966" 
d="M696 744h122l-524 -744h-123zM760 410l129 -3q-42 -31 -81.5 -71.5t-65.5 -80.5q24 14 56 14q59 0 97 -38t38 -94q0 -65 -45.5 -106t-119.5 -41q-73 0 -118.5 42.5t-45.5 109.5q0 65 42 137.5t114 130.5zM769 193q-28 0 -45.5 -17t-17.5 -43q0 -25 17.5 -42t45.5 -17
q27 0 44.5 17t17.5 42q0 26 -17.5 43t-44.5 17zM283 336h-110v300l-105 -48l-15 95l134 61h96v-408z" />
    <glyph glyph-name="uni215A" unicode="&#x215a;" horiz-adv-x="966" 
d="M701 744h122l-524 -744h-123zM760 410l129 -3q-42 -31 -81.5 -71.5t-65.5 -80.5q24 14 56 14q59 0 97 -38t38 -94q0 -65 -45.5 -106t-119.5 -41q-73 0 -118.5 42.5t-45.5 109.5q0 65 42 137.5t114 130.5zM769 193q-28 0 -45.5 -17t-17.5 -43q0 -25 17.5 -42t45.5 -17
q27 0 44.5 17t17.5 42q0 26 -17.5 43t-44.5 17zM74 744h250v-87h-160l-2 -62q16 2 31 2q74 0 115.5 -34t41.5 -96q0 -66 -47 -103.5t-129 -37.5q-39 0 -74 7.5t-52 19.5l9 87q45 -28 106 -28q79 0 79 55q0 50 -78 50q-52 0 -99 -9z" />
    <glyph glyph-name="oneeighth" unicode="&#x215b;" horiz-adv-x="966" 
d="M673 744h122l-524 -744h-123zM880.5 386q42.5 -32 42.5 -85q0 -59 -52 -87q30 -13 47.5 -39.5t17.5 -58.5q0 -58 -44.5 -92t-122.5 -34q-77 0 -122 34t-45 92q0 33 18 59t49 39q-54 27 -54 87q0 53 43 85t111 32q69 0 111.5 -32zM724 83.5q17 -14.5 45 -14.5
q29 0 45.5 14.5t16.5 38.5t-17 38.5t-45 14.5t-45 -14.5t-17 -38.5t17 -38.5zM729.5 259q14.5 -13 39.5 -13t40 13t15 35t-15 35t-40 13t-39.5 -13t-14.5 -35t14.5 -35zM283 336h-110v300l-105 -48l-15 95l134 61h96v-408z" />
    <glyph glyph-name="threeeighths" unicode="&#x215c;" horiz-adv-x="966" 
d="M674 744h122l-524 -744h-123zM880.5 386q42.5 -32 42.5 -85q0 -59 -52 -87q30 -13 47.5 -39.5t17.5 -58.5q0 -58 -44.5 -92t-122.5 -34q-77 0 -122 34t-45 92q0 33 18 59t49 39q-54 27 -54 87q0 53 43 85t111 32q69 0 111.5 -32zM724 83.5q17 -14.5 45 -14.5
q29 0 45.5 14.5t16.5 38.5t-17 38.5t-45 14.5t-45 -14.5t-17 -38.5t17 -38.5zM729.5 259q14.5 -13 39.5 -13t40 13t15 35t-15 35t-40 13t-39.5 -13t-14.5 -35t14.5 -35zM208 658h-156v86h275v-80l-94 -85q50 -6 80 -38t30 -78q0 -62 -48 -99.5t-128 -37.5t-126 27l9 86
q24 -13 53.5 -20t57.5 -7q35 0 54.5 14.5t19.5 39.5q0 22 -18.5 34.5t-50.5 12.5q-23 0 -41 -6l-23 55z" />
    <glyph glyph-name="fiveeighths" unicode="&#x215d;" horiz-adv-x="966" 
d="M681 744h122l-524 -744h-123zM880.5 386q42.5 -32 42.5 -85q0 -59 -52 -87q30 -13 47.5 -39.5t17.5 -58.5q0 -58 -44.5 -92t-122.5 -34q-77 0 -122 34t-45 92q0 33 18 59t49 39q-54 27 -54 87q0 53 43 85t111 32q69 0 111.5 -32zM724 83.5q17 -14.5 45 -14.5
q29 0 45.5 14.5t16.5 38.5t-17 38.5t-45 14.5t-45 -14.5t-17 -38.5t17 -38.5zM729.5 259q14.5 -13 39.5 -13t40 13t15 35t-15 35t-40 13t-39.5 -13t-14.5 -35t14.5 -35zM74 744h250v-87h-160l-2 -62q16 2 31 2q74 0 115.5 -34t41.5 -96q0 -66 -47 -103.5t-129 -37.5
q-39 0 -74 7.5t-52 19.5l9 87q45 -28 106 -28q79 0 79 55q0 50 -78 50q-52 0 -99 -9z" />
    <glyph glyph-name="seveneighths" unicode="&#x215e;" horiz-adv-x="966" 
d="M640 744h122l-524 -744h-123zM880.5 386q42.5 -32 42.5 -85q0 -59 -52 -87q30 -13 47.5 -39.5t17.5 -58.5q0 -58 -44.5 -92t-122.5 -34q-77 0 -122 34t-45 92q0 33 18 59t49 39q-54 27 -54 87q0 53 43 85t111 32q69 0 111.5 -32zM724 83.5q17 -14.5 45 -14.5
q29 0 45.5 14.5t16.5 38.5t-17 38.5t-45 14.5t-45 -14.5t-17 -38.5t17 -38.5zM729.5 259q14.5 -13 39.5 -13t40 13t15 35t-15 35t-40 13t-39.5 -13t-14.5 -35t14.5 -35zM192 334l-115 3l156 311h-187v96h303v-86z" />
    <glyph glyph-name="partialdiff" unicode="&#x2202;" horiz-adv-x="638" 
d="M438.5 38q-71.5 -54 -169.5 -54q-72 0 -125.5 28t-83.5 79t-30 118q0 72 33.5 130t90 92t126.5 34q55 0 97 -23.5t63 -65.5q0 15 0.5 28.5t0.5 26.5q0 98 -41 150.5t-119 52.5q-40 0 -81.5 -15.5t-71.5 -42.5l-17 122q34 29 85 45.5t106 16.5q137 0 212 -89.5t75 -251.5
q0 -132 -39.5 -229.5t-111 -151.5zM415 244q0 50 -29.5 79t-81.5 29q-57 0 -94 -38t-37 -96q0 -51 29 -80t81 -29q37 0 66.5 18.5t47.5 49t18 67.5z" />
    <glyph glyph-name="Delta" unicode="&#x2206;" horiz-adv-x="816" 
d="M325 760h162l306 -760h-770zM581 124l-178 497l-177 -497h355z" />
    <glyph glyph-name="product" unicode="&#x220f;" horiz-adv-x="761" 
d="M89 760h583v-840h-158v713h-266v-713h-159v840z" />
    <glyph glyph-name="summation" unicode="&#x2211;" horiz-adv-x="625" 
d="M248 349l-204 301v110h529v-131h-338l187 -275l-203 -302h359v-131h-543v110z" />
    <glyph glyph-name="minus" unicode="&#x2212;" horiz-adv-x="620" 
d="M74 397h472v-124h-472v124z" />
    <glyph glyph-name="uni2215" unicode="&#x2215;" horiz-adv-x="181" 
d="M292 744h122l-524 -744h-123z" />
    <glyph glyph-name="uni2219" unicode="&#x2219;" horiz-adv-x="300" 
d="M150 464q39 0 64 -24t25 -61t-25 -60.5t-64 -23.5t-63.5 23.5t-24.5 60.5t24.5 61t63.5 24z" />
    <glyph glyph-name="radical" unicode="&#x221a;" horiz-adv-x="726" 
d="M439 0h-141l-147 349h-118v119h228l111 -306l251 661h143z" />
    <glyph glyph-name="infinity" unicode="&#x221e;" horiz-adv-x="728" 
d="M210 159q-82 0 -130.5 51.5t-48.5 136.5q0 86 48.5 137.5t130.5 51.5q48 0 88 -22.5t65 -63.5q26 41 66.5 63.5t88.5 22.5q82 0 130.5 -51.5t48.5 -137.5q0 -85 -48.5 -136.5t-130.5 -51.5q-49 0 -89.5 22.5t-65.5 64.5q-24 -42 -64 -64.5t-89 -22.5zM561.5 405.5
q-19.5 21.5 -51.5 21.5q-58 0 -92 -80q34 -79 92 -79q32 0 51.5 21.5t19.5 57.5q0 37 -19.5 58.5zM218 427q-32 0 -51 -21.5t-19 -58.5q0 -36 19 -57.5t51 -21.5q58 0 92 79q-34 80 -92 80z" />
    <glyph glyph-name="integral" unicode="&#x222b;" horiz-adv-x="447" 
d="M109 543q-1 12 -1 20.5v29.5q0 110 51.5 169t148.5 59q28 0 59.5 -6t50.5 -16l-13 -119q-16 6 -37.5 10.5t-36.5 4.5q-43 0 -62 -26.5t-19 -83.5v-24.5t1 -19.5l32 -517q1 -9 1 -19v-31q0 -110 -51 -169t-149 -59q-28 0 -59 6t-51 16l13 119q15 -6 37 -10.5t37 -4.5
q43 0 62 26.5t19 83.5v26.5t-1 17.5z" />
    <glyph glyph-name="approxequal" unicode="&#x2248;" horiz-adv-x="620" 
d="M43 371v10q1 111 44 159t113 48q37 0 67.5 -14t61.5 -38q26 -20 43.5 -29t35.5 -9q25 0 39 20.5t16 69.5h114v-10q-1 -110 -44 -158.5t-113 -48.5q-33 0 -61.5 12t-57.5 34q-29 23 -49 34t-40 11q-25 0 -39 -20.5t-16 -70.5h-114zM43 101v10q1 111 44 159t113 48
q37 0 67.5 -14t61.5 -38q26 -20 43.5 -29.5t35.5 -9.5q25 0 39 21t16 70h114v-10q-1 -111 -44 -159t-113 -48q-33 0 -61.5 12t-57.5 34t-49 33.5t-40 11.5q-25 0 -39 -20.5t-16 -70.5h-114z" />
    <glyph glyph-name="notequal" unicode="&#x2260;" horiz-adv-x="620" 
d="M292 392h-200v117h255l55 115h94l-55 -115h87v-117h-142l-58 -120h200v-117h-255l-55 -115h-94l55 115h-87v117h142z" />
    <glyph glyph-name="lessequal" unicode="&#x2264;" horiz-adv-x="620" 
d="M539 180l-458 169v139l458 168v-128l-326 -109l326 -108v-131zM546 0h-472v123h472v-123z" />
    <glyph glyph-name="greaterequal" unicode="&#x2265;" horiz-adv-x="620" 
d="M81 180v131l327 108l-327 109v128l458 -168v-139zM546 0h-472v123h472v-123z" />
    <glyph glyph-name="lozenge" unicode="&#x25ca;" horiz-adv-x="673" 
d="M274 811h127l229 -406l-229 -405h-127l-231 405zM336 669l-142 -263l143 -262l142 261z" />
    <glyph glyph-name="uniFB00" unicode="&#xfb00;" horiz-adv-x="843" 
d="M117 391h-90v119h90v61q0 118 56.5 181t160.5 63q32 0 64.5 -6t54.5 -17l-15 -118q-16 6 -37 10t-39 4q-52 0 -75.5 -30.5t-23.5 -97.5v-50h135v-119h-135v-391h-146v391zM530 391h-90v119h90v61q0 118 56.5 181t160.5 63q32 0 64.5 -6t54.5 -17l-15 -118q-16 6 -37 10
t-39 4q-52 0 -75.5 -30.5t-23.5 -97.5v-50h135v-119h-135v-391h-146v391z" />
    <glyph glyph-name="uniFB01" unicode="&#xfb01;" horiz-adv-x="706" 
d="M117 391h-90v119h90v61q0 118 55 181t158 63q29 0 55 -4.5t45 -12.5l-9 -121q-30 11 -62 11q-49 0 -72.5 -30.5t-23.5 -97.5v-50h135v-119h-135v-391h-146v391zM489 510h146v-510h-146v510zM475 694q0 35 24.5 59t61.5 24t61 -24t24 -59q0 -36 -24 -60t-61 -24t-61.5 24
t-24.5 60z" />
    <glyph glyph-name="uniFB02" unicode="&#xfb02;" horiz-adv-x="706" 
d="M117 391h-90v119h90v61q0 118 55 181t158 63q29 0 55 -4.5t45 -12.5l-9 -121q-30 11 -62 11q-49 0 -72.5 -30.5t-23.5 -97.5v-50h135v-119h-135v-391h-146v391zM489 810h146v-810h-146v810z" />
    <glyph glyph-name="uniFB03" unicode="&#xfb03;" horiz-adv-x="1119" 
d="M117 391h-90v119h90v61q0 118 56.5 181t160.5 63q32 0 64.5 -6t54.5 -17l-15 -118q-16 6 -37 10t-39 4q-52 0 -75.5 -30.5t-23.5 -97.5v-50h135v-119h-135v-391h-146v391zM530 391h-90v119h90v61q0 118 55 181t158 63q29 0 55 -4.5t45 -12.5l-9 -121q-30 11 -62 11
q-49 0 -72.5 -30.5t-23.5 -97.5v-50h135v-119h-135v-391h-146v391zM902 510h146v-510h-146v510zM888 694q0 35 24.5 59t61.5 24t61 -24t24 -59q0 -36 -24 -60t-61 -24t-61.5 24t-24.5 60z" />
    <glyph glyph-name="uniFB04" unicode="&#xfb04;" horiz-adv-x="1119" 
d="M117 391h-90v119h90v61q0 118 56.5 181t160.5 63q32 0 64.5 -6t54.5 -17l-15 -118q-16 6 -37 10t-39 4q-52 0 -75.5 -30.5t-23.5 -97.5v-50h135v-119h-135v-391h-146v391zM530 391h-90v119h90v61q0 118 55 181t158 63q29 0 55 -4.5t45 -12.5l-9 -121q-30 11 -62 11
q-49 0 -72.5 -30.5t-23.5 -97.5v-50h135v-119h-135v-391h-146v391zM902 810h146v-810h-146v810z" />
    <glyph glyph-name="uniFEFF" unicode="&#xfeff;" 
 />
    <glyph glyph-name="zero.pnum" horiz-adv-x="651" 
d="M42.5 445q3.5 35 10.5 66q25 119 95.5 184t176.5 65q90 0 154.5 -46.5t98.5 -133t34 -208.5q0 -38 -4 -72.5t-10 -66.5q-24 -119 -95 -184t-178 -65q-90 0 -154 46.5t-98 133.5t-34 208q0 38 3.5 73zM440 240q12 54 12 132q0 255 -127 255q-87 0 -114 -123
q-12 -54 -12 -132q0 -255 126 -255q88 0 115 123z" />
    <glyph glyph-name="one.pnum" horiz-adv-x="512" 
d="M388 0h-148v592l-192 -84l-24 127l245 109h119v-744z" />
    <glyph glyph-name="two.pnum" horiz-adv-x="625" 
d="M368 253q-26 -28 -59 -61t-63 -61h295v-131h-493v114q65 59 111.5 105.5t81.5 86.5q46 55 72.5 93.5t38 69t11.5 60.5q0 47 -28.5 75t-78.5 28q-48 0 -93.5 -22t-82.5 -63l-27 126q43 41 102.5 64t125.5 23q109 0 173 -57.5t64 -154.5q0 -68 -35 -138t-115 -157z" />
    <glyph glyph-name="three.pnum" horiz-adv-x="601" 
d="M329 620h-286v124h459v-110l-186 -193q63 -3 110 -30.5t73 -74.5t26 -108q0 -75 -34.5 -129.5t-99 -84.5t-153.5 -30q-61 0 -116 13t-93 36l13 124q44 -25 91.5 -37t96.5 -12q67 0 105 31t38 86q0 53 -36.5 83t-101.5 30q-18 0 -34.5 -1.5t-31.5 -6.5l-37 83z" />
    <glyph glyph-name="four.pnum" horiz-adv-x="647" 
d="M351 744h149v-460h90v-118h-90v-166h-139v166h-336v116zM361 569l-202 -285h202v285z" />
    <glyph glyph-name="five.pnum" horiz-adv-x="607" 
d="M85 744h408v-128h-278l-6 -151q37 6 63 6q82 0 142 -29t93 -81.5t33 -123.5q0 -77 -36 -134t-101 -88t-154 -31q-61 0 -119 13t-92 33l13 126q89 -47 185 -47q71 0 111 33.5t40 90.5t-44 89.5t-122 32.5q-34 0 -77 -5.5t-75 -13.5z" />
    <glyph glyph-name="six.pnum" horiz-adv-x="632" 
d="M170 591q62 85 147 156l180 -6q-99 -83 -166.5 -162t-103.5 -155q46 43 122 43q66 0 117.5 -30.5t81 -83t29.5 -119.5q0 -73 -34.5 -129.5t-94.5 -88.5t-139 -32q-82 0 -142.5 32t-93.5 91.5t-33 140.5q0 82 34 170t96 173zM309 352q-52 0 -87 -35t-35 -88t35 -88t87 -35
q53 0 87 35t34 88q0 55 -33.5 89t-87.5 34z" />
    <glyph glyph-name="seven.pnum" horiz-adv-x="591" 
d="M265 -3l-158 6l270 602h-345v139h504v-123z" />
    <glyph glyph-name="eight.pnum" horiz-adv-x="640" 
d="M175.5 734q57.5 26 133.5 26t132.5 -26t88.5 -71.5t32 -106.5q0 -59 -29 -102.5t-82 -64.5q60 -19 95.5 -69t35.5 -116t-34 -115.5t-95.5 -77t-145.5 -27.5q-83 0 -144.5 27.5t-95 77t-33.5 115.5q0 65 35 115t95 70q-52 21 -81 64.5t-29 101.5q0 61 32 107t89.5 72z
M397.5 297q-33.5 31 -89.5 31q-55 0 -89 -31t-34 -81q0 -51 34 -82t89 -31q56 0 89.5 31t33.5 82q0 50 -33.5 81zM389 618.5q-31 28.5 -81 28.5t-81 -28.5t-31 -75.5q0 -46 30.5 -74.5t81.5 -28.5t81.5 28.5t30.5 74.5q0 47 -31 75.5z" />
    <glyph glyph-name="nine.pnum" horiz-adv-x="632" 
d="M113 3q198 165 271 319q-45 -45 -123 -45q-65 0 -117 30.5t-81.5 83.5t-29.5 119q0 74 34.5 130t95 88t138.5 32q83 0 143 -32t93 -91.5t33 -140.5t-34 -169.5t-96 -173.5t-147 -156zM180 515q0 -55 33.5 -89t87.5 -34q53 0 87.5 35t34.5 88q0 54 -34.5 88.5t-87.5 34.5
q-52 0 -86.5 -34.5t-34.5 -88.5z" />
    <glyph glyph-name="zero.dnom" horiz-adv-x="392" 
d="M23 266q14 72 59 112t114 40q83 0 131 -57t48 -157q0 -33 -6 -62q-13 -72 -58.5 -112t-114.5 -40q-83 0 -130.5 57t-47.5 157q0 17 1.5 32.5t3.5 29.5zM129 204q0 -121 67 -121q47 0 62 64q2 12 3.5 26.5t1.5 30.5q0 121 -67 121q-47 0 -61 -64q-6 -24 -6 -57z" />
    <glyph glyph-name="one.dnom" horiz-adv-x="392" 
d="M283 0h-110v300l-105 -48l-15 95l134 61h96v-408z" />
    <glyph glyph-name="two.dnom" horiz-adv-x="392" 
d="M346 0h-304v89q31 21 62 46.5t53 46.5q36 35 51 57.5t15 44.5q0 20 -15 32t-41 12q-54 0 -104 -49l-19 86q23 24 62.5 38.5t79.5 14.5q66 0 106.5 -33t40.5 -88q0 -80 -95 -163q-13 -12 -25.5 -22.5t-25.5 -20.5h159v-91z" />
    <glyph glyph-name="three.dnom" horiz-adv-x="392" 
d="M208 322h-156v86h275v-80l-94 -85q50 -6 80 -38t30 -78q0 -62 -48 -99.5t-128 -37.5t-126 27l9 86q24 -13 53.5 -20t57.5 -7q35 0 54.5 14.5t19.5 39.5q0 22 -18.5 34.5t-50.5 12.5q-23 0 -41 -6l-23 55z" />
    <glyph glyph-name="four.dnom" horiz-adv-x="392" 
d="M315 164h47v-81h-47v-83h-96v83h-196v83l181 242h111v-244zM219 164v136l-102 -136h102z" />
    <glyph glyph-name="five.dnom" horiz-adv-x="392" 
d="M74 408h250v-87h-160l-2 -62q16 2 31 2q74 0 115.5 -34t41.5 -96q0 -66 -47 -103.5t-129 -37.5q-39 0 -74 7.5t-52 19.5l9 87q45 -28 106 -28q79 0 79 55q0 50 -78 50q-52 0 -99 -9z" />
    <glyph glyph-name="six.dnom" horiz-adv-x="392" 
d="M187 410l129 -3q-42 -31 -81.5 -71.5t-65.5 -80.5q24 14 56 14q59 0 97 -38t38 -94q0 -65 -45.5 -106t-119.5 -41q-73 0 -118.5 42.5t-45.5 109.5q0 65 42 137.5t114 130.5zM196 193q-28 0 -45.5 -17t-17.5 -43q0 -25 17.5 -42t45.5 -17q27 0 44.5 17t17.5 42
q0 26 -17.5 43t-44.5 17z" />
    <glyph glyph-name="seven.dnom" horiz-adv-x="392" 
d="M192 -2l-115 3l156 311h-187v96h303v-86z" />
    <glyph glyph-name="eight.dnom" horiz-adv-x="392" 
d="M307.5 386q42.5 -32 42.5 -85q0 -59 -52 -87q30 -13 47.5 -39.5t17.5 -58.5q0 -58 -44.5 -92t-122.5 -34q-77 0 -122 34t-45 92q0 33 18 59t49 39q-54 27 -54 87q0 53 43 85t111 32q69 0 111.5 -32zM151 83.5q17 -14.5 45 -14.5q29 0 45.5 14.5t16.5 38.5t-17 38.5
t-45 14.5t-45 -14.5t-17 -38.5t17 -38.5zM156.5 259q14.5 -13 39.5 -13t40 13t15 35t-15 35t-40 13t-39.5 -13t-14.5 -35t14.5 -35z" />
    <glyph glyph-name="nine.dnom" horiz-adv-x="392" 
d="M204 -2l-128 3q42 31 82 72t65 80q-24 -14 -56 -14q-39 0 -69.5 17.5t-48.5 47.5t-18 67q0 65 46 106t119 41q74 0 119 -42t45 -110q0 -65 -42 -137t-114 -131zM151.5 317.5q-17.5 -16.5 -17.5 -42.5q0 -25 17.5 -42.5t44.5 -17.5q28 0 45.5 17t17.5 43t-17.5 42.5
t-45.5 16.5q-27 0 -44.5 -16.5z" />
    <glyph glyph-name="zero.numr" horiz-adv-x="392" 
d="M23 602q14 72 59 112t114 40q83 0 131 -57t48 -157q0 -33 -6 -62q-13 -72 -58.5 -112t-114.5 -40q-83 0 -130.5 57t-47.5 157q0 17 1.5 32.5t3.5 29.5zM129 540q0 -121 67 -121q47 0 62 64q2 12 3.5 26.5t1.5 30.5q0 121 -67 121q-47 0 -61 -64q-6 -24 -6 -57z" />
    <glyph glyph-name="one.numr" horiz-adv-x="392" 
d="M283 336h-110v300l-105 -48l-15 95l134 61h96v-408z" />
    <glyph glyph-name="two.numr" horiz-adv-x="392" 
d="M346 336h-304v89q31 21 62 46.5t53 46.5q36 35 51 57.5t15 44.5q0 20 -15 32t-41 12q-54 0 -104 -49l-19 86q23 24 62.5 38.5t79.5 14.5q66 0 106.5 -33t40.5 -88q0 -80 -95 -163q-13 -12 -25.5 -22.5t-25.5 -20.5h159v-91z" />
    <glyph glyph-name="three.numr" horiz-adv-x="392" 
d="M208 658h-156v86h275v-80l-94 -85q50 -6 80 -38t30 -78q0 -62 -48 -99.5t-128 -37.5t-126 27l9 86q24 -13 53.5 -20t57.5 -7q35 0 54.5 14.5t19.5 39.5q0 22 -18.5 34.5t-50.5 12.5q-23 0 -41 -6l-23 55z" />
    <glyph glyph-name="four.numr" horiz-adv-x="392" 
d="M315 500h47v-81h-47v-83h-96v83h-196v83l181 242h111v-244zM219 500v136l-102 -136h102z" />
    <glyph glyph-name="five.numr" horiz-adv-x="392" 
d="M74 744h250v-87h-160l-2 -62q16 2 31 2q74 0 115.5 -34t41.5 -96q0 -66 -47 -103.5t-129 -37.5q-39 0 -74 7.5t-52 19.5l9 87q45 -28 106 -28q79 0 79 55q0 50 -78 50q-52 0 -99 -9z" />
    <glyph glyph-name="six.numr" horiz-adv-x="392" 
d="M187 746l129 -3q-42 -31 -81.5 -71.5t-65.5 -80.5q24 14 56 14q59 0 97 -38t38 -94q0 -65 -45.5 -106t-119.5 -41q-73 0 -118.5 42.5t-45.5 109.5q0 65 42 137.5t114 130.5zM196 529q-28 0 -45.5 -17t-17.5 -43q0 -25 17.5 -42t45.5 -17q27 0 44.5 17t17.5 42
q0 26 -17.5 43t-44.5 17z" />
    <glyph glyph-name="seven.numr" horiz-adv-x="392" 
d="M192 334l-115 3l156 311h-187v96h303v-86z" />
    <glyph glyph-name="eight.numr" horiz-adv-x="392" 
d="M307.5 722q42.5 -32 42.5 -85q0 -59 -52 -87q30 -13 47.5 -39.5t17.5 -58.5q0 -58 -44.5 -92t-122.5 -34q-77 0 -122 34t-45 92q0 33 18 59t49 39q-54 27 -54 87q0 53 43 85t111 32q69 0 111.5 -32zM151 419.5q17 -14.5 45 -14.5q29 0 45.5 14.5t16.5 38.5t-17 38.5
t-45 14.5t-45 -14.5t-17 -38.5t17 -38.5zM156.5 595q14.5 -13 39.5 -13t40 13t15 35t-15 35t-40 13t-39.5 -13t-14.5 -35t14.5 -35z" />
    <glyph glyph-name="nine.numr" horiz-adv-x="392" 
d="M204 334l-128 3q42 31 82 72t65 80q-24 -14 -56 -14q-39 0 -69.5 17.5t-48.5 47.5t-18 67q0 65 46 106t119 41q74 0 119 -42t45 -110q0 -65 -42 -137t-114 -131zM151.5 653.5q-17.5 -16.5 -17.5 -42.5q0 -25 17.5 -42.5t44.5 -17.5q28 0 45.5 17t17.5 43t-17.5 42.5
t-45.5 16.5q-27 0 -44.5 -16.5z" />
    <glyph glyph-name="zero.percent" horiz-adv-x="505" 
d="M252 -13q-56 0 -100.5 25t-70.5 69t-26 99t26 98.5t70.5 68.5t100.5 25q57 0 101.5 -25t70.5 -68.5t26 -98.5t-26 -99t-70.5 -69t-101.5 -25zM315.5 248q-23.5 26 -63.5 26q-39 0 -63 -26t-24 -68q0 -43 24 -69t63 -26q40 0 63.5 26t23.5 69q0 42 -23.5 68z" />
    <glyph glyph-name="twosevenths" horiz-adv-x="966" 
d="M686 744h122l-524 -744h-123zM765 -2l-115 3l156 311h-187v96h303v-86zM346 336h-304v89q31 21 62 46.5t53 46.5q36 35 51 57.5t15 44.5q0 20 -15 32t-41 12q-54 0 -104 -49l-19 86q23 24 62.5 38.5t79.5 14.5q66 0 106.5 -33t40.5 -88q0 -80 -95 -163
q-13 -12 -25.5 -22.5t-25.5 -20.5h159v-91z" />
    <glyph glyph-name="threesevenths" horiz-adv-x="966" 
d="M658 744h122l-524 -744h-123zM765 -2l-115 3l156 311h-187v96h303v-86zM208 658h-156v86h275v-80l-94 -85q50 -6 80 -38t30 -78q0 -62 -48 -99.5t-128 -37.5t-126 27l9 86q24 -13 53.5 -20t57.5 -7q35 0 54.5 14.5t19.5 39.5q0 22 -18.5 34.5t-50.5 12.5q-23 0 -41 -6
l-23 55z" />
    <glyph glyph-name="foursevenths" horiz-adv-x="966" 
d="M671 744h122l-524 -744h-123zM765 -2l-115 3l156 311h-187v96h303v-86zM315 500h47v-81h-47v-83h-96v83h-196v83l181 242h111v-244zM219 500v136l-102 -136h102z" />
    <glyph glyph-name="fivesevenths" horiz-adv-x="966" 
d="M665 744h122l-524 -744h-123zM765 -2l-115 3l156 311h-187v96h303v-86zM74 744h250v-87h-160l-2 -62q16 2 31 2q74 0 115.5 -34t41.5 -96q0 -66 -47 -103.5t-129 -37.5q-39 0 -74 7.5t-52 19.5l9 87q45 -28 106 -28q79 0 79 55q0 50 -78 50q-52 0 -99 -9z" />
    <glyph glyph-name="sixsevenths" horiz-adv-x="966" 
d="M662 744h122l-524 -744h-123zM765 -2l-115 3l156 311h-187v96h303v-86zM187 746l129 -3q-42 -31 -81.5 -71.5t-65.5 -80.5q24 14 56 14q59 0 97 -38t38 -94q0 -65 -45.5 -106t-119.5 -41q-73 0 -118.5 42.5t-45.5 109.5q0 65 42 137.5t114 130.5zM196 529
q-28 0 -45.5 -17t-17.5 -43q0 -25 17.5 -42t45.5 -17q27 0 44.5 17t17.5 42q0 26 -17.5 43t-44.5 17z" />
    <glyph glyph-name="twoninths" horiz-adv-x="966" 
d="M700 744h122l-524 -744h-123zM777 -2l-128 3q42 31 82 72t65 80q-24 -14 -56 -14q-39 0 -69.5 17.5t-48.5 47.5t-18 67q0 65 46 106t119 41q74 0 119 -42t45 -110q0 -65 -42 -137t-114 -131zM724.5 317.5q-17.5 -16.5 -17.5 -42.5q0 -25 17.5 -42.5t44.5 -17.5
q28 0 45.5 17t17.5 43t-17.5 42.5t-45.5 16.5q-27 0 -44.5 -16.5zM346 336h-304v89q31 21 62 46.5t53 46.5q36 35 51 57.5t15 44.5q0 20 -15 32t-41 12q-54 0 -104 -49l-19 86q23 24 62.5 38.5t79.5 14.5q66 0 106.5 -33t40.5 -88q0 -80 -95 -163q-13 -12 -25.5 -22.5
t-25.5 -20.5h159v-91z" />
    <glyph glyph-name="fourninths" horiz-adv-x="966" 
d="M698 744h122l-524 -744h-123zM777 -2l-128 3q42 31 82 72t65 80q-24 -14 -56 -14q-39 0 -69.5 17.5t-48.5 47.5t-18 67q0 65 46 106t119 41q74 0 119 -42t45 -110q0 -65 -42 -137t-114 -131zM724.5 317.5q-17.5 -16.5 -17.5 -42.5q0 -25 17.5 -42.5t44.5 -17.5
q28 0 45.5 17t17.5 43t-17.5 42.5t-45.5 16.5q-27 0 -44.5 -16.5zM315 500h47v-81h-47v-83h-96v83h-196v83l181 242h111v-244zM219 500v136l-102 -136h102z" />
    <glyph glyph-name="fiveninths" horiz-adv-x="966" 
d="M680 744h122l-524 -744h-123zM777 -2l-128 3q42 31 82 72t65 80q-24 -14 -56 -14q-39 0 -69.5 17.5t-48.5 47.5t-18 67q0 65 46 106t119 41q74 0 119 -42t45 -110q0 -65 -42 -137t-114 -131zM724.5 317.5q-17.5 -16.5 -17.5 -42.5q0 -25 17.5 -42.5t44.5 -17.5
q28 0 45.5 17t17.5 43t-17.5 42.5t-45.5 16.5q-27 0 -44.5 -16.5zM74 744h250v-87h-160l-2 -62q16 2 31 2q74 0 115.5 -34t41.5 -96q0 -66 -47 -103.5t-129 -37.5q-39 0 -74 7.5t-52 19.5l9 87q45 -28 106 -28q79 0 79 55q0 50 -78 50q-52 0 -99 -9z" />
    <glyph glyph-name="sevenninths" horiz-adv-x="966" 
d="M634 744h122l-524 -744h-123zM777 -2l-128 3q42 31 82 72t65 80q-24 -14 -56 -14q-39 0 -69.5 17.5t-48.5 47.5t-18 67q0 65 46 106t119 41q74 0 119 -42t45 -110q0 -65 -42 -137t-114 -131zM724.5 317.5q-17.5 -16.5 -17.5 -42.5q0 -25 17.5 -42.5t44.5 -17.5
q28 0 45.5 17t17.5 43t-17.5 42.5t-45.5 16.5q-27 0 -44.5 -16.5zM192 334l-115 3l156 311h-187v96h303v-86z" />
    <glyph glyph-name="eightninths" horiz-adv-x="966" 
d="M686 744h122l-524 -744h-123zM777 -2l-128 3q42 31 82 72t65 80q-24 -14 -56 -14q-39 0 -69.5 17.5t-48.5 47.5t-18 67q0 65 46 106t119 41q74 0 119 -42t45 -110q0 -65 -42 -137t-114 -131zM724.5 317.5q-17.5 -16.5 -17.5 -42.5q0 -25 17.5 -42.5t44.5 -17.5
q28 0 45.5 17t17.5 43t-17.5 42.5t-45.5 16.5q-27 0 -44.5 -16.5zM307.5 722q42.5 -32 42.5 -85q0 -59 -52 -87q30 -13 47.5 -39.5t17.5 -58.5q0 -58 -44.5 -92t-122.5 -34q-77 0 -122 34t-45 92q0 33 18 59t49 39q-54 27 -54 87q0 53 43 85t111 32q69 0 111.5 -32z
M151 419.5q17 -14.5 45 -14.5q29 0 45.5 14.5t16.5 38.5t-17 38.5t-45 14.5t-45 -14.5t-17 -38.5t17 -38.5zM156.5 595q14.5 -13 39.5 -13t40 13t15 35t-15 35t-40 13t-39.5 -13t-14.5 -35t14.5 -35z" />
    <glyph glyph-name="hyphen.case" horiz-adv-x="428" 
d="M59 442h310v-125h-310v125z" />
    <glyph glyph-name="endash.case" horiz-adv-x="500" 
d="M0 436h500v-112h-500v112z" />
    <glyph glyph-name="emdash.case" horiz-adv-x="1000" 
d="M0 436h1000v-112h-1000v112z" />
    <glyph glyph-name="parenleft.case" horiz-adv-x="428" 
d="M214 416q0 -139 54 -261.5t154 -214.5h-158q-57 54 -98.5 129.5t-64.5 164.5t-23 182q0 94 23 183t64.5 165t98.5 129h158q-100 -92 -154 -214.5t-54 -262.5z" />
    <glyph glyph-name="parenright.case" horiz-adv-x="428" 
d="M214 417q0 139 -53.5 262t-154.5 214h158q58 -53 99.5 -129t64.5 -165t23 -182t-23 -182.5t-64.5 -165.5t-99.5 -129h-158q101 92 154.5 215t53.5 262z" />
    <glyph glyph-name="slash.case" horiz-adv-x="552" 
d="M405 851h138l-395 -943h-139z" />
    <glyph glyph-name="backslash.case" horiz-adv-x="552" 
d="M9 851h139l395 -943h-138z" />
    <glyph glyph-name="bracketleft.case" horiz-adv-x="428" 
d="M106 892h282v-119h-148v-715h148v-119h-282v953z" />
    <glyph glyph-name="bracketright.case" horiz-adv-x="428" 
d="M323 -61h-282v119h147v715h-147v119h282v-953z" />
    <glyph glyph-name="braceleft.case" horiz-adv-x="445" 
d="M45 472h26q49 0 67.5 17t18.5 60q0 49 -12.5 94.5t-12.5 88.5q0 83 50 123t154 40q16 0 34.5 -0.5t31.5 -2.5v-114q-7 1 -16.5 1h-29.5q-90 0 -90 -74q0 -23 6.5 -52t12.5 -60.5t6 -63.5q0 -42 -21 -72.5t-60 -44.5q81 -27 81 -116q0 -31 -6 -63t-12.5 -61t-6.5 -52
q0 -74 90 -74h29t17 1v-114q-13 -1 -31.5 -2t-34.5 -1q-104 0 -154 40t-50 123q0 43 12.5 88.5t12.5 94.5q0 44 -18.5 60.5t-67.5 16.5h-26v119z" />
    <glyph glyph-name="braceright.case" horiz-adv-x="445" 
d="M400 353h-26q-48 0 -67 -16.5t-19 -60.5q0 -49 13 -94.5t13 -88.5q0 -83 -50.5 -123t-154.5 -40q-15 0 -34 1t-32 2v114q8 -1 17.5 -1h28.5q90 0 90 74q0 23 -6 52t-12.5 61t-6.5 63q0 42 21 72.5t60 44.5q-81 27 -81 116q0 32 6.5 63.5t12.5 60.5t6 52q0 74 -90 74
h-28.5t-17.5 -1v114q13 2 32 2.5t34 0.5q104 0 154.5 -40t50.5 -123q0 -43 -13 -88.5t-13 -94.5q0 -43 19 -60t67 -17h26v-119z" />
    <glyph glyph-name="bullet.case" horiz-adv-x="358" 
d="M48 327q0 37 17.5 66.5t47.5 47t66 17.5q37 0 66.5 -17.5t47.5 -47t18 -66.5q0 -36 -18 -66t-47.5 -47.5t-66.5 -17.5q-36 0 -66 17.5t-47.5 47.5t-17.5 66z" />
    <glyph glyph-name="guilsinglleft.case" horiz-adv-x="368" 
d="M28 380l149 220h158l-153 -220l153 -220h-158z" />
    <glyph glyph-name="guilsinglright.case" horiz-adv-x="368" 
d="M186 380l-153 220h158l149 -220l-149 -220h-158z" />
    <glyph glyph-name="guillemotleft.case" horiz-adv-x="621" 
d="M28 380l149 220h158l-153 -220l153 -220h-158zM281 380l149 220h158l-153 -220l153 -220h-158z" />
    <glyph glyph-name="guillemotright.case" horiz-adv-x="621" 
d="M186 380l-153 220h158l149 -220l-149 -220h-158zM439 380l-153 220h158l149 -220l-149 -220h-158z" />
    <glyph glyph-name="at.case" horiz-adv-x="1029" 
d="M503 -79q-138 0 -240 52t-158.5 147t-56.5 222q0 104 39 193.5t109.5 156.5t164.5 104.5t204 37.5q125 0 219 -48t147 -134t53 -200q0 -89 -32 -158t-88 -108t-129 -39q-53 0 -89 20t-49 58q-22 -36 -60.5 -56.5t-81.5 -20.5q-52 0 -91.5 25.5t-61.5 70.5t-22 105
q0 71 29 128t77.5 90.5t108.5 33.5q43 0 77.5 -20.5t52.5 -55.5l13 61h116l-43 -255q-3 -22 -3 -34q0 -53 46 -53q33 0 59.5 27t42.5 73t16 102q0 89 -38 152.5t-108.5 98t-168.5 34.5q-86 0 -158.5 -28.5t-126 -81t-83 -123t-29.5 -154.5q0 -99 42 -170.5t120 -110.5
t186 -39q123 0 230 48l10 -102q-113 -49 -245 -49zM603 389q0 49 -22.5 75t-66.5 26q-48 0 -78.5 -36t-30.5 -93q0 -49 23 -75t66 -26q48 0 78.5 36t30.5 93z" />
    <glyph glyph-name="periodcentered.case" horiz-adv-x="300" 
d="M150 484q39 0 64 -24t25 -61t-25 -60.5t-64 -23.5t-63.5 23.5t-24.5 60.5t24.5 61t63.5 24z" />
    <glyph glyph-name="M" horiz-adv-x="989" 
d="M89 760h173l235 -456l235 456h168v-760h-150v536l-192 -370h-128l-191 371v-537h-150v760z" />
    <glyph glyph-name="j" horiz-adv-x="289" 
d="M72 510h146v-755h-146v755zM58 694q0 35 24.5 59t61.5 24t61 -24t24 -59q0 -36 -24 -60t-61 -24t-61.5 24t-24.5 60z" />
    <glyph glyph-name="t" horiz-adv-x="418" 
d="M119 391h-97v119h97v137h146v-137h118v-119h-118v-391h-146v391z" />
    <glyph glyph-name="u" horiz-adv-x="609" 
d="M68 510h146v-293q0 -103 91 -103q90 0 90 103v293h146v-296q0 -112 -60.5 -171t-175.5 -59t-176 59t-61 171v296z" />
    <glyph glyph-name="a.alt" horiz-adv-x="574" 
d="M508 0h-129l-2 68q-22 -39 -65 -61.5t-97 -22.5q-79 0 -125.5 43.5t-46.5 116.5q0 76 56 122.5t148 46.5q70 0 126 -23q-1 123 -128 123q-84 0 -160 -50l-11 113q35 23 86.5 36.5t103.5 13.5q119 0 181.5 -59.5t62.5 -172.5v-294zM340.5 117q29.5 32 32.5 89
q-44 20 -98 20q-47 0 -72.5 -18.5t-25.5 -53.5q0 -33 21.5 -51t58.5 -18q54 0 83.5 32z" />
    <glyph glyph-name="g.alt" horiz-adv-x="596" 
d="M136 203q-38 23 -59.5 59t-21.5 84q0 54 28.5 94.5t80 63t119.5 22.5q33 0 62 -6t54 -18l178 12v-99l-85 8q24 -40 24 -85q0 -52 -28 -91t-78.5 -60.5t-117.5 -21.5q-40 0 -76 7q-36 -16 -36 -42q0 -21 19.5 -29t68.5 -8h42q244 0 244 -165q0 -87 -73 -134.5t-207 -47.5
q-118 0 -183.5 38.5t-65.5 108.5q0 43 27 75.5t74 46.5q-34 12 -53 34.5t-19 53.5t21.5 57t60.5 43zM151 -83q0 -31 36.5 -48.5t100.5 -17.5q65 0 100.5 18.5t35.5 50.5q0 33 -30.5 48t-95.5 15h-23q-124 0 -124 -66zM188 345q0 -39 26.5 -61t71.5 -22t71.5 22t26.5 61
t-26.5 61.5t-71.5 22.5t-71.5 -22.5t-26.5 -61.5z" />
    <glyph glyph-name="y.alt" horiz-adv-x="597" 
d="M359 -26q-37 -90 -72.5 -139.5t-75.5 -69t-93 -19.5q-28 0 -57 6t-46 16l18 123q14 -8 32.5 -12.5t35.5 -4.5q40 0 65 24t51 83l15 37l-217 492h159l134 -353l119 353h154z" />
    <glyph glyph-name="periodcentered.loclCAT" horiz-adv-x="300" 
d="M62 379q0 37 24.5 60.5t63.5 23.5t64 -23.5t25 -60.5t-25 -60.5t-64 -23.5t-63.5 23.5t-24.5 60.5z" />
    <glyph glyph-name="periodcentered.loclCAT.cap" horiz-adv-x="300" 
d="M62 408q0 37 24.5 60.5t63.5 23.5t64 -23.5t25 -60.5t-25 -60.5t-64 -23.5t-63.5 23.5t-24.5 60.5z" />
    <glyph glyph-name="uni0307.i" 
d="M-86 694q0 35 24.5 59t61.5 24t61 -24t24 -59q0 -36 -24 -60t-61 -24t-61.5 24t-24.5 60z" />
    <glyph glyph-name="uni0237" horiz-adv-x="289" 
d="M72 510h146v-755h-146v755z" />
    <glyph glyph-name="dotlessij" horiz-adv-x="578" 
d="M361 510h146v-755h-146v755zM72 510h146v-510h-146v510z" />
    <glyph glyph-name="dotlessij.alt" horiz-adv-x="578" 
d="M507 -33q0 -221 -205 -221q-35 0 -69 7t-54 17l15 120q43 -17 83 -17q43 0 63.5 25t20.5 78v534h146v-543zM72 510h146v-510h-146v510z" />
    <glyph glyph-name="f.short" horiz-adv-x="407" 
d="M117 391h-90v119h90v61q0 118 55 181t158 63q29 0 55 -4.5t45 -12.5l-9 -121q-30 11 -62 11q-49 0 -72.5 -30.5t-23.5 -97.5v-50h135v-119h-135v-391h-146v391z" />
    <glyph glyph-name="ij" horiz-adv-x="578" 
d="M72 510h146v-510h-146v510zM58 694q0 35 24.5 59t61.5 24t61 -24t24 -59q0 -36 -24 -60t-61 -24t-61.5 24t-24.5 60zM361 510h146v-755h-146v755zM347 694q0 35 24.5 59t61.5 24t61 -24t24 -59q0 -36 -24 -60t-61 -24t-61.5 24t-24.5 60z" />
    <glyph glyph-name="ae.alt" horiz-adv-x="923" 
d="M230 -16q-87 0 -137 43.5t-50 116.5q0 76 56 122.5t148 46.5q70 0 126 -23q-1 123 -128 123q-84 0 -160 -50l-11 113q35 23 86.5 36.5t103.5 13.5q68 0 116 -23t69 -66q27 42 75 65.5t107 23.5q73 0 127 -31t84 -88t30 -134q0 -25 -3 -54h-359q10 -63 53.5 -92.5
t117.5 -29.5q44 0 88 10t81 27l14 -109q-39 -19 -91.5 -30t-106.5 -11q-86 0 -149 28.5t-95 81.5q-24 -52 -74.5 -81t-117.5 -29zM275 226q-47 0 -72.5 -18.5t-25.5 -53.5q0 -33 21.5 -51t58.5 -18q53 0 83 31.5t33 89.5q-44 20 -98 20zM509 306h227q-1 10 -3 20
q-7 46 -34.5 71t-73.5 25q-47 0 -77.5 -30t-38.5 -86z" />
    <glyph glyph-name="tbar" horiz-adv-x="418" 
d="M119 191h-81v91h81v109h-97v119h97v137h146v-137h118v-119h-118v-109h103v-91h-103v-191h-146v191z" />
    <glyph glyph-name="uni0327.cap" 
d="M-43 10h87l-20 -67q45 -2 74 -28t29 -66q0 -54 -41 -83t-116 -29q-25 0 -52.5 6t-41.5 13l16 78q14 -7 31 -10t35 -3q54 0 54 32q0 30 -56 30q-20 0 -34 -2z" />
    <glyph glyph-name="uni0326.cap" 
d="M-67 -63h136q-1 -31 -10.5 -66.5t-24.5 -66.5t-33 -51h-110q19 37 30.5 87t11.5 97z" />
    <glyph glyph-name="uni0328.cap" 
d="M32 38l49 -38q-90 -66 -90 -119q0 -34 40 -34q26 0 47 12l10 -99q-14 -9 -38 -14t-50 -5q-60 0 -93 28t-33 77q0 51 41.5 101.5t116.5 90.5z" />
    <glyph glyph-name="uni0328.round" 
d="M59 35l58 -10q-117 -79 -117 -143q0 -38 42 -38q29 0 50 12l9 -96q-13 -9 -36.5 -14t-49.5 -5q-61 0 -95 27t-34 76q0 57 45.5 107.5t127.5 83.5z" />
    <glyph glyph-name="uni0328.round.cap" 
d="M110 -239q-14 -9 -41.5 -14.5t-53.5 -5.5q-61 0 -95.5 27.5t-34.5 74.5q0 40 22.5 78.5t62 71t91.5 54.5l57 -12q-54 -37 -84.5 -76.5t-30.5 -72.5q0 -39 45 -39q26 0 52 13z" />
    <glyph glyph-name="uni0163" horiz-adv-x="418" 
d="M119 391h-97v119h97v137h146v-137h118v-119h-118v-391h-146v391zM147 10h83l-21 -68q47 -2 74.5 -28t27.5 -67q0 -51 -39.5 -80.5t-107.5 -29.5q-27 0 -56 6t-43 13l16 75q29 -13 68 -13q55 0 55 35q0 33 -57 33q-23 0 -35 -3z" />
    <glyph glyph-name="uni021B" horiz-adv-x="418" 
d="M119 391h-97v119h97v137h146v-137h118v-119h-118v-391h-146v391zM132 -63h133q-1 -31 -10.5 -66.5t-24.5 -66.5t-33 -51h-107q19 37 30.5 87t11.5 97z" />
    <glyph glyph-name="uogonek" horiz-adv-x="609" 
d="M68 510h146v-293q0 -103 91 -103q90 0 90 103v293h146v-296q0 -112 -60.5 -171t-175.5 -59t-176 59t-61 171v296zM400 35l58 -10q-117 -79 -117 -143q0 -38 42 -38q29 0 50 12l9 -96q-13 -9 -36.5 -14t-49.5 -5q-61 0 -95 27t-34 76q0 57 45.5 107.5t127.5 83.5z" />
    <glyph glyph-name="uni0123.alt" horiz-adv-x="596" 
d="M136 203q-38 23 -59.5 59t-21.5 84q0 54 28.5 94.5t80 63t119.5 22.5q33 0 62 -6t54 -18l178 12v-99l-85 8q24 -40 24 -85q0 -52 -28 -91t-78.5 -60.5t-117.5 -21.5q-40 0 -76 7q-36 -16 -36 -42q0 -21 19.5 -29t68.5 -8h42q244 0 244 -165q0 -87 -73 -134.5t-207 -47.5
q-118 0 -183.5 38.5t-65.5 108.5q0 43 27 75.5t74 46.5q-34 12 -53 34.5t-19 53.5t21.5 57t60.5 43zM151 -83q0 -31 36.5 -48.5t100.5 -17.5q65 0 100.5 18.5t35.5 50.5q0 33 -30.5 48t-95.5 15h-23q-124 0 -124 -66zM188 345q0 -39 26.5 -61t71.5 -22t71.5 22t26.5 61
t-26.5 61.5t-71.5 22.5t-71.5 -22.5t-26.5 -61.5zM290 785h103q-19 -37 -29 -81t-11 -94h-131q2 46 20.5 94t47.5 81z" />
    <glyph glyph-name="aogonek.alt" horiz-adv-x="574" 
d="M508 0h-129l-2 68q-22 -39 -65 -61.5t-97 -22.5q-79 0 -125.5 43.5t-46.5 116.5q0 76 56 122.5t148 46.5q70 0 126 -23q-1 123 -128 123q-84 0 -160 -50l-11 113q35 23 86.5 36.5t103.5 13.5q119 0 181.5 -59.5t62.5 -172.5v-294zM340.5 117q29.5 32 32.5 89
q-44 20 -98 20q-47 0 -72.5 -18.5t-25.5 -53.5q0 -33 21.5 -51t58.5 -18q54 0 83.5 32zM460 38l49 -38q-93 -66 -93 -119q0 -37 43 -37q26 0 48 12l9 -96q-14 -9 -37.5 -14t-49.5 -5q-60 0 -93.5 28t-33.5 77q0 51 41.5 101.5t116.5 90.5z" />
    <glyph glyph-name="acutecomb.cap" 
d="M10 980h175l-153 -145h-137z" />
    <glyph glyph-name="uni030B.cap" 
d="M111 979h162l-114 -144h-135zM-106 979h161l-114 -144h-134z" />
    <glyph glyph-name="IJacute" horiz-adv-x="908" 
d="M824 266q0 -143 -65.5 -212.5t-200.5 -69.5q-51 0 -101.5 12t-82.5 31l15 128q33 -19 70 -28t74 -9q70 0 99.5 36.5t29.5 121.5v484h162v-494zM89 760h161v-760h-161v760zM179 980h175l-153 -145h-137zM752 980h175l-153 -145h-137z" />
    <glyph glyph-name="ijacute" horiz-adv-x="578" 
d="M361 510h146v-755h-146v755zM72 510h146v-510h-146v510zM155 778h160l-141 -168h-125zM444 778h160l-141 -168h-125z" />
    <glyph glyph-name="uacute" horiz-adv-x="609" 
d="M68 510h146v-293q0 -103 91 -103q90 0 90 103v293h146v-296q0 -112 -60.5 -171t-175.5 -59t-176 59t-61 171v296zM315 778h160l-141 -168h-125z" />
    <glyph glyph-name="uhungarumlaut" horiz-adv-x="609" 
d="M68 510h146v-293q0 -103 91 -103q90 0 90 103v293h146v-296q0 -112 -60.5 -171t-175.5 -59t-176 59t-61 171v296zM219 778h144l-114 -168h-115zM414 778h143l-114 -168h-115z" />
    <glyph glyph-name="aacute.alt" horiz-adv-x="574" 
d="M508 0h-129l-2 68q-22 -39 -65 -61.5t-97 -22.5q-79 0 -125.5 43.5t-46.5 116.5q0 76 56 122.5t148 46.5q70 0 126 -23q-1 123 -128 123q-84 0 -160 -50l-11 113q35 23 86.5 36.5t103.5 13.5q119 0 181.5 -59.5t62.5 -172.5v-294zM340.5 117q29.5 32 32.5 89
q-44 20 -98 20q-47 0 -72.5 -18.5t-25.5 -53.5q0 -33 21.5 -51t58.5 -18q54 0 83.5 32zM284 778h160l-141 -168h-125z" />
    <glyph glyph-name="ijacute.alt" horiz-adv-x="578" 
d="M507 -33q0 -221 -205 -221q-35 0 -69 7t-54 17l15 120q43 -17 83 -17q43 0 63.5 25t20.5 78v534h146v-543zM72 510h146v-510h-146v510zM155 778h160l-141 -168h-125zM444 778h160l-141 -168h-125z" />
    <glyph glyph-name="yacute.alt" horiz-adv-x="597" 
d="M359 -26q-37 -90 -72.5 -139.5t-75.5 -69t-93 -19.5q-28 0 -57 6t-46 16l18 123q14 -8 32.5 -12.5t35.5 -4.5q40 0 65 24t51 83l15 37l-217 492h159l134 -353l119 353h154zM311 778h160l-141 -168h-125z" />
    <glyph glyph-name="gravecomb.cap" 
d="M-187 980h175l114 -145h-136z" />
    <glyph glyph-name="ugrave" horiz-adv-x="609" 
d="M68 510h146v-293q0 -103 91 -103q90 0 90 103v293h146v-296q0 -112 -60.5 -171t-175.5 -59t-176 59t-61 171v296zM133 778h161l106 -168h-125z" />
    <glyph glyph-name="agrave.alt" horiz-adv-x="574" 
d="M508 0h-129l-2 68q-22 -39 -65 -61.5t-97 -22.5q-79 0 -125.5 43.5t-46.5 116.5q0 76 56 122.5t148 46.5q70 0 126 -23q-1 123 -128 123q-84 0 -160 -50l-11 113q35 23 86.5 36.5t103.5 13.5q119 0 181.5 -59.5t62.5 -172.5v-294zM340.5 117q29.5 32 32.5 89
q-44 20 -98 20q-47 0 -72.5 -18.5t-25.5 -53.5q0 -33 21.5 -51t58.5 -18q54 0 83.5 32zM102 778h161l106 -168h-125z" />
    <glyph glyph-name="ygrave.alt" horiz-adv-x="597" 
d="M359 -26q-37 -90 -72.5 -139.5t-75.5 -69t-93 -19.5q-28 0 -57 6t-46 16l18 123q14 -8 32.5 -12.5t35.5 -4.5q40 0 65 24t51 83l15 37l-217 492h159l134 -353l119 353h154zM129 778h161l106 -168h-125z" />
    <glyph glyph-name="uni0302.cap" 
d="M-72 987h144l142 -152h-145l-69 77l-69 -77h-145z" />
    <glyph glyph-name="tildecomb.cap" 
d="M-77 993q27 0 47 -9t35 -20t28.5 -20t27.5 -9q32 0 32 56h97q0 -159 -113 -159q-27 0 -46.5 9t-35 20t-28.5 20t-28 9q-31 0 -31 -56h-97q0 159 112 159z" />
    <glyph glyph-name="ucircumflex" horiz-adv-x="609" 
d="M68 510h146v-293q0 -103 91 -103q90 0 90 103v293h146v-296q0 -112 -60.5 -171t-175.5 -59t-176 59t-61 171v296zM241 778h126l138 -168h-129l-72 88l-72 -88h-129z" />
    <glyph glyph-name="utilde" horiz-adv-x="609" 
d="M68 510h146v-293q0 -103 91 -103q90 0 90 103v293h146v-296q0 -112 -60.5 -171t-175.5 -59t-176 59t-61 171v296zM384 612q-28 0 -48 9t-35.5 21t-29 21t-28.5 9q-32 0 -32 -58h-95q0 156 108 156q29 0 49 -9t35.5 -20.5t29 -20.5t28.5 -9q32 0 32 58h94
q0 -157 -108 -157z" />
    <glyph glyph-name="acircumflex.alt" horiz-adv-x="574" 
d="M508 0h-129l-2 68q-22 -39 -65 -61.5t-97 -22.5q-79 0 -125.5 43.5t-46.5 116.5q0 76 56 122.5t148 46.5q70 0 126 -23q-1 123 -128 123q-84 0 -160 -50l-11 113q35 23 86.5 36.5t103.5 13.5q119 0 181.5 -59.5t62.5 -172.5v-294zM340.5 117q29.5 32 32.5 89
q-44 20 -98 20q-47 0 -72.5 -18.5t-25.5 -53.5q0 -33 21.5 -51t58.5 -18q54 0 83.5 32zM210 778h126l138 -168h-129l-72 88l-72 -88h-129z" />
    <glyph glyph-name="ycircumflex.alt" horiz-adv-x="597" 
d="M359 -26q-37 -90 -72.5 -139.5t-75.5 -69t-93 -19.5q-28 0 -57 6t-46 16l18 123q14 -8 32.5 -12.5t35.5 -4.5q40 0 65 24t51 83l15 37l-217 492h159l134 -353l119 353h154zM237 778h126l138 -168h-129l-72 88l-72 -88h-129z" />
    <glyph glyph-name="atilde.alt" horiz-adv-x="574" 
d="M508 0h-129l-2 68q-22 -39 -65 -61.5t-97 -22.5q-79 0 -125.5 43.5t-46.5 116.5q0 76 56 122.5t148 46.5q70 0 126 -23q-1 123 -128 123q-84 0 -160 -50l-11 113q35 23 86.5 36.5t103.5 13.5q119 0 181.5 -59.5t62.5 -172.5v-294zM340.5 117q29.5 32 32.5 89
q-44 20 -98 20q-47 0 -72.5 -18.5t-25.5 -53.5q0 -33 21.5 -51t58.5 -18q54 0 83.5 32zM353 612q-28 0 -48 9t-35.5 21t-29 21t-28.5 9q-32 0 -32 -58h-95q0 156 108 156q29 0 49 -9t35.5 -20.5t29 -20.5t28.5 -9q32 0 32 58h94q0 -157 -108 -157z" />
    <glyph glyph-name="uni030C.cap" 
d="M-214 987h145l69 -77l69 77h145l-142 -152h-144z" />
    <glyph glyph-name="uni0315.short" 
d="M-54 810h133l-52 -217h-92z" />
    <glyph glyph-name="uni0304.cap" 
d="M-165 950h330v-105h-330v105z" />
    <glyph glyph-name="tcaron" horiz-adv-x="418" 
d="M119 391h-97v119h97v137h146v-137h118v-119h-118v-391h-146v391zM342 810h133l-52 -217h-92z" />
    <glyph glyph-name="umacron" horiz-adv-x="609" 
d="M68 510h146v-293q0 -103 91 -103q90 0 90 103v293h146v-296q0 -112 -60.5 -171t-175.5 -59t-176 59t-61 171v296zM142 733h324v-103h-324v103z" />
    <glyph glyph-name="amacron.alt" horiz-adv-x="574" 
d="M508 0h-129l-2 68q-22 -39 -65 -61.5t-97 -22.5q-79 0 -125.5 43.5t-46.5 116.5q0 76 56 122.5t148 46.5q70 0 126 -23q-1 123 -128 123q-84 0 -160 -50l-11 113q35 23 86.5 36.5t103.5 13.5q119 0 181.5 -59.5t62.5 -172.5v-294zM340.5 117q29.5 32 32.5 89
q-44 20 -98 20q-47 0 -72.5 -18.5t-25.5 -53.5q0 -33 21.5 -51t58.5 -18q54 0 83.5 32zM111 733h324v-103h-324v103z" />
    <glyph glyph-name="uni0308.cap" 
d="M112 978q34 0 55.5 -20.5t21.5 -52.5t-21.5 -52t-55.5 -20t-55 20t-21 52t21.5 52.5t54.5 20.5zM-113 978q34 0 55.5 -20.5t21.5 -52.5t-21.5 -52t-55.5 -20q-33 0 -54.5 20t-21.5 52t21.5 52.5t54.5 20.5z" />
    <glyph glyph-name="uni0306.cap" 
d="M-181 971q0 8 1 13h104v-8q0 -30 21 -48t55 -18q35 0 55.5 18t20.5 47v9h104q1 -5 1 -13q0 -70 -49 -111t-132 -41t-132 41t-49 111z" />
    <glyph glyph-name="udieresis" horiz-adv-x="609" 
d="M68 510h146v-293q0 -103 91 -103q90 0 90 103v293h146v-296q0 -112 -60.5 -171t-175.5 -59t-176 59t-61 171v296zM119 684q0 31 21 51t53 20q33 0 54 -19.5t21 -51.5q0 -31 -21 -51t-54 -20t-53.5 20t-20.5 51zM340 684q0 31 21 51t53 20q33 0 54 -19.5t21 -51.5
q0 -31 -21 -51t-54 -20t-53.5 20t-20.5 51z" />
    <glyph glyph-name="adieresis.alt" horiz-adv-x="574" 
d="M508 0h-129l-2 68q-22 -39 -65 -61.5t-97 -22.5q-79 0 -125.5 43.5t-46.5 116.5q0 76 56 122.5t148 46.5q70 0 126 -23q-1 123 -128 123q-84 0 -160 -50l-11 113q35 23 86.5 36.5t103.5 13.5q119 0 181.5 -59.5t62.5 -172.5v-294zM340.5 117q29.5 32 32.5 89
q-44 20 -98 20q-47 0 -72.5 -18.5t-25.5 -53.5q0 -33 21.5 -51t58.5 -18q54 0 83.5 32zM88 684q0 31 21 51t53 20q33 0 54 -19.5t21 -51.5q0 -31 -21 -51t-54 -20t-53.5 20t-20.5 51zM309 684q0 31 21 51t53 20q33 0 54 -19.5t21 -51.5q0 -31 -21 -51t-54 -20t-53.5 20
t-20.5 51z" />
    <glyph glyph-name="ydieresis.alt" horiz-adv-x="597" 
d="M359 -26q-37 -90 -72.5 -139.5t-75.5 -69t-93 -19.5q-28 0 -57 6t-46 16l18 123q14 -8 32.5 -12.5t35.5 -4.5q40 0 65 24t51 83l15 37l-217 492h159l134 -353l119 353h154zM115 684q0 31 21 51t53 20q33 0 54 -19.5t21 -51.5q0 -31 -21 -51t-54 -20t-53.5 20t-20.5 51z
M336 684q0 31 21 51t53 20q33 0 54 -19.5t21 -51.5q0 -31 -21 -51t-54 -20t-53.5 20t-20.5 51z" />
    <glyph glyph-name="abreve.alt" horiz-adv-x="574" 
d="M508 0h-129l-2 68q-22 -39 -65 -61.5t-97 -22.5q-79 0 -125.5 43.5t-46.5 116.5q0 76 56 122.5t148 46.5q70 0 126 -23q-1 123 -128 123q-84 0 -160 -50l-11 113q35 23 86.5 36.5t103.5 13.5q119 0 181.5 -59.5t62.5 -172.5v-294zM340.5 117q29.5 32 32.5 89
q-44 20 -98 20q-47 0 -72.5 -18.5t-25.5 -53.5q0 -33 21.5 -51t58.5 -18q54 0 83.5 32zM97 748v6t1 7h99v-6q0 -36 20 -56t56 -20t56 20t20 56v6h99q1 -4 1 -7v-6q0 -73 -47 -115t-129 -42t-129 42t-47 115z" />
    <glyph glyph-name="gbreve.alt" horiz-adv-x="596" 
d="M136 203q-38 23 -59.5 59t-21.5 84q0 54 28.5 94.5t80 63t119.5 22.5q33 0 62 -6t54 -18l178 12v-99l-85 8q24 -40 24 -85q0 -52 -28 -91t-78.5 -60.5t-117.5 -21.5q-40 0 -76 7q-36 -16 -36 -42q0 -21 19.5 -29t68.5 -8h42q244 0 244 -165q0 -87 -73 -134.5t-207 -47.5
q-118 0 -183.5 38.5t-65.5 108.5q0 43 27 75.5t74 46.5q-34 12 -53 34.5t-19 53.5t21.5 57t60.5 43zM151 -83q0 -31 36.5 -48.5t100.5 -17.5q65 0 100.5 18.5t35.5 50.5q0 33 -30.5 48t-95.5 15h-23q-124 0 -124 -66zM188 345q0 -39 26.5 -61t71.5 -22t71.5 22t26.5 61
t-26.5 61.5t-71.5 22.5t-71.5 -22.5t-26.5 -61.5zM125 748v6t1 7h99v-6q0 -36 20 -56t56 -20t56 20t20 56v6h99q1 -4 1 -7v-6q0 -73 -47 -115t-129 -42t-129 42t-47 115z" />
    <glyph glyph-name="uni0307.cap" 
d="M0 992q38 0 61.5 -22.5t23.5 -59.5q0 -36 -23.5 -58.5t-61.5 -22.5t-61.5 22.5t-23.5 58.5t24 59t61 23z" />
    <glyph glyph-name="dotbelowcomb.cap" 
d="M0 -53q38 0 61.5 -23t23.5 -59t-23.5 -58.5t-61.5 -22.5t-61.5 22t-23.5 59q0 36 24 59t61 23z" />
    <glyph glyph-name="gdotaccent.alt" horiz-adv-x="596" 
d="M136 203q-38 23 -59.5 59t-21.5 84q0 54 28.5 94.5t80 63t119.5 22.5q33 0 62 -6t54 -18l178 12v-99l-85 8q24 -40 24 -85q0 -52 -28 -91t-78.5 -60.5t-117.5 -21.5q-40 0 -76 7q-36 -16 -36 -42q0 -21 19.5 -29t68.5 -8h42q244 0 244 -165q0 -87 -73 -134.5t-207 -47.5
q-118 0 -183.5 38.5t-65.5 108.5q0 43 27 75.5t74 46.5q-34 12 -53 34.5t-19 53.5t21.5 57t60.5 43zM151 -83q0 -31 36.5 -48.5t100.5 -17.5q65 0 100.5 18.5t35.5 50.5q0 33 -30.5 48t-95.5 15h-23q-124 0 -124 -66zM188 345q0 -39 26.5 -61t71.5 -22t71.5 22t26.5 61
t-26.5 61.5t-71.5 22.5t-71.5 -22.5t-26.5 -61.5zM301 767q37 0 59.5 -21.5t22.5 -57.5q0 -34 -22.5 -55.5t-59.5 -21.5t-59 21t-22 56t22.5 57t58.5 22z" />
    <glyph glyph-name="uni030A.cap" 
d="M-142 951q0 39 18.5 69.5t50.5 48t73 17.5t73 -17.5t50.5 -48t18.5 -69.5q0 -58 -40 -96t-102 -38q-61 0 -101.5 38t-40.5 96zM59 951q0 27 -16 43t-43 16t-43 -16t-16 -43q0 -26 16 -42.5t43 -16.5t43 16.5t16 42.5z" />
    <glyph glyph-name="uring" horiz-adv-x="609" 
d="M68 510h146v-293q0 -103 91 -103q90 0 90 103v293h146v-296q0 -112 -60.5 -171t-175.5 -59t-176 59t-61 171v296zM304 577q-41 0 -73 17.5t-50.5 48.5t-18.5 69q0 39 18.5 69.5t50.5 48t73 17.5t73 -17.5t50.5 -48t18.5 -69.5q0 -38 -18.5 -69t-50.5 -48.5t-73 -17.5z
M347 755q-16 16 -43 16t-43 -16t-16 -43q0 -26 16 -42.5t43 -16.5t43 16.5t16 42.5q0 27 -16 43z" />
    <glyph glyph-name="aring.alt" horiz-adv-x="574" 
d="M508 0h-129l-2 68q-22 -39 -65 -61.5t-97 -22.5q-79 0 -125.5 43.5t-46.5 116.5q0 76 56 122.5t148 46.5q70 0 126 -23q-1 123 -128 123q-84 0 -160 -50l-11 113q35 23 86.5 36.5t103.5 13.5q119 0 181.5 -59.5t62.5 -172.5v-294zM340.5 117q29.5 32 32.5 89
q-44 20 -98 20q-47 0 -72.5 -18.5t-25.5 -53.5q0 -33 21.5 -51t58.5 -18q54 0 83.5 32zM273 577q-41 0 -73 17.5t-50.5 48.5t-18.5 69q0 39 18.5 69.5t50.5 48t73 17.5t73 -17.5t50.5 -48t18.5 -69.5q0 -38 -18.5 -69t-50.5 -48.5t-73 -17.5zM316 755q-16 16 -43 16t-43 -16
t-16 -43q0 -26 16 -42.5t43 -16.5t43 16.5t16 42.5q0 27 -16 43z" />
    <glyph glyph-name="uni0414" horiz-adv-x="883" 
d="M751 132h104v-308h-155v176h-524v-176h-156v308h89q35 43 49.5 113t14.5 189v326h578v-628zM592 132v496h-269v-213q0 -101 -11 -170.5t-36 -112.5h316z" />
    <glyph glyph-name="uni041B" horiz-adv-x="844" 
d="M756 0h-159v628h-275v-341q0 -105 -23 -170t-73.5 -94.5t-132.5 -29.5q-45 0 -74 8l8 127q11 -1 18 -2t16 -1q42 0 66 17t34 56.5t10 107.5v454h585v-760z" />
    <glyph glyph-name="uni041C" horiz-adv-x="989" 
d="M89 760h173l235 -456l235 456h168v-760h-150v536l-192 -370h-128l-191 371v-537h-150v760z" />
    <glyph glyph-name="uni0434" horiz-adv-x="688" 
d="M578 119h90v-272h-139v153h-377v-153h-138v272h69q27 31 38.5 83t11.5 142v166h445v-391zM433 392h-166v-87q0 -126 -36 -186h202v273z" />
    <glyph glyph-name="uni043B" horiz-adv-x="645" 
d="M574 0h-146v391h-167v-166q0 -119 -45 -175t-141 -56q-16 0 -32 2t-32 5l7 117q15 -3 30 -3q41 0 59.5 30.5t18.5 100.5v264h448v-510z" />
    <glyph glyph-name="uni043C" horiz-adv-x="785" 
d="M72 510h172l151 -282l149 282h170v-510h-135v344l-142 -265h-88l-143 265v-344h-134v510z" />
    <glyph glyph-name="uni0423.alt" horiz-adv-x="783" 
d="M475 186q-30 -61 -63 -106t-78.5 -69.5t-114.5 -24.5q-26 0 -56 6t-51 14l19 131q17 -7 38 -11t41 -4q37 0 63 18.5t55 70.5l-308 549h177l209 -402l184 402h173z" />
    </font>
</defs>
</svg>
