<?xml version="1.0" standalone="no"?>
<!DOCTYPE svg PUBLIC "-//W3C//DTD SVG 1.1//EN" "http://www.w3.org/Graphics/SVG/1.1/DTD/svg11.dtd" >
<svg xmlns="http://www.w3.org/2000/svg" xmlns:xlink="http://www.w3.org/1999/xlink" version="1.1">
<metadata>
Created by FontForge 20170731 at Thu Aug  5 19:35:28 2021
 By Aleksey,,,
Copyright 2015-2016, 2019-2021 Dalton Maag Ltd. Modification of this file requires prior written permission from Dalton Maag Ltd.
</metadata>
<defs>
<font id="ObjektivMk2Trial-SemiBold" horiz-adv-x="0" >
  <font-face 
    font-family="Objektiv Mk2 Trial SemiBold"
    font-weight="600"
    font-stretch="normal"
    units-per-em="1000"
    panose-1="2 11 6 2 2 2 4 2 2 3"
    ascent="800"
    descent="-200"
    x-height="507"
    cap-height="760"
    bbox="-235 -292 1354 1079"
    underline-thickness="76"
    underline-position="-244"
    unicode-range="U+000D-FEFF"
  />
<missing-glyph horiz-adv-x="500" 
d="M50 750h400v-750h-400v750zM400 50v650h-300v-650h300z" />
    <glyph glyph-name="f_i" unicode="fi" horiz-adv-x="689" 
d="M119 403h-94v104h94v67q0 117 53.5 179t153.5 62q57 0 96 -17l-9 -104q-31 11 -66 11q-53 0 -77.5 -33.5t-24.5 -108.5v-56h142v-104h-142v-403h-126v403zM486 507h126v-507h-126v507zM548 770q33 0 54.5 -22t21.5 -54q0 -33 -21.5 -54.5t-54.5 -21.5t-55 21.5t-22 54.5
q0 32 22 54t55 22z" />
    <glyph glyph-name="f_l" unicode="fl" horiz-adv-x="689" 
d="M119 403h-94v104h94v67q0 117 53.5 179t153.5 62q57 0 96 -17l-9 -104q-31 11 -66 11q-53 0 -77.5 -33.5t-24.5 -108.5v-56h142v-104h-142v-403h-126v403zM486 810h126v-810h-126v810z" />
    <glyph glyph-name="f_f_i" unicode="ffi" horiz-adv-x="1093" 
d="M119 403h-94v104h94v67q0 117 54.5 179t156.5 62q31 0 62 -6t52 -16l-13 -103q-18 7 -39 11t-41 4q-55 0 -80.5 -33.5t-25.5 -108.5v-56h142v-104h-142v-403h-126v403zM523 403h-94v104h94v67q0 117 53.5 179t153.5 62q57 0 96 -17l-9 -104q-31 11 -66 11
q-53 0 -77.5 -33.5t-24.5 -108.5v-56h142v-104h-142v-403h-126v403zM890 507h126v-507h-126v507zM952 770q33 0 54.5 -22t21.5 -54q0 -33 -21.5 -54.5t-54.5 -21.5t-55 21.5t-22 54.5q0 32 22 54t55 22z" />
    <glyph glyph-name="f_f_l" unicode="ffl" horiz-adv-x="1093" 
d="M119 403h-94v104h94v67q0 117 54.5 179t156.5 62q31 0 62 -6t52 -16l-13 -103q-18 7 -39 11t-41 4q-55 0 -80.5 -33.5t-25.5 -108.5v-56h142v-104h-142v-403h-126v403zM523 403h-94v104h94v67q0 117 53.5 179t153.5 62q57 0 96 -17l-9 -104q-31 11 -66 11
q-53 0 -77.5 -33.5t-24.5 -108.5v-56h142v-104h-142v-403h-126v403zM890 810h126v-810h-126v810z" />
    <glyph glyph-name="f_f" unicode="ff" horiz-adv-x="825" 
d="M119 403h-94v104h94v67q0 117 54.5 179t156.5 62q31 0 62 -6t52 -16l-13 -103q-18 7 -39 11t-41 4q-55 0 -80.5 -33.5t-25.5 -108.5v-56h142v-104h-142v-403h-126v403zM523 403h-94v104h94v67q0 117 54.5 179t156.5 62q31 0 62 -6t52 -16l-13 -103q-18 7 -39 11t-41 4
q-55 0 -80.5 -33.5t-25.5 -108.5v-56h142v-104h-142v-403h-126v403z" />
    <glyph glyph-name=".notdef" horiz-adv-x="500" 
d="M50 750h400v-750h-400v750zM400 50v650h-300v-650h300z" />
    <glyph glyph-name="uni0000" 
 />
    <glyph glyph-name="uni0000" 
 />
    <glyph glyph-name="uni000D" unicode="&#xd;" horiz-adv-x="220" 
 />
    <glyph glyph-name="space" unicode=" " horiz-adv-x="220" 
 />
    <glyph glyph-name="exclam" unicode="!" horiz-adv-x="340" 
d="M103 790h135l-10 -539h-114zM112 16q-23 22 -23 56t23 56t58 22t58 -22t23 -56t-23 -56t-58 -22t-58 22z" />
    <glyph glyph-name="quotedbl" unicode="&#x22;" horiz-adv-x="412" 
d="M43 760h126l-12 -302h-101zM243 760h126l-12 -302h-101z" />
    <glyph glyph-name="numbersign" unicode="#" horiz-adv-x="687" 
d="M335 0l36 163h-136l-36 -163h-98l36 163h-93v88h112l38 175h-110v88h129l36 163h99l-36 -163h138l36 163h99l-36 -163h95v-88h-114l-39 -175h112v-88h-131l-36 -163h-101zM254 251h137l39 175h-137z" />
    <glyph glyph-name="dollar" unicode="$" horiz-adv-x="620" 
d="M272 336q-111 39 -159.5 89t-48.5 127q0 61 28 104.5t75 68.5t105 32v136h67v-134q42 -2 89 -15t87 -36l-18 -101q-35 21 -76 33.5t-82 16.5v-229q116 -40 166 -93t50 -133q0 -59 -28 -104t-76.5 -73t-111.5 -36v-121h-67v118q-56 3 -112 17t-97 39l13 106
q86 -56 196 -61v249zM411 127.5q27 27.5 27 70.5q0 39 -23 65t-76 48v-220q45 9 72 36.5zM272 655q-41 -7 -68 -30t-27 -65q0 -39 21.5 -64.5t73.5 -44.5v204z" />
    <glyph glyph-name="percent" unicode="%" horiz-adv-x="972" 
d="M696 744h112l-535 -744h-112zM723 -12q-55 0 -99.5 25.5t-70 68.5t-25.5 98t25.5 98.5t70 68.5t99.5 25t99 -25t69.5 -68.5t25.5 -98.5t-25.5 -98t-69.5 -68.5t-99 -25.5zM792 255q-26 28 -69 28t-69.5 -28t-26.5 -75q0 -46 26.5 -74.5t69.5 -28.5t69 28.5t26 74.5
q0 47 -26 75zM250 376q-55 0 -99.5 25.5t-70 68.5t-25.5 98t25.5 98.5t70 68.5t99.5 25t99 -25t69.5 -68.5t25.5 -98.5t-25.5 -98t-69.5 -68.5t-99 -25.5zM319 643q-26 28 -69 28t-69.5 -28t-26.5 -75q0 -46 26.5 -74.5t69.5 -28.5t69 28.5t26 74.5q0 47 -26 75z" />
    <glyph glyph-name="ampersand" unicode="&#x26;" horiz-adv-x="752" 
d="M51 196q0 68 40 120.5t124 94.5q-34 41 -53 71.5t-27 58t-8 59.5q0 53 26 93t72.5 62.5t105.5 22.5t104.5 -22t71.5 -61.5t26 -90.5q0 -125 -163 -208l164 -184q21 36 33.5 82t14.5 98l104 -10q-3 -74 -24 -137.5t-57 -113.5l116 -131h-145l-47 54q-45 -34 -99.5 -52
t-115.5 -18q-79 0 -138 26.5t-92 74.5t-33 111zM171 205q0 -53 42 -86.5t109 -33.5q78 0 140 45l-188 214q-103 -59 -103 -139zM265 664.5q-25 -23.5 -25 -62.5q0 -31 15 -60.5t57 -78.5q57 32 82.5 64.5t25.5 72.5q0 41 -24 64.5t-65 23.5t-66 -23.5z" />
    <glyph glyph-name="quotesingle" unicode="'" horiz-adv-x="212" 
d="M43 760h126l-12 -302h-101z" />
    <glyph glyph-name="parenleft" unicode="(" horiz-adv-x="418" 
d="M198 343q0 -141 54.5 -264t154.5 -212h-140q-57 52 -99.5 128t-66 165.5t-23.5 182.5q0 94 23.5 184t66 166t99.5 127h140q-100 -89 -154.5 -212.5t-54.5 -264.5z" />
    <glyph glyph-name="parenright" unicode=")" horiz-adv-x="418" 
d="M11 820h140q58 -52 100 -128t65.5 -165.5t23.5 -182.5t-23.5 -183t-65.5 -166t-100 -128h-140q101 89 155 212t54 265q0 140 -54 264t-155 212z" />
    <glyph glyph-name="asterisk" unicode="*" horiz-adv-x="471" 
d="M182 760h107l-15 -145l129 60l37 -98l-141 -38l102 -114l-87 -61l-79 127l-78 -127l-86 60l101 115l-142 38l38 98l128 -60z" />
    <glyph glyph-name="plus" unicode="+" horiz-adv-x="620" 
d="M253 577h114v-189h176v-107h-176v-188h-114v188h-176v107h176v189z" />
    <glyph glyph-name="comma" unicode="," horiz-adv-x="297" 
d="M94 142h126q0 -59 -15 -119.5t-40.5 -112.5t-58.5 -86h-103q42 65 66 148.5t25 169.5z" />
    <glyph glyph-name="hyphen" unicode="-" horiz-adv-x="433" 
d="M64 343h305v-111h-305v111z" />
    <glyph glyph-name="period" unicode="." horiz-adv-x="297" 
d="M68 72q0 34 22.5 56t57.5 22t58 -22t23 -56t-23 -56t-58 -22t-57.5 22t-22.5 56z" />
    <glyph glyph-name="slash" unicode="/" horiz-adv-x="537" 
d="M403 810h123l-392 -943h-122z" />
    <glyph glyph-name="zero" unicode="0" horiz-adv-x="620" 
d="M38 372q0 40 3.5 75.5t10.5 67.5q25 117 91.5 181t166.5 64q85 0 145.5 -46.5t93.5 -133.5t33 -208q0 -40 -3.5 -75.5t-10.5 -67.5q-24 -117 -91 -181t-167 -64q-84 0 -145 46.5t-94 133.5t-33 208zM441.5 293q3.5 36 3.5 79q0 134 -35 203.5t-100 69.5q-91 0 -121 -129
q-7 -29 -10.5 -64.5t-3.5 -79.5q0 -133 35 -203t100 -70q92 0 121 129q7 29 10.5 65z" />
    <glyph glyph-name="one" unicode="1" horiz-adv-x="620" 
d="M421 0h-129v611l-195 -87l-20 111l242 109h102v-744z" />
    <glyph glyph-name="two" unicode="2" horiz-adv-x="620" 
d="M367 248q-29 -32 -64.5 -67.5t-67.5 -65.5h311v-115h-479v101q67 63 111.5 108t78.5 85q51 60 80 102t41.5 75.5t12.5 65.5q0 52 -31 82t-84 30q-49 0 -96 -23t-83 -65l-24 112q41 41 99.5 64t122.5 23q105 0 167 -56t62 -150q0 -70 -36.5 -142t-120.5 -164z" />
    <glyph glyph-name="three" unicode="3" horiz-adv-x="620" 
d="M377 635h-299v109h447v-98l-195 -207q66 -2 114.5 -29.5t75.5 -75t27 -110.5q0 -111 -74 -175.5t-205 -64.5q-58 0 -111.5 13t-90.5 35l11 109q85 -49 186 -49q72 0 113 34.5t41 95.5q0 59 -39.5 92t-109.5 33q-17 0 -33.5 -1.5t-32.5 -6.5l-33 73z" />
    <glyph glyph-name="four" unicode="4" horiz-adv-x="620" 
d="M362 744h129v-467h94v-103h-94v-174h-121v174h-337v101zM370 589l-219 -312h219v312z" />
    <glyph glyph-name="five" unicode="5" horiz-adv-x="620" 
d="M110 744h394v-112h-282l-7 -171q41 7 69 7q82 0 141.5 -28.5t92.5 -81t33 -124.5q0 -76 -35 -132t-99 -87t-151 -31q-58 0 -114 13t-89 33l12 111q41 -22 89 -35t94 -13q75 0 118.5 37t43.5 101q0 62 -47 98.5t-129 36.5q-33 0 -75.5 -5.5t-73.5 -13.5z" />
    <glyph glyph-name="six" unicode="6" horiz-adv-x="620" 
d="M185.5 588.5q62.5 86.5 146.5 158.5l156 -6q-202 -170 -271 -328q50 50 132 50q65 0 116 -30.5t80.5 -83t29.5 -118.5q0 -72 -33.5 -127.5t-92.5 -87.5t-136 -32q-79 0 -137 32t-90 90t-32 136q0 82 34.5 171t97 175.5zM314 362q-58 0 -96.5 -38.5t-38.5 -97.5
t38.5 -97.5t96.5 -38.5t96 38.5t38 97.5q0 61 -37 98.5t-97 37.5z" />
    <glyph glyph-name="seven" unicode="7" horiz-adv-x="620" 
d="M278 -3l-135 6l275 620h-355v121h491v-108z" />
    <glyph glyph-name="eight" unicode="8" horiz-adv-x="620" 
d="M182.5 734q55.5 26 128.5 26t128 -25.5t86 -71t31 -105.5t-30.5 -104.5t-85.5 -64.5q63 -19 99.5 -69.5t36.5 -118.5q0 -65 -33.5 -114t-93.5 -76t-140 -27t-139.5 27t-92.5 76t-33 114q0 67 36 117.5t99 70.5q-55 20 -85 64.5t-30 103.5q0 60 31.5 105.5t87 71.5z
M409 302q-37 34 -99 34q-61 0 -98.5 -34t-37.5 -90q0 -55 37.5 -89.5t98.5 -34.5q62 0 99 34.5t37 89.5q0 56 -37 90zM399.5 630q-33.5 31 -89.5 31q-55 0 -89 -31t-34 -83q0 -51 34 -82t89 -31q56 0 89.5 31t33.5 82q0 52 -33.5 83z" />
    <glyph glyph-name="nine" unicode="9" horiz-adv-x="620" 
d="M132 3q201 168 272 330q-48 -52 -133 -52q-64 0 -115.5 30.5t-81 83t-29.5 118.5q0 72 33.5 128t93 87.5t135.5 31.5q79 0 137 -32t90 -89.5t32 -136.5q0 -81 -34.5 -170.5t-96.5 -176t-147 -158.5zM172 518q0 -61 37 -98.5t97 -37.5q59 0 97 39t38 97q0 60 -38 98
t-97 38q-58 0 -96 -38t-38 -98z" />
    <glyph glyph-name="colon" unicode=":" horiz-adv-x="297" 
d="M68 72q0 34 22.5 56t57.5 22t58 -22t23 -56t-23 -56t-58 -22t-57.5 22t-22.5 56zM68 435q0 34 22.5 56t57.5 22t58 -22t23 -56t-23 -56t-58 -22t-57.5 22t-22.5 56z" />
    <glyph glyph-name="semicolon" unicode=";" horiz-adv-x="297" 
d="M94 142h126q0 -59 -15 -119.5t-40.5 -112.5t-58.5 -86h-103q42 65 66 148.5t25 169.5zM68 435q0 34 22.5 56t57.5 22t58 -22t23 -56t-23 -56t-58 -22t-57.5 22t-22.5 56z" />
    <glyph glyph-name="less" unicode="&#x3c;" horiz-adv-x="620" 
d="M93 280v120l433 182v-116l-306 -124l306 -125v-119z" />
    <glyph glyph-name="equal" unicode="=" horiz-adv-x="620" 
d="M95 162v104h430v-104h-430zM95 399v104h430v-104h-430z" />
    <glyph glyph-name="greater" unicode="&#x3e;" horiz-adv-x="620" 
d="M527 400v-120l-433 -182v118l306 125l-306 124v117z" />
    <glyph glyph-name="question" unicode="?" horiz-adv-x="499" 
d="M164 251q-3 15 -3 32q0 51 15 86.5t38 62t47 47.5q34 32 53.5 59t19.5 61q0 41 -29.5 64.5t-79.5 23.5q-49 0 -94.5 -23t-82.5 -64l-30 104q35 42 95 68.5t132 26.5q66 0 116 -24t78 -67.5t28 -101.5q0 -41 -12 -71t-33.5 -56t-51.5 -54q-34 -31 -61.5 -65t-30.5 -87v-3
q-1 -5 -1.5 -9t0.5 -10h-113zM219 -6q-34 0 -57.5 22t-23.5 56q0 35 23.5 56.5t57.5 21.5q35 0 58 -21.5t23 -56.5q0 -34 -23 -56t-58 -22z" />
    <glyph glyph-name="at" unicode="@" horiz-adv-x="1019" 
d="M497 -230q-135 0 -236 52.5t-157 146.5t-56 220q0 103 39 191.5t108 155t161.5 103.5t200.5 37q124 0 217.5 -48.5t146.5 -134.5t53 -199q0 -87 -31 -155t-84.5 -107t-123.5 -39q-53 0 -88 21t-46 60q-23 -37 -62 -58.5t-83 -21.5q-52 0 -92 25t-62 70.5t-22 104.5
q0 70 29 127t78 90.5t109 33.5q46 0 82 -22.5t52 -60.5l14 67h101l-44 -260q-3 -22 -3 -35q0 -55 50 -55q36 0 64.5 28t45.5 75t17 105q0 92 -39.5 158.5t-112 102.5t-172.5 36q-87 0 -161 -29.5t-128 -82.5t-84 -124.5t-30 -156.5q0 -101 43 -175t122 -114t188 -40
q59 0 115.5 12.5t108.5 35.5l9 -92q-111 -48 -237 -48zM583.5 318q-25.5 29 -73.5 29q-54 0 -87.5 -40t-33.5 -103q0 -54 25.5 -83t73.5 -29q54 0 87.5 39.5t33.5 103.5q0 54 -25.5 83z" />
    <glyph glyph-name="A" unicode="A" horiz-adv-x="801" 
d="M327 760h146l305 -760h-146l-76 207h-319l-76 -207h-138zM516 315l-119 326l-120 -326h239z" />
    <glyph glyph-name="B" unicode="B" horiz-adv-x="712" 
d="M94 760h279q117 0 180.5 -50.5t63.5 -143.5q0 -54 -28.5 -97t-78.5 -64q68 -15 107 -65t39 -120q0 -106 -69 -163t-198 -57h-295v760zM387 101q65 0 100 31.5t35 89.5q0 121 -145 121h-157v-242h167zM357 441q67 0 99 28t32 87q0 50 -33 76.5t-95 26.5h-140v-218h137z
" />
    <glyph glyph-name="C" unicode="C" horiz-adv-x="763" 
d="M50 376q0 87 30 159.5t85 125t130.5 81.5t166.5 29q62 0 126 -16.5t110 -44.5l-23 -118q-58 29 -109.5 42.5t-104.5 13.5q-80 0 -140 -33.5t-93.5 -94t-33.5 -141.5q0 -82 33 -142t94 -92.5t143 -32.5q52 0 112 15.5t113 42.5l15 -121q-53 -28 -118.5 -44t-132.5 -16
q-120 0 -211 48.5t-141.5 136t-50.5 202.5z" />
    <glyph glyph-name="D" unicode="D" horiz-adv-x="845" 
d="M94 760h288q130 0 222 -45t141.5 -130t49.5 -204q0 -120 -50 -205.5t-145.5 -130.5t-230.5 -45h-275v760zM367 112q284 0 284 268t-284 268h-136v-536h136z" />
    <glyph glyph-name="E" unicode="E" horiz-adv-x="670" 
d="M94 760h494v-109h-363v-208h323v-110h-323v-224h378v-109h-509v760z" />
    <glyph glyph-name="F" unicode="F" horiz-adv-x="623" 
d="M94 760h480v-112h-345v-224h298v-112h-298v-312h-135v760z" />
    <glyph glyph-name="G" unicode="G" horiz-adv-x="822" 
d="M750 44q-136 -55 -288 -55q-124 0 -216.5 48t-144 134.5t-51.5 201.5q0 118 53.5 207.5t149 140t221.5 50.5q68 0 136.5 -16t123.5 -45l-23 -113q-55 27 -118 41t-125 14q-83 0 -146 -34.5t-97.5 -96t-34.5 -143.5q0 -84 33.5 -145t96.5 -94t149 -33q41 0 78.5 6t74.5 16
v181h-158v106h286v-371z" />
    <glyph glyph-name="H" unicode="H" horiz-adv-x="851" 
d="M94 760h138v-311h387v311h138v-760h-138v337h-387v-337h-138v760z" />
    <glyph glyph-name="I" unicode="I" horiz-adv-x="326" 
d="M94 760h138v-760h-138v760z" />
    <glyph glyph-name="J" unicode="J" horiz-adv-x="560" 
d="M471 263q0 -142 -62.5 -210.5t-193.5 -68.5q-49 0 -98.5 12t-81.5 31l13 112q69 -39 149 -39q74 0 105 39.5t31 133.5v487h138v-497z" />
    <glyph glyph-name="K" unicode="K" horiz-adv-x="770" 
d="M94 760h137v-332l322 332h173l-363 -363l398 -397h-187l-343 352v-352h-137v760z" />
    <glyph glyph-name="L" unicode="L" horiz-adv-x="619" 
d="M94 760h138v-646h352v-114h-490v760z" />
    <glyph glyph-name="M.alt" unicode="M" horiz-adv-x="1021" 
d="M120 760h131l261 -503l257 503h132l40 -760h-130l-23 558l-221 -431h-112l-223 424l-22 -551h-130z" />
    <glyph glyph-name="N" unicode="N" horiz-adv-x="850" 
d="M94 760h124l412 -559v559h125v-760h-123l-412 559v-559h-126v760z" />
    <glyph glyph-name="O" unicode="O" horiz-adv-x="899" 
d="M50 380q0 84 30.5 156t85 126t127.5 84t157 30q86 0 158.5 -29.5t126.5 -83t84 -126t30 -157.5q0 -84 -30.5 -156t-85 -126t-127 -84t-156.5 -30q-86 0 -159 29.5t-127 83t-84 126t-30 157.5zM706 380q0 80 -33 141.5t-90.5 96.5t-132.5 35q-74 0 -132 -35t-91 -96.5
t-33 -141.5q0 -79 33 -141t91 -97t132 -35t132 35t91 97t33 141z" />
    <glyph glyph-name="P" unicode="P" horiz-adv-x="652" 
d="M94 760h244q84 0 145.5 -30t95.5 -85t34 -129q0 -75 -34 -130.5t-95.5 -86t-145.5 -30.5h-112v-269h-132v760zM316 375q79 0 120 35.5t41 103.5t-41 104t-120 36h-90v-279h90z" />
    <glyph glyph-name="Q" unicode="Q" horiz-adv-x="899" 
d="M803 -182h-167l-143 169q-23 -3 -47 -3q-85 0 -157.5 30t-126 83.5t-83 125.5t-29.5 157q0 84 30.5 156t85 126t127.5 84t157 30q86 0 158.5 -29.5t126.5 -83t84 -126t30 -157.5q0 -84 -29.5 -154.5t-81 -122.5t-118.5 -82zM706 380q0 80 -33 141.5t-90.5 96.5t-132.5 35
q-74 0 -132 -35t-91 -96.5t-33 -141.5q0 -79 33 -141t91 -97t132 -35t132 35t91 97t33 141z" />
    <glyph glyph-name="R" unicode="R" horiz-adv-x="720" 
d="M94 760h242q85 0 147 -29.5t96 -83.5t34 -129q0 -71 -36 -124t-93 -82l204 -312h-156l-169 279q-10 -1 -19 -1h-118v-278h-132v760zM313 384q164 0 164 135t-159 135h-92v-270h87z" />
    <glyph glyph-name="S" unicode="S" horiz-adv-x="667" 
d="M313 -16q-47 0 -95 8t-89.5 22t-69.5 33l14 116q48 -29 111.5 -47.5t121.5 -18.5q72 0 113 29t41 79q0 30 -13.5 50.5t-48 38t-96.5 36.5q-84 26 -134 56.5t-72.5 72t-22.5 99.5q0 67 33 115.5t93 75.5t141 27q59 0 119 -15.5t105 -41.5l-20 -112q-43 26 -97 41t-104 15
q-65 0 -101 -26t-36 -73q0 -28 12.5 -47.5t43 -35.5t85.5 -34q91 -28 146 -60.5t79.5 -74.5t24.5 -99q0 -106 -76 -167.5t-208 -61.5z" />
    <glyph glyph-name="T" unicode="T" horiz-adv-x="705" 
d="M284 646h-249v114h635v-114h-248v-646h-138v646z" />
    <glyph glyph-name="U" unicode="U" horiz-adv-x="844" 
d="M89 760h138v-430q0 -223 195 -223q194 0 194 223v430h139v-441q0 -160 -88 -247.5t-247 -87.5q-157 0 -244 87.5t-87 247.5v441z" />
    <glyph glyph-name="V" unicode="V" horiz-adv-x="773" 
d="M24 760h152l213 -617l214 617h147l-290 -760h-146z" />
    <glyph glyph-name="W" unicode="W" horiz-adv-x="1122" 
d="M25 760h145l157 -602l172 592h127l172 -583l157 593h141l-228 -760h-135l-173 580l-170 -580h-136z" />
    <glyph glyph-name="X" unicode="X" horiz-adv-x="745" 
d="M291 397l-253 363h162l178 -275l178 275h155l-255 -368l274 -392h-163l-200 303l-197 -303h-155z" />
    <glyph glyph-name="Y" unicode="Y" horiz-adv-x="723" 
d="M430 319v-319h-137v320l-281 440h153l200 -340l199 340h147z" />
    <glyph glyph-name="Z" unicode="Z" horiz-adv-x="724" 
d="M489 648h-411v112h577v-102l-436 -546h443v-112h-609v102z" />
    <glyph glyph-name="bracketleft" unicode="[" horiz-adv-x="417" 
d="M109 820h270v-103h-153v-747h153v-103h-270v953z" />
    <glyph glyph-name="backslash" unicode="\" horiz-adv-x="537" 
d="M12 810h122l392 -943h-123z" />
    <glyph glyph-name="bracketright" unicode="]" horiz-adv-x="417" 
d="M309 -133h-270v103h152v747h-152v103h270v-953z" />
    <glyph glyph-name="asciicircum" unicode="^" horiz-adv-x="620" 
d="M257 702h107l205 -393h-125l-135 278l-136 -278h-121z" />
    <glyph glyph-name="underscore" unicode="_" horiz-adv-x="500" 
d="M0 -42h500v-100h-500v100z" />
    <glyph glyph-name="grave" unicode="`" horiz-adv-x="500" 
d="M126 776h141l107 -166h-111z" />
    <glyph glyph-name="a" unicode="a" horiz-adv-x="659" 
d="M582 0h-121l-2 80q-56 -96 -177 -96q-68 0 -121.5 34.5t-83.5 95t-30 138.5q0 77 32.5 138t87.5 97t123 36q54 0 98.5 -25t70.5 -71l2 80h121v-507zM463 253q0 70 -40 113.5t-104 43.5t-104.5 -43.5t-40.5 -113.5q0 -69 40.5 -113t104.5 -44t104 44t40 113z" />
    <glyph glyph-name="b" unicode="b" horiz-adv-x="659" 
d="M78 810h126v-377q57 90 173 90q69 0 122 -34.5t83 -95t30 -139.5q0 -76 -32.5 -137t-87.5 -97t-123 -36q-56 0 -100 25t-69 71l-2 -80h-120v810zM341 410q-64 0 -104.5 -43.5t-40.5 -113.5q0 -69 40.5 -113t104.5 -44t104 44t40 113q0 70 -40 113.5t-104 43.5z" />
    <glyph glyph-name="c" unicode="c" horiz-adv-x="541" 
d="M179.5 486q62.5 34 144.5 34q43 0 86.5 -10t74.5 -28l-16 -106q-31 15 -66.5 23.5t-68.5 8.5q-73 0 -116.5 -41.5t-43.5 -112.5q0 -73 44 -114t121 -41q64 0 139 31l14 -103q-34 -19 -78 -29.5t-89 -10.5q-84 0 -146.5 32.5t-97 92t-34.5 139.5t35 140.5t97.5 94.5z" />
    <glyph glyph-name="d" unicode="d" horiz-adv-x="659" 
d="M582 0h-121l-2 81q-27 -47 -72.5 -72t-104.5 -25q-68 0 -121.5 34.5t-83.5 95t-30 138.5q0 77 32.5 138t87.5 97t123 36q52 0 95.5 -24t70.5 -68v379h126v-810zM463 253q0 70 -40 113.5t-104 43.5t-104.5 -43.5t-40.5 -113.5q0 -69 40.5 -113t104.5 -44t104 44t40 113z
" />
    <glyph glyph-name="e" unicode="e" horiz-adv-x="598" 
d="M339 -16q-90 0 -155.5 32.5t-101 92.5t-35.5 143q0 80 33 141t91 95.5t134 34.5q72 0 125.5 -31t82.5 -87.5t29 -132.5q0 -25 -3 -51h-368q9 -69 55.5 -102.5t125.5 -33.5q42 0 86 10t82 28l13 -96q-37 -20 -89 -31.5t-105 -11.5zM213 395.5q-34 -33.5 -42 -94.5h252
q0 10 -2 20q-7 52 -38.5 80t-82.5 28q-53 0 -87 -33.5z" />
    <glyph glyph-name="f" unicode="f" horiz-adv-x="421" 
d="M119 403h-94v104h94v67q0 117 54.5 179t156.5 62q31 0 62 -6t52 -16l-13 -103q-18 7 -39 11t-41 4q-55 0 -80.5 -33.5t-25.5 -108.5v-56h142v-104h-142v-403h-126v403z" />
    <glyph glyph-name="g" unicode="g" horiz-adv-x="659" 
d="M582 35q0 -143 -71.5 -216t-211.5 -73q-55 0 -110 12.5t-84 31.5l14 107q33 -20 79 -32t90 -12q171 0 171 174v56q-27 -45 -72.5 -70t-103.5 -25q-69 0 -122 34t-83.5 94t-30.5 138q0 76 32.5 136.5t88 96.5t123.5 36q54 0 97.5 -25t70.5 -71l2 80h121v-472zM463 255
q0 70 -40 113.5t-104 43.5t-104.5 -43.5t-40.5 -113.5q0 -69 40.5 -113t104.5 -44t104 44t40 113z" />
    <glyph glyph-name="h" unicode="h" horiz-adv-x="616" 
d="M78 810h126v-374q22 42 63 64.5t93 22.5q88 0 135 -56t47 -160v-307h-126v284q0 127 -98 127q-54 0 -84 -35.5t-30 -100.5v-275h-126v810z" />
    <glyph glyph-name="i" unicode="i" horiz-adv-x="281" 
d="M78 507h126v-507h-126v507zM140 770q33 0 54.5 -22t21.5 -54q0 -33 -21.5 -54.5t-54.5 -21.5t-55 21.5t-22 54.5q0 32 22 54t55 22z" />
    <glyph glyph-name="j.alt" unicode="j" horiz-adv-x="281" 
d="M204 -41q0 -213 -196 -213q-33 0 -65 7t-51 17l13 104q21 -9 42.5 -14t43.5 -5q44 0 65.5 26.5t21.5 82.5v543h126v-548zM140 770q33 0 54.5 -22t21.5 -54q0 -33 -21.5 -54.5t-54.5 -21.5t-55 21.5t-22 54.5q0 32 22 54t55 22z" />
    <glyph glyph-name="k" unicode="k" horiz-adv-x="598" 
d="M78 810h126v-499l198 196h152l-233 -225l272 -282h-162l-227 241v-241h-126v810z" />
    <glyph glyph-name="l" unicode="l" horiz-adv-x="281" 
d="M78 810h126v-810h-126v810z" />
    <glyph glyph-name="m" unicode="m" horiz-adv-x="940" 
d="M78 507h121l1 -75q21 43 62 67t95 24q116 0 158 -101q21 47 66 74t101 27q89 0 136.5 -55.5t47.5 -160.5v-307h-126v284q0 127 -97 127q-52 0 -80.5 -35.5t-28.5 -100.5v-275h-125v285q0 126 -96 126q-52 0 -81 -35.5t-29 -100.5v-275h-125v507z" />
    <glyph glyph-name="n" unicode="n" horiz-adv-x="616" 
d="M78 507h121l2 -77q21 44 62.5 68.5t96.5 24.5q88 0 135 -56t47 -160v-307h-126v284q0 127 -98 127q-54 0 -84 -35.5t-30 -100.5v-275h-126v507z" />
    <glyph glyph-name="o" unicode="o" horiz-adv-x="637" 
d="M47 253q0 77 36 138t97.5 96.5t138.5 35.5q78 0 139 -35t96.5 -96t35.5 -139q0 -76 -36 -137t-97 -96.5t-138 -35.5q-78 0 -139.5 35t-97 96t-35.5 138zM463 253q0 70 -40 113.5t-104 43.5t-104.5 -43.5t-40.5 -113.5q0 -69 40.5 -113t104.5 -44t104 44t40 113z" />
    <glyph glyph-name="p" unicode="p" horiz-adv-x="659" 
d="M78 507h118l2 -83q27 48 73 73.5t106 25.5q69 0 122 -34.5t83 -95t30 -139.5q0 -76 -32.5 -137t-87.5 -97t-123 -36q-110 0 -165 89v-318h-126v752zM445 140q40 44 40 113q0 70 -40 113.5t-104 43.5t-104.5 -43.5t-40.5 -113.5q0 -69 40.5 -113t104.5 -44t104 44z" />
    <glyph glyph-name="q" unicode="q" horiz-adv-x="659" 
d="M582 -245h-126v320q-27 -43 -72 -67t-102 -24q-68 0 -121.5 34.5t-83.5 95t-30 138.5q0 77 32.5 138t87.5 97t123 36q54 0 98 -25t71 -71l2 80h121v-752zM319 410q-64 0 -104.5 -43.5t-40.5 -113.5q0 -69 40.5 -113t104.5 -44t104 44t40 113q0 70 -40 113.5t-104 43.5z
" />
    <glyph glyph-name="r" unicode="r" horiz-adv-x="430" 
d="M78 507h121l1 -101q19 52 56 80.5t86 28.5q16 0 32.5 -3t26.5 -8l-11 -118q-31 12 -63 12q-59 0 -91 -42.5t-32 -120.5v-235h-126v507z" />
    <glyph glyph-name="s" unicode="s" horiz-adv-x="485" 
d="M57 130q35 -23 79.5 -37t84.5 -14q47 0 72 15t25 42q0 18 -8.5 29.5t-30.5 21.5t-64 22q-89 25 -127 61.5t-38 97.5q0 73 54 114t148 41q46 0 92 -11.5t75 -28.5l-16 -95q-71 40 -147 40q-84 0 -84 -53q0 -25 20 -39.5t76 -30.5q95 -28 135 -65.5t40 -100.5
q0 -71 -58 -113t-159 -42q-52 0 -103 13.5t-82 35.5z" />
    <glyph glyph-name="t.alt" unicode="t" horiz-adv-x="455" 
d="M114 403h-102v104h102v139h126v-139h163v-104h-163v-203q0 -56 19.5 -80.5t63.5 -24.5q47 0 92 23l14 -104q-25 -15 -61 -22.5t-77 -7.5q-90 0 -133.5 47.5t-43.5 147.5v224z" />
    <glyph glyph-name="u.alt" unicode="u" horiz-adv-x="614" 
d="M537 0h-122l-2 76q-20 -44 -63 -68t-101 -24q-85 0 -130 52.5t-45 152.5v318h126v-288q0 -65 23 -94t75 -29q53 0 83 36t30 100v275h126v-507z" />
    <glyph glyph-name="v" unicode="v" horiz-adv-x="561" 
d="M17 507h138l128 -382l131 382h130l-199 -507h-129z" />
    <glyph glyph-name="w" unicode="w" horiz-adv-x="845" 
d="M22 507h131l102 -374l112 374h107l118 -374l102 374h129l-170 -507h-115l-119 358l-114 -358h-112z" />
    <glyph glyph-name="x" unicode="x" horiz-adv-x="575" 
d="M552 0h-145l-126 186l-122 -186h-136l191 260l-182 247h144l114 -168l110 168h135l-177 -245z" />
    <glyph glyph-name="y" unicode="y" horiz-adv-x="581" 
d="M225 -245h-129l135 281l-214 471h138l140 -343l135 343h134z" />
    <glyph glyph-name="z" unicode="z" horiz-adv-x="537" 
d="M322 403h-266v104h423v-92l-279 -311h286v-104h-441v92z" />
    <glyph glyph-name="braceleft" unicode="{" horiz-adv-x="438" 
d="M47 391h27q51 0 70.5 17t19.5 61q0 35 -7 68t-14 64.5t-7 61.5q0 81 48 119.5t148 38.5q14 0 30.5 -0.5t28.5 -2.5v-99q-7 1 -16 1h-30q-92 0 -92 -75q0 -24 7 -55t13.5 -65.5t6.5 -68.5q0 -42 -20.5 -73t-57.5 -45q37 -13 57.5 -43.5t20.5 -73.5q0 -34 -6.5 -68.5
t-13.5 -65.5t-7 -55q0 -75 92 -75h30t16 1v-99q-12 -1 -28.5 -2t-30.5 -1q-100 0 -148 38.5t-48 119.5q0 30 7 61.5t14 65t7 67.5q0 44 -19.5 61t-70.5 17h-27v105z" />
    <glyph glyph-name="bar" unicode="|" horiz-adv-x="326" 
d="M104 866h118v-1093h-118v1093z" />
    <glyph glyph-name="braceright" unicode="}" horiz-adv-x="438" 
d="M391 286h-27q-51 0 -70.5 -17t-19.5 -61q0 -34 7 -67.5t14 -65t7 -61.5q0 -81 -47.5 -119.5t-148.5 -38.5q-14 0 -30.5 1t-28.5 2v99q9 -1 45 -1q93 0 93 75q0 24 -7 55t-14 65.5t-7 68.5q0 42 21 73t58 45q-37 13 -58 43.5t-21 73.5q0 34 7 68.5t14 65.5t7 55
q0 75 -93 75h-28.5t-16.5 -1v99q12 2 28.5 2.5t30.5 0.5q101 0 148.5 -38.5t47.5 -119.5q0 -30 -7 -61.5t-14 -64.5t-7 -68q0 -44 19.5 -61t70.5 -17h27v-105z" />
    <glyph glyph-name="asciitilde" unicode="~" horiz-adv-x="620" 
d="M90.5 397.5q42.5 49.5 109.5 49.5q35 0 65 -12.5t61 -38.5q30 -25 47.5 -35.5t36.5 -10.5q26 0 41.5 22.5t18.5 74.5h102v-7q0 -103 -42.5 -153t-109.5 -50q-34 0 -64 13t-62 39q-30 24 -47.5 35t-36.5 11q-26 0 -41.5 -22.5t-18.5 -75.5h-102v7q0 104 42.5 153.5z" />
    <glyph glyph-name="uni00A0" unicode="&#xa0;" horiz-adv-x="220" 
 />
    <glyph glyph-name="exclamdown" unicode="&#xa1;" horiz-adv-x="340" 
d="M102 -283l11 539h114l11 -539h-136zM112 491q23 22 58 22t58 -22t23 -56t-23 -56t-58 -22t-58 22t-23 56t23 56z" />
    <glyph glyph-name="cent" unicode="&#xa2;" horiz-adv-x="620" 
d="M375 97q34 1 65.5 8t69.5 23l14 -100q-30 -17 -69 -27.5t-80 -12.5v-120h-67v123q-64 10 -114 43.5t-78 88t-28 126.5q0 74 28.5 130t78.5 91.5t113 44.5v124h67v-120q80 -4 142 -38l-16 -103q-29 14 -63.5 22t-62.5 10v-313zM234 158.5q27 -38.5 74 -53.5v297
q-48 -15 -74.5 -54.5t-26.5 -93.5q0 -57 27 -95.5z" />
    <glyph glyph-name="sterling" unicode="&#xa3;" horiz-adv-x="620" 
d="M157 315h-92v101h92v53q0 140 67 215.5t193 75.5q42 0 83 -10t72 -27l-20 -104q-67 33 -129 33q-144 0 -144 -189v-47h203v-101h-203v-209h300v-106h-519v106h97v209z" />
    <glyph glyph-name="currency" unicode="&#xa4;" horiz-adv-x="620" 
d="M310 193q-71 0 -127 37l-78 -86l-74 67l85 92q-28 52 -28 114t28 114l-85 92l74 67l78 -86q56 37 127 37t127 -37l78 86l74 -67l-85 -92q28 -52 28 -114t-28 -114l85 -92l-74 -67l-78 86q-56 -37 -127 -37zM397 512q-34 36 -87 36t-87 -36t-34 -95q0 -58 34 -94.5
t87 -36.5t87 36.5t34 94.5q0 59 -34 95z" />
    <glyph glyph-name="yen" unicode="&#xa5;" horiz-adv-x="620" 
d="M10 744h142l161 -320l160 320h137l-195 -347h151v-79h-195v-91h195v-79h-195v-148h-121v148h-199v79h199v91h-199v79h154z" />
    <glyph glyph-name="brokenbar" unicode="&#xa6;" horiz-adv-x="326" 
d="M104 -227v445h118v-445h-118zM104 421v445h118v-445h-118z" />
    <glyph glyph-name="section" unicode="&#xa7;" horiz-adv-x="522" 
d="M241 -122q-54 0 -106.5 14t-85.5 37l16 97q82 -54 176 -54q42 0 67 19t25 51q0 29 -22.5 46.5t-83.5 35.5q-93 27 -136 70t-43 108q0 56 31.5 97.5t86.5 56.5q-50 24 -73.5 58t-23.5 81q0 71 54.5 112.5t145.5 41.5q48 0 93.5 -10t79.5 -30l-16 -93q-72 39 -153 39
q-40 0 -62.5 -15t-22.5 -41q0 -25 22 -41t86 -39q95 -34 135.5 -75.5t40.5 -107.5q0 -53 -28.5 -93t-79.5 -58q93 -46 93 -136q0 -79 -58 -125t-158 -46zM261 227q42 0 69 27.5t27 70.5q0 40 -27 65t-71 25q-42 0 -69 -27t-27 -70q0 -40 27.5 -65.5t70.5 -25.5z" />
    <glyph glyph-name="dieresis" unicode="&#xa8;" horiz-adv-x="500" 
d="M144 754q30 0 49 -18.5t19 -47.5t-19 -47.5t-49 -18.5t-48.5 18t-18.5 48q0 29 19 47.5t48 18.5zM355 754q30 0 49 -18.5t19 -47.5t-19 -47.5t-49 -18.5t-48.5 18t-18.5 48q0 29 19 47.5t48 18.5z" />
    <glyph glyph-name="copyright" unicode="&#xa9;" horiz-adv-x="796" 
d="M39 380q0 76 27 141t75.5 113t114 74.5t142.5 26.5t142.5 -26.5t114 -74.5t75.5 -113t27 -141t-27 -141t-75.5 -113t-114 -74.5t-142.5 -26.5t-142.5 26.5t-114 74.5t-75.5 113t-27 141zM676 380q0 82 -35.5 144.5t-98.5 98.5t-144 36t-143.5 -36t-98.5 -98.5t-36 -144.5
q0 -81 36 -144t98.5 -99t143.5 -36t144 36t98.5 99t35.5 144zM244 480.5q25 43.5 69.5 67.5t102.5 24q30 0 60 -6.5t50 -17.5l-14 -89q-19 9 -44.5 15t-46.5 6q-43 0 -71 -27t-28 -70q0 -44 28.5 -70t77.5 -26q38 0 92 21l13 -87q-52 -26 -118 -26q-90 0 -143 50t-53 135
q0 57 25 100.5z" />
    <glyph glyph-name="ordfeminine" unicode="&#xaa;" horiz-adv-x="466" 
d="M413 404h-91l-2 52q-18 -29 -47.5 -46t-62.5 -17q-47 0 -84.5 24t-59 66t-21.5 94q0 51 22.5 92.5t60.5 66t83 24.5q32 0 61 -16t46 -43l2 49h93v-346zM414 323v-86h-349v86h349zM318 577q0 42 -23.5 68.5t-61.5 26.5q-39 0 -63 -26.5t-24 -68.5q0 -43 23.5 -69t61.5 -26
q39 0 63 26t24 69z" />
    <glyph glyph-name="guillemotleft" unicode="&#xab;" horiz-adv-x="592" 
d="M30 257l148 218h138l-151 -218l151 -218h-138zM269 257l148 218h138l-151 -218l151 -218h-138z" />
    <glyph glyph-name="logicalnot" unicode="&#xac;" horiz-adv-x="620" 
d="M534 160h-116v151h-332v108h448v-259z" />
    <glyph glyph-name="uni00AD" unicode="&#xad;" horiz-adv-x="433" 
d="M64 343h305v-111h-305v111z" />
    <glyph glyph-name="registered" unicode="&#xae;" horiz-adv-x="509" 
d="M63 717.5q29 49.5 79.5 78t112.5 28.5q63 0 112.5 -28.5t78.5 -78t29 -111.5q0 -61 -29 -110.5t-78.5 -78.5t-112.5 -29q-62 0 -112.5 29t-79.5 78.5t-29 110.5q0 62 29 111.5zM396 691.5q-21 37.5 -57.5 58.5t-83.5 21t-84 -21t-58 -58.5t-21 -85.5t21 -85t58 -58.5
t84 -21.5t83.5 21.5t57.5 58.5t21 85t-21 85.5zM309 583l44 -76h-63l-30 61h-31v-61h-57v207h79q44 0 67.5 -18t23.5 -52q0 -43 -33 -61zM283 642q0 25 -34 25h-20v-52h20q34 0 34 27z" />
    <glyph glyph-name="macron" unicode="&#xaf;" horiz-adv-x="500" 
d="M91 729h318v-93h-318v93z" />
    <glyph glyph-name="degree" unicode="&#xb0;" horiz-adv-x="494" 
d="M247 421q-51 0 -92 23t-64.5 63t-23.5 91q0 50 24 90t65 63.5t91 23.5q51 0 92 -23t64.5 -63t23.5 -91q0 -49 -24 -89.5t-64.5 -64t-91.5 -23.5zM307.5 662q-23.5 25 -60.5 25t-60.5 -25t-23.5 -64t23.5 -63.5t60.5 -24.5t60.5 24.5t23.5 63.5t-23.5 64z" />
    <glyph glyph-name="plusminus" unicode="&#xb1;" horiz-adv-x="620" 
d="M253 360h-176v106h176v185h114v-185h176v-106h-176v-185h-114v185zM77 108h466v-108h-466v108z" />
    <glyph glyph-name="uni00B2" unicode="&#xb2;" horiz-adv-x="389" 
d="M226 585q-14 -13 -27.5 -24.5t-27.5 -22.5h170v-82h-296v81q29 20 60 47t54 49q40 38 56 63t16 49q0 22 -16.5 35t-44.5 13q-52 0 -105 -50l-17 78q23 24 60.5 38.5t77.5 14.5q63 0 102 -33t39 -86q0 -81 -101 -170z" />
    <glyph glyph-name="uni00B3" unicode="&#xb3;" horiz-adv-x="389" 
d="M217 786h-163v78h267v-74l-98 -91q52 -6 82.5 -38t30.5 -79q0 -61 -47 -98.5t-126 -37.5q-75 0 -119 27l8 77q23 -13 52 -20t56 -7q38 0 59.5 16.5t21.5 44.5q0 25 -20 39t-55 14q-22 0 -39 -5l-22 49z" />
    <glyph glyph-name="acute" unicode="&#xb4;" horiz-adv-x="500" 
d="M254 776h142l-138 -166h-110z" />
    <glyph glyph-name="mu" unicode="&#xb5;" horiz-adv-x="616" 
d="M76 507h126v-288q0 -64 23 -93.5t75 -29.5q53 0 83 36t30 100v275h126v-507h-122l-2 75q-17 -41 -52.5 -66t-78.5 -25q-52 0 -82 32v-261h-126v752z" />
    <glyph glyph-name="paragraph" unicode="&#xb6;" horiz-adv-x="636" 
d="M556 -130h-108v789h-99v-789h-108v471q-101 11 -155.5 65t-54.5 143q0 100 68 155.5t190 55.5h267v-890z" />
    <glyph glyph-name="periodcentered" unicode="&#xb7;" horiz-adv-x="297" 
d="M68 379q0 34 22.5 56t57.5 22t58 -22t23 -56t-23 -56t-58 -22t-57.5 22t-22.5 56z" />
    <glyph glyph-name="cedilla" unicode="&#xb8;" horiz-adv-x="500" 
d="M217 10h75l-21 -71q46 -1 74 -26.5t28 -66.5q0 -49 -38.5 -77.5t-104.5 -28.5q-25 0 -53 5.5t-41 12.5l15 70q14 -6 32 -10t37 -4q57 0 57 37q0 35 -59 35q-24 0 -36 -3z" />
    <glyph glyph-name="uni00B9" unicode="&#xb9;" horiz-adv-x="389" 
d="M277 456h-97v311l-108 -49l-14 85l135 61h84v-408z" />
    <glyph glyph-name="ordmasculine" unicode="&#xba;" horiz-adv-x="464" 
d="M45 577q0 53 24.5 94.5t67 65t95.5 23.5q54 0 96 -23.5t66.5 -65t24.5 -94.5t-24.5 -94.5t-66.5 -65.5t-96 -24q-53 0 -95.5 24t-67 65.5t-24.5 94.5zM57 237v86h349v-86h-349zM146 577q0 -43 23.5 -69t61.5 -26q39 0 63 26t24 69q0 42 -23.5 68.5t-61.5 26.5
q-39 0 -63 -26.5t-24 -68.5z" />
    <glyph glyph-name="guillemotright" unicode="&#xbb;" horiz-adv-x="592" 
d="M188 257l-151 218h138l148 -218l-148 -218h-138zM427 257l-151 218h138l148 -218l-148 -218h-138z" />
    <glyph glyph-name="onequarter" unicode="&#xbc;" horiz-adv-x="954" 
d="M710 744h112l-535 -744h-112zM872 160h49v-73h-49v-87h-86v87h-196v74l185 247h97v-248zM786 160v148l-111 -148h111zM277 336h-97v311l-108 -49l-14 85l135 61h84v-408z" />
    <glyph glyph-name="onehalf" unicode="&#xbd;" horiz-adv-x="954" 
d="M674 744h112l-535 -744h-112zM791 129q-14 -13 -27.5 -24.5t-27.5 -22.5h170v-82h-296v81q29 20 60 47t54 49q40 38 56 63t16 49q0 22 -16.5 35t-44.5 13q-52 0 -105 -50l-17 78q23 24 60.5 38.5t77.5 14.5q63 0 102 -33t39 -86q0 -81 -101 -170zM277 336h-97v311
l-108 -49l-14 85l135 61h84v-408z" />
    <glyph glyph-name="threequarters" unicode="&#xbe;" horiz-adv-x="954" 
d="M711 744h112l-535 -744h-112zM872 160h49v-73h-49v-87h-86v87h-196v74l185 247h97v-248zM786 160v148l-111 -148h111zM217 666h-163v78h267v-74l-98 -91q52 -6 82.5 -38t30.5 -79q0 -61 -47 -98.5t-126 -37.5q-75 0 -119 27l8 77q23 -13 52 -20t56 -7q38 0 59.5 16.5
t21.5 44.5q0 25 -20 39t-55 14q-22 0 -39 -5l-22 49z" />
    <glyph glyph-name="questiondown" unicode="&#xbf;" horiz-adv-x="499" 
d="M253 -292q-65 0 -115 24t-78 67.5t-28 100.5q0 45 14.5 77t36.5 57t46 47q34 32 61.5 66t30.5 86q1 7 1 11.5v11.5h113q3 -15 3 -32q0 -50 -15 -86.5t-38.5 -63t-47.5 -48.5q-28 -27 -50 -53.5t-22 -64.5q0 -41 29 -64.5t80 -23.5q48 0 93.5 23t82.5 64l30 -105
q-34 -41 -94.5 -67.5t-132.5 -26.5zM337 378.5q-23 -21.5 -57 -21.5t-57.5 21.5t-23.5 56.5t23.5 56.5t57.5 21.5t57 -21.5t23 -56.5t-23 -56.5z" />
    <glyph glyph-name="Agrave" unicode="&#xc0;" horiz-adv-x="801" 
d="M327 760h146l305 -760h-146l-76 207h-319l-76 -207h-138zM516 315l-119 326l-120 -326h239zM226 975h155l113 -140h-121z" />
    <glyph glyph-name="Aacute" unicode="&#xc1;" horiz-adv-x="801" 
d="M327 760h146l305 -760h-146l-76 207h-319l-76 -207h-138zM516 315l-119 326l-120 -326h239zM418 975h155l-147 -140h-122z" />
    <glyph glyph-name="Acircumflex" unicode="&#xc2;" horiz-adv-x="801" 
d="M327 760h146l305 -760h-146l-76 207h-319l-76 -207h-138zM516 315l-119 326l-120 -326h239zM339 984h122l142 -149h-129l-74 80l-74 -80h-129z" />
    <glyph glyph-name="Atilde" unicode="&#xc3;" horiz-adv-x="801" 
d="M327 760h146l305 -760h-146l-76 207h-319l-76 -207h-138zM516 315l-119 326l-120 -326h239zM325 986q27 0 47 -9.5t35.5 -21.5t28.5 -21.5t28 -9.5q33 0 33 60h86q0 -151 -108 -151q-27 0 -47 9t-35 21.5t-28 21.5t-28 9q-33 0 -33 -60h-87q0 152 108 152z" />
    <glyph glyph-name="Adieresis" unicode="&#xc4;" horiz-adv-x="801" 
d="M327 760h146l305 -760h-146l-76 207h-319l-76 -207h-138zM516 315l-119 326l-120 -326h239zM292 967q31 0 50.5 -19t19.5 -49q0 -29 -19.5 -47.5t-50.5 -18.5q-30 0 -49.5 18.5t-19.5 47.5q0 30 19.5 49t49.5 19zM507 967q31 0 50.5 -19t19.5 -49q0 -29 -19.5 -47.5
t-50.5 -18.5q-30 0 -49.5 18.5t-19.5 47.5q0 30 19.5 49t49.5 19z" />
    <glyph glyph-name="Aring" unicode="&#xc5;" horiz-adv-x="801" 
d="M327 760h146l305 -760h-146l-76 207h-319l-76 -207h-138zM516 315l-119 326l-120 -326h239zM400 1079q59 0 98.5 -37.5t39.5 -93.5q0 -37 -18 -66.5t-49 -47t-71 -17.5q-39 0 -70.5 17.5t-49.5 47t-18 66.5q0 56 39.5 93.5t98.5 37.5zM400 1010q-28 0 -45 -16.5
t-17 -45.5q0 -28 17 -45t45 -17q29 0 45.5 17t16.5 45q0 29 -16.5 45.5t-45.5 16.5z" />
    <glyph glyph-name="AE" unicode="&#xc6;" horiz-adv-x="1105" 
d="M474 760h549v-109h-364v-208h329v-110h-329v-224h379v-109h-509v207h-256l-120 -207h-145zM529 315v333l-193 -333h193z" />
    <glyph glyph-name="Ccedilla" unicode="&#xc7;" horiz-adv-x="763" 
d="M50 376q0 87 30 159.5t85 125t130.5 81.5t166.5 29q62 0 126 -16.5t110 -44.5l-23 -118q-58 29 -109.5 42.5t-104.5 13.5q-80 0 -140 -33.5t-93.5 -94t-33.5 -141.5q0 -82 33 -142t94 -92.5t143 -32.5q52 0 112 15.5t113 42.5l15 -121q-53 -28 -118.5 -44t-132.5 -16
q-120 0 -211 48.5t-141.5 136t-50.5 202.5zM378 10h79l-21 -70q45 -2 73.5 -27.5t28.5 -65.5q0 -51 -39.5 -79t-110.5 -28q-24 0 -50.5 5.5t-39.5 12.5l15 73q28 -14 68 -14q55 0 55 34q0 32 -57 32q-22 0 -36 -2z" />
    <glyph glyph-name="Egrave" unicode="&#xc8;" horiz-adv-x="670" 
d="M94 760h494v-109h-363v-208h323v-110h-323v-224h378v-109h-509v760zM173 975h155l113 -140h-121z" />
    <glyph glyph-name="Eacute" unicode="&#xc9;" horiz-adv-x="670" 
d="M94 760h494v-109h-363v-208h323v-110h-323v-224h378v-109h-509v760zM365 975h155l-147 -140h-122z" />
    <glyph glyph-name="Ecircumflex" unicode="&#xca;" horiz-adv-x="670" 
d="M94 760h494v-109h-363v-208h323v-110h-323v-224h378v-109h-509v760zM286 984h122l142 -149h-129l-74 80l-74 -80h-129z" />
    <glyph glyph-name="Edieresis" unicode="&#xcb;" horiz-adv-x="670" 
d="M94 760h494v-109h-363v-208h323v-110h-323v-224h378v-109h-509v760zM239 967q31 0 50.5 -19t19.5 -49q0 -29 -19.5 -47.5t-50.5 -18.5q-30 0 -49.5 18.5t-19.5 47.5q0 30 19.5 49t49.5 19zM454 967q31 0 50.5 -19t19.5 -49q0 -29 -19.5 -47.5t-50.5 -18.5
q-30 0 -49.5 18.5t-19.5 47.5q0 30 19.5 49t49.5 19z" />
    <glyph glyph-name="Igrave" unicode="&#xcc;" horiz-adv-x="326" 
d="M94 760h138v-760h-138v760zM-11 975h155l113 -140h-121z" />
    <glyph glyph-name="Iacute" unicode="&#xcd;" horiz-adv-x="326" 
d="M94 760h138v-760h-138v760zM181 975h155l-147 -140h-122z" />
    <glyph glyph-name="Icircumflex" unicode="&#xce;" horiz-adv-x="326" 
d="M94 760h138v-760h-138v760zM102 984h122l142 -149h-129l-74 80l-74 -80h-129z" />
    <glyph glyph-name="Idieresis" unicode="&#xcf;" horiz-adv-x="326" 
d="M94 760h138v-760h-138v760zM55 967q31 0 50.5 -19t19.5 -49q0 -29 -19.5 -47.5t-50.5 -18.5q-30 0 -49.5 18.5t-19.5 47.5q0 30 19.5 49t49.5 19zM270 967q31 0 50.5 -19t19.5 -49q0 -29 -19.5 -47.5t-50.5 -18.5q-30 0 -49.5 18.5t-19.5 47.5q0 30 19.5 49t49.5 19z" />
    <glyph glyph-name="Eth" unicode="&#xd0;" horiz-adv-x="861" 
d="M110 0v336h-95v93h95v331h288q130 0 222 -45t141.5 -130t49.5 -204q0 -120 -50.5 -205.5t-145.5 -130.5t-230 -45h-275zM247 112h136q284 0 284 268t-284 268h-136v-219h170v-93h-170v-224z" />
    <glyph glyph-name="Ntilde" unicode="&#xd1;" horiz-adv-x="850" 
d="M94 760h124l412 -559v559h125v-760h-123l-412 559v-559h-126v760zM346 986q27 0 47 -9.5t35.5 -21.5t28.5 -21.5t28 -9.5q33 0 33 60h86q0 -151 -108 -151q-27 0 -47 9t-35 21.5t-28 21.5t-28 9q-33 0 -33 -60h-87q0 152 108 152z" />
    <glyph glyph-name="Ograve" unicode="&#xd2;" horiz-adv-x="899" 
d="M50 380q0 84 30.5 156t85 126t127.5 84t157 30q86 0 158.5 -29.5t126.5 -83t84 -126t30 -157.5q0 -84 -30.5 -156t-85 -126t-127 -84t-156.5 -30q-86 0 -159 29.5t-127 83t-84 126t-30 157.5zM706 380q0 80 -33 141.5t-90.5 96.5t-132.5 35q-74 0 -132 -35t-91 -96.5
t-33 -141.5q0 -79 33 -141t91 -97t132 -35t132 35t91 97t33 141zM276 975h155l113 -140h-121z" />
    <glyph glyph-name="Oacute" unicode="&#xd3;" horiz-adv-x="899" 
d="M50 380q0 84 30.5 156t85 126t127.5 84t157 30q86 0 158.5 -29.5t126.5 -83t84 -126t30 -157.5q0 -84 -30.5 -156t-85 -126t-127 -84t-156.5 -30q-86 0 -159 29.5t-127 83t-84 126t-30 157.5zM706 380q0 80 -33 141.5t-90.5 96.5t-132.5 35q-74 0 -132 -35t-91 -96.5
t-33 -141.5q0 -79 33 -141t91 -97t132 -35t132 35t91 97t33 141zM468 975h155l-147 -140h-122z" />
    <glyph glyph-name="Ocircumflex" unicode="&#xd4;" horiz-adv-x="899" 
d="M50 380q0 84 30.5 156t85 126t127.5 84t157 30q86 0 158.5 -29.5t126.5 -83t84 -126t30 -157.5q0 -84 -30.5 -156t-85 -126t-127 -84t-156.5 -30q-86 0 -159 29.5t-127 83t-84 126t-30 157.5zM706 380q0 80 -33 141.5t-90.5 96.5t-132.5 35q-74 0 -132 -35t-91 -96.5
t-33 -141.5q0 -79 33 -141t91 -97t132 -35t132 35t91 97t33 141zM389 984h122l142 -149h-129l-74 80l-74 -80h-129z" />
    <glyph glyph-name="Otilde" unicode="&#xd5;" horiz-adv-x="899" 
d="M50 380q0 84 30.5 156t85 126t127.5 84t157 30q86 0 158.5 -29.5t126.5 -83t84 -126t30 -157.5q0 -84 -30.5 -156t-85 -126t-127 -84t-156.5 -30q-86 0 -159 29.5t-127 83t-84 126t-30 157.5zM706 380q0 80 -33 141.5t-90.5 96.5t-132.5 35q-74 0 -132 -35t-91 -96.5
t-33 -141.5q0 -79 33 -141t91 -97t132 -35t132 35t91 97t33 141zM375 986q27 0 47 -9.5t35.5 -21.5t28.5 -21.5t28 -9.5q33 0 33 60h86q0 -151 -108 -151q-27 0 -47 9t-35 21.5t-28 21.5t-28 9q-33 0 -33 -60h-87q0 152 108 152z" />
    <glyph glyph-name="Odieresis" unicode="&#xd6;" horiz-adv-x="899" 
d="M50 380q0 84 30.5 156t85 126t127.5 84t157 30q86 0 158.5 -29.5t126.5 -83t84 -126t30 -157.5q0 -84 -30.5 -156t-85 -126t-127 -84t-156.5 -30q-86 0 -159 29.5t-127 83t-84 126t-30 157.5zM706 380q0 80 -33 141.5t-90.5 96.5t-132.5 35q-74 0 -132 -35t-91 -96.5
t-33 -141.5q0 -79 33 -141t91 -97t132 -35t132 35t91 97t33 141zM342 967q31 0 50.5 -19t19.5 -49q0 -29 -19.5 -47.5t-50.5 -18.5q-30 0 -49.5 18.5t-19.5 47.5q0 30 19.5 49t49.5 19zM557 967q31 0 50.5 -19t19.5 -49q0 -29 -19.5 -47.5t-50.5 -18.5q-30 0 -49.5 18.5
t-19.5 47.5q0 30 19.5 49t49.5 19z" />
    <glyph glyph-name="multiply" unicode="&#xd7;" horiz-adv-x="620" 
d="M308 263l-141 -141l-73 73l141 141l-141 141l76 76l141 -140l140 140l74 -73l-141 -141l142 -141l-77 -76z" />
    <glyph glyph-name="Oslash" unicode="&#xd8;" horiz-adv-x="899" 
d="M50 380q0 84 30.5 156t85 126t127.5 84t157 30q73 0 136.5 -22t114.5 -61l86 86l63 -62l-86 -86q40 -50 62.5 -114t22.5 -137q0 -84 -30.5 -156t-85 -126t-127 -84t-156.5 -30q-73 0 -137 22t-115 61l-86 -86l-63 62l86 86q-40 50 -62.5 114t-22.5 137zM706 380
q0 44 -10.5 82.5t-29.5 70.5l-374 -373q32 -25 72 -39t86 -14q74 0 132 35t91 97t33 141zM450 653q-74 0 -132 -35t-91 -96.5t-33 -141.5q0 -44 10.5 -82.5t29.5 -70.5l374 373q-32 25 -72 39t-86 14z" />
    <glyph glyph-name="Ugrave" unicode="&#xd9;" horiz-adv-x="844" 
d="M89 760h138v-430q0 -223 195 -223q194 0 194 223v430h139v-441q0 -160 -88 -247.5t-247 -87.5q-157 0 -244 87.5t-87 247.5v441zM248 975h155l113 -140h-121z" />
    <glyph glyph-name="Uacute" unicode="&#xda;" horiz-adv-x="844" 
d="M89 760h138v-430q0 -223 195 -223q194 0 194 223v430h139v-441q0 -160 -88 -247.5t-247 -87.5q-157 0 -244 87.5t-87 247.5v441zM440 975h155l-147 -140h-122z" />
    <glyph glyph-name="Ucircumflex" unicode="&#xdb;" horiz-adv-x="844" 
d="M89 760h138v-430q0 -223 195 -223q194 0 194 223v430h139v-441q0 -160 -88 -247.5t-247 -87.5q-157 0 -244 87.5t-87 247.5v441zM361 984h122l142 -149h-129l-74 80l-74 -80h-129z" />
    <glyph glyph-name="Udieresis" unicode="&#xdc;" horiz-adv-x="844" 
d="M89 760h138v-430q0 -223 195 -223q194 0 194 223v430h139v-441q0 -160 -88 -247.5t-247 -87.5q-157 0 -244 87.5t-87 247.5v441zM314 967q31 0 50.5 -19t19.5 -49q0 -29 -19.5 -47.5t-50.5 -18.5q-30 0 -49.5 18.5t-19.5 47.5q0 30 19.5 49t49.5 19zM529 967
q31 0 50.5 -19t19.5 -49q0 -29 -19.5 -47.5t-50.5 -18.5q-30 0 -49.5 18.5t-19.5 47.5q0 30 19.5 49t49.5 19z" />
    <glyph glyph-name="Yacute" unicode="&#xdd;" horiz-adv-x="723" 
d="M430 319v-319h-137v320l-281 440h153l200 -340l199 340h147zM379 975h155l-147 -140h-122z" />
    <glyph glyph-name="Thorn" unicode="&#xde;" horiz-adv-x="652" 
d="M94 760h129v-124h115q84 0 145.5 -30.5t95.5 -85.5t34 -129t-34 -130t-95.5 -86.5t-145.5 -30.5h-115v-144h-129v760zM316 250q79 0 120 35.5t41 104.5q0 68 -41 104t-120 36h-93v-280h93z" />
    <glyph glyph-name="germandbls" unicode="&#xdf;" horiz-adv-x="667" 
d="M78 546q0 126 68 197.5t187 71.5q72 0 126 -26t83.5 -73.5t29.5 -110.5q0 -60 -28.5 -107t-77.5 -67q71 -18 114 -75.5t43 -136.5q0 -71 -30 -124t-84.5 -82t-127.5 -29q-38 0 -71.5 7.5t-58.5 23.5l15 101q20 -12 47.5 -19.5t52.5 -7.5q60 0 97 38.5t37 100.5t-43 99
t-116 37h-45v102h30q58 0 91 34t33 92q0 54 -31.5 84.5t-87.5 30.5q-62 0 -96.5 -44.5t-34.5 -125.5v-537h-122v546z" />
    <glyph glyph-name="agrave" unicode="&#xe0;" horiz-adv-x="659" 
d="M582 0h-121l-2 80q-56 -96 -177 -96q-68 0 -121.5 34.5t-83.5 95t-30 138.5q0 77 32.5 138t87.5 97t123 36q54 0 98.5 -25t70.5 -71l2 80h121v-507zM463 253q0 70 -40 113.5t-104 43.5t-104.5 -43.5t-40.5 -113.5q0 -69 40.5 -113t104.5 -44t104 44t40 113zM174 776h141
l107 -166h-111z" />
    <glyph glyph-name="aacute" unicode="&#xe1;" horiz-adv-x="659" 
d="M582 0h-121l-2 80q-56 -96 -177 -96q-68 0 -121.5 34.5t-83.5 95t-30 138.5q0 77 32.5 138t87.5 97t123 36q54 0 98.5 -25t70.5 -71l2 80h121v-507zM463 253q0 70 -40 113.5t-104 43.5t-104.5 -43.5t-40.5 -113.5q0 -69 40.5 -113t104.5 -44t104 44t40 113zM351 776h142
l-138 -166h-110z" />
    <glyph glyph-name="acircumflex" unicode="&#xe2;" horiz-adv-x="659" 
d="M582 0h-121l-2 80q-56 -96 -177 -96q-68 0 -121.5 34.5t-83.5 95t-30 138.5q0 77 32.5 138t87.5 97t123 36q54 0 98.5 -25t70.5 -71l2 80h121v-507zM463 253q0 70 -40 113.5t-104 43.5t-104.5 -43.5t-40.5 -113.5q0 -69 40.5 -113t104.5 -44t104 44t40 113zM279 776h108
l138 -166h-114l-78 93l-78 -93h-114z" />
    <glyph glyph-name="atilde" unicode="&#xe3;" horiz-adv-x="659" 
d="M582 0h-121l-2 80q-56 -96 -177 -96q-68 0 -121.5 34.5t-83.5 95t-30 138.5q0 77 32.5 138t87.5 97t123 36q54 0 98.5 -25t70.5 -71l2 80h121v-507zM463 253q0 70 -40 113.5t-104 43.5t-104.5 -43.5t-40.5 -113.5q0 -69 40.5 -113t104.5 -44t104 44t40 113zM410 615
q-28 0 -48 9.5t-35 22t-28.5 22t-28.5 9.5q-34 0 -34 -62h-85q0 74 27 112t78 38q28 0 48 -9.5t35.5 -21.5t29 -21.5t28.5 -9.5q34 0 34 61h84q0 -150 -105 -150z" />
    <glyph glyph-name="adieresis" unicode="&#xe4;" horiz-adv-x="659" 
d="M582 0h-121l-2 80q-56 -96 -177 -96q-68 0 -121.5 34.5t-83.5 95t-30 138.5q0 77 32.5 138t87.5 97t123 36q54 0 98.5 -25t70.5 -71l2 80h121v-507zM463 253q0 70 -40 113.5t-104 43.5t-104.5 -43.5t-40.5 -113.5q0 -69 40.5 -113t104.5 -44t104 44t40 113zM227 754
q30 0 49 -18.5t19 -47.5t-19 -47.5t-49 -18.5t-48.5 18t-18.5 48q0 29 19 47.5t48 18.5zM438 754q30 0 49 -18.5t19 -47.5t-19 -47.5t-49 -18.5t-48.5 18t-18.5 48q0 29 19 47.5t48 18.5z" />
    <glyph glyph-name="aring" unicode="&#xe5;" horiz-adv-x="659" 
d="M582 0h-121l-2 80q-56 -96 -177 -96q-68 0 -121.5 34.5t-83.5 95t-30 138.5q0 77 32.5 138t87.5 97t123 36q54 0 98.5 -25t70.5 -71l2 80h121v-507zM463 253q0 70 -40 113.5t-104 43.5t-104.5 -43.5t-40.5 -113.5q0 -69 40.5 -113t104.5 -44t104 44t40 113zM195 712
q0 56 39.5 93.5t98.5 37.5t98.5 -37.5t39.5 -93.5t-39.5 -93.5t-98.5 -37.5t-98.5 37.5t-39.5 93.5zM395 712q0 29 -16.5 45.5t-45.5 16.5q-28 0 -45 -16.5t-17 -45.5q0 -28 17 -45t45 -17q29 0 45.5 17t16.5 45z" />
    <glyph glyph-name="ae" unicode="&#xe6;" horiz-adv-x="1004" 
d="M455 507h105l1 -61q25 37 67 57t93 20q68 0 119.5 -31.5t80 -87.5t28.5 -132q0 -25 -3 -51h-369q10 -69 56 -102.5t124 -33.5q44 0 87.5 9.5t82.5 28.5l12 -96q-33 -19 -82.5 -31t-99.5 -12q-63 0 -115 21t-81 57l-1 -62h-105l-2 73q-55 -89 -171 -89q-68 0 -121.5 34.5
t-83.5 95t-30 138.5q0 77 32.5 138t88 97t123.5 36q49 0 92.5 -24t69.5 -65zM319 410q-64 0 -104.5 -43.5t-40.5 -113.5q0 -69 40.5 -113t104.5 -44t104 44t40 113q0 70 -40 113.5t-104 43.5zM577 301h253l-2 20q-7 52 -38.5 80t-82.5 28q-53 0 -87.5 -33.5t-42.5 -94.5z
" />
    <glyph glyph-name="ccedilla" unicode="&#xe7;" horiz-adv-x="541" 
d="M179.5 486q62.5 34 144.5 34q43 0 86.5 -10t74.5 -28l-16 -106q-31 15 -66.5 23.5t-68.5 8.5q-73 0 -116.5 -41.5t-43.5 -112.5q0 -73 44 -114t121 -41q64 0 139 31l14 -103q-34 -19 -78 -29.5t-89 -10.5q-84 0 -146.5 32.5t-97 92t-34.5 139.5t35 140.5t97.5 94.5z
M266 10h75l-21 -71q46 -1 74 -26.5t28 -66.5q0 -49 -38.5 -77.5t-104.5 -28.5q-25 0 -53 5.5t-41 12.5l15 70q14 -6 32 -10t37 -4q57 0 57 37q0 35 -59 35q-24 0 -36 -3z" />
    <glyph glyph-name="egrave" unicode="&#xe8;" horiz-adv-x="598" 
d="M339 -16q-90 0 -155.5 32.5t-101 92.5t-35.5 143q0 80 33 141t91 95.5t134 34.5q72 0 125.5 -31t82.5 -87.5t29 -132.5q0 -25 -3 -51h-368q9 -69 55.5 -102.5t125.5 -33.5q42 0 86 10t82 28l13 -96q-37 -20 -89 -31.5t-105 -11.5zM213 395.5q-34 -33.5 -42 -94.5h252
q0 10 -2 20q-7 52 -38.5 80t-82.5 28q-53 0 -87 -33.5zM140 776h141l107 -166h-111z" />
    <glyph glyph-name="eacute" unicode="&#xe9;" horiz-adv-x="598" 
d="M339 -16q-90 0 -155.5 32.5t-101 92.5t-35.5 143q0 80 33 141t91 95.5t134 34.5q72 0 125.5 -31t82.5 -87.5t29 -132.5q0 -25 -3 -51h-368q9 -69 55.5 -102.5t125.5 -33.5q42 0 86 10t82 28l13 -96q-37 -20 -89 -31.5t-105 -11.5zM213 395.5q-34 -33.5 -42 -94.5h252
q0 10 -2 20q-7 52 -38.5 80t-82.5 28q-53 0 -87 -33.5zM317 776h142l-138 -166h-110z" />
    <glyph glyph-name="ecircumflex" unicode="&#xea;" horiz-adv-x="598" 
d="M339 -16q-90 0 -155.5 32.5t-101 92.5t-35.5 143q0 80 33 141t91 95.5t134 34.5q72 0 125.5 -31t82.5 -87.5t29 -132.5q0 -25 -3 -51h-368q9 -69 55.5 -102.5t125.5 -33.5q42 0 86 10t82 28l13 -96q-37 -20 -89 -31.5t-105 -11.5zM213 395.5q-34 -33.5 -42 -94.5h252
q0 10 -2 20q-7 52 -38.5 80t-82.5 28q-53 0 -87 -33.5zM245 776h108l138 -166h-114l-78 93l-78 -93h-114z" />
    <glyph glyph-name="edieresis" unicode="&#xeb;" horiz-adv-x="598" 
d="M339 -16q-90 0 -155.5 32.5t-101 92.5t-35.5 143q0 80 33 141t91 95.5t134 34.5q72 0 125.5 -31t82.5 -87.5t29 -132.5q0 -25 -3 -51h-368q9 -69 55.5 -102.5t125.5 -33.5q42 0 86 10t82 28l13 -96q-37 -20 -89 -31.5t-105 -11.5zM213 395.5q-34 -33.5 -42 -94.5h252
q0 10 -2 20q-7 52 -38.5 80t-82.5 28q-53 0 -87 -33.5zM193 754q30 0 49 -18.5t19 -47.5t-19 -47.5t-49 -18.5t-48.5 18t-18.5 48q0 29 19 47.5t48 18.5zM404 754q30 0 49 -18.5t19 -47.5t-19 -47.5t-49 -18.5t-48.5 18t-18.5 48q0 29 19 47.5t48 18.5z" />
    <glyph glyph-name="igrave" unicode="&#xec;" horiz-adv-x="281" 
d="M78 507h126v-507h-126v507zM-19 776h141l107 -166h-111z" />
    <glyph glyph-name="iacute" unicode="&#xed;" horiz-adv-x="281" 
d="M78 507h126v-507h-126v507zM158 776h142l-138 -166h-110z" />
    <glyph glyph-name="icircumflex" unicode="&#xee;" horiz-adv-x="281" 
d="M78 507h126v-507h-126v507zM86 776h108l138 -166h-114l-78 93l-78 -93h-114z" />
    <glyph glyph-name="idieresis" unicode="&#xef;" horiz-adv-x="281" 
d="M78 507h126v-507h-126v507zM34 754q30 0 49 -18.5t19 -47.5t-19 -47.5t-49 -18.5t-48.5 18t-18.5 48q0 29 19 47.5t48 18.5zM245 754q30 0 49 -18.5t19 -47.5t-19 -47.5t-49 -18.5t-48.5 18t-18.5 48q0 29 19 47.5t48 18.5z" />
    <glyph glyph-name="eth" unicode="&#xf0;" horiz-adv-x="636" 
d="M586 281q0 -91 -33 -158t-93.5 -103t-143.5 -36q-79 0 -139.5 34t-95 94.5t-34.5 138.5q0 73 33 133t88.5 96t122.5 36q79 0 133 -52q-17 43 -42.5 85t-55.5 81l-153 -71l-32 69l133 62q-56 60 -121 110l154 8q39 -33 74 -69l117 54l31 -69l-96 -45q70 -88 111.5 -190
t41.5 -208zM464 251q0 69 -40.5 112.5t-104.5 43.5t-105 -43.5t-41 -112.5t41 -112.5t105 -43.5t104.5 43.5t40.5 112.5z" />
    <glyph glyph-name="ntilde" unicode="&#xf1;" horiz-adv-x="616" 
d="M78 507h121l2 -77q21 44 62.5 68.5t96.5 24.5q88 0 135 -56t47 -160v-307h-126v284q0 127 -98 127q-54 0 -84 -35.5t-30 -100.5v-275h-126v507zM387 615q-28 0 -48 9.5t-35 22t-28.5 22t-28.5 9.5q-34 0 -34 -62h-85q0 74 27 112t78 38q28 0 48 -9.5t35.5 -21.5t29 -21.5
t28.5 -9.5q34 0 34 61h84q0 -150 -105 -150z" />
    <glyph glyph-name="ograve" unicode="&#xf2;" horiz-adv-x="637" 
d="M47 253q0 77 36 138t97.5 96.5t138.5 35.5q78 0 139 -35t96.5 -96t35.5 -139q0 -76 -36 -137t-97 -96.5t-138 -35.5q-78 0 -139.5 35t-97 96t-35.5 138zM463 253q0 70 -40 113.5t-104 43.5t-104.5 -43.5t-40.5 -113.5q0 -69 40.5 -113t104.5 -44t104 44t40 113zM160 776
h141l107 -166h-111z" />
    <glyph glyph-name="oacute" unicode="&#xf3;" horiz-adv-x="637" 
d="M47 253q0 77 36 138t97.5 96.5t138.5 35.5q78 0 139 -35t96.5 -96t35.5 -139q0 -76 -36 -137t-97 -96.5t-138 -35.5q-78 0 -139.5 35t-97 96t-35.5 138zM463 253q0 70 -40 113.5t-104 43.5t-104.5 -43.5t-40.5 -113.5q0 -69 40.5 -113t104.5 -44t104 44t40 113zM337 776
h142l-138 -166h-110z" />
    <glyph glyph-name="ocircumflex" unicode="&#xf4;" horiz-adv-x="637" 
d="M47 253q0 77 36 138t97.5 96.5t138.5 35.5q78 0 139 -35t96.5 -96t35.5 -139q0 -76 -36 -137t-97 -96.5t-138 -35.5q-78 0 -139.5 35t-97 96t-35.5 138zM463 253q0 70 -40 113.5t-104 43.5t-104.5 -43.5t-40.5 -113.5q0 -69 40.5 -113t104.5 -44t104 44t40 113zM265 776
h108l138 -166h-114l-78 93l-78 -93h-114z" />
    <glyph glyph-name="otilde" unicode="&#xf5;" horiz-adv-x="637" 
d="M47 253q0 77 36 138t97.5 96.5t138.5 35.5q78 0 139 -35t96.5 -96t35.5 -139q0 -76 -36 -137t-97 -96.5t-138 -35.5q-78 0 -139.5 35t-97 96t-35.5 138zM463 253q0 70 -40 113.5t-104 43.5t-104.5 -43.5t-40.5 -113.5q0 -69 40.5 -113t104.5 -44t104 44t40 113zM396 615
q-28 0 -48 9.5t-35 22t-28.5 22t-28.5 9.5q-34 0 -34 -62h-85q0 74 27 112t78 38q28 0 48 -9.5t35.5 -21.5t29 -21.5t28.5 -9.5q34 0 34 61h84q0 -150 -105 -150z" />
    <glyph glyph-name="odieresis" unicode="&#xf6;" horiz-adv-x="637" 
d="M47 253q0 77 36 138t97.5 96.5t138.5 35.5q78 0 139 -35t96.5 -96t35.5 -139q0 -76 -36 -137t-97 -96.5t-138 -35.5q-78 0 -139.5 35t-97 96t-35.5 138zM463 253q0 70 -40 113.5t-104 43.5t-104.5 -43.5t-40.5 -113.5q0 -69 40.5 -113t104.5 -44t104 44t40 113zM213 754
q30 0 49 -18.5t19 -47.5t-19 -47.5t-49 -18.5t-48.5 18t-18.5 48q0 29 19 47.5t48 18.5zM424 754q30 0 49 -18.5t19 -47.5t-19 -47.5t-49 -18.5t-48.5 18t-18.5 48q0 29 19 47.5t48 18.5z" />
    <glyph glyph-name="divide" unicode="&#xf7;" horiz-adv-x="620" 
d="M77 283v104h466v-104h-466zM260 193q20 19 50 19t50 -19t20 -48q0 -28 -20 -47.5t-50 -19.5t-50 19.5t-20 47.5q0 29 20 48zM260 573q20 19 50 19t50 -19t20 -48q0 -28 -20 -47.5t-50 -19.5t-50 19.5t-20 47.5q0 29 20 48z" />
    <glyph glyph-name="oslash" unicode="&#xf8;" horiz-adv-x="637" 
d="M47 32l55 55q-26 33 -40.5 75.5t-14.5 90.5q0 77 36 138t97.5 96.5t138.5 35.5q48 0 90 -14t76 -39l55 55l50 -51l-54 -54q25 -34 39.5 -76.5t14.5 -90.5q0 -76 -36 -137t-97 -96.5t-138 -35.5q-48 0 -90.5 14t-76.5 39l-55 -55zM319 422q-69 0 -112.5 -47t-43.5 -122
q0 -48 19 -86l227 227q-38 28 -90 28zM474 253q0 48 -19 86l-227 -226q39 -28 91 -28q68 0 111.5 47t43.5 121z" />
    <glyph glyph-name="ugrave.alt" unicode="&#xf9;" horiz-adv-x="614" 
d="M537 0h-122l-2 76q-20 -44 -63 -68t-101 -24q-85 0 -130 52.5t-45 152.5v318h126v-288q0 -65 23 -94t75 -29q53 0 83 36t30 100v275h126v-507zM143 776h141l107 -166h-111z" />
    <glyph glyph-name="uacute.alt" unicode="&#xfa;" horiz-adv-x="614" 
d="M537 0h-122l-2 76q-20 -44 -63 -68t-101 -24q-85 0 -130 52.5t-45 152.5v318h126v-288q0 -65 23 -94t75 -29q53 0 83 36t30 100v275h126v-507zM320 776h142l-138 -166h-110z" />
    <glyph glyph-name="ucircumflex.alt" unicode="&#xfb;" horiz-adv-x="614" 
d="M537 0h-122l-2 76q-20 -44 -63 -68t-101 -24q-85 0 -130 52.5t-45 152.5v318h126v-288q0 -65 23 -94t75 -29q53 0 83 36t30 100v275h126v-507zM248 776h108l138 -166h-114l-78 93l-78 -93h-114z" />
    <glyph glyph-name="udieresis.alt" unicode="&#xfc;" horiz-adv-x="614" 
d="M537 0h-122l-2 76q-20 -44 -63 -68t-101 -24q-85 0 -130 52.5t-45 152.5v318h126v-288q0 -65 23 -94t75 -29q53 0 83 36t30 100v275h126v-507zM196 754q30 0 49 -18.5t19 -47.5t-19 -47.5t-49 -18.5t-48.5 18t-18.5 48q0 29 19 47.5t48 18.5zM407 754q30 0 49 -18.5
t19 -47.5t-19 -47.5t-49 -18.5t-48.5 18t-18.5 48q0 29 19 47.5t48 18.5z" />
    <glyph glyph-name="yacute" unicode="&#xfd;" horiz-adv-x="581" 
d="M225 -245h-129l135 281l-214 471h138l140 -343l135 343h134zM312 776h142l-138 -166h-110z" />
    <glyph glyph-name="thorn" unicode="&#xfe;" horiz-adv-x="659" 
d="M78 810h126v-377q57 90 173 90q69 0 122 -34.5t83 -95t30 -139.5q0 -76 -32.5 -137t-87.5 -97t-123 -36q-110 0 -165 89v-318h-126v1055zM445 140q40 44 40 113q0 70 -40 113.5t-104 43.5t-104.5 -43.5t-40.5 -113.5q0 -69 40.5 -113t104.5 -44t104 44z" />
    <glyph glyph-name="ydieresis" unicode="&#xff;" horiz-adv-x="581" 
d="M225 -245h-129l135 281l-214 471h138l140 -343l135 343h134zM188 754q30 0 49 -18.5t19 -47.5t-19 -47.5t-49 -18.5t-48.5 18t-18.5 48q0 29 19 47.5t48 18.5zM399 754q30 0 49 -18.5t19 -47.5t-19 -47.5t-49 -18.5t-48.5 18t-18.5 48q0 29 19 47.5t48 18.5z" />
    <glyph glyph-name="Amacron" unicode="&#x100;" horiz-adv-x="801" 
d="M327 760h146l305 -760h-146l-76 207h-319l-76 -207h-138zM516 315l-119 326l-120 -326h239zM239 942h322v-94h-322v94z" />
    <glyph glyph-name="amacron" unicode="&#x101;" horiz-adv-x="659" 
d="M582 0h-121l-2 80q-56 -96 -177 -96q-68 0 -121.5 34.5t-83.5 95t-30 138.5q0 77 32.5 138t87.5 97t123 36q54 0 98.5 -25t70.5 -71l2 80h121v-507zM463 253q0 70 -40 113.5t-104 43.5t-104.5 -43.5t-40.5 -113.5q0 -69 40.5 -113t104.5 -44t104 44t40 113zM174 729h318
v-93h-318v93z" />
    <glyph glyph-name="Abreve" unicode="&#x102;" horiz-adv-x="801" 
d="M327 760h146l305 -760h-146l-76 207h-319l-76 -207h-138zM516 315l-119 326l-120 -326h239zM226 967q0 8 1 13h93v-8q0 -31 22 -50t58 -19t58 18.5t22 49.5v9h93q1 -5 1 -13q0 -67 -47 -106.5t-127 -39.5t-127 39.5t-47 106.5z" />
    <glyph glyph-name="abreve" unicode="&#x103;" horiz-adv-x="659" 
d="M582 0h-121l-2 80q-56 -96 -177 -96q-68 0 -121.5 34.5t-83.5 95t-30 138.5q0 77 32.5 138t87.5 97t123 36q54 0 98.5 -25t70.5 -71l2 80h121v-507zM463 253q0 70 -40 113.5t-104 43.5t-104.5 -43.5t-40.5 -113.5q0 -69 40.5 -113t104.5 -44t104 44t40 113zM165 746v6
t1 7h88v-7q0 -37 21 -58t58 -21q38 0 58.5 21t20.5 58v7h88q1 -4 1 -7v-6q0 -70 -45 -111t-123 -41t-123 41t-45 111z" />
    <glyph glyph-name="Aogonek" unicode="&#x104;" horiz-adv-x="801" 
d="M327 760h146l305 -760h-146l-76 207h-319l-76 -207h-138zM516 315l-119 326l-120 -326h239zM732 34l46 -34q-95 -69 -95 -127q0 -35 41 -35q28 0 51 13l10 -88q-15 -10 -38 -15t-48 -5q-57 0 -88.5 26.5t-31.5 73.5q0 50 40 100.5t113 90.5z" />
    <glyph glyph-name="aogonek" unicode="&#x105;" horiz-adv-x="659" 
d="M582 0h-121l-2 80q-56 -96 -177 -96q-68 0 -121.5 34.5t-83.5 95t-30 138.5q0 77 32.5 138t87.5 97t123 36q54 0 98.5 -25t70.5 -71l2 80h121v-507zM463 253q0 70 -40 113.5t-104 43.5t-104.5 -43.5t-40.5 -113.5q0 -69 40.5 -113t104.5 -44t104 44t40 113zM536 34
l46 -34q-97 -69 -97 -127q0 -37 43 -37q29 0 52 13l9 -86q-14 -10 -37 -15t-49 -5q-56 0 -88 26.5t-32 73.5q0 50 40 100.5t113 90.5z" />
    <glyph glyph-name="Cacute" unicode="&#x106;" horiz-adv-x="763" 
d="M50 376q0 87 30 159.5t85 125t130.5 81.5t166.5 29q62 0 126 -16.5t110 -44.5l-23 -118q-58 29 -109.5 42.5t-104.5 13.5q-80 0 -140 -33.5t-93.5 -94t-33.5 -141.5q0 -82 33 -142t94 -92.5t143 -32.5q52 0 112 15.5t113 42.5l15 -121q-53 -28 -118.5 -44t-132.5 -16
q-120 0 -211 48.5t-141.5 136t-50.5 202.5zM440 975h155l-147 -140h-122z" />
    <glyph glyph-name="cacute" unicode="&#x107;" horiz-adv-x="541" 
d="M179.5 486q62.5 34 144.5 34q43 0 86.5 -10t74.5 -28l-16 -106q-31 15 -66.5 23.5t-68.5 8.5q-73 0 -116.5 -41.5t-43.5 -112.5q0 -73 44 -114t121 -41q64 0 139 31l14 -103q-34 -19 -78 -29.5t-89 -10.5q-84 0 -146.5 32.5t-97 92t-34.5 139.5t35 140.5t97.5 94.5z
M314 776h142l-138 -166h-110z" />
    <glyph glyph-name="Cdotaccent" unicode="&#x10a;" horiz-adv-x="763" 
d="M50 376q0 87 30 159.5t85 125t130.5 81.5t166.5 29q62 0 126 -16.5t110 -44.5l-23 -118q-58 29 -109.5 42.5t-104.5 13.5q-80 0 -140 -33.5t-93.5 -94t-33.5 -141.5q0 -82 33 -142t94 -92.5t143 -32.5q52 0 112 15.5t113 42.5l15 -121q-53 -28 -118.5 -44t-132.5 -16
q-120 0 -211 48.5t-141.5 136t-50.5 202.5zM422 978q35 0 56 -21t21 -54t-21 -53.5t-56 -20.5q-34 0 -55 20.5t-21 53.5t21 54t55 21z" />
    <glyph glyph-name="cdotaccent" unicode="&#x10b;" horiz-adv-x="541" 
d="M179.5 486q62.5 34 144.5 34q43 0 86.5 -10t74.5 -28l-16 -106q-31 15 -66.5 23.5t-68.5 8.5q-73 0 -116.5 -41.5t-43.5 -112.5q0 -73 44 -114t121 -41q64 0 139 31l14 -103q-34 -19 -78 -29.5t-89 -10.5q-84 0 -146.5 32.5t-97 92t-34.5 139.5t35 140.5t97.5 94.5z
M296 763q33 0 53.5 -20t20.5 -53q0 -31 -20.5 -51t-53.5 -20t-53.5 19.5t-20.5 51.5t20.5 52.5t53.5 20.5z" />
    <glyph glyph-name="Ccaron" unicode="&#x10c;" horiz-adv-x="763" 
d="M50 376q0 87 30 159.5t85 125t130.5 81.5t166.5 29q62 0 126 -16.5t110 -44.5l-23 -118q-58 29 -109.5 42.5t-104.5 13.5q-80 0 -140 -33.5t-93.5 -94t-33.5 -141.5q0 -82 33 -142t94 -92.5t143 -32.5q52 0 112 15.5t113 42.5l15 -121q-53 -28 -118.5 -44t-132.5 -16
q-120 0 -211 48.5t-141.5 136t-50.5 202.5zM219 984h129l74 -80l74 80h129l-142 -149h-122z" />
    <glyph glyph-name="ccaron" unicode="&#x10d;" horiz-adv-x="541" 
d="M179.5 486q62.5 34 144.5 34q43 0 86.5 -10t74.5 -28l-16 -106q-31 15 -66.5 23.5t-68.5 8.5q-73 0 -116.5 -41.5t-43.5 -112.5q0 -73 44 -114t121 -41q64 0 139 31l14 -103q-34 -19 -78 -29.5t-89 -10.5q-84 0 -146.5 32.5t-97 92t-34.5 139.5t35 140.5t97.5 94.5z
M104 776h114l78 -93l78 93h114l-138 -166h-108z" />
    <glyph glyph-name="Dcaron" unicode="&#x10e;" horiz-adv-x="845" 
d="M94 760h288q130 0 222 -45t141.5 -130t49.5 -204q0 -120 -50 -205.5t-145.5 -130.5t-230.5 -45h-275v760zM367 112q284 0 284 268t-284 268h-136v-536h136zM194 984h129l74 -80l74 80h129l-142 -149h-122z" />
    <glyph glyph-name="dcaron" unicode="&#x10f;" horiz-adv-x="659" 
d="M582 0h-121l-2 81q-27 -47 -72.5 -72t-104.5 -25q-68 0 -121.5 34.5t-83.5 95t-30 138.5q0 77 32.5 138t87.5 97t123 36q52 0 95.5 -24t70.5 -68v379h126v-810zM463 253q0 70 -40 113.5t-104 43.5t-104.5 -43.5t-40.5 -113.5q0 -69 40.5 -113t104.5 -44t104 44t40 113z
M660 810h122l-51 -236h-83z" />
    <glyph glyph-name="Dcroat" unicode="&#x110;" horiz-adv-x="861" 
d="M110 0v336h-95v93h95v331h288q130 0 222 -45t141.5 -130t49.5 -204q0 -120 -50.5 -205.5t-145.5 -130.5t-230 -45h-275zM247 112h136q284 0 284 268t-284 268h-136v-219h170v-93h-170v-224z" />
    <glyph glyph-name="dcroat" unicode="&#x111;" horiz-adv-x="659" 
d="M582 0h-121l-2 81q-27 -47 -72.5 -72t-104.5 -25q-68 0 -121.5 34.5t-83.5 95t-30 138.5q0 77 32.5 138t87.5 97t123 36q52 0 95.5 -24t70.5 -68v180h-160v81h160v118h126v-118h75v-81h-75v-611zM214.5 140q40.5 -44 104.5 -44t104 44t40 113q0 70 -40 113.5t-104 43.5
t-104.5 -43.5t-40.5 -113.5q0 -69 40.5 -113z" />
    <glyph glyph-name="Emacron" unicode="&#x112;" horiz-adv-x="670" 
d="M94 760h494v-109h-363v-208h323v-110h-323v-224h378v-109h-509v760zM186 942h322v-94h-322v94z" />
    <glyph glyph-name="emacron" unicode="&#x113;" horiz-adv-x="598" 
d="M339 -16q-90 0 -155.5 32.5t-101 92.5t-35.5 143q0 80 33 141t91 95.5t134 34.5q72 0 125.5 -31t82.5 -87.5t29 -132.5q0 -25 -3 -51h-368q9 -69 55.5 -102.5t125.5 -33.5q42 0 86 10t82 28l13 -96q-37 -20 -89 -31.5t-105 -11.5zM213 395.5q-34 -33.5 -42 -94.5h252
q0 10 -2 20q-7 52 -38.5 80t-82.5 28q-53 0 -87 -33.5zM140 729h318v-93h-318v93z" />
    <glyph glyph-name="Edotaccent" unicode="&#x116;" horiz-adv-x="670" 
d="M94 760h494v-109h-363v-208h323v-110h-323v-224h378v-109h-509v760zM347 978q35 0 56 -21t21 -54t-21 -53.5t-56 -20.5q-34 0 -55 20.5t-21 53.5t21 54t55 21z" />
    <glyph glyph-name="edotaccent" unicode="&#x117;" horiz-adv-x="598" 
d="M339 -16q-90 0 -155.5 32.5t-101 92.5t-35.5 143q0 80 33 141t91 95.5t134 34.5q72 0 125.5 -31t82.5 -87.5t29 -132.5q0 -25 -3 -51h-368q9 -69 55.5 -102.5t125.5 -33.5q42 0 86 10t82 28l13 -96q-37 -20 -89 -31.5t-105 -11.5zM213 395.5q-34 -33.5 -42 -94.5h252
q0 10 -2 20q-7 52 -38.5 80t-82.5 28q-53 0 -87 -33.5zM299 763q33 0 53.5 -20t20.5 -53q0 -31 -20.5 -51t-53.5 -20t-53.5 19.5t-20.5 51.5t20.5 52.5t53.5 20.5z" />
    <glyph glyph-name="Eogonek" unicode="&#x118;" horiz-adv-x="670" 
d="M94 760h494v-109h-363v-208h323v-110h-323v-224h378v-109h-509v760zM557 34l46 -34q-95 -69 -95 -127q0 -35 41 -35q28 0 51 13l10 -88q-15 -10 -38 -15t-48 -5q-57 0 -88.5 26.5t-31.5 73.5q0 50 40 100.5t113 90.5z" />
    <glyph glyph-name="eogonek" unicode="&#x119;" horiz-adv-x="598" 
d="M339 -16q-90 0 -155.5 32.5t-101 92.5t-35.5 143q0 80 33 141t91 95.5t134 34.5q72 0 125.5 -31t82.5 -87.5t29 -132.5q0 -25 -3 -51h-368q9 -69 55.5 -102.5t125.5 -33.5q42 0 86 10t82 28l13 -96q-37 -20 -89 -31.5t-105 -11.5zM213 395.5q-34 -33.5 -42 -94.5h252
q0 10 -2 20q-7 52 -38.5 80t-82.5 28q-53 0 -87 -33.5zM477 31l56 -4q-61 -42 -93.5 -81t-32.5 -72q0 -38 43 -38q30 0 53 13l9 -86q-14 -10 -36.5 -15t-48.5 -5q-58 0 -89.5 26.5t-31.5 72.5q0 57 46 108t125 81z" />
    <glyph glyph-name="Ecaron" unicode="&#x11a;" horiz-adv-x="670" 
d="M94 760h494v-109h-363v-208h323v-110h-323v-224h378v-109h-509v760zM144 984h129l74 -80l74 80h129l-142 -149h-122z" />
    <glyph glyph-name="ecaron" unicode="&#x11b;" horiz-adv-x="598" 
d="M339 -16q-90 0 -155.5 32.5t-101 92.5t-35.5 143q0 80 33 141t91 95.5t134 34.5q72 0 125.5 -31t82.5 -87.5t29 -132.5q0 -25 -3 -51h-368q9 -69 55.5 -102.5t125.5 -33.5q42 0 86 10t82 28l13 -96q-37 -20 -89 -31.5t-105 -11.5zM213 395.5q-34 -33.5 -42 -94.5h252
q0 10 -2 20q-7 52 -38.5 80t-82.5 28q-53 0 -87 -33.5zM107 776h114l78 -93l78 93h114l-138 -166h-108z" />
    <glyph glyph-name="Gbreve" unicode="&#x11e;" horiz-adv-x="822" 
d="M750 44q-136 -55 -288 -55q-124 0 -216.5 48t-144 134.5t-51.5 201.5q0 118 53.5 207.5t149 140t221.5 50.5q68 0 136.5 -16t123.5 -45l-23 -113q-55 27 -118 41t-125 14q-83 0 -146 -34.5t-97.5 -96t-34.5 -143.5q0 -84 33.5 -145t96.5 -94t149 -33q41 0 78.5 6t74.5 16
v181h-158v106h286v-371zM253 967q0 8 1 13h93v-8q0 -31 22 -50t58 -19t58 18.5t22 49.5v9h93q1 -5 1 -13q0 -67 -47 -106.5t-127 -39.5t-127 39.5t-47 106.5z" />
    <glyph glyph-name="gbreve" unicode="&#x11f;" horiz-adv-x="659" 
d="M582 35q0 -143 -71.5 -216t-211.5 -73q-55 0 -110 12.5t-84 31.5l14 107q33 -20 79 -32t90 -12q171 0 171 174v56q-27 -45 -72.5 -70t-103.5 -25q-69 0 -122 34t-83.5 94t-30.5 138q0 76 32.5 136.5t88 96.5t123.5 36q54 0 97.5 -25t70.5 -71l2 80h121v-472zM463 255
q0 70 -40 113.5t-104 43.5t-104.5 -43.5t-40.5 -113.5q0 -69 40.5 -113t104.5 -44t104 44t40 113zM165 746v6t1 7h88v-7q0 -37 21 -58t58 -21q38 0 58.5 21t20.5 58v7h88q1 -4 1 -7v-6q0 -70 -45 -111t-123 -41t-123 41t-45 111z" />
    <glyph glyph-name="Gdotaccent" unicode="&#x120;" horiz-adv-x="822" 
d="M750 44q-136 -55 -288 -55q-124 0 -216.5 48t-144 134.5t-51.5 201.5q0 118 53.5 207.5t149 140t221.5 50.5q68 0 136.5 -16t123.5 -45l-23 -113q-55 27 -118 41t-125 14q-83 0 -146 -34.5t-97.5 -96t-34.5 -143.5q0 -84 33.5 -145t96.5 -94t149 -33q41 0 78.5 6t74.5 16
v181h-158v106h286v-371zM427 978q35 0 56 -21t21 -54t-21 -53.5t-56 -20.5q-34 0 -55 20.5t-21 53.5t21 54t55 21z" />
    <glyph glyph-name="gdotaccent" unicode="&#x121;" horiz-adv-x="659" 
d="M582 35q0 -143 -71.5 -216t-211.5 -73q-55 0 -110 12.5t-84 31.5l14 107q33 -20 79 -32t90 -12q171 0 171 174v56q-27 -45 -72.5 -70t-103.5 -25q-69 0 -122 34t-83.5 94t-30.5 138q0 76 32.5 136.5t88 96.5t123.5 36q54 0 97.5 -25t70.5 -71l2 80h121v-472zM463 255
q0 70 -40 113.5t-104 43.5t-104.5 -43.5t-40.5 -113.5q0 -69 40.5 -113t104.5 -44t104 44t40 113zM333 763q33 0 53.5 -20t20.5 -53q0 -31 -20.5 -51t-53.5 -20t-53.5 19.5t-20.5 51.5t20.5 52.5t53.5 20.5z" />
    <glyph glyph-name="uni0122" unicode="&#x122;" horiz-adv-x="822" 
d="M750 44q-136 -55 -288 -55q-124 0 -216.5 48t-144 134.5t-51.5 201.5q0 118 53.5 207.5t149 140t221.5 50.5q68 0 136.5 -16t123.5 -45l-23 -113q-55 27 -118 41t-125 14q-83 0 -146 -34.5t-97.5 -96t-34.5 -143.5q0 -84 33.5 -145t96.5 -94t149 -33q41 0 78.5 6t74.5 16
v181h-158v106h286v-371zM369 -64h120q-1 -31 -10.5 -65.5t-24.5 -65.5t-33 -52h-95q20 37 31 85.5t12 97.5z" />
    <glyph glyph-name="uni0123" unicode="&#x123;" horiz-adv-x="659" 
d="M582 35q0 -143 -71.5 -216t-211.5 -73q-55 0 -110 12.5t-84 31.5l14 107q33 -20 79 -32t90 -12q171 0 171 174v56q-27 -45 -72.5 -70t-103.5 -25q-69 0 -122 34t-83.5 94t-30.5 138q0 76 32.5 136.5t88 96.5t123.5 36q54 0 97.5 -25t70.5 -71l2 80h121v-472zM463 255
q0 70 -40 113.5t-104 43.5t-104.5 -43.5t-40.5 -113.5q0 -69 40.5 -113t104.5 -44t104 44t40 113zM331 781h90q-19 -36 -29 -77t-11 -94h-118q2 46 20 91.5t48 79.5z" />
    <glyph glyph-name="Hbar" unicode="&#x126;" horiz-adv-x="881" 
d="M109 550h-94v90h94v120h138v-120h387v120h138v-120h94v-90h-94v-550h-138v322h-387v-322h-138v550zM634 434v116h-387v-116h387z" />
    <glyph glyph-name="hbar" unicode="&#x127;" horiz-adv-x="616" 
d="M78 611h-85v81h85v118h126v-118h147v-81h-147v-175q22 42 63 64.5t93 22.5q88 0 135 -56t47 -160v-307h-126v284q0 127 -98 127q-54 0 -84 -35.5t-30 -100.5v-275h-126v611z" />
    <glyph glyph-name="Itilde" unicode="&#x128;" horiz-adv-x="326" 
d="M94 760h138v-760h-138v760zM88 986q27 0 47 -9.5t35.5 -21.5t28.5 -21.5t28 -9.5q33 0 33 60h86q0 -151 -108 -151q-27 0 -47 9t-35 21.5t-28 21.5t-28 9q-33 0 -33 -60h-87q0 152 108 152z" />
    <glyph glyph-name="itilde" unicode="&#x129;" horiz-adv-x="281" 
d="M78 507h126v-507h-126v507zM217 615q-28 0 -48 9.5t-35 22t-28.5 22t-28.5 9.5q-34 0 -34 -62h-85q0 74 27 112t78 38q28 0 48 -9.5t35.5 -21.5t29 -21.5t28.5 -9.5q34 0 34 61h84q0 -150 -105 -150z" />
    <glyph glyph-name="Imacron" unicode="&#x12a;" horiz-adv-x="326" 
d="M94 760h138v-760h-138v760zM2 942h322v-94h-322v94z" />
    <glyph glyph-name="imacron" unicode="&#x12b;" horiz-adv-x="281" 
d="M78 507h126v-507h-126v507zM-19 729h318v-93h-318v93z" />
    <glyph glyph-name="Iogonek" unicode="&#x12e;" horiz-adv-x="326" 
d="M94 760h138v-760h-138v760zM187 34l46 -34q-95 -69 -95 -127q0 -35 41 -35q28 0 51 13l10 -88q-15 -10 -38 -15t-48 -5q-57 0 -88.5 26.5t-31.5 73.5q0 50 40 100.5t113 90.5z" />
    <glyph glyph-name="iogonek" unicode="&#x12f;" horiz-adv-x="281" 
d="M78 507h126v-507h-126v507zM140 770q33 0 54.5 -22t21.5 -54q0 -33 -21.5 -54.5t-54.5 -21.5t-55 21.5t-22 54.5q0 32 22 54t55 22zM158 34l46 -34q-97 -69 -97 -127q0 -37 43 -37q29 0 52 13l9 -86q-14 -10 -37 -15t-49 -5q-56 0 -88 26.5t-32 73.5q0 50 40 100.5
t113 90.5z" />
    <glyph glyph-name="Idotaccent" unicode="&#x130;" horiz-adv-x="326" 
d="M94 760h138v-760h-138v760zM163 978q35 0 56 -21t21 -54t-21 -53.5t-56 -20.5q-34 0 -55 20.5t-21 53.5t21 54t55 21z" />
    <glyph glyph-name="dotlessi" unicode="&#x131;" horiz-adv-x="281" 
d="M78 507h126v-507h-126v507z" />
    <glyph glyph-name="IJ" unicode="&#x132;" horiz-adv-x="887" 
d="M94 760h138v-760h-138v760zM797 263q0 -142 -62.5 -210.5t-193.5 -68.5q-49 0 -98.5 12t-81.5 31l13 112q69 -39 149 -39q74 0 105 39.5t31 133.5v487h138v-497z" />
    <glyph glyph-name="ij.alt" unicode="&#x133;" horiz-adv-x="562" 
d="M78 507h126v-507h-126v507zM140 770q33 0 54.5 -22t21.5 -54q0 -33 -21.5 -54.5t-54.5 -21.5t-55 21.5t-22 54.5q0 32 22 54t55 22zM485 -41q0 -213 -196 -213q-33 0 -65 7t-51 17l13 104q21 -9 42.5 -14t43.5 -5q44 0 65.5 26.5t21.5 82.5v543h126v-548zM421 770
q33 0 54.5 -22t21.5 -54q0 -33 -21.5 -54.5t-54.5 -21.5t-55 21.5t-22 54.5q0 32 22 54t55 22z" />
    <glyph glyph-name="uni0136" unicode="&#x136;" horiz-adv-x="770" 
d="M94 760h137v-332l322 332h173l-363 -363l398 -397h-187l-343 352v-352h-137v760zM348 -64h120q-1 -31 -10.5 -65.5t-24.5 -65.5t-33 -52h-95q20 37 31 85.5t12 97.5z" />
    <glyph glyph-name="uni0137" unicode="&#x137;" horiz-adv-x="598" 
d="M78 810h126v-499l198 196h152l-233 -225l272 -282h-162l-227 241v-241h-126v810zM257 -64h118q-1 -31 -10.5 -65.5t-24.5 -65.5t-33 -52h-93q20 37 31 85.5t12 97.5z" />
    <glyph glyph-name="kgreenlandic" unicode="&#x138;" horiz-adv-x="598" 
d="M78 507h126v-212l201 212h149l-234 -237l273 -270h-166l-223 225v-225h-126v507z" />
    <glyph glyph-name="Lacute" unicode="&#x139;" horiz-adv-x="619" 
d="M94 760h138v-646h352v-114h-490v760zM181 975h155l-147 -140h-122z" />
    <glyph glyph-name="lacute" unicode="&#x13a;" horiz-adv-x="281" 
d="M78 810h126v-810h-126v810zM158 990h155l-147 -140h-122z" />
    <glyph glyph-name="uni013B" unicode="&#x13b;" horiz-adv-x="619" 
d="M94 760h138v-646h352v-114h-490v760zM281 -64h120q-1 -31 -10.5 -65.5t-24.5 -65.5t-33 -52h-95q20 37 31 85.5t12 97.5z" />
    <glyph glyph-name="uni013C" unicode="&#x13c;" horiz-adv-x="281" 
d="M78 810h126v-810h-126v810zM87 -64h118q-1 -31 -10.5 -65.5t-24.5 -65.5t-33 -52h-93q20 37 31 85.5t12 97.5z" />
    <glyph glyph-name="Lcaron" unicode="&#x13d;" horiz-adv-x="619" 
d="M94 760h138v-646h352v-114h-490v760zM337 810h122l-51 -236h-83z" />
    <glyph glyph-name="lcaron" unicode="&#x13e;" horiz-adv-x="281" 
d="M78 810h126v-810h-126v810zM282 810h122l-51 -236h-83z" />
    <glyph glyph-name="Lslash" unicode="&#x141;" horiz-adv-x="642" 
d="M117 760h139v-314l189 125l8 -110l-197 -130v-217h351v-114h-490v249l-90 -58l-8 110l98 63v396z" />
    <glyph glyph-name="lslash" unicode="&#x142;" horiz-adv-x="342" 
d="M108 810h126v-339l90 46l5 -98l-95 -49v-370h-126v306l-90 -46l-5 98l95 49v403z" />
    <glyph glyph-name="Nacute" unicode="&#x143;" horiz-adv-x="850" 
d="M94 760h124l412 -559v559h125v-760h-123l-412 559v-559h-126v760zM439 975h155l-147 -140h-122z" />
    <glyph glyph-name="nacute" unicode="&#x144;" horiz-adv-x="616" 
d="M78 507h121l2 -77q21 44 62.5 68.5t96.5 24.5q88 0 135 -56t47 -160v-307h-126v284q0 127 -98 127q-54 0 -84 -35.5t-30 -100.5v-275h-126v507zM328 776h142l-138 -166h-110z" />
    <glyph glyph-name="uni0145" unicode="&#x145;" horiz-adv-x="850" 
d="M94 760h124l412 -559v559h125v-760h-123l-412 559v-559h-126v760zM371 -64h120q-1 -31 -10.5 -65.5t-24.5 -65.5t-33 -52h-95q20 37 31 85.5t12 97.5z" />
    <glyph glyph-name="uni0146" unicode="&#x146;" horiz-adv-x="616" 
d="M78 507h121l2 -77q21 44 62.5 68.5t96.5 24.5q88 0 135 -56t47 -160v-307h-126v284q0 127 -98 127q-54 0 -84 -35.5t-30 -100.5v-275h-126v507zM245 -64h118q-1 -31 -10.5 -65.5t-24.5 -65.5t-33 -52h-93q20 37 31 85.5t12 97.5z" />
    <glyph glyph-name="Ncaron" unicode="&#x147;" horiz-adv-x="850" 
d="M94 760h124l412 -559v559h125v-760h-123l-412 559v-559h-126v760zM218 984h129l74 -80l74 80h129l-142 -149h-122z" />
    <glyph glyph-name="ncaron" unicode="&#x148;" horiz-adv-x="616" 
d="M78 507h121l2 -77q21 44 62.5 68.5t96.5 24.5q88 0 135 -56t47 -160v-307h-126v284q0 127 -98 127q-54 0 -84 -35.5t-30 -100.5v-275h-126v507zM118 776h114l78 -93l78 93h114l-138 -166h-108z" />
    <glyph glyph-name="Eng" unicode="&#x14a;" horiz-adv-x="861" 
d="M94 760h124l423 -561v561h125v-748q0 -135 -57.5 -200.5t-176.5 -65.5q-50 0 -96 10.5t-77 29.5l14 113q65 -37 138 -37q64 0 93 34t32 113l-416 551v-560h-126v760z" />
    <glyph glyph-name="eng" unicode="&#x14b;" horiz-adv-x="616" 
d="M78 507h121l2 -77q21 44 62.5 68.5t96.5 24.5q88 0 135 -56t47 -160v-348q0 -213 -196 -213q-33 0 -65 7t-50 17l12 100q22 -8 43 -13t43 -5q45 0 66 26.5t21 81.5v324q0 127 -98 127q-54 0 -84 -35.5t-30 -100.5v-275h-126v507z" />
    <glyph glyph-name="Omacron" unicode="&#x14c;" horiz-adv-x="899" 
d="M50 380q0 84 30.5 156t85 126t127.5 84t157 30q86 0 158.5 -29.5t126.5 -83t84 -126t30 -157.5q0 -84 -30.5 -156t-85 -126t-127 -84t-156.5 -30q-86 0 -159 29.5t-127 83t-84 126t-30 157.5zM706 380q0 80 -33 141.5t-90.5 96.5t-132.5 35q-74 0 -132 -35t-91 -96.5
t-33 -141.5q0 -79 33 -141t91 -97t132 -35t132 35t91 97t33 141zM289 942h322v-94h-322v94z" />
    <glyph glyph-name="omacron" unicode="&#x14d;" horiz-adv-x="637" 
d="M47 253q0 77 36 138t97.5 96.5t138.5 35.5q78 0 139 -35t96.5 -96t35.5 -139q0 -76 -36 -137t-97 -96.5t-138 -35.5q-78 0 -139.5 35t-97 96t-35.5 138zM463 253q0 70 -40 113.5t-104 43.5t-104.5 -43.5t-40.5 -113.5q0 -69 40.5 -113t104.5 -44t104 44t40 113zM160 729
h318v-93h-318v93z" />
    <glyph glyph-name="Ohungarumlaut" unicode="&#x150;" horiz-adv-x="899" 
d="M50 380q0 84 30.5 156t85 126t127.5 84t157 30q86 0 158.5 -29.5t126.5 -83t84 -126t30 -157.5q0 -84 -30.5 -156t-85 -126t-127 -84t-156.5 -30q-86 0 -159 29.5t-127 83t-84 126t-30 157.5zM706 380q0 80 -33 141.5t-90.5 96.5t-132.5 35q-74 0 -132 -35t-91 -96.5
t-33 -141.5q0 -79 33 -141t91 -97t132 -35t132 35t91 97t33 141zM357 974h142l-112 -139h-117zM561 974h142l-112 -139h-117z" />
    <glyph glyph-name="ohungarumlaut" unicode="&#x151;" horiz-adv-x="637" 
d="M47 253q0 77 36 138t97.5 96.5t138.5 35.5q78 0 139 -35t96.5 -96t35.5 -139q0 -76 -36 -137t-97 -96.5t-138 -35.5q-78 0 -139.5 35t-97 96t-35.5 138zM463 253q0 70 -40 113.5t-104 43.5t-104.5 -43.5t-40.5 -113.5q0 -69 40.5 -113t104.5 -44t104 44t40 113zM246 776
h129l-114 -166h-102zM433 776h128l-114 -166h-102z" />
    <glyph glyph-name="OE" unicode="&#x152;" horiz-adv-x="1270" 
d="M825 109h378v-109h-509v113q-39 -61 -106 -95t-151 -34q-82 0 -152.5 30t-123 83.5t-82 126t-29.5 156.5t29.5 156t82.5 126t123 84t152 30q83 0 150 -33t107 -93v110h494v-109h-363v-208h323v-110h-323v-224zM582.5 618q-57.5 35 -132.5 35q-74 0 -132 -35t-91 -96.5
t-33 -141.5q0 -79 33 -141t91 -97t132 -35t132 35t91 97t33 141q0 80 -33 141.5t-90.5 96.5z" />
    <glyph glyph-name="oe" unicode="&#x153;" horiz-adv-x="1012" 
d="M604.5 495q52.5 28 116.5 28q71 0 124 -31.5t82 -87.5t29 -132q0 -25 -3 -51h-369q10 -69 56.5 -102.5t124.5 -33.5q43 0 87 10t82 28l13 -96q-81 -43 -190 -43q-82 0 -142.5 28.5t-92.5 84.5q-34 -53 -88.5 -83t-119.5 -30q-76 0 -136.5 35.5t-95.5 96.5t-35 137
q0 77 36 138t97 96.5t137 35.5q64 0 119.5 -29t85.5 -78q30 51 82.5 79zM319 96q64 0 104 44t40 113q0 70 -40 113.5t-104 43.5t-104.5 -43.5t-40.5 -113.5q0 -69 40.5 -113t104.5 -44zM835 321q-7 52 -38.5 80t-82.5 28q-53 0 -87 -33.5t-43 -94.5h253q0 10 -2 20z" />
    <glyph glyph-name="Racute" unicode="&#x154;" horiz-adv-x="720" 
d="M94 760h242q85 0 147 -29.5t96 -83.5t34 -129q0 -71 -36 -124t-93 -82l204 -312h-156l-169 279q-10 -1 -19 -1h-118v-278h-132v760zM313 384q164 0 164 135t-159 135h-92v-270h87zM350 975h155l-147 -140h-122z" />
    <glyph glyph-name="racute" unicode="&#x155;" horiz-adv-x="430" 
d="M78 507h121l1 -101q19 52 56 80.5t86 28.5q16 0 32.5 -3t26.5 -8l-11 -118q-31 12 -63 12q-59 0 -91 -42.5t-32 -120.5v-235h-126v507zM247 776h142l-138 -166h-110z" />
    <glyph glyph-name="Rcaron" unicode="&#x158;" horiz-adv-x="720" 
d="M94 760h242q85 0 147 -29.5t96 -83.5t34 -129q0 -71 -36 -124t-93 -82l204 -312h-156l-169 279q-10 -1 -19 -1h-118v-278h-132v760zM313 384q164 0 164 135t-159 135h-92v-270h87zM129 984h129l74 -80l74 80h129l-142 -149h-122z" />
    <glyph glyph-name="rcaron" unicode="&#x159;" horiz-adv-x="430" 
d="M78 507h121l1 -101q19 52 56 80.5t86 28.5q16 0 32.5 -3t26.5 -8l-11 -118q-31 12 -63 12q-59 0 -91 -42.5t-32 -120.5v-235h-126v507zM37 776h114l78 -93l78 93h114l-138 -166h-108z" />
    <glyph glyph-name="Sacute" unicode="&#x15a;" horiz-adv-x="667" 
d="M313 -16q-47 0 -95 8t-89.5 22t-69.5 33l14 116q48 -29 111.5 -47.5t121.5 -18.5q72 0 113 29t41 79q0 30 -13.5 50.5t-48 38t-96.5 36.5q-84 26 -134 56.5t-72.5 72t-22.5 99.5q0 67 33 115.5t93 75.5t141 27q59 0 119 -15.5t105 -41.5l-20 -112q-43 26 -97 41t-104 15
q-65 0 -101 -26t-36 -73q0 -28 12.5 -47.5t43 -35.5t85.5 -34q91 -28 146 -60.5t79.5 -74.5t24.5 -99q0 -106 -76 -167.5t-208 -61.5zM346 975h155l-147 -140h-122z" />
    <glyph glyph-name="sacute" unicode="&#x15b;" horiz-adv-x="485" 
d="M57 130q35 -23 79.5 -37t84.5 -14q47 0 72 15t25 42q0 18 -8.5 29.5t-30.5 21.5t-64 22q-89 25 -127 61.5t-38 97.5q0 73 54 114t148 41q46 0 92 -11.5t75 -28.5l-16 -95q-71 40 -147 40q-84 0 -84 -53q0 -25 20 -39.5t76 -30.5q95 -28 135 -65.5t40 -100.5
q0 -71 -58 -113t-159 -42q-52 0 -103 13.5t-82 35.5zM266 776h142l-138 -166h-110z" />
    <glyph glyph-name="Scedilla" unicode="&#x15e;" horiz-adv-x="667" 
d="M313 -16q-47 0 -95 8t-89.5 22t-69.5 33l14 116q48 -29 111.5 -47.5t121.5 -18.5q72 0 113 29t41 79q0 30 -13.5 50.5t-48 38t-96.5 36.5q-84 26 -134 56.5t-72.5 72t-22.5 99.5q0 67 33 115.5t93 75.5t141 27q59 0 119 -15.5t105 -41.5l-20 -112q-43 26 -97 41t-104 15
q-65 0 -101 -26t-36 -73q0 -28 12.5 -47.5t43 -35.5t85.5 -34q91 -28 146 -60.5t79.5 -74.5t24.5 -99q0 -106 -76 -167.5t-208 -61.5zM282 10h79l-21 -70q45 -2 73.5 -27.5t28.5 -65.5q0 -51 -39.5 -79t-110.5 -28q-24 0 -50.5 5.5t-39.5 12.5l15 73q28 -14 68 -14
q55 0 55 34q0 32 -57 32q-22 0 -36 -2z" />
    <glyph glyph-name="scedilla" unicode="&#x15f;" horiz-adv-x="485" 
d="M57 130q35 -23 79.5 -37t84.5 -14q47 0 72 15t25 42q0 18 -8.5 29.5t-30.5 21.5t-64 22q-89 25 -127 61.5t-38 97.5q0 73 54 114t148 41q46 0 92 -11.5t75 -28.5l-16 -95q-71 40 -147 40q-84 0 -84 -53q0 -25 20 -39.5t76 -30.5q95 -28 135 -65.5t40 -100.5
q0 -71 -58 -113t-159 -42q-52 0 -103 13.5t-82 35.5zM202 10h75l-21 -71q46 -1 74 -26.5t28 -66.5q0 -49 -38.5 -77.5t-104.5 -28.5q-25 0 -53 5.5t-41 12.5l15 70q14 -6 32 -10t37 -4q57 0 57 37q0 35 -59 35q-24 0 -36 -3z" />
    <glyph glyph-name="Scaron" unicode="&#x160;" horiz-adv-x="667" 
d="M313 -16q-47 0 -95 8t-89.5 22t-69.5 33l14 116q48 -29 111.5 -47.5t121.5 -18.5q72 0 113 29t41 79q0 30 -13.5 50.5t-48 38t-96.5 36.5q-84 26 -134 56.5t-72.5 72t-22.5 99.5q0 67 33 115.5t93 75.5t141 27q59 0 119 -15.5t105 -41.5l-20 -112q-43 26 -97 41t-104 15
q-65 0 -101 -26t-36 -73q0 -28 12.5 -47.5t43 -35.5t85.5 -34q91 -28 146 -60.5t79.5 -74.5t24.5 -99q0 -106 -76 -167.5t-208 -61.5zM125 984h129l74 -80l74 80h129l-142 -149h-122z" />
    <glyph glyph-name="scaron" unicode="&#x161;" horiz-adv-x="485" 
d="M57 130q35 -23 79.5 -37t84.5 -14q47 0 72 15t25 42q0 18 -8.5 29.5t-30.5 21.5t-64 22q-89 25 -127 61.5t-38 97.5q0 73 54 114t148 41q46 0 92 -11.5t75 -28.5l-16 -95q-71 40 -147 40q-84 0 -84 -53q0 -25 20 -39.5t76 -30.5q95 -28 135 -65.5t40 -100.5
q0 -71 -58 -113t-159 -42q-52 0 -103 13.5t-82 35.5zM56 776h114l78 -93l78 93h114l-138 -166h-108z" />
    <glyph glyph-name="uni0162" unicode="&#x162;" horiz-adv-x="705" 
d="M284 646h-249v114h635v-114h-248v-646h-138v646zM314 10h79l-21 -70q45 -2 73.5 -27.5t28.5 -65.5q0 -51 -39.5 -79t-110.5 -28q-24 0 -50.5 5.5t-39.5 12.5l15 73q28 -14 68 -14q55 0 55 34q0 32 -57 32q-22 0 -36 -2z" />
    <glyph glyph-name="uni0163.alt" unicode="&#x163;" horiz-adv-x="455" 
d="M114 403h-102v104h102v139h126v-139h163v-104h-163v-203q0 -56 19.5 -80.5t63.5 -24.5q47 0 92 23l14 -104q-25 -15 -61 -22.5t-77 -7.5q-90 0 -133.5 47.5t-43.5 147.5v224zM228 10h75l-21 -71q46 -1 74 -26.5t28 -66.5q0 -49 -38.5 -77.5t-104.5 -28.5q-25 0 -53 5.5
t-41 12.5l15 70q14 -6 32 -10t37 -4q57 0 57 37q0 35 -59 35q-24 0 -36 -3z" />
    <glyph glyph-name="Tcaron" unicode="&#x164;" horiz-adv-x="705" 
d="M284 646h-249v114h635v-114h-248v-646h-138v646zM149 984h129l74 -80l74 80h129l-142 -149h-122z" />
    <glyph glyph-name="tcaron.alt" unicode="&#x165;" horiz-adv-x="455" 
d="M114 403h-102v104h102v139h126v-139h163v-104h-163v-203q0 -56 19.5 -80.5t63.5 -24.5q47 0 92 23l14 -104q-25 -15 -61 -22.5t-77 -7.5q-90 0 -133.5 47.5t-43.5 147.5v224zM321 810h119l-50 -213h-81z" />
    <glyph glyph-name="Tbar" unicode="&#x166;" horiz-adv-x="705" 
d="M284 308h-145v93h145v245h-249v114h635v-114h-248v-245h144v-93h-144v-308h-138v308z" />
    <glyph glyph-name="tbar.alt" unicode="&#x167;" horiz-adv-x="455" 
d="M114 646h126v-139h163v-98h-163v-110h137v-84h-137v-18q0 -56 19.5 -80.5t63.5 -24.5q47 0 93 23l13 -101q-25 -15 -61 -22.5t-77 -7.5q-90 0 -133.5 47.5t-43.5 147.5v36h-84v84h84v110h-102v98h102v139z" />
    <glyph glyph-name="Utilde" unicode="&#x168;" horiz-adv-x="844" 
d="M89 760h138v-430q0 -223 195 -223q194 0 194 223v430h139v-441q0 -160 -88 -247.5t-247 -87.5q-157 0 -244 87.5t-87 247.5v441zM347 986q27 0 47 -9.5t35.5 -21.5t28.5 -21.5t28 -9.5q33 0 33 60h86q0 -151 -108 -151q-27 0 -47 9t-35 21.5t-28 21.5t-28 9
q-33 0 -33 -60h-87q0 152 108 152z" />
    <glyph glyph-name="utilde.alt" unicode="&#x169;" horiz-adv-x="614" 
d="M537 0h-122l-2 76q-20 -44 -63 -68t-101 -24q-85 0 -130 52.5t-45 152.5v318h126v-288q0 -65 23 -94t75 -29q53 0 83 36t30 100v275h126v-507zM379 615q-28 0 -48 9.5t-35 22t-28.5 22t-28.5 9.5q-34 0 -34 -62h-85q0 74 27 112t78 38q28 0 48 -9.5t35.5 -21.5t29 -21.5
t28.5 -9.5q34 0 34 61h84q0 -150 -105 -150z" />
    <glyph glyph-name="Umacron" unicode="&#x16a;" horiz-adv-x="844" 
d="M89 760h138v-430q0 -223 195 -223q194 0 194 223v430h139v-441q0 -160 -88 -247.5t-247 -87.5q-157 0 -244 87.5t-87 247.5v441zM261 942h322v-94h-322v94z" />
    <glyph glyph-name="umacron.alt" unicode="&#x16b;" horiz-adv-x="614" 
d="M537 0h-122l-2 76q-20 -44 -63 -68t-101 -24q-85 0 -130 52.5t-45 152.5v318h126v-288q0 -65 23 -94t75 -29q53 0 83 36t30 100v275h126v-507zM143 729h318v-93h-318v93z" />
    <glyph glyph-name="Uring" unicode="&#x16e;" horiz-adv-x="844" 
d="M89 760h138v-430q0 -223 195 -223q194 0 194 223v430h139v-441q0 -160 -88 -247.5t-247 -87.5q-157 0 -244 87.5t-87 247.5v441zM422 1079q59 0 98.5 -37.5t39.5 -93.5q0 -37 -18 -66.5t-49 -47t-71 -17.5q-39 0 -70.5 17.5t-49.5 47t-18 66.5q0 56 39.5 93.5t98.5 37.5z
M422 1010q-28 0 -45 -16.5t-17 -45.5q0 -28 17 -45t45 -17q29 0 45.5 17t16.5 45q0 29 -16.5 45.5t-45.5 16.5z" />
    <glyph glyph-name="uring.alt" unicode="&#x16f;" horiz-adv-x="614" 
d="M537 0h-122l-2 76q-20 -44 -63 -68t-101 -24q-85 0 -130 52.5t-45 152.5v318h126v-288q0 -65 23 -94t75 -29q53 0 83 36t30 100v275h126v-507zM164 712q0 56 39.5 93.5t98.5 37.5t98.5 -37.5t39.5 -93.5t-39.5 -93.5t-98.5 -37.5t-98.5 37.5t-39.5 93.5zM364 712
q0 29 -16.5 45.5t-45.5 16.5q-28 0 -45 -16.5t-17 -45.5q0 -28 17 -45t45 -17q29 0 45.5 17t16.5 45z" />
    <glyph glyph-name="Uhungarumlaut" unicode="&#x170;" horiz-adv-x="844" 
d="M89 760h138v-430q0 -223 195 -223q194 0 194 223v430h139v-441q0 -160 -88 -247.5t-247 -87.5q-157 0 -244 87.5t-87 247.5v441zM329 974h142l-112 -139h-117zM533 974h142l-112 -139h-117z" />
    <glyph glyph-name="uhungarumlaut.alt" unicode="&#x171;" horiz-adv-x="614" 
d="M537 0h-122l-2 76q-20 -44 -63 -68t-101 -24q-85 0 -130 52.5t-45 152.5v318h126v-288q0 -65 23 -94t75 -29q53 0 83 36t30 100v275h126v-507zM229 776h129l-114 -166h-102zM416 776h128l-114 -166h-102z" />
    <glyph glyph-name="Uogonek" unicode="&#x172;" horiz-adv-x="844" 
d="M89 760h138v-430q0 -223 195 -223q194 0 194 223v430h139v-441q0 -160 -88 -247.5t-247 -87.5q-157 0 -244 87.5t-87 247.5v441zM601 -237q-14 -9 -39.5 -14.5t-51.5 -5.5q-57 0 -89.5 26.5t-32.5 72.5q0 38 22 76t61 70.5t89 52.5l57 -8q-60 -40 -92.5 -81t-32.5 -76
q0 -38 45 -38q28 0 54 13z" />
    <glyph glyph-name="uogonek.alt" unicode="&#x173;" horiz-adv-x="614" 
d="M537 0h-122l-2 76q-20 -44 -63 -68t-101 -24q-85 0 -130 52.5t-45 152.5v318h126v-288q0 -65 23 -94t75 -29q53 0 83 36t30 100v275h126v-507zM491 34l46 -34q-97 -69 -97 -127q0 -37 43 -37q29 0 52 13l9 -86q-14 -10 -37 -15t-49 -5q-56 0 -88 26.5t-32 73.5
q0 50 40 100.5t113 90.5z" />
    <glyph glyph-name="Wcircumflex" unicode="&#x174;" horiz-adv-x="1122" 
d="M25 760h145l157 -602l172 592h127l172 -583l157 593h141l-228 -760h-135l-173 580l-170 -580h-136zM500 984h122l142 -149h-129l-74 80l-74 -80h-129z" />
    <glyph glyph-name="wcircumflex" unicode="&#x175;" horiz-adv-x="845" 
d="M22 507h131l102 -374l112 374h107l118 -374l102 374h129l-170 -507h-115l-119 358l-114 -358h-112zM369 776h108l138 -166h-114l-78 93l-78 -93h-114z" />
    <glyph glyph-name="Ycircumflex" unicode="&#x176;" horiz-adv-x="723" 
d="M430 319v-319h-137v320l-281 440h153l200 -340l199 340h147zM300 984h122l142 -149h-129l-74 80l-74 -80h-129z" />
    <glyph glyph-name="ycircumflex" unicode="&#x177;" horiz-adv-x="581" 
d="M225 -245h-129l135 281l-214 471h138l140 -343l135 343h134zM240 776h108l138 -166h-114l-78 93l-78 -93h-114z" />
    <glyph glyph-name="Ydieresis" unicode="&#x178;" horiz-adv-x="723" 
d="M430 319v-319h-137v320l-281 440h153l200 -340l199 340h147zM253 967q31 0 50.5 -19t19.5 -49q0 -29 -19.5 -47.5t-50.5 -18.5q-30 0 -49.5 18.5t-19.5 47.5q0 30 19.5 49t49.5 19zM468 967q31 0 50.5 -19t19.5 -49q0 -29 -19.5 -47.5t-50.5 -18.5q-30 0 -49.5 18.5
t-19.5 47.5q0 30 19.5 49t49.5 19z" />
    <glyph glyph-name="Zacute" unicode="&#x179;" horiz-adv-x="724" 
d="M489 648h-411v112h577v-102l-436 -546h443v-112h-609v102zM374 975h155l-147 -140h-122z" />
    <glyph glyph-name="zacute" unicode="&#x17a;" horiz-adv-x="537" 
d="M322 403h-266v104h423v-92l-279 -311h286v-104h-441v92zM282 776h142l-138 -166h-110z" />
    <glyph glyph-name="Zdotaccent" unicode="&#x17b;" horiz-adv-x="724" 
d="M489 648h-411v112h577v-102l-436 -546h443v-112h-609v102zM356 978q35 0 56 -21t21 -54t-21 -53.5t-56 -20.5q-34 0 -55 20.5t-21 53.5t21 54t55 21z" />
    <glyph glyph-name="zdotaccent" unicode="&#x17c;" horiz-adv-x="537" 
d="M322 403h-266v104h423v-92l-279 -311h286v-104h-441v92zM264 763q33 0 53.5 -20t20.5 -53q0 -31 -20.5 -51t-53.5 -20t-53.5 19.5t-20.5 51.5t20.5 52.5t53.5 20.5z" />
    <glyph glyph-name="Zcaron" unicode="&#x17d;" horiz-adv-x="724" 
d="M489 648h-411v112h577v-102l-436 -546h443v-112h-609v102zM153 984h129l74 -80l74 80h129l-142 -149h-122z" />
    <glyph glyph-name="zcaron" unicode="&#x17e;" horiz-adv-x="537" 
d="M322 403h-266v104h423v-92l-279 -311h286v-104h-441v92zM72 776h114l78 -93l78 93h114l-138 -166h-108z" />
    <glyph glyph-name="florin" unicode="&#x192;" horiz-adv-x="421" 
d="M245 -41q0 -213 -196 -213q-33 0 -65 7t-50 17l13 104q44 -19 85 -19q45 0 66 26.5t21 82.5v439h-94v104h94v67q0 117 54.5 179t156.5 62q31 0 62 -6t52 -16l-13 -103q-18 7 -39 11t-41 4q-55 0 -80.5 -33.5t-25.5 -108.5v-56h142v-104h-142v-444z" />
    <glyph glyph-name="uni0218" unicode="&#x218;" horiz-adv-x="667" 
d="M313 -16q-47 0 -95 8t-89.5 22t-69.5 33l14 116q48 -29 111.5 -47.5t121.5 -18.5q72 0 113 29t41 79q0 30 -13.5 50.5t-48 38t-96.5 36.5q-84 26 -134 56.5t-72.5 72t-22.5 99.5q0 67 33 115.5t93 75.5t141 27q59 0 119 -15.5t105 -41.5l-20 -112q-43 26 -97 41t-104 15
q-65 0 -101 -26t-36 -73q0 -28 12.5 -47.5t43 -35.5t85.5 -34q91 -28 146 -60.5t79.5 -74.5t24.5 -99q0 -106 -76 -167.5t-208 -61.5zM263 -64h120q-1 -31 -10.5 -65.5t-24.5 -65.5t-33 -52h-95q20 37 31 85.5t12 97.5z" />
    <glyph glyph-name="uni0219" unicode="&#x219;" horiz-adv-x="485" 
d="M57 130q35 -23 79.5 -37t84.5 -14q47 0 72 15t25 42q0 18 -8.5 29.5t-30.5 21.5t-64 22q-89 25 -127 61.5t-38 97.5q0 73 54 114t148 41q46 0 92 -11.5t75 -28.5l-16 -95q-71 40 -147 40q-84 0 -84 -53q0 -25 20 -39.5t76 -30.5q95 -28 135 -65.5t40 -100.5
q0 -71 -58 -113t-159 -42q-52 0 -103 13.5t-82 35.5zM181 -64h118q-1 -31 -10.5 -65.5t-24.5 -65.5t-33 -52h-93q20 37 31 85.5t12 97.5z" />
    <glyph glyph-name="uni021A" unicode="&#x21a;" horiz-adv-x="705" 
d="M284 646h-249v114h635v-114h-248v-646h-138v646zM293 -64h120q-1 -31 -10.5 -65.5t-24.5 -65.5t-33 -52h-95q20 37 31 85.5t12 97.5z" />
    <glyph glyph-name="uni021B.alt" unicode="&#x21b;" horiz-adv-x="455" 
d="M114 403h-102v104h102v139h126v-139h163v-104h-163v-203q0 -56 19.5 -80.5t63.5 -24.5q47 0 92 23l14 -104q-25 -15 -61 -22.5t-77 -7.5q-90 0 -133.5 47.5t-43.5 147.5v224zM202 -64h118q-1 -31 -10.5 -65.5t-24.5 -65.5t-33 -52h-93q20 37 31 85.5t12 97.5z" />
    <glyph glyph-name="uni0237.alt" unicode="&#x237;" horiz-adv-x="281" 
d="M204 -41q0 -213 -196 -213q-33 0 -65 7t-51 17l13 104q21 -9 42.5 -14t43.5 -5q44 0 65.5 26.5t21.5 82.5v543h126v-548z" />
    <glyph glyph-name="circumflex" unicode="&#x2c6;" horiz-adv-x="500" 
d="M196 776h108l138 -166h-114l-78 93l-78 -93h-114z" />
    <glyph glyph-name="caron" unicode="&#x2c7;" horiz-adv-x="500" 
d="M58 776h114l78 -93l78 93h114l-138 -166h-108z" />
    <glyph glyph-name="uni02C9" unicode="&#x2c9;" horiz-adv-x="500" 
d="M91 729h318v-93h-318v93z" />
    <glyph glyph-name="uni02CB" unicode="&#x2cb;" horiz-adv-x="500" 
d="M126 776h141l107 -166h-111z" />
    <glyph glyph-name="breve" unicode="&#x2d8;" horiz-adv-x="500" 
d="M82 746v6t1 7h88v-7q0 -37 21 -58t58 -21q38 0 58.5 21t20.5 58v7h88q1 -4 1 -7v-6q0 -70 -45 -111t-123 -41t-123 41t-45 111z" />
    <glyph glyph-name="dotaccent" unicode="&#x2d9;" horiz-adv-x="500" 
d="M249 763q33 0 53.5 -20t20.5 -53q0 -31 -20.5 -51t-53.5 -20t-53.5 19.5t-20.5 51.5t20.5 52.5t53.5 20.5z" />
    <glyph glyph-name="ring" unicode="&#x2da;" horiz-adv-x="500" 
d="M112 712q0 56 39.5 93.5t98.5 37.5t98.5 -37.5t39.5 -93.5t-39.5 -93.5t-98.5 -37.5t-98.5 37.5t-39.5 93.5zM312 712q0 29 -16.5 45.5t-45.5 16.5q-28 0 -45 -16.5t-17 -45.5q0 -28 17 -45t45 -17q29 0 45.5 17t16.5 45z" />
    <glyph glyph-name="ogonek" unicode="&#x2db;" horiz-adv-x="500" 
d="M315 34l46 -34q-97 -69 -97 -127q0 -37 43 -37q29 0 52 13l9 -86q-14 -10 -37 -15t-49 -5q-56 0 -88 26.5t-32 73.5q0 50 40 100.5t113 90.5z" />
    <glyph glyph-name="tilde" unicode="&#x2dc;" horiz-adv-x="500" 
d="M327 615q-28 0 -48 9.5t-35 22t-28.5 22t-28.5 9.5q-34 0 -34 -62h-85q0 74 27 112t78 38q28 0 48 -9.5t35.5 -21.5t29 -21.5t28.5 -9.5q34 0 34 61h84q0 -150 -105 -150z" />
    <glyph glyph-name="hungarumlaut" unicode="&#x2dd;" horiz-adv-x="500" 
d="M153 776h129l-114 -166h-102zM340 776h128l-114 -166h-102z" />
    <glyph glyph-name="gravecomb" unicode="&#x300;" 
d="M-159 776h141l107 -166h-111z" />
    <glyph glyph-name="acutecomb" unicode="&#x301;" 
d="M18 776h142l-138 -166h-110z" />
    <glyph glyph-name="uni0302" unicode="&#x302;" 
d="M-54 776h108l138 -166h-114l-78 93l-78 -93h-114z" />
    <glyph glyph-name="tildecomb" unicode="&#x303;" 
d="M77 615q-28 0 -48 9.5t-35 22t-28.5 22t-28.5 9.5q-34 0 -34 -62h-85q0 74 27 112t78 38q28 0 48 -9.5t35.5 -21.5t29 -21.5t28.5 -9.5q34 0 34 61h84q0 -150 -105 -150z" />
    <glyph glyph-name="uni0304" unicode="&#x304;" 
d="M-159 729h318v-93h-318v93z" />
    <glyph glyph-name="uni0306" unicode="&#x306;" 
d="M-168 746v6t1 7h88v-7q0 -37 21 -58t58 -21q38 0 58.5 21t20.5 58v7h88q1 -4 1 -7v-6q0 -70 -45 -111t-123 -41t-123 41t-45 111z" />
    <glyph glyph-name="uni0307" unicode="&#x307;" 
d="M0 763q33 0 53.5 -20t20.5 -53q0 -31 -20.5 -51t-53.5 -20t-53.5 19.5t-20.5 51.5t20.5 52.5t53.5 20.5z" />
    <glyph glyph-name="uni0308" unicode="&#x308;" 
d="M-106 754q30 0 49 -18.5t19 -47.5t-19 -47.5t-49 -18.5t-48.5 18t-18.5 48q0 29 19 47.5t48 18.5zM105 754q30 0 49 -18.5t19 -47.5t-19 -47.5t-49 -18.5t-48.5 18t-18.5 48q0 29 19 47.5t48 18.5z" />
    <glyph glyph-name="uni030A" unicode="&#x30a;" 
d="M-138 712q0 56 39.5 93.5t98.5 37.5t98.5 -37.5t39.5 -93.5t-39.5 -93.5t-98.5 -37.5t-98.5 37.5t-39.5 93.5zM62 712q0 29 -16.5 45.5t-45.5 16.5q-28 0 -45 -16.5t-17 -45.5q0 -28 17 -45t45 -17q29 0 45.5 17t16.5 45z" />
    <glyph glyph-name="uni030B" unicode="&#x30b;" 
d="M-73 776h129l-114 -166h-102zM114 776h128l-114 -166h-102z" />
    <glyph glyph-name="uni030C" unicode="&#x30c;" 
d="M-192 776h114l78 -93l78 93h114l-138 -166h-108z" />
    <glyph glyph-name="uni0312" unicode="&#x312;" 
d="M-2 781h90q-19 -36 -29 -77t-11 -94h-118q2 46 20 91.5t48 79.5z" />
    <glyph glyph-name="uni0315" unicode="&#x315;" 
d="M-51 810h122l-51 -236h-83z" />
    <glyph glyph-name="dotbelowcomb" unicode="&#x323;" 
d="M0 -55q33 0 53.5 -20t20.5 -53q0 -31 -20.5 -51t-53.5 -20t-53.5 19.5t-20.5 51.5t20.5 52.5t53.5 20.5z" />
    <glyph glyph-name="uni0326" unicode="&#x326;" 
d="M-53 -64h118q-1 -31 -10.5 -65.5t-24.5 -65.5t-33 -52h-93q20 37 31 85.5t12 97.5z" />
    <glyph glyph-name="uni0327" unicode="&#x327;" 
d="M-39 10h75l-21 -71q46 -1 74 -26.5t28 -66.5q0 -49 -38.5 -77.5t-104.5 -28.5q-25 0 -53 5.5t-41 12.5l15 70q14 -6 32 -10t37 -4q57 0 57 37q0 35 -59 35q-24 0 -36 -3z" />
    <glyph glyph-name="uni0328" unicode="&#x328;" 
d="M18 34l46 -34q-97 -69 -97 -127q0 -37 43 -37q29 0 52 13l9 -86q-14 -10 -37 -15t-49 -5q-56 0 -88 26.5t-32 73.5q0 50 40 100.5t113 90.5z" />
    <glyph glyph-name="uni0344" unicode="&#x344;" 
d="M-21 778h110l-81 -178h-85zM109.5 643q-17.5 17 -17.5 45q0 27 17.5 44.5t44.5 17.5q28 0 45 -17t17 -45t-17 -45t-44 -17q-28 0 -45.5 17zM-199 643q-17 17 -17 45q0 27 17 44.5t44 17.5q28 0 45.5 -17t17.5 -45t-17.5 -45t-44.5 -17q-28 0 -45 17z" />
    <glyph glyph-name="uni0374" unicode="&#x374;" horiz-adv-x="232" 
d="M75 744h119l-59 -262h-90z" />
    <glyph glyph-name="uni0375" unicode="&#x375;" horiz-adv-x="232" 
d="M61 123h119l-59 -262h-90z" />
    <glyph glyph-name="uni037E" unicode="&#x37e;" horiz-adv-x="297" 
d="M94 142h126q0 -59 -15 -119.5t-40.5 -112.5t-58.5 -86h-103q42 65 66 148.5t25 169.5zM68 435q0 34 22.5 56t57.5 22t58 -22t23 -56t-23 -56t-58 -22t-57.5 22t-22.5 56z" />
    <glyph glyph-name="tonos" unicode="&#x384;" horiz-adv-x="500" 
d="M263 778h125l-84 -178h-101z" />
    <glyph glyph-name="dieresistonos" unicode="&#x385;" horiz-adv-x="500" 
d="M229 778h110l-81 -178h-85zM359.5 643q-17.5 17 -17.5 45q0 27 17.5 44.5t44.5 17.5q28 0 45 -17t17 -45t-17 -45t-44 -17q-28 0 -45.5 17zM51 643q-17 17 -17 45q0 27 17 44.5t44 17.5q28 0 45.5 -17t17.5 -45t-17.5 -45t-44.5 -17q-28 0 -45 17z" />
    <glyph glyph-name="Alphatonos" unicode="&#x386;" horiz-adv-x="829" 
d="M355 760h146l305 -760h-146l-76 207h-319l-76 -207h-138zM544 315l-119 326l-120 -326h239zM93 760h127l-85 -213h-100z" />
    <glyph glyph-name="anoteleia" unicode="&#x387;" horiz-adv-x="297" 
d="M68 435q0 34 22.5 56t57.5 22t58 -22t23 -56t-23 -56t-58 -22t-57.5 22t-22.5 56z" />
    <glyph glyph-name="Epsilontonos" unicode="&#x388;" horiz-adv-x="859" 
d="M283 760h494v-109h-363v-208h323v-110h-323v-224h378v-109h-509v760zM90 760h127l-85 -213h-100z" />
    <glyph glyph-name="Etatonos" unicode="&#x389;" horiz-adv-x="1040" 
d="M283 760h138v-311h387v311h138v-760h-138v337h-387v-337h-138v760zM90 760h127l-85 -213h-100z" />
    <glyph glyph-name="Iotatonos" unicode="&#x38a;" horiz-adv-x="516" 
d="M283 760h138v-760h-138v760zM90 760h127l-85 -213h-100z" />
    <glyph glyph-name="Omicrontonos" unicode="&#x38c;" horiz-adv-x="1037" 
d="M188 380q0 84 30.5 156t85 126t127.5 84t157 30q86 0 158.5 -29.5t126.5 -83t84 -126t30 -157.5q0 -84 -30.5 -156t-85 -126t-127 -84t-156.5 -30q-86 0 -159 29.5t-127 83t-84 126t-30 157.5zM844 380q0 80 -33 141.5t-90.5 96.5t-132.5 35q-74 0 -132 -35t-91 -96.5
t-33 -141.5q0 -79 33 -141t91 -97t132 -35t132 35t91 97t33 141zM90 760h127l-85 -213h-100z" />
    <glyph glyph-name="Upsilontonos" unicode="&#x38e;" horiz-adv-x="968" 
d="M675 319v-319h-137v320l-281 440h153l200 -340l199 340h147zM90 760h127l-85 -213h-100z" />
    <glyph glyph-name="Omegatonos" unicode="&#x38f;" horiz-adv-x="1051" 
d="M200 413q0 78 29 144t81.5 115.5t123 76.5t153.5 27q85 0 155.5 -27t122.5 -75.5t80.5 -115t28.5 -145.5q0 -95 -39 -172t-114 -126h155v-115h-322v109q84 41 130 117.5t46 173.5q0 75 -30.5 132t-85 89t-127.5 32q-72 0 -127 -32t-86 -89t-31 -132q0 -97 46.5 -173.5
t130.5 -117.5v-109h-322v115h154q-73 49 -112.5 126t-39.5 172zM90 760h127l-85 -213h-100z" />
    <glyph glyph-name="iotadieresistonos" unicode="&#x390;" horiz-adv-x="351" 
d="M74 507h126v-327q0 -46 12.5 -65.5t41.5 -19.5q32 0 61 18l14 -105q-17 -10 -45 -17t-59 -7q-79 0 -115 42t-36 135v346zM115 778h110l-81 -178h-85zM245.5 643q-17.5 17 -17.5 45q0 27 17.5 44.5t44.5 17.5q28 0 45 -17t17 -45t-17 -45t-44 -17q-28 0 -45.5 17zM-63 643
q-17 17 -17 45q0 27 17 44.5t44 17.5q28 0 45.5 -17t17.5 -45t-17.5 -45t-44.5 -17q-28 0 -45 17z" />
    <glyph glyph-name="Alpha" unicode="&#x391;" horiz-adv-x="801" 
d="M327 760h146l305 -760h-146l-76 207h-319l-76 -207h-138zM516 315l-119 326l-120 -326h239z" />
    <glyph glyph-name="Beta" unicode="&#x392;" horiz-adv-x="712" 
d="M94 760h279q117 0 180.5 -50.5t63.5 -143.5q0 -54 -28.5 -97t-78.5 -64q68 -15 107 -65t39 -120q0 -106 -69 -163t-198 -57h-295v760zM387 101q65 0 100 31.5t35 89.5q0 121 -145 121h-157v-242h167zM357 441q67 0 99 28t32 87q0 50 -33 76.5t-95 26.5h-140v-218h137z
" />
    <glyph glyph-name="Gamma" unicode="&#x393;" horiz-adv-x="613" 
d="M94 760h484v-114h-346v-646h-138v760z" />
    <glyph glyph-name="uni0394" unicode="&#x394;" horiz-adv-x="797" 
d="M327 760h144l283 -658v-102h-711v102zM395 638l-213 -526h426z" />
    <glyph glyph-name="Epsilon" unicode="&#x395;" horiz-adv-x="670" 
d="M94 760h494v-109h-363v-208h323v-110h-323v-224h378v-109h-509v760z" />
    <glyph glyph-name="Zeta" unicode="&#x396;" horiz-adv-x="724" 
d="M489 648h-411v112h577v-102l-436 -546h443v-112h-609v102z" />
    <glyph glyph-name="Eta" unicode="&#x397;" horiz-adv-x="851" 
d="M94 760h138v-311h387v311h138v-760h-138v337h-387v-337h-138v760z" />
    <glyph glyph-name="Theta" unicode="&#x398;" horiz-adv-x="899" 
d="M818.5 224q-30.5 -72 -85 -126t-127 -84t-156.5 -30q-86 0 -159 29.5t-127 83t-84 126t-30 157.5q0 84 30.5 156t85 126t127.5 84t157 30q86 0 158.5 -29.5t126.5 -83t84 -126t30 -157.5q0 -84 -30.5 -156zM713 380q0 81 -34 144.5t-93.5 99.5t-135.5 36t-135.5 -36
t-93.5 -99t-34 -145q0 -81 34 -144t93.5 -99.5t135.5 -36.5t135.5 36t93.5 99.5t34 144.5zM292 325v109h315v-109h-315z" />
    <glyph glyph-name="Iota" unicode="&#x399;" horiz-adv-x="326" 
d="M94 760h138v-760h-138v760z" />
    <glyph glyph-name="Kappa" unicode="&#x39a;" horiz-adv-x="770" 
d="M94 760h137v-332l322 332h173l-363 -363l398 -397h-187l-343 352v-352h-137v760z" />
    <glyph glyph-name="Lambda" unicode="&#x39b;" horiz-adv-x="770" 
d="M311 760h148l288 -760h-149l-215 598l-214 -598h-146z" />
    <glyph glyph-name="Mu.alt" unicode="&#x39c;" horiz-adv-x="1021" 
d="M120 760h131l261 -503l257 503h132l40 -760h-130l-23 558l-221 -431h-112l-223 424l-22 -551h-130z" />
    <glyph glyph-name="Nu" unicode="&#x39d;" horiz-adv-x="850" 
d="M94 760h124l412 -559v559h125v-760h-123l-412 559v-559h-126v760z" />
    <glyph glyph-name="Xi" unicode="&#x39e;" horiz-adv-x="689" 
d="M65 0v112h559v-112h-559zM80 648v112h529v-112h-529zM167 331v113h356v-113h-356z" />
    <glyph glyph-name="Omicron" unicode="&#x39f;" horiz-adv-x="899" 
d="M50 380q0 84 30.5 156t85 126t127.5 84t157 30q86 0 158.5 -29.5t126.5 -83t84 -126t30 -157.5q0 -84 -30.5 -156t-85 -126t-127 -84t-156.5 -30q-86 0 -159 29.5t-127 83t-84 126t-30 157.5zM706 380q0 80 -33 141.5t-90.5 96.5t-132.5 35q-74 0 -132 -35t-91 -96.5
t-33 -141.5q0 -79 33 -141t91 -97t132 -35t132 35t91 97t33 141z" />
    <glyph glyph-name="Pi" unicode="&#x3a0;" horiz-adv-x="841" 
d="M94 760h653v-760h-138v646h-377v-646h-138v760z" />
    <glyph glyph-name="Rho" unicode="&#x3a1;" horiz-adv-x="652" 
d="M94 760h244q84 0 145.5 -30t95.5 -85t34 -129q0 -75 -34 -130.5t-95.5 -86t-145.5 -30.5h-112v-269h-132v760zM316 375q79 0 120 35.5t41 103.5t-41 104t-120 36h-90v-279h90z" />
    <glyph glyph-name="Sigma" unicode="&#x3a3;" horiz-adv-x="699" 
d="M331 384l-273 279v97h559v-109h-379l225 -227v-71l-237 -244h406v-109h-579v97z" />
    <glyph glyph-name="Tau" unicode="&#x3a4;" horiz-adv-x="705" 
d="M284 646h-249v114h635v-114h-248v-646h-138v646z" />
    <glyph glyph-name="Upsilon" unicode="&#x3a5;" horiz-adv-x="723" 
d="M430 319v-319h-137v320l-281 440h153l200 -340l199 340h147z" />
    <glyph glyph-name="Phi" unicode="&#x3a6;" horiz-adv-x="990" 
d="M428 54q-115 5 -199.5 46.5t-131.5 113t-47 166.5q0 94 47 166t132 113.5t199 46.5v75h134v-75q115 -5 199.5 -46.5t131.5 -113t47 -166.5q0 -94 -47 -166t-132 -113.5t-199 -46.5v-75h-134v75zM251 531q-65 -57 -65 -151t65 -151t179 -65v432q-114 -8 -179 -65zM804 380
q0 94 -65 151t-178 65v-432q113 8 178 65t65 151z" />
    <glyph glyph-name="Chi" unicode="&#x3a7;" horiz-adv-x="745" 
d="M291 397l-253 363h162l178 -275l178 275h155l-255 -368l274 -392h-163l-200 303l-197 -303h-155z" />
    <glyph glyph-name="Psi" unicode="&#x3a8;" horiz-adv-x="979" 
d="M424 760h130v-425q105 5 155.5 62.5t50.5 175.5v187h130v-198q0 -157 -87 -246t-249 -96v-220h-130v220q-161 7 -248 96t-87 246v198h131v-187q0 -118 49.5 -175.5t154.5 -62.5v425z" />
    <glyph glyph-name="uni03A9" unicode="&#x3a9;" horiz-adv-x="928" 
d="M77 413q0 78 29 144t81.5 115.5t123 76.5t153.5 27q85 0 155.5 -27t122.5 -75.5t80.5 -115t28.5 -145.5q0 -95 -39 -172t-114 -126h155v-115h-322v109q84 41 130 117.5t46 173.5q0 75 -30.5 132t-85 89t-127.5 32q-72 0 -127 -32t-86 -89t-31 -132q0 -97 46.5 -173.5
t130.5 -117.5v-109h-322v115h154q-73 49 -112.5 126t-39.5 172z" />
    <glyph glyph-name="Iotadieresis" unicode="&#x3aa;" horiz-adv-x="326" 
d="M94 760h138v-760h-138v760zM55 967q31 0 50.5 -19t19.5 -49q0 -29 -19.5 -47.5t-50.5 -18.5q-30 0 -49.5 18.5t-19.5 47.5q0 30 19.5 49t49.5 19zM270 967q31 0 50.5 -19t19.5 -49q0 -29 -19.5 -47.5t-50.5 -18.5q-30 0 -49.5 18.5t-19.5 47.5q0 30 19.5 49t49.5 19z" />
    <glyph glyph-name="Upsilondieresis" unicode="&#x3ab;" horiz-adv-x="723" 
d="M430 319v-319h-137v320l-281 440h153l200 -340l199 340h147zM253 967q31 0 50.5 -19t19.5 -49q0 -29 -19.5 -47.5t-50.5 -18.5q-30 0 -49.5 18.5t-19.5 47.5q0 30 19.5 49t49.5 19zM468 967q31 0 50.5 -19t19.5 -49q0 -29 -19.5 -47.5t-50.5 -18.5q-30 0 -49.5 18.5
t-19.5 47.5q0 30 19.5 49t49.5 19z" />
    <glyph glyph-name="alphatonos" unicode="&#x3ac;" horiz-adv-x="657" 
d="M563 160q0 -58 36 -58q15 0 30 7l6 -101q-29 -17 -80 -17q-99 0 -110 95q-26 -50 -70 -76t-100 -26q-66 0 -117.5 34.5t-81 95t-29.5 138.5t30 139t82.5 96.5t118.5 35.5q53 0 96 -26.5t66 -70.5l3 81h120v-347zM444 253q0 71 -37 114t-98 43q-60 0 -97.5 -43t-37.5 -114
q0 -70 37.5 -113.5t97.5 -43.5q61 0 98 43.5t37 113.5zM310 778h125l-84 -178h-101z" />
    <glyph glyph-name="epsilontonos" unicode="&#x3ad;" horiz-adv-x="531" 
d="M483 25q-35 -18 -89.5 -29.5t-116.5 -11.5q-110 0 -170 39t-60 112q0 46 28.5 78t77.5 45q-41 11 -65.5 41.5t-24.5 74.5q0 68 59.5 108.5t158.5 40.5q53 0 103 -10.5t84 -27.5l-13 -96q-37 16 -78.5 25t-86.5 9q-49 0 -75.5 -17t-26.5 -46q0 -32 26 -45.5t83 -13.5h85
v-85h-80q-62 0 -92 -15t-30 -50q0 -32 29 -49t78 -17q51 0 96.5 10.5t86.5 29.5zM278 778h125l-84 -178h-101z" />
    <glyph glyph-name="etatonos" unicode="&#x3ae;" horiz-adv-x="633" 
d="M559 -251h-126v535q0 127 -98 127q-55 0 -85 -36t-30 -104v-271h-126v350q0 54 -36 54q-15 0 -30 -6l-6 100q25 17 78 17q98 0 112 -83q22 43 65 67t97 24q90 0 137.5 -55.5t47.5 -160.5v-558zM324 778h125l-84 -178h-101z" />
    <glyph glyph-name="iotatonos" unicode="&#x3af;" horiz-adv-x="351" 
d="M74 507h126v-327q0 -46 12.5 -65.5t41.5 -19.5q32 0 61 18l14 -105q-17 -10 -45 -17t-59 -7q-79 0 -115 42t-36 135v346zM133 778h125l-84 -178h-101z" />
    <glyph glyph-name="upsilondieresistonos.alt" unicode="&#x3b0;" horiz-adv-x="588" 
d="M74 507h126v-276q0 -135 100 -135q63 0 90 46.5t27 122.5q0 64 -12.5 122.5t-35.5 114.5l124 10q21 -49 34.5 -112.5t13.5 -135.5q0 -134 -60.5 -207t-182.5 -73q-112 0 -168 61.5t-56 179.5v282zM276 778h110l-81 -178h-85zM406.5 643q-17.5 17 -17.5 45q0 27 17.5 44.5
t44.5 17.5q28 0 45 -17t17 -45t-17 -45t-44 -17q-28 0 -45.5 17zM98 643q-17 17 -17 45q0 27 17 44.5t44 17.5q28 0 45.5 -17t17.5 -45t-17.5 -45t-44.5 -17q-28 0 -45 17z" />
    <glyph glyph-name="alpha" unicode="&#x3b1;" horiz-adv-x="657" 
d="M563 160q0 -58 36 -58q15 0 30 7l6 -101q-29 -17 -80 -17q-99 0 -110 95q-26 -50 -70 -76t-100 -26q-66 0 -117.5 34.5t-81 95t-29.5 138.5t30 139t82.5 96.5t118.5 35.5q53 0 96 -26.5t66 -70.5l3 81h120v-347zM444 253q0 71 -37 114t-98 43q-60 0 -97.5 -43t-37.5 -114
q0 -70 37.5 -113.5t97.5 -43.5q61 0 98 43.5t37 113.5z" />
    <glyph glyph-name="beta" unicode="&#x3b2;" horiz-adv-x="655" 
d="M76 534q0 86 30 149t86 97.5t134 34.5q67 0 116.5 -25.5t77.5 -72.5t28 -110q0 -62 -32 -110t-86 -67q82 -15 129.5 -71t47.5 -145q0 -70 -29 -122t-79.5 -80t-114.5 -28q-62 0 -108.5 25t-73.5 69v-323h-126v779zM445 129.5q37 34.5 37 97.5q0 71 -48 105.5t-131 34.5
h-22v102h19q59 0 92 35t33 93q0 51 -28.5 80.5t-72.5 29.5q-58 0 -90 -45t-32 -121v-258q0 -71 23 -112t57.5 -58.5t70.5 -17.5q55 0 92 34.5z" />
    <glyph glyph-name="gamma" unicode="&#x3b3;" horiz-adv-x="561" 
d="M17 507h138l128 -411l131 411h130l-199 -523v-229h-126v229z" />
    <glyph glyph-name="delta" unicode="&#x3b4;" horiz-adv-x="627" 
d="M223 478q-61 29 -93.5 70t-32.5 96t29.5 93t81.5 58t119 20q54 0 105 -12t87 -31l-14 -106q-38 19 -81.5 29t-82.5 10q-52 0 -86.5 -18t-34.5 -56t33 -60t80 -41q40 -16 83 -36.5t80.5 -51t60.5 -77.5t23 -116q0 -79 -34 -139t-94 -93t-138 -33t-138 32.5t-94.5 91.5
t-34.5 138q0 90 48.5 151t127.5 81zM314 404q-41 0 -73 -20t-50 -54.5t-18 -78.5q0 -67 40 -111t101 -44q41 0 73 20t50 55.5t18 79.5q0 67 -39.5 110t-101.5 43z" />
    <glyph glyph-name="epsilon" unicode="&#x3b5;" horiz-adv-x="531" 
d="M483 25q-35 -18 -89.5 -29.5t-116.5 -11.5q-110 0 -170 39t-60 112q0 46 28.5 78t77.5 45q-41 11 -65.5 41.5t-24.5 74.5q0 68 59.5 108.5t158.5 40.5q53 0 103 -10.5t84 -27.5l-13 -96q-37 16 -78.5 25t-86.5 9q-49 0 -75.5 -17t-26.5 -46q0 -32 26 -45.5t83 -13.5h85
v-85h-80q-62 0 -92 -15t-30 -50q0 -32 29 -49t78 -17q51 0 96.5 10.5t86.5 29.5z" />
    <glyph glyph-name="zeta" unicode="&#x3b6;" horiz-adv-x="509" 
d="M331 706h-259v104h408v-93l-26 -24q-135 -125 -207.5 -240t-72.5 -207q0 -67 37 -102.5t109 -51.5l5 -1q45 -9 83 -26.5t60.5 -49t22.5 -84.5q0 -34 -12 -65.5t-29 -54.5l-117 10q12 17 23.5 40.5t11.5 47.5q0 34 -24 48.5t-67 23.5l-4 1q-84 19 -133.5 56.5t-71 87
t-21.5 103.5q0 110 75 230t209 247z" />
    <glyph glyph-name="eta" unicode="&#x3b7;" horiz-adv-x="633" 
d="M559 -251h-126v535q0 127 -98 127q-55 0 -85 -36t-30 -104v-271h-126v350q0 54 -36 54q-15 0 -30 -6l-6 100q25 17 78 17q98 0 112 -83q22 43 65 67t97 24q90 0 137.5 -55.5t47.5 -160.5v-558z" />
    <glyph glyph-name="theta" unicode="&#x3b8;" horiz-adv-x="630" 
d="M315 -16q-129 0 -198.5 109t-69.5 306q0 100 18 178q26 115 89.5 176.5t160.5 61.5q129 0 198 -109t69 -306q0 -98 -17 -178q-27 -115 -90.5 -176.5t-159.5 -61.5zM168 450h294q-6 128 -44 192.5t-103 64.5q-102 0 -135 -156q-9 -45 -12 -101zM315 92q102 0 134 156
q10 44 13 101h-294q6 -128 44 -192.5t103 -64.5z" />
    <glyph glyph-name="iota" unicode="&#x3b9;" horiz-adv-x="351" 
d="M74 507h126v-327q0 -46 12.5 -65.5t41.5 -19.5q32 0 61 18l14 -105q-17 -10 -45 -17t-59 -7q-79 0 -115 42t-36 135v346z" />
    <glyph glyph-name="kappa" unicode="&#x3ba;" horiz-adv-x="598" 
d="M78 507h126v-216l201 216h149l-233 -240l272 -267h-162l-227 225v-225h-126v507z" />
    <glyph glyph-name="lambda" unicode="&#x3bb;" horiz-adv-x="587" 
d="M570 0h-135l-142 385l-141 -385h-135l213 513l-126 297h128z" />
    <glyph glyph-name="uni03BC" unicode="&#x3bc;" horiz-adv-x="633" 
d="M76 507h126v-287q0 -64 23.5 -94t74.5 -30q53 0 83 36.5t30 99.5v275h126v-347q0 -58 36 -58q15 0 30 7l6 -101q-27 -17 -76 -17q-87 0 -103 77q-19 -42 -52 -63t-76 -21q-73 0 -102 45v-274h-126v752z" />
    <glyph glyph-name="nu" unicode="&#x3bd;" horiz-adv-x="561" 
d="M17 507h138l128 -382l131 382h130l-199 -507h-129z" />
    <glyph glyph-name="xi" unicode="&#x3be;" horiz-adv-x="539" 
d="M47 220q0 76 42 133t120 74q-69 20 -104.5 65.5t-35.5 108.5q0 64 32 112t90.5 75t137.5 27q45 0 91 -9t83 -29l-15 -104q-27 14 -66 23t-77 9q-72 0 -112 -32t-40 -84q0 -50 39 -82.5t120 -32.5h79v-101h-71q-83 0 -135 -35t-52 -106q0 -59 42 -91.5t122 -49.5l4 -1
q47 -10 86.5 -26.5t63 -47.5t23.5 -85q0 -36 -12.5 -66.5t-29.5 -53.5l-116 10q12 17 23.5 40t11.5 47q0 35 -25.5 48.5t-71.5 23.5l-4 1q-119 26 -181 84t-62 155z" />
    <glyph glyph-name="omicron" unicode="&#x3bf;" horiz-adv-x="629" 
d="M47 253q0 77 35.5 138t96 96.5t136.5 35.5q78 0 138 -35t94.5 -96t34.5 -139q0 -76 -35 -137t-95.5 -96.5t-136.5 -35.5q-78 0 -138.5 35t-95 96t-34.5 138zM455 253q0 71 -38.5 114t-101.5 43t-102 -43t-39 -114q0 -70 39 -113.5t102 -43.5t101.5 43.5t38.5 113.5z" />
    <glyph glyph-name="pi.alt" unicode="&#x3c0;" horiz-adv-x="668" 
d="M242 0h-125v403h-94v104h619v-104h-98v-243q0 -34 10 -47.5t36 -13.5q12 0 21.5 2t19.5 6l7 -98q-28 -19 -86 -19q-69 0 -100.5 35.5t-31.5 108.5v269h-178v-403z" />
    <glyph glyph-name="rho" unicode="&#x3c1;" horiz-adv-x="653" 
d="M74 235q0 86 33.5 150.5t93.5 101t139 36.5t138.5 -34.5t93.5 -95t34 -139.5q0 -76 -32.5 -137t-88 -97t-123.5 -36q-107 0 -162 81v-310h-126v480zM440 140.5q39 44.5 39 112.5q0 46 -18 81t-49.5 55.5t-72.5 20.5q-61 0 -101 -44t-40 -113q0 -45 18 -80.5t50 -56
t73 -20.5q62 0 101 44.5z" />
    <glyph glyph-name="sigma1" unicode="&#x3c2;" horiz-adv-x="538" 
d="M180.5 485.5q62.5 34.5 143.5 34.5q43 0 86.5 -10t74.5 -28l-16 -106q-66 32 -133 32q-76 0 -119 -43.5t-43 -116.5q0 -64 34 -101.5t110 -54.5l5 -1q47 -10 84.5 -27.5t59.5 -49t22 -85.5q0 -32 -12 -63.5t-29 -54.5l-117 10q13 17 24 40.5t11 47.5q0 34 -24 48.5
t-66 23.5l-5 1q-83 18 -132.5 57t-70.5 93t-21 115q0 82 35.5 143t98 95.5z" />
    <glyph glyph-name="sigma" unicode="&#x3c3;" horiz-adv-x="649" 
d="M47 246q0 80 36.5 138.5t104 90.5t160.5 32h278v-104h-142q46 -25 72 -69t26 -101q0 -71 -35.5 -127.5t-96 -89t-135.5 -32.5q-77 0 -137.5 34t-95.5 93t-35 135zM455 246q0 66 -39 108t-102 42q-61 0 -100.5 -42.5t-39.5 -107.5q0 -66 39 -108t101 -42q63 0 102 42
t39 108z" />
    <glyph glyph-name="tau.alt" unicode="&#x3c4;" horiz-adv-x="482" 
d="M159 403h-139v104h435v-104h-170v-225q0 -45 14 -64t46 -19t57 17l14 -104q-18 -10 -46.5 -17t-57.5 -7q-80 0 -116.5 41.5t-36.5 135.5v242z" />
    <glyph glyph-name="upsilon.alt" unicode="&#x3c5;" horiz-adv-x="588" 
d="M74 507h126v-276q0 -135 100 -135q63 0 90 46.5t27 122.5q0 64 -12.5 122.5t-35.5 114.5l124 10q21 -49 34.5 -112.5t13.5 -135.5q0 -134 -60.5 -207t-182.5 -73q-112 0 -168 61.5t-56 179.5v282z" />
    <glyph glyph-name="phi" unicode="&#x3c6;" horiz-adv-x="816" 
d="M349 -245v228q-141 9 -221.5 80t-80.5 188q0 78 36.5 136t104.5 92t161 39v114h118v-114q93 -5 160.5 -39t104 -92t36.5 -136q0 -117 -80 -188t-221 -80v-228h-118zM353 87v326q-89 -7 -136 -48.5t-47 -113.5t46.5 -114t136.5 -50zM463 413v-325q89 7 136 49t47 114
t-47 113.5t-136 48.5z" />
    <glyph glyph-name="chi" unicode="&#x3c7;" horiz-adv-x="612" 
d="M235 149l-203 358h137l136 -272l140 272h133l-202 -358l222 -394h-136l-156 308l-159 -308h-134z" />
    <glyph glyph-name="psi.alt" unicode="&#x3c8;" horiz-adv-x="827" 
d="M366 632h119v-535q92 9 131 57t39 144q0 50 -9.5 101t-26.5 103l122 9q16 -45 27.5 -100t11.5 -114q0 -155 -74.5 -228.5t-220.5 -83.5v-230h-119v230q-152 9 -222 81.5t-70 217.5v223h124v-210q0 -102 39.5 -147t128.5 -54v536z" />
    <glyph glyph-name="omega" unicode="&#x3c9;" horiz-adv-x="837" 
d="M47 245q0 50 10.5 100.5t28 94.5t37.5 74l129 -12q-34 -50 -57 -116t-23 -134t22.5 -109.5t69.5 -41.5q26 0 48 17t35 65t13 141v94h117v-94q0 -93 13 -141t34.5 -65t47.5 -17q47 0 69.5 41.5t22.5 109.5t-22.5 134t-55.5 116l127 12q21 -30 38 -74t27.5 -94.5
t10.5 -100.5q0 -121 -54.5 -191t-149.5 -70q-52 0 -96.5 27.5t-70.5 89.5q-26 -62 -70.5 -89.5t-96.5 -27.5q-95 0 -149.5 70.5t-54.5 190.5z" />
    <glyph glyph-name="iotadieresis" unicode="&#x3ca;" horiz-adv-x="351" 
d="M74 507h126v-327q0 -46 12.5 -65.5t41.5 -19.5q32 0 61 18l14 -105q-17 -10 -45 -17t-59 -7q-79 0 -115 42t-36 135v346zM30 754q30 0 49 -18.5t19 -47.5t-19 -47.5t-49 -18.5t-48.5 18t-18.5 48q0 29 19 47.5t48 18.5zM241 754q30 0 49 -18.5t19 -47.5t-19 -47.5
t-49 -18.5t-48.5 18t-18.5 48q0 29 19 47.5t48 18.5z" />
    <glyph glyph-name="upsilondieresis.alt" unicode="&#x3cb;" horiz-adv-x="588" 
d="M74 507h126v-276q0 -135 100 -135q63 0 90 46.5t27 122.5q0 64 -12.5 122.5t-35.5 114.5l124 10q21 -49 34.5 -112.5t13.5 -135.5q0 -134 -60.5 -207t-182.5 -73q-112 0 -168 61.5t-56 179.5v282zM191 754q30 0 49 -18.5t19 -47.5t-19 -47.5t-49 -18.5t-48.5 18t-18.5 48
q0 29 19 47.5t48 18.5zM402 754q30 0 49 -18.5t19 -47.5t-19 -47.5t-49 -18.5t-48.5 18t-18.5 48q0 29 19 47.5t48 18.5z" />
    <glyph glyph-name="omicrontonos" unicode="&#x3cc;" horiz-adv-x="629" 
d="M47 253q0 77 35.5 138t96 96.5t136.5 35.5q78 0 138 -35t94.5 -96t34.5 -139q0 -76 -35 -137t-95.5 -96.5t-136.5 -35.5q-78 0 -138.5 35t-95 96t-34.5 138zM455 253q0 71 -38.5 114t-101.5 43t-102 -43t-39 -114q0 -70 39 -113.5t102 -43.5t101.5 43.5t38.5 113.5z
M312 778h125l-84 -178h-101z" />
    <glyph glyph-name="upsilontonos.alt" unicode="&#x3cd;" horiz-adv-x="588" 
d="M74 507h126v-276q0 -135 100 -135q63 0 90 46.5t27 122.5q0 64 -12.5 122.5t-35.5 114.5l124 10q21 -49 34.5 -112.5t13.5 -135.5q0 -134 -60.5 -207t-182.5 -73q-112 0 -168 61.5t-56 179.5v282zM294 778h125l-84 -178h-101z" />
    <glyph glyph-name="omegatonos" unicode="&#x3ce;" horiz-adv-x="837" 
d="M47 245q0 50 10.5 100.5t28 94.5t37.5 74l129 -12q-34 -50 -57 -116t-23 -134t22.5 -109.5t69.5 -41.5q26 0 48 17t35 65t13 141v94h117v-94q0 -93 13 -141t34.5 -65t47.5 -17q47 0 69.5 41.5t22.5 109.5t-22.5 134t-55.5 116l127 12q21 -30 38 -74t27.5 -94.5
t10.5 -100.5q0 -121 -54.5 -191t-149.5 -70q-52 0 -96.5 27.5t-70.5 89.5q-26 -62 -70.5 -89.5t-96.5 -27.5q-95 0 -149.5 70.5t-54.5 190.5zM415 778h125l-84 -178h-101z" />
    <glyph glyph-name="uni03CF" unicode="&#x3cf;" horiz-adv-x="815" 
d="M94 760h137v-333l329 333h172l-338 -334h1q126 0 208 -43t122 -115t40 -160t-38.5 -153.5t-106 -101.5t-154.5 -36q-41 0 -78 8.5t-62 21.5l14 113q23 -13 49.5 -20t53.5 -7q52 0 92.5 21.5t64 61t23.5 93.5q0 60 -27.5 110t-90.5 80t-168 30q-59 0 -106 -9v-320h-137
v760z" />
    <glyph glyph-name="uni03D7" unicode="&#x3d7;" horiz-adv-x="611" 
d="M78 507h126v-240l212 240h145l-201 -221q114 -73 174 -149.5t60 -167.5q0 -64 -29 -111t-80.5 -72.5t-117.5 -25.5q-40 0 -76 9t-63 25l14 97q22 -14 49.5 -23t58.5 -9q50 0 84 30t34 82q0 60 -45 118t-150 125l-69 -75v-139h-126v507z" />
    <glyph glyph-name="uni0400" unicode="&#x400;" horiz-adv-x="670" 
d="M94 760h494v-109h-363v-208h323v-110h-323v-224h378v-109h-509v760zM173 975h155l113 -140h-121z" />
    <glyph glyph-name="uni0401" unicode="&#x401;" horiz-adv-x="670" 
d="M94 760h494v-109h-363v-208h323v-110h-323v-224h378v-109h-509v760zM239 967q31 0 50.5 -19t19.5 -49q0 -29 -19.5 -47.5t-50.5 -18.5q-30 0 -49.5 18.5t-19.5 47.5q0 30 19.5 49t49.5 19zM454 967q31 0 50.5 -19t19.5 -49q0 -29 -19.5 -47.5t-50.5 -18.5
q-30 0 -49.5 18.5t-19.5 47.5q0 30 19.5 49t49.5 19z" />
    <glyph glyph-name="uni0402" unicode="&#x402;" horiz-adv-x="893" 
d="M236 646h-201v114h606v-114h-267v-208q57 16 99 21.5t91 5.5q88 0 152 -29t99 -82t35 -126q0 -111 -69.5 -173t-193.5 -62q-22 0 -46 2.5t-41 5.5l9 110q35 -4 57 -4q71 0 107.5 31t36.5 88q0 129 -166 129q-48 0 -90.5 -6.5t-79.5 -19.5v-329h-138v646z" />
    <glyph glyph-name="uni0403" unicode="&#x403;" horiz-adv-x="613" 
d="M94 760h484v-114h-346v-646h-138v760zM347 975h155l-147 -140h-122z" />
    <glyph glyph-name="uni0404" unicode="&#x404;" horiz-adv-x="763" 
d="M50 376q0 87 30 159.5t85 125t130.5 81.5t166.5 29q62 0 126 -16.5t110 -44.5l-22 -114q-113 57 -215 57q-106 0 -177 -57t-90 -153h365v-107h-368q12 -106 85 -167.5t188 -61.5q52 0 112 15.5t114 42.5l14 -116q-53 -28 -118.5 -44t-132.5 -16q-120 0 -211 48.5
t-141.5 136t-50.5 202.5z" />
    <glyph glyph-name="uni0405" unicode="&#x405;" horiz-adv-x="667" 
d="M313 -16q-47 0 -95 8t-89.5 22t-69.5 33l14 116q48 -29 111.5 -47.5t121.5 -18.5q72 0 113 29t41 79q0 30 -13.5 50.5t-48 38t-96.5 36.5q-84 26 -134 56.5t-72.5 72t-22.5 99.5q0 67 33 115.5t93 75.5t141 27q59 0 119 -15.5t105 -41.5l-20 -112q-43 26 -97 41t-104 15
q-65 0 -101 -26t-36 -73q0 -28 12.5 -47.5t43 -35.5t85.5 -34q91 -28 146 -60.5t79.5 -74.5t24.5 -99q0 -106 -76 -167.5t-208 -61.5z" />
    <glyph glyph-name="uni0406" unicode="&#x406;" horiz-adv-x="326" 
d="M94 760h138v-760h-138v760z" />
    <glyph glyph-name="uni0407" unicode="&#x407;" horiz-adv-x="326" 
d="M94 760h138v-760h-138v760zM55 967q31 0 50.5 -19t19.5 -49q0 -29 -19.5 -47.5t-50.5 -18.5q-30 0 -49.5 18.5t-19.5 47.5q0 30 19.5 49t49.5 19zM270 967q31 0 50.5 -19t19.5 -49q0 -29 -19.5 -47.5t-50.5 -18.5q-30 0 -49.5 18.5t-19.5 47.5q0 30 19.5 49t49.5 19z" />
    <glyph glyph-name="uni0408" unicode="&#x408;" horiz-adv-x="560" 
d="M471 263q0 -142 -62.5 -210.5t-193.5 -68.5q-49 0 -98.5 12t-81.5 31l13 112q69 -39 149 -39q74 0 105 39.5t31 133.5v487h138v-497z" />
    <glyph glyph-name="uni0409.alt" unicode="&#x409;" horiz-adv-x="1188" 
d="M608 646h-287l-9 -241q-5 -118 -18.5 -197t-39 -126t-66.5 -68t-101 -21q-16 0 -35 2.5t-32 5.5l7 110q8 -1 17.5 -2t17.5 -1q33 0 54.5 14.5t34.5 51.5t20.5 102.5t11.5 166.5l14 317h543v-269h135q83 0 144.5 -30t95.5 -85t34 -129q0 -75 -34 -130.5t-95.5 -86
t-144.5 -30.5h-267v646zM1014 245q0 68 -41.5 104t-119.5 36h-113v-279h113q78 0 119.5 35.5t41.5 103.5z" />
    <glyph glyph-name="uni040A" unicode="&#x40a;" horiz-adv-x="1172" 
d="M94 760h138v-304h360v304h132v-287h135q83 0 144.5 -29.5t95.5 -82t34 -123.5t-34 -125t-95.5 -83.5t-144.5 -29.5h-267v344h-360v-344h-138v760zM724 106h113q78 0 119 33t41 97q0 63 -41 97t-119 34h-113v-261z" />
    <glyph glyph-name="uni040B" unicode="&#x40b;" horiz-adv-x="911" 
d="M236 646h-201v114h606v-114h-267v-208q38 10 67.5 16t57.5 8.5t63 2.5q132 0 206.5 -63.5t74.5 -176.5v-225h-138v195q0 158 -179 158q-41 0 -77 -6t-75 -20v-327h-138v646z" />
    <glyph glyph-name="uni040C" unicode="&#x40c;" horiz-adv-x="770" 
d="M94 760h137v-332l322 332h173l-363 -363l398 -397h-187l-343 352v-352h-137v760zM397 975h155l-147 -140h-122z" />
    <glyph glyph-name="uni040D" unicode="&#x40d;" horiz-adv-x="859" 
d="M94 760h126v-562l425 562h119v-760h-125v562l-425 -562h-120v760zM256 975h155l113 -140h-121z" />
    <glyph glyph-name="uni040E" unicode="&#x40e;" horiz-adv-x="774" 
d="M367 0h-147l113 208l-309 552h153l225 -426l200 426h148zM202 965q0 10 1 15h99v-10q2 -37 25.5 -57t63.5 -20q41 0 64.5 20t24.5 58v9h99q1 -5 1 -15q0 -70 -51 -111.5t-138 -41.5q-86 0 -137.5 42t-51.5 111z" />
    <glyph glyph-name="uni040F" unicode="&#x40f;" horiz-adv-x="837" 
d="M94 760h138v-646h373v646h138v-760h-258v-174h-133v174h-258v760z" />
    <glyph glyph-name="uni0410" unicode="&#x410;" horiz-adv-x="801" 
d="M327 760h146l305 -760h-146l-76 207h-319l-76 -207h-138zM516 315l-119 326l-120 -326h239z" />
    <glyph glyph-name="uni0411" unicode="&#x411;" horiz-adv-x="694" 
d="M94 760h484v-111h-357v-186h146q84 0 144.5 -29t93.5 -81t33 -121t-33 -121t-93.5 -81.5t-144.5 -29.5h-273v760zM221 102h131q73 0 112.5 35t39.5 95q0 61 -40.5 95t-111.5 34h-131v-259z" />
    <glyph glyph-name="uni0412" unicode="&#x412;" horiz-adv-x="712" 
d="M94 760h279q117 0 180.5 -50.5t63.5 -143.5q0 -54 -28.5 -97t-78.5 -64q68 -15 107 -65t39 -120q0 -106 -69 -163t-198 -57h-295v760zM387 101q65 0 100 31.5t35 89.5q0 121 -145 121h-157v-242h167zM357 441q67 0 99 28t32 87q0 50 -33 76.5t-95 26.5h-140v-218h137z
" />
    <glyph glyph-name="uni0413" unicode="&#x413;" horiz-adv-x="613" 
d="M94 760h484v-114h-346v-646h-138v760z" />
    <glyph glyph-name="uni0414.alt" unicode="&#x414;" horiz-adv-x="878" 
d="M746 114h103v-288h-133v174h-561v-174h-133v288h74q29 31 46.5 75.5t27 115.5t14.5 183l11 272h551v-646zM610 114v532h-291l-8 -197q-3 -88 -10.5 -151t-21 -107t-33.5 -77h364z" />
    <glyph glyph-name="uni0415" unicode="&#x415;" horiz-adv-x="670" 
d="M94 760h494v-109h-363v-208h323v-110h-323v-224h378v-109h-509v760z" />
    <glyph glyph-name="uni0416" unicode="&#x416;" horiz-adv-x="1141" 
d="M1130 0h-177l-315 353v-353h-136v352l-315 -352h-175l365 394l-332 366h163l294 -334v334h136v-335l295 335h163l-332 -364z" />
    <glyph glyph-name="uni0417" unicode="&#x417;" horiz-adv-x="678" 
d="M321 -16q-71 0 -142 17t-118 45l24 113q45 -28 109 -44.5t130 -16.5q75 0 117 33.5t42 92.5q0 55 -36.5 85t-104.5 30h-149v105h136q131 0 131 105q0 53 -42.5 83t-118.5 30q-47 0 -96 -14.5t-96 -40.5l-30 108q46 28 108.5 44.5t124.5 16.5q131 0 205 -54.5t74 -150.5
q0 -59 -30.5 -102.5t-82.5 -63.5q65 -17 103 -68t38 -122q0 -109 -78 -170t-218 -61z" />
    <glyph glyph-name="uni0418" unicode="&#x418;" horiz-adv-x="859" 
d="M94 760h126v-562l425 562h119v-760h-125v562l-425 -562h-120v760z" />
    <glyph glyph-name="uni0419" unicode="&#x419;" horiz-adv-x="859" 
d="M94 760h126v-562l425 562h119v-760h-125v562l-425 -562h-120v760zM241 965q0 10 1 15h99v-10q2 -37 25.5 -57t63.5 -20q41 0 64.5 20t24.5 58v9h99q1 -5 1 -15q0 -70 -51 -111.5t-138 -41.5q-86 0 -137.5 42t-51.5 111z" />
    <glyph glyph-name="uni041A" unicode="&#x41a;" horiz-adv-x="770" 
d="M94 760h137v-332l322 332h173l-363 -363l398 -397h-187l-343 352v-352h-137v760z" />
    <glyph glyph-name="uni041B.alt" unicode="&#x41b;" horiz-adv-x="845" 
d="M751 0h-136v646h-294l-9 -241q-5 -118 -18.5 -197t-39 -126t-66.5 -68t-101 -21q-16 0 -35 2.5t-32 5.5l7 110q8 -1 17.5 -2t17.5 -1q33 0 54.5 14.5t34.5 51.5t20.5 102.5t11.5 166.5l14 317h554v-760z" />
    <glyph glyph-name="uni041C.alt" unicode="&#x41c;" horiz-adv-x="1021" 
d="M120 760h131l261 -503l257 503h132l40 -760h-130l-23 558l-221 -431h-112l-223 424l-22 -551h-130z" />
    <glyph glyph-name="uni041D" unicode="&#x41d;" horiz-adv-x="851" 
d="M94 760h138v-311h387v311h138v-760h-138v337h-387v-337h-138v760z" />
    <glyph glyph-name="uni041E" unicode="&#x41e;" horiz-adv-x="899" 
d="M50 380q0 84 30.5 156t85 126t127.5 84t157 30q86 0 158.5 -29.5t126.5 -83t84 -126t30 -157.5q0 -84 -30.5 -156t-85 -126t-127 -84t-156.5 -30q-86 0 -159 29.5t-127 83t-84 126t-30 157.5zM706 380q0 80 -33 141.5t-90.5 96.5t-132.5 35q-74 0 -132 -35t-91 -96.5
t-33 -141.5q0 -79 33 -141t91 -97t132 -35t132 35t91 97t33 141z" />
    <glyph glyph-name="uni041F" unicode="&#x41f;" horiz-adv-x="841" 
d="M94 760h653v-760h-138v646h-377v-646h-138v760z" />
    <glyph glyph-name="uni0420" unicode="&#x420;" horiz-adv-x="652" 
d="M94 760h244q84 0 145.5 -30t95.5 -85t34 -129q0 -75 -34 -130.5t-95.5 -86t-145.5 -30.5h-112v-269h-132v760zM316 375q79 0 120 35.5t41 103.5t-41 104t-120 36h-90v-279h90z" />
    <glyph glyph-name="uni0421" unicode="&#x421;" horiz-adv-x="763" 
d="M50 376q0 87 30 159.5t85 125t130.5 81.5t166.5 29q62 0 126 -16.5t110 -44.5l-23 -118q-58 29 -109.5 42.5t-104.5 13.5q-80 0 -140 -33.5t-93.5 -94t-33.5 -141.5q0 -82 33 -142t94 -92.5t143 -32.5q52 0 112 15.5t113 42.5l15 -121q-53 -28 -118.5 -44t-132.5 -16
q-120 0 -211 48.5t-141.5 136t-50.5 202.5z" />
    <glyph glyph-name="uni0422" unicode="&#x422;" horiz-adv-x="705" 
d="M284 646h-249v114h635v-114h-248v-646h-138v646z" />
    <glyph glyph-name="uni0423" unicode="&#x423;" horiz-adv-x="774" 
d="M367 0h-147l113 208l-309 552h153l225 -426l200 426h148z" />
    <glyph glyph-name="uni0424" unicode="&#x424;" horiz-adv-x="990" 
d="M428 54q-115 5 -199.5 46.5t-131.5 113t-47 166.5q0 94 47 166t132 113.5t199 46.5v75h134v-75q115 -5 199.5 -46.5t131.5 -113t47 -166.5q0 -94 -47 -166t-132 -113.5t-199 -46.5v-75h-134v75zM251 531q-65 -57 -65 -151t65 -151t179 -65v432q-114 -8 -179 -65zM804 380
q0 94 -65 151t-178 65v-432q113 8 178 65t65 151z" />
    <glyph glyph-name="uni0425" unicode="&#x425;" horiz-adv-x="745" 
d="M291 397l-253 363h162l178 -275l178 275h155l-255 -368l274 -392h-163l-200 303l-197 -303h-155z" />
    <glyph glyph-name="uni0426" unicode="&#x426;" horiz-adv-x="863" 
d="M94 760h138v-646h362v646h137v-646h104v-288h-134v174h-607v760z" />
    <glyph glyph-name="uni0427" unicode="&#x427;" horiz-adv-x="777" 
d="M683 0h-134v293q-51 -16 -95.5 -23t-94.5 -7q-144 0 -218 62t-74 182v253h133v-226q0 -82 44.5 -119.5t140.5 -37.5q88 0 164 32v351h134v-760z" />
    <glyph glyph-name="uni0428" unicode="&#x428;" horiz-adv-x="1182" 
d="M94 760h135v-646h294v646h135v-646h294v646h135v-760h-993v760z" />
    <glyph glyph-name="uni0429" unicode="&#x429;" horiz-adv-x="1209" 
d="M94 760h135v-646h289v646h135v-646h289v646h135v-646h104v-288h-134v174h-953v760z" />
    <glyph glyph-name="uni042A" unicode="&#x42a;" horiz-adv-x="829" 
d="M250 646h-215v114h347v-269h133q84 0 145.5 -30t95.5 -85t34 -129q0 -75 -34 -130.5t-95.5 -86t-145.5 -30.5h-265v646zM382 106h111q79 0 120 35.5t41 103.5t-41 104t-120 36h-111v-279z" />
    <glyph glyph-name="uni042B" unicode="&#x42b;" horiz-adv-x="965" 
d="M94 760h132v-269h135q83 0 144.5 -30t95.5 -85t34 -129q0 -75 -34 -130.5t-95.5 -86t-144.5 -30.5h-267v760zM732 760h138v-760h-138v760zM226 106h113q78 0 119 35.5t41 103.5t-41 104t-119 36h-113v-279z" />
    <glyph glyph-name="uni042C" unicode="&#x42c;" horiz-adv-x="677" 
d="M94 760h132v-269h138q84 0 145.5 -30t95.5 -85t34 -129q0 -75 -34 -130.5t-96 -86t-145 -30.5h-270v760zM226 106h116q79 0 120 35.5t41 103.5t-41 104t-120 36h-116v-279z" />
    <glyph glyph-name="uni042D" unicode="&#x42d;" horiz-adv-x="763" 
d="M713 376q0 -113 -50.5 -200.5t-141 -137t-211.5 -49.5q-67 0 -132.5 16t-118.5 44l14 116q54 -27 114 -42.5t112 -15.5q115 0 188 61.5t85 167.5h-368v107h365q-19 96 -90 153t-177 57q-102 0 -215 -57l-22 114q46 28 110.5 44.5t125.5 16.5q123 0 216 -50t144.5 -139
t51.5 -206z" />
    <glyph glyph-name="uni042E" unicode="&#x42e;" horiz-adv-x="1185" 
d="M94 760h138v-311h122q16 96 70 169.5t136.5 115.5t181.5 42q84 0 155.5 -29.5t124.5 -82.5t82.5 -125.5t29.5 -158.5q0 -85 -30 -157.5t-83.5 -126t-124.5 -83t-154 -29.5q-105 0 -190 45t-138 124.5t-63 183.5h-119v-337h-138v760zM869 143.5q56 34.5 88.5 95.5
t32.5 140q0 80 -32.5 141t-88.5 96t-127 35t-127 -34.5t-88.5 -95.5t-32.5 -140t32.5 -140.5t88.5 -96.5t127 -35t127 34.5z" />
    <glyph glyph-name="uni042F" unicode="&#x42f;" horiz-adv-x="720" 
d="M626 0h-132v278h-120h-7l-179 -278h-156l209 303q-67 28 -105.5 83.5t-38.5 133.5q0 75 37.5 128.5t99.5 82.5t136 29h256v-760zM398 654q-165 0 -165 -135q0 -66 40.5 -100.5t118.5 -34.5h102v270h-96z" />
    <glyph glyph-name="uni0430" unicode="&#x430;" horiz-adv-x="659" 
d="M582 0h-121l-2 80q-56 -96 -177 -96q-68 0 -121.5 34.5t-83.5 95t-30 138.5q0 77 32.5 138t87.5 97t123 36q54 0 98.5 -25t70.5 -71l2 80h121v-507zM463 253q0 70 -40 113.5t-104 43.5t-104.5 -43.5t-40.5 -113.5q0 -69 40.5 -113t104.5 -44t104 44t40 113z" />
    <glyph glyph-name="uni0431" unicode="&#x431;" horiz-adv-x="656" 
d="M185.5 695.5q68.5 46.5 179.5 58.5q72 9 109 25q30 12 53 38l50 -96q-10 -13 -28 -26t-35 -21q-22 -9 -51 -15t-86 -13q-113 -12 -161.5 -76.5t-50.5 -192.5q25 64 78 100t126 36q69 0 123 -34t85.5 -93t31.5 -134q0 -76 -34.5 -136.5t-93.5 -96t-134 -35.5
q-116 0 -189 64t-95 183q-9 51 -9 109q0 135 31.5 222t100 133.5zM233 363.5q-41 -43.5 -41 -112.5q0 -68 41 -112t105 -44t104 43.5t40 112.5q0 68 -40 112t-104 44t-105 -43.5z" />
    <glyph glyph-name="uni0432" unicode="&#x432;" horiz-adv-x="581" 
d="M78 507h240q98 0 146 -35t48 -97q0 -38 -20 -66t-61 -43q50 -10 76.5 -42.5t26.5 -77.5q0 -67 -50 -106.5t-152 -39.5h-254v507zM318 88q41 0 64.5 17t23.5 48t-23 48t-70 17h-115v-130h120zM306 297q40 0 61.5 16t21.5 44q0 62 -87 62h-104v-122h108z" />
    <glyph glyph-name="uni0433" unicode="&#x433;" horiz-adv-x="463" 
d="M78 507h362v-104h-236v-403h-126v507z" />
    <glyph glyph-name="uni0434.alt" unicode="&#x434;" horiz-adv-x="674" 
d="M565 104h89v-255h-119v151h-401v-151h-120v255h67q19 24 31 53.5t19 71t10 101.5l8 177h416v-403zM440 404h-178l-5 -107q-3 -69 -15 -114.5t-31 -78.5h229v300z" />
    <glyph glyph-name="uni0435" unicode="&#x435;" horiz-adv-x="598" 
d="M339 -16q-90 0 -155.5 32.5t-101 92.5t-35.5 143q0 80 33 141t91 95.5t134 34.5q72 0 125.5 -31t82.5 -87.5t29 -132.5q0 -25 -3 -51h-368q9 -69 55.5 -102.5t125.5 -33.5q42 0 86 10t82 28l13 -96q-37 -20 -89 -31.5t-105 -11.5zM213 395.5q-34 -33.5 -42 -94.5h252
q0 10 -2 20q-7 52 -38.5 80t-82.5 28q-53 0 -87 -33.5z" />
    <glyph glyph-name="uni0436" unicode="&#x436;" horiz-adv-x="838" 
d="M832 0h-148l-204 232v-232h-124v233l-205 -233h-146l240 265l-202 242h138l175 -219v219h124v-218l175 218h139l-205 -241z" />
    <glyph glyph-name="uni0437" unicode="&#x437;" horiz-adv-x="531" 
d="M62 125q41 -19 86 -29.5t95 -10.5t79 17t29 49q0 35 -29.5 50t-91.5 15h-81v85h85q57 0 83.5 13.5t26.5 45.5q0 29 -26.5 46t-75.5 17q-46 0 -87 -9t-79 -25l-13 96q35 17 84.5 27.5t102.5 10.5q100 0 159 -40.5t59 -108.5q0 -44 -24.5 -74.5t-65.5 -41.5q50 -13 78 -45
t28 -78q0 -73 -60 -112t-170 -39q-61 0 -115.5 11.5t-89.5 29.5z" />
    <glyph glyph-name="uni0438" unicode="&#x438;" horiz-adv-x="639" 
d="M78 507h124v-332l252 332h107v-507h-124v331l-252 -331h-107v507z" />
    <glyph glyph-name="uni0439" unicode="&#x439;" horiz-adv-x="639" 
d="M78 507h124v-332l252 332h107v-507h-124v331l-252 -331h-107v507zM135 741q0 11 1 15h94v-10t1 -10q4 -36 27 -55t60 -19q40 0 63 20.5t25 60.5v13h94q1 -4 1 -15q0 -73 -49 -115.5t-134 -42.5t-134 42.5t-49 115.5z" />
    <glyph glyph-name="uni043A" unicode="&#x43a;" horiz-adv-x="598" 
d="M78 507h126v-216l203 216h147l-233 -240l272 -267h-161l-228 229v-229h-126v507z" />
    <glyph glyph-name="uni043B.alt" unicode="&#x43b;" horiz-adv-x="638" 
d="M560 0h-126v403h-178l-8 -143q-5 -99 -24 -157t-56 -83.5t-97 -25.5q-16 0 -30.5 2t-29.5 5l7 101q15 -3 30 -3q29 0 46 17.5t26 60t12 117.5l10 213h418v-507z" />
    <glyph glyph-name="uni043C.alt" unicode="&#x43c;" horiz-adv-x="754" 
d="M88 507h130l161 -296l158 296h129l27 -507h-116l-14 352l-147 -271h-77l-148 269l-14 -350h-116z" />
    <glyph glyph-name="uni043D" unicode="&#x43d;" horiz-adv-x="626" 
d="M78 507h126v-201h218v201h126v-507h-126v204h-218v-204h-126v507z" />
    <glyph glyph-name="uni043E" unicode="&#x43e;" horiz-adv-x="637" 
d="M47 253q0 77 36 138t97.5 96.5t138.5 35.5q78 0 139 -35t96.5 -96t35.5 -139q0 -76 -36 -137t-97 -96.5t-138 -35.5q-78 0 -139.5 35t-97 96t-35.5 138zM463 253q0 70 -40 113.5t-104 43.5t-104.5 -43.5t-40.5 -113.5q0 -69 40.5 -113t104.5 -44t104 44t40 113z" />
    <glyph glyph-name="uni043F" unicode="&#x43f;" horiz-adv-x="622" 
d="M78 507h466v-507h-126v403h-214v-403h-126v507z" />
    <glyph glyph-name="uni0440" unicode="&#x440;" horiz-adv-x="659" 
d="M78 507h118l2 -83q27 48 73 73.5t106 25.5q69 0 122 -34.5t83 -95t30 -139.5q0 -76 -32.5 -137t-87.5 -97t-123 -36q-110 0 -165 89v-318h-126v752zM445 140q40 44 40 113q0 70 -40 113.5t-104 43.5t-104.5 -43.5t-40.5 -113.5q0 -69 40.5 -113t104.5 -44t104 44z" />
    <glyph glyph-name="uni0441" unicode="&#x441;" horiz-adv-x="541" 
d="M179.5 486q62.5 34 144.5 34q43 0 86.5 -10t74.5 -28l-16 -106q-31 15 -66.5 23.5t-68.5 8.5q-73 0 -116.5 -41.5t-43.5 -112.5q0 -73 44 -114t121 -41q64 0 139 31l14 -103q-34 -19 -78 -29.5t-89 -10.5q-84 0 -146.5 32.5t-97 92t-34.5 139.5t35 140.5t97.5 94.5z" />
    <glyph glyph-name="uni0442" unicode="&#x442;" horiz-adv-x="514" 
d="M194 403h-171v104h468v-104h-171v-403h-126v403z" />
    <glyph glyph-name="uni0443" unicode="&#x443;" horiz-adv-x="581" 
d="M225 -245h-129l135 281l-214 471h138l140 -343l135 343h134z" />
    <glyph glyph-name="uni0444" unicode="&#x444;" horiz-adv-x="816" 
d="M349 -245v228q-141 9 -221.5 80t-80.5 188q0 78 36.5 136t104.5 92t161 39v292h118v-292q93 -5 160.5 -39t104 -92t36.5 -136q0 -117 -80 -188t-221 -80v-228h-118zM353 87v326q-89 -7 -136 -48.5t-47 -113.5t46.5 -114t136.5 -50zM463 413v-325q89 7 136 49t47 114
t-47 113.5t-136 48.5z" />
    <glyph glyph-name="uni0445" unicode="&#x445;" horiz-adv-x="575" 
d="M552 0h-145l-126 186l-122 -186h-136l191 260l-182 247h144l114 -168l110 168h135l-177 -245z" />
    <glyph glyph-name="uni0446" unicode="&#x446;" horiz-adv-x="644" 
d="M78 507h126v-403h205v403h126v-403h89v-255h-119v151h-427v507z" />
    <glyph glyph-name="uni0447" unicode="&#x447;" horiz-adv-x="579" 
d="M502 0h-123v185q-33 -14 -62 -20t-63 -6q-100 0 -154 48t-54 138v162h123v-136q0 -57 27.5 -82.5t82.5 -25.5q54 0 100 23v221h123v-507z" />
    <glyph glyph-name="uni0448" unicode="&#x448;" horiz-adv-x="888" 
d="M78 507h124v-403h180v403h124v-403h180v403h124v-507h-732v507z" />
    <glyph glyph-name="uni0449" unicode="&#x449;" horiz-adv-x="913" 
d="M78 507h124v-403h177v403h124v-403h177v403h125v-403h88v-255h-119v151h-696v507z" />
    <glyph glyph-name="uni044A" unicode="&#x44a;" horiz-adv-x="644" 
d="M174 403h-152v104h275v-163h103q103 0 157.5 -45.5t54.5 -125.5q0 -82 -55.5 -127.5t-156.5 -45.5h-226v403zM297 91h89q103 0 103 82q0 38 -26.5 59t-76.5 21h-89v-162z" />
    <glyph glyph-name="uni044B" unicode="&#x44b;" horiz-adv-x="793" 
d="M78 507h122v-163h104q103 0 157.5 -45.5t54.5 -125.5q0 -82 -55.5 -127.5t-156.5 -45.5h-226v507zM589 507h126v-507h-126v507zM200 91h90q103 0 103 82q0 38 -26.5 59t-76.5 21h-90v-162z" />
    <glyph glyph-name="uni044C" unicode="&#x44c;" horiz-adv-x="553" 
d="M78 507h122v-163h109q103 0 157.5 -45.5t54.5 -125.5q0 -82 -55.5 -127.5t-156.5 -45.5h-231v507zM200 91h95q103 0 103 82q0 38 -26.5 59t-76.5 21h-95v-162z" />
    <glyph glyph-name="uni044D" unicode="&#x44d;" horiz-adv-x="541" 
d="M494 252q0 -80 -34.5 -139.5t-96.5 -92.5t-147 -33q-46 0 -90 10.5t-77 27.5l13 96q72 -33 141 -33q75 0 119 33.5t55 93.5h-231v85h229q-12 56 -55 87.5t-112 31.5q-33 0 -70 -8.5t-67 -23.5l-15 96q31 17 74.5 27t85.5 10q84 0 146.5 -33t97 -93.5t34.5 -141.5z" />
    <glyph glyph-name="uni044E" unicode="&#x44e;" horiz-adv-x="875" 
d="M78 507h126v-200h97q12 63 49 111.5t92 76.5t120 28q76 0 136 -35t95 -96t35 -139q0 -76 -35.5 -137t-95.5 -96.5t-135 -35.5q-68 0 -123.5 28t-91.5 78t-47 114h-96v-204h-126v507zM662 139.5q39 43.5 39 113.5q0 71 -39 114t-100 43t-100 -43t-39 -114q0 -70 39 -113.5
t100 -43.5t100 43.5z" />
    <glyph glyph-name="uni044F" unicode="&#x44f;" horiz-adv-x="585" 
d="M508 0h-123v179h-93l-120 -179h-137l139 194q-49 17 -80 53.5t-31 94.5q0 76 56.5 120.5t156.5 44.5h232v-507zM385 267v152h-95q-52 0 -78 -20.5t-26 -56.5q0 -35 26 -55t78 -20h95z" />
    <glyph glyph-name="uni0450" unicode="&#x450;" horiz-adv-x="598" 
d="M339 -16q-90 0 -155.5 32.5t-101 92.5t-35.5 143q0 80 33 141t91 95.5t134 34.5q72 0 125.5 -31t82.5 -87.5t29 -132.5q0 -25 -3 -51h-368q9 -69 55.5 -102.5t125.5 -33.5q42 0 86 10t82 28l13 -96q-37 -20 -89 -31.5t-105 -11.5zM213 395.5q-34 -33.5 -42 -94.5h252
q0 10 -2 20q-7 52 -38.5 80t-82.5 28q-53 0 -87 -33.5zM140 776h141l107 -166h-111z" />
    <glyph glyph-name="uni0451" unicode="&#x451;" horiz-adv-x="598" 
d="M339 -16q-90 0 -155.5 32.5t-101 92.5t-35.5 143q0 80 33 141t91 95.5t134 34.5q72 0 125.5 -31t82.5 -87.5t29 -132.5q0 -25 -3 -51h-368q9 -69 55.5 -102.5t125.5 -33.5q42 0 86 10t82 28l13 -96q-37 -20 -89 -31.5t-105 -11.5zM213 395.5q-34 -33.5 -42 -94.5h252
q0 10 -2 20q-7 52 -38.5 80t-82.5 28q-53 0 -87 -33.5zM193 754q30 0 49 -18.5t19 -47.5t-19 -47.5t-49 -18.5t-48.5 18t-18.5 48q0 29 19 47.5t48 18.5zM404 754q30 0 49 -18.5t19 -47.5t-19 -47.5t-49 -18.5t-48.5 18t-18.5 48q0 29 19 47.5t48 18.5z" />
    <glyph glyph-name="uni0452" unicode="&#x452;" horiz-adv-x="609" 
d="M78 611h-85v81h85v118h126v-118h185v-81h-185v-174q20 40 58 63t87 23q66 0 111 -40t67.5 -113.5t22.5 -172.5q0 -151 -40 -264t-98 -190l-130 12q38 50 70 115.5t52 146.5t20 177q0 113 -28.5 165t-84.5 52q-49 0 -78 -36t-29 -100v-275h-126v611z" />
    <glyph glyph-name="uni0453" unicode="&#x453;" horiz-adv-x="463" 
d="M78 507h362v-104h-236v-403h-126v507zM274 776h142l-138 -166h-110z" />
    <glyph glyph-name="uni0454" unicode="&#x454;" horiz-adv-x="541" 
d="M178.5 486q62.5 34 145.5 34q43 0 86.5 -10t74.5 -27l-15 -96q-30 15 -67 23.5t-70 8.5q-69 0 -112 -31.5t-55 -87.5h228v-85h-230q11 -60 55 -93.5t119 -33.5q34 0 70 8.5t71 24.5l13 -96q-33 -17 -77 -27.5t-90 -10.5q-85 0 -147.5 32t-96.5 91.5t-34 140.5
q0 80 34.5 140.5t97 94.5z" />
    <glyph glyph-name="uni0455" unicode="&#x455;" horiz-adv-x="485" 
d="M57 130q35 -23 79.5 -37t84.5 -14q47 0 72 15t25 42q0 18 -8.5 29.5t-30.5 21.5t-64 22q-89 25 -127 61.5t-38 97.5q0 73 54 114t148 41q46 0 92 -11.5t75 -28.5l-16 -95q-71 40 -147 40q-84 0 -84 -53q0 -25 20 -39.5t76 -30.5q95 -28 135 -65.5t40 -100.5
q0 -71 -58 -113t-159 -42q-52 0 -103 13.5t-82 35.5z" />
    <glyph glyph-name="uni0456" unicode="&#x456;" horiz-adv-x="281" 
d="M78 507h126v-507h-126v507zM140 770q33 0 54.5 -22t21.5 -54q0 -33 -21.5 -54.5t-54.5 -21.5t-55 21.5t-22 54.5q0 32 22 54t55 22z" />
    <glyph glyph-name="uni0457" unicode="&#x457;" horiz-adv-x="281" 
d="M78 507h126v-507h-126v507zM34 754q30 0 49 -18.5t19 -47.5t-19 -47.5t-49 -18.5t-48.5 18t-18.5 48q0 29 19 47.5t48 18.5zM245 754q30 0 49 -18.5t19 -47.5t-19 -47.5t-49 -18.5t-48.5 18t-18.5 48q0 29 19 47.5t48 18.5z" />
    <glyph glyph-name="uni0458.alt" unicode="&#x458;" horiz-adv-x="281" 
d="M204 -41q0 -213 -196 -213q-33 0 -65 7t-51 17l13 104q21 -9 42.5 -14t43.5 -5q44 0 65.5 26.5t21.5 82.5v543h126v-548zM140 770q33 0 54.5 -22t21.5 -54q0 -33 -21.5 -54.5t-54.5 -21.5t-55 21.5t-22 54.5q0 32 22 54t55 22z" />
    <glyph glyph-name="uni0459.alt" unicode="&#x459;" horiz-adv-x="895" 
d="M425 403h-169l-8 -143q-5 -99 -24 -157t-56 -83.5t-97 -25.5q-16 0 -30.5 2t-29.5 5l7 101q8 -1 14 -2t16 -1q29 0 46 17.5t26 60t12 117.5l10 213h406v-163h103q103 0 158 -45.5t55 -125.5q0 -82 -55.5 -127.5t-157.5 -45.5h-226v403zM740 173q0 38 -26.5 59t-76.5 21
h-89v-162h89q103 0 103 82z" />
    <glyph glyph-name="uni045A" unicode="&#x45a;" horiz-adv-x="874" 
d="M78 507h126v-191h199v191h123v-181h117q95 0 147 -42t52 -121q0 -78 -52.5 -120.5t-146.5 -42.5h-240v215h-199v-215h-126v507zM526 91h110q38 0 60 19t22 53t-22 53t-60 19h-110v-144z" />
    <glyph glyph-name="uni045B" unicode="&#x45b;" horiz-adv-x="616" 
d="M78 611h-85v81h85v118h126v-118h185v-81h-185v-175q22 42 63 64.5t93 22.5q88 0 135 -56t47 -160v-307h-126v284q0 127 -98 127q-54 0 -84 -35.5t-30 -100.5v-275h-126v611z" />
    <glyph glyph-name="uni045C" unicode="&#x45c;" horiz-adv-x="598" 
d="M78 507h126v-216l203 216h147l-233 -240l272 -267h-161l-228 229v-229h-126v507zM308 776h142l-138 -166h-110z" />
    <glyph glyph-name="uni045D" unicode="&#x45d;" horiz-adv-x="639" 
d="M78 507h124v-332l252 332h107v-507h-124v331l-252 -331h-107v507zM159 776h141l107 -166h-111z" />
    <glyph glyph-name="uni045E" unicode="&#x45e;" horiz-adv-x="581" 
d="M225 -245h-129l135 281l-214 471h138l140 -343l135 343h134zM111 741q0 11 1 15h94v-10t1 -10q4 -36 27 -55t60 -19q40 0 63 20.5t25 60.5v13h94q1 -4 1 -15q0 -73 -49 -115.5t-134 -42.5t-134 42.5t-49 115.5z" />
    <glyph glyph-name="uni045F" unicode="&#x45f;" horiz-adv-x="620" 
d="M78 507h126v-403h213v403h126v-507h-173v-151h-120v151h-172v507z" />
    <glyph glyph-name="uni0462" unicode="&#x462;" horiz-adv-x="767" 
d="M171 567h-151v105h151v88h132v-88h260v-105h-260v-140h174q76 0 131.5 -27t86.5 -74.5t31 -109.5q0 -64 -31 -113t-86.5 -76t-131.5 -27h-306v567zM303 104h152q66 0 100.5 29t34.5 81q0 53 -34.5 82.5t-100.5 29.5h-152v-222z" />
    <glyph glyph-name="uni0463" unicode="&#x463;" horiz-adv-x="633" 
d="M160 413h-138v94h138v303h123v-303h205v-94h-205v-101h122q92 0 144.5 -41t52.5 -114q0 -71 -52.5 -114t-144.5 -43h-245v413zM283 87h106q91 0 91 70q0 68 -91 68h-106v-138z" />
    <glyph glyph-name="uni0472" unicode="&#x472;" horiz-adv-x="899" 
d="M450 776q86 0 158.5 -29.5t126.5 -83t84 -126t30 -157.5q0 -84 -30.5 -156t-85 -126t-127 -84t-156.5 -30q-86 0 -159 29.5t-127 83t-84 126t-30 157.5q0 84 30.5 156t85 126t127.5 84t157 30zM661.5 216.5q34.5 52.5 43.5 122.5h-511q9 -69 43.5 -122t89 -82.5
t123.5 -29.5q68 0 122.5 29.5t89 82zM655.5 552q-34.5 49 -87.5 76t-118 27q-66 0 -119 -27t-88 -75.5t-46 -113.5h505q-12 64 -46.5 113z" />
    <glyph glyph-name="uni0473" unicode="&#x473;" horiz-adv-x="637" 
d="M319 523q78 0 139 -35t96.5 -96t35.5 -139q0 -76 -36 -137t-97 -96.5t-138 -35.5q-78 0 -139.5 35t-97 96t-35.5 138t36 138t97.5 96.5t138.5 35.5zM471 216h-305q11 -59 52 -95t101 -36q59 0 100 36t52 95zM416.5 388q-40.5 34 -97.5 34q-58 0 -98.5 -34t-52.5 -90h301
q-12 56 -52.5 90z" />
    <glyph glyph-name="uni0474" unicode="&#x474;" horiz-adv-x="809" 
d="M24 760h152l212 -614l148 473q24 80 70.5 113.5t127.5 33.5q21 0 39.5 -2t30.5 -4l-9 -111q-7 1 -16 1.5t-15 0.5q-38 0 -62.5 -17.5t-39.5 -58.5l-202 -575h-146z" />
    <glyph glyph-name="uni0475" unicode="&#x475;" horiz-adv-x="589" 
d="M17 507h138l128 -380l86 266q18 60 55.5 89t101.5 29q14 0 31 -1.5t26 -3.5l-5 -105q-4 0 -11 1t-18 1q-54 0 -71 -46l-133 -357h-129z" />
    <glyph glyph-name="uni0490" unicode="&#x490;" horiz-adv-x="613" 
d="M94 760h350v139h134v-253h-346v-646h-138v760z" />
    <glyph glyph-name="uni0491" unicode="&#x491;" horiz-adv-x="463" 
d="M78 507h242v128h120v-232h-236v-403h-126v507z" />
    <glyph glyph-name="uni1E24" unicode="&#x1e24;" horiz-adv-x="851" 
d="M94 760h138v-311h387v311h138v-760h-138v337h-387v-337h-138v760zM425 -55q35 0 56 -20.5t21 -54.5q0 -33 -21 -53.5t-56 -20.5q-34 0 -55 20.5t-21 53.5t21 54t55 21z" />
    <glyph glyph-name="uni1E25" unicode="&#x1e25;" horiz-adv-x="616" 
d="M78 810h126v-374q22 42 63 64.5t93 22.5q88 0 135 -56t47 -160v-307h-126v284q0 127 -98 127q-54 0 -84 -35.5t-30 -100.5v-275h-126v810zM298 -55q33 0 53.5 -20t20.5 -53q0 -31 -20.5 -51t-53.5 -20t-53.5 19.5t-20.5 51.5t20.5 52.5t53.5 20.5z" />
    <glyph glyph-name="uni1E36" unicode="&#x1e36;" horiz-adv-x="619" 
d="M94 760h138v-646h352v-114h-490v760zM340 -55q35 0 56 -20.5t21 -54.5q0 -33 -21 -53.5t-56 -20.5q-34 0 -55 20.5t-21 53.5t21 54t55 21z" />
    <glyph glyph-name="uni1E37" unicode="&#x1e37;" horiz-adv-x="281" 
d="M78 810h126v-810h-126v810zM140 -55q33 0 53.5 -20t20.5 -53q0 -31 -20.5 -51t-53.5 -20t-53.5 19.5t-20.5 51.5t20.5 52.5t53.5 20.5z" />
    <glyph glyph-name="Wgrave" unicode="&#x1e80;" horiz-adv-x="1122" 
d="M25 760h145l157 -602l172 592h127l172 -583l157 593h141l-228 -760h-135l-173 580l-170 -580h-136zM387 975h155l113 -140h-121z" />
    <glyph glyph-name="wgrave" unicode="&#x1e81;" horiz-adv-x="845" 
d="M22 507h131l102 -374l112 374h107l118 -374l102 374h129l-170 -507h-115l-119 358l-114 -358h-112zM264 776h141l107 -166h-111z" />
    <glyph glyph-name="Wacute" unicode="&#x1e82;" horiz-adv-x="1122" 
d="M25 760h145l157 -602l172 592h127l172 -583l157 593h141l-228 -760h-135l-173 580l-170 -580h-136zM579 975h155l-147 -140h-122z" />
    <glyph glyph-name="wacute" unicode="&#x1e83;" horiz-adv-x="845" 
d="M22 507h131l102 -374l112 374h107l118 -374l102 374h129l-170 -507h-115l-119 358l-114 -358h-112zM441 776h142l-138 -166h-110z" />
    <glyph glyph-name="Wdieresis" unicode="&#x1e84;" horiz-adv-x="1122" 
d="M25 760h145l157 -602l172 592h127l172 -583l157 593h141l-228 -760h-135l-173 580l-170 -580h-136zM453 967q31 0 50.5 -19t19.5 -49q0 -29 -19.5 -47.5t-50.5 -18.5q-30 0 -49.5 18.5t-19.5 47.5q0 30 19.5 49t49.5 19zM668 967q31 0 50.5 -19t19.5 -49
q0 -29 -19.5 -47.5t-50.5 -18.5q-30 0 -49.5 18.5t-19.5 47.5q0 30 19.5 49t49.5 19z" />
    <glyph glyph-name="wdieresis" unicode="&#x1e85;" horiz-adv-x="845" 
d="M22 507h131l102 -374l112 374h107l118 -374l102 374h129l-170 -507h-115l-119 358l-114 -358h-112zM317 754q30 0 49 -18.5t19 -47.5t-19 -47.5t-49 -18.5t-48.5 18t-18.5 48q0 29 19 47.5t48 18.5zM528 754q30 0 49 -18.5t19 -47.5t-19 -47.5t-49 -18.5t-48.5 18
t-18.5 48q0 29 19 47.5t48 18.5z" />
    <glyph glyph-name="uni1E9E" unicode="&#x1e9e;" horiz-adv-x="791" 
d="M89 429q0 165 85 256t239 91q75 0 147 -26t122 -71v-80l-126 -160q84 -15 134.5 -75t50.5 -145q0 -70 -32.5 -123t-91 -82.5t-136.5 -29.5q-48 0 -95.5 12t-76.5 31l12 110q30 -20 69 -30.5t79 -10.5q68 0 106.5 35t38.5 96q0 58 -38.5 91.5t-103.5 33.5q-12 0 -23 -1.5
t-22 -3.5l-27 65l157 203q-29 21 -66.5 33t-77.5 12q-95 0 -144.5 -61.5t-49.5 -180.5v-418h-130v429z" />
    <glyph glyph-name="Ygrave" unicode="&#x1ef2;" horiz-adv-x="723" 
d="M430 319v-319h-137v320l-281 440h153l200 -340l199 340h147zM187 975h155l113 -140h-121z" />
    <glyph glyph-name="ygrave" unicode="&#x1ef3;" horiz-adv-x="581" 
d="M225 -245h-129l135 281l-214 471h138l140 -343l135 343h134zM135 776h141l107 -166h-111z" />
    <glyph glyph-name="uni2000" unicode="&#x2000;" horiz-adv-x="500" 
 />
    <glyph glyph-name="uni2001" unicode="&#x2001;" horiz-adv-x="1000" 
 />
    <glyph glyph-name="uni2002" unicode="&#x2002;" horiz-adv-x="500" 
 />
    <glyph glyph-name="uni2003" unicode="&#x2003;" horiz-adv-x="1000" 
 />
    <glyph glyph-name="uni2004" unicode="&#x2004;" horiz-adv-x="333" 
 />
    <glyph glyph-name="uni2005" unicode="&#x2005;" horiz-adv-x="250" 
 />
    <glyph glyph-name="uni2006" unicode="&#x2006;" horiz-adv-x="166" 
 />
    <glyph glyph-name="uni2007" unicode="&#x2007;" horiz-adv-x="620" 
 />
    <glyph glyph-name="uni2008" unicode="&#x2008;" horiz-adv-x="297" 
 />
    <glyph glyph-name="uni2009" unicode="&#x2009;" horiz-adv-x="200" 
 />
    <glyph glyph-name="uni200A" unicode="&#x200a;" horiz-adv-x="55" 
 />
    <glyph glyph-name="uni200B" unicode="&#x200b;" 
 />
    <glyph glyph-name="uni2010" unicode="&#x2010;" horiz-adv-x="433" 
d="M64 343h305v-111h-305v111z" />
    <glyph glyph-name="uni2011" unicode="&#x2011;" horiz-adv-x="433" 
d="M64 343h305v-111h-305v111z" />
    <glyph glyph-name="figuredash" unicode="&#x2012;" horiz-adv-x="500" 
d="M0 338h500v-100h-500v100z" />
    <glyph glyph-name="endash" unicode="&#x2013;" horiz-adv-x="500" 
d="M0 338h500v-100h-500v100z" />
    <glyph glyph-name="emdash" unicode="&#x2014;" horiz-adv-x="1000" 
d="M0 338h1000v-100h-1000v100z" />
    <glyph glyph-name="uni2015" unicode="&#x2015;" horiz-adv-x="1000" 
d="M0 338h1000v-100h-1000v100z" />
    <glyph glyph-name="quoteleft" unicode="&#x2018;" horiz-adv-x="217" 
d="M103 760h94q-42 -115 -42 -243h-120q2 62 20.5 127.5t47.5 115.5z" />
    <glyph glyph-name="quoteright" unicode="&#x2019;" horiz-adv-x="217" 
d="M114 517h-94q42 115 42 243h120q-2 -62 -20.5 -127.5t-47.5 -115.5z" />
    <glyph glyph-name="quotesinglbase" unicode="&#x201a;" horiz-adv-x="217" 
d="M114 -122h-94q42 115 42 243h120q-2 -62 -20.5 -127.5t-47.5 -115.5z" />
    <glyph glyph-name="quotedblleft" unicode="&#x201c;" horiz-adv-x="408" 
d="M103 760h94q-42 -115 -42 -243h-120q2 62 20.5 127.5t47.5 115.5zM294 760h94q-42 -115 -42 -243h-120q2 62 20.5 127.5t47.5 115.5z" />
    <glyph glyph-name="quotedblright" unicode="&#x201d;" horiz-adv-x="408" 
d="M114 517h-94q42 115 42 243h120q-2 -62 -20.5 -127.5t-47.5 -115.5zM305 517h-94q42 115 42 243h120q-2 -62 -20.5 -127.5t-47.5 -115.5z" />
    <glyph glyph-name="quotedblbase" unicode="&#x201e;" horiz-adv-x="408" 
d="M114 -122h-94q42 115 42 243h120q-2 -62 -20.5 -127.5t-47.5 -115.5zM305 -122h-94q42 115 42 243h120q-2 -62 -20.5 -127.5t-47.5 -115.5z" />
    <glyph glyph-name="dagger" unicode="&#x2020;" horiz-adv-x="522" 
d="M324 -130h-125v561h-160v104h160v225h125v-225h160v-104h-160v-561z" />
    <glyph glyph-name="daggerdbl" unicode="&#x2021;" horiz-adv-x="522" 
d="M199 442h-160v103h160v215h125v-215h160v-103h-160v-254h160v-104h-160v-214h-125v214h-160v104h160v254z" />
    <glyph glyph-name="bullet" unicode="&#x2022;" horiz-adv-x="354" 
d="M48 273q0 36 17.5 65t47 46.5t64.5 17.5q36 0 65 -17.5t46.5 -46.5t17.5 -65q0 -35 -17.5 -64.5t-46.5 -46.5t-65 -17q-35 0 -64.5 17t-47 46.5t-17.5 64.5z" />
    <glyph glyph-name="ellipsis" unicode="&#x2026;" horiz-adv-x="1000" 
d="M86 72q0 34 22.5 56t57.5 22t58 -22t23 -56t-23 -56t-58 -22t-57.5 22t-22.5 56zM419 72q0 34 22.5 56t57.5 22t58 -22t23 -56t-23 -56t-58 -22t-57.5 22t-22.5 56zM753 72q0 34 22.5 56t57.5 22t58 -22t23 -56t-23 -56t-58 -22t-57.5 22t-22.5 56z" />
    <glyph glyph-name="perthousand" unicode="&#x2030;" horiz-adv-x="1409" 
d="M696 744h112l-535 -744h-112zM723 -12q-55 0 -99.5 25.5t-70 68.5t-25.5 98t25.5 98.5t70 68.5t99.5 25t99 -25t69.5 -68.5t25.5 -98.5t-25.5 -98t-69.5 -68.5t-99 -25.5zM792 255q-26 28 -69 28t-69.5 -28t-26.5 -75q0 -46 26.5 -74.5t69.5 -28.5t69 28.5t26 74.5
q0 47 -26 75zM1160 -12q-55 0 -99.5 25.5t-70 68.5t-25.5 98t25.5 98.5t70 68.5t99.5 25t99 -25t69.5 -68.5t25.5 -98.5t-25.5 -98t-69.5 -68.5t-99 -25.5zM1229 255q-26 28 -69 28t-69.5 -28t-26.5 -75q0 -46 26.5 -74.5t69.5 -28.5t69 28.5t26 74.5q0 47 -26 75zM250 376
q-55 0 -99.5 25.5t-70 68.5t-25.5 98t25.5 98.5t70 68.5t99.5 25t99 -25t69.5 -68.5t25.5 -98.5t-25.5 -98t-69.5 -68.5t-99 -25.5zM319 643q-26 28 -69 28t-69.5 -28t-26.5 -75q0 -46 26.5 -74.5t69.5 -28.5t69 28.5t26 74.5q0 47 -26 75z" />
    <glyph glyph-name="minute" unicode="&#x2032;" horiz-adv-x="213" 
d="M67 760h125l-69 -291h-101z" />
    <glyph glyph-name="second" unicode="&#x2033;" horiz-adv-x="407" 
d="M67 760h125l-69 -291h-101zM261 760h125l-69 -291h-101z" />
    <glyph glyph-name="guilsinglleft" unicode="&#x2039;" horiz-adv-x="353" 
d="M30 257l148 218h138l-151 -218l151 -218h-138z" />
    <glyph glyph-name="guilsinglright" unicode="&#x203a;" horiz-adv-x="353" 
d="M188 257l-151 218h138l148 -218l-148 -218h-138z" />
    <glyph glyph-name="fraction" unicode="&#x2044;" horiz-adv-x="177" 
d="M300 744h112l-535 -744h-112z" />
    <glyph glyph-name="uni2070" unicode="&#x2070;" horiz-adv-x="389" 
d="M20 660q0 34 6 64q14 71 58 110.5t110 39.5q81 0 128 -57.5t47 -156.5q0 -34 -6 -64q-13 -70 -57.5 -110t-111.5 -40q-80 0 -127 57.5t-47 156.5zM264 600q6 26 6 60q0 64 -19.5 97.5t-56.5 33.5q-54 0 -69 -71q-4 -13 -5 -28t-1 -32q0 -64 19.5 -97.5t55.5 -33.5
q53 0 70 71z" />
    <glyph glyph-name="uni2074" unicode="&#x2074;" horiz-adv-x="389" 
d="M307 616h49v-73h-49v-87h-86v87h-196v74l185 247h97v-248zM221 616v148l-111 -148h111z" />
    <glyph glyph-name="uni2075" unicode="&#x2075;" horiz-adv-x="389" 
d="M77 864h242v-79h-161l-2 -71q16 2 31 2q74 0 116 -34.5t42 -94.5q0 -66 -46.5 -103.5t-126.5 -37.5q-36 0 -70 7.5t-51 19.5l8 79q44 -28 107 -28q84 0 84 61q0 58 -84 58q-26 0 -50.5 -2.5t-46.5 -7.5z" />
    <glyph glyph-name="uni2076" unicode="&#x2076;" horiz-adv-x="389" 
d="M190 866l115 -3q-44 -34 -84 -76t-65 -83q26 19 62 19q39 0 70 -17.5t48.5 -47t17.5 -67.5q0 -64 -45 -104.5t-116 -40.5q-70 0 -114.5 41.5t-44.5 108.5q0 65 42.5 138t113.5 132zM194 653q-31 0 -50.5 -18.5t-19.5 -47.5q0 -28 19.5 -46.5t50.5 -18.5q30 0 49.5 18.5
t19.5 46.5q0 29 -19.5 47.5t-49.5 18.5z" />
    <glyph glyph-name="uni2077" unicode="&#x2077;" horiz-adv-x="389" 
d="M183 454l-101 3l157 321h-193v86h295v-79z" />
    <glyph glyph-name="uni2078" unicode="&#x2078;" horiz-adv-x="389" 
d="M302 842q41 -32 41 -84q0 -61 -56 -88q32 -13 50.5 -39.5t18.5 -59.5q0 -58 -43.5 -91.5t-118.5 -33.5q-74 0 -117.5 33.5t-43.5 91.5q0 33 18.5 59.5t50.5 39.5q-56 27 -56 88q0 52 41.5 84t106.5 32q67 0 108 -32zM144.5 534q18.5 -16 49.5 -16q32 0 50.5 16t18.5 42
t-18.5 41.5t-50.5 15.5q-31 0 -49.5 -15.5t-18.5 -41.5t18.5 -42zM151 714q16 -14 43 -14q28 0 44.5 14t16.5 38t-16.5 38t-44.5 14q-27 0 -43 -14t-16 -38t16 -38z" />
    <glyph glyph-name="uni2079" unicode="&#x2079;" horiz-adv-x="389" 
d="M198 454l-115 3q45 34 85 76t64 82q-26 -18 -62 -18q-39 0 -69.5 17.5t-48.5 47.5t-18 67q0 65 45 105t116 40t115 -41.5t44 -108.5q0 -65 -42.5 -138t-113.5 -132zM144.5 780q-19.5 -18 -19.5 -47q0 -28 19.5 -47t49.5 -19q32 0 51.5 18.5t19.5 47.5t-19.5 47t-51.5 18
q-30 0 -49.5 -18z" />
    <glyph glyph-name="uni2080" unicode="&#x2080;" horiz-adv-x="389" 
d="M20 78q0 34 6 64q14 71 58 110.5t110 39.5q81 0 128 -57.5t47 -156.5q0 -34 -6 -64q-13 -70 -57.5 -110t-111.5 -40q-80 0 -127 57.5t-47 156.5zM264 18q6 26 6 60q0 64 -19.5 97.5t-56.5 33.5q-54 0 -69 -71q-4 -13 -5 -28t-1 -32q0 -64 19.5 -97.5t55.5 -33.5
q53 0 70 71z" />
    <glyph glyph-name="uni2081" unicode="&#x2081;" horiz-adv-x="389" 
d="M277 -126h-97v311l-108 -49l-14 85l135 61h84v-408z" />
    <glyph glyph-name="uni2082" unicode="&#x2082;" horiz-adv-x="389" 
d="M226 3q-14 -13 -27.5 -24.5t-27.5 -22.5h170v-82h-296v81q29 20 60 47t54 49q40 38 56 63t16 49q0 22 -16.5 35t-44.5 13q-52 0 -105 -50l-17 78q23 24 60.5 38.5t77.5 14.5q63 0 102 -33t39 -86q0 -81 -101 -170z" />
    <glyph glyph-name="uni2083" unicode="&#x2083;" horiz-adv-x="389" 
d="M217 204h-163v78h267v-74l-98 -91q52 -6 82.5 -38t30.5 -79q0 -61 -47 -98.5t-126 -37.5q-75 0 -119 27l8 77q23 -13 52 -20t56 -7q38 0 59.5 16.5t21.5 44.5q0 25 -20 39t-55 14q-22 0 -39 -5l-22 49z" />
    <glyph glyph-name="uni2084" unicode="&#x2084;" horiz-adv-x="389" 
d="M307 34h49v-73h-49v-87h-86v87h-196v74l185 247h97v-248zM221 34v148l-111 -148h111z" />
    <glyph glyph-name="uni2085" unicode="&#x2085;" horiz-adv-x="389" 
d="M77 282h242v-79h-161l-2 -71q16 2 31 2q74 0 116 -34.5t42 -94.5q0 -66 -46.5 -103.5t-126.5 -37.5q-36 0 -70 7.5t-51 19.5l8 79q44 -28 107 -28q84 0 84 61q0 58 -84 58q-26 0 -50.5 -2.5t-46.5 -7.5z" />
    <glyph glyph-name="uni2086" unicode="&#x2086;" horiz-adv-x="389" 
d="M190 284l115 -3q-44 -34 -84 -76t-65 -83q26 19 62 19q39 0 70 -17.5t48.5 -47t17.5 -67.5q0 -64 -45 -104.5t-116 -40.5q-70 0 -114.5 41.5t-44.5 108.5q0 65 42.5 138t113.5 132zM194 71q-31 0 -50.5 -18.5t-19.5 -47.5q0 -28 19.5 -46.5t50.5 -18.5q30 0 49.5 18.5
t19.5 46.5q0 29 -19.5 47.5t-49.5 18.5z" />
    <glyph glyph-name="uni2087" unicode="&#x2087;" horiz-adv-x="389" 
d="M183 -128l-101 3l157 321h-193v86h295v-79z" />
    <glyph glyph-name="uni2088" unicode="&#x2088;" horiz-adv-x="389" 
d="M302 260q41 -32 41 -84q0 -61 -56 -88q32 -13 50.5 -39.5t18.5 -59.5q0 -58 -43.5 -91.5t-118.5 -33.5q-74 0 -117.5 33.5t-43.5 91.5q0 33 18.5 59.5t50.5 39.5q-56 27 -56 88q0 52 41.5 84t106.5 32q67 0 108 -32zM144.5 -48q18.5 -16 49.5 -16q32 0 50.5 16t18.5 42
t-18.5 41.5t-50.5 15.5q-31 0 -49.5 -15.5t-18.5 -41.5t18.5 -42zM151 132q16 -14 43 -14q28 0 44.5 14t16.5 38t-16.5 38t-44.5 14q-27 0 -43 -14t-16 -38t16 -38z" />
    <glyph glyph-name="uni2089" unicode="&#x2089;" horiz-adv-x="389" 
d="M198 -128l-115 3q45 34 85 76t64 82q-26 -18 -62 -18q-39 0 -69.5 17.5t-48.5 47.5t-18 67q0 65 45 105t116 40t115 -41.5t44 -108.5q0 -65 -42.5 -138t-113.5 -132zM144.5 198q-19.5 -18 -19.5 -47q0 -28 19.5 -47t49.5 -19q32 0 51.5 18.5t19.5 47.5t-19.5 47t-51.5 18
q-30 0 -49.5 -18z" />
    <glyph glyph-name="Euro" unicode="&#x20ac;" horiz-adv-x="620" 
d="M138 245h-105v81h95q-1 20 -1 41q0 26 2 51h-96v81h108q18 77 58 136t102 92t146 33q51 0 91.5 -10t72.5 -27l-19 -102q-31 16 -65 24t-75 8q-76 0 -121 -42.5t-64 -111.5h253v-81h-266q-2 -23 -2 -47q0 -23 2 -45h266v-81h-253q20 -74 68 -114t127 -40q31 0 68.5 8
t73.5 25l14 -103q-37 -19 -80 -28t-90 -9q-133 0 -209.5 71t-100.5 190z" />
    <glyph glyph-name="uni20B4" unicode="&#x20b4;" horiz-adv-x="620" 
d="M540 33q-80 -49 -200 -49q-124 0 -195.5 51.5t-71.5 139.5q0 48 17 82h-61v81h128q43 33 129 79h-257v81h365q26 29 26 63q0 42 -33 66.5t-90 24.5q-40 0 -82.5 -11.5t-80.5 -31.5l-18 103q42 22 94.5 35t104.5 13q104 0 166 -49t62 -131q0 -48 -17 -82h63v-81h-128
q-43 -33 -117 -73l-11 -6h256v-81h-369q-21 -28 -21 -63q0 -46 40.5 -74t109.5 -28q99 0 175 49z" />
    <glyph glyph-name="uni20B9" unicode="&#x20b9;" horiz-adv-x="620" 
d="M516 0h-169l-283 276v77h135q146 0 173 110h-308v85h310q-21 111 -165 111h-145v85h521v-85h-148q51 -41 63 -111h85v-85h-84q-12 -91 -81.5 -141.5t-188.5 -54.5z" />
    <glyph glyph-name="uni20BA" unicode="&#x20ba;" horiz-adv-x="620" 
d="M120 266l-98 -42v82l98 43v86l-98 -42v82l98 43v226h121v-173l196 85v-83l-196 -85v-86l196 85v-83l-196 -85v-229q203 8 232 240l111 -6q-10 -162 -105.5 -251t-262.5 -89q-52 0 -96 10v272z" />
    <glyph glyph-name="uni20BD" unicode="&#x20bd;" horiz-adv-x="620" 
d="M117 0v138h-90v85h90v72h-90v89h90v360h201q81 0 141 -28t92.5 -78t32.5 -116q0 -69 -32.5 -120t-92 -79t-141.5 -28h-84v-72h201v-85h-201v-138h-117zM304 384q158 0 158 132q0 64 -40.5 98.5t-117.5 34.5h-70v-265h70z" />
    <glyph glyph-name="uni2116" unicode="&#x2116;" horiz-adv-x="1324" 
d="M94 760h124l412 -559v559h125v-760h-123l-412 559v-559h-126v760zM906 577q0 53 24.5 94.5t67 65t95.5 23.5q54 0 96 -23.5t66.5 -65t24.5 -94.5t-24.5 -94.5t-66.5 -65.5t-96 -24q-53 0 -95.5 24t-67 65.5t-24.5 94.5zM918 237v86h349v-86h-349zM1007 577
q0 -43 23.5 -69t61.5 -26q39 0 63 26t24 69q0 42 -23.5 68.5t-61.5 26.5q-39 0 -63 -26.5t-24 -68.5z" />
    <glyph glyph-name="trademark" unicode="&#x2122;" horiz-adv-x="851" 
d="M398 760h96l97 -214l99 214h96l21 -370h-85l-11 248l-86 -185h-66l-86 185l-11 -248h-85zM121 683h-108v77h311v-77h-108v-293h-95v293z" />
    <glyph glyph-name="Omega" unicode="&#x2126;" horiz-adv-x="928" 
d="M77 413q0 78 29 144t81.5 115.5t123 76.5t153.5 27q85 0 155.5 -27t122.5 -75.5t80.5 -115t28.5 -145.5q0 -95 -39 -172t-114 -126h154v-115h-321v109q84 41 130 117.5t46 173.5q0 75 -30.5 132t-85 89t-127.5 32q-72 0 -127 -32t-86 -89t-31 -132q0 -97 46.5 -173.5
t130.5 -117.5v-109h-321v115h153q-73 49 -112.5 126t-39.5 172z" />
    <glyph glyph-name="uni2150" unicode="&#x2150;" horiz-adv-x="954" 
d="M658 744h112l-535 -744h-112zM748 -2l-101 3l157 321h-193v86h295v-79zM277 336h-97v311l-108 -49l-14 85l135 61h84v-408z" />
    <glyph glyph-name="uni2151" unicode="&#x2151;" horiz-adv-x="954" 
d="M684 744h112l-535 -744h-112zM763 -2l-115 3q45 34 85 76t64 82q-26 -18 -62 -18q-39 0 -69.5 17.5t-48.5 47.5t-18 67q0 65 45 105t116 40t115 -41.5t44 -108.5q0 -65 -42.5 -138t-113.5 -132zM709.5 324q-19.5 -18 -19.5 -47q0 -28 19.5 -47t49.5 -19q32 0 51.5 18.5
t19.5 47.5t-19.5 47t-51.5 18q-30 0 -49.5 -18zM277 336h-97v311l-108 -49l-14 85l135 61h84v-408z" />
    <glyph glyph-name="onethird" unicode="&#x2153;" horiz-adv-x="954" 
d="M668 744h112l-535 -744h-112zM782 330h-163v78h267v-74l-98 -91q52 -6 82.5 -38t30.5 -79q0 -61 -47 -98.5t-126 -37.5q-75 0 -119 27l8 77q23 -13 52 -20t56 -7q38 0 59.5 16.5t21.5 44.5q0 25 -20 39t-55 14q-22 0 -39 -5l-22 49zM277 336h-97v311l-108 -49l-14 85
l135 61h84v-408z" />
    <glyph glyph-name="twothirds" unicode="&#x2154;" horiz-adv-x="954" 
d="M691 744h112l-535 -744h-112zM782 330h-163v78h267v-74l-98 -91q52 -6 82.5 -38t30.5 -79q0 -61 -47 -98.5t-126 -37.5q-75 0 -119 27l8 77q23 -13 52 -20t56 -7q38 0 59.5 16.5t21.5 44.5q0 25 -20 39t-55 14q-22 0 -39 -5l-22 49zM226 465q-14 -13 -27.5 -24.5
t-27.5 -22.5h170v-82h-296v81q29 20 60 47t54 49q40 38 56 63t16 49q0 22 -16.5 35t-44.5 13q-52 0 -105 -50l-17 78q23 24 60.5 38.5t77.5 14.5q63 0 102 -33t39 -86q0 -81 -101 -170z" />
    <glyph glyph-name="uni2155" unicode="&#x2155;" horiz-adv-x="954" 
d="M675 744h112l-535 -744h-112zM642 408h242v-79h-161l-2 -71q16 2 31 2q74 0 116 -34.5t42 -94.5q0 -66 -46.5 -103.5t-126.5 -37.5q-36 0 -70 7.5t-51 19.5l8 79q44 -28 107 -28q84 0 84 61q0 58 -84 58q-26 0 -50.5 -2.5t-46.5 -7.5zM277 336h-97v311l-108 -49l-14 85
l135 61h84v-408z" />
    <glyph glyph-name="uni2156" unicode="&#x2156;" horiz-adv-x="954" 
d="M700 744h112l-535 -744h-112zM642 408h242v-79h-161l-2 -71q16 2 31 2q74 0 116 -34.5t42 -94.5q0 -66 -46.5 -103.5t-126.5 -37.5q-36 0 -70 7.5t-51 19.5l8 79q44 -28 107 -28q84 0 84 61q0 58 -84 58q-26 0 -50.5 -2.5t-46.5 -7.5zM226 465q-14 -13 -27.5 -24.5
t-27.5 -22.5h170v-82h-296v81q29 20 60 47t54 49q40 38 56 63t16 49q0 22 -16.5 35t-44.5 13q-52 0 -105 -50l-17 78q23 24 60.5 38.5t77.5 14.5q63 0 102 -33t39 -86q0 -81 -101 -170z" />
    <glyph glyph-name="uni2157" unicode="&#x2157;" horiz-adv-x="954" 
d="M674 744h112l-535 -744h-112zM642 408h242v-79h-161l-2 -71q16 2 31 2q74 0 116 -34.5t42 -94.5q0 -66 -46.5 -103.5t-126.5 -37.5q-36 0 -70 7.5t-51 19.5l8 79q44 -28 107 -28q84 0 84 61q0 58 -84 58q-26 0 -50.5 -2.5t-46.5 -7.5zM217 666h-163v78h267v-74l-98 -91
q52 -6 82.5 -38t30.5 -79q0 -61 -47 -98.5t-126 -37.5q-75 0 -119 27l8 77q23 -13 52 -20t56 -7q38 0 59.5 16.5t21.5 44.5q0 25 -20 39t-55 14q-22 0 -39 -5l-22 49z" />
    <glyph glyph-name="uni2158" unicode="&#x2158;" horiz-adv-x="954" 
d="M691 744h112l-535 -744h-112zM642 408h242v-79h-161l-2 -71q16 2 31 2q74 0 116 -34.5t42 -94.5q0 -66 -46.5 -103.5t-126.5 -37.5q-36 0 -70 7.5t-51 19.5l8 79q44 -28 107 -28q84 0 84 61q0 58 -84 58q-26 0 -50.5 -2.5t-46.5 -7.5zM307 496h49v-73h-49v-87h-86v87
h-196v74l185 247h97v-248zM221 496v148l-111 -148h111z" />
    <glyph glyph-name="uni2159" unicode="&#x2159;" horiz-adv-x="954" 
d="M702 744h112l-535 -744h-112zM755 410l115 -3q-44 -34 -84 -76t-65 -83q26 19 62 19q39 0 70 -17.5t48.5 -47t17.5 -67.5q0 -64 -45 -104.5t-116 -40.5q-70 0 -114.5 41.5t-44.5 108.5q0 65 42.5 138t113.5 132zM759 197q-31 0 -50.5 -18.5t-19.5 -47.5q0 -28 19.5 -46.5
t50.5 -18.5q30 0 49.5 18.5t19.5 46.5q0 29 -19.5 47.5t-49.5 18.5zM277 336h-97v311l-108 -49l-14 85l135 61h84v-408z" />
    <glyph glyph-name="uni215A" unicode="&#x215a;" horiz-adv-x="954" 
d="M707 744h112l-535 -744h-112zM755 410l115 -3q-44 -34 -84 -76t-65 -83q26 19 62 19q39 0 70 -17.5t48.5 -47t17.5 -67.5q0 -64 -45 -104.5t-116 -40.5q-70 0 -114.5 41.5t-44.5 108.5q0 65 42.5 138t113.5 132zM759 197q-31 0 -50.5 -18.5t-19.5 -47.5q0 -28 19.5 -46.5
t50.5 -18.5q30 0 49.5 18.5t19.5 46.5q0 29 -19.5 47.5t-49.5 18.5zM77 744h242v-79h-161l-2 -71q16 2 31 2q74 0 116 -34.5t42 -94.5q0 -66 -46.5 -103.5t-126.5 -37.5q-36 0 -70 7.5t-51 19.5l8 79q44 -28 107 -28q84 0 84 61q0 58 -84 58q-26 0 -50.5 -2.5t-46.5 -7.5z
" />
    <glyph glyph-name="oneeighth" unicode="&#x215b;" horiz-adv-x="954" 
d="M678 744h112l-535 -744h-112zM867 386q41 -32 41 -84q0 -61 -56 -88q32 -13 50.5 -39.5t18.5 -59.5q0 -58 -43.5 -91.5t-118.5 -33.5q-74 0 -117.5 33.5t-43.5 91.5q0 33 18.5 59.5t50.5 39.5q-56 27 -56 88q0 52 41.5 84t106.5 32q67 0 108 -32zM709.5 78
q18.5 -16 49.5 -16q32 0 50.5 16t18.5 42t-18.5 41.5t-50.5 15.5q-31 0 -49.5 -15.5t-18.5 -41.5t18.5 -42zM716 258q16 -14 43 -14q28 0 44.5 14t16.5 38t-16.5 38t-44.5 14q-27 0 -43 -14t-16 -38t16 -38zM277 336h-97v311l-108 -49l-14 85l135 61h84v-408z" />
    <glyph glyph-name="threeeighths" unicode="&#x215c;" horiz-adv-x="954" 
d="M679 744h112l-535 -744h-112zM867 386q41 -32 41 -84q0 -61 -56 -88q32 -13 50.5 -39.5t18.5 -59.5q0 -58 -43.5 -91.5t-118.5 -33.5q-74 0 -117.5 33.5t-43.5 91.5q0 33 18.5 59.5t50.5 39.5q-56 27 -56 88q0 52 41.5 84t106.5 32q67 0 108 -32zM709.5 78
q18.5 -16 49.5 -16q32 0 50.5 16t18.5 42t-18.5 41.5t-50.5 15.5q-31 0 -49.5 -15.5t-18.5 -41.5t18.5 -42zM716 258q16 -14 43 -14q28 0 44.5 14t16.5 38t-16.5 38t-44.5 14q-27 0 -43 -14t-16 -38t16 -38zM217 666h-163v78h267v-74l-98 -91q52 -6 82.5 -38t30.5 -79
q0 -61 -47 -98.5t-126 -37.5q-75 0 -119 27l8 77q23 -13 52 -20t56 -7q38 0 59.5 16.5t21.5 44.5q0 25 -20 39t-55 14q-22 0 -39 -5l-22 49z" />
    <glyph glyph-name="fiveeighths" unicode="&#x215d;" horiz-adv-x="954" 
d="M687 744h112l-535 -744h-112zM867 386q41 -32 41 -84q0 -61 -56 -88q32 -13 50.5 -39.5t18.5 -59.5q0 -58 -43.5 -91.5t-118.5 -33.5q-74 0 -117.5 33.5t-43.5 91.5q0 33 18.5 59.5t50.5 39.5q-56 27 -56 88q0 52 41.5 84t106.5 32q67 0 108 -32zM709.5 78
q18.5 -16 49.5 -16q32 0 50.5 16t18.5 42t-18.5 41.5t-50.5 15.5q-31 0 -49.5 -15.5t-18.5 -41.5t18.5 -42zM716 258q16 -14 43 -14q28 0 44.5 14t16.5 38t-16.5 38t-44.5 14q-27 0 -43 -14t-16 -38t16 -38zM77 744h242v-79h-161l-2 -71q16 2 31 2q74 0 116 -34.5t42 -94.5
q0 -66 -46.5 -103.5t-126.5 -37.5q-36 0 -70 7.5t-51 19.5l8 79q44 -28 107 -28q84 0 84 61q0 58 -84 58q-26 0 -50.5 -2.5t-46.5 -7.5z" />
    <glyph glyph-name="seveneighths" unicode="&#x215e;" horiz-adv-x="954" 
d="M643 744h112l-535 -744h-112zM867 386q41 -32 41 -84q0 -61 -56 -88q32 -13 50.5 -39.5t18.5 -59.5q0 -58 -43.5 -91.5t-118.5 -33.5q-74 0 -117.5 33.5t-43.5 91.5q0 33 18.5 59.5t50.5 39.5q-56 27 -56 88q0 52 41.5 84t106.5 32q67 0 108 -32zM709.5 78
q18.5 -16 49.5 -16q32 0 50.5 16t18.5 42t-18.5 41.5t-50.5 15.5q-31 0 -49.5 -15.5t-18.5 -41.5t18.5 -42zM716 258q16 -14 43 -14q28 0 44.5 14t16.5 38t-16.5 38t-44.5 14q-27 0 -43 -14t-16 -38t16 -38zM183 334l-101 3l157 321h-193v86h295v-79z" />
    <glyph glyph-name="partialdiff" unicode="&#x2202;" horiz-adv-x="632" 
d="M429.5 38.5q-70.5 -54.5 -165.5 -54.5q-69 0 -121.5 27.5t-81.5 77.5t-29 116q0 71 33.5 129t90.5 92t127 34q58 0 102 -26.5t64 -73.5q3 36 3 67q0 108 -43.5 165.5t-125.5 57.5q-42 0 -82.5 -15.5t-71.5 -44.5l-15 106q33 30 82 47t102 17q133 0 206.5 -89t73.5 -250
q0 -132 -39 -230t-109.5 -152.5zM276 93q40 0 73 20t53 54t20 74q0 55 -33 87t-89 32q-41 0 -73.5 -19.5t-51 -52.5t-18.5 -76q0 -55 32 -87t87 -32z" />
    <glyph glyph-name="Delta" unicode="&#x2206;" horiz-adv-x="798" 
d="M328 760h139l308 -760h-752zM591 108l-196 528l-195 -528h391z" />
    <glyph glyph-name="product" unicode="&#x220f;" horiz-adv-x="746" 
d="M94 760h558v-840h-136v730h-285v-730h-137v840z" />
    <glyph glyph-name="summation" unicode="&#x2211;" horiz-adv-x="607" 
d="M257 349l-211 313v98h511v-113h-348l197 -293l-216 -320h372v-113h-527v98z" />
    <glyph glyph-name="minus" unicode="&#x2212;" horiz-adv-x="620" 
d="M77 389h466v-109h-466v109z" />
    <glyph glyph-name="uni2215" unicode="&#x2215;" horiz-adv-x="177" 
d="M300 744h112l-535 -744h-112z" />
    <glyph glyph-name="uni2219" unicode="&#x2219;" horiz-adv-x="297" 
d="M68 379q0 34 22.5 56t57.5 22t58 -22t23 -56t-23 -56t-58 -22t-57.5 22t-22.5 56z" />
    <glyph glyph-name="radical" unicode="&#x221a;" horiz-adv-x="708" 
d="M423 0h-122l-149 357h-119v104h213l119 -323l256 681h123z" />
    <glyph glyph-name="infinity" unicode="&#x221e;" horiz-adv-x="727" 
d="M34 347q0 83 47.5 134t126.5 51q49 0 89.5 -24.5t65.5 -68.5q25 44 65.5 68.5t90.5 24.5q79 0 126.5 -51t47.5 -134q0 -82 -47.5 -133t-126.5 -51q-51 0 -91.5 23.5t-64.5 68.5q-24 -45 -64.5 -68.5t-90.5 -23.5q-79 0 -126.5 51t-47.5 133zM315 347q-37 87 -100 87
q-35 0 -56 -23.5t-21 -63.5t21 -63t56 -23q63 0 100 86zM589 347q0 40 -21 63.5t-56 23.5q-63 0 -100 -87q37 -86 100 -86q35 0 56 23t21 63z" />
    <glyph glyph-name="integral" unicode="&#x222b;" horiz-adv-x="432" 
d="M109 551q-1 11 -1 19.5v29.5q0 107 48.5 164t142.5 57q26 0 55.5 -6t48.5 -16l-11 -103q-16 7 -38.5 11.5t-38.5 4.5q-44 0 -64 -28.5t-20 -90.5v-25.5t1 -19.5l33 -532q1 -9 1 -18v-31q0 -107 -48.5 -164t-142.5 -57q-25 0 -55 6t-49 16l11 103q17 -7 39.5 -11.5
t37.5 -4.5q44 0 64 28.5t20 90.5v27.5t-1 17.5z" />
    <glyph glyph-name="approxequal" unicode="&#x2248;" horiz-adv-x="620" 
d="M48 378v7q0 103 42 151.5t110 48.5q35 0 66 -14t64 -41q29 -23 46 -32.5t36 -9.5q26 0 41 22.5t18 74.5h101v-7q0 -103 -42 -151.5t-110 -48.5q-33 0 -62 12.5t-61 38.5q-31 24 -50 35t-39 11q-26 0 -41 -22.5t-18 -74.5h-101zM48 113v7q0 103 42 151.5t110 48.5
q35 0 66 -14t64 -41q29 -23 46 -32.5t36 -9.5q26 0 41 22.5t18 74.5h101v-7q0 -103 -42 -151.5t-110 -48.5q-33 0 -62 13t-61 38q-31 24 -50 35t-39 11q-26 0 -41 -22.5t-18 -74.5h-101z" />
    <glyph glyph-name="notequal" unicode="&#x2260;" horiz-adv-x="620" 
d="M298 399h-203v104h253l56 115h88l-56 -115h89v-104h-139l-64 -133h203v-104h-254l-55 -114h-88l55 114h-88v104h139z" />
    <glyph glyph-name="lessequal" unicode="&#x2264;" horiz-adv-x="620" 
d="M534 173l-449 175v121l449 175v-114l-329 -120l329 -121v-116zM543 0h-466v108h466v-108z" />
    <glyph glyph-name="greaterequal" unicode="&#x2265;" horiz-adv-x="620" 
d="M86 173v116l330 120l-330 121v114l449 -175v-121zM543 0h-466v108h466v-108z" />
    <glyph glyph-name="lozenge" unicode="&#x25ca;" horiz-adv-x="658" 
d="M274 811h111l229 -406l-229 -405h-111l-231 405zM328 686l-152 -280l153 -279l154 278z" />
    <glyph glyph-name="uniFB00" unicode="&#xfb00;" horiz-adv-x="825" 
d="M119 403h-94v104h94v67q0 117 54.5 179t156.5 62q31 0 62 -6t52 -16l-13 -103q-18 7 -39 11t-41 4q-55 0 -80.5 -33.5t-25.5 -108.5v-56h142v-104h-142v-403h-126v403zM523 403h-94v104h94v67q0 117 54.5 179t156.5 62q31 0 62 -6t52 -16l-13 -103q-18 7 -39 11t-41 4
q-55 0 -80.5 -33.5t-25.5 -108.5v-56h142v-104h-142v-403h-126v403z" />
    <glyph glyph-name="uniFB01" unicode="&#xfb01;" horiz-adv-x="689" 
d="M119 403h-94v104h94v67q0 117 53.5 179t153.5 62q57 0 96 -17l-9 -104q-31 11 -66 11q-53 0 -77.5 -33.5t-24.5 -108.5v-56h142v-104h-142v-403h-126v403zM486 507h126v-507h-126v507zM548 770q33 0 54.5 -22t21.5 -54q0 -33 -21.5 -54.5t-54.5 -21.5t-55 21.5t-22 54.5
q0 32 22 54t55 22z" />
    <glyph glyph-name="uniFB02" unicode="&#xfb02;" horiz-adv-x="689" 
d="M119 403h-94v104h94v67q0 117 53.5 179t153.5 62q57 0 96 -17l-9 -104q-31 11 -66 11q-53 0 -77.5 -33.5t-24.5 -108.5v-56h142v-104h-142v-403h-126v403zM486 810h126v-810h-126v810z" />
    <glyph glyph-name="uniFB03" unicode="&#xfb03;" horiz-adv-x="1093" 
d="M119 403h-94v104h94v67q0 117 54.5 179t156.5 62q31 0 62 -6t52 -16l-13 -103q-18 7 -39 11t-41 4q-55 0 -80.5 -33.5t-25.5 -108.5v-56h142v-104h-142v-403h-126v403zM523 403h-94v104h94v67q0 117 53.5 179t153.5 62q57 0 96 -17l-9 -104q-31 11 -66 11
q-53 0 -77.5 -33.5t-24.5 -108.5v-56h142v-104h-142v-403h-126v403zM890 507h126v-507h-126v507zM952 770q33 0 54.5 -22t21.5 -54q0 -33 -21.5 -54.5t-54.5 -21.5t-55 21.5t-22 54.5q0 32 22 54t55 22z" />
    <glyph glyph-name="uniFB04" unicode="&#xfb04;" horiz-adv-x="1093" 
d="M119 403h-94v104h94v67q0 117 54.5 179t156.5 62q31 0 62 -6t52 -16l-13 -103q-18 7 -39 11t-41 4q-55 0 -80.5 -33.5t-25.5 -108.5v-56h142v-104h-142v-403h-126v403zM523 403h-94v104h94v67q0 117 53.5 179t153.5 62q57 0 96 -17l-9 -104q-31 11 -66 11
q-53 0 -77.5 -33.5t-24.5 -108.5v-56h142v-104h-142v-403h-126v403zM890 810h126v-810h-126v810z" />
    <glyph glyph-name="uniFEFF" unicode="&#xfeff;" 
 />
    <glyph glyph-name="zero.pnum" horiz-adv-x="634" 
d="M39 372q0 39 3.5 75t10.5 68q25 117 93 181t171 64q87 0 149.5 -46.5t96 -133.5t33.5 -208q0 -39 -4 -75t-11 -68q-25 -117 -93 -181t-171 -64q-87 0 -149.5 46.5t-95.5 133.5t-33 208zM458 372q0 134 -36 203.5t-105 69.5q-98 0 -128 -136q-13 -55 -13 -137
q0 -134 36 -203.5t105 -69.5q99 0 129 136q12 57 12 137z" />
    <glyph glyph-name="one.pnum" horiz-adv-x="504" 
d="M375 0h-129v611l-195 -87l-20 111l242 109h102v-744z" />
    <glyph glyph-name="two.pnum" horiz-adv-x="612" 
d="M353 248q-29 -32 -64.5 -67.5t-67.5 -65.5h311v-115h-479v101q67 63 111.5 108t78.5 85q51 60 80 102t41.5 75.5t12.5 65.5q0 52 -31 82t-84 30q-49 0 -96 -23t-83 -65l-24 112q41 41 99.5 64t122.5 23q105 0 167 -56t62 -150q0 -70 -36.5 -142t-120.5 -164z" />
    <glyph glyph-name="three.pnum" horiz-adv-x="596" 
d="M349 635h-299v109h447v-98l-195 -207q66 -2 114.5 -29.5t75.5 -75t27 -110.5q0 -111 -74 -175.5t-205 -64.5q-58 0 -111.5 13t-90.5 35l11 109q85 -49 186 -49q72 0 113 34.5t41 95.5q0 59 -39.5 92t-109.5 33q-17 0 -33.5 -1.5t-32.5 -6.5l-33 73z" />
    <glyph glyph-name="four.pnum" horiz-adv-x="637" 
d="M360 744h129v-467h94v-103h-94v-174h-121v174h-337v101zM368 589l-219 -312h219v312z" />
    <glyph glyph-name="five.pnum" horiz-adv-x="603" 
d="M93 744h394v-112h-282l-7 -171q41 7 69 7q82 0 141.5 -28.5t92.5 -81t33 -124.5q0 -76 -35 -132t-99 -87t-151 -31q-58 0 -114 13t-89 33l12 111q41 -22 89 -35t94 -13q75 0 118.5 37t43.5 101q0 62 -47 98.5t-129 36.5q-33 0 -75.5 -5.5t-73.5 -13.5z" />
    <glyph glyph-name="six.pnum" horiz-adv-x="622" 
d="M178.5 588.5q62.5 86.5 146.5 158.5l156 -6q-202 -170 -271 -328q50 50 132 50q65 0 116 -30.5t80.5 -83t29.5 -118.5q0 -72 -33.5 -127.5t-92.5 -87.5t-136 -32q-79 0 -137 32t-90 90t-32 136q0 82 34.5 171t97 175.5zM307 362q-58 0 -96.5 -38.5t-38.5 -97.5
t38.5 -97.5t96.5 -38.5t96 38.5t38 97.5q0 61 -37 98.5t-97 37.5z" />
    <glyph glyph-name="seven.pnum" horiz-adv-x="584" 
d="M254 -3l-135 6l275 620h-355v121h491v-108z" />
    <glyph glyph-name="eight.pnum" horiz-adv-x="627" 
d="M178.5 734q55.5 26 128.5 26t128 -25.5t86 -71t31 -105.5t-30.5 -104.5t-85.5 -64.5q63 -19 99.5 -69.5t36.5 -118.5q0 -65 -33.5 -114t-93.5 -76t-140 -27t-139.5 27t-92.5 76t-33 114q0 67 36 117.5t99 70.5q-55 20 -85 64.5t-30 103.5q0 60 31.5 105.5t87 71.5z
M405 302q-37 34 -99 34q-61 0 -98.5 -34t-37.5 -90q0 -55 37.5 -89.5t98.5 -34.5q62 0 99 34.5t37 89.5q0 56 -37 90zM395.5 630q-33.5 31 -89.5 31q-55 0 -89 -31t-34 -83q0 -51 34 -82t89 -31q56 0 89.5 31t33.5 82q0 52 -33.5 83z" />
    <glyph glyph-name="nine.pnum" horiz-adv-x="622" 
d="M125 3q201 168 272 330q-48 -52 -133 -52q-64 0 -115.5 30.5t-81 83t-29.5 118.5q0 72 33.5 128t93 87.5t135.5 31.5q79 0 137 -32t90 -89.5t32 -136.5q0 -81 -34.5 -170.5t-96.5 -176t-147 -158.5zM165 518q0 -61 37 -98.5t97 -37.5q59 0 97 39t38 97q0 60 -38 98
t-97 38q-58 0 -96 -38t-38 -98z" />
    <glyph glyph-name="zero.dnom" horiz-adv-x="389" 
d="M20 204q0 34 6 64q14 71 58 110.5t110 39.5q81 0 128 -57.5t47 -156.5q0 -34 -6 -64q-13 -70 -57.5 -110t-111.5 -40q-80 0 -127 57.5t-47 156.5zM264 144q6 26 6 60q0 64 -19.5 97.5t-56.5 33.5q-54 0 -69 -71q-4 -13 -5 -28t-1 -32q0 -64 19.5 -97.5t55.5 -33.5
q53 0 70 71z" />
    <glyph glyph-name="one.dnom" horiz-adv-x="389" 
d="M277 0h-97v311l-108 -49l-14 85l135 61h84v-408z" />
    <glyph glyph-name="two.dnom" horiz-adv-x="389" 
d="M226 129q-14 -13 -27.5 -24.5t-27.5 -22.5h170v-82h-296v81q29 20 60 47t54 49q40 38 56 63t16 49q0 22 -16.5 35t-44.5 13q-52 0 -105 -50l-17 78q23 24 60.5 38.5t77.5 14.5q63 0 102 -33t39 -86q0 -81 -101 -170z" />
    <glyph glyph-name="three.dnom" horiz-adv-x="389" 
d="M217 330h-163v78h267v-74l-98 -91q52 -6 82.5 -38t30.5 -79q0 -61 -47 -98.5t-126 -37.5q-75 0 -119 27l8 77q23 -13 52 -20t56 -7q38 0 59.5 16.5t21.5 44.5q0 25 -20 39t-55 14q-22 0 -39 -5l-22 49z" />
    <glyph glyph-name="four.dnom" horiz-adv-x="389" 
d="M307 160h49v-73h-49v-87h-86v87h-196v74l185 247h97v-248zM221 160v148l-111 -148h111z" />
    <glyph glyph-name="five.dnom" horiz-adv-x="389" 
d="M77 408h242v-79h-161l-2 -71q16 2 31 2q74 0 116 -34.5t42 -94.5q0 -66 -46.5 -103.5t-126.5 -37.5q-36 0 -70 7.5t-51 19.5l8 79q44 -28 107 -28q84 0 84 61q0 58 -84 58q-26 0 -50.5 -2.5t-46.5 -7.5z" />
    <glyph glyph-name="six.dnom" horiz-adv-x="389" 
d="M190 410l115 -3q-44 -34 -84 -76t-65 -83q26 19 62 19q39 0 70 -17.5t48.5 -47t17.5 -67.5q0 -64 -45 -104.5t-116 -40.5q-70 0 -114.5 41.5t-44.5 108.5q0 65 42.5 138t113.5 132zM194 197q-31 0 -50.5 -18.5t-19.5 -47.5q0 -28 19.5 -46.5t50.5 -18.5q30 0 49.5 18.5
t19.5 46.5q0 29 -19.5 47.5t-49.5 18.5z" />
    <glyph glyph-name="seven.dnom" horiz-adv-x="389" 
d="M183 -2l-101 3l157 321h-193v86h295v-79z" />
    <glyph glyph-name="eight.dnom" horiz-adv-x="389" 
d="M302 386q41 -32 41 -84q0 -61 -56 -88q32 -13 50.5 -39.5t18.5 -59.5q0 -58 -43.5 -91.5t-118.5 -33.5q-74 0 -117.5 33.5t-43.5 91.5q0 33 18.5 59.5t50.5 39.5q-56 27 -56 88q0 52 41.5 84t106.5 32q67 0 108 -32zM144.5 78q18.5 -16 49.5 -16q32 0 50.5 16t18.5 42
t-18.5 41.5t-50.5 15.5q-31 0 -49.5 -15.5t-18.5 -41.5t18.5 -42zM151 258q16 -14 43 -14q28 0 44.5 14t16.5 38t-16.5 38t-44.5 14q-27 0 -43 -14t-16 -38t16 -38z" />
    <glyph glyph-name="nine.dnom" horiz-adv-x="389" 
d="M198 -2l-115 3q45 34 85 76t64 82q-26 -18 -62 -18q-39 0 -69.5 17.5t-48.5 47.5t-18 67q0 65 45 105t116 40t115 -41.5t44 -108.5q0 -65 -42.5 -138t-113.5 -132zM144.5 324q-19.5 -18 -19.5 -47q0 -28 19.5 -47t49.5 -19q32 0 51.5 18.5t19.5 47.5t-19.5 47t-51.5 18
q-30 0 -49.5 -18z" />
    <glyph glyph-name="zero.numr" horiz-adv-x="389" 
d="M20 540q0 34 6 64q14 71 58 110.5t110 39.5q81 0 128 -57.5t47 -156.5q0 -34 -6 -64q-13 -70 -57.5 -110t-111.5 -40q-80 0 -127 57.5t-47 156.5zM264 480q6 26 6 60q0 64 -19.5 97.5t-56.5 33.5q-54 0 -69 -71q-4 -13 -5 -28t-1 -32q0 -64 19.5 -97.5t55.5 -33.5
q53 0 70 71z" />
    <glyph glyph-name="one.numr" horiz-adv-x="389" 
d="M277 336h-97v311l-108 -49l-14 85l135 61h84v-408z" />
    <glyph glyph-name="two.numr" horiz-adv-x="389" 
d="M226 465q-14 -13 -27.5 -24.5t-27.5 -22.5h170v-82h-296v81q29 20 60 47t54 49q40 38 56 63t16 49q0 22 -16.5 35t-44.5 13q-52 0 -105 -50l-17 78q23 24 60.5 38.5t77.5 14.5q63 0 102 -33t39 -86q0 -81 -101 -170z" />
    <glyph glyph-name="three.numr" horiz-adv-x="389" 
d="M217 666h-163v78h267v-74l-98 -91q52 -6 82.5 -38t30.5 -79q0 -61 -47 -98.5t-126 -37.5q-75 0 -119 27l8 77q23 -13 52 -20t56 -7q38 0 59.5 16.5t21.5 44.5q0 25 -20 39t-55 14q-22 0 -39 -5l-22 49z" />
    <glyph glyph-name="four.numr" horiz-adv-x="389" 
d="M307 496h49v-73h-49v-87h-86v87h-196v74l185 247h97v-248zM221 496v148l-111 -148h111z" />
    <glyph glyph-name="five.numr" horiz-adv-x="389" 
d="M77 744h242v-79h-161l-2 -71q16 2 31 2q74 0 116 -34.5t42 -94.5q0 -66 -46.5 -103.5t-126.5 -37.5q-36 0 -70 7.5t-51 19.5l8 79q44 -28 107 -28q84 0 84 61q0 58 -84 58q-26 0 -50.5 -2.5t-46.5 -7.5z" />
    <glyph glyph-name="six.numr" horiz-adv-x="389" 
d="M190 746l115 -3q-44 -34 -84 -76t-65 -83q26 19 62 19q39 0 70 -17.5t48.5 -47t17.5 -67.5q0 -64 -45 -104.5t-116 -40.5q-70 0 -114.5 41.5t-44.5 108.5q0 65 42.5 138t113.5 132zM194 533q-31 0 -50.5 -18.5t-19.5 -47.5q0 -28 19.5 -46.5t50.5 -18.5q30 0 49.5 18.5
t19.5 46.5q0 29 -19.5 47.5t-49.5 18.5z" />
    <glyph glyph-name="seven.numr" horiz-adv-x="389" 
d="M183 334l-101 3l157 321h-193v86h295v-79z" />
    <glyph glyph-name="eight.numr" horiz-adv-x="389" 
d="M302 722q41 -32 41 -84q0 -61 -56 -88q32 -13 50.5 -39.5t18.5 -59.5q0 -58 -43.5 -91.5t-118.5 -33.5q-74 0 -117.5 33.5t-43.5 91.5q0 33 18.5 59.5t50.5 39.5q-56 27 -56 88q0 52 41.5 84t106.5 32q67 0 108 -32zM144.5 414q18.5 -16 49.5 -16q32 0 50.5 16t18.5 42
t-18.5 41.5t-50.5 15.5q-31 0 -49.5 -15.5t-18.5 -41.5t18.5 -42zM151 594q16 -14 43 -14q28 0 44.5 14t16.5 38t-16.5 38t-44.5 14q-27 0 -43 -14t-16 -38t16 -38z" />
    <glyph glyph-name="nine.numr" horiz-adv-x="389" 
d="M198 334l-115 3q45 34 85 76t64 82q-26 -18 -62 -18q-39 0 -69.5 17.5t-48.5 47.5t-18 67q0 65 45 105t116 40t115 -41.5t44 -108.5q0 -65 -42.5 -138t-113.5 -132zM144.5 660q-19.5 -18 -19.5 -47q0 -28 19.5 -47t49.5 -19q32 0 51.5 18.5t19.5 47.5t-19.5 47t-51.5 18
q-30 0 -49.5 -18z" />
    <glyph glyph-name="zero.percent" horiz-adv-x="499" 
d="M250 -12q-55 0 -99.5 25.5t-70 68.5t-25.5 98t25.5 98.5t70 68.5t99.5 25t99 -25t69.5 -68.5t25.5 -98.5t-25.5 -98t-69.5 -68.5t-99 -25.5zM319 255q-26 28 -69 28t-69.5 -28t-26.5 -75q0 -46 26.5 -74.5t69.5 -28.5t69 28.5t26 74.5q0 47 -26 75z" />
    <glyph glyph-name="twosevenths" horiz-adv-x="954" 
d="M690 744h112l-535 -744h-112zM748 -2l-101 3l157 321h-193v86h295v-79zM226 465q-14 -13 -27.5 -24.5t-27.5 -22.5h170v-82h-296v81q29 20 60 47t54 49q40 38 56 63t16 49q0 22 -16.5 35t-44.5 13q-52 0 -105 -50l-17 78q23 24 60.5 38.5t77.5 14.5q63 0 102 -33t39 -86
q0 -81 -101 -170z" />
    <glyph glyph-name="threesevenths" horiz-adv-x="954" 
d="M661 744h112l-535 -744h-112zM748 -2l-101 3l157 321h-193v86h295v-79zM217 666h-163v78h267v-74l-98 -91q52 -6 82.5 -38t30.5 -79q0 -61 -47 -98.5t-126 -37.5q-75 0 -119 27l8 77q23 -13 52 -20t56 -7q38 0 59.5 16.5t21.5 44.5q0 25 -20 39t-55 14q-22 0 -39 -5
l-22 49z" />
    <glyph glyph-name="foursevenths" horiz-adv-x="954" 
d="M674 744h112l-535 -744h-112zM748 -2l-101 3l157 321h-193v86h295v-79zM307 496h49v-73h-49v-87h-86v87h-196v74l185 247h97v-248zM221 496v148l-111 -148h111z" />
    <glyph glyph-name="fivesevenths" horiz-adv-x="954" 
d="M670 744h112l-535 -744h-112zM748 -2l-101 3l157 321h-193v86h295v-79zM77 744h242v-79h-161l-2 -71q16 2 31 2q74 0 116 -34.5t42 -94.5q0 -66 -46.5 -103.5t-126.5 -37.5q-36 0 -70 7.5t-51 19.5l8 79q44 -28 107 -28q84 0 84 61q0 58 -84 58q-26 0 -50.5 -2.5
t-46.5 -7.5z" />
    <glyph glyph-name="sixsevenths" horiz-adv-x="954" 
d="M666 744h112l-535 -744h-112zM748 -2l-101 3l157 321h-193v86h295v-79zM190 746l115 -3q-44 -34 -84 -76t-65 -83q26 19 62 19q39 0 70 -17.5t48.5 -47t17.5 -67.5q0 -64 -45 -104.5t-116 -40.5q-70 0 -114.5 41.5t-44.5 108.5q0 65 42.5 138t113.5 132zM194 533
q-31 0 -50.5 -18.5t-19.5 -47.5q0 -28 19.5 -46.5t50.5 -18.5q30 0 49.5 18.5t19.5 46.5q0 29 -19.5 47.5t-49.5 18.5z" />
    <glyph glyph-name="twoninths" horiz-adv-x="954" 
d="M704 744h112l-535 -744h-112zM763 -2l-115 3q45 34 85 76t64 82q-26 -18 -62 -18q-39 0 -69.5 17.5t-48.5 47.5t-18 67q0 65 45 105t116 40t115 -41.5t44 -108.5q0 -65 -42.5 -138t-113.5 -132zM709.5 324q-19.5 -18 -19.5 -47q0 -28 19.5 -47t49.5 -19q32 0 51.5 18.5
t19.5 47.5t-19.5 47t-51.5 18q-30 0 -49.5 -18zM226 465q-14 -13 -27.5 -24.5t-27.5 -22.5h170v-82h-296v81q29 20 60 47t54 49q40 38 56 63t16 49q0 22 -16.5 35t-44.5 13q-52 0 -105 -50l-17 78q23 24 60.5 38.5t77.5 14.5q63 0 102 -33t39 -86q0 -81 -101 -170z" />
    <glyph glyph-name="fourninths" horiz-adv-x="954" 
d="M701 744h112l-535 -744h-112zM763 -2l-115 3q45 34 85 76t64 82q-26 -18 -62 -18q-39 0 -69.5 17.5t-48.5 47.5t-18 67q0 65 45 105t116 40t115 -41.5t44 -108.5q0 -65 -42.5 -138t-113.5 -132zM709.5 324q-19.5 -18 -19.5 -47q0 -28 19.5 -47t49.5 -19q32 0 51.5 18.5
t19.5 47.5t-19.5 47t-51.5 18q-30 0 -49.5 -18zM307 496h49v-73h-49v-87h-86v87h-196v74l185 247h97v-248zM221 496v148l-111 -148h111z" />
    <glyph glyph-name="fiveninths" horiz-adv-x="954" 
d="M686 744h112l-535 -744h-112zM763 -2l-115 3q45 34 85 76t64 82q-26 -18 -62 -18q-39 0 -69.5 17.5t-48.5 47.5t-18 67q0 65 45 105t116 40t115 -41.5t44 -108.5q0 -65 -42.5 -138t-113.5 -132zM709.5 324q-19.5 -18 -19.5 -47q0 -28 19.5 -47t49.5 -19q32 0 51.5 18.5
t19.5 47.5t-19.5 47t-51.5 18q-30 0 -49.5 -18zM77 744h242v-79h-161l-2 -71q16 2 31 2q74 0 116 -34.5t42 -94.5q0 -66 -46.5 -103.5t-126.5 -37.5q-36 0 -70 7.5t-51 19.5l8 79q44 -28 107 -28q84 0 84 61q0 58 -84 58q-26 0 -50.5 -2.5t-46.5 -7.5z" />
    <glyph glyph-name="sevenninths" horiz-adv-x="954" 
d="M639 744h112l-535 -744h-112zM763 -2l-115 3q45 34 85 76t64 82q-26 -18 -62 -18q-39 0 -69.5 17.5t-48.5 47.5t-18 67q0 65 45 105t116 40t115 -41.5t44 -108.5q0 -65 -42.5 -138t-113.5 -132zM709.5 324q-19.5 -18 -19.5 -47q0 -28 19.5 -47t49.5 -19q32 0 51.5 18.5
t19.5 47.5t-19.5 47t-51.5 18q-30 0 -49.5 -18zM183 334l-101 3l157 321h-193v86h295v-79z" />
    <glyph glyph-name="eightninths" horiz-adv-x="954" 
d="M690 744h112l-535 -744h-112zM763 -2l-115 3q45 34 85 76t64 82q-26 -18 -62 -18q-39 0 -69.5 17.5t-48.5 47.5t-18 67q0 65 45 105t116 40t115 -41.5t44 -108.5q0 -65 -42.5 -138t-113.5 -132zM709.5 324q-19.5 -18 -19.5 -47q0 -28 19.5 -47t49.5 -19q32 0 51.5 18.5
t19.5 47.5t-19.5 47t-51.5 18q-30 0 -49.5 -18zM302 722q41 -32 41 -84q0 -61 -56 -88q32 -13 50.5 -39.5t18.5 -59.5q0 -58 -43.5 -91.5t-118.5 -33.5q-74 0 -117.5 33.5t-43.5 91.5q0 33 18.5 59.5t50.5 39.5q-56 27 -56 88q0 52 41.5 84t106.5 32q67 0 108 -32z
M144.5 414q18.5 -16 49.5 -16q32 0 50.5 16t18.5 42t-18.5 41.5t-50.5 15.5q-31 0 -49.5 -15.5t-18.5 -41.5t18.5 -42zM151 594q16 -14 43 -14q28 0 44.5 14t16.5 38t-16.5 38t-44.5 14q-27 0 -43 -14t-16 -38t16 -38z" />
    <glyph glyph-name="hyphen.case" horiz-adv-x="433" 
d="M64 435h305v-111h-305v111z" />
    <glyph glyph-name="endash.case" horiz-adv-x="500" 
d="M0 430h500v-100h-500v100z" />
    <glyph glyph-name="emdash.case" horiz-adv-x="1000" 
d="M0 430h1000v-100h-1000v100z" />
    <glyph glyph-name="parenleft.case" horiz-adv-x="418" 
d="M198 416q0 -141 54.5 -264t154.5 -212h-140q-57 52 -99.5 128t-66 165.5t-23.5 182.5q0 94 23.5 184t66 166t99.5 127h140q-100 -89 -154.5 -212.5t-54.5 -264.5z" />
    <glyph glyph-name="parenright.case" horiz-adv-x="418" 
d="M11 893h140q58 -52 100 -128t65.5 -165.5t23.5 -182.5t-23.5 -183t-65.5 -166t-100 -128h-140q101 89 155 212t54 265q0 140 -54 264t-155 212z" />
    <glyph glyph-name="slash.case" horiz-adv-x="537" 
d="M403 851h123l-392 -943h-122z" />
    <glyph glyph-name="backslash.case" horiz-adv-x="537" 
d="M12 851h122l392 -943h-123z" />
    <glyph glyph-name="bracketleft.case" horiz-adv-x="417" 
d="M109 892h270v-103h-153v-747h153v-103h-270v953z" />
    <glyph glyph-name="bracketright.case" horiz-adv-x="417" 
d="M309 -61h-270v103h152v747h-152v103h270v-953z" />
    <glyph glyph-name="braceleft.case" horiz-adv-x="438" 
d="M47 465h27q51 0 70.5 17t19.5 61q0 35 -7 68t-14 64.5t-7 61.5q0 81 48 119.5t148 38.5q14 0 30.5 -0.5t28.5 -2.5v-99q-7 1 -16 1h-30q-92 0 -92 -75q0 -24 7 -55t13.5 -65.5t6.5 -68.5q0 -42 -20.5 -73t-57.5 -45q37 -13 57.5 -43.5t20.5 -73.5q0 -34 -6.5 -68.5
t-13.5 -65.5t-7 -55q0 -75 92 -75h30t16 1v-99q-12 -1 -28.5 -2t-30.5 -1q-100 0 -148 38.5t-48 119.5q0 30 7 61.5t14 65t7 67.5q0 44 -19.5 61t-70.5 17h-27v105z" />
    <glyph glyph-name="braceright.case" horiz-adv-x="438" 
d="M391 360h-27q-51 0 -70.5 -17t-19.5 -61q0 -34 7 -67.5t14 -65t7 -61.5q0 -81 -47.5 -119.5t-148.5 -38.5q-14 0 -30.5 1t-28.5 2v99q9 -1 45 -1q93 0 93 75q0 24 -7 55t-14 65.5t-7 68.5q0 42 21 73t58 45q-37 13 -58 43.5t-21 73.5q0 34 7 68.5t14 65.5t7 55
q0 75 -93 75h-28.5t-16.5 -1v99q12 2 28.5 2.5t30.5 0.5q101 0 148.5 -38.5t47.5 -119.5q0 -30 -7 -61.5t-14 -64.5t-7 -68q0 -44 19.5 -61t70.5 -17h27v-105z" />
    <glyph glyph-name="bullet.case" horiz-adv-x="354" 
d="M48 327q0 36 17.5 65t47 46.5t64.5 17.5q36 0 65 -17.5t46.5 -46.5t17.5 -65q0 -35 -17.5 -64.5t-46.5 -46.5t-65 -17q-35 0 -64.5 17t-47 46.5t-17.5 64.5z" />
    <glyph glyph-name="guilsinglleft.case" horiz-adv-x="353" 
d="M30 380l148 218h138l-151 -218l151 -218h-138z" />
    <glyph glyph-name="guilsinglright.case" horiz-adv-x="353" 
d="M188 380l-151 218h138l148 -218l-148 -218h-138z" />
    <glyph glyph-name="guillemotleft.case" horiz-adv-x="592" 
d="M30 380l148 218h138l-151 -218l151 -218h-138zM269 380l148 218h138l-151 -218l151 -218h-138z" />
    <glyph glyph-name="guillemotright.case" horiz-adv-x="592" 
d="M188 380l-151 218h138l148 -218l-148 -218h-138zM427 380l-151 218h138l148 -218l-148 -218h-138z" />
    <glyph glyph-name="at.case" horiz-adv-x="1019" 
d="M497 -79q-135 0 -236 52.5t-157 146.5t-56 220q0 103 39 191.5t108 155t161.5 103.5t200.5 37q124 0 217.5 -48.5t146.5 -134.5t53 -199q0 -87 -31 -155t-84.5 -107t-123.5 -39q-53 0 -88 21t-46 60q-23 -37 -62 -58.5t-83 -21.5q-52 0 -92 25t-62 70.5t-22 104.5
q0 70 29 127t78 90.5t109 33.5q46 0 82 -22.5t52 -60.5l14 67h101l-44 -260q-3 -22 -3 -35q0 -55 50 -55q36 0 64.5 28t45.5 75t17 105q0 92 -39.5 158.5t-112 102.5t-172.5 36q-87 0 -161 -29.5t-128 -82.5t-84 -124.5t-30 -156.5q0 -101 43 -175t122 -114t188 -40
q59 0 115.5 12.5t108.5 35.5l9 -92q-111 -48 -237 -48zM583.5 469q-25.5 29 -73.5 29q-54 0 -87.5 -40t-33.5 -103q0 -54 25.5 -83t73.5 -29q54 0 87.5 39.5t33.5 103.5q0 54 -25.5 83z" />
    <glyph glyph-name="periodcentered.case" horiz-adv-x="297" 
d="M68 399q0 34 22.5 56t57.5 22t58 -22t23 -56t-23 -56t-58 -22t-57.5 22t-22.5 56z" />
    <glyph glyph-name="M" horiz-adv-x="989" 
d="M94 760h151l253 -473l252 473h144v-760h-130v566l-214 -398h-112l-213 398v-566h-131v760z" />
    <glyph glyph-name="j" horiz-adv-x="281" 
d="M78 507h126v-752h-126v752zM140 770q33 0 54.5 -22t21.5 -54q0 -33 -21.5 -54.5t-54.5 -21.5t-55 21.5t-22 54.5q0 32 22 54t55 22z" />
    <glyph glyph-name="t" horiz-adv-x="410" 
d="M126 403h-103v104h103v139h126v-139h125v-104h-125v-403h-126v403z" />
    <glyph glyph-name="u" horiz-adv-x="607" 
d="M74 507h126v-298q0 -113 105 -113q102 0 102 113v298h126v-300q0 -107 -59.5 -165t-169.5 -58q-111 0 -170.5 58t-59.5 165v300z" />
    <glyph glyph-name="a.alt" horiz-adv-x="570" 
d="M497 0h-110l-2 72q-20 -41 -65 -64.5t-101 -23.5q-79 0 -126.5 43.5t-47.5 115.5q0 77 56 123t150 46q70 0 131 -24v2q0 133 -135 133q-86 0 -161 -51l-10 99q33 24 83.5 38t101.5 14q115 0 175.5 -58.5t60.5 -167.5v-297zM382 210q-49 22 -111 22q-53 0 -81.5 -21
t-28.5 -60q0 -36 24 -56t66 -20q62 0 95 35.5t36 99.5z" />
    <glyph glyph-name="g.alt" horiz-adv-x="585" 
d="M137 202q-37 22 -58.5 58t-21.5 84q0 54 28 94.5t78 62.5t116 22q62 0 114 -24l172 11v-89l-87 7q27 -41 27 -90q0 -52 -27.5 -91t-77 -60.5t-115.5 -21.5q-42 0 -78 9q-41 -18 -41 -48q0 -23 21.5 -32t76.5 -9h38q240 0 240 -161q0 -84 -71.5 -131t-199.5 -47
q-116 0 -180 38.5t-64 108.5q0 43 27 76.5t73 47.5q-34 10 -52.5 33t-18.5 53q0 31 21.5 57t59.5 42zM269 -12q-132 0 -132 -75q0 -35 38.5 -55t107.5 -20t107 21t38 58t-32.5 54t-103.5 17h-23zM201.5 412q-29.5 -25 -29.5 -69q0 -43 29.5 -68t79.5 -25t79.5 25t29.5 68
q0 44 -29.5 69t-79.5 25t-79.5 -25z" />
    <glyph glyph-name="y.alt" horiz-adv-x="583" 
d="M342 -29q-38 -90 -73 -138.5t-73 -67.5t-87 -19q-25 0 -51.5 5.5t-42.5 15.5l15 107q14 -8 32 -12.5t35 -4.5q41 0 66.5 27t55.5 95l15 37l-217 491h135l149 -371l133 371h132z" />
    <glyph glyph-name="periodcentered.loclCAT" horiz-adv-x="297" 
d="M68 379q0 34 22.5 56t57.5 22t58 -22t23 -56t-23 -56t-58 -22t-57.5 22t-22.5 56z" />
    <glyph glyph-name="periodcentered.loclCAT.cap" horiz-adv-x="297" 
d="M68 408q0 34 22.5 56t57.5 22t58 -22t23 -56t-23 -56t-58 -22t-57.5 22t-22.5 56z" />
    <glyph glyph-name="uni0307.i" 
d="M0 770q33 0 54.5 -22t21.5 -54q0 -33 -21.5 -54.5t-54.5 -21.5t-55 21.5t-22 54.5q0 32 22 54t55 22z" />
    <glyph glyph-name="uni0237" horiz-adv-x="281" 
d="M78 507h126v-752h-126v752z" />
    <glyph glyph-name="dotlessij" horiz-adv-x="562" 
d="M359 507h126v-752h-126v752zM78 507h126v-507h-126v507z" />
    <glyph glyph-name="dotlessij.alt" horiz-adv-x="562" 
d="M485 -41q0 -213 -196 -213q-33 0 -65 7t-51 17l13 104q21 -9 42.5 -14t43.5 -5q44 0 65.5 26.5t21.5 82.5v543h126v-548zM78 507h126v-507h-126v507z" />
    <glyph glyph-name="f.short" horiz-adv-x="399" 
d="M119 403h-94v104h94v67q0 117 53.5 179t153.5 62q57 0 96 -17l-9 -104q-31 11 -66 11q-53 0 -77.5 -33.5t-24.5 -108.5v-56h142v-104h-142v-403h-126v403z" />
    <glyph glyph-name="ij" horiz-adv-x="562" 
d="M78 507h126v-507h-126v507zM140 770q33 0 54.5 -22t21.5 -54q0 -33 -21.5 -54.5t-54.5 -21.5t-55 21.5t-22 54.5q0 32 22 54t55 22zM359 507h126v-752h-126v752zM421 770q33 0 54.5 -22t21.5 -54q0 -33 -21.5 -54.5t-54.5 -21.5t-55 21.5t-22 54.5q0 32 22 54t55 22z" />
    <glyph glyph-name="ae.alt" horiz-adv-x="924" 
d="M229 -16q-85 0 -134.5 43t-49.5 116q0 77 56 123t150 46q70 0 131 -24v2q0 133 -135 133q-86 0 -161 -51l-10 99q33 24 83 38t102 14q70 0 118.5 -25t68.5 -71q26 45 75 70.5t109 25.5q72 0 125 -31t82 -87.5t29 -132.5q0 -25 -3 -51h-368q9 -69 55 -102.5t124 -33.5
q44 0 88 10t82 28l13 -96q-37 -20 -89 -31.5t-105 -11.5q-85 0 -147.5 29.5t-95.5 84.5q-23 -54 -74 -84t-119 -30zM271 232q-53 0 -81.5 -21t-28.5 -60q0 -36 24 -56t66 -20q61 0 94.5 35t36.5 100q-49 22 -111 22zM749 301q0 10 -2 20q-7 52 -38.5 80t-81.5 28
q-54 0 -88 -33.5t-42 -94.5h252z" />
    <glyph glyph-name="tbar" horiz-adv-x="410" 
d="M126 199h-86v85h86v119h-103v104h103v139h126v-139h125v-104h-125v-119h108v-85h-108v-199h-126v199z" />
    <glyph glyph-name="uni0327.cap" 
d="M-38 10h79l-21 -70q45 -2 73.5 -27.5t28.5 -65.5q0 -51 -39.5 -79t-110.5 -28q-24 0 -50.5 5.5t-39.5 12.5l15 73q28 -14 68 -14q55 0 55 34q0 32 -57 32q-22 0 -36 -2z" />
    <glyph glyph-name="uni0326.cap" 
d="M-59 -64h120q-1 -31 -10.5 -65.5t-24.5 -65.5t-33 -52h-95q20 37 31 85.5t12 97.5z" />
    <glyph glyph-name="uni0328.cap" 
d="M23 34l46 -34q-95 -69 -95 -127q0 -35 41 -35q28 0 51 13l10 -88q-15 -10 -38 -15t-48 -5q-57 0 -88.5 26.5t-31.5 73.5q0 50 40 100.5t113 90.5z" />
    <glyph glyph-name="uni0328.round" 
d="M61 31l56 -4q-61 -42 -93.5 -81t-32.5 -72q0 -38 43 -38q30 0 53 13l9 -86q-14 -10 -36.5 -15t-48.5 -5q-58 0 -89.5 26.5t-31.5 72.5q0 57 46 108t125 81z" />
    <glyph glyph-name="uni0328.round.cap" 
d="M102 -237q-14 -9 -39.5 -14.5t-51.5 -5.5q-57 0 -89.5 26.5t-32.5 72.5q0 38 22 76t61 70.5t89 52.5l57 -8q-60 -40 -92.5 -81t-32.5 -76q0 -38 45 -38q28 0 54 13z" />
    <glyph glyph-name="uni0163" horiz-adv-x="410" 
d="M126 403h-103v104h103v139h126v-139h125v-104h-125v-403h-126v403zM149 10h75l-21 -71q46 -1 74 -26.5t28 -66.5q0 -49 -38.5 -77.5t-104.5 -28.5q-25 0 -53 5.5t-41 12.5l15 70q14 -6 32 -10t37 -4q57 0 57 37q0 35 -59 35q-24 0 -36 -3z" />
    <glyph glyph-name="uni021B" horiz-adv-x="410" 
d="M126 403h-103v104h103v139h126v-139h125v-104h-125v-403h-126v403zM135 -64h118q-1 -31 -10.5 -65.5t-24.5 -65.5t-33 -52h-93q20 37 31 85.5t12 97.5z" />
    <glyph glyph-name="uogonek" horiz-adv-x="607" 
d="M74 507h126v-298q0 -113 105 -113q102 0 102 113v298h126v-300q0 -107 -59.5 -165t-169.5 -58q-111 0 -170.5 58t-59.5 165v300zM399 31l56 -4q-61 -42 -93.5 -81t-32.5 -72q0 -38 43 -38q30 0 53 13l9 -86q-14 -10 -36.5 -15t-48.5 -5q-58 0 -89.5 26.5t-31.5 72.5
q0 57 46 108t125 81z" />
    <glyph glyph-name="uni0123.alt" horiz-adv-x="585" 
d="M137 202q-37 22 -58.5 58t-21.5 84q0 54 28 94.5t78 62.5t116 22q62 0 114 -24l172 11v-89l-87 7q27 -41 27 -90q0 -52 -27.5 -91t-77 -60.5t-115.5 -21.5q-42 0 -78 9q-41 -18 -41 -48q0 -23 21.5 -32t76.5 -9h38q240 0 240 -161q0 -84 -71.5 -131t-199.5 -47
q-116 0 -180 38.5t-64 108.5q0 43 27 76.5t73 47.5q-34 10 -52.5 33t-18.5 53q0 31 21.5 57t59.5 42zM269 -12q-132 0 -132 -75q0 -35 38.5 -55t107.5 -20t107 21t38 58t-32.5 54t-103.5 17h-23zM201.5 412q-29.5 -25 -29.5 -69q0 -43 29.5 -68t79.5 -25t79.5 25t29.5 68
q0 44 -29.5 69t-79.5 25t-79.5 -25zM294 781h90q-19 -36 -29 -77t-11 -94h-118q2 46 20 91.5t48 79.5z" />
    <glyph glyph-name="aogonek.alt" horiz-adv-x="570" 
d="M497 0h-110l-2 72q-20 -41 -65 -64.5t-101 -23.5q-79 0 -126.5 43.5t-47.5 115.5q0 77 56 123t150 46q70 0 131 -24v2q0 133 -135 133q-86 0 -161 -51l-10 99q33 24 83.5 38t101.5 14q115 0 175.5 -58.5t60.5 -167.5v-297zM382 210q-49 22 -111 22q-53 0 -81.5 -21
t-28.5 -60q0 -36 24 -56t66 -20q62 0 95 35.5t36 99.5zM452 34l46 -34q-97 -69 -97 -127q0 -37 43 -37q29 0 52 13l9 -86q-14 -10 -37 -15t-49 -5q-56 0 -88 26.5t-32 73.5q0 50 40 100.5t113 90.5z" />
    <glyph glyph-name="acutecomb.cap" 
d="M18 975h155l-147 -140h-122z" />
    <glyph glyph-name="uni030B.cap" 
d="M-93 974h142l-112 -139h-117zM111 974h142l-112 -139h-117z" />
    <glyph glyph-name="IJacute" horiz-adv-x="887" 
d="M797 263q0 -142 -62.5 -210.5t-193.5 -68.5q-49 0 -98.5 12t-81.5 31l13 112q69 -39 149 -39q74 0 105 39.5t31 133.5v487h138v-497zM94 760h138v-760h-138v760zM181 975h155l-147 -140h-122zM746 975h155l-147 -140h-122z" />
    <glyph glyph-name="ijacute" horiz-adv-x="562" 
d="M359 507h126v-752h-126v752zM78 507h126v-507h-126v507zM158 776h142l-138 -166h-110zM439 776h142l-138 -166h-110z" />
    <glyph glyph-name="uacute" horiz-adv-x="607" 
d="M74 507h126v-298q0 -113 105 -113q102 0 102 113v298h126v-300q0 -107 -59.5 -165t-169.5 -58q-111 0 -170.5 58t-59.5 165v300zM322 776h142l-138 -166h-110z" />
    <glyph glyph-name="uhungarumlaut" horiz-adv-x="607" 
d="M74 507h126v-298q0 -113 105 -113q102 0 102 113v298h126v-300q0 -107 -59.5 -165t-169.5 -58q-111 0 -170.5 58t-59.5 165v300zM231 776h129l-114 -166h-102zM418 776h128l-114 -166h-102z" />
    <glyph glyph-name="aacute.alt" horiz-adv-x="570" 
d="M497 0h-110l-2 72q-20 -41 -65 -64.5t-101 -23.5q-79 0 -126.5 43.5t-47.5 115.5q0 77 56 123t150 46q70 0 131 -24v2q0 133 -135 133q-86 0 -161 -51l-10 99q33 24 83.5 38t101.5 14q115 0 175.5 -58.5t60.5 -167.5v-297zM382 210q-49 22 -111 22q-53 0 -81.5 -21
t-28.5 -60q0 -36 24 -56t66 -20q62 0 95 35.5t36 99.5zM287 776h142l-138 -166h-110z" />
    <glyph glyph-name="ijacute.alt" horiz-adv-x="562" 
d="M485 -41q0 -213 -196 -213q-33 0 -65 7t-51 17l13 104q21 -9 42.5 -14t43.5 -5q44 0 65.5 26.5t21.5 82.5v543h126v-548zM78 507h126v-507h-126v507zM158 776h142l-138 -166h-110zM439 776h142l-138 -166h-110z" />
    <glyph glyph-name="yacute.alt" horiz-adv-x="583" 
d="M342 -29q-38 -90 -73 -138.5t-73 -67.5t-87 -19q-25 0 -51.5 5.5t-42.5 15.5l15 107q14 -8 32 -12.5t35 -4.5q41 0 66.5 27t55.5 95l15 37l-217 491h135l149 -371l133 371h132zM311 776h142l-138 -166h-110z" />
    <glyph glyph-name="gravecomb.cap" 
d="M-174 975h155l113 -140h-121z" />
    <glyph glyph-name="ugrave" horiz-adv-x="607" 
d="M74 507h126v-298q0 -113 105 -113q102 0 102 113v298h126v-300q0 -107 -59.5 -165t-169.5 -58q-111 0 -170.5 58t-59.5 165v300zM145 776h141l107 -166h-111z" />
    <glyph glyph-name="agrave.alt" horiz-adv-x="570" 
d="M497 0h-110l-2 72q-20 -41 -65 -64.5t-101 -23.5q-79 0 -126.5 43.5t-47.5 115.5q0 77 56 123t150 46q70 0 131 -24v2q0 133 -135 133q-86 0 -161 -51l-10 99q33 24 83.5 38t101.5 14q115 0 175.5 -58.5t60.5 -167.5v-297zM382 210q-49 22 -111 22q-53 0 -81.5 -21
t-28.5 -60q0 -36 24 -56t66 -20q62 0 95 35.5t36 99.5zM110 776h141l107 -166h-111z" />
    <glyph glyph-name="ygrave.alt" horiz-adv-x="583" 
d="M342 -29q-38 -90 -73 -138.5t-73 -67.5t-87 -19q-25 0 -51.5 5.5t-42.5 15.5l15 107q14 -8 32 -12.5t35 -4.5q41 0 66.5 27t55.5 95l15 37l-217 491h135l149 -371l133 371h132zM134 776h141l107 -166h-111z" />
    <glyph glyph-name="uni0302.cap" 
d="M-61 984h122l142 -149h-129l-74 80l-74 -80h-129z" />
    <glyph glyph-name="tildecomb.cap" 
d="M-75 986q27 0 47 -9.5t35.5 -21.5t28.5 -21.5t28 -9.5q33 0 33 60h86q0 -151 -108 -151q-27 0 -47 9t-35 21.5t-28 21.5t-28 9q-33 0 -33 -60h-87q0 152 108 152z" />
    <glyph glyph-name="ucircumflex" horiz-adv-x="607" 
d="M74 507h126v-298q0 -113 105 -113q102 0 102 113v298h126v-300q0 -107 -59.5 -165t-169.5 -58q-111 0 -170.5 58t-59.5 165v300zM250 776h108l138 -166h-114l-78 93l-78 -93h-114z" />
    <glyph glyph-name="utilde" horiz-adv-x="607" 
d="M74 507h126v-298q0 -113 105 -113q102 0 102 113v298h126v-300q0 -107 -59.5 -165t-169.5 -58q-111 0 -170.5 58t-59.5 165v300zM381 615q-28 0 -48 9.5t-35 22t-28.5 22t-28.5 9.5q-34 0 -34 -62h-85q0 74 27 112t78 38q28 0 48 -9.5t35.5 -21.5t29 -21.5t28.5 -9.5
q34 0 34 61h84q0 -150 -105 -150z" />
    <glyph glyph-name="acircumflex.alt" horiz-adv-x="570" 
d="M497 0h-110l-2 72q-20 -41 -65 -64.5t-101 -23.5q-79 0 -126.5 43.5t-47.5 115.5q0 77 56 123t150 46q70 0 131 -24v2q0 133 -135 133q-86 0 -161 -51l-10 99q33 24 83.5 38t101.5 14q115 0 175.5 -58.5t60.5 -167.5v-297zM382 210q-49 22 -111 22q-53 0 -81.5 -21
t-28.5 -60q0 -36 24 -56t66 -20q62 0 95 35.5t36 99.5zM215 776h108l138 -166h-114l-78 93l-78 -93h-114z" />
    <glyph glyph-name="ycircumflex.alt" horiz-adv-x="583" 
d="M342 -29q-38 -90 -73 -138.5t-73 -67.5t-87 -19q-25 0 -51.5 5.5t-42.5 15.5l15 107q14 -8 32 -12.5t35 -4.5q41 0 66.5 27t55.5 95l15 37l-217 491h135l149 -371l133 371h132zM239 776h108l138 -166h-114l-78 93l-78 -93h-114z" />
    <glyph glyph-name="atilde.alt" horiz-adv-x="570" 
d="M497 0h-110l-2 72q-20 -41 -65 -64.5t-101 -23.5q-79 0 -126.5 43.5t-47.5 115.5q0 77 56 123t150 46q70 0 131 -24v2q0 133 -135 133q-86 0 -161 -51l-10 99q33 24 83.5 38t101.5 14q115 0 175.5 -58.5t60.5 -167.5v-297zM382 210q-49 22 -111 22q-53 0 -81.5 -21
t-28.5 -60q0 -36 24 -56t66 -20q62 0 95 35.5t36 99.5zM346 615q-28 0 -48 9.5t-35 22t-28.5 22t-28.5 9.5q-34 0 -34 -62h-85q0 74 27 112t78 38q28 0 48 -9.5t35.5 -21.5t29 -21.5t28.5 -9.5q34 0 34 61h84q0 -150 -105 -150z" />
    <glyph glyph-name="uni030C.cap" 
d="M-203 984h129l74 -80l74 80h129l-142 -149h-122z" />
    <glyph glyph-name="uni0315.short" 
d="M-49 810h119l-50 -213h-81z" />
    <glyph glyph-name="uni0304.cap" 
d="M-161 942h322v-94h-322v94z" />
    <glyph glyph-name="tcaron" horiz-adv-x="410" 
d="M126 403h-103v104h103v139h126v-139h125v-104h-125v-403h-126v403zM332 810h119l-50 -213h-81z" />
    <glyph glyph-name="umacron" horiz-adv-x="607" 
d="M74 507h126v-298q0 -113 105 -113q102 0 102 113v298h126v-300q0 -107 -59.5 -165t-169.5 -58q-111 0 -170.5 58t-59.5 165v300zM145 729h318v-93h-318v93z" />
    <glyph glyph-name="amacron.alt" horiz-adv-x="570" 
d="M497 0h-110l-2 72q-20 -41 -65 -64.5t-101 -23.5q-79 0 -126.5 43.5t-47.5 115.5q0 77 56 123t150 46q70 0 131 -24v2q0 133 -135 133q-86 0 -161 -51l-10 99q33 24 83.5 38t101.5 14q115 0 175.5 -58.5t60.5 -167.5v-297zM382 210q-49 22 -111 22q-53 0 -81.5 -21
t-28.5 -60q0 -36 24 -56t66 -20q62 0 95 35.5t36 99.5zM110 729h318v-93h-318v93z" />
    <glyph glyph-name="uni0308.cap" 
d="M-108 967q31 0 50.5 -19t19.5 -49q0 -29 -19.5 -47.5t-50.5 -18.5q-30 0 -49.5 18.5t-19.5 47.5q0 30 19.5 49t49.5 19zM107 967q31 0 50.5 -19t19.5 -49q0 -29 -19.5 -47.5t-50.5 -18.5q-30 0 -49.5 18.5t-19.5 47.5q0 30 19.5 49t49.5 19z" />
    <glyph glyph-name="uni0306.cap" 
d="M-174 967q0 8 1 13h93v-8q0 -31 22 -50t58 -19t58 18.5t22 49.5v9h93q1 -5 1 -13q0 -67 -47 -106.5t-127 -39.5t-127 39.5t-47 106.5z" />
    <glyph glyph-name="udieresis" horiz-adv-x="607" 
d="M74 507h126v-298q0 -113 105 -113q102 0 102 113v298h126v-300q0 -107 -59.5 -165t-169.5 -58q-111 0 -170.5 58t-59.5 165v300zM198 754q30 0 49 -18.5t19 -47.5t-19 -47.5t-49 -18.5t-48.5 18t-18.5 48q0 29 19 47.5t48 18.5zM409 754q30 0 49 -18.5t19 -47.5
t-19 -47.5t-49 -18.5t-48.5 18t-18.5 48q0 29 19 47.5t48 18.5z" />
    <glyph glyph-name="adieresis.alt" horiz-adv-x="570" 
d="M497 0h-110l-2 72q-20 -41 -65 -64.5t-101 -23.5q-79 0 -126.5 43.5t-47.5 115.5q0 77 56 123t150 46q70 0 131 -24v2q0 133 -135 133q-86 0 -161 -51l-10 99q33 24 83.5 38t101.5 14q115 0 175.5 -58.5t60.5 -167.5v-297zM382 210q-49 22 -111 22q-53 0 -81.5 -21
t-28.5 -60q0 -36 24 -56t66 -20q62 0 95 35.5t36 99.5zM163 754q30 0 49 -18.5t19 -47.5t-19 -47.5t-49 -18.5t-48.5 18t-18.5 48q0 29 19 47.5t48 18.5zM374 754q30 0 49 -18.5t19 -47.5t-19 -47.5t-49 -18.5t-48.5 18t-18.5 48q0 29 19 47.5t48 18.5z" />
    <glyph glyph-name="ydieresis.alt" horiz-adv-x="583" 
d="M342 -29q-38 -90 -73 -138.5t-73 -67.5t-87 -19q-25 0 -51.5 5.5t-42.5 15.5l15 107q14 -8 32 -12.5t35 -4.5q41 0 66.5 27t55.5 95l15 37l-217 491h135l149 -371l133 371h132zM187 754q30 0 49 -18.5t19 -47.5t-19 -47.5t-49 -18.5t-48.5 18t-18.5 48q0 29 19 47.5
t48 18.5zM398 754q30 0 49 -18.5t19 -47.5t-19 -47.5t-49 -18.5t-48.5 18t-18.5 48q0 29 19 47.5t48 18.5z" />
    <glyph glyph-name="abreve.alt" horiz-adv-x="570" 
d="M497 0h-110l-2 72q-20 -41 -65 -64.5t-101 -23.5q-79 0 -126.5 43.5t-47.5 115.5q0 77 56 123t150 46q70 0 131 -24v2q0 133 -135 133q-86 0 -161 -51l-10 99q33 24 83.5 38t101.5 14q115 0 175.5 -58.5t60.5 -167.5v-297zM382 210q-49 22 -111 22q-53 0 -81.5 -21
t-28.5 -60q0 -36 24 -56t66 -20q62 0 95 35.5t36 99.5zM101 746v6t1 7h88v-7q0 -37 21 -58t58 -21q38 0 58.5 21t20.5 58v7h88q1 -4 1 -7v-6q0 -70 -45 -111t-123 -41t-123 41t-45 111z" />
    <glyph glyph-name="gbreve.alt" horiz-adv-x="585" 
d="M137 202q-37 22 -58.5 58t-21.5 84q0 54 28 94.5t78 62.5t116 22q62 0 114 -24l172 11v-89l-87 7q27 -41 27 -90q0 -52 -27.5 -91t-77 -60.5t-115.5 -21.5q-42 0 -78 9q-41 -18 -41 -48q0 -23 21.5 -32t76.5 -9h38q240 0 240 -161q0 -84 -71.5 -131t-199.5 -47
q-116 0 -180 38.5t-64 108.5q0 43 27 76.5t73 47.5q-34 10 -52.5 33t-18.5 53q0 31 21.5 57t59.5 42zM269 -12q-132 0 -132 -75q0 -35 38.5 -55t107.5 -20t107 21t38 58t-32.5 54t-103.5 17h-23zM201.5 412q-29.5 -25 -29.5 -69q0 -43 29.5 -68t79.5 -25t79.5 25t29.5 68
q0 44 -29.5 69t-79.5 25t-79.5 -25zM128 746v6t1 7h88v-7q0 -37 21 -58t58 -21q38 0 58.5 21t20.5 58v7h88q1 -4 1 -7v-6q0 -70 -45 -111t-123 -41t-123 41t-45 111z" />
    <glyph glyph-name="uni0307.cap" 
d="M0 978q35 0 56 -21t21 -54t-21 -53.5t-56 -20.5q-34 0 -55 20.5t-21 53.5t21 54t55 21z" />
    <glyph glyph-name="dotbelowcomb.cap" 
d="M0 -55q35 0 56 -20.5t21 -54.5q0 -33 -21 -53.5t-56 -20.5q-34 0 -55 20.5t-21 53.5t21 54t55 21z" />
    <glyph glyph-name="gdotaccent.alt" horiz-adv-x="585" 
d="M137 202q-37 22 -58.5 58t-21.5 84q0 54 28 94.5t78 62.5t116 22q62 0 114 -24l172 11v-89l-87 7q27 -41 27 -90q0 -52 -27.5 -91t-77 -60.5t-115.5 -21.5q-42 0 -78 9q-41 -18 -41 -48q0 -23 21.5 -32t76.5 -9h38q240 0 240 -161q0 -84 -71.5 -131t-199.5 -47
q-116 0 -180 38.5t-64 108.5q0 43 27 76.5t73 47.5q-34 10 -52.5 33t-18.5 53q0 31 21.5 57t59.5 42zM269 -12q-132 0 -132 -75q0 -35 38.5 -55t107.5 -20t107 21t38 58t-32.5 54t-103.5 17h-23zM201.5 412q-29.5 -25 -29.5 -69q0 -43 29.5 -68t79.5 -25t79.5 25t29.5 68
q0 44 -29.5 69t-79.5 25t-79.5 -25zM296 763q33 0 53.5 -20t20.5 -53q0 -31 -20.5 -51t-53.5 -20t-53.5 19.5t-20.5 51.5t20.5 52.5t53.5 20.5z" />
    <glyph glyph-name="uni030A.cap" 
d="M0 1079q59 0 98.5 -37.5t39.5 -93.5q0 -37 -18 -66.5t-49 -47t-71 -17.5q-39 0 -70.5 17.5t-49.5 47t-18 66.5q0 56 39.5 93.5t98.5 37.5zM0 1010q-28 0 -45 -16.5t-17 -45.5q0 -28 17 -45t45 -17q29 0 45.5 17t16.5 45q0 29 -16.5 45.5t-45.5 16.5z" />
    <glyph glyph-name="uring" horiz-adv-x="607" 
d="M74 507h126v-298q0 -113 105 -113q102 0 102 113v298h126v-300q0 -107 -59.5 -165t-169.5 -58q-111 0 -170.5 58t-59.5 165v300zM166 712q0 56 39.5 93.5t98.5 37.5t98.5 -37.5t39.5 -93.5t-39.5 -93.5t-98.5 -37.5t-98.5 37.5t-39.5 93.5zM366 712q0 29 -16.5 45.5
t-45.5 16.5q-28 0 -45 -16.5t-17 -45.5q0 -28 17 -45t45 -17q29 0 45.5 17t16.5 45z" />
    <glyph glyph-name="aring.alt" horiz-adv-x="570" 
d="M497 0h-110l-2 72q-20 -41 -65 -64.5t-101 -23.5q-79 0 -126.5 43.5t-47.5 115.5q0 77 56 123t150 46q70 0 131 -24v2q0 133 -135 133q-86 0 -161 -51l-10 99q33 24 83.5 38t101.5 14q115 0 175.5 -58.5t60.5 -167.5v-297zM382 210q-49 22 -111 22q-53 0 -81.5 -21
t-28.5 -60q0 -36 24 -56t66 -20q62 0 95 35.5t36 99.5zM131 712q0 56 39.5 93.5t98.5 37.5t98.5 -37.5t39.5 -93.5t-39.5 -93.5t-98.5 -37.5t-98.5 37.5t-39.5 93.5zM331 712q0 29 -16.5 45.5t-45.5 16.5q-28 0 -45 -16.5t-17 -45.5q0 -28 17 -45t45 -17q29 0 45.5 17
t16.5 45z" />
    <glyph glyph-name="uni0414" horiz-adv-x="870" 
d="M738 114h103v-288h-133v174h-553v-174h-133v288h87q37 44 51.5 117.5t14.5 195.5v333h563v-646zM602 114v532h-297v-240q0 -103 -12.5 -175.5t-39.5 -116.5h349z" />
    <glyph glyph-name="uni041B" horiz-adv-x="834" 
d="M740 0h-136v646h-302v-365q0 -154 -49.5 -221t-165.5 -67q-41 0 -67 8l7 110q18 -3 34 -3q43 0 67 17.5t34.5 58.5t10.5 112v464h567v-760z" />
    </font>
</defs>
</svg>
