<?xml version="1.0" standalone="no"?>
<!DOCTYPE svg PUBLIC "-//W3C//DTD SVG 1.1//EN" "http://www.w3.org/Graphics/SVG/1.1/DTD/svg11.dtd" >
<svg xmlns="http://www.w3.org/2000/svg" xmlns:xlink="http://www.w3.org/1999/xlink" version="1.1">
<metadata>
Created by FontForge 20170731 at Thu Aug  5 19:35:17 2021
 By Aleksey,,,
Copyright 2015-2016, 2019-2021 Dalton Maag Ltd. Modification of this file requires prior written permission from Dalton Maag Ltd.
</metadata>
<defs>
<font id="ObjektivMk2Trial-XBold" horiz-adv-x="0" >
  <font-face 
    font-family="Objektiv Mk2 Trial XBold"
    font-weight="800"
    font-stretch="normal"
    units-per-em="1000"
    panose-1="2 11 8 2 2 2 4 2 2 3"
    ascent="800"
    descent="-200"
    x-height="516"
    cap-height="760"
    bbox="-252 -283 1388 1097"
    underline-thickness="76"
    underline-position="-244"
    unicode-range="U+000D-FEFF"
  />
<missing-glyph horiz-adv-x="500" 
d="M50 750h400v-750h-400v750zM400 50v650h-300v-650h300z" />
    <glyph glyph-name="f_i" unicode="fi" horiz-adv-x="735" 
d="M114 371h-83v145h83v50q0 119 58.5 184t165.5 65q31 0 58.5 -4.5t46.5 -12.5l-9 -150q-11 5 -26.5 8t-28.5 3q-84 0 -84 -105v-38h122v-145h-122v-371h-181v371zM494 516h181v-516h-181v516zM482 693q0 42 29.5 69.5t72.5 27.5t72 -27.5t29 -69.5q0 -40 -29 -68t-72 -28
t-72.5 28t-29.5 68z" />
    <glyph glyph-name="f_l" unicode="fl" horiz-adv-x="735" 
d="M114 371h-83v145h83v50q0 119 58.5 184t165.5 65q31 0 58.5 -4.5t46.5 -12.5l-9 -150q-11 5 -26.5 8t-28.5 3q-84 0 -84 -105v-38h122v-145h-122v-371h-181v371zM494 810h181v-810h-181v810z" />
    <glyph glyph-name="f_f_i" unicode="ffi" horiz-adv-x="1164" 
d="M114 371h-83v145h83v50q0 119 59 184t168 65q33 0 69 -6.5t58 -17.5l-18 -146q-13 6 -33 10t-36 4q-86 0 -86 -105v-38h122v-145h-122v-371h-181v371zM542 371h-83v145h83v50q0 119 58.5 184t165.5 65q31 0 58.5 -4.5t46.5 -12.5l-9 -150q-11 5 -26.5 8t-28.5 3
q-84 0 -84 -105v-38h122v-145h-122v-371h-181v371zM922 516h181v-516h-181v516zM910 693q0 42 29.5 69.5t72.5 27.5t72 -27.5t29 -69.5q0 -40 -29 -68t-72 -28t-72.5 28t-29.5 68z" />
    <glyph glyph-name="f_f_l" unicode="ffl" horiz-adv-x="1164" 
d="M114 371h-83v145h83v50q0 119 59 184t168 65q33 0 69 -6.5t58 -17.5l-18 -146q-13 6 -33 10t-36 4q-86 0 -86 -105v-38h122v-145h-122v-371h-181v371zM542 371h-83v145h83v50q0 119 58.5 184t165.5 65q31 0 58.5 -4.5t46.5 -12.5l-9 -150q-11 5 -26.5 8t-28.5 3
q-84 0 -84 -105v-38h122v-145h-122v-371h-181v371zM922 810h181v-810h-181v810z" />
    <glyph glyph-name="f_f" unicode="ff" horiz-adv-x="876" 
d="M114 371h-83v145h83v50q0 119 59 184t168 65q33 0 69 -6.5t58 -17.5l-18 -146q-13 6 -33 10t-36 4q-86 0 -86 -105v-38h122v-145h-122v-371h-181v371zM542 371h-83v145h83v50q0 119 59 184t168 65q33 0 69 -6.5t58 -17.5l-18 -146q-13 6 -33 10t-36 4q-86 0 -86 -105v-38
h122v-145h-122v-371h-181v371z" />
    <glyph glyph-name=".notdef" horiz-adv-x="500" 
d="M50 750h400v-750h-400v750zM400 50v650h-300v-650h300z" />
    <glyph glyph-name="uni0000" 
 />
    <glyph glyph-name="uni0000" 
 />
    <glyph glyph-name="uni000D" unicode="&#xd;" horiz-adv-x="214" 
 />
    <glyph glyph-name="space" unicode=" " horiz-adv-x="214" 
 />
    <glyph glyph-name="exclam" unicode="!" horiz-adv-x="381" 
d="M92 790h197l-18 -528h-161zM117 21q-28 27 -28 69q0 41 28 68t74 27q45 0 73.5 -27t28.5 -68q0 -42 -28.5 -69t-73.5 -27q-46 0 -74 27z" />
    <glyph glyph-name="quotedbl" unicode="&#x22;" horiz-adv-x="490" 
d="M41 760h172l-17 -316h-138zM276 760h172l-17 -316h-138z" />
    <glyph glyph-name="numbersign" unicode="#" horiz-adv-x="697" 
d="M327 0l34 150h-112l-32 -150h-132l32 150h-85v111h109l33 155h-97v111h121l32 150h132l-32 -150h115l34 150h132l-32 -150h86v-111h-110l-33 -155h97v-111h-121l-32 -150h-139zM273 261h113l34 155h-114z" />
    <glyph glyph-name="dollar" unicode="$" horiz-adv-x="646" 
d="M296 -134v121q-61 2 -124.5 17.5t-108.5 47.5l18 144q43 -29 99 -48.5t116 -22.5v183q-122 39 -176.5 92.5t-54.5 137.5q0 66 30.5 112.5t82.5 73t118 33.5v138h73v-136q43 -3 97.5 -17.5t97.5 -39.5l-27 -138q-36 21 -79.5 35t-88.5 19v-170q85 -27 136.5 -59t74.5 -75
t23 -102q0 -66 -30.5 -113t-83.5 -75t-120 -35v-123h-73zM441 205q0 27 -17 45.5t-55 33.5v-155q33 7 52.5 26t19.5 50zM243 595q-21 -17 -21 -47q0 -27 17 -45t57 -33v147q-32 -5 -53 -22z" />
    <glyph glyph-name="percent" unicode="%" horiz-adv-x="1000" 
d="M682 744h142l-506 -744h-143zM743 -14q-58 0 -103.5 25t-72 68.5t-26.5 99.5t26.5 99.5t72 68.5t103.5 25t103.5 -25t72 -68.5t26.5 -99.5t-26.5 -99.5t-72 -68.5t-103.5 -25zM795.5 236.5q-19.5 21.5 -52.5 21.5t-52.5 -21.5t-19.5 -57.5t19.5 -58t52.5 -22t52.5 22
t19.5 58t-19.5 57.5zM257 374q-58 0 -103.5 25t-72 68.5t-26.5 99.5t26.5 99.5t72 68.5t103.5 25t103.5 -25t72 -68.5t26.5 -99.5t-26.5 -99.5t-72 -68.5t-103.5 -25zM309.5 624.5q-19.5 21.5 -52.5 21.5t-52.5 -21.5t-19.5 -57.5t19.5 -58t52.5 -22t52.5 22t19.5 58
t-19.5 57.5z" />
    <glyph glyph-name="ampersand" unicode="&#x26;" horiz-adv-x="774" 
d="M197 414q-44 53 -62.5 92t-18.5 87q0 55 28.5 97t79.5 65.5t117 23.5t116.5 -23t79 -64.5t28.5 -95.5q0 -127 -158 -201l126 -142q16 30 26.5 66.5t12.5 78.5l146 -16q-4 -73 -26.5 -134t-58.5 -109l123 -139h-199l-35 40q-95 -56 -210 -56q-84 0 -145.5 26.5t-95 75.5
t-33.5 116q0 137 159 212zM429 147l-151 174q-70 -44 -70 -106q0 -42 33.5 -68.5t85.5 -26.5q53 0 102 27zM389 640q-18 18 -48 18q-31 0 -49.5 -18t-18.5 -49q0 -22 12.5 -45.5t41.5 -59.5q42 24 61 50t19 57q0 29 -18 47z" />
    <glyph glyph-name="quotesingle" unicode="'" horiz-adv-x="254" 
d="M41 760h172l-17 -316h-138z" />
    <glyph glyph-name="parenleft" unicode="(" horiz-adv-x="446" 
d="M242 343q0 -136 53 -258t153 -219h-188q-57 57 -98.5 132.5t-63.5 163.5t-22 181t22 181t63.5 164t98.5 132h188q-100 -97 -153 -219t-53 -258z" />
    <glyph glyph-name="parenright" unicode=")" horiz-adv-x="446" 
d="M205 343q0 136 -53 258t-154 219h189q58 -56 98.5 -132t62.5 -164t22 -181t-22 -181t-62.5 -163.5t-98.5 -132.5h-189q101 97 154 219t53 258z" />
    <glyph glyph-name="asterisk" unicode="*" horiz-adv-x="484" 
d="M293 624l118 62l48 -133l-129 -28l94 -100l-116 -80l-66 121l-64 -121l-117 80l93 100l-130 29l49 133l116 -62l-18 135h142z" />
    <glyph glyph-name="plus" unicode="+" horiz-adv-x="646" 
d="M257 263h-163v146h163v175h156v-175h163v-146h-163v-175h-156v175z" />
    <glyph glyph-name="comma" unicode="," horiz-adv-x="306" 
d="M78 173h165q0 -65 -14.5 -128.5t-40.5 -118.5t-62 -95h-137q42 72 65 159.5t24 182.5z" />
    <glyph glyph-name="hyphen" unicode="-" horiz-adv-x="419" 
d="M50 361h319v-147h-319v147z" />
    <glyph glyph-name="period" unicode="." horiz-adv-x="306" 
d="M51 90q0 41 28.5 68t73.5 27t73.5 -27t28.5 -68q0 -42 -28.5 -69t-73.5 -27t-73.5 27t-28.5 69z" />
    <glyph glyph-name="slash" unicode="/" horiz-adv-x="578" 
d="M407 810h167l-403 -943h-166z" />
    <glyph glyph-name="zero" unicode="0" horiz-adv-x="646" 
d="M47.5 442q3.5 33 8.5 63q24 122 96.5 188.5t182.5 66.5q92 0 157 -46t99.5 -133t34.5 -209q0 -37 -3.5 -70t-8.5 -63q-24 -122 -96.5 -188.5t-182.5 -66.5q-91 0 -156.5 46t-100 133t-34.5 209q0 37 3.5 70zM413 233q13 49 13 139q0 222 -91 222q-57 0 -78 -83
q-13 -49 -13 -139q0 -222 91 -222q57 0 78 83z" />
    <glyph glyph-name="one" unicode="1" horiz-adv-x="646" 
d="M483 0h-184v558l-186 -79l-30 156l251 109h149v-744z" />
    <glyph glyph-name="two" unicode="2" horiz-adv-x="646" 
d="M587 0h-518v137q62 53 112.5 102t86.5 89q38 45 60.5 77t32 58t9.5 52q0 40 -25.5 63.5t-67.5 23.5q-45 0 -89.5 -21t-83.5 -59l-31 153q46 41 108.5 63t129.5 22q77 0 133.5 -27t87.5 -77t31 -118q0 -65 -33.5 -132t-105.5 -145q-19 -21 -47 -48t-55 -53h265v-160z" />
    <glyph glyph-name="three" unicode="3" horiz-adv-x="646" 
d="M347 594h-264v150h481v-130l-170 -170q57 -4 101 -31.5t69 -73.5t25 -105q0 -76 -36.5 -132.5t-103.5 -87t-160 -30.5q-66 0 -124 13t-98 37l16 151q90 -49 191 -49q59 0 91.5 25t32.5 70q0 44 -31 67.5t-87 23.5q-19 0 -35.5 -1.5t-31.5 -6.5l-44 100z" />
    <glyph glyph-name="four" unicode="4" horiz-adv-x="646" 
d="M358 744h185v-448h85v-144h-85v-152h-170v152h-335v141zM373 535l-170 -239h170v239z" />
    <glyph glyph-name="five" unicode="5" horiz-adv-x="646" 
d="M112 744h433v-154h-271l-5 -119q33 5 54 5q82 0 142 -29t93.5 -81.5t33.5 -123.5q0 -79 -36.5 -137t-104 -89.5t-160.5 -31.5q-65 0 -127 12.5t-99 31.5l16 154q96 -44 188 -44q62 0 97.5 27t35.5 73q0 47 -39 73t-110 26q-37 0 -81.5 -5.5t-76.5 -14.5z" />
    <glyph glyph-name="six" unicode="6" horiz-adv-x="646" 
d="M182.5 595q61.5 83 146.5 152l223 -7q-195 -161 -268 -299q39 32 104 32q67 0 119 -30.5t82 -83.5t30 -121q0 -74 -35.5 -131.5t-97.5 -90t-144 -32.5q-90 0 -154.5 33t-99 94.5t-34.5 146.5q0 82 33.5 168t95 169zM338 334q-42 0 -70 -28t-28 -72q0 -43 28 -71t70 -28
q44 0 71.5 28t27.5 71q0 44 -27.5 72t-71.5 28z" />
    <glyph glyph-name="seven" unicode="7" horiz-adv-x="646" 
d="M333 -3l-198 5l260 570h-327v172h529v-149z" />
    <glyph glyph-name="eight" unicode="8" horiz-adv-x="646" 
d="M193.5 734q60.5 26 141.5 26t141.5 -26t94 -73t33.5 -110q0 -55 -27.5 -97.5t-77.5 -63.5q57 -21 90.5 -70t33.5 -112q0 -69 -35 -119t-99.5 -77.5t-153.5 -27.5t-153.5 27.5t-99.5 77.5t-35 119q0 64 33 112.5t91 69.5q-50 21 -77.5 63t-27.5 98q0 63 33.5 110t94 73z
M407 289.5q-28 25.5 -72 25.5t-72 -25.5t-28 -67.5q0 -41 27.5 -67t72.5 -26t72.5 26t27.5 67q0 42 -28 67.5zM402.5 598.5q-25.5 23.5 -67.5 23.5t-67.5 -23.5t-25.5 -62.5q0 -40 25.5 -63.5t67.5 -23.5t67.5 23.5t25.5 63.5q0 39 -25.5 62.5z" />
    <glyph glyph-name="nine" unicode="9" horiz-adv-x="646" 
d="M118 4q96 78 162.5 152.5t105.5 145.5q-19 -16 -45.5 -23.5t-58.5 -7.5q-66 0 -118.5 30.5t-82.5 84t-30 120.5q0 75 35.5 132t98 89.5t143.5 32.5q90 0 154.5 -33t99 -94.5t34.5 -146.5q0 -81 -33.5 -168t-95 -169t-146.5 -152zM332 410q43 0 70.5 28.5t27.5 71.5
q0 44 -27.5 71.5t-70.5 27.5t-71 -27.5t-28 -71.5t28 -72t71 -28z" />
    <glyph glyph-name="colon" unicode=":" horiz-adv-x="306" 
d="M51 90q0 41 28.5 68t73.5 27t73.5 -27t28.5 -68q0 -42 -28.5 -69t-73.5 -27t-73.5 27t-28.5 69zM51 427q0 41 28.5 68t73.5 27t73.5 -27t28.5 -68q0 -42 -28.5 -69t-73.5 -27t-73.5 27t-28.5 69z" />
    <glyph glyph-name="semicolon" unicode=";" horiz-adv-x="306" 
d="M78 173h165q0 -65 -14.5 -128.5t-40.5 -118.5t-62 -95h-137q42 72 65 159.5t24 182.5zM51 427q0 41 28.5 68t73.5 27t73.5 -27t28.5 -68q0 -42 -28.5 -69t-73.5 -27t-73.5 27t-28.5 69z" />
    <glyph glyph-name="less" unicode="&#x3c;" horiz-adv-x="646" 
d="M116 253v168l438 175v-162l-261 -96l261 -97v-164z" />
    <glyph glyph-name="equal" unicode="=" horiz-adv-x="646" 
d="M112 142v140h446v-140h-446zM112 381v140h446v-140h-446z" />
    <glyph glyph-name="greater" unicode="&#x3e;" horiz-adv-x="646" 
d="M554 420v-167l-438 -176v163l261 96l-261 97v163z" />
    <glyph glyph-name="question" unicode="?" horiz-adv-x="544" 
d="M170 262q-3 12 -3 29q0 52 14.5 87.5t36 60.5t42.5 44q27 23 44 44t17 49q0 30 -22 47.5t-63 17.5q-46 0 -92.5 -24t-78.5 -59l-43 146q36 41 101 68t150 27q72 0 126.5 -25.5t85.5 -71.5t31 -109q0 -44 -13 -76t-35 -57t-48 -49q-28 -25 -52.5 -52.5t-32.5 -68.5
q-3 -13 -3 -28h-162zM353 90q0 -44 -29.5 -70t-72.5 -26t-72.5 26t-29.5 70t29.5 69.5t72.5 25.5t72.5 -25.5t29.5 -69.5z" />
    <glyph glyph-name="at" unicode="@" horiz-adv-x="1045" 
d="M512 -230q-142 0 -246.5 52t-162 147.5t-57.5 224.5q0 107 40 198.5t112 159.5t169 105.5t211 37.5q127 0 221.5 -48t147.5 -133.5t53 -200.5q0 -92 -33.5 -162.5t-93 -110t-137.5 -39.5q-54 0 -92 18.5t-53 53.5q-22 -33 -58.5 -51.5t-78.5 -18.5q-78 0 -126 56t-48 147
q0 71 28.5 128.5t77 91t108.5 33.5q40 0 72.5 -17.5t50.5 -49.5l12 53h141l-42 -246q-3 -22 -3 -32q0 -50 39 -50q28 0 51 26t37 69.5t14 96.5q0 125 -78.5 195t-218.5 70q-85 0 -156 -27.5t-123.5 -78.5t-81 -119.5t-28.5 -151.5q0 -144 90 -224.5t250 -80.5q63 0 126 12.5
t115 35.5l12 -120q-58 -24 -125.5 -37t-135.5 -13zM432 219q0 -39 18.5 -60t52.5 -21q40 0 65 29.5t25 75.5q0 81 -70 81q-40 0 -65.5 -29t-25.5 -76z" />
    <glyph glyph-name="A" unicode="A" horiz-adv-x="847" 
d="M319 760h209l298 -760h-212l-59 177h-276l-59 -177h-199zM505 328l-88 267l-88 -267h176z" />
    <glyph glyph-name="B" unicode="B" horiz-adv-x="724" 
d="M80 760h296q130 0 197.5 -50t67.5 -146q0 -53 -25 -95t-69 -64q62 -17 98 -66t36 -117q0 -109 -71 -165.5t-209 -56.5h-321v760zM388 138q50 0 76 23.5t26 66.5q0 90 -106 90h-125v-180h129zM359 451q100 0 100 88q0 83 -99 83h-101v-171h100z" />
    <glyph glyph-name="C" unicode="C" horiz-adv-x="759" 
d="M44 378q0 87 30.5 159t86 124.5t132 81t168.5 28.5q65 0 130.5 -16t110.5 -43l-32 -167q-47 23 -98 36t-98 13q-102 0 -161.5 -58.5t-59.5 -156.5t59.5 -155.5t162.5 -57.5q48 0 106 16.5t106 42.5l21 -174q-46 -28 -115 -45t-137 -17q-127 0 -219.5 47.5t-142.5 134.5
t-50 207z" />
    <glyph glyph-name="D" unicode="D" horiz-adv-x="858" 
d="M80 760h303q208 0 319.5 -98.5t111.5 -281.5q0 -120 -51.5 -205t-149 -130t-235.5 -45h-298v760zM371 159q235 0 235 221t-235 221h-92v-442h92z" />
    <glyph glyph-name="E" unicode="E" horiz-adv-x="679" 
d="M80 760h528v-153h-344v-146h303v-153h-303v-155h358v-153h-542v760z" />
    <glyph glyph-name="F" unicode="F" horiz-adv-x="637" 
d="M80 760h517v-159h-322v-166h279v-159h-279v-276h-195v760z" />
    <glyph glyph-name="G" unicode="G" horiz-adv-x="827" 
d="M766 48q-64 -28 -141 -43.5t-156 -15.5q-130 0 -225.5 46.5t-147.5 131.5t-52 202q0 122 55.5 212t155.5 140t235 50q68 0 138 -15.5t125 -42.5l-32 -161q-115 51 -233 51q-74 0 -129 -28t-85 -78.5t-30 -119.5q0 -106 63 -164.5t176 -58.5q26 0 51 3.5t51 9.5v124h-129
v147h310v-390z" />
    <glyph glyph-name="H" unicode="H" horiz-adv-x="860" 
d="M80 760h202v-289h296v289h202v-760h-202v309h-296v-309h-202v760z" />
    <glyph glyph-name="I" unicode="I" horiz-adv-x="362" 
d="M80 760h202v-760h-202v760z" />
    <glyph glyph-name="J" unicode="J" horiz-adv-x="583" 
d="M508 270q0 -286 -280 -286q-55 0 -108 11.5t-85 30.5l18 155q65 -33 135 -33q63 0 90 31t27 103v478h203v-490z" />
    <glyph glyph-name="K" unicode="K" horiz-adv-x="816" 
d="M80 760h199v-312l260 312h240l-323 -363l354 -397h-261l-270 326v-326h-199v760z" />
    <glyph glyph-name="L" unicode="L" horiz-adv-x="639" 
d="M80 760h202v-597h322v-163h-524v760z" />
    <glyph glyph-name="M.alt" unicode="M" horiz-adv-x="1016" 
d="M104 760h186l220 -444l216 444h186l45 -760h-187l-17 467l-167 -342h-155l-169 337l-15 -462h-187z" />
    <glyph glyph-name="N" unicode="N" horiz-adv-x="857" 
d="M80 760h172l342 -464v464h184v-760h-173l-342 463v-463h-183v760z" />
    <glyph glyph-name="O" unicode="O" horiz-adv-x="912" 
d="M456 -16q-90 0 -165.5 29t-130.5 82t-85.5 125.5t-30.5 159.5q0 84 31 156.5t87 126t131 83.5t163 30q90 0 165.5 -29t130.5 -82t85.5 -125.5t30.5 -159.5q0 -84 -31 -156.5t-87 -126t-131 -83.5t-163 -30zM659 379q0 64 -26 113.5t-71.5 78t-105.5 28.5q-59 0 -105 -28
t-72 -77t-26 -113t26 -113.5t72 -78t105 -28.5q60 0 105.5 28t71.5 77.5t26 112.5z" />
    <glyph glyph-name="P" unicode="P" horiz-adv-x="683" 
d="M80 760h276q92 0 158.5 -31.5t102.5 -89.5t36 -138q0 -122 -79 -191t-218 -69h-85v-241h-191v760zM326 388q132 0 132 113q0 112 -132 112h-55v-225h55z" />
    <glyph glyph-name="Q" unicode="Q" horiz-adv-x="912" 
d="M837 -182h-232l-134 167q-11 -1 -23 -1q-88 0 -162 29.5t-128.5 83t-84 126t-29.5 157.5q0 84 31 156.5t87 126t131 83.5t163 30q90 0 165.5 -29t130.5 -82t85.5 -125.5t30.5 -159.5q0 -84 -27.5 -151.5t-76.5 -117.5t-111 -81zM659 379q0 64 -26 113.5t-71.5 78
t-105.5 28.5q-59 0 -105 -28t-72 -77t-26 -113t26 -113.5t72 -78t105 -28.5q60 0 105.5 28t71.5 77.5t26 112.5z" />
    <glyph glyph-name="R" unicode="R" horiz-adv-x="748" 
d="M80 760h275q140 0 219 -68.5t79 -190.5q0 -65 -31.5 -117t-80.5 -86l186 -298h-221l-133 244h-102v-244h-191v760zM327 391q131 0 131 112q0 110 -129 110h-58v-222h56z" />
    <glyph glyph-name="S" unicode="S" horiz-adv-x="667" 
d="M62 211q48 -31 114 -49t128 -18q115 0 115 72q0 21 -11.5 35.5t-39.5 27.5t-79 27q-123 34 -177 89.5t-54 146.5q0 109 77.5 171.5t211.5 62.5q65 0 129.5 -16t107.5 -43l-26 -156q-40 25 -96 40t-106 15q-104 0 -104 -67q0 -29 24 -46t89 -37q136 -38 195 -93.5
t59 -146.5q0 -115 -80.5 -178.5t-225.5 -63.5q-51 0 -102 8.5t-94.5 23t-71.5 33.5z" />
    <glyph glyph-name="T" unicode="T" horiz-adv-x="739" 
d="M268 597h-233v163h669v-163h-233v-597h-203v597z" />
    <glyph glyph-name="U" unicode="U" horiz-adv-x="849" 
d="M75 760h202v-417q0 -182 147 -182t147 182v417h203v-431q0 -166 -90.5 -255.5t-259.5 -89.5q-168 0 -258.5 89.5t-90.5 255.5v431z" />
    <glyph glyph-name="V" unicode="V" horiz-adv-x="798" 
d="M12 760h224l166 -544l165 544h219l-284 -760h-206z" />
    <glyph glyph-name="W" unicode="W" horiz-adv-x="1139" 
d="M19 760h213l112 -507l141 497h171l142 -488l110 498h212l-225 -760h-183l-145 490l-140 -490h-183z" />
    <glyph glyph-name="X" unicode="X" horiz-adv-x="796" 
d="M279 396l-246 364h236l135 -234l133 234h230l-249 -373l263 -387h-238l-153 258l-146 -258h-229z" />
    <glyph glyph-name="Y" unicode="Y" horiz-adv-x="764" 
d="M8 760h223l154 -302l154 302h217l-275 -451v-309h-199v309z" />
    <glyph glyph-name="Z" unicode="Z" horiz-adv-x="756" 
d="M308 159h388v-159h-642v137l381 464h-357v159h610v-137z" />
    <glyph glyph-name="bracketleft" unicode="[" horiz-adv-x="447" 
d="M100 820h304v-146h-139v-660h139v-147h-304v953z" />
    <glyph glyph-name="backslash" unicode="\" horiz-adv-x="578" 
d="M5 810h166l403 -943h-167z" />
    <glyph glyph-name="bracketright" unicode="]" horiz-adv-x="447" 
d="M347 -133h-303v147h139v660h-139v146h303v-953z" />
    <glyph glyph-name="asciicircum" unicode="^" horiz-adv-x="646" 
d="M258 711h154l204 -410h-172l-109 248l-110 -248h-171z" />
    <glyph glyph-name="underscore" unicode="_" horiz-adv-x="500" 
d="M0 -26h500v-133h-500v133z" />
    <glyph glyph-name="grave" unicode="`" horiz-adv-x="500" 
d="M100 780h194l105 -170h-150z" />
    <glyph glyph-name="a" unicode="a" horiz-adv-x="657" 
d="M596 0h-171l-2 67q-47 -83 -158 -83q-67 0 -118.5 34.5t-80.5 96t-29 141.5q0 79 31 141t84 98.5t119 36.5q50 0 90 -21.5t62 -60.5l2 66h171v-516zM424 258q0 50 -29 81.5t-74 31.5q-46 0 -75 -31.5t-29 -81.5q0 -49 29 -81t75 -32q45 0 74 32t29 81z" />
    <glyph glyph-name="b" unicode="b" horiz-adv-x="657" 
d="M61 810h181v-348q51 70 149 70q67 0 118.5 -34.5t81 -96t29.5 -141.5q0 -78 -31 -140.5t-83.5 -99t-119.5 -36.5q-50 0 -90 21t-63 60l-2 -65h-170v810zM336 371q-46 0 -75 -31.5t-29 -81.5q0 -49 29 -81t75 -32t75 32t29 81q0 50 -29 81.5t-75 31.5z" />
    <glyph glyph-name="c" unicode="c" horiz-adv-x="543" 
d="M478 340q-34 15 -67 22t-65 7q-61 0 -95 -29t-34 -82q0 -52 35 -81.5t97 -29.5q33 0 65.5 7.5t69.5 22.5l18 -148q-35 -20 -82.5 -31.5t-96.5 -11.5q-87 0 -151 33.5t-99.5 94.5t-35.5 142t36 143t100.5 96.5t148.5 34.5q47 0 96.5 -11t80.5 -28z" />
    <glyph glyph-name="d" unicode="d" horiz-adv-x="657" 
d="M596 0h-171l-2 66q-24 -39 -64.5 -60.5t-93.5 -21.5q-67 0 -118.5 34.5t-80.5 96t-29 141.5q0 79 31 141t84 98.5t119 36.5q93 0 144 -70v348h181v-810zM395 177q29 32 29 81q0 50 -29 81.5t-74 31.5q-46 0 -75 -31.5t-29 -81.5q0 -49 29 -81t75 -32q45 0 74 32z" />
    <glyph glyph-name="e" unicode="e" horiz-adv-x="603" 
d="M348 -16q-97 0 -166.5 33t-107 94.5t-37.5 146.5q0 81 34 143t95 96.5t141 34.5q78 0 135 -31.5t87.5 -89t30.5 -137.5q0 -14 -1 -28t-3 -29h-343q12 -52 51.5 -75.5t107.5 -23.5q41 0 86 9.5t79 25.5l16 -130q-42 -19 -95.5 -29t-109.5 -10zM390 334q-7 35 -29 55.5
t-57 20.5q-78 0 -94 -95h182q0 10 -2 19z" />
    <glyph glyph-name="f" unicode="f" horiz-adv-x="448" 
d="M114 371h-83v145h83v50q0 119 59 184t168 65q33 0 69 -6.5t58 -17.5l-18 -146q-13 6 -33 10t-36 4q-86 0 -86 -105v-38h122v-145h-122v-371h-181v371z" />
    <glyph glyph-name="g" unicode="g" horiz-adv-x="657" 
d="M596 42q0 -145 -75.5 -220.5t-222.5 -75.5q-37 0 -76 5.5t-72.5 15t-54.5 21.5l19 148q31 -17 76 -28.5t83 -11.5q150 0 150 140v38q-50 -81 -156 -81q-68 0 -120 34t-81 94.5t-29 138.5t31 139.5t84 97t120 35.5q49 0 88.5 -21.5t62.5 -60.5l2 66h171v-474zM424 262
q0 50 -29 81.5t-74 31.5q-46 0 -75 -31.5t-29 -81.5q0 -49 29 -81t75 -32q45 0 74 32t29 81z" />
    <glyph glyph-name="h" unicode="h" horiz-adv-x="625" 
d="M61 810h181v-355q21 37 59.5 57t88.5 20q86 0 132 -55.5t46 -162.5v-314h-181v280q0 91 -69 91q-37 0 -56.5 -25.5t-19.5 -72.5v-273h-181v810z" />
    <glyph glyph-name="i" unicode="i" horiz-adv-x="303" 
d="M61 516h181v-516h-181v516zM49 693q0 42 29.5 69.5t72.5 27.5t72 -27.5t29 -69.5q0 -40 -29 -68t-72 -28t-72.5 28t-29.5 68z" />
    <glyph glyph-name="j.alt" unicode="j" horiz-adv-x="303" 
d="M242 -18q0 -116 -56 -176t-164 -60q-39 0 -76.5 7t-58.5 19l18 147q38 -16 77 -16q41 0 60 22t19 71v520h181v-534zM49 693q0 42 29.5 69.5t72.5 27.5t72 -27.5t29 -69.5q0 -40 -29 -68t-72 -28t-72.5 28t-29.5 68z" />
    <glyph glyph-name="k" unicode="k" horiz-adv-x="643" 
d="M61 810h181v-483l158 189h209l-208 -231l243 -285h-223l-179 223v-223h-181v810z" />
    <glyph glyph-name="l" unicode="l" horiz-adv-x="303" 
d="M61 810h181v-810h-181v810z" />
    <glyph glyph-name="m" unicode="m" horiz-adv-x="936" 
d="M61 516h176l2 -64q20 38 58.5 59t89.5 21q107 0 150 -86q22 40 65 63t97 23q89 0 135 -55.5t46 -162.5v-314h-180v280q0 91 -67 91q-73 0 -73 -98v-273h-179v280q0 47 -16.5 69t-51.5 22q-73 0 -73 -98v-273h-179v516z" />
    <glyph glyph-name="n" unicode="n" horiz-adv-x="625" 
d="M61 516h177l2 -65q21 39 60 60t90 21q86 0 132 -55.5t46 -162.5v-314h-181v280q0 91 -69 91q-37 0 -56.5 -25.5t-19.5 -72.5v-273h-181v516z" />
    <glyph glyph-name="o" unicode="o" horiz-adv-x="641" 
d="M321 -16q-82 0 -146 35.5t-101 97.5t-37 141t37 141t101.5 97.5t145.5 35.5q82 0 145.5 -35.5t100.5 -97t37 -141.5q0 -79 -37 -141t-101 -97.5t-145 -35.5zM395 339.5q-29 31.5 -74 31.5q-46 0 -75 -31.5t-29 -81.5q0 -49 29 -81t75 -32q45 0 74 32t29 81q0 50 -29 81.5
z" />
    <glyph glyph-name="p" unicode="p" horiz-adv-x="657" 
d="M61 516h169l2 -68q50 84 159 84q67 0 118.5 -34.5t81 -96t29.5 -141.5q0 -78 -31 -140.5t-83.5 -99t-119.5 -36.5q-94 0 -144 68v-297h-181v761zM411 177q29 32 29 81q0 50 -29 81.5t-75 31.5t-75 -31.5t-29 -81.5q0 -49 29 -81t75 -32t75 32z" />
    <glyph glyph-name="q" unicode="q" horiz-adv-x="657" 
d="M596 -245h-181v299q-51 -70 -150 -70q-67 0 -118.5 34.5t-80.5 96t-29 141.5q0 79 31 141t84 98.5t119 36.5q49 0 89 -21t63 -61l2 66h171v-761zM321 371q-46 0 -75 -31.5t-29 -81.5q0 -49 29 -81t75 -32q45 0 74 32t29 81q0 50 -29 81.5t-74 31.5z" />
    <glyph glyph-name="r" unicode="r" horiz-adv-x="448" 
d="M61 516h176l1 -93q17 49 50.5 76t79.5 27q34 0 59 -10l-15 -171q-13 5 -32 8.5t-35 3.5q-103 0 -103 -136v-221h-181v516z" />
    <glyph glyph-name="s" unicode="s" horiz-adv-x="519" 
d="M59 163q39 -25 85 -38t91 -13q68 0 68 35q0 18 -15 27.5t-63 22.5q-96 26 -136.5 64.5t-40.5 105.5q0 78 59 121.5t162 43.5q52 0 103 -11t84 -30l-18 -126q-80 39 -157 39q-58 0 -58 -33q0 -16 16 -26.5t63 -23.5q96 -26 137 -66.5t41 -106.5q0 -78 -61.5 -121
t-171.5 -43q-60 0 -117 14t-91 37z" />
    <glyph glyph-name="t.alt" unicode="t" horiz-adv-x="478" 
d="M101 187v184h-87v145h87v133h180v-133h147v-145h-147v-143q0 -46 15.5 -64.5t51.5 -18.5q44 0 84 18l18 -149q-58 -30 -156 -30q-193 0 -193 203z" />
    <glyph glyph-name="u.alt" unicode="u" horiz-adv-x="624" 
d="M563 0h-178l-2 63q-20 -38 -60 -58.5t-92 -20.5q-85 0 -130 54.5t-45 159.5v318h181v-281q0 -90 70 -90q36 0 55.5 25.5t19.5 72.5v273h181v-516z" />
    <glyph glyph-name="v" unicode="v" horiz-adv-x="597" 
d="M13 516h201l87 -342l95 342h189l-191 -516h-191z" />
    <glyph glyph-name="w" unicode="w" horiz-adv-x="887" 
d="M18 516h190l68 -316l92 316h148l98 -317l66 317h190l-166 -516h-162l-103 298l-98 -298h-157z" />
    <glyph glyph-name="x" unicode="x" horiz-adv-x="625" 
d="M209 266l-178 250h202l84 -140l82 140h192l-177 -251l189 -265h-203l-94 156l-93 -156h-192z" />
    <glyph glyph-name="y" unicode="y" horiz-adv-x="620" 
d="M278 -245h-182l129 273l-212 488h199l105 -303l97 303h193z" />
    <glyph glyph-name="z" unicode="z" horiz-adv-x="555" 
d="M275 371h-225v145h459v-119l-236 -252h243v-145h-477v119z" />
    <glyph glyph-name="braceleft" unicode="{" horiz-adv-x="458" 
d="M124 27q0 39 10 79.5t10 84.5q0 42 -17 58.5t-60 16.5h-24v145h24q43 0 60 16.5t17 58.5q0 44 -10 84.5t-10 79.5q0 171 219 171q17 0 40.5 -1t37.5 -2v-140q-8 1 -18.5 1h-28.5q-44 0 -64.5 -17.5t-20.5 -55.5q0 -31 10 -71.5t10 -82.5q0 -41 -21.5 -71t-61.5 -43
q83 -25 83 -113q0 -42 -10 -82.5t-10 -71.5q0 -38 20.5 -55.5t64.5 -17.5h28t19 1v-140q-14 -1 -37.5 -2t-40.5 -1q-219 0 -219 171z" />
    <glyph glyph-name="bar" unicode="|" horiz-adv-x="340" 
d="M90 866h161v-1094h-161v1094z" />
    <glyph glyph-name="braceright" unicode="}" horiz-adv-x="458" 
d="M334 650q0 -39 -10 -79.5t-10 -84.5q0 -42 17 -58.5t60 -16.5h24v-145h-24q-43 0 -60 -16.5t-17 -58.5q0 -44 10 -84.5t10 -79.5q0 -171 -219 -171q-17 0 -40.5 1t-37.5 2v140q8 -1 18.5 -1h28.5q44 0 64.5 17.5t20.5 55.5q0 31 -10 71.5t-10 82.5q0 41 21.5 71t61.5 43
q-83 25 -83 113q0 42 10 82.5t10 71.5q0 38 -20.5 55.5t-64.5 17.5h-28t-19 -1v140q14 1 37.5 2t40.5 1q219 0 219 -171z" />
    <glyph glyph-name="asciitilde" unicode="~" horiz-adv-x="646" 
d="M142 441.5q37 21.5 82 21.5q38 0 66.5 -11t53.5 -28q26 -18 43.5 -29.5t34.5 -11.5q20 0 33.5 17t14.5 63h140v-15q0 -85 -22 -134.5t-59.5 -71t-82.5 -21.5q-38 0 -66.5 10.5t-53.5 28.5t-43 29t-35 11q-19 0 -33 -16t-15 -63h-140v15q0 85 22.5 134.5t59.5 71z" />
    <glyph glyph-name="uni00A0" unicode="&#xa0;" horiz-adv-x="214" 
 />
    <glyph glyph-name="exclamdown" unicode="&#xa1;" horiz-adv-x="381" 
d="M92 -274l18 528h161l18 -528h-197zM117 495q28 27 74 27q45 0 73.5 -27t28.5 -69q0 -41 -28.5 -68t-73.5 -27q-46 0 -74 27t-28 68q0 42 28 69z" />
    <glyph glyph-name="cent" unicode="&#xa2;" horiz-adv-x="646" 
d="M340 -134v122q-73 8 -128 42t-85.5 91t-30.5 134q0 74 30 133t84.5 95.5t129.5 44.5v123h73v-122q35 -3 71 -12t68 -27l-21 -144q-28 13 -58.5 21t-59.5 9v-237q30 2 60.5 9t63.5 21l18 -140q-29 -17 -65 -28t-77 -14v-121h-73zM340 146v224q-38 -11 -59.5 -39t-21.5 -73
q0 -88 81 -112z" />
    <glyph glyph-name="sterling" unicode="&#xa3;" horiz-adv-x="646" 
d="M449 760q47 0 92 -10t77 -29l-22 -144q-66 33 -128 33q-128 0 -128 -149v-23h189v-140h-189v-150h282v-148h-554v148h96v150h-91v140h91v27q0 142 74 218.5t211 76.5z" />
    <glyph glyph-name="currency" unicode="&#xa4;" horiz-adv-x="646" 
d="M335 188q-57 0 -106 24l-76 -84l-104 94l81 89q-24 49 -24 106t24 106l-81 89l104 94l76 -84q49 24 106 24t106 -24l76 84l104 -94l-81 -89q24 -49 24 -106t-24 -106l81 -89l-104 -94l-76 84q-49 -24 -106 -24zM401 488.5q-25 27.5 -66 27.5q-40 0 -65.5 -27.5
t-25.5 -71.5t25.5 -71.5t65.5 -27.5q41 0 66 27.5t25 71.5t-25 71.5z" />
    <glyph glyph-name="yen" unicode="&#xa5;" horiz-adv-x="646" 
d="M11 744h205l123 -286l123 286h197l-183 -335h134v-98h-187v-78h187v-98h-187v-135h-176v135h-195v98h195v76l-1 2h-194v98h141z" />
    <glyph glyph-name="brokenbar" unicode="&#xa6;" horiz-adv-x="340" 
d="M90 -228v445h161v-445h-161zM90 421v445h161v-445h-161z" />
    <glyph glyph-name="section" unicode="&#xa7;" horiz-adv-x="567" 
d="M271 -123q-65 0 -127 15.5t-97 40.5l19 130q97 -59 198 -59q32 0 50.5 11.5t18.5 32.5q0 20 -18 31.5t-65 24.5q-109 27 -156.5 68.5t-47.5 110.5q0 56 29.5 96.5t82.5 57.5q-91 48 -91 144q0 80 60.5 124.5t166.5 44.5q53 0 104 -10.5t89 -30.5l-18 -125
q-37 18 -80.5 28.5t-84.5 10.5q-64 0 -64 -38q0 -18 18.5 -29.5t73.5 -28.5q102 -28 147 -72t45 -115q0 -52 -25 -91t-71 -57q81 -47 81 -134q0 -86 -62.5 -133.5t-175.5 -47.5zM229.5 262q21.5 -20 55.5 -20t55.5 21.5t21.5 55.5q0 32 -21.5 52t-55.5 20t-55.5 -21.5
t-21.5 -55.5q0 -32 21.5 -52z" />
    <glyph glyph-name="dieresis" unicode="&#xa8;" horiz-adv-x="500" 
d="M131 758q38 0 61.5 -22.5t23.5 -57.5q0 -36 -23.5 -58t-61.5 -22t-62 22t-24 58q0 35 24.5 57.5t61.5 22.5zM369 758q38 0 62 -22.5t24 -57.5q0 -36 -24 -58t-62 -22t-61.5 22t-23.5 58q0 35 24 57.5t61 22.5z" />
    <glyph glyph-name="copyright" unicode="&#xa9;" horiz-adv-x="794" 
d="M30 380q0 78 27.5 143t76.5 113t116.5 74.5t146.5 26.5q80 0 146.5 -26.5t116 -74.5t76.5 -113t27 -143t-27 -143t-76.5 -113t-116 -74.5t-146.5 -26.5q-79 0 -146.5 26.5t-116.5 74.5t-76.5 113t-27.5 143zM666 380q0 78 -34.5 138.5t-95 94.5t-139.5 34q-78 0 -139 -34
t-96 -94.5t-35 -138.5t35 -138t96 -94.5t139 -34.5q79 0 139.5 34.5t95 94.5t34.5 138zM234 482q26 44 72.5 68.5t108.5 24.5q32 0 65.5 -7t55.5 -20l-17 -113q-21 8 -45.5 13.5t-45.5 5.5q-38 0 -60.5 -19.5t-22.5 -52.5q0 -72 91 -72q42 0 89 21l15 -112
q-24 -14 -58.5 -21.5t-72.5 -7.5q-92 0 -146.5 50.5t-54.5 138.5q0 59 26 103z" />
    <glyph glyph-name="ordfeminine" unicode="&#xaa;" horiz-adv-x="479" 
d="M440 385h-127l-2 43q-16 -26 -44 -41t-61 -15q-48 0 -86 25.5t-59.5 70t-21.5 101.5q0 54 22 97t60 68.5t84 25.5q31 0 59 -13t45 -35l1 37h130v-364zM437 309v-118h-382v118h382zM309 567q0 32 -18 52t-48 20q-29 0 -47.5 -20t-18.5 -52t18 -52t48 -20q29 0 47.5 20
t18.5 52z" />
    <glyph glyph-name="guillemotleft" unicode="&#xab;" horiz-adv-x="672" 
d="M24 257l152 223h191l-157 -223l157 -223h-191zM302 257l152 223h191l-157 -223l157 -223h-191z" />
    <glyph glyph-name="logicalnot" unicode="&#xac;" horiz-adv-x="646" 
d="M573 153h-160v144h-316v149h476v-293z" />
    <glyph glyph-name="uni00AD" unicode="&#xad;" horiz-adv-x="419" 
d="M50 361h319v-147h-319v147z" />
    <glyph glyph-name="registered" unicode="&#xae;" horiz-adv-x="511" 
d="M137 411q-52 29 -82 80t-30 115q0 65 30 115.5t82 79.5t118 29q67 0 118.5 -29t81.5 -79.5t30 -115.5q0 -64 -30 -115t-81.5 -80t-118.5 -29q-66 0 -118 29zM93 606q0 -73 44.5 -118t117.5 -45q74 0 118.5 45t44.5 118q0 74 -44.5 118.5t-118.5 44.5q-73 0 -117.5 -44.5
t-44.5 -118.5zM320 583l42 -80h-78l-23 56h-27v-56h-70v214h92q94 0 94 -75q0 -41 -30 -59zM249 662h-15v-47h15q30 0 30 23q0 24 -30 24z" />
    <glyph glyph-name="macron" unicode="&#xaf;" horiz-adv-x="500" 
d="M82 740h336v-120h-336v120z" />
    <glyph glyph-name="degree" unicode="&#xb0;" horiz-adv-x="485" 
d="M243 403q-55 0 -99 24t-69.5 66.5t-25.5 95.5q0 54 25.5 96t69.5 66.5t99 24.5t98.5 -24t69 -66.5t25.5 -96.5q0 -53 -25.5 -95t-69 -66.5t-98.5 -24.5zM292.5 641.5q-19.5 20.5 -49.5 20.5q-31 0 -50 -20.5t-19 -52.5t19 -52t50 -20q30 0 49.5 20t19.5 52t-19.5 52.5z
" />
    <glyph glyph-name="plusminus" unicode="&#xb1;" horiz-adv-x="646" 
d="M257 206v168h-163v145h163v168h156v-168h163v-145h-163v-168h-156zM94 0v149h482v-149h-482z" />
    <glyph glyph-name="uni00B2" unicode="&#xb2;" horiz-adv-x="398" 
d="M355 456h-319v102q35 23 66 46.5t52 42.5q56 52 56 84q0 37 -49 37q-53 0 -103 -47l-21 101q23 23 65.5 37.5t83.5 14.5q71 0 113.5 -34t42.5 -91q0 -77 -82 -150q-21 -19 -43 -36h138v-107z" />
    <glyph glyph-name="uni00B3" unicode="&#xb3;" horiz-adv-x="398" 
d="M47 574q26 -13 57 -20t59 -7q61 0 61 41q0 38 -58 38q-25 0 -43 -7l-27 64l96 81h-143v100h290v-92l-88 -73q47 -7 75.5 -38.5t28.5 -74.5q0 -64 -49 -102t-132 -38q-90 0 -137 28z" />
    <glyph glyph-name="acute" unicode="&#xb4;" horiz-adv-x="500" 
d="M224 780h193l-148 -170h-150z" />
    <glyph glyph-name="mu" unicode="&#xb5;" horiz-adv-x="625" 
d="M57 516h181v-281q0 -46 16.5 -68t52.5 -22t56 25.5t20 72.5v273h181v-516h-178l-2 61q-13 -34 -42.5 -55.5t-61.5 -21.5q-24 0 -42 13v-242h-181v761z" />
    <glyph glyph-name="paragraph" unicode="&#xb6;" horiz-adv-x="656" 
d="M589 -130h-147v748h-83v-748h-148v441q-93 16 -143.5 74t-50.5 147q0 106 70.5 167t194.5 61h307v-890z" />
    <glyph glyph-name="periodcentered" unicode="&#xb7;" horiz-adv-x="306" 
d="M51 379q0 41 28.5 68t73.5 27t73.5 -27t28.5 -68q0 -42 -28.5 -69t-73.5 -27t-73.5 27t-28.5 69z" />
    <glyph glyph-name="cedilla" unicode="&#xb8;" horiz-adv-x="500" 
d="M206 10h94l-19 -64q47 -4 75 -30t28 -68q0 -53 -42 -84t-113 -31q-29 0 -61.5 6t-45.5 13l17 83q27 -11 66 -11q52 0 52 32q0 30 -55 30q-9 0 -17.5 -0.5t-14.5 -1.5z" />
    <glyph glyph-name="uni00B9" unicode="&#xb9;" horiz-adv-x="398" 
d="M295 456h-134v279l-99 -45l-18 113l133 61h118v-408z" />
    <glyph glyph-name="ordmasculine" unicode="&#xba;" horiz-adv-x="485" 
d="M39 567q0 56 26.5 99.5t72.5 68.5t104 25q59 0 105 -25t72.5 -68.5t26.5 -99.5q0 -55 -26.5 -99t-72.5 -69t-105 -25q-58 0 -104 25t-72.5 69t-26.5 99zM51 191v118h383v-118h-383zM177 567q0 -32 18 -52t48 -20q29 0 47.5 20t18.5 52t-18 52t-48 20q-29 0 -47.5 -20
t-18.5 -52z" />
    <glyph glyph-name="guillemotright" unicode="&#xbb;" horiz-adv-x="672" 
d="M184 257l-157 223h192l151 -223l-151 -223h-192zM462 257l-157 223h192l151 -223l-151 -223h-192z" />
    <glyph glyph-name="onequarter" unicode="&#xbc;" horiz-adv-x="986" 
d="M692 744h142l-506 -744h-143zM917 170h44v-95h-44v-75h-115v75h-194v99l175 234h134v-238zM802 170v115l-86 -115h86zM295 336h-134v279l-99 -45l-18 113l133 61h118v-408z" />
    <glyph glyph-name="onehalf" unicode="&#xbd;" horiz-adv-x="986" 
d="M655 744h142l-506 -744h-143zM943 0h-319v102q35 23 66 46.5t52 42.5q56 52 56 84q0 37 -49 37q-53 0 -103 -47l-21 101q23 23 65.5 37.5t83.5 14.5q71 0 113.5 -34t42.5 -91q0 -77 -82 -150q-21 -19 -43 -36h138v-107zM295 336h-134v279l-99 -45l-18 113l133 61h118
v-408z" />
    <glyph glyph-name="threequarters" unicode="&#xbe;" horiz-adv-x="986" 
d="M693 744h142l-506 -744h-143zM917 170h44v-95h-44v-75h-115v75h-194v99l175 234h134v-238zM802 170v115l-86 -115h86zM47 454q26 -13 57 -20t59 -7q61 0 61 41q0 38 -58 38q-25 0 -43 -7l-27 64l96 81h-143v100h290v-92l-88 -73q47 -7 75.5 -38.5t28.5 -74.5
q0 -64 -49 -102t-132 -38q-90 0 -137 28z" />
    <glyph glyph-name="questiondown" unicode="&#xbf;" horiz-adv-x="544" 
d="M270 -283q-71 0 -125.5 25.5t-85.5 72t-31 108.5q0 46 14 79t36 57.5t46 45.5q29 26 53 53.5t31 67.5q2 7 3 13.5t1 14.5h162q3 -12 3 -29q0 -51 -14.5 -87t-36 -61t-43.5 -44q-25 -22 -43 -43t-18 -50q0 -30 22.5 -47.5t62.5 -17.5q47 0 93.5 24t77.5 59l43 -146
q-35 -40 -100 -67.5t-151 -27.5zM365.5 357q-29.5 -26 -72.5 -26t-73 26t-30 69q0 44 30 70t73 26t72.5 -26t29.5 -70q0 -43 -29.5 -69z" />
    <glyph glyph-name="Agrave" unicode="&#xc0;" horiz-adv-x="847" 
d="M319 760h209l298 -760h-212l-59 177h-276l-59 -177h-199zM505 328l-88 267l-88 -267h176zM213 989h210l117 -154h-163z" />
    <glyph glyph-name="Aacute" unicode="&#xc1;" horiz-adv-x="847" 
d="M319 760h209l298 -760h-212l-59 177h-276l-59 -177h-199zM505 328l-88 267l-88 -267h176zM418 989h210l-163 -154h-164z" />
    <glyph glyph-name="Acircumflex" unicode="&#xc2;" horiz-adv-x="847" 
d="M319 760h209l298 -760h-212l-59 177h-276l-59 -177h-199zM505 328l-88 267l-88 -267h176zM333 992h180l143 -157h-173l-60 69l-60 -69h-173z" />
    <glyph glyph-name="Atilde" unicode="&#xc3;" horiz-adv-x="847" 
d="M319 760h209l298 -760h-212l-59 177h-276l-59 -177h-199zM505 328l-88 267l-88 -267h176zM342 1005q36 0 60 -13t42 -25.5t36 -12.5q28 0 28 49h116q0 -172 -120 -172q-36 0 -59.5 13t-41.5 26t-36 13q-29 0 -29 -50h-116q0 172 120 172z" />
    <glyph glyph-name="Adieresis" unicode="&#xc4;" horiz-adv-x="847" 
d="M319 760h209l298 -760h-212l-59 177h-276l-59 -177h-199zM505 328l-88 267l-88 -267h176zM214 915q0 37 24.5 60t63.5 23t64 -23t25 -60t-25 -60t-64 -23t-63.5 23t-24.5 60zM455 915q0 37 25 60t63 23q40 0 64.5 -23t24.5 -60t-24.5 -60t-64.5 -23q-38 0 -63 23t-25 60z
" />
    <glyph glyph-name="Aring" unicode="&#xc5;" horiz-adv-x="847" 
d="M319 760h209l298 -760h-212l-59 177h-276l-59 -177h-199zM505 328l-88 267l-88 -267h176zM423 816q-43 0 -76.5 18.5t-53 50.5t-19.5 72t19.5 71.5t53 50t76.5 18.5t76.5 -18.5t53 -50t19.5 -71.5t-19.5 -72t-53 -50.5t-76.5 -18.5zM462.5 996q-14.5 15 -39.5 15
t-39.5 -15t-14.5 -39q0 -25 14.5 -40t39.5 -15t39.5 15t14.5 40q0 24 -14.5 39z" />
    <glyph glyph-name="AE" unicode="&#xc6;" horiz-adv-x="1127" 
d="M451 760h605v-153h-344v-146h315v-153h-315v-155h358v-153h-542v177h-226l-92 -177h-204zM528 328v283l-147 -283h147z" />
    <glyph glyph-name="Ccedilla" unicode="&#xc7;" horiz-adv-x="759" 
d="M44 378q0 87 30.5 159t86 124.5t132 81t168.5 28.5q65 0 130.5 -16t110.5 -43l-32 -167q-47 23 -98 36t-98 13q-102 0 -161.5 -58.5t-59.5 -156.5t59.5 -155.5t162.5 -57.5q48 0 106 16.5t106 42.5l21 -174q-46 -28 -115 -45t-137 -17q-127 0 -219.5 47.5t-142.5 134.5
t-50 207zM365 10h100l-18 -61q46 -4 75 -31t29 -67q0 -58 -43.5 -88t-126.5 -30q-26 0 -55 5.5t-43 13.5l17 87q27 -12 63 -12q50 0 50 29q0 28 -53 28q-8 0 -17 -0.5t-14 -2.5z" />
    <glyph glyph-name="Egrave" unicode="&#xc8;" horiz-adv-x="679" 
d="M80 760h528v-153h-344v-146h303v-153h-303v-155h358v-153h-542v760zM142 989h210l117 -154h-163z" />
    <glyph glyph-name="Eacute" unicode="&#xc9;" horiz-adv-x="679" 
d="M80 760h528v-153h-344v-146h303v-153h-303v-155h358v-153h-542v760zM347 989h210l-163 -154h-164z" />
    <glyph glyph-name="Ecircumflex" unicode="&#xca;" horiz-adv-x="679" 
d="M80 760h528v-153h-344v-146h303v-153h-303v-155h358v-153h-542v760zM262 992h180l143 -157h-173l-60 69l-60 -69h-173z" />
    <glyph glyph-name="Edieresis" unicode="&#xcb;" horiz-adv-x="679" 
d="M80 760h528v-153h-344v-146h303v-153h-303v-155h358v-153h-542v760zM143 915q0 37 24.5 60t63.5 23t64 -23t25 -60t-25 -60t-64 -23t-63.5 23t-24.5 60zM384 915q0 37 25 60t63 23q40 0 64.5 -23t24.5 -60t-24.5 -60t-64.5 -23q-38 0 -63 23t-25 60z" />
    <glyph glyph-name="Igrave" unicode="&#xcc;" horiz-adv-x="362" 
d="M80 760h202v-760h-202v760zM-29 989h210l117 -154h-163z" />
    <glyph glyph-name="Iacute" unicode="&#xcd;" horiz-adv-x="362" 
d="M80 760h202v-760h-202v760zM176 989h210l-163 -154h-164z" />
    <glyph glyph-name="Icircumflex" unicode="&#xce;" horiz-adv-x="362" 
d="M80 760h202v-760h-202v760zM91 992h180l143 -157h-173l-60 69l-60 -69h-173z" />
    <glyph glyph-name="Idieresis" unicode="&#xcf;" horiz-adv-x="362" 
d="M80 760h202v-760h-202v760zM-28 915q0 37 24.5 60t63.5 23t64 -23t25 -60t-25 -60t-64 -23t-63.5 23t-24.5 60zM213 915q0 37 25 60t63 23q40 0 64.5 -23t24.5 -60t-24.5 -60t-64.5 -23q-38 0 -63 23t-25 60z" />
    <glyph glyph-name="Eth" unicode="&#xd0;" horiz-adv-x="881" 
d="M103 0v320h-82v125h82v315h304q208 0 319.5 -98.5t111.5 -281.5q0 -120 -51.5 -205t-149 -130t-235.5 -45h-299zM302 320v-161h92q236 0 236 221t-235 221h-93v-156h137v-125h-137z" />
    <glyph glyph-name="Ntilde" unicode="&#xd1;" horiz-adv-x="857" 
d="M80 760h172l342 -464v464h184v-760h-173l-342 463v-463h-183v760zM340 1005q36 0 60 -13t42 -25.5t36 -12.5q28 0 28 49h116q0 -172 -120 -172q-36 0 -59.5 13t-41.5 26t-36 13q-29 0 -29 -50h-116q0 172 120 172z" />
    <glyph glyph-name="Ograve" unicode="&#xd2;" horiz-adv-x="912" 
d="M456 -16q-90 0 -165.5 29t-130.5 82t-85.5 125.5t-30.5 159.5q0 84 31 156.5t87 126t131 83.5t163 30q90 0 165.5 -29t130.5 -82t85.5 -125.5t30.5 -159.5q0 -84 -31 -156.5t-87 -126t-131 -83.5t-163 -30zM659 379q0 64 -26 113.5t-71.5 78t-105.5 28.5q-59 0 -105 -28
t-72 -77t-26 -113t26 -113.5t72 -78t105 -28.5q60 0 105.5 28t71.5 77.5t26 112.5zM246 989h210l117 -154h-163z" />
    <glyph glyph-name="Oacute" unicode="&#xd3;" horiz-adv-x="912" 
d="M456 -16q-90 0 -165.5 29t-130.5 82t-85.5 125.5t-30.5 159.5q0 84 31 156.5t87 126t131 83.5t163 30q90 0 165.5 -29t130.5 -82t85.5 -125.5t30.5 -159.5q0 -84 -31 -156.5t-87 -126t-131 -83.5t-163 -30zM659 379q0 64 -26 113.5t-71.5 78t-105.5 28.5q-59 0 -105 -28
t-72 -77t-26 -113t26 -113.5t72 -78t105 -28.5q60 0 105.5 28t71.5 77.5t26 112.5zM451 989h210l-163 -154h-164z" />
    <glyph glyph-name="Ocircumflex" unicode="&#xd4;" horiz-adv-x="912" 
d="M456 -16q-90 0 -165.5 29t-130.5 82t-85.5 125.5t-30.5 159.5q0 84 31 156.5t87 126t131 83.5t163 30q90 0 165.5 -29t130.5 -82t85.5 -125.5t30.5 -159.5q0 -84 -31 -156.5t-87 -126t-131 -83.5t-163 -30zM659 379q0 64 -26 113.5t-71.5 78t-105.5 28.5q-59 0 -105 -28
t-72 -77t-26 -113t26 -113.5t72 -78t105 -28.5q60 0 105.5 28t71.5 77.5t26 112.5zM366 992h180l143 -157h-173l-60 69l-60 -69h-173z" />
    <glyph glyph-name="Otilde" unicode="&#xd5;" horiz-adv-x="912" 
d="M456 -16q-90 0 -165.5 29t-130.5 82t-85.5 125.5t-30.5 159.5q0 84 31 156.5t87 126t131 83.5t163 30q90 0 165.5 -29t130.5 -82t85.5 -125.5t30.5 -159.5q0 -84 -31 -156.5t-87 -126t-131 -83.5t-163 -30zM659 379q0 64 -26 113.5t-71.5 78t-105.5 28.5q-59 0 -105 -28
t-72 -77t-26 -113t26 -113.5t72 -78t105 -28.5q60 0 105.5 28t71.5 77.5t26 112.5zM375 1005q36 0 60 -13t42 -25.5t36 -12.5q28 0 28 49h116q0 -172 -120 -172q-36 0 -59.5 13t-41.5 26t-36 13q-29 0 -29 -50h-116q0 172 120 172z" />
    <glyph glyph-name="Odieresis" unicode="&#xd6;" horiz-adv-x="912" 
d="M456 -16q-90 0 -165.5 29t-130.5 82t-85.5 125.5t-30.5 159.5q0 84 31 156.5t87 126t131 83.5t163 30q90 0 165.5 -29t130.5 -82t85.5 -125.5t30.5 -159.5q0 -84 -31 -156.5t-87 -126t-131 -83.5t-163 -30zM659 379q0 64 -26 113.5t-71.5 78t-105.5 28.5q-59 0 -105 -28
t-72 -77t-26 -113t26 -113.5t72 -78t105 -28.5q60 0 105.5 28t71.5 77.5t26 112.5zM247 915q0 37 24.5 60t63.5 23t64 -23t25 -60t-25 -60t-64 -23t-63.5 23t-24.5 60zM488 915q0 37 25 60t63 23q40 0 64.5 -23t24.5 -60t-24.5 -60t-64.5 -23q-38 0 -63 23t-25 60z" />
    <glyph glyph-name="multiply" unicode="&#xd7;" horiz-adv-x="646" 
d="M333 240l-132 -132l-100 100l132 132l-132 132l103 102l132 -131l132 131l100 -100l-132 -131l133 -132l-105 -103z" />
    <glyph glyph-name="Oslash" unicode="&#xd8;" horiz-adv-x="912" 
d="M64.5 247q-20.5 62 -20.5 133q0 84 31 156.5t87 126t131 83.5t163 30q72 0 135.5 -19t113.5 -54l84 81l82 -80l-82 -80q37 -49 58 -111t21 -133q0 -84 -31 -156.5t-87 -126t-131 -83.5t-163 -30q-72 0 -135.5 19t-114.5 55l-84 -82l-81 80l82 80q-38 49 -58.5 111z
M456 161q60 0 105.5 28t71.5 77.5t26 112.5q0 54 -20 100l-294 -286q49 -32 111 -32zM272 281l294 286q-48 32 -110 32q-59 0 -105 -28t-72 -77t-26 -113q0 -54 19 -100z" />
    <glyph glyph-name="Ugrave" unicode="&#xd9;" horiz-adv-x="849" 
d="M75 760h202v-417q0 -182 147 -182t147 182v417h203v-431q0 -166 -90.5 -255.5t-259.5 -89.5q-168 0 -258.5 89.5t-90.5 255.5v431zM214 989h210l117 -154h-163z" />
    <glyph glyph-name="Uacute" unicode="&#xda;" horiz-adv-x="849" 
d="M75 760h202v-417q0 -182 147 -182t147 182v417h203v-431q0 -166 -90.5 -255.5t-259.5 -89.5q-168 0 -258.5 89.5t-90.5 255.5v431zM419 989h210l-163 -154h-164z" />
    <glyph glyph-name="Ucircumflex" unicode="&#xdb;" horiz-adv-x="849" 
d="M75 760h202v-417q0 -182 147 -182t147 182v417h203v-431q0 -166 -90.5 -255.5t-259.5 -89.5q-168 0 -258.5 89.5t-90.5 255.5v431zM334 992h180l143 -157h-173l-60 69l-60 -69h-173z" />
    <glyph glyph-name="Udieresis" unicode="&#xdc;" horiz-adv-x="849" 
d="M75 760h202v-417q0 -182 147 -182t147 182v417h203v-431q0 -166 -90.5 -255.5t-259.5 -89.5q-168 0 -258.5 89.5t-90.5 255.5v431zM215 915q0 37 24.5 60t63.5 23t64 -23t25 -60t-25 -60t-64 -23t-63.5 23t-24.5 60zM456 915q0 37 25 60t63 23q40 0 64.5 -23t24.5 -60
t-24.5 -60t-64.5 -23q-38 0 -63 23t-25 60z" />
    <glyph glyph-name="Yacute" unicode="&#xdd;" horiz-adv-x="764" 
d="M8 760h223l154 -302l154 302h217l-275 -451v-309h-199v309zM377 989h210l-163 -154h-164z" />
    <glyph glyph-name="Thorn" unicode="&#xde;" horiz-adv-x="683" 
d="M80 760h185v-110h91q92 0 158.5 -31.5t102.5 -89.5t36 -138q0 -122 -79 -191.5t-218 -69.5h-91v-130h-185v760zM326 277q132 0 132 113t-132 113h-61v-226h61z" />
    <glyph glyph-name="germandbls" unicode="&#xdf;" horiz-adv-x="693" 
d="M61 525q0 139 74 214.5t209 75.5q82 0 141 -27t91.5 -75.5t32.5 -115.5q0 -55 -26 -101t-71 -65q67 -20 106 -76t39 -132q0 -111 -65.5 -175t-180.5 -64q-81 0 -132 27l17 144q15 -9 40 -14.5t46 -5.5q47 0 74.5 27t27.5 72q0 47 -32 73t-92 26h-46v142h20q50 0 77 25.5
t27 72.5q0 42 -25.5 66.5t-69.5 24.5q-53 0 -80.5 -36.5t-27.5 -105.5v-522h-174v525z" />
    <glyph glyph-name="agrave" unicode="&#xe0;" horiz-adv-x="657" 
d="M596 0h-171l-2 67q-47 -83 -158 -83q-67 0 -118.5 34.5t-80.5 96t-29 141.5q0 79 31 141t84 98.5t119 36.5q50 0 90 -21.5t62 -60.5l2 66h171v-516zM424 258q0 50 -29 81.5t-74 31.5q-46 0 -75 -31.5t-29 -81.5q0 -49 29 -81t75 -32q45 0 74 32t29 81zM149 780h194
l105 -170h-150z" />
    <glyph glyph-name="aacute" unicode="&#xe1;" horiz-adv-x="657" 
d="M596 0h-171l-2 67q-47 -83 -158 -83q-67 0 -118.5 34.5t-80.5 96t-29 141.5q0 79 31 141t84 98.5t119 36.5q50 0 90 -21.5t62 -60.5l2 66h171v-516zM424 258q0 50 -29 81.5t-74 31.5q-46 0 -75 -31.5t-29 -81.5q0 -49 29 -81t75 -32q45 0 74 32t29 81zM338 780h193
l-148 -170h-150z" />
    <glyph glyph-name="acircumflex" unicode="&#xe2;" horiz-adv-x="657" 
d="M596 0h-171l-2 67q-47 -83 -158 -83q-67 0 -118.5 34.5t-80.5 96t-29 141.5q0 79 31 141t84 98.5t119 36.5q50 0 90 -21.5t62 -60.5l2 66h171v-516zM424 258q0 50 -29 81.5t-74 31.5q-46 0 -75 -31.5t-29 -81.5q0 -49 29 -81t75 -32q45 0 74 32t29 81zM261 780h158
l137 -170h-154l-62 77l-62 -77h-154z" />
    <glyph glyph-name="atilde" unicode="&#xe3;" horiz-adv-x="657" 
d="M596 0h-171l-2 67q-47 -83 -158 -83q-67 0 -118.5 34.5t-80.5 96t-29 141.5q0 79 31 141t84 98.5t119 36.5q50 0 90 -21.5t62 -60.5l2 66h171v-516zM424 258q0 50 -29 81.5t-74 31.5q-46 0 -75 -31.5t-29 -81.5q0 -49 29 -81t75 -32q45 0 74 32t29 81zM255 777
q38 0 62.5 -13.5t42.5 -27t37 -13.5q29 0 29 52h113q0 -168 -113 -168q-38 0 -62.5 13.5t-42.5 27t-38 13.5q-29 0 -29 -52h-113q0 168 114 168z" />
    <glyph glyph-name="adieresis" unicode="&#xe4;" horiz-adv-x="657" 
d="M596 0h-171l-2 67q-47 -83 -158 -83q-67 0 -118.5 34.5t-80.5 96t-29 141.5q0 79 31 141t84 98.5t119 36.5q50 0 90 -21.5t62 -60.5l2 66h171v-516zM424 258q0 50 -29 81.5t-74 31.5q-46 0 -75 -31.5t-29 -81.5q0 -49 29 -81t75 -32q45 0 74 32t29 81zM221 758
q38 0 61.5 -22.5t23.5 -57.5q0 -36 -23.5 -58t-61.5 -22t-62 22t-24 58q0 35 24.5 57.5t61.5 22.5zM459 758q38 0 62 -22.5t24 -57.5q0 -36 -24 -58t-62 -22t-61.5 22t-23.5 58q0 35 24 57.5t61 22.5z" />
    <glyph glyph-name="aring" unicode="&#xe5;" horiz-adv-x="657" 
d="M596 0h-171l-2 67q-47 -83 -158 -83q-67 0 -118.5 34.5t-80.5 96t-29 141.5q0 79 31 141t84 98.5t119 36.5q50 0 90 -21.5t62 -60.5l2 66h171v-516zM424 258q0 50 -29 81.5t-74 31.5q-46 0 -75 -31.5t-29 -81.5q0 -49 29 -81t75 -32q45 0 74 32t29 81zM340 571
q-43 0 -76.5 18.5t-53 50.5t-19.5 72q0 41 19.5 72.5t53 50t76.5 18.5t76.5 -18.5t53 -50t19.5 -72.5q0 -40 -19.5 -72t-53 -50.5t-76.5 -18.5zM379.5 751.5q-14.5 14.5 -39.5 14.5t-39.5 -14.5t-14.5 -39.5q0 -24 14.5 -39t39.5 -15t39.5 15t14.5 39q0 25 -14.5 39.5z" />
    <glyph glyph-name="ae" unicode="&#xe6;" horiz-adv-x="988" 
d="M421 516h144l1 -50q24 32 63.5 49t86.5 17q69 0 120.5 -32t80 -89.5t28.5 -134.5q0 -16 -0.5 -30t-2.5 -29h-344q13 -52 51.5 -75.5t105.5 -23.5q44 0 87.5 9.5t80.5 25.5l16 -130q-32 -17 -82.5 -28t-95.5 -11q-67 0 -118 18t-76 51l-2 -53h-144l-2 64
q-23 -39 -63 -59.5t-92 -20.5q-66 0 -117.5 34.5t-80.5 96t-29 141.5q0 79 31 141.5t84 98.5t120 36q46 0 85 -21.5t62 -57.5zM217 258q0 -49 29 -81t75 -32q45 0 74 32t29 81q0 50 -29 81.5t-74 31.5q-46 0 -75 -31.5t-29 -81.5zM775 334q-7 35 -28.5 55.5t-57.5 20.5
q-37 0 -61.5 -24.5t-31.5 -70.5h182q-1 10 -3 19z" />
    <glyph glyph-name="ccedilla" unicode="&#xe7;" horiz-adv-x="543" 
d="M478 340q-34 15 -67 22t-65 7q-61 0 -95 -29t-34 -82q0 -52 35 -81.5t97 -29.5q33 0 65.5 7.5t69.5 22.5l18 -148q-35 -20 -82.5 -31.5t-96.5 -11.5q-87 0 -151 33.5t-99.5 94.5t-35.5 142t36 143t100.5 96.5t148.5 34.5q47 0 96.5 -11t80.5 -28zM251 10h94l-19 -64
q47 -4 75 -30t28 -68q0 -53 -42 -84t-113 -31q-29 0 -61.5 6t-45.5 13l17 83q27 -11 66 -11q52 0 52 32q0 30 -55 30q-9 0 -17.5 -0.5t-14.5 -1.5z" />
    <glyph glyph-name="egrave" unicode="&#xe8;" horiz-adv-x="603" 
d="M348 -16q-97 0 -166.5 33t-107 94.5t-37.5 146.5q0 81 34 143t95 96.5t141 34.5q78 0 135 -31.5t87.5 -89t30.5 -137.5q0 -14 -1 -28t-3 -29h-343q12 -52 51.5 -75.5t107.5 -23.5q41 0 86 9.5t79 25.5l16 -130q-42 -19 -95.5 -29t-109.5 -10zM390 334q-7 35 -29 55.5
t-57 20.5q-78 0 -94 -95h182q0 10 -2 19zM112 780h194l105 -170h-150z" />
    <glyph glyph-name="eacute" unicode="&#xe9;" horiz-adv-x="603" 
d="M348 -16q-97 0 -166.5 33t-107 94.5t-37.5 146.5q0 81 34 143t95 96.5t141 34.5q78 0 135 -31.5t87.5 -89t30.5 -137.5q0 -14 -1 -28t-3 -29h-343q12 -52 51.5 -75.5t107.5 -23.5q41 0 86 9.5t79 25.5l16 -130q-42 -19 -95.5 -29t-109.5 -10zM390 334q-7 35 -29 55.5
t-57 20.5q-78 0 -94 -95h182q0 10 -2 19zM301 780h193l-148 -170h-150z" />
    <glyph glyph-name="ecircumflex" unicode="&#xea;" horiz-adv-x="603" 
d="M348 -16q-97 0 -166.5 33t-107 94.5t-37.5 146.5q0 81 34 143t95 96.5t141 34.5q78 0 135 -31.5t87.5 -89t30.5 -137.5q0 -14 -1 -28t-3 -29h-343q12 -52 51.5 -75.5t107.5 -23.5q41 0 86 9.5t79 25.5l16 -130q-42 -19 -95.5 -29t-109.5 -10zM390 334q-7 35 -29 55.5
t-57 20.5q-78 0 -94 -95h182q0 10 -2 19zM224 780h158l137 -170h-154l-62 77l-62 -77h-154z" />
    <glyph glyph-name="edieresis" unicode="&#xeb;" horiz-adv-x="603" 
d="M348 -16q-97 0 -166.5 33t-107 94.5t-37.5 146.5q0 81 34 143t95 96.5t141 34.5q78 0 135 -31.5t87.5 -89t30.5 -137.5q0 -14 -1 -28t-3 -29h-343q12 -52 51.5 -75.5t107.5 -23.5q41 0 86 9.5t79 25.5l16 -130q-42 -19 -95.5 -29t-109.5 -10zM390 334q-7 35 -29 55.5
t-57 20.5q-78 0 -94 -95h182q0 10 -2 19zM184 758q38 0 61.5 -22.5t23.5 -57.5q0 -36 -23.5 -58t-61.5 -22t-62 22t-24 58q0 35 24.5 57.5t61.5 22.5zM422 758q38 0 62 -22.5t24 -57.5q0 -36 -24 -58t-62 -22t-61.5 22t-23.5 58q0 35 24 57.5t61 22.5z" />
    <glyph glyph-name="igrave" unicode="&#xec;" horiz-adv-x="303" 
d="M61 516h181v-516h-181v516zM-40 780h194l105 -170h-150z" />
    <glyph glyph-name="iacute" unicode="&#xed;" horiz-adv-x="303" 
d="M61 516h181v-516h-181v516zM149 780h193l-148 -170h-150z" />
    <glyph glyph-name="icircumflex" unicode="&#xee;" horiz-adv-x="303" 
d="M61 516h181v-516h-181v516zM72 780h158l137 -170h-154l-62 77l-62 -77h-154z" />
    <glyph glyph-name="idieresis" unicode="&#xef;" horiz-adv-x="303" 
d="M61 516h181v-516h-181v516zM32 758q38 0 61.5 -22.5t23.5 -57.5q0 -36 -23.5 -58t-61.5 -22t-62 22t-24 58q0 35 24.5 57.5t61.5 22.5zM270 758q38 0 62 -22.5t24 -57.5q0 -36 -24 -58t-62 -22t-61.5 22t-23.5 58q0 35 24 57.5t61 22.5z" />
    <glyph glyph-name="eth" unicode="&#xf0;" horiz-adv-x="641" 
d="M603 295q0 -148 -75.5 -229.5t-213.5 -81.5q-81 0 -143.5 34t-98 94.5t-35.5 139.5q0 74 32 133.5t86.5 95t121.5 35.5q65 0 110 -35q-14 33 -34.5 66.5t-44.5 66.5l-159 -62l-33 86l129 51q-57 60 -122 109l213 14q35 -30 65 -62l120 47l33 -86l-90 -35
q66 -86 102.5 -182.5t36.5 -198.5zM426 252q0 49 -29 79.5t-76 30.5t-76.5 -30.5t-29.5 -79.5t29.5 -79.5t76.5 -30.5t76 30.5t29 79.5z" />
    <glyph glyph-name="ntilde" unicode="&#xf1;" horiz-adv-x="625" 
d="M61 516h177l2 -65q21 39 60 60t90 21q86 0 132 -55.5t46 -162.5v-314h-181v280q0 91 -69 91q-37 0 -56.5 -25.5t-19.5 -72.5v-273h-181v516zM231 777q38 0 62.5 -13.5t42.5 -27t37 -13.5q29 0 29 52h113q0 -168 -113 -168q-38 0 -62.5 13.5t-42.5 27t-38 13.5
q-29 0 -29 -52h-113q0 168 114 168z" />
    <glyph glyph-name="ograve" unicode="&#xf2;" horiz-adv-x="641" 
d="M321 -16q-82 0 -146 35.5t-101 97.5t-37 141t37 141t101.5 97.5t145.5 35.5q82 0 145.5 -35.5t100.5 -97t37 -141.5q0 -79 -37 -141t-101 -97.5t-145 -35.5zM395 339.5q-29 31.5 -74 31.5q-46 0 -75 -31.5t-29 -81.5q0 -49 29 -81t75 -32q45 0 74 32t29 81q0 50 -29 81.5
zM130 780h194l105 -170h-150z" />
    <glyph glyph-name="oacute" unicode="&#xf3;" horiz-adv-x="641" 
d="M321 -16q-82 0 -146 35.5t-101 97.5t-37 141t37 141t101.5 97.5t145.5 35.5q82 0 145.5 -35.5t100.5 -97t37 -141.5q0 -79 -37 -141t-101 -97.5t-145 -35.5zM395 339.5q-29 31.5 -74 31.5q-46 0 -75 -31.5t-29 -81.5q0 -49 29 -81t75 -32q45 0 74 32t29 81q0 50 -29 81.5
zM319 780h193l-148 -170h-150z" />
    <glyph glyph-name="ocircumflex" unicode="&#xf4;" horiz-adv-x="641" 
d="M321 -16q-82 0 -146 35.5t-101 97.5t-37 141t37 141t101.5 97.5t145.5 35.5q82 0 145.5 -35.5t100.5 -97t37 -141.5q0 -79 -37 -141t-101 -97.5t-145 -35.5zM395 339.5q-29 31.5 -74 31.5q-46 0 -75 -31.5t-29 -81.5q0 -49 29 -81t75 -32q45 0 74 32t29 81q0 50 -29 81.5
zM242 780h158l137 -170h-154l-62 77l-62 -77h-154z" />
    <glyph glyph-name="otilde" unicode="&#xf5;" horiz-adv-x="641" 
d="M321 -16q-82 0 -146 35.5t-101 97.5t-37 141t37 141t101.5 97.5t145.5 35.5q82 0 145.5 -35.5t100.5 -97t37 -141.5q0 -79 -37 -141t-101 -97.5t-145 -35.5zM395 339.5q-29 31.5 -74 31.5q-46 0 -75 -31.5t-29 -81.5q0 -49 29 -81t75 -32q45 0 74 32t29 81q0 50 -29 81.5
zM236 777q38 0 62.5 -13.5t42.5 -27t37 -13.5q29 0 29 52h113q0 -168 -113 -168q-38 0 -62.5 13.5t-42.5 27t-38 13.5q-29 0 -29 -52h-113q0 168 114 168z" />
    <glyph glyph-name="odieresis" unicode="&#xf6;" horiz-adv-x="641" 
d="M321 -16q-82 0 -146 35.5t-101 97.5t-37 141t37 141t101.5 97.5t145.5 35.5q82 0 145.5 -35.5t100.5 -97t37 -141.5q0 -79 -37 -141t-101 -97.5t-145 -35.5zM395 339.5q-29 31.5 -74 31.5q-46 0 -75 -31.5t-29 -81.5q0 -49 29 -81t75 -32q45 0 74 32t29 81q0 50 -29 81.5
zM202 758q38 0 61.5 -22.5t23.5 -57.5q0 -36 -23.5 -58t-61.5 -22t-62 22t-24 58q0 35 24.5 57.5t61.5 22.5zM440 758q38 0 62 -22.5t24 -57.5q0 -36 -24 -58t-62 -22t-61.5 22t-23.5 58q0 35 24 57.5t61 22.5z" />
    <glyph glyph-name="divide" unicode="&#xf7;" horiz-adv-x="646" 
d="M94 267v138h482v-138h-482zM274.5 189q23.5 21 60.5 21q38 0 61 -21t23 -56q0 -33 -23 -54.5t-61 -21.5q-37 0 -60.5 21.5t-23.5 54.5q0 35 23.5 56zM274.5 593q23.5 21 60.5 21q38 0 61 -21t23 -55t-23 -55t-61 -21q-37 0 -60.5 21t-23.5 55t23.5 55z" />
    <glyph glyph-name="oslash" unicode="&#xf8;" horiz-adv-x="641" 
d="M74 399q37 62 101.5 97.5t145.5 35.5q48 0 91 -13t77 -36l57 55l60 -60l-55 -54q25 -34 39 -76t14 -90q0 -79 -37 -141t-101 -97.5t-145 -35.5q-49 0 -91.5 13t-77.5 37l-57 -56l-61 60l56 55q-25 33 -39 75t-14 90q0 79 37 141zM321 117q57 0 93 39.5t36 101.5
q0 31 -10 58l-185 -182q29 -17 66 -17zM201 201l185 181q-29 17 -65 17q-57 0 -93.5 -39.5t-36.5 -101.5q0 -31 10 -57z" />
    <glyph glyph-name="ugrave.alt" unicode="&#xf9;" horiz-adv-x="624" 
d="M563 0h-178l-2 63q-20 -38 -60 -58.5t-92 -20.5q-85 0 -130 54.5t-45 159.5v318h181v-281q0 -90 70 -90q36 0 55.5 25.5t19.5 72.5v273h181v-516zM115 780h194l105 -170h-150z" />
    <glyph glyph-name="uacute.alt" unicode="&#xfa;" horiz-adv-x="624" 
d="M563 0h-178l-2 63q-20 -38 -60 -58.5t-92 -20.5q-85 0 -130 54.5t-45 159.5v318h181v-281q0 -90 70 -90q36 0 55.5 25.5t19.5 72.5v273h181v-516zM304 780h193l-148 -170h-150z" />
    <glyph glyph-name="ucircumflex.alt" unicode="&#xfb;" horiz-adv-x="624" 
d="M563 0h-178l-2 63q-20 -38 -60 -58.5t-92 -20.5q-85 0 -130 54.5t-45 159.5v318h181v-281q0 -90 70 -90q36 0 55.5 25.5t19.5 72.5v273h181v-516zM227 780h158l137 -170h-154l-62 77l-62 -77h-154z" />
    <glyph glyph-name="udieresis.alt" unicode="&#xfc;" horiz-adv-x="624" 
d="M563 0h-178l-2 63q-20 -38 -60 -58.5t-92 -20.5q-85 0 -130 54.5t-45 159.5v318h181v-281q0 -90 70 -90q36 0 55.5 25.5t19.5 72.5v273h181v-516zM187 758q38 0 61.5 -22.5t23.5 -57.5q0 -36 -23.5 -58t-61.5 -22t-62 22t-24 58q0 35 24.5 57.5t61.5 22.5zM425 758
q38 0 62 -22.5t24 -57.5q0 -36 -24 -58t-62 -22t-61.5 22t-23.5 58q0 35 24 57.5t61 22.5z" />
    <glyph glyph-name="yacute" unicode="&#xfd;" horiz-adv-x="620" 
d="M278 -245h-182l129 273l-212 488h199l105 -303l97 303h193zM310 780h193l-148 -170h-150z" />
    <glyph glyph-name="thorn" unicode="&#xfe;" horiz-adv-x="657" 
d="M61 810h181v-348q51 70 149 70q67 0 118.5 -34.5t81 -96t29.5 -141.5q0 -78 -31 -140.5t-83.5 -99t-119.5 -36.5q-94 0 -144 68v-297h-181v1055zM411 177q29 32 29 81q0 50 -29 81.5t-75 31.5t-75 -31.5t-29 -81.5q0 -49 29 -81t75 -32t75 32z" />
    <glyph glyph-name="ydieresis" unicode="&#xff;" horiz-adv-x="620" 
d="M278 -245h-182l129 273l-212 488h199l105 -303l97 303h193zM193 758q38 0 61.5 -22.5t23.5 -57.5q0 -36 -23.5 -58t-61.5 -22t-62 22t-24 58q0 35 24.5 57.5t61.5 22.5zM431 758q38 0 62 -22.5t24 -57.5q0 -36 -24 -58t-62 -22t-61.5 22t-23.5 58q0 35 24 57.5t61 22.5z
" />
    <glyph glyph-name="Amacron" unicode="&#x100;" horiz-adv-x="847" 
d="M319 760h209l298 -760h-212l-59 177h-276l-59 -177h-199zM505 328l-88 267l-88 -267h176zM252 963h343v-123h-343v123z" />
    <glyph glyph-name="amacron" unicode="&#x101;" horiz-adv-x="657" 
d="M596 0h-171l-2 67q-47 -83 -158 -83q-67 0 -118.5 34.5t-80.5 96t-29 141.5q0 79 31 141t84 98.5t119 36.5q50 0 90 -21.5t62 -60.5l2 66h171v-516zM424 258q0 50 -29 81.5t-74 31.5q-46 0 -75 -31.5t-29 -81.5q0 -49 29 -81t75 -32q45 0 74 32t29 81zM172 740h336v-120
h-336v120z" />
    <glyph glyph-name="Abreve" unicode="&#x102;" horiz-adv-x="847" 
d="M319 760h209l298 -760h-212l-59 177h-276l-59 -177h-199zM505 328l-88 267l-88 -267h176zM229 977q0 8 1 13h125v-7q0 -27 18.5 -44t49.5 -17t49.5 17t18.5 44v7h125q1 -5 1 -13q0 -74 -52.5 -117.5t-141.5 -43.5t-141.5 43.5t-52.5 117.5z" />
    <glyph glyph-name="abreve" unicode="&#x103;" horiz-adv-x="657" 
d="M596 0h-171l-2 67q-47 -83 -158 -83q-67 0 -118.5 34.5t-80.5 96t-29 141.5q0 79 31 141t84 98.5t119 36.5q50 0 90 -21.5t62 -60.5l2 66h171v-516zM424 258q0 50 -29 81.5t-74 31.5q-46 0 -75 -31.5t-29 -81.5q0 -49 29 -81t75 -32q45 0 74 32t29 81zM150 751q0 8 1 14
h118v-6q0 -33 18.5 -51t52.5 -18t52.5 18.5t18.5 50.5v6h118q1 -6 1 -14q0 -76 -50.5 -120t-139.5 -44q-88 0 -139 44t-51 120z" />
    <glyph glyph-name="Aogonek" unicode="&#x104;" horiz-adv-x="847" 
d="M319 760h209l298 -760h-212l-59 177h-276l-59 -177h-199zM505 328l-88 267l-88 -267h176zM832 -244q-13 -9 -38 -14.5t-51 -5.5q-66 0 -102.5 30t-36.5 84q0 53 44 104t124 90l53 -44q-79 -60 -79 -105q0 -32 38 -32q20 0 38 10z" />
    <glyph glyph-name="aogonek" unicode="&#x105;" horiz-adv-x="657" 
d="M596 0h-171l-2 67q-47 -83 -158 -83q-67 0 -118.5 34.5t-80.5 96t-29 141.5q0 79 31 141t84 98.5t119 36.5q50 0 90 -21.5t62 -60.5l2 66h171v-516zM424 258q0 50 -29 81.5t-74 31.5q-46 0 -75 -31.5t-29 -81.5q0 -49 29 -81t75 -32q45 0 74 32t29 81zM603 -244
q-13 -9 -38 -14.5t-51 -5.5q-66 0 -102.5 30t-36.5 84q0 53 44 104t123 90l54 -44q-45 -32 -65 -57t-20 -49q0 -16 11 -25.5t30 -9.5q11 0 22 2.5t20 6.5z" />
    <glyph glyph-name="Cacute" unicode="&#x106;" horiz-adv-x="759" 
d="M44 378q0 87 30.5 159t86 124.5t132 81t168.5 28.5q65 0 130.5 -16t110.5 -43l-32 -167q-47 23 -98 36t-98 13q-102 0 -161.5 -58.5t-59.5 -156.5t59.5 -155.5t162.5 -57.5q48 0 106 16.5t106 42.5l21 -174q-46 -28 -115 -45t-137 -17q-127 0 -219.5 47.5t-142.5 134.5
t-50 207zM413 989h210l-163 -154h-164z" />
    <glyph glyph-name="cacute" unicode="&#x107;" horiz-adv-x="543" 
d="M478 340q-34 15 -67 22t-65 7q-61 0 -95 -29t-34 -82q0 -52 35 -81.5t97 -29.5q33 0 65.5 7.5t69.5 22.5l18 -148q-35 -20 -82.5 -31.5t-96.5 -11.5q-87 0 -151 33.5t-99.5 94.5t-35.5 142t36 143t100.5 96.5t148.5 34.5q47 0 96.5 -11t80.5 -28zM294 780h193l-148 -170
h-150z" />
    <glyph glyph-name="Cdotaccent" unicode="&#x10a;" horiz-adv-x="759" 
d="M44 378q0 87 30.5 159t86 124.5t132 81t168.5 28.5q65 0 130.5 -16t110.5 -43l-32 -167q-47 23 -98 36t-98 13q-102 0 -161.5 -58.5t-59.5 -156.5t59.5 -155.5t162.5 -57.5q48 0 106 16.5t106 42.5l21 -174q-46 -28 -115 -45t-137 -17q-127 0 -219.5 47.5t-142.5 134.5
t-50 207zM418 1017q45 0 72.5 -26t27.5 -68q0 -41 -27.5 -67.5t-72.5 -26.5t-72.5 26t-27.5 68q0 41 28 67.5t72 26.5z" />
    <glyph glyph-name="cdotaccent" unicode="&#x10b;" horiz-adv-x="543" 
d="M478 340q-34 15 -67 22t-65 7q-61 0 -95 -29t-34 -82q0 -52 35 -81.5t97 -29.5q33 0 65.5 7.5t69.5 22.5l18 -148q-35 -20 -82.5 -31.5t-96.5 -11.5q-87 0 -151 33.5t-99.5 94.5t-35.5 142t36 143t100.5 96.5t148.5 34.5q47 0 96.5 -11t80.5 -28zM202 685q0 40 25.5 64.5
t68.5 24.5t69 -24t26 -65q0 -40 -26 -64.5t-69 -24.5t-68.5 24.5t-25.5 64.5z" />
    <glyph glyph-name="Ccaron" unicode="&#x10c;" horiz-adv-x="759" 
d="M44 378q0 87 30.5 159t86 124.5t132 81t168.5 28.5q65 0 130.5 -16t110.5 -43l-32 -167q-47 23 -98 36t-98 13q-102 0 -161.5 -58.5t-59.5 -156.5t59.5 -155.5t162.5 -57.5q48 0 106 16.5t106 42.5l21 -174q-46 -28 -115 -45t-137 -17q-127 0 -219.5 47.5t-142.5 134.5
t-50 207zM185 992h173l60 -69l60 69h173l-143 -157h-180z" />
    <glyph glyph-name="ccaron" unicode="&#x10d;" horiz-adv-x="543" 
d="M478 340q-34 15 -67 22t-65 7q-61 0 -95 -29t-34 -82q0 -52 35 -81.5t97 -29.5q33 0 65.5 7.5t69.5 22.5l18 -148q-35 -20 -82.5 -31.5t-96.5 -11.5q-87 0 -151 33.5t-99.5 94.5t-35.5 142t36 143t100.5 96.5t148.5 34.5q47 0 96.5 -11t80.5 -28zM80 780h154l62 -77
l62 77h154l-137 -170h-158z" />
    <glyph glyph-name="Dcaron" unicode="&#x10e;" horiz-adv-x="858" 
d="M80 760h303q208 0 319.5 -98.5t111.5 -281.5q0 -120 -51.5 -205t-149 -130t-235.5 -45h-298v760zM371 159q235 0 235 221t-235 221h-92v-442h92zM160 992h173l60 -69l60 69h173l-143 -157h-180z" />
    <glyph glyph-name="dcaron" unicode="&#x10f;" horiz-adv-x="657" 
d="M596 0h-171l-2 66q-24 -39 -64.5 -60.5t-93.5 -21.5q-67 0 -118.5 34.5t-80.5 96t-29 141.5q0 79 31 141t84 98.5t119 36.5q93 0 144 -70v348h181v-810zM395 177q29 32 29 81q0 50 -29 81.5t-74 31.5q-46 0 -75 -31.5t-29 -81.5q0 -49 29 -81t75 -32q45 0 74 32zM671 810
h166l-62 -245h-116z" />
    <glyph glyph-name="Dcroat" unicode="&#x110;" horiz-adv-x="881" 
d="M103 0v320h-82v125h82v315h304q208 0 319.5 -98.5t111.5 -281.5q0 -120 -51.5 -205t-149 -130t-235.5 -45h-299zM302 320v-161h92q236 0 236 221t-235 221h-93v-156h137v-125h-137z" />
    <glyph glyph-name="dcroat" unicode="&#x111;" horiz-adv-x="657" 
d="M596 0h-171l-2 66q-24 -39 -64.5 -60.5t-93.5 -21.5q-67 0 -118.5 34.5t-80.5 96t-29 141.5q0 79 31 141t84 98.5t119 36.5q93 0 144 -70v145h-138v101h138v102h181v-102h73v-101h-73v-607zM217 258q0 -49 29 -81t75 -32q45 0 74 32t29 81q0 50 -29 81.5t-74 31.5
q-46 0 -75 -31.5t-29 -81.5z" />
    <glyph glyph-name="Emacron" unicode="&#x112;" horiz-adv-x="679" 
d="M80 760h528v-153h-344v-146h303v-153h-303v-155h358v-153h-542v760zM181 963h343v-123h-343v123z" />
    <glyph glyph-name="emacron" unicode="&#x113;" horiz-adv-x="603" 
d="M348 -16q-97 0 -166.5 33t-107 94.5t-37.5 146.5q0 81 34 143t95 96.5t141 34.5q78 0 135 -31.5t87.5 -89t30.5 -137.5q0 -14 -1 -28t-3 -29h-343q12 -52 51.5 -75.5t107.5 -23.5q41 0 86 9.5t79 25.5l16 -130q-42 -19 -95.5 -29t-109.5 -10zM390 334q-7 35 -29 55.5
t-57 20.5q-78 0 -94 -95h182q0 10 -2 19zM135 740h336v-120h-336v120z" />
    <glyph glyph-name="Edotaccent" unicode="&#x116;" horiz-adv-x="679" 
d="M80 760h528v-153h-344v-146h303v-153h-303v-155h358v-153h-542v760zM352 1017q45 0 72.5 -26t27.5 -68q0 -41 -27.5 -67.5t-72.5 -26.5t-72.5 26t-27.5 68q0 41 28 67.5t72 26.5z" />
    <glyph glyph-name="edotaccent" unicode="&#x117;" horiz-adv-x="603" 
d="M348 -16q-97 0 -166.5 33t-107 94.5t-37.5 146.5q0 81 34 143t95 96.5t141 34.5q78 0 135 -31.5t87.5 -89t30.5 -137.5q0 -14 -1 -28t-3 -29h-343q12 -52 51.5 -75.5t107.5 -23.5q41 0 86 9.5t79 25.5l16 -130q-42 -19 -95.5 -29t-109.5 -10zM390 334q-7 35 -29 55.5
t-57 20.5q-78 0 -94 -95h182q0 10 -2 19zM209 685q0 40 25.5 64.5t68.5 24.5t69 -24t26 -65q0 -40 -26 -64.5t-69 -24.5t-68.5 24.5t-25.5 64.5z" />
    <glyph glyph-name="Eogonek" unicode="&#x118;" horiz-adv-x="679" 
d="M80 760h528v-153h-344v-146h303v-153h-303v-155h358v-153h-542v760zM629 -244q-13 -9 -38 -14.5t-51 -5.5q-66 0 -102.5 30t-36.5 84q0 53 44 104t124 90l53 -44q-79 -60 -79 -105q0 -32 38 -32q20 0 38 10z" />
    <glyph glyph-name="eogonek" unicode="&#x119;" horiz-adv-x="603" 
d="M348 -16q-97 0 -166.5 33t-107 94.5t-37.5 146.5q0 81 34 143t95 96.5t141 34.5q78 0 135 -31.5t87.5 -89t30.5 -137.5q0 -14 -1 -28t-3 -29h-343q12 -52 51.5 -75.5t107.5 -23.5q41 0 86 9.5t79 25.5l16 -130q-42 -19 -95.5 -29t-109.5 -10zM390 334q-7 35 -29 55.5
t-57 20.5q-78 0 -94 -95h182q0 10 -2 19zM547 -244q-13 -9 -38 -14.5t-51 -5.5q-67 0 -104 29.5t-37 81.5q0 59 45 108.5t132 85.5l59 -18q-48 -32 -74 -65t-26 -62q0 -37 41 -37q25 0 43 10z" />
    <glyph glyph-name="Ecaron" unicode="&#x11a;" horiz-adv-x="679" 
d="M80 760h528v-153h-344v-146h303v-153h-303v-155h358v-153h-542v760zM119 992h173l60 -69l60 69h173l-143 -157h-180z" />
    <glyph glyph-name="ecaron" unicode="&#x11b;" horiz-adv-x="603" 
d="M348 -16q-97 0 -166.5 33t-107 94.5t-37.5 146.5q0 81 34 143t95 96.5t141 34.5q78 0 135 -31.5t87.5 -89t30.5 -137.5q0 -14 -1 -28t-3 -29h-343q12 -52 51.5 -75.5t107.5 -23.5q41 0 86 9.5t79 25.5l16 -130q-42 -19 -95.5 -29t-109.5 -10zM390 334q-7 35 -29 55.5
t-57 20.5q-78 0 -94 -95h182q0 10 -2 19zM87 780h154l62 -77l62 77h154l-137 -170h-158z" />
    <glyph glyph-name="Gbreve" unicode="&#x11e;" horiz-adv-x="827" 
d="M766 48q-64 -28 -141 -43.5t-156 -15.5q-130 0 -225.5 46.5t-147.5 131.5t-52 202q0 122 55.5 212t155.5 140t235 50q68 0 138 -15.5t125 -42.5l-32 -161q-115 51 -233 51q-74 0 -129 -28t-85 -78.5t-30 -119.5q0 -106 63 -164.5t176 -58.5q26 0 51 3.5t51 9.5v124h-129
v147h310v-390zM243 977q0 8 1 13h125v-7q0 -27 18.5 -44t49.5 -17t49.5 17t18.5 44v7h125q1 -5 1 -13q0 -74 -52.5 -117.5t-141.5 -43.5t-141.5 43.5t-52.5 117.5z" />
    <glyph glyph-name="gbreve" unicode="&#x11f;" horiz-adv-x="657" 
d="M596 42q0 -145 -75.5 -220.5t-222.5 -75.5q-37 0 -76 5.5t-72.5 15t-54.5 21.5l19 148q31 -17 76 -28.5t83 -11.5q150 0 150 140v38q-50 -81 -156 -81q-68 0 -120 34t-81 94.5t-29 138.5t31 139.5t84 97t120 35.5q49 0 88.5 -21.5t62.5 -60.5l2 66h171v-474zM424 262
q0 50 -29 81.5t-74 31.5q-46 0 -75 -31.5t-29 -81.5q0 -49 29 -81t75 -32q45 0 74 32t29 81zM150 751q0 8 1 14h118v-6q0 -33 18.5 -51t52.5 -18t52.5 18.5t18.5 50.5v6h118q1 -6 1 -14q0 -76 -50.5 -120t-139.5 -44q-88 0 -139 44t-51 120z" />
    <glyph glyph-name="Gdotaccent" unicode="&#x120;" horiz-adv-x="827" 
d="M766 48q-64 -28 -141 -43.5t-156 -15.5q-130 0 -225.5 46.5t-147.5 131.5t-52 202q0 122 55.5 212t155.5 140t235 50q68 0 138 -15.5t125 -42.5l-32 -161q-115 51 -233 51q-74 0 -129 -28t-85 -78.5t-30 -119.5q0 -106 63 -164.5t176 -58.5q26 0 51 3.5t51 9.5v124h-129
v147h310v-390zM437 1017q45 0 72.5 -26t27.5 -68q0 -41 -27.5 -67.5t-72.5 -26.5t-72.5 26t-27.5 68q0 41 28 67.5t72 26.5z" />
    <glyph glyph-name="gdotaccent" unicode="&#x121;" horiz-adv-x="657" 
d="M596 42q0 -145 -75.5 -220.5t-222.5 -75.5q-37 0 -76 5.5t-72.5 15t-54.5 21.5l19 148q31 -17 76 -28.5t83 -11.5q150 0 150 140v38q-50 -81 -156 -81q-68 0 -120 34t-81 94.5t-29 138.5t31 139.5t84 97t120 35.5q49 0 88.5 -21.5t62.5 -60.5l2 66h171v-474zM424 262
q0 50 -29 81.5t-74 31.5q-46 0 -75 -31.5t-29 -81.5q0 -49 29 -81t75 -32q45 0 74 32t29 81zM246 685q0 40 25.5 64.5t68.5 24.5t69 -24t26 -65q0 -40 -26 -64.5t-69 -24.5t-68.5 24.5t-25.5 64.5z" />
    <glyph glyph-name="uni0122" unicode="&#x122;" horiz-adv-x="827" 
d="M766 48q-64 -28 -141 -43.5t-156 -15.5q-130 0 -225.5 46.5t-147.5 131.5t-52 202q0 122 55.5 212t155.5 140t235 50q68 0 138 -15.5t125 -42.5l-32 -161q-115 51 -233 51q-74 0 -129 -28t-85 -78.5t-30 -119.5q0 -106 63 -164.5t176 -58.5q26 0 51 3.5t51 9.5v124h-129
v147h310v-390zM361 -62h163q0 -31 -10 -67t-25 -67.5t-34 -52.5h-135q18 39 29.5 91t11.5 96z" />
    <glyph glyph-name="uni0123" unicode="&#x123;" horiz-adv-x="657" 
d="M596 42q0 -145 -75.5 -220.5t-222.5 -75.5q-37 0 -76 5.5t-72.5 15t-54.5 21.5l19 148q31 -17 76 -28.5t83 -11.5q150 0 150 140v38q-50 -81 -156 -81q-68 0 -120 34t-81 94.5t-29 138.5t31 139.5t84 97t120 35.5q49 0 88.5 -21.5t62.5 -60.5l2 66h171v-474zM424 262
q0 50 -29 81.5t-74 31.5q-46 0 -75 -31.5t-29 -81.5q0 -49 29 -81t75 -32q45 0 74 32t29 81zM314 792h126q-18 -39 -28.5 -87.5t-11.5 -94.5h-154q1 47 20 98.5t48 83.5z" />
    <glyph glyph-name="Hbar" unicode="&#x126;" horiz-adv-x="903" 
d="M101 540h-80v117h80v103h203v-103h295v103h203v-103h80v-117h-80v-540h-203v274h-295v-274h-203v540zM599 436v104h-295v-104h295z" />
    <glyph glyph-name="hbar" unicode="&#x127;" horiz-adv-x="625" 
d="M61 607h-76v101h76v102h181v-102h133v-101h-133v-152q21 37 59.5 57t88.5 20q86 0 132 -55.5t46 -162.5v-314h-181v280q0 91 -69 91q-37 0 -56.5 -25.5t-19.5 -72.5v-273h-181v607z" />
    <glyph glyph-name="Itilde" unicode="&#x128;" horiz-adv-x="362" 
d="M80 760h202v-760h-202v760zM100 1005q36 0 60 -13t42 -25.5t36 -12.5q28 0 28 49h116q0 -172 -120 -172q-36 0 -59.5 13t-41.5 26t-36 13q-29 0 -29 -50h-116q0 172 120 172z" />
    <glyph glyph-name="itilde" unicode="&#x129;" horiz-adv-x="303" 
d="M61 516h181v-516h-181v516zM66 777q38 0 62.5 -13.5t42.5 -27t37 -13.5q29 0 29 52h113q0 -168 -113 -168q-38 0 -62.5 13.5t-42.5 27t-38 13.5q-29 0 -29 -52h-113q0 168 114 168z" />
    <glyph glyph-name="Imacron" unicode="&#x12a;" horiz-adv-x="362" 
d="M80 760h202v-760h-202v760zM10 963h343v-123h-343v123z" />
    <glyph glyph-name="imacron" unicode="&#x12b;" horiz-adv-x="303" 
d="M61 516h181v-516h-181v516zM-17 740h336v-120h-336v120z" />
    <glyph glyph-name="Iogonek" unicode="&#x12e;" horiz-adv-x="362" 
d="M80 760h202v-760h-202v760zM289 -244q-13 -9 -38 -14.5t-51 -5.5q-66 0 -102.5 30t-36.5 84q0 53 44 104t124 90l53 -44q-79 -60 -79 -105q0 -32 38 -32q20 0 38 10z" />
    <glyph glyph-name="iogonek" unicode="&#x12f;" horiz-adv-x="303" 
d="M61 516h181v-516h-181v516zM49 693q0 42 29.5 69.5t72.5 27.5t72 -27.5t29 -69.5q0 -40 -29 -68t-72 -28t-72.5 28t-29.5 68zM249 -244q-13 -9 -38 -14.5t-51 -5.5q-66 0 -102.5 30t-36.5 84q0 53 44 104t123 90l54 -44q-45 -32 -65 -57t-20 -49q0 -16 11 -25.5t30 -9.5
q11 0 22 2.5t20 6.5z" />
    <glyph glyph-name="Idotaccent" unicode="&#x130;" horiz-adv-x="362" 
d="M80 760h202v-760h-202v760zM181 1017q45 0 72.5 -26t27.5 -68q0 -41 -27.5 -67.5t-72.5 -26.5t-72.5 26t-27.5 68q0 41 28 67.5t72 26.5z" />
    <glyph glyph-name="dotlessi" unicode="&#x131;" horiz-adv-x="303" 
d="M61 516h181v-516h-181v516z" />
    <glyph glyph-name="IJ" unicode="&#x132;" horiz-adv-x="944" 
d="M80 760h202v-760h-202v760zM870 270q0 -286 -280 -286q-55 0 -108 11.5t-85 30.5l18 155q65 -33 135 -33q63 0 90 31t27 103v478h203v-490z" />
    <glyph glyph-name="ij.alt" unicode="&#x133;" horiz-adv-x="606" 
d="M61 516h181v-516h-181v516zM49 693q0 42 29.5 69.5t72.5 27.5t72 -27.5t29 -69.5q0 -40 -29 -68t-72 -28t-72.5 28t-29.5 68zM545 -18q0 -116 -56 -176t-164 -60q-39 0 -76.5 7t-58.5 19l18 147q38 -16 77 -16q41 0 60 22t19 71v520h181v-534zM352 693q0 42 29.5 69.5
t72.5 27.5t72 -27.5t29 -69.5q0 -40 -29 -68t-72 -28t-72.5 28t-29.5 68z" />
    <glyph glyph-name="uni0136" unicode="&#x136;" horiz-adv-x="816" 
d="M80 760h199v-312l260 312h240l-323 -363l354 -397h-261l-270 326v-326h-199v760zM350 -62h163q0 -31 -10 -67t-25 -67.5t-34 -52.5h-135q18 39 29.5 91t11.5 96z" />
    <glyph glyph-name="uni0137" unicode="&#x137;" horiz-adv-x="643" 
d="M61 810h181v-483l158 189h209l-208 -231l243 -285h-223l-179 223v-223h-181v810zM247 -62h159q0 -31 -9.5 -67t-25 -67.5t-34.5 -52.5h-131q18 39 29.5 91t11.5 96z" />
    <glyph glyph-name="kgreenlandic" unicode="&#x138;" horiz-adv-x="643" 
d="M61 516h181v-197l159 197h208l-212 -238l247 -278h-231l-171 206v-206h-181v516z" />
    <glyph glyph-name="Lacute" unicode="&#x139;" horiz-adv-x="639" 
d="M80 760h202v-597h322v-163h-524v760zM176 989h210l-163 -154h-164z" />
    <glyph glyph-name="lacute" unicode="&#x13a;" horiz-adv-x="303" 
d="M61 810h181v-810h-181v810zM146 1004h210l-163 -154h-164z" />
    <glyph glyph-name="uni013B" unicode="&#x13b;" horiz-adv-x="639" 
d="M80 760h202v-597h322v-163h-524v760zM266 -62h163q0 -31 -10 -67t-25 -67.5t-34 -52.5h-135q18 39 29.5 91t11.5 96z" />
    <glyph glyph-name="uni013C" unicode="&#x13c;" horiz-adv-x="303" 
d="M61 810h181v-810h-181v810zM79 -62h159q0 -31 -9.5 -67t-25 -67.5t-34.5 -52.5h-131q18 39 29.5 91t11.5 96z" />
    <glyph glyph-name="Lcaron" unicode="&#x13d;" horiz-adv-x="639" 
d="M80 760h202v-597h322v-163h-524v760zM372 810h166l-62 -245h-116z" />
    <glyph glyph-name="lcaron" unicode="&#x13e;" horiz-adv-x="303" 
d="M61 810h181v-810h-181v810zM317 810h166l-62 -245h-116z" />
    <glyph glyph-name="Lslash" unicode="&#x141;" horiz-adv-x="681" 
d="M121 760h203v-269l175 103l11 -152l-186 -109v-170h322v-163h-525v223l-88 -51l-10 152l98 57v379z" />
    <glyph glyph-name="lslash" unicode="&#x142;" horiz-adv-x="379" 
d="M99 810h181v-319l86 39l2 -129l-88 -39v-362h-181v281l-86 -39l-2 129l88 39v400z" />
    <glyph glyph-name="Nacute" unicode="&#x143;" horiz-adv-x="857" 
d="M80 760h172l342 -464v464h184v-760h-173l-342 463v-463h-183v760zM416 989h210l-163 -154h-164z" />
    <glyph glyph-name="nacute" unicode="&#x144;" horiz-adv-x="625" 
d="M61 516h177l2 -65q21 39 60 60t90 21q86 0 132 -55.5t46 -162.5v-314h-181v280q0 91 -69 91q-37 0 -56.5 -25.5t-19.5 -72.5v-273h-181v516zM314 780h193l-148 -170h-150z" />
    <glyph glyph-name="uni0145" unicode="&#x145;" horiz-adv-x="857" 
d="M80 760h172l342 -464v464h184v-760h-173l-342 463v-463h-183v760zM360 -62h163q0 -31 -10 -67t-25 -67.5t-34 -52.5h-135q18 39 29.5 91t11.5 96z" />
    <glyph glyph-name="uni0146" unicode="&#x146;" horiz-adv-x="625" 
d="M61 516h177l2 -65q21 39 60 60t90 21q86 0 132 -55.5t46 -162.5v-314h-181v280q0 91 -69 91q-37 0 -56.5 -25.5t-19.5 -72.5v-273h-181v516zM229 -62h159q0 -31 -9.5 -67t-25 -67.5t-34.5 -52.5h-131q18 39 29.5 91t11.5 96z" />
    <glyph glyph-name="Ncaron" unicode="&#x147;" horiz-adv-x="857" 
d="M80 760h172l342 -464v464h184v-760h-173l-342 463v-463h-183v760zM188 992h173l60 -69l60 69h173l-143 -157h-180z" />
    <glyph glyph-name="ncaron" unicode="&#x148;" horiz-adv-x="625" 
d="M61 516h177l2 -65q21 39 60 60t90 21q86 0 132 -55.5t46 -162.5v-314h-181v280q0 91 -69 91q-37 0 -56.5 -25.5t-19.5 -72.5v-273h-181v516zM100 780h154l62 -77l62 77h154l-137 -170h-158z" />
    <glyph glyph-name="Eng" unicode="&#x14a;" horiz-adv-x="861" 
d="M80 760h172l347 -466v466h183v-746q0 -268 -256 -268q-53 0 -101 10.5t-80 28.5l18 156q62 -31 125 -31q54 0 79.5 25t29.5 82l-334 447v-464h-183v760z" />
    <glyph glyph-name="eng" unicode="&#x14b;" horiz-adv-x="625" 
d="M61 516h177l2 -65q21 39 60 60t90 21q86 0 132 -55.5t46 -162.5v-332q0 -116 -56 -176t-164 -60q-39 0 -76.5 7t-58.5 19l17 139q41 -15 79 -15q41 0 59.5 22t18.5 71v291q0 91 -69 91q-37 0 -56.5 -25.5t-19.5 -72.5v-273h-181v516z" />
    <glyph glyph-name="Omacron" unicode="&#x14c;" horiz-adv-x="912" 
d="M456 -16q-90 0 -165.5 29t-130.5 82t-85.5 125.5t-30.5 159.5q0 84 31 156.5t87 126t131 83.5t163 30q90 0 165.5 -29t130.5 -82t85.5 -125.5t30.5 -159.5q0 -84 -31 -156.5t-87 -126t-131 -83.5t-163 -30zM659 379q0 64 -26 113.5t-71.5 78t-105.5 28.5q-59 0 -105 -28
t-72 -77t-26 -113t26 -113.5t72 -78t105 -28.5q60 0 105.5 28t71.5 77.5t26 112.5zM285 963h343v-123h-343v123z" />
    <glyph glyph-name="omacron" unicode="&#x14d;" horiz-adv-x="641" 
d="M321 -16q-82 0 -146 35.5t-101 97.5t-37 141t37 141t101.5 97.5t145.5 35.5q82 0 145.5 -35.5t100.5 -97t37 -141.5q0 -79 -37 -141t-101 -97.5t-145 -35.5zM395 339.5q-29 31.5 -74 31.5q-46 0 -75 -31.5t-29 -81.5q0 -49 29 -81t75 -32q45 0 74 32t29 81q0 50 -29 81.5
zM153 740h336v-120h-336v120z" />
    <glyph glyph-name="Ohungarumlaut" unicode="&#x150;" horiz-adv-x="912" 
d="M456 -16q-90 0 -165.5 29t-130.5 82t-85.5 125.5t-30.5 159.5q0 84 31 156.5t87 126t131 83.5t163 30q90 0 165.5 -29t130.5 -82t85.5 -125.5t30.5 -159.5q0 -84 -31 -156.5t-87 -126t-131 -83.5t-163 -30zM659 379q0 64 -26 113.5t-71.5 78t-105.5 28.5q-59 0 -105 -28
t-72 -77t-26 -113t26 -113.5t72 -78t105 -28.5q60 0 105.5 28t71.5 77.5t26 112.5zM568 987h195l-118 -152h-164zM327 987h194l-118 -152h-164z" />
    <glyph glyph-name="ohungarumlaut" unicode="&#x151;" horiz-adv-x="641" 
d="M321 -16q-82 0 -146 35.5t-101 97.5t-37 141t37 141t101.5 97.5t145.5 35.5q82 0 145.5 -35.5t100.5 -97t37 -141.5q0 -79 -37 -141t-101 -97.5t-145 -35.5zM395 339.5q-29 31.5 -74 31.5q-46 0 -75 -31.5t-29 -81.5q0 -49 29 -81t75 -32q45 0 74 32t29 81q0 50 -29 81.5
zM423 780h170l-114 -170h-139zM216 780h169l-113 -170h-139z" />
    <glyph glyph-name="OE" unicode="&#x152;" horiz-adv-x="1242" 
d="M426 -16q-82 0 -151.5 29.5t-121.5 83t-80.5 126t-28.5 157.5t29 157t80.5 125.5t121.5 83.5t152 30q143 0 216 -90v74h528v-153h-344v-146h303v-153h-303v-155h358v-153h-542v78q-73 -94 -217 -94zM253 381q0 -64 26 -113.5t72 -78t105 -28.5q60 0 105.5 28t71.5 77.5
t26 112.5q0 64 -26 113.5t-71.5 78t-105.5 28.5q-59 0 -105 -28t-72 -77t-26 -113z" />
    <glyph glyph-name="oe" unicode="&#x153;" horiz-adv-x="989" 
d="M589 508.5q50 23.5 109 23.5q76 0 131.5 -31.5t86 -89.5t30.5 -137q0 -27 -3 -57h-344q13 -52 52.5 -75.5t107.5 -23.5q41 0 86 9.5t79 25.5l16 -130q-47 -20 -92.5 -29.5t-101.5 -9.5q-73 0 -134.5 24t-94.5 68q-37 -44 -90.5 -68t-116.5 -24q-78 0 -139.5 36t-97.5 98
t-36 140q0 79 36.5 140.5t100 97.5t143.5 36q59 0 111 -24t83 -65q28 42 78 65.5zM395 177q29 32 29 81q0 50 -29 81.5t-74 31.5q-46 0 -75 -31.5t-29 -81.5q0 -49 29 -81t75 -32q45 0 74 32zM779 315q-1 10 -3 19q-7 35 -28.5 55.5t-56.5 20.5q-78 0 -94 -95h182z" />
    <glyph glyph-name="Racute" unicode="&#x154;" horiz-adv-x="748" 
d="M80 760h275q140 0 219 -68.5t79 -190.5q0 -65 -31.5 -117t-80.5 -86l186 -298h-221l-133 244h-102v-244h-191v760zM327 391q131 0 131 112q0 110 -129 110h-58v-222h56zM344 989h210l-163 -154h-164z" />
    <glyph glyph-name="racute" unicode="&#x155;" horiz-adv-x="448" 
d="M61 516h176l1 -93q17 49 50.5 76t79.5 27q34 0 59 -10l-15 -171q-13 5 -32 8.5t-35 3.5q-103 0 -103 -136v-221h-181v516zM237 780h193l-148 -170h-150z" />
    <glyph glyph-name="Rcaron" unicode="&#x158;" horiz-adv-x="748" 
d="M80 760h275q140 0 219 -68.5t79 -190.5q0 -65 -31.5 -117t-80.5 -86l186 -298h-221l-133 244h-102v-244h-191v760zM327 391q131 0 131 112q0 110 -129 110h-58v-222h56zM116 992h173l60 -69l60 69h173l-143 -157h-180z" />
    <glyph glyph-name="rcaron" unicode="&#x159;" horiz-adv-x="448" 
d="M61 516h176l1 -93q17 49 50.5 76t79.5 27q34 0 59 -10l-15 -171q-13 5 -32 8.5t-35 3.5q-103 0 -103 -136v-221h-181v516zM23 780h154l62 -77l62 77h154l-137 -170h-158z" />
    <glyph glyph-name="Sacute" unicode="&#x15a;" horiz-adv-x="667" 
d="M62 211q48 -31 114 -49t128 -18q115 0 115 72q0 21 -11.5 35.5t-39.5 27.5t-79 27q-123 34 -177 89.5t-54 146.5q0 109 77.5 171.5t211.5 62.5q65 0 129.5 -16t107.5 -43l-26 -156q-40 25 -96 40t-106 15q-104 0 -104 -67q0 -29 24 -46t89 -37q136 -38 195 -93.5
t59 -146.5q0 -115 -80.5 -178.5t-225.5 -63.5q-51 0 -102 8.5t-94.5 23t-71.5 33.5zM327 989h210l-163 -154h-164z" />
    <glyph glyph-name="sacute" unicode="&#x15b;" horiz-adv-x="519" 
d="M59 163q39 -25 85 -38t91 -13q68 0 68 35q0 18 -15 27.5t-63 22.5q-96 26 -136.5 64.5t-40.5 105.5q0 78 59 121.5t162 43.5q52 0 103 -11t84 -30l-18 -126q-80 39 -157 39q-58 0 -58 -33q0 -16 16 -26.5t63 -23.5q96 -26 137 -66.5t41 -106.5q0 -78 -61.5 -121
t-171.5 -43q-60 0 -117 14t-91 37zM267 780h193l-148 -170h-150z" />
    <glyph glyph-name="Scedilla" unicode="&#x15e;" horiz-adv-x="667" 
d="M62 211q48 -31 114 -49t128 -18q115 0 115 72q0 21 -11.5 35.5t-39.5 27.5t-79 27q-123 34 -177 89.5t-54 146.5q0 109 77.5 171.5t211.5 62.5q65 0 129.5 -16t107.5 -43l-26 -156q-40 25 -96 40t-106 15q-104 0 -104 -67q0 -29 24 -46t89 -37q136 -38 195 -93.5
t59 -146.5q0 -115 -80.5 -178.5t-225.5 -63.5q-51 0 -102 8.5t-94.5 23t-71.5 33.5zM278 10h100l-18 -61q46 -4 75 -31t29 -67q0 -58 -43.5 -88t-126.5 -30q-26 0 -55 5.5t-43 13.5l17 87q27 -12 63 -12q50 0 50 29q0 28 -53 28q-8 0 -17 -0.5t-14 -2.5z" />
    <glyph glyph-name="scedilla" unicode="&#x15f;" horiz-adv-x="519" 
d="M59 163q39 -25 85 -38t91 -13q68 0 68 35q0 18 -15 27.5t-63 22.5q-96 26 -136.5 64.5t-40.5 105.5q0 78 59 121.5t162 43.5q52 0 103 -11t84 -30l-18 -126q-80 39 -157 39q-58 0 -58 -33q0 -16 16 -26.5t63 -23.5q96 -26 137 -66.5t41 -106.5q0 -78 -61.5 -121
t-171.5 -43q-60 0 -117 14t-91 37zM207 10h94l-19 -64q47 -4 75 -30t28 -68q0 -53 -42 -84t-113 -31q-29 0 -61.5 6t-45.5 13l17 83q27 -11 66 -11q52 0 52 32q0 30 -55 30q-9 0 -17.5 -0.5t-14.5 -1.5z" />
    <glyph glyph-name="Scaron" unicode="&#x160;" horiz-adv-x="667" 
d="M62 211q48 -31 114 -49t128 -18q115 0 115 72q0 21 -11.5 35.5t-39.5 27.5t-79 27q-123 34 -177 89.5t-54 146.5q0 109 77.5 171.5t211.5 62.5q65 0 129.5 -16t107.5 -43l-26 -156q-40 25 -96 40t-106 15q-104 0 -104 -67q0 -29 24 -46t89 -37q136 -38 195 -93.5
t59 -146.5q0 -115 -80.5 -178.5t-225.5 -63.5q-51 0 -102 8.5t-94.5 23t-71.5 33.5zM99 992h173l60 -69l60 69h173l-143 -157h-180z" />
    <glyph glyph-name="scaron" unicode="&#x161;" horiz-adv-x="519" 
d="M59 163q39 -25 85 -38t91 -13q68 0 68 35q0 18 -15 27.5t-63 22.5q-96 26 -136.5 64.5t-40.5 105.5q0 78 59 121.5t162 43.5q52 0 103 -11t84 -30l-18 -126q-80 39 -157 39q-58 0 -58 -33q0 -16 16 -26.5t63 -23.5q96 -26 137 -66.5t41 -106.5q0 -78 -61.5 -121
t-171.5 -43q-60 0 -117 14t-91 37zM53 780h154l62 -77l62 77h154l-137 -170h-158z" />
    <glyph glyph-name="uni0162" unicode="&#x162;" horiz-adv-x="739" 
d="M268 597h-233v163h669v-163h-233v-597h-203v597zM318 10h100l-18 -61q46 -4 75 -31t29 -67q0 -58 -43.5 -88t-126.5 -30q-26 0 -55 5.5t-43 13.5l17 87q27 -12 63 -12q50 0 50 29q0 28 -53 28q-8 0 -17 -0.5t-14 -2.5z" />
    <glyph glyph-name="uni0163.alt" unicode="&#x163;" horiz-adv-x="478" 
d="M101 187v184h-87v145h87v133h180v-133h147v-145h-147v-143q0 -46 15.5 -64.5t51.5 -18.5q44 0 84 18l18 -149q-58 -30 -156 -30q-193 0 -193 203zM217 10h94l-19 -64q47 -4 75 -30t28 -68q0 -53 -42 -84t-113 -31q-29 0 -61.5 6t-45.5 13l17 83q27 -11 66 -11q52 0 52 32
q0 30 -55 30q-9 0 -17.5 -0.5t-14.5 -1.5z" />
    <glyph glyph-name="Tcaron" unicode="&#x164;" horiz-adv-x="739" 
d="M268 597h-233v163h669v-163h-233v-597h-203v597zM136 992h173l60 -69l60 69h173l-143 -157h-180z" />
    <glyph glyph-name="tcaron.alt" unicode="&#x165;" horiz-adv-x="478" 
d="M101 187v184h-87v145h87v133h180v-133h147v-145h-147v-143q0 -46 15.5 -64.5t51.5 -18.5q44 0 84 18l18 -149q-58 -30 -156 -30q-193 0 -193 203zM353 810h158l-58 -223h-112z" />
    <glyph glyph-name="Tbar" unicode="&#x166;" horiz-adv-x="739" 
d="M268 276h-124v125h124v196h-233v163h669v-163h-233v-196h123v-125h-123v-276h-203v276z" />
    <glyph glyph-name="tbar.alt" unicode="&#x167;" horiz-adv-x="478" 
d="M101 187v26h-71v103h71v70h-87v130h87v133h180v-133h147v-130h-147v-70h113v-103h-113q1 -41 17 -58.5t50 -17.5q42 0 85 19l17 -142q-58 -30 -156 -30q-193 0 -193 203z" />
    <glyph glyph-name="Utilde" unicode="&#x168;" horiz-adv-x="849" 
d="M75 760h202v-417q0 -182 147 -182t147 182v417h203v-431q0 -166 -90.5 -255.5t-259.5 -89.5q-168 0 -258.5 89.5t-90.5 255.5v431zM343 1005q36 0 60 -13t42 -25.5t36 -12.5q28 0 28 49h116q0 -172 -120 -172q-36 0 -59.5 13t-41.5 26t-36 13q-29 0 -29 -50h-116
q0 172 120 172z" />
    <glyph glyph-name="utilde.alt" unicode="&#x169;" horiz-adv-x="624" 
d="M563 0h-178l-2 63q-20 -38 -60 -58.5t-92 -20.5q-85 0 -130 54.5t-45 159.5v318h181v-281q0 -90 70 -90q36 0 55.5 25.5t19.5 72.5v273h181v-516zM221 777q38 0 62.5 -13.5t42.5 -27t37 -13.5q29 0 29 52h113q0 -168 -113 -168q-38 0 -62.5 13.5t-42.5 27t-38 13.5
q-29 0 -29 -52h-113q0 168 114 168z" />
    <glyph glyph-name="Umacron" unicode="&#x16a;" horiz-adv-x="849" 
d="M75 760h202v-417q0 -182 147 -182t147 182v417h203v-431q0 -166 -90.5 -255.5t-259.5 -89.5q-168 0 -258.5 89.5t-90.5 255.5v431zM253 963h343v-123h-343v123z" />
    <glyph glyph-name="umacron.alt" unicode="&#x16b;" horiz-adv-x="624" 
d="M563 0h-178l-2 63q-20 -38 -60 -58.5t-92 -20.5q-85 0 -130 54.5t-45 159.5v318h181v-281q0 -90 70 -90q36 0 55.5 25.5t19.5 72.5v273h181v-516zM138 740h336v-120h-336v120z" />
    <glyph glyph-name="Uring" unicode="&#x16e;" horiz-adv-x="849" 
d="M75 760h202v-417q0 -182 147 -182t147 182v417h203v-431q0 -166 -90.5 -255.5t-259.5 -89.5q-168 0 -258.5 89.5t-90.5 255.5v431zM424 816q-43 0 -76.5 18.5t-53 50.5t-19.5 72t19.5 71.5t53 50t76.5 18.5t76.5 -18.5t53 -50t19.5 -71.5t-19.5 -72t-53 -50.5
t-76.5 -18.5zM463.5 996q-14.5 15 -39.5 15t-39.5 -15t-14.5 -39q0 -25 14.5 -40t39.5 -15t39.5 15t14.5 40q0 24 -14.5 39z" />
    <glyph glyph-name="uring.alt" unicode="&#x16f;" horiz-adv-x="624" 
d="M563 0h-178l-2 63q-20 -38 -60 -58.5t-92 -20.5q-85 0 -130 54.5t-45 159.5v318h181v-281q0 -90 70 -90q36 0 55.5 25.5t19.5 72.5v273h181v-516zM306 571q-43 0 -76.5 18.5t-53 50.5t-19.5 72q0 41 19.5 72.5t53 50t76.5 18.5t76.5 -18.5t53 -50t19.5 -72.5
q0 -40 -19.5 -72t-53 -50.5t-76.5 -18.5zM345.5 751.5q-14.5 14.5 -39.5 14.5t-39.5 -14.5t-14.5 -39.5q0 -24 14.5 -39t39.5 -15t39.5 15t14.5 39q0 25 -14.5 39.5z" />
    <glyph glyph-name="Uhungarumlaut" unicode="&#x170;" horiz-adv-x="849" 
d="M75 760h202v-417q0 -182 147 -182t147 182v417h203v-431q0 -166 -90.5 -255.5t-259.5 -89.5q-168 0 -258.5 89.5t-90.5 255.5v431zM536 987h195l-118 -152h-164zM295 987h194l-118 -152h-164z" />
    <glyph glyph-name="uhungarumlaut.alt" unicode="&#x171;" horiz-adv-x="624" 
d="M563 0h-178l-2 63q-20 -38 -60 -58.5t-92 -20.5q-85 0 -130 54.5t-45 159.5v318h181v-281q0 -90 70 -90q36 0 55.5 25.5t19.5 72.5v273h181v-516zM408 780h170l-114 -170h-139zM201 780h169l-113 -170h-139z" />
    <glyph glyph-name="Uogonek" unicode="&#x172;" horiz-adv-x="849" 
d="M75 760h202v-417q0 -182 147 -182t147 182v417h203v-431q0 -166 -90.5 -255.5t-259.5 -89.5q-168 0 -258.5 89.5t-90.5 255.5v431zM643 -243q-13 -8 -44 -14.5t-58 -6.5q-66 0 -104 29.5t-38 80.5q0 62 49.5 119.5t130.5 91.5l59 -19q-44 -31 -71 -67.5t-27 -68.5
q0 -39 46 -39q23 0 47 12z" />
    <glyph glyph-name="uogonek.alt" unicode="&#x173;" horiz-adv-x="624" 
d="M563 0h-178l-2 63q-20 -38 -60 -58.5t-92 -20.5q-85 0 -130 54.5t-45 159.5v318h181v-281q0 -90 70 -90q36 0 55.5 25.5t19.5 72.5v273h181v-516zM570 -244q-13 -9 -38 -14.5t-51 -5.5q-66 0 -102.5 30t-36.5 84q0 53 44 104t123 90l54 -44q-45 -32 -65 -57t-20 -49
q0 -16 11 -25.5t30 -9.5q11 0 22 2.5t20 6.5z" />
    <glyph glyph-name="Wcircumflex" unicode="&#x174;" horiz-adv-x="1139" 
d="M19 760h213l112 -507l141 497h171l142 -488l110 498h212l-225 -760h-183l-145 490l-140 -490h-183zM480 992h180l143 -157h-173l-60 69l-60 -69h-173z" />
    <glyph glyph-name="wcircumflex" unicode="&#x175;" horiz-adv-x="887" 
d="M18 516h190l68 -316l92 316h148l98 -317l66 317h190l-166 -516h-162l-103 298l-98 -298h-157zM364 780h158l137 -170h-154l-62 77l-62 -77h-154z" />
    <glyph glyph-name="Ycircumflex" unicode="&#x176;" horiz-adv-x="764" 
d="M8 760h223l154 -302l154 302h217l-275 -451v-309h-199v309zM292 992h180l143 -157h-173l-60 69l-60 -69h-173z" />
    <glyph glyph-name="ycircumflex" unicode="&#x177;" horiz-adv-x="620" 
d="M278 -245h-182l129 273l-212 488h199l105 -303l97 303h193zM233 780h158l137 -170h-154l-62 77l-62 -77h-154z" />
    <glyph glyph-name="Ydieresis" unicode="&#x178;" horiz-adv-x="764" 
d="M8 760h223l154 -302l154 302h217l-275 -451v-309h-199v309zM173 915q0 37 24.5 60t63.5 23t64 -23t25 -60t-25 -60t-64 -23t-63.5 23t-24.5 60zM414 915q0 37 25 60t63 23q40 0 64.5 -23t24.5 -60t-24.5 -60t-64.5 -23q-38 0 -63 23t-25 60z" />
    <glyph glyph-name="Zacute" unicode="&#x179;" horiz-adv-x="756" 
d="M308 159h388v-159h-642v137l381 464h-357v159h610v-137zM369 989h210l-163 -154h-164z" />
    <glyph glyph-name="zacute" unicode="&#x17a;" horiz-adv-x="555" 
d="M275 371h-225v145h459v-119l-236 -252h243v-145h-477v119zM275 780h193l-148 -170h-150z" />
    <glyph glyph-name="Zdotaccent" unicode="&#x17b;" horiz-adv-x="756" 
d="M308 159h388v-159h-642v137l381 464h-357v159h610v-137zM374 1017q45 0 72.5 -26t27.5 -68q0 -41 -27.5 -67.5t-72.5 -26.5t-72.5 26t-27.5 68q0 41 28 67.5t72 26.5z" />
    <glyph glyph-name="zdotaccent" unicode="&#x17c;" horiz-adv-x="555" 
d="M275 371h-225v145h459v-119l-236 -252h243v-145h-477v119zM183 685q0 40 25.5 64.5t68.5 24.5t69 -24t26 -65q0 -40 -26 -64.5t-69 -24.5t-68.5 24.5t-25.5 64.5z" />
    <glyph glyph-name="Zcaron" unicode="&#x17d;" horiz-adv-x="756" 
d="M308 159h388v-159h-642v137l381 464h-357v159h610v-137zM141 992h173l60 -69l60 69h173l-143 -157h-180z" />
    <glyph glyph-name="zcaron" unicode="&#x17e;" horiz-adv-x="555" 
d="M275 371h-225v145h459v-119l-236 -252h243v-145h-477v119zM61 780h154l62 -77l62 77h154l-137 -170h-158z" />
    <glyph glyph-name="florin" unicode="&#x192;" horiz-adv-x="448" 
d="M295 -18q0 -116 -56 -176t-164 -60q-39 0 -76.5 7t-58.5 19l18 147q39 -16 78 -16q41 0 59.5 22t18.5 71v375h-83v145h83v50q0 119 59 184t168 65q33 0 69 -6.5t58 -17.5l-18 -146q-13 6 -33 10t-36 4q-86 0 -86 -105v-38h122v-145h-122v-389z" />
    <glyph glyph-name="uni0218" unicode="&#x218;" horiz-adv-x="667" 
d="M62 211q48 -31 114 -49t128 -18q115 0 115 72q0 21 -11.5 35.5t-39.5 27.5t-79 27q-123 34 -177 89.5t-54 146.5q0 109 77.5 171.5t211.5 62.5q65 0 129.5 -16t107.5 -43l-26 -156q-40 25 -96 40t-106 15q-104 0 -104 -67q0 -29 24 -46t89 -37q136 -38 195 -93.5
t59 -146.5q0 -115 -80.5 -178.5t-225.5 -63.5q-51 0 -102 8.5t-94.5 23t-71.5 33.5zM247 -62h163q0 -31 -10 -67t-25 -67.5t-34 -52.5h-135q18 39 29.5 91t11.5 96z" />
    <glyph glyph-name="uni0219" unicode="&#x219;" horiz-adv-x="519" 
d="M59 163q39 -25 85 -38t91 -13q68 0 68 35q0 18 -15 27.5t-63 22.5q-96 26 -136.5 64.5t-40.5 105.5q0 78 59 121.5t162 43.5q52 0 103 -11t84 -30l-18 -126q-80 39 -157 39q-58 0 -58 -33q0 -16 16 -26.5t63 -23.5q96 -26 137 -66.5t41 -106.5q0 -78 -61.5 -121
t-171.5 -43q-60 0 -117 14t-91 37zM187 -62h159q0 -31 -9.5 -67t-25 -67.5t-34.5 -52.5h-131q18 39 29.5 91t11.5 96z" />
    <glyph glyph-name="uni021A" unicode="&#x21a;" horiz-adv-x="739" 
d="M268 597h-233v163h669v-163h-233v-597h-203v597zM289 -62h163q0 -31 -10 -67t-25 -67.5t-34 -52.5h-135q18 39 29.5 91t11.5 96z" />
    <glyph glyph-name="uni021B.alt" unicode="&#x21b;" horiz-adv-x="478" 
d="M101 187v184h-87v145h87v133h180v-133h147v-145h-147v-143q0 -46 15.5 -64.5t51.5 -18.5q44 0 84 18l18 -149q-58 -30 -156 -30q-193 0 -193 203zM183 -62h159q0 -31 -9.5 -67t-25 -67.5t-34.5 -52.5h-131q18 39 29.5 91t11.5 96z" />
    <glyph glyph-name="uni0237.alt" unicode="&#x237;" horiz-adv-x="303" 
d="M242 -18q0 -116 -56 -176t-164 -60q-39 0 -76.5 7t-58.5 19l18 147q38 -16 77 -16q41 0 60 22t19 71v520h181v-534z" />
    <glyph glyph-name="circumflex" unicode="&#x2c6;" horiz-adv-x="500" 
d="M171 780h158l137 -170h-154l-62 77l-62 -77h-154z" />
    <glyph glyph-name="caron" unicode="&#x2c7;" horiz-adv-x="500" 
d="M34 780h154l62 -77l62 77h154l-137 -170h-158z" />
    <glyph glyph-name="uni02C9" unicode="&#x2c9;" horiz-adv-x="500" 
d="M82 740h336v-120h-336v120z" />
    <glyph glyph-name="uni02CB" unicode="&#x2cb;" horiz-adv-x="500" 
d="M100 780h194l105 -170h-150z" />
    <glyph glyph-name="breve" unicode="&#x2d8;" horiz-adv-x="500" 
d="M60 751q0 8 1 14h118v-6q0 -33 18.5 -51t52.5 -18t52.5 18.5t18.5 50.5v6h118q1 -6 1 -14q0 -76 -50.5 -120t-139.5 -44q-88 0 -139 44t-51 120z" />
    <glyph glyph-name="dotaccent" unicode="&#x2d9;" horiz-adv-x="500" 
d="M156 685q0 40 25.5 64.5t68.5 24.5t69 -24t26 -65q0 -40 -26 -64.5t-69 -24.5t-68.5 24.5t-25.5 64.5z" />
    <glyph glyph-name="ring" unicode="&#x2da;" horiz-adv-x="500" 
d="M250 571q-43 0 -76.5 18.5t-53 50.5t-19.5 72q0 41 19.5 72.5t53 50t76.5 18.5t76.5 -18.5t53 -50t19.5 -72.5q0 -40 -19.5 -72t-53 -50.5t-76.5 -18.5zM289.5 751.5q-14.5 14.5 -39.5 14.5t-39.5 -14.5t-14.5 -39.5q0 -24 14.5 -39t39.5 -15t39.5 15t14.5 39
q0 25 -14.5 39.5z" />
    <glyph glyph-name="ogonek" unicode="&#x2db;" horiz-adv-x="500" 
d="M395 -244q-13 -9 -38 -14.5t-51 -5.5q-66 0 -102.5 30t-36.5 84q0 53 44 104t123 90l54 -44q-45 -32 -65 -57t-20 -49q0 -16 11 -25.5t30 -9.5q11 0 22 2.5t20 6.5z" />
    <glyph glyph-name="tilde" unicode="&#x2dc;" horiz-adv-x="500" 
d="M165 777q38 0 62.5 -13.5t42.5 -27t37 -13.5q29 0 29 52h113q0 -168 -113 -168q-38 0 -62.5 13.5t-42.5 27t-38 13.5q-29 0 -29 -52h-113q0 168 114 168z" />
    <glyph glyph-name="hungarumlaut" unicode="&#x2dd;" horiz-adv-x="500" 
d="M323 780h170l-114 -170h-139zM116 780h169l-113 -170h-139z" />
    <glyph glyph-name="gravecomb" unicode="&#x300;" 
d="M-191 780h194l105 -170h-150z" />
    <glyph glyph-name="acutecomb" unicode="&#x301;" 
d="M-2 780h193l-148 -170h-150z" />
    <glyph glyph-name="uni0302" unicode="&#x302;" 
d="M-79 780h158l137 -170h-154l-62 77l-62 -77h-154z" />
    <glyph glyph-name="tildecomb" unicode="&#x303;" 
d="M-85 777q38 0 62.5 -13.5t42.5 -27t37 -13.5q29 0 29 52h113q0 -168 -113 -168q-38 0 -62.5 13.5t-42.5 27t-38 13.5q-29 0 -29 -52h-113q0 168 114 168z" />
    <glyph glyph-name="uni0304" unicode="&#x304;" 
d="M-168 740h336v-120h-336v120z" />
    <glyph glyph-name="uni0306" unicode="&#x306;" 
d="M-190 751q0 8 1 14h118v-6q0 -33 18.5 -51t52.5 -18t52.5 18.5t18.5 50.5v6h118q1 -6 1 -14q0 -76 -50.5 -120t-139.5 -44q-88 0 -139 44t-51 120z" />
    <glyph glyph-name="uni0307" unicode="&#x307;" 
d="M-94 685q0 40 25.5 64.5t68.5 24.5t69 -24t26 -65q0 -40 -26 -64.5t-69 -24.5t-68.5 24.5t-25.5 64.5z" />
    <glyph glyph-name="uni0308" unicode="&#x308;" 
d="M-119 758q38 0 61.5 -22.5t23.5 -57.5q0 -36 -23.5 -58t-61.5 -22t-62 22t-24 58q0 35 24.5 57.5t61.5 22.5zM119 758q38 0 62 -22.5t24 -57.5q0 -36 -24 -58t-62 -22t-61.5 22t-23.5 58q0 35 24 57.5t61 22.5z" />
    <glyph glyph-name="uni030A" unicode="&#x30a;" 
d="M0 571q-43 0 -76.5 18.5t-53 50.5t-19.5 72q0 41 19.5 72.5t53 50t76.5 18.5t76.5 -18.5t53 -50t19.5 -72.5q0 -40 -19.5 -72t-53 -50.5t-76.5 -18.5zM39.5 751.5q-14.5 14.5 -39.5 14.5t-39.5 -14.5t-14.5 -39.5q0 -24 14.5 -39t39.5 -15t39.5 15t14.5 39
q0 25 -14.5 39.5z" />
    <glyph glyph-name="uni030B" unicode="&#x30b;" 
d="M102 780h170l-114 -170h-139zM-105 780h169l-113 -170h-139z" />
    <glyph glyph-name="uni030C" unicode="&#x30c;" 
d="M-216 780h154l62 -77l62 77h154l-137 -170h-158z" />
    <glyph glyph-name="uni0312" unicode="&#x312;" 
d="M-26 792h126q-18 -39 -28.5 -87.5t-11.5 -94.5h-154q1 47 20 98.5t48 83.5z" />
    <glyph glyph-name="uni0315" unicode="&#x315;" 
d="M-66 810h166l-62 -245h-116z" />
    <glyph glyph-name="dotbelowcomb" unicode="&#x323;" 
d="M-94 -139q0 40 25.5 64.5t68.5 24.5t69 -24.5t26 -64.5t-26 -64.5t-69 -24.5t-68.5 24.5t-25.5 64.5z" />
    <glyph glyph-name="uni0326" unicode="&#x326;" 
d="M-72 -62h159q0 -31 -9.5 -67t-25 -67.5t-34.5 -52.5h-131q18 39 29.5 91t11.5 96z" />
    <glyph glyph-name="uni0327" unicode="&#x327;" 
d="M-54 10h94l-19 -64q47 -4 75 -30t28 -68q0 -53 -42 -84t-113 -31q-29 0 -61.5 6t-45.5 13l17 83q27 -11 66 -11q52 0 52 32q0 30 -55 30q-9 0 -17.5 -0.5t-14.5 -1.5z" />
    <glyph glyph-name="uni0328" unicode="&#x328;" 
d="M98 -244q-13 -9 -38 -14.5t-51 -5.5q-66 0 -102.5 30t-36.5 84q0 53 44 104t123 90l54 -44q-45 -32 -65 -57t-20 -49q0 -16 11 -25.5t30 -9.5q11 0 22 2.5t20 6.5z" />
    <glyph glyph-name="uni0344" unicode="&#x344;" 
d="M-35 781h144l-88 -175h-107zM119 622.5q-22 21.5 -22 55.5q0 35 21 56t55 21q35 0 57 -21.5t22 -55.5t-21 -55.5t-56 -21.5q-34 0 -56 21.5zM-230 622.5q-22 21.5 -22 55.5q0 35 21 56t55 21q35 0 57 -21.5t22 -55.5t-21 -55.5t-55 -21.5q-35 0 -57 21.5z" />
    <glyph glyph-name="uni0374" unicode="&#x374;" horiz-adv-x="262" 
d="M70 744h169l-72 -282h-127z" />
    <glyph glyph-name="uni0375" unicode="&#x375;" horiz-adv-x="262" 
d="M46 126h169l-72 -282h-127z" />
    <glyph glyph-name="uni037E" unicode="&#x37e;" horiz-adv-x="306" 
d="M78 173h165q0 -65 -14.5 -128.5t-40.5 -118.5t-62 -95h-137q42 72 65 159.5t24 182.5zM51 427q0 41 28.5 68t73.5 27t73.5 -27t28.5 -68q0 -42 -28.5 -69t-73.5 -27t-73.5 27t-28.5 69z" />
    <glyph glyph-name="tonos" unicode="&#x384;" horiz-adv-x="500" 
d="M239 781h180l-97 -175h-143z" />
    <glyph glyph-name="dieresistonos" unicode="&#x385;" horiz-adv-x="500" 
d="M215 781h144l-88 -175h-107zM369 622.5q-22 21.5 -22 55.5q0 35 21 56t55 21q35 0 57 -21.5t22 -55.5t-21 -55.5t-56 -21.5q-34 0 -56 21.5zM20 622.5q-22 21.5 -22 55.5q0 35 21 56t55 21q35 0 57 -21.5t22 -55.5t-21 -55.5t-55 -21.5q-35 0 -57 21.5z" />
    <glyph glyph-name="Alphatonos" unicode="&#x386;" horiz-adv-x="892" 
d="M364 760h209l298 -760h-212l-59 177h-276l-59 -177h-199zM550 328l-88 267l-88 -267h176zM82 760h180l-97 -213h-142z" />
    <glyph glyph-name="anoteleia" unicode="&#x387;" horiz-adv-x="306" 
d="M51 427q0 41 28.5 68t73.5 27t73.5 -27t28.5 -68q0 -42 -28.5 -69t-73.5 -27t-73.5 27t-28.5 69z" />
    <glyph glyph-name="Epsilontonos" unicode="&#x388;" horiz-adv-x="909" 
d="M310 760h528v-153h-344v-146h303v-153h-303v-155h358v-153h-542v760zM81 760h180l-97 -213h-142z" />
    <glyph glyph-name="Etatonos" unicode="&#x389;" horiz-adv-x="1090" 
d="M310 760h202v-289h296v289h202v-760h-202v309h-296v-309h-202v760zM81 760h180l-97 -213h-142z" />
    <glyph glyph-name="Iotatonos" unicode="&#x38a;" horiz-adv-x="591" 
d="M310 760h202v-760h-202v760zM81 760h180l-97 -213h-142z" />
    <glyph glyph-name="Omicrontonos" unicode="&#x38c;" horiz-adv-x="1085" 
d="M629 -16q-90 0 -165.5 29t-130.5 82t-85.5 125.5t-30.5 159.5q0 84 31 156.5t87 126t131 83.5t163 30q90 0 165.5 -29t130.5 -82t85.5 -125.5t30.5 -159.5q0 -84 -31 -156.5t-87 -126t-131 -83.5t-163 -30zM832 379q0 64 -26 113.5t-71.5 78t-105.5 28.5q-59 0 -105 -28
t-72 -77t-26 -113t26 -113.5t72 -78t105 -28.5q60 0 105.5 28t71.5 77.5t26 112.5zM81 760h180l-97 -213h-142z" />
    <glyph glyph-name="Upsilontonos" unicode="&#x38e;" horiz-adv-x="1055" 
d="M299 760h223l154 -302l154 302h217l-275 -451v-309h-199v309zM81 760h180l-97 -213h-142z" />
    <glyph glyph-name="Omegatonos" unicode="&#x38f;" horiz-adv-x="1088" 
d="M901 160h123v-160h-345v156q68 39 103 100.5t35 139.5q0 60 -24 105.5t-66.5 71t-98.5 25.5t-99 -25.5t-67 -71t-24 -105.5q0 -78 36 -139.5t103 -100.5v-156h-345v160h122q-60 47 -92 114t-32 148q0 77 29.5 141.5t83 112.5t126 74t159.5 26q118 0 207.5 -45t140 -124.5
t50.5 -184.5q0 -166 -125 -262zM81 760h180l-97 -213h-142z" />
    <glyph glyph-name="iotadieresistonos" unicode="&#x390;" horiz-adv-x="363" 
d="M56 516h181v-303q0 -38 9 -53t33 -15q11 0 24 3.5t23 7.5l19 -148q-42 -24 -120 -24q-89 0 -129 46t-40 150v336zM111 781h144l-88 -175h-107zM265 622.5q-22 21.5 -22 55.5q0 35 21 56t55 21q35 0 57 -21.5t22 -55.5t-21 -55.5t-56 -21.5q-34 0 -56 21.5zM-84 622.5
q-22 21.5 -22 55.5q0 35 21 56t55 21q35 0 57 -21.5t22 -55.5t-21 -55.5t-55 -21.5q-35 0 -57 21.5z" />
    <glyph glyph-name="Alpha" unicode="&#x391;" horiz-adv-x="847" 
d="M319 760h209l298 -760h-212l-59 177h-276l-59 -177h-199zM505 328l-88 267l-88 -267h176z" />
    <glyph glyph-name="Beta" unicode="&#x392;" horiz-adv-x="724" 
d="M80 760h296q130 0 197.5 -50t67.5 -146q0 -53 -25 -95t-69 -64q62 -17 98 -66t36 -117q0 -109 -71 -165.5t-209 -56.5h-321v760zM388 138q50 0 76 23.5t26 66.5q0 90 -106 90h-125v-180h129zM359 451q100 0 100 88q0 83 -99 83h-101v-171h100z" />
    <glyph glyph-name="Gamma" unicode="&#x393;" horiz-adv-x="640" 
d="M80 760h525v-163h-323v-597h-202v760z" />
    <glyph glyph-name="uni0394" unicode="&#x394;" horiz-adv-x="841" 
d="M318 760h205l270 -622v-138h-746v138zM414 587l-167 -428h334z" />
    <glyph glyph-name="Epsilon" unicode="&#x395;" horiz-adv-x="679" 
d="M80 760h528v-153h-344v-146h303v-153h-303v-155h358v-153h-542v760z" />
    <glyph glyph-name="Zeta" unicode="&#x396;" horiz-adv-x="756" 
d="M308 159h388v-159h-642v137l381 464h-357v159h610v-137z" />
    <glyph glyph-name="Eta" unicode="&#x397;" horiz-adv-x="860" 
d="M80 760h202v-289h296v289h202v-760h-202v309h-296v-309h-202v760z" />
    <glyph glyph-name="Theta" unicode="&#x398;" horiz-adv-x="912" 
d="M456 -16q-90 0 -165.5 29t-130.5 82t-85.5 125.5t-30.5 159.5q0 84 31 156.5t87 126t131 83.5t163 30q90 0 165.5 -29t130.5 -82t85.5 -125.5t30.5 -159.5q0 -84 -31 -156.5t-87 -126t-131 -83.5t-163 -30zM676 379q0 69 -28.5 121.5t-78 82.5t-113.5 30
q-63 0 -113 -29.5t-78.5 -82t-28.5 -120.5t28.5 -121t78.5 -83t113 -30q64 0 113.5 29.5t78 82t28.5 120.5zM327 305v148h258v-148h-258z" />
    <glyph glyph-name="Iota" unicode="&#x399;" horiz-adv-x="362" 
d="M80 760h202v-760h-202v760z" />
    <glyph glyph-name="Kappa" unicode="&#x39a;" horiz-adv-x="816" 
d="M80 760h199v-312l260 312h240l-323 -363l354 -397h-261l-270 326v-326h-199v760z" />
    <glyph glyph-name="Lambda" unicode="&#x39b;" horiz-adv-x="817" 
d="M303 760h211l281 -760h-213l-176 522l-177 -522h-208z" />
    <glyph glyph-name="Mu.alt" unicode="&#x39c;" horiz-adv-x="1016" 
d="M104 760h186l220 -444l216 444h186l45 -760h-187l-17 467l-167 -342h-155l-169 337l-15 -462h-187z" />
    <glyph glyph-name="Nu" unicode="&#x39d;" horiz-adv-x="857" 
d="M80 760h172l342 -464v464h184v-760h-173l-342 463v-463h-183v760z" />
    <glyph glyph-name="Xi" unicode="&#x39e;" horiz-adv-x="693" 
d="M56 0v160h581v-160h-581zM71 600v160h551v-160h-551zM157 304v160h379v-160h-379z" />
    <glyph glyph-name="Omicron" unicode="&#x39f;" horiz-adv-x="912" 
d="M456 -16q-90 0 -165.5 29t-130.5 82t-85.5 125.5t-30.5 159.5q0 84 31 156.5t87 126t131 83.5t163 30q90 0 165.5 -29t130.5 -82t85.5 -125.5t30.5 -159.5q0 -84 -31 -156.5t-87 -126t-131 -83.5t-163 -30zM659 379q0 64 -26 113.5t-71.5 78t-105.5 28.5q-59 0 -105 -28
t-72 -77t-26 -113t26 -113.5t72 -78t105 -28.5q60 0 105.5 28t71.5 77.5t26 112.5z" />
    <glyph glyph-name="Pi" unicode="&#x3a0;" horiz-adv-x="850" 
d="M80 760h690v-760h-202v597h-286v-597h-202v760z" />
    <glyph glyph-name="Rho" unicode="&#x3a1;" horiz-adv-x="683" 
d="M80 760h276q92 0 158.5 -31.5t102.5 -89.5t36 -138q0 -122 -79 -191t-218 -69h-85v-241h-191v760zM326 388q132 0 132 113q0 112 -132 112h-55v-225h55z" />
    <glyph glyph-name="Sigma" unicode="&#x3a3;" horiz-adv-x="720" 
d="M56 625v135h593v-153h-329l176 -174v-99l-189 -181h356v-153h-609v135l251 243z" />
    <glyph glyph-name="Tau" unicode="&#x3a4;" horiz-adv-x="739" 
d="M268 597h-233v163h669v-163h-233v-597h-203v597z" />
    <glyph glyph-name="Upsilon" unicode="&#x3a5;" horiz-adv-x="764" 
d="M8 760h223l154 -302l154 302h217l-275 -451v-309h-199v309z" />
    <glyph glyph-name="Phi" unicode="&#x3a6;" horiz-adv-x="1022" 
d="M412 54q-112 7 -194.5 48t-128 111.5t-45.5 166.5q0 95 45.5 166t128.5 112t194 48v75h197v-75q112 -7 194.5 -48t128 -111.5t45.5 -166.5q0 -95 -45.5 -166t-128 -112t-194.5 -48v-75h-197v75zM286.5 498q-47.5 -44 -47.5 -118t47.5 -118t129.5 -54v344
q-82 -10 -129.5 -54zM783 380q0 74 -47.5 118t-129.5 54v-344q82 10 129.5 54t47.5 118z" />
    <glyph glyph-name="Chi" unicode="&#x3a7;" horiz-adv-x="796" 
d="M279 396l-246 364h236l135 -234l133 234h230l-249 -373l263 -387h-238l-153 258l-146 -258h-229z" />
    <glyph glyph-name="Psi" unicode="&#x3a8;" horiz-adv-x="995" 
d="M405 760h185v-394q77 7 111.5 53t34.5 145v196h185v-211q0 -154 -86.5 -243.5t-244.5 -99.5v-206h-185v206q-157 10 -243.5 99.5t-86.5 243.5v211h184v-196q0 -99 34 -145t112 -53v394z" />
    <glyph glyph-name="uni03A9" unicode="&#x3a9;" horiz-adv-x="922" 
d="M734 160h123v-160h-345v156q68 39 103 100.5t35 139.5q0 60 -24 105.5t-66.5 71t-98.5 25.5t-99 -25.5t-67 -71t-24 -105.5q0 -78 36 -139.5t103 -100.5v-156h-345v160h122q-60 47 -92 114t-32 148q0 77 29.5 141.5t83 112.5t126 74t159.5 26q118 0 207.5 -45t140 -124.5
t50.5 -184.5q0 -166 -125 -262z" />
    <glyph glyph-name="Iotadieresis" unicode="&#x3aa;" horiz-adv-x="362" 
d="M80 760h202v-760h-202v760zM-28 915q0 37 24.5 60t63.5 23t64 -23t25 -60t-25 -60t-64 -23t-63.5 23t-24.5 60zM213 915q0 37 25 60t63 23q40 0 64.5 -23t24.5 -60t-24.5 -60t-64.5 -23q-38 0 -63 23t-25 60z" />
    <glyph glyph-name="Upsilondieresis" unicode="&#x3ab;" horiz-adv-x="764" 
d="M8 760h223l154 -302l154 302h217l-275 -451v-309h-199v309zM173 915q0 37 24.5 60t63.5 23t64 -23t25 -60t-25 -60t-64 -23t-63.5 23t-24.5 60zM414 915q0 37 25 60t63 23q40 0 64.5 -23t24.5 -60t-24.5 -60t-64.5 -23q-38 0 -63 23t-25 60z" />
    <glyph glyph-name="alphatonos" unicode="&#x3ac;" horiz-adv-x="664" 
d="M583 203q0 -25 6 -38.5t24 -13.5q13 0 28 6l8 -145q-16 -10 -45 -15.5t-59 -5.5q-57 0 -88 22.5t-40 63.5q-23 -48 -64 -70.5t-91 -22.5q-65 0 -116 35t-80 96.5t-29 140.5t29.5 141.5t80.5 98.5t116 36q49 0 88 -23t60 -61l2 68h170v-313zM412 258q0 50 -27 81.5
t-71 31.5q-43 0 -70 -31.5t-27 -81.5q0 -49 27 -81t70 -32q44 0 71 32t27 81zM291 781h180l-97 -175h-143z" />
    <glyph glyph-name="epsilontonos" unicode="&#x3ad;" horiz-adv-x="544" 
d="M503 21q-34 -15 -92.5 -26t-125.5 -11q-122 0 -185 40t-63 116q0 46 26 77.5t74 44.5q-39 12 -62 42t-23 72q0 72 63.5 114t172.5 42q59 0 113.5 -11t90.5 -26l-18 -131q-43 15 -85 23t-82 8q-80 0 -80 -42q0 -24 21 -32.5t67 -8.5h90v-103h-80q-51 0 -74.5 -9t-23.5 -34
q0 -22 21.5 -33t61.5 -11q44 0 89.5 9.5t87.5 25.5zM263 781h180l-97 -175h-143z" />
    <glyph glyph-name="etatonos" unicode="&#x3ae;" horiz-adv-x="645" 
d="M589 -247h-181v527q0 91 -69 91q-77 0 -77 -99v-272h-181v320q0 26 -8 35.5t-22 9.5q-16 0 -28 -6l-8 143q16 11 41.5 17t59.5 6q57 0 89.5 -22t42.5 -60q19 41 61.5 65t94.5 24q91 0 138 -55.5t47 -162.5v-561zM308 781h180l-97 -175h-143z" />
    <glyph glyph-name="iotatonos" unicode="&#x3af;" horiz-adv-x="363" 
d="M56 516h181v-303q0 -38 9 -53t33 -15q11 0 24 3.5t23 7.5l19 -148q-42 -24 -120 -24q-89 0 -129 46t-40 150v336zM119 781h180l-97 -175h-143z" />
    <glyph glyph-name="upsilondieresistonos.alt" unicode="&#x3b0;" horiz-adv-x="604" 
d="M56 516h181v-263q0 -56 17.5 -82t52.5 -26q44 0 63.5 35t19.5 99q0 59 -12.5 115t-38.5 115l179 13q24 -54 36.5 -114.5t12.5 -128.5q0 -145 -65.5 -220t-197.5 -75q-248 0 -248 263v269zM266 781h144l-88 -175h-107zM420 622.5q-22 21.5 -22 55.5q0 35 21 56t55 21
q35 0 57 -21.5t22 -55.5t-21 -55.5t-56 -21.5q-34 0 -56 21.5zM71 622.5q-22 21.5 -22 55.5q0 35 21 56t55 21q35 0 57 -21.5t22 -55.5t-21 -55.5t-55 -21.5q-35 0 -57 21.5z" />
    <glyph glyph-name="alpha" unicode="&#x3b1;" horiz-adv-x="664" 
d="M583 203q0 -25 6 -38.5t24 -13.5q13 0 28 6l8 -145q-16 -10 -45 -15.5t-59 -5.5q-57 0 -88 22.5t-40 63.5q-23 -48 -64 -70.5t-91 -22.5q-65 0 -116 35t-80 96.5t-29 140.5t29.5 141.5t80.5 98.5t116 36q49 0 88 -23t60 -61l2 68h170v-313zM412 258q0 50 -27 81.5
t-71 31.5q-43 0 -70 -31.5t-27 -81.5q0 -49 27 -81t70 -32q44 0 71 32t27 81z" />
    <glyph glyph-name="beta" unicode="&#x3b2;" horiz-adv-x="660" 
d="M60 532q0 87 33 150.5t94.5 98t145.5 34.5q73 0 127 -26t84 -73.5t30 -113.5q0 -62 -31.5 -107.5t-82.5 -64.5q77 -15 120 -70.5t43 -139.5q0 -71 -28.5 -124t-78.5 -82.5t-115 -29.5q-56 0 -96 20.5t-64 57.5v-307h-181v777zM419 168q27 26 27 71q0 53 -33.5 79.5
t-89.5 26.5h-19v140h15q38 0 61.5 24.5t23.5 71.5q0 39 -21.5 61t-53.5 22q-40 0 -64 -31.5t-24 -92.5v-249q0 -79 32 -114t77 -35q42 0 69 26z" />
    <glyph glyph-name="gamma" unicode="&#x3b3;" horiz-adv-x="597" 
d="M13 516h201l87 -375l95 375h189l-195 -532v-229h-181v227z" />
    <glyph glyph-name="delta" unicode="&#x3b4;" horiz-adv-x="637" 
d="M320 -16q-84 0 -147.5 33t-99.5 92.5t-36 138.5q0 83 44 141.5t117 81.5q-50 28 -78 69t-28 91q0 86 66 135t174 49q60 0 115 -13.5t93 -33.5l-21 -151q-40 20 -83 30t-81 10q-37 0 -61 -11t-24 -37q0 -25 23.5 -42t58.5 -32q38 -15 81 -35t81 -51t62.5 -79t24.5 -118
q0 -80 -35.5 -140.5t-98.5 -94t-147 -33.5zM319 145q45 0 73.5 31.5t28.5 80.5t-28.5 80t-73.5 31t-74 -31.5t-29 -79.5q0 -49 29 -80.5t74 -31.5z" />
    <glyph glyph-name="epsilon" unicode="&#x3b5;" horiz-adv-x="544" 
d="M503 21q-34 -15 -92.5 -26t-125.5 -11q-122 0 -185 40t-63 116q0 46 26 77.5t74 44.5q-39 12 -62 42t-23 72q0 72 63.5 114t172.5 42q59 0 113.5 -11t90.5 -26l-18 -131q-43 15 -85 23t-82 8q-80 0 -80 -42q0 -24 21 -32.5t67 -8.5h90v-103h-80q-51 0 -74.5 -9t-23.5 -34
q0 -22 21.5 -33t61.5 -11q44 0 89.5 9.5t87.5 25.5z" />
    <glyph glyph-name="zeta" unicode="&#x3b6;" horiz-adv-x="525" 
d="M285 665h-223v145h436v-121l-26 -24q-126 -117 -190.5 -225t-64.5 -187q0 -104 115 -131l4 -1q47 -11 86.5 -31t63 -55.5t23.5 -91.5q0 -44 -15 -81t-36 -63l-164 13q13 17 26.5 42.5t13.5 49.5q0 27 -18 41t-52 22l-4 1q-69 16 -112.5 44.5t-67.5 63.5t-33.5 73t-9.5 74
q0 103 63 212.5t185 229.5z" />
    <glyph glyph-name="eta" unicode="&#x3b7;" horiz-adv-x="645" 
d="M589 -247h-181v527q0 91 -69 91q-77 0 -77 -99v-272h-181v320q0 26 -8 35.5t-22 9.5q-16 0 -28 -6l-8 143q16 11 41.5 17t59.5 6q57 0 89.5 -22t42.5 -60q19 41 61.5 65t94.5 24q91 0 138 -55.5t47 -162.5v-561z" />
    <glyph glyph-name="theta" unicode="&#x3b8;" horiz-adv-x="656" 
d="M328 815q94 0 158.5 -50t98.5 -143t34 -223q0 -105 -22 -184q-30 -111 -98 -171t-171 -60q-93 0 -158 50t-99 143t-34 223q0 103 21 184q30 111 98.5 171t171.5 60zM435 255q8 34 11 76h-236q7 -97 37.5 -144.5t80.5 -47.5q79 0 107 116zM408.5 612.5
q-30.5 47.5 -80.5 47.5q-79 0 -107 -116q-8 -34 -11 -76h236q-7 97 -37.5 144.5z" />
    <glyph glyph-name="iota" unicode="&#x3b9;" horiz-adv-x="363" 
d="M56 516h181v-303q0 -38 9 -53t33 -15q11 0 24 3.5t23 7.5l19 -148q-42 -24 -120 -24q-89 0 -129 46t-40 150v336z" />
    <glyph glyph-name="kappa" unicode="&#x3ba;" horiz-adv-x="643" 
d="M61 516h181v-206l159 206h208l-208 -246l243 -270h-223l-179 207v-207h-181v516z" />
    <glyph glyph-name="lambda" unicode="&#x3bb;" horiz-adv-x="629" 
d="M617 0h-196l-107 332l-106 -332h-195l212 521l-126 289h181z" />
    <glyph glyph-name="uni03BC" unicode="&#x3bc;" horiz-adv-x="645" 
d="M57 516h181v-281q0 -90 69 -90q37 0 56.5 25.5t19.5 72.5v273h181v-313q0 -25 6 -38.5t24 -13.5q13 0 28 6l8 -145q-16 -10 -41 -15.5t-53 -5.5q-47 0 -74.5 18.5t-38.5 52.5q-17 -42 -44.5 -60t-64.5 -18q-51 0 -76 29v-258h-181v761z" />
    <glyph glyph-name="nu" unicode="&#x3bd;" horiz-adv-x="597" 
d="M13 516h201l87 -342l95 342h189l-191 -516h-191z" />
    <glyph glyph-name="xi" unicode="&#x3be;" horiz-adv-x="566" 
d="M506 629q-25 13 -65 21.5t-76 8.5q-61 0 -95.5 -25.5t-34.5 -67.5q0 -38 31 -63.5t94 -25.5h90v-140h-79q-73 0 -113.5 -26.5t-40.5 -78.5q0 -46 36 -70t103 -40l4 -1q51 -12 93.5 -31t68 -54t25.5 -95q0 -46 -15 -82t-35 -60l-165 13q14 17 27.5 41.5t13.5 49.5
q0 29 -21.5 41.5t-62.5 21.5l-4 1q-75 18 -130.5 48t-86.5 78t-31 118q0 72 37 128.5t112 74.5q-64 23 -94.5 68t-30.5 106q0 68 34 119t96.5 79.5t147.5 28.5q45 0 96 -9.5t92 -30.5z" />
    <glyph glyph-name="omicron" unicode="&#x3bf;" horiz-adv-x="634" 
d="M317 -16q-81 0 -144 35.5t-99.5 97.5t-36.5 141t36.5 141t99.5 97.5t144 35.5q82 0 145 -35t99 -97t36 -142q0 -79 -36 -141t-99.5 -97.5t-144.5 -35.5zM389 339.5q-28 31.5 -72 31.5t-72 -31.5t-28 -81.5q0 -49 28 -81t72 -32t72 32t28 81q0 50 -28 81.5z" />
    <glyph glyph-name="pi.alt" unicode="&#x3c0;" horiz-adv-x="701" 
d="M282 0h-178v371h-83v145h652v-145h-92v-177q0 -28 10 -39.5t35 -11.5q20 0 36 6l9 -141q-14 -9 -44 -15.5t-63 -6.5q-86 0 -123 40.5t-37 125.5v219h-122v-371z" />
    <glyph glyph-name="rho" unicode="&#x3c1;" horiz-adv-x="653" 
d="M56 225q0 94 34.5 162.5t97.5 106.5t148 38q83 0 146 -35t98.5 -96t35.5 -141q0 -79 -31.5 -141.5t-85 -98.5t-120.5 -36q-92 0 -142 59v-288h-181v470zM408 177q28 32 28 81q0 50 -28 81.5t-72 31.5t-72.5 -31.5t-28.5 -81.5q0 -49 29 -81t72 -32q44 0 72 32z" />
    <glyph glyph-name="sigma1" unicode="&#x3c2;" horiz-adv-x="547" 
d="M478 340q-34 15 -66.5 22t-62.5 7q-65 0 -98.5 -33.5t-33.5 -89.5q0 -46 23.5 -77t90.5 -47l4 -1q50 -11 88.5 -31.5t61 -57t22.5 -96.5q0 -37 -15 -75t-35 -62l-165 13q14 17 27.5 42.5t13.5 49.5q0 27 -18.5 41t-51.5 22l-4 1q-67 16 -110 45t-67.5 67t-34.5 80t-10 83
q0 86 36 150.5t100.5 100.5t148.5 36q47 0 96.5 -11t80.5 -28z" />
    <glyph glyph-name="sigma" unicode="&#x3c3;" horiz-adv-x="661" 
d="M319 -16q-81 0 -145 34.5t-100.5 95t-36.5 138.5q0 81 38.5 140.5t110.5 91.5t172 32h282v-145h-127q40 -23 62 -61t22 -88q0 -69 -36.5 -123t-99.5 -84.5t-142 -30.5zM318 359q-44 0 -72.5 -30t-28.5 -77t28 -77t73 -30t72 30t27 77t-27 77t-72 30z" />
    <glyph glyph-name="tau.alt" unicode="&#x3c4;" horiz-adv-x="507" 
d="M142 371h-128v145h465v-145h-156v-163q0 -36 10 -49.5t37 -13.5q12 0 25 3t23 9l18 -148q-19 -11 -53 -18t-67 -7q-93 0 -133.5 45.5t-40.5 150.5v191z" />
    <glyph glyph-name="upsilon.alt" unicode="&#x3c5;" horiz-adv-x="604" 
d="M56 516h181v-263q0 -56 17.5 -82t52.5 -26q44 0 63.5 35t19.5 99q0 59 -12.5 115t-38.5 115l179 13q24 -54 36.5 -114.5t12.5 -128.5q0 -145 -65.5 -220t-197.5 -75q-248 0 -248 263v269z" />
    <glyph glyph-name="phi" unicode="&#x3c6;" horiz-adv-x="841" 
d="M337 -245v230q-141 11 -220.5 82.5t-79.5 189.5t80 190t220 82v116h166v-116q141 -10 221 -82t80 -190t-80 -189.5t-221 -82.5v-230h-166zM495 384v-255q139 15 139 128q0 115 -139 127zM207 257q0 -112 138 -128v255q-138 -13 -138 -127z" />
    <glyph glyph-name="chi" unicode="&#x3c7;" horiz-adv-x="652" 
d="M640 -245h-195l-119 268l-125 -268h-190l215 392l-202 369h195l106 -239l111 239h190l-201 -368z" />
    <glyph glyph-name="psi.alt" unicode="&#x3c8;" horiz-adv-x="858" 
d="M354 645h166v-500q72 12 98 52.5t26 118.5q0 47 -8 93t-25 100l175 12q16 -47 25.5 -97t9.5 -108q0 -165 -74 -241t-227 -89v-231h-166v231q-158 13 -228 86.5t-70 211.5v232h178v-214q0 -73 26 -110t94 -47v500z" />
    <glyph glyph-name="omega" unicode="&#x3c9;" horiz-adv-x="857" 
d="M214 266q0 -55 16 -84t50 -29q23 0 38 14.5t22.5 53t7.5 109.5v96h161v-96q0 -71 8 -109.5t23 -53t37 -14.5q35 0 50.5 29t15.5 84q0 63 -22.5 128.5t-57.5 114.5l184 14q21 -31 38 -76t26.5 -95t9.5 -97q0 -83 -27 -144t-77 -94.5t-118 -33.5q-56 0 -99.5 25t-71.5 76
q-28 -51 -71.5 -76t-99.5 -25q-67 0 -116.5 33.5t-76.5 95t-27 143.5q0 47 9.5 97t26 95t37.5 76l184 -14q-34 -49 -57 -114.5t-23 -128.5z" />
    <glyph glyph-name="iotadieresis" unicode="&#x3ca;" horiz-adv-x="363" 
d="M56 516h181v-303q0 -38 9 -53t33 -15q11 0 24 3.5t23 7.5l19 -148q-42 -24 -120 -24q-89 0 -129 46t-40 150v336zM27 758q38 0 61.5 -22.5t23.5 -57.5q0 -36 -23.5 -58t-61.5 -22t-62 22t-24 58q0 35 24.5 57.5t61.5 22.5zM265 758q38 0 62 -22.5t24 -57.5q0 -36 -24 -58
t-62 -22t-61.5 22t-23.5 58q0 35 24 57.5t61 22.5z" />
    <glyph glyph-name="upsilondieresis.alt" unicode="&#x3cb;" horiz-adv-x="604" 
d="M56 516h181v-263q0 -56 17.5 -82t52.5 -26q44 0 63.5 35t19.5 99q0 59 -12.5 115t-38.5 115l179 13q24 -54 36.5 -114.5t12.5 -128.5q0 -145 -65.5 -220t-197.5 -75q-248 0 -248 263v269zM182 758q38 0 61.5 -22.5t23.5 -57.5q0 -36 -23.5 -58t-61.5 -22t-62 22t-24 58
q0 35 24.5 57.5t61.5 22.5zM420 758q38 0 62 -22.5t24 -57.5q0 -36 -24 -58t-62 -22t-61.5 22t-23.5 58q0 35 24 57.5t61 22.5z" />
    <glyph glyph-name="omicrontonos" unicode="&#x3cc;" horiz-adv-x="634" 
d="M317 -16q-81 0 -144 35.5t-99.5 97.5t-36.5 141t36.5 141t99.5 97.5t144 35.5q82 0 145 -35t99 -97t36 -142q0 -79 -36 -141t-99.5 -97.5t-144.5 -35.5zM389 339.5q-28 31.5 -72 31.5t-72 -31.5t-28 -81.5q0 -49 28 -81t72 -32t72 32t28 81q0 50 -28 81.5zM290 781h180
l-97 -175h-143z" />
    <glyph glyph-name="upsilontonos.alt" unicode="&#x3cd;" horiz-adv-x="604" 
d="M56 516h181v-263q0 -56 17.5 -82t52.5 -26q44 0 63.5 35t19.5 99q0 59 -12.5 115t-38.5 115l179 13q24 -54 36.5 -114.5t12.5 -128.5q0 -145 -65.5 -220t-197.5 -75q-248 0 -248 263v269zM274 781h180l-97 -175h-143z" />
    <glyph glyph-name="omegatonos" unicode="&#x3ce;" horiz-adv-x="857" 
d="M214 266q0 -55 16 -84t50 -29q23 0 38 14.5t22.5 53t7.5 109.5v96h161v-96q0 -71 8 -109.5t23 -53t37 -14.5q35 0 50.5 29t15.5 84q0 63 -22.5 128.5t-57.5 114.5l184 14q21 -31 38 -76t26.5 -95t9.5 -97q0 -83 -27 -144t-77 -94.5t-118 -33.5q-56 0 -99.5 25t-71.5 76
q-28 -51 -71.5 -76t-99.5 -25q-67 0 -116.5 33.5t-76.5 95t-27 143.5q0 47 9.5 97t26 95t37.5 76l184 -14q-34 -49 -57 -114.5t-23 -128.5zM401 781h180l-97 -175h-143z" />
    <glyph glyph-name="uni03CF" unicode="&#x3cf;" horiz-adv-x="847" 
d="M80 760h199v-308l262 308h240l-298 -330q99 -4 170.5 -44t110 -108t38.5 -158q0 -91 -39.5 -159t-109.5 -106t-162 -38q-40 0 -75.5 7t-56.5 17l20 154q32 -17 74 -17q63 0 104 39t41 104q0 80 -57 129t-174 49q-48 0 -88 -8v-291h-199v760z" />
    <glyph glyph-name="uni03D7" unicode="&#x3d7;" horiz-adv-x="648" 
d="M61 516h181v-215l163 215h206l-191 -232q59 -40 107 -86t76.5 -101t28.5 -121q0 -67 -30.5 -116.5t-85.5 -76.5t-127 -27q-40 0 -74 7t-61 20l19 132q16 -8 39 -15t49 -7q38 0 65 23t27 65q0 56 -42.5 106t-115.5 98l-53 -66v-119h-181v516z" />
    <glyph glyph-name="uni0400" unicode="&#x400;" horiz-adv-x="679" 
d="M80 760h528v-153h-344v-146h303v-153h-303v-155h358v-153h-542v760zM142 989h210l117 -154h-163z" />
    <glyph glyph-name="uni0401" unicode="&#x401;" horiz-adv-x="679" 
d="M80 760h528v-153h-344v-146h303v-153h-303v-155h358v-153h-542v760zM143 915q0 37 24.5 60t63.5 23t64 -23t25 -60t-25 -60t-64 -23t-63.5 23t-24.5 60zM384 915q0 37 25 60t63 23q40 0 64.5 -23t24.5 -60t-24.5 -60t-64.5 -23q-38 0 -63 23t-25 60z" />
    <glyph glyph-name="uni0402" unicode="&#x402;" horiz-adv-x="935" 
d="M231 597h-196v163h648v-163h-249v-147q52 10 86.5 13.5t75.5 3.5q94 0 162 -29t105 -82.5t37 -126.5q0 -112 -71.5 -175t-196.5 -63q-28 0 -58 2.5t-49 6.5l11 155q22 -1 35.5 -2t26.5 -1q101 0 101 76q0 85 -130 85q-78 0 -135 -16v-297h-203v597z" />
    <glyph glyph-name="uni0403" unicode="&#x403;" horiz-adv-x="640" 
d="M80 760h525v-163h-323v-597h-202v760zM330 989h210l-163 -154h-164z" />
    <glyph glyph-name="uni0404" unicode="&#x404;" horiz-adv-x="759" 
d="M44 378q0 87 30.5 159t86 124.5t132 81t168.5 28.5q65 0 130.5 -16t110.5 -43l-30 -157q-47 23 -99 36t-99 13q-85 0 -143 -37.5t-80 -104.5h313v-149h-318q18 -75 78 -116.5t151 -41.5q48 0 106.5 16.5t106.5 43.5l20 -164q-46 -28 -115 -45t-137 -17
q-127 0 -219.5 47.5t-142.5 134.5t-50 207z" />
    <glyph glyph-name="uni0405" unicode="&#x405;" horiz-adv-x="667" 
d="M62 211q48 -31 114 -49t128 -18q115 0 115 72q0 21 -11.5 35.5t-39.5 27.5t-79 27q-123 34 -177 89.5t-54 146.5q0 109 77.5 171.5t211.5 62.5q65 0 129.5 -16t107.5 -43l-26 -156q-40 25 -96 40t-106 15q-104 0 -104 -67q0 -29 24 -46t89 -37q136 -38 195 -93.5
t59 -146.5q0 -115 -80.5 -178.5t-225.5 -63.5q-51 0 -102 8.5t-94.5 23t-71.5 33.5z" />
    <glyph glyph-name="uni0406" unicode="&#x406;" horiz-adv-x="362" 
d="M80 760h202v-760h-202v760z" />
    <glyph glyph-name="uni0407" unicode="&#x407;" horiz-adv-x="362" 
d="M80 760h202v-760h-202v760zM-28 915q0 37 24.5 60t63.5 23t64 -23t25 -60t-25 -60t-64 -23t-63.5 23t-24.5 60zM213 915q0 37 25 60t63 23q40 0 64.5 -23t24.5 -60t-24.5 -60t-64.5 -23q-38 0 -63 23t-25 60z" />
    <glyph glyph-name="uni0408" unicode="&#x408;" horiz-adv-x="583" 
d="M508 270q0 -286 -280 -286q-55 0 -108 11.5t-85 30.5l18 155q65 -33 135 -33q63 0 90 31t27 103v478h203v-490z" />
    <glyph glyph-name="uni0409.alt" unicode="&#x409;" horiz-adv-x="1202" 
d="M583 597h-214l-8 -212q-4 -112 -19 -187.5t-44.5 -120.5t-76 -64.5t-115.5 -19.5q-24 0 -48.5 2t-40.5 6l9 156q7 -1 17 -1.5t17 -0.5q32 0 52.5 12.5t33 43t19 85t10.5 138.5l13 326h587v-241h100q92 0 158.5 -31.5t102.5 -89.5t36 -138q0 -81 -36 -139.5t-102.5 -89.5
t-158.5 -31h-292v597zM844 147q133 0 133 113q0 112 -133 112h-69v-225h69z" />
    <glyph glyph-name="uni040A" unicode="&#x40a;" horiz-adv-x="1170" 
d="M80 760h202v-286h270v286h192v-248h100q92 0 158 -31t102 -88t36 -136q0 -80 -36 -137.5t-102 -88.5t-158 -31h-292v311h-270v-311h-202v760zM744 147h69q133 0 133 110q0 108 -133 108h-69v-218z" />
    <glyph glyph-name="uni040B" unicode="&#x40b;" horiz-adv-x="946" 
d="M231 597h-196v163h648v-163h-249v-147q37 7 62.5 10.5t47.5 5t49 1.5q137 0 214.5 -63.5t77.5 -179.5v-224h-203v183q0 126 -142 126q-25 0 -49 -3t-57 -11v-295h-203v597z" />
    <glyph glyph-name="uni040C" unicode="&#x40c;" horiz-adv-x="816" 
d="M80 760h199v-312l260 312h240l-323 -363l354 -397h-261l-270 326v-326h-199v760zM393 989h210l-163 -154h-164z" />
    <glyph glyph-name="uni040D" unicode="&#x40d;" horiz-adv-x="861" 
d="M80 760h183v-467l349 467h169v-760h-183v469l-350 -469h-168v760zM220 989h210l117 -154h-163z" />
    <glyph glyph-name="uni040E" unicode="&#x40e;" horiz-adv-x="798" 
d="M409 0h-211l120 219l-306 541h221l181 -358l156 358h216zM188 977q1 6 1 13h136v-7q2 -33 22 -51.5t54 -18.5q35 0 55 18.5t21 52.5v6h136q1 -5 1 -13q0 -78 -57.5 -124.5t-155.5 -46.5q-97 0 -155 46.5t-58 124.5z" />
    <glyph glyph-name="uni040F" unicode="&#x40f;" horiz-adv-x="847" 
d="M80 760h202v-597h283v597h203v-760h-247v-179h-194v179h-247v760z" />
    <glyph glyph-name="uni0410" unicode="&#x410;" horiz-adv-x="847" 
d="M319 760h209l298 -760h-212l-59 177h-276l-59 -177h-199zM505 328l-88 267l-88 -267h176z" />
    <glyph glyph-name="uni0411" unicode="&#x411;" horiz-adv-x="711" 
d="M80 760h525v-156h-345v-139h120q140 0 214 -62t74 -170q0 -107 -74 -170t-214 -63h-300v760zM260 139h105q54 0 82.5 25.5t28.5 67.5q0 44 -29 69t-82 25h-105v-187z" />
    <glyph glyph-name="uni0412" unicode="&#x412;" horiz-adv-x="724" 
d="M80 760h296q130 0 197.5 -50t67.5 -146q0 -53 -25 -95t-69 -64q62 -17 98 -66t36 -117q0 -109 -71 -165.5t-209 -56.5h-321v760zM388 138q50 0 76 23.5t26 66.5q0 90 -106 90h-125v-180h129zM359 451q100 0 100 88q0 83 -99 83h-101v-171h100z" />
    <glyph glyph-name="uni0413" unicode="&#x413;" horiz-adv-x="640" 
d="M80 760h525v-163h-323v-597h-202v760z" />
    <glyph glyph-name="uni0414.alt" unicode="&#x414;" horiz-adv-x="917" 
d="M783 163h108v-342h-194v179h-485v-179h-194v342h81q26 32 42.5 76t26 109.5t13.5 161.5l10 250h592v-597zM585 597h-213l-5 -137q-4 -105 -18.5 -178t-39.5 -119h276v434z" />
    <glyph glyph-name="uni0415" unicode="&#x415;" horiz-adv-x="679" 
d="M80 760h528v-153h-344v-146h303v-153h-303v-155h358v-153h-542v760z" />
    <glyph glyph-name="uni0416" unicode="&#x416;" horiz-adv-x="1198" 
d="M1184 0h-247l-240 331v-331h-197v330l-242 -330h-244l317 392l-290 368h229l230 -315v315h197v-317l231 317h227l-290 -364z" />
    <glyph glyph-name="uni0417" unicode="&#x417;" horiz-adv-x="680" 
d="M81 201q47 -26 110.5 -42.5t124.5 -16.5q60 0 92 23t32 66q0 39 -27 59.5t-77 20.5h-155v147h138q101 0 101 77q0 41 -33 62t-95 21q-46 0 -95.5 -14t-94.5 -40l-41 150q46 28 113 45t135 17q139 0 216 -55t77 -154q0 -58 -27 -99.5t-78 -63.5q62 -18 98 -68t36 -119
q0 -111 -81 -172t-228 -61q-49 0 -100 8t-96 22t-78 33z" />
    <glyph glyph-name="uni0418" unicode="&#x418;" horiz-adv-x="861" 
d="M80 760h183v-467l349 467h169v-760h-183v469l-350 -469h-168v760z" />
    <glyph glyph-name="uni0419" unicode="&#x419;" horiz-adv-x="861" 
d="M80 760h183v-467l349 467h169v-760h-183v469l-350 -469h-168v760zM217 977q1 6 1 13h136v-7q2 -33 22 -51.5t54 -18.5q35 0 55 18.5t21 52.5v6h136q1 -5 1 -13q0 -78 -57.5 -124.5t-155.5 -46.5q-97 0 -155 46.5t-58 124.5z" />
    <glyph glyph-name="uni041A" unicode="&#x41a;" horiz-adv-x="816" 
d="M80 760h199v-312l260 312h240l-323 -363l354 -397h-261l-270 326v-326h-199v760z" />
    <glyph glyph-name="uni041B.alt" unicode="&#x41b;" horiz-adv-x="867" 
d="M787 0h-198v597h-220l-8 -212q-4 -112 -19 -187.5t-44.5 -120.5t-76 -64.5t-115.5 -19.5q-24 0 -48.5 2t-40.5 6l9 156q7 -1 17 -1.5t17 -0.5q32 0 52.5 12.5t33 43t19 85t10.5 138.5l13 326h599v-760z" />
    <glyph glyph-name="uni041C.alt" unicode="&#x41c;" horiz-adv-x="1016" 
d="M104 760h186l220 -444l216 444h186l45 -760h-187l-17 467l-167 -342h-155l-169 337l-15 -462h-187z" />
    <glyph glyph-name="uni041D" unicode="&#x41d;" horiz-adv-x="860" 
d="M80 760h202v-289h296v289h202v-760h-202v309h-296v-309h-202v760z" />
    <glyph glyph-name="uni041E" unicode="&#x41e;" horiz-adv-x="912" 
d="M456 -16q-90 0 -165.5 29t-130.5 82t-85.5 125.5t-30.5 159.5q0 84 31 156.5t87 126t131 83.5t163 30q90 0 165.5 -29t130.5 -82t85.5 -125.5t30.5 -159.5q0 -84 -31 -156.5t-87 -126t-131 -83.5t-163 -30zM659 379q0 64 -26 113.5t-71.5 78t-105.5 28.5q-59 0 -105 -28
t-72 -77t-26 -113t26 -113.5t72 -78t105 -28.5q60 0 105.5 28t71.5 77.5t26 112.5z" />
    <glyph glyph-name="uni041F" unicode="&#x41f;" horiz-adv-x="850" 
d="M80 760h690v-760h-202v597h-286v-597h-202v760z" />
    <glyph glyph-name="uni0420" unicode="&#x420;" horiz-adv-x="683" 
d="M80 760h276q92 0 158.5 -31.5t102.5 -89.5t36 -138q0 -122 -79 -191t-218 -69h-85v-241h-191v760zM326 388q132 0 132 113q0 112 -132 112h-55v-225h55z" />
    <glyph glyph-name="uni0421" unicode="&#x421;" horiz-adv-x="759" 
d="M44 378q0 87 30.5 159t86 124.5t132 81t168.5 28.5q65 0 130.5 -16t110.5 -43l-32 -167q-47 23 -98 36t-98 13q-102 0 -161.5 -58.5t-59.5 -156.5t59.5 -155.5t162.5 -57.5q48 0 106 16.5t106 42.5l21 -174q-46 -28 -115 -45t-137 -17q-127 0 -219.5 47.5t-142.5 134.5
t-50 207z" />
    <glyph glyph-name="uni0422" unicode="&#x422;" horiz-adv-x="739" 
d="M268 597h-233v163h669v-163h-233v-597h-203v597z" />
    <glyph glyph-name="uni0423" unicode="&#x423;" horiz-adv-x="798" 
d="M409 0h-211l120 219l-306 541h221l181 -358l156 358h216z" />
    <glyph glyph-name="uni0424" unicode="&#x424;" horiz-adv-x="1022" 
d="M412 54q-112 7 -194.5 48t-128 111.5t-45.5 166.5q0 95 45.5 166t128.5 112t194 48v75h197v-75q112 -7 194.5 -48t128 -111.5t45.5 -166.5q0 -95 -45.5 -166t-128 -112t-194.5 -48v-75h-197v75zM286.5 498q-47.5 -44 -47.5 -118t47.5 -118t129.5 -54v344
q-82 -10 -129.5 -54zM783 380q0 74 -47.5 118t-129.5 54v-344q82 10 129.5 54t47.5 118z" />
    <glyph glyph-name="uni0425" unicode="&#x425;" horiz-adv-x="796" 
d="M279 396l-246 364h236l135 -234l133 234h230l-249 -373l263 -387h-238l-153 258l-146 -258h-229z" />
    <glyph glyph-name="uni0426" unicode="&#x426;" horiz-adv-x="894" 
d="M80 760h202v-597h276v597h202v-597h107v-342h-194v179h-593v760z" />
    <glyph glyph-name="uni0427" unicode="&#x427;" horiz-adv-x="789" 
d="M710 0h-193v269q-79 -22 -160 -22q-148 0 -224 64t-76 186v263h191v-228q0 -63 35.5 -93t111.5 -30q64 0 122 23v328h193v-760z" />
    <glyph glyph-name="uni0428" unicode="&#x428;" horiz-adv-x="1208" 
d="M80 760h195v-597h231v597h196v-597h231v597h195v-760h-1048v760z" />
    <glyph glyph-name="uni0429" unicode="&#x429;" horiz-adv-x="1252" 
d="M80 760h195v-597h226v597h196v-597h226v597h195v-597h108v-342h-195v179h-951v760z" />
    <glyph glyph-name="uni042A" unicode="&#x42a;" horiz-adv-x="858" 
d="M243 597h-208v163h400v-241h96q92 0 158 -31.5t102 -89.5t36 -138q0 -81 -36 -139.5t-102 -89.5t-158 -31h-288v597zM435 147h65q133 0 133 113q0 112 -133 112h-65v-225z" />
    <glyph glyph-name="uni042B" unicode="&#x42b;" horiz-adv-x="1028" 
d="M80 760h191v-241h100q92 0 158.5 -31.5t102.5 -89.5t36 -138q0 -81 -36 -139.5t-102.5 -89.5t-158.5 -31h-291v760zM746 760h203v-760h-203v760zM271 147h70q132 0 132 113q0 112 -132 112h-70v-225z" />
    <glyph glyph-name="uni042C" unicode="&#x42c;" horiz-adv-x="700" 
d="M80 760h191v-241h102q92 0 158 -31.5t102 -89.5t36 -138q0 -81 -36 -139.5t-102 -89.5t-158 -31h-293v760zM271 147h71q133 0 133 113q0 112 -133 112h-71v-225z" />
    <glyph glyph-name="uni042D" unicode="&#x42d;" horiz-adv-x="759" 
d="M715 378q0 -114 -50 -201.5t-142 -137.5t-220 -50q-69 0 -137.5 17t-115.5 45l21 164q48 -27 106.5 -43.5t106.5 -16.5q91 0 150.5 41.5t78.5 116.5h-318v149h313q-22 67 -80.5 104.5t-142.5 37.5q-46 0 -98.5 -13t-100.5 -36l-30 157q46 27 111.5 43t129.5 16
q128 0 221.5 -49.5t145 -138t51.5 -205.5z" />
    <glyph glyph-name="uni042E" unicode="&#x42e;" horiz-adv-x="1222" 
d="M80 760h202v-289h99q20 90 76 158.5t138 107.5t180 39q87 0 160.5 -29t128 -82t84.5 -125.5t30 -159.5q0 -85 -31 -157t-86 -125.5t-128.5 -83.5t-158.5 -30q-104 0 -188 41t-139 114t-70 170h-95v-309h-202v760zM875 189.5q44 27.5 69 76.5t25 114t-25 114t-69 76.5
t-101 27.5q-56 0 -100 -27.5t-69 -76.5t-25 -114t25 -114t69 -76.5t100 -27.5q57 0 101 27.5z" />
    <glyph glyph-name="uni042F" unicode="&#x42f;" horiz-adv-x="748" 
d="M669 0h-192v244h-92l-143 -244h-220l189 285q-57 32 -91 87.5t-34 130.5q0 80 39.5 137.5t104 88.5t140.5 31h299v-760zM280 502q0 -111 130 -111h67v222h-65q-132 0 -132 -111z" />
    <glyph glyph-name="uni0430" unicode="&#x430;" horiz-adv-x="657" 
d="M596 0h-171l-2 67q-47 -83 -158 -83q-67 0 -118.5 34.5t-80.5 96t-29 141.5q0 79 31 141t84 98.5t119 36.5q50 0 90 -21.5t62 -60.5l2 66h171v-516zM424 258q0 50 -29 81.5t-74 31.5q-46 0 -75 -31.5t-29 -81.5q0 -49 29 -81t75 -32q45 0 74 32t29 81z" />
    <glyph glyph-name="uni0431" unicode="&#x431;" horiz-adv-x="660" 
d="M179 700q71 46 185 58q38 4 63 10.5t45 14.5q31 11 52 36l67 -130q-10 -13 -30.5 -28t-38.5 -23q-25 -10 -53 -16.5t-87 -13.5q-94 -11 -137 -59t-47 -145q26 50 73.5 77.5t112.5 27.5q68 0 122 -34t85.5 -92t31.5 -131q0 -78 -35.5 -138.5t-97.5 -95t-143 -34.5
q-122 0 -197.5 66.5t-98.5 190.5q-9 51 -9 110q0 132 33 217.5t104 131.5zM263.5 331.5q-29.5 -30.5 -29.5 -79.5q0 -48 29.5 -79t75.5 -31q47 0 76 30.5t29 79.5t-29 79.5t-76 30.5q-46 0 -75.5 -30.5z" />
    <glyph glyph-name="uni0432" unicode="&#x432;" horiz-adv-x="600" 
d="M61 516h270q104 0 156 -35.5t52 -99.5q0 -33 -18.5 -62.5t-59.5 -44.5q51 -12 76.5 -45.5t25.5 -77.5q0 -70 -53.5 -110.5t-160.5 -40.5h-288v516zM313 113q71 0 71 49q0 50 -73 50h-81v-99h83zM297 308q69 0 69 47q0 48 -70 48h-66v-95h67z" />
    <glyph glyph-name="uni0433" unicode="&#x433;" horiz-adv-x="481" 
d="M61 516h399v-145h-218v-371h-181v516z" />
    <glyph glyph-name="uni0434.alt" unicode="&#x434;" horiz-adv-x="722" 
d="M610 145h92v-300h-172v155h-345v-155h-172v300h70q18 23 29 50t17 66.5t8 98.5l7 156h466v-371zM430 372h-124l-3 -60q-2 -57 -12.5 -98t-25.5 -69h165v227z" />
    <glyph glyph-name="uni0435" unicode="&#x435;" horiz-adv-x="603" 
d="M348 -16q-97 0 -166.5 33t-107 94.5t-37.5 146.5q0 81 34 143t95 96.5t141 34.5q78 0 135 -31.5t87.5 -89t30.5 -137.5q0 -14 -1 -28t-3 -29h-343q12 -52 51.5 -75.5t107.5 -23.5q41 0 86 9.5t79 25.5l16 -130q-42 -19 -95.5 -29t-109.5 -10zM390 334q-7 35 -29 55.5
t-57 20.5q-78 0 -94 -95h182q0 10 -2 19z" />
    <glyph glyph-name="uni0436" unicode="&#x436;" horiz-adv-x="903" 
d="M904 0h-203l-161 225v-225h-178v225l-162 -225h-201l213 270l-177 246h187l140 -212v212h178v-212l140 212h188l-178 -245z" />
    <glyph glyph-name="uni0437" unicode="&#x437;" horiz-adv-x="544" 
d="M57 157q41 -16 87 -25.5t90 -9.5q40 0 61.5 11t21.5 33q0 25 -23.5 34t-75.5 9h-79v103h90q46 0 67 8.5t21 32.5q0 42 -80 42q-40 0 -82 -8t-86 -23l-17 131q36 15 90.5 26t112.5 11q110 0 173.5 -42t63.5 -114q0 -42 -23 -72t-62 -42q48 -13 74 -44.5t26 -77.5
q0 -76 -63 -116t-185 -40q-67 0 -125.5 11t-93.5 26z" />
    <glyph glyph-name="uni0438" unicode="&#x438;" horiz-adv-x="652" 
d="M61 516h177v-272l204 272h149v-516h-178v271l-203 -271h-149v516z" />
    <glyph glyph-name="uni0439" unicode="&#x439;" horiz-adv-x="652" 
d="M61 516h177v-272l204 272h149v-516h-178v271l-203 -271h-149v516zM120 744q0 12 1 15h129v-14q2 -34 21.5 -51.5t50.5 -17.5q32 0 51.5 17.5t20.5 53.5v12h129q1 -3 1 -15q0 -80 -54 -126t-148 -46t-148 46t-54 126z" />
    <glyph glyph-name="uni043A" unicode="&#x43a;" horiz-adv-x="643" 
d="M61 516h181v-207l163 207h204l-207 -244l242 -272h-220l-182 220v-220h-181v516z" />
    <glyph glyph-name="uni043B.alt" unicode="&#x43b;" horiz-adv-x="669" 
d="M608 0h-181v371h-126l-5 -99q-5 -103 -26.5 -164t-65.5 -87.5t-115 -26.5q-21 0 -40.5 2t-37.5 6l8 144q17 -3 29 -3q28 0 44.5 15t24.5 52t11 103l10 203h470v-516z" />
    <glyph glyph-name="uni043C.alt" unicode="&#x43c;" horiz-adv-x="782" 
d="M78 516h186l129 -253l126 253h184l31 -516h-166l-11 304l-114 -227h-103l-116 225l-10 -302h-166z" />
    <glyph glyph-name="uni043D" unicode="&#x43d;" horiz-adv-x="640" 
d="M61 516h181v-186h155v186h182v-516h-181v187h-156v-187h-181v516z" />
    <glyph glyph-name="uni043E" unicode="&#x43e;" horiz-adv-x="641" 
d="M321 -16q-82 0 -146 35.5t-101 97.5t-37 141t37 141t101.5 97.5t145.5 35.5q82 0 145.5 -35.5t100.5 -97t37 -141.5q0 -79 -37 -141t-101 -97.5t-145 -35.5zM395 339.5q-29 31.5 -74 31.5q-46 0 -75 -31.5t-29 -81.5q0 -49 29 -81t75 -32q45 0 74 32t29 81q0 50 -29 81.5
z" />
    <glyph glyph-name="uni043F" unicode="&#x43f;" horiz-adv-x="638" 
d="M61 516h516v-516h-181v371h-154v-371h-181v516z" />
    <glyph glyph-name="uni0440" unicode="&#x440;" horiz-adv-x="657" 
d="M61 516h169l2 -68q50 84 159 84q67 0 118.5 -34.5t81 -96t29.5 -141.5q0 -78 -31 -140.5t-83.5 -99t-119.5 -36.5q-94 0 -144 68v-297h-181v761zM411 177q29 32 29 81q0 50 -29 81.5t-75 31.5t-75 -31.5t-29 -81.5q0 -49 29 -81t75 -32t75 32z" />
    <glyph glyph-name="uni0441" unicode="&#x441;" horiz-adv-x="543" 
d="M478 340q-34 15 -67 22t-65 7q-61 0 -95 -29t-34 -82q0 -52 35 -81.5t97 -29.5q33 0 65.5 7.5t69.5 22.5l18 -148q-35 -20 -82.5 -31.5t-96.5 -11.5q-87 0 -151 33.5t-99.5 94.5t-35.5 142t36 143t100.5 96.5t148.5 34.5q47 0 96.5 -11t80.5 -28z" />
    <glyph glyph-name="uni0442" unicode="&#x442;" horiz-adv-x="552" 
d="M185 371h-164v145h510v-145h-165v-371h-181v371z" />
    <glyph glyph-name="uni0443" unicode="&#x443;" horiz-adv-x="620" 
d="M278 -245h-182l129 273l-212 488h199l105 -303l97 303h193z" />
    <glyph glyph-name="uni0444" unicode="&#x444;" horiz-adv-x="841" 
d="M337 -245v230q-141 11 -220.5 82.5t-79.5 189.5t80 190t220 82v281h166v-281q141 -10 221 -82t80 -190t-80 -189.5t-221 -82.5v-230h-166zM495 384v-255q139 15 139 128q0 115 -139 127zM207 257q0 -112 138 -128v255q-138 -13 -138 -127z" />
    <glyph glyph-name="uni0445" unicode="&#x445;" horiz-adv-x="625" 
d="M209 266l-178 250h202l84 -140l82 140h192l-177 -251l189 -265h-203l-94 156l-93 -156h-192z" />
    <glyph glyph-name="uni0446" unicode="&#x446;" horiz-adv-x="683" 
d="M61 516h181v-371h148v371h181v-371h92v-300h-172v155h-430v516z" />
    <glyph glyph-name="uni0447" unicode="&#x447;" horiz-adv-x="594" 
d="M533 0h-173v172q-27 -11 -53.5 -16t-54.5 -5q-106 0 -162 51t-56 149v165h174v-129q0 -49 20.5 -71t63.5 -22q20 0 35.5 3t32.5 12v207h173v-516z" />
    <glyph glyph-name="uni0448" unicode="&#x448;" horiz-adv-x="920" 
d="M61 516h177v-371h134v371h176v-371h134v371h178v-516h-799v516z" />
    <glyph glyph-name="uni0449" unicode="&#x449;" horiz-adv-x="968" 
d="M61 516h177v-371h132v371h176v-371h132v371h177v-371h93v-300h-173v155h-714v516z" />
    <glyph glyph-name="uni044A" unicode="&#x44a;" horiz-adv-x="674" 
d="M167 371h-147v145h321v-151h83q108 0 165.5 -48t57.5 -134t-59 -134.5t-164 -48.5h-257v371zM341 120h59q36 0 56 16.5t20 46.5q0 29 -20 45t-56 16h-59v-124z" />
    <glyph glyph-name="uni044B" unicode="&#x44b;" horiz-adv-x="841" 
d="M61 516h174v-151h83q107 0 164.5 -48t57.5 -134t-58.5 -134.5t-163.5 -48.5h-257v516zM599 516h181v-516h-181v516zM235 120h59q36 0 55.5 16.5t19.5 46.5q0 29 -19.5 45t-55.5 16h-59v-124z" />
    <glyph glyph-name="uni044C" unicode="&#x44c;" horiz-adv-x="573" 
d="M61 516h174v-151h88q107 0 164.5 -48t57.5 -134t-58.5 -134.5t-163.5 -48.5h-262v516zM235 120h64q36 0 55.5 16.5t19.5 46.5q0 29 -19.5 45t-55.5 16h-64v-124z" />
    <glyph glyph-name="uni044D" unicode="&#x44d;" horiz-adv-x="543" 
d="M57 156q29 -13 67.5 -22.5t73.5 -9.5q65 0 102 23t49 64h-210v103h207q-13 38 -49 59t-96 21q-34 0 -70 -7.5t-69 -23.5l-18 130q30 16 80 26.5t97 10.5q87 0 151 -33t99.5 -93.5t35.5 -144.5q0 -81 -35 -142.5t-99.5 -96t-151.5 -34.5q-51 0 -98.5 11t-82.5 29z" />
    <glyph glyph-name="uni044E" unicode="&#x44e;" horiz-adv-x="905" 
d="M61 516h181v-186h79q15 60 53 105.5t93.5 71t122.5 25.5q80 0 143 -35.5t99 -97.5t36 -141q0 -78 -36.5 -140t-99 -98t-142.5 -36q-68 0 -123.5 25.5t-93.5 71.5t-53 106h-78v-187h-181v516zM661 175.5q27 30.5 27 82.5q0 51 -27 82t-71 31q-43 0 -70.5 -31t-27.5 -82
q0 -52 27.5 -82.5t70.5 -30.5q44 0 71 30.5z" />
    <glyph glyph-name="uni044F" unicode="&#x44f;" horiz-adv-x="606" 
d="M545 0h-174v170h-64l-94 -170h-184l122 194q-45 21 -70 58t-25 90q0 80 59 127t165 47h265v-516zM371 283v120h-65q-40 0 -59.5 -16t-19.5 -45q0 -26 19.5 -42.5t59.5 -16.5h65z" />
    <glyph glyph-name="uni0450" unicode="&#x450;" horiz-adv-x="603" 
d="M348 -16q-97 0 -166.5 33t-107 94.5t-37.5 146.5q0 81 34 143t95 96.5t141 34.5q78 0 135 -31.5t87.5 -89t30.5 -137.5q0 -14 -1 -28t-3 -29h-343q12 -52 51.5 -75.5t107.5 -23.5q41 0 86 9.5t79 25.5l16 -130q-42 -19 -95.5 -29t-109.5 -10zM390 334q-7 35 -29 55.5
t-57 20.5q-78 0 -94 -95h182q0 10 -2 19zM112 780h194l105 -170h-150z" />
    <glyph glyph-name="uni0451" unicode="&#x451;" horiz-adv-x="603" 
d="M348 -16q-97 0 -166.5 33t-107 94.5t-37.5 146.5q0 81 34 143t95 96.5t141 34.5q78 0 135 -31.5t87.5 -89t30.5 -137.5q0 -14 -1 -28t-3 -29h-343q12 -52 51.5 -75.5t107.5 -23.5q41 0 86 9.5t79 25.5l16 -130q-42 -19 -95.5 -29t-109.5 -10zM390 334q-7 35 -29 55.5
t-57 20.5q-78 0 -94 -95h182q0 10 -2 19zM184 758q38 0 61.5 -22.5t23.5 -57.5q0 -36 -23.5 -58t-61.5 -22t-62 22t-24 58q0 35 24.5 57.5t61.5 22.5zM422 758q38 0 62 -22.5t24 -57.5q0 -36 -24 -58t-62 -22t-61.5 22t-23.5 58q0 35 24 57.5t61 22.5z" />
    <glyph glyph-name="uni0452" unicode="&#x452;" horiz-adv-x="630" 
d="M61 607h-76v101h76v102h181v-102h171v-101h-171v-153q19 37 54 57.5t80 20.5q70 0 114 -43.5t65 -118t21 -169.5q0 -138 -34 -254t-89 -206l-189 14q33 55 63 123.5t49 149t19 171.5q0 95 -20 133.5t-59 38.5q-33 0 -53.5 -25t-20.5 -72v-274h-181v607z" />
    <glyph glyph-name="uni0453" unicode="&#x453;" horiz-adv-x="481" 
d="M61 516h399v-145h-218v-371h-181v516zM253 780h193l-148 -170h-150z" />
    <glyph glyph-name="uni0454" unicode="&#x454;" horiz-adv-x="543" 
d="M481 363q-32 16 -68 23.5t-71 7.5q-60 0 -96 -21t-49 -59h207v-103h-210q12 -41 49.5 -64t102.5 -23q35 0 73.5 9.5t66.5 22.5l17 -130q-34 -18 -82 -29t-98 -11q-87 0 -151.5 32.5t-99.5 93.5t-35 144q0 82 35 143.5t99 96t151 34.5q47 0 97 -10.5t80 -26.5z" />
    <glyph glyph-name="uni0455" unicode="&#x455;" horiz-adv-x="519" 
d="M59 163q39 -25 85 -38t91 -13q68 0 68 35q0 18 -15 27.5t-63 22.5q-96 26 -136.5 64.5t-40.5 105.5q0 78 59 121.5t162 43.5q52 0 103 -11t84 -30l-18 -126q-80 39 -157 39q-58 0 -58 -33q0 -16 16 -26.5t63 -23.5q96 -26 137 -66.5t41 -106.5q0 -78 -61.5 -121
t-171.5 -43q-60 0 -117 14t-91 37z" />
    <glyph glyph-name="uni0456" unicode="&#x456;" horiz-adv-x="303" 
d="M61 516h181v-516h-181v516zM49 693q0 42 29.5 69.5t72.5 27.5t72 -27.5t29 -69.5q0 -40 -29 -68t-72 -28t-72.5 28t-29.5 68z" />
    <glyph glyph-name="uni0457" unicode="&#x457;" horiz-adv-x="303" 
d="M61 516h181v-516h-181v516zM32 758q38 0 61.5 -22.5t23.5 -57.5q0 -36 -23.5 -58t-61.5 -22t-62 22t-24 58q0 35 24.5 57.5t61.5 22.5zM270 758q38 0 62 -22.5t24 -57.5q0 -36 -24 -58t-62 -22t-61.5 22t-23.5 58q0 35 24 57.5t61 22.5z" />
    <glyph glyph-name="uni0458.alt" unicode="&#x458;" horiz-adv-x="303" 
d="M242 -18q0 -116 -56 -176t-164 -60q-39 0 -76.5 7t-58.5 19l18 147q38 -16 77 -16q41 0 60 22t19 71v520h181v-534zM49 693q0 42 29.5 69.5t72.5 27.5t72 -27.5t29 -69.5q0 -40 -29 -68t-72 -28t-72.5 28t-29.5 68z" />
    <glyph glyph-name="uni0459.alt" unicode="&#x459;" horiz-adv-x="924" 
d="M417 371h-116l-5 -99q-5 -103 -27 -164t-65.5 -87.5t-114.5 -26.5q-21 0 -40.5 2t-37.5 6l8 144q17 -3 29 -3q28 0 44.5 15t24.5 52t11 103l10 203h453v-151h83q108 0 165 -48t57 -134t-58.5 -134.5t-163.5 -48.5h-257v371zM591 120h59q36 0 56 16.5t20 46.5q0 29 -20 45
t-56 16h-59v-124z" />
    <glyph glyph-name="uni045A" unicode="&#x45a;" horiz-adv-x="888" 
d="M61 516h181v-182h139v182h173v-158h89q105 0 161 -46.5t56 -132.5q0 -85 -57.5 -132t-159.5 -47h-262v191h-139v-191h-181v516zM554 120h68q31 0 49 15.5t18 43.5q0 27 -17.5 42.5t-49.5 15.5h-68v-117z" />
    <glyph glyph-name="uni045B" unicode="&#x45b;" horiz-adv-x="625" 
d="M61 607h-76v101h76v102h181v-102h171v-101h-171v-152q21 37 59.5 57t88.5 20q86 0 132 -55.5t46 -162.5v-314h-181v280q0 91 -69 91q-37 0 -56.5 -25.5t-19.5 -72.5v-273h-181v607z" />
    <glyph glyph-name="uni045C" unicode="&#x45c;" horiz-adv-x="643" 
d="M61 516h181v-207l163 207h204l-207 -244l242 -272h-220l-182 220v-220h-181v516zM308 780h193l-148 -170h-150z" />
    <glyph glyph-name="uni045D" unicode="&#x45d;" horiz-adv-x="652" 
d="M61 516h177v-272l204 272h149v-516h-178v271l-203 -271h-149v516zM131 780h194l105 -170h-150z" />
    <glyph glyph-name="uni045E" unicode="&#x45e;" horiz-adv-x="620" 
d="M278 -245h-182l129 273l-212 488h199l105 -303l97 303h193zM110 744q0 12 1 15h129v-14q2 -34 21.5 -51.5t50.5 -17.5q32 0 51.5 17.5t20.5 53.5v12h129q1 -3 1 -15q0 -80 -54 -126t-148 -46t-148 46t-54 126z" />
    <glyph glyph-name="uni045F" unicode="&#x45f;" horiz-adv-x="636" 
d="M61 516h181v-371h152v371h181v-516h-171v-155h-172v155h-171v516z" />
    <glyph glyph-name="uni0462" unicode="&#x462;" horiz-adv-x="797" 
d="M162 534h-142v144h142v82h192v-82h239v-144h-239v-98h143q82 0 141.5 -27t91.5 -75.5t32 -111.5q0 -103 -70 -162.5t-195 -59.5h-335v534zM354 143h115q98 0 98 78q0 37 -24.5 58t-73.5 21h-115v-157z" />
    <glyph glyph-name="uni0463" unicode="&#x463;" horiz-adv-x="662" 
d="M155 395h-135v121h135v294h173v-294h192v-121h-192v-73h104q96 0 149 -42t53 -118q0 -71 -53.5 -116.5t-148.5 -45.5h-277v395zM328 110h76q64 0 64 51t-64 51h-76v-102z" />
    <glyph glyph-name="uni0472" unicode="&#x472;" horiz-adv-x="912" 
d="M162 662.5q56 53.5 131 83.5t163 30q90 0 165.5 -29t130.5 -82t85.5 -125.5t30.5 -159.5q0 -84 -31 -156.5t-87 -126t-131 -83.5t-163 -30q-90 0 -165.5 29t-130.5 82t-85.5 125.5t-30.5 159.5q0 84 31 156.5t87 126zM456 158q77 0 131 44t70 118h-402q17 -74 70.5 -118
t130.5 -44zM259 454h394q-19 68 -71.5 108t-125.5 40t-125.5 -40t-71.5 -108z" />
    <glyph glyph-name="uni0473" unicode="&#x473;" horiz-adv-x="641" 
d="M321 532q82 0 145.5 -35.5t100.5 -97t37 -141.5q0 -79 -37 -141t-101 -97.5t-145 -35.5q-82 0 -146 35.5t-101 97.5t-37 141t37 141t101.5 97.5t145.5 35.5zM445 214h-248q11 -44 44.5 -70.5t79.5 -26.5t79 26.5t45 70.5zM397 375q-32 24 -76 24t-76.5 -24t-45.5 -65h243
q-13 41 -45 65z" />
    <glyph glyph-name="uni0474" unicode="&#x474;" horiz-adv-x="834" 
d="M12 760h224l165 -540l103 369q19 68 48.5 106.5t75.5 55t112 16.5q28 0 50.5 -2.5t38.5 -4.5l-12 -157q-7 1 -15.5 1.5t-15.5 0.5q-36 0 -60 -16.5t-39 -60.5l-185 -528h-206z" />
    <glyph glyph-name="uni0475" unicode="&#x475;" horiz-adv-x="624" 
d="M13 516h201l86 -340l53 199q18 74 64 110t125 36q17 0 40 -2t33 -4l-7 -149q-4 1 -11.5 2t-18.5 1q-28 0 -45.5 -10.5t-25.5 -35.5l-113 -323h-191z" />
    <glyph glyph-name="uni0490" unicode="&#x490;" horiz-adv-x="640" 
d="M80 760h331v150h194v-313h-323v-597h-202v760z" />
    <glyph glyph-name="uni0491" unicode="&#x491;" horiz-adv-x="481" 
d="M61 516h227v141h172v-286h-218v-371h-181v516z" />
    <glyph glyph-name="uni1E24" unicode="&#x1e24;" horiz-adv-x="860" 
d="M80 760h202v-289h296v289h202v-760h-202v309h-296v-309h-202v760zM430 -50q45 0 72.5 -26.5t27.5 -67.5q0 -42 -27.5 -68t-72.5 -26t-72.5 26t-27.5 68q0 41 28 67.5t72 26.5z" />
    <glyph glyph-name="uni1E25" unicode="&#x1e25;" horiz-adv-x="625" 
d="M61 810h181v-355q21 37 59.5 57t88.5 20q86 0 132 -55.5t46 -162.5v-314h-181v280q0 91 -69 91q-37 0 -56.5 -25.5t-19.5 -72.5v-273h-181v810zM207 -139q0 40 25.5 64.5t68.5 24.5t69 -24.5t26 -64.5t-26 -64.5t-69 -24.5t-68.5 24.5t-25.5 64.5z" />
    <glyph glyph-name="uni1E36" unicode="&#x1e36;" horiz-adv-x="639" 
d="M80 760h202v-597h322v-163h-524v760zM346 -50q45 0 72.5 -26.5t27.5 -67.5q0 -42 -27.5 -68t-72.5 -26t-72.5 26t-27.5 68q0 41 28 67.5t72 26.5z" />
    <glyph glyph-name="uni1E37" unicode="&#x1e37;" horiz-adv-x="303" 
d="M61 810h181v-810h-181v810zM57 -139q0 40 25.5 64.5t68.5 24.5t69 -24.5t26 -64.5t-26 -64.5t-69 -24.5t-68.5 24.5t-25.5 64.5z" />
    <glyph glyph-name="Wgrave" unicode="&#x1e80;" horiz-adv-x="1139" 
d="M19 760h213l112 -507l141 497h171l142 -488l110 498h212l-225 -760h-183l-145 490l-140 -490h-183zM360 989h210l117 -154h-163z" />
    <glyph glyph-name="wgrave" unicode="&#x1e81;" horiz-adv-x="887" 
d="M18 516h190l68 -316l92 316h148l98 -317l66 317h190l-166 -516h-162l-103 298l-98 -298h-157zM252 780h194l105 -170h-150z" />
    <glyph glyph-name="Wacute" unicode="&#x1e82;" horiz-adv-x="1139" 
d="M19 760h213l112 -507l141 497h171l142 -488l110 498h212l-225 -760h-183l-145 490l-140 -490h-183zM565 989h210l-163 -154h-164z" />
    <glyph glyph-name="wacute" unicode="&#x1e83;" horiz-adv-x="887" 
d="M18 516h190l68 -316l92 316h148l98 -317l66 317h190l-166 -516h-162l-103 298l-98 -298h-157zM441 780h193l-148 -170h-150z" />
    <glyph glyph-name="Wdieresis" unicode="&#x1e84;" horiz-adv-x="1139" 
d="M19 760h213l112 -507l141 497h171l142 -488l110 498h212l-225 -760h-183l-145 490l-140 -490h-183zM361 915q0 37 24.5 60t63.5 23t64 -23t25 -60t-25 -60t-64 -23t-63.5 23t-24.5 60zM602 915q0 37 25 60t63 23q40 0 64.5 -23t24.5 -60t-24.5 -60t-64.5 -23
q-38 0 -63 23t-25 60z" />
    <glyph glyph-name="wdieresis" unicode="&#x1e85;" horiz-adv-x="887" 
d="M18 516h190l68 -316l92 316h148l98 -317l66 317h190l-166 -516h-162l-103 298l-98 -298h-157zM324 758q38 0 61.5 -22.5t23.5 -57.5q0 -36 -23.5 -58t-61.5 -22t-62 22t-24 58q0 35 24.5 57.5t61.5 22.5zM562 758q38 0 62 -22.5t24 -57.5q0 -36 -24 -58t-62 -22t-61.5 22
t-23.5 58q0 35 24 57.5t61 22.5z" />
    <glyph glyph-name="uni1E9E" unicode="&#x1e9e;" horiz-adv-x="801" 
d="M75 434q0 107 41 183.5t117.5 117.5t181.5 41q79 0 154 -25.5t131 -70.5v-114l-105 -128q75 -20 120 -79t45 -139q0 -71 -33 -124t-92.5 -82.5t-139.5 -29.5q-95 0 -167 42l18 149q56 -36 125 -36q51 0 79.5 25.5t28.5 69.5q0 43 -29.5 67.5t-81.5 24.5q-10 0 -21 -1
t-21 -3l-37 93l137 170q-48 30 -106 30q-76 0 -119.5 -51.5t-43.5 -143.5v-420h-182v434z" />
    <glyph glyph-name="Ygrave" unicode="&#x1ef2;" horiz-adv-x="764" 
d="M8 760h223l154 -302l154 302h217l-275 -451v-309h-199v309zM172 989h210l117 -154h-163z" />
    <glyph glyph-name="ygrave" unicode="&#x1ef3;" horiz-adv-x="620" 
d="M278 -245h-182l129 273l-212 488h199l105 -303l97 303h193zM121 780h194l105 -170h-150z" />
    <glyph glyph-name="uni2000" unicode="&#x2000;" horiz-adv-x="500" 
 />
    <glyph glyph-name="uni2001" unicode="&#x2001;" horiz-adv-x="1000" 
 />
    <glyph glyph-name="uni2002" unicode="&#x2002;" horiz-adv-x="500" 
 />
    <glyph glyph-name="uni2003" unicode="&#x2003;" horiz-adv-x="1000" 
 />
    <glyph glyph-name="uni2004" unicode="&#x2004;" horiz-adv-x="333" 
 />
    <glyph glyph-name="uni2005" unicode="&#x2005;" horiz-adv-x="250" 
 />
    <glyph glyph-name="uni2006" unicode="&#x2006;" horiz-adv-x="166" 
 />
    <glyph glyph-name="uni2007" unicode="&#x2007;" horiz-adv-x="646" 
 />
    <glyph glyph-name="uni2008" unicode="&#x2008;" horiz-adv-x="306" 
 />
    <glyph glyph-name="uni2009" unicode="&#x2009;" horiz-adv-x="200" 
 />
    <glyph glyph-name="uni200A" unicode="&#x200a;" horiz-adv-x="55" 
 />
    <glyph glyph-name="uni200B" unicode="&#x200b;" 
 />
    <glyph glyph-name="uni2010" unicode="&#x2010;" horiz-adv-x="419" 
d="M50 361h319v-147h-319v147z" />
    <glyph glyph-name="uni2011" unicode="&#x2011;" horiz-adv-x="419" 
d="M50 361h319v-147h-319v147z" />
    <glyph glyph-name="figuredash" unicode="&#x2012;" horiz-adv-x="500" 
d="M0 355h500v-133h-500v133z" />
    <glyph glyph-name="endash" unicode="&#x2013;" horiz-adv-x="500" 
d="M0 355h500v-133h-500v133z" />
    <glyph glyph-name="emdash" unicode="&#x2014;" horiz-adv-x="1000" 
d="M0 355h1000v-133h-1000v133z" />
    <glyph glyph-name="uni2015" unicode="&#x2015;" horiz-adv-x="1000" 
d="M0 355h1000v-133h-1000v133z" />
    <glyph glyph-name="quoteleft" unicode="&#x2018;" horiz-adv-x="256" 
d="M104 760h132q-20 -58 -30 -124t-10 -137h-161q1 72 19.5 143t49.5 118z" />
    <glyph glyph-name="quoteright" unicode="&#x2019;" horiz-adv-x="256" 
d="M61 760h160q-1 -73 -19 -143.5t-49 -117.5h-133q41 118 41 261z" />
    <glyph glyph-name="quotesinglbase" unicode="&#x201a;" horiz-adv-x="256" 
d="M61 125h160q-1 -73 -19 -143.5t-49 -117.5h-133q41 118 41 261z" />
    <glyph glyph-name="quotedblleft" unicode="&#x201c;" horiz-adv-x="480" 
d="M104 760h132q-20 -58 -30 -124t-10 -137h-161q1 72 19.5 143t49.5 118zM328 760h132q-20 -58 -30 -124t-10 -137h-161q1 72 19.5 143t49.5 118z" />
    <glyph glyph-name="quotedblright" unicode="&#x201d;" horiz-adv-x="480" 
d="M61 760h160q-1 -73 -19 -143.5t-49 -117.5h-133q41 118 41 261zM285 760h160q-1 -73 -19 -143.5t-49 -117.5h-133q41 118 41 261z" />
    <glyph glyph-name="quotedblbase" unicode="&#x201e;" horiz-adv-x="480" 
d="M61 125h160q-1 -73 -19 -143.5t-49 -117.5h-133q41 118 41 261zM285 125h160q-1 -73 -19 -143.5t-49 -117.5h-133q41 118 41 261z" />
    <glyph glyph-name="dagger" unicode="&#x2020;" horiz-adv-x="534" 
d="M357 -130h-181v545h-146v138h146v207h181v-207h146v-138h-146v-545z" />
    <glyph glyph-name="daggerdbl" unicode="&#x2021;" horiz-adv-x="534" 
d="M176 427h-146v137h146v196h181v-196h146v-137h-146v-225h146v-138h-146v-194h-181v194h-146v138h146v225z" />
    <glyph glyph-name="bullet" unicode="&#x2022;" horiz-adv-x="366" 
d="M46 272q0 38 18 69t49 49t69 18t69 -18t49.5 -49t18.5 -69q0 -37 -18.5 -68t-49.5 -49.5t-69 -18.5q-37 0 -68 18.5t-49.5 49.5t-18.5 68z" />
    <glyph glyph-name="ellipsis" unicode="&#x2026;" horiz-adv-x="1000" 
d="M64 90q0 41 28.5 68t73.5 27t73.5 -27t28.5 -68q0 -42 -28.5 -69t-73.5 -27t-73.5 27t-28.5 69zM397 90q0 41 28.5 68t73.5 27t73.5 -27t28.5 -68q0 -42 -28.5 -69t-73.5 -27t-73.5 27t-28.5 69zM732 90q0 41 28.5 68t73.5 27t73.5 -27t28.5 -68q0 -42 -28.5 -69
t-73.5 -27t-73.5 27t-28.5 69z" />
    <glyph glyph-name="perthousand" unicode="&#x2030;" horiz-adv-x="1443" 
d="M682 744h142l-506 -744h-143zM743 -14q-58 0 -103.5 25t-72 68.5t-26.5 99.5t26.5 99.5t72 68.5t103.5 25t103.5 -25t72 -68.5t26.5 -99.5t-26.5 -99.5t-72 -68.5t-103.5 -25zM795.5 236.5q-19.5 21.5 -52.5 21.5t-52.5 -21.5t-19.5 -57.5t19.5 -58t52.5 -22t52.5 22
t19.5 58t-19.5 57.5zM1186 -14q-58 0 -103.5 25t-72 68.5t-26.5 99.5t26.5 99.5t72 68.5t103.5 25t103.5 -25t72 -68.5t26.5 -99.5t-26.5 -99.5t-72 -68.5t-103.5 -25zM1238.5 236.5q-19.5 21.5 -52.5 21.5t-52.5 -21.5t-19.5 -57.5t19.5 -58t52.5 -22t52.5 22t19.5 58
t-19.5 57.5zM257 374q-58 0 -103.5 25t-72 68.5t-26.5 99.5t26.5 99.5t72 68.5t103.5 25t103.5 -25t72 -68.5t26.5 -99.5t-26.5 -99.5t-72 -68.5t-103.5 -25zM309.5 624.5q-19.5 21.5 -52.5 21.5t-52.5 -21.5t-19.5 -57.5t19.5 -58t52.5 -22t52.5 22t19.5 58t-19.5 57.5z
" />
    <glyph glyph-name="minute" unicode="&#x2032;" horiz-adv-x="227" 
d="M48 760h171l-69 -291h-138z" />
    <glyph glyph-name="second" unicode="&#x2033;" horiz-adv-x="444" 
d="M48 760h171l-69 -291h-138zM265 760h171l-69 -291h-138z" />
    <glyph glyph-name="guilsinglleft" unicode="&#x2039;" horiz-adv-x="394" 
d="M24 257l152 223h191l-157 -223l157 -223h-191z" />
    <glyph glyph-name="guilsinglright" unicode="&#x203a;" horiz-adv-x="394" 
d="M184 257l-157 223h192l151 -223l-151 -223h-192z" />
    <glyph glyph-name="fraction" unicode="&#x2044;" horiz-adv-x="190" 
d="M277 744h142l-506 -744h-143z" />
    <glyph glyph-name="uni2070" unicode="&#x2070;" horiz-adv-x="398" 
d="M13 660q0 32 6 60q13 74 60 114t120 40q87 0 136.5 -56.5t49.5 -157.5q0 -31 -6 -60q-13 -73 -59.5 -113.5t-120.5 -40.5q-87 0 -136.5 57t-49.5 157zM246 609q2 11 3 23.5t1 27.5q0 102 -51 102q-37 0 -47 -51q-2 -10 -3 -23t-1 -28q0 -102 51 -102q37 0 47 51z" />
    <glyph glyph-name="uni2074" unicode="&#x2074;" horiz-adv-x="398" 
d="M329 626h44v-95h-44v-75h-115v75h-194v99l175 234h134v-238zM214 626v115l-86 -115h86z" />
    <glyph glyph-name="uni2075" unicode="&#x2075;" horiz-adv-x="398" 
d="M68 864h264v-100h-158l-2 -47q15 1 31 1q74 0 114.5 -34t40.5 -97q0 -67 -47.5 -104t-133.5 -37q-43 0 -80 7.5t-54 19.5l10 102q45 -28 106 -28q68 0 68 42q0 39 -65 39q-25 0 -51.5 -2t-52.5 -7z" />
    <glyph glyph-name="uni2076" unicode="&#x2076;" horiz-adv-x="398" 
d="M182 866l153 -3q-39 -27 -78.5 -66t-66.5 -78q22 9 46 9q59 0 97.5 -38t38.5 -95q0 -66 -48 -107.5t-124 -41.5q-78 0 -126 43t-48 113q0 65 41.5 135.5t114.5 128.5zM199 640q-22 0 -36 -13t-14 -35q0 -20 14 -33.5t36 -13.5t36 13.5t14 33.5q0 21 -14 34.5t-36 13.5z
" />
    <glyph glyph-name="uni2077" unicode="&#x2077;" horiz-adv-x="398" 
d="M208 454l-140 3l152 292h-175v115h317v-99z" />
    <glyph glyph-name="uni2078" unicode="&#x2078;" horiz-adv-x="398" 
d="M318 841q45 -33 45 -87q0 -56 -48 -84q28 -13 44 -39t16 -57q0 -60 -46.5 -94t-129.5 -34q-82 0 -129 34t-47 94q0 32 16.5 57.5t44.5 39.5q-49 26 -49 83q0 54 45.5 87t118.5 33q74 0 119 -33zM163 549.5q14 -12.5 36 -12.5q23 0 36.5 12.5t13.5 32.5t-13.5 32t-36.5 12
q-22 0 -36 -12t-14 -32t14 -32.5zM167 716q12 -11 32 -11t32 11t12 29q0 19 -12 30t-32 11t-32 -11t-12 -30q0 -18 12 -29z" />
    <glyph glyph-name="uni2079" unicode="&#x2079;" horiz-adv-x="398" 
d="M216 454l-153 3q39 27 78.5 66.5t65.5 76.5q-20 -8 -46 -8q-58 0 -96.5 38t-38.5 95q0 66 48 107.5t124 41.5q78 0 126 -43t48 -113q0 -65 -42 -135.5t-114 -128.5zM199 775q-22 0 -36 -13.5t-14 -33.5q0 -21 14 -34.5t36 -13.5q23 0 36.5 13t13.5 35q0 20 -13.5 33.5
t-36.5 13.5z" />
    <glyph glyph-name="uni2080" unicode="&#x2080;" horiz-adv-x="398" 
d="M13 78q0 32 6 60q13 74 60 114t120 40q87 0 136.5 -56.5t49.5 -157.5q0 -31 -6 -60q-13 -73 -59.5 -113.5t-120.5 -40.5q-87 0 -136.5 57t-49.5 157zM246 27q2 11 3 23.5t1 27.5q0 102 -51 102q-37 0 -47 -51q-2 -10 -3 -23t-1 -28q0 -102 51 -102q37 0 47 51z" />
    <glyph glyph-name="uni2081" unicode="&#x2081;" horiz-adv-x="398" 
d="M295 -126h-134v279l-99 -45l-18 113l133 61h118v-408z" />
    <glyph glyph-name="uni2082" unicode="&#x2082;" horiz-adv-x="398" 
d="M355 -126h-319v102q35 23 66 46.5t52 42.5q56 52 56 84q0 37 -49 37q-53 0 -103 -47l-21 101q23 23 65.5 37.5t83.5 14.5q71 0 113.5 -34t42.5 -91q0 -77 -82 -150q-21 -19 -43 -36h138v-107z" />
    <glyph glyph-name="uni2083" unicode="&#x2083;" horiz-adv-x="398" 
d="M47 -8q26 -13 57 -20t59 -7q61 0 61 41q0 38 -58 38q-25 0 -43 -7l-27 64l96 81h-143v100h290v-92l-88 -73q47 -7 75.5 -38.5t28.5 -74.5q0 -64 -49 -102t-132 -38q-90 0 -137 28z" />
    <glyph glyph-name="uni2084" unicode="&#x2084;" horiz-adv-x="398" 
d="M329 44h44v-95h-44v-75h-115v75h-194v99l175 234h134v-238zM214 44v115l-86 -115h86z" />
    <glyph glyph-name="uni2085" unicode="&#x2085;" horiz-adv-x="398" 
d="M68 282h264v-100h-158l-2 -47q15 1 31 1q74 0 114.5 -34t40.5 -97q0 -67 -47.5 -104t-133.5 -37q-43 0 -80 7.5t-54 19.5l10 102q45 -28 106 -28q68 0 68 42q0 39 -65 39q-25 0 -51.5 -2t-52.5 -7z" />
    <glyph glyph-name="uni2086" unicode="&#x2086;" horiz-adv-x="398" 
d="M182 284l153 -3q-39 -27 -78.5 -66t-66.5 -78q22 9 46 9q59 0 97.5 -38t38.5 -95q0 -66 -48 -107.5t-124 -41.5q-78 0 -126 43t-48 113q0 65 41.5 135.5t114.5 128.5zM199 58q-22 0 -36 -13t-14 -35q0 -20 14 -33.5t36 -13.5t36 13.5t14 33.5q0 21 -14 34.5t-36 13.5z
" />
    <glyph glyph-name="uni2087" unicode="&#x2087;" horiz-adv-x="398" 
d="M208 -128l-140 3l152 292h-175v115h317v-99z" />
    <glyph glyph-name="uni2088" unicode="&#x2088;" horiz-adv-x="398" 
d="M318 259q45 -33 45 -87q0 -56 -48 -84q28 -13 44 -39t16 -57q0 -60 -46.5 -94t-129.5 -34q-82 0 -129 34t-47 94q0 32 16.5 57.5t44.5 39.5q-49 26 -49 83q0 54 45.5 87t118.5 33q74 0 119 -33zM163 -32.5q14 -12.5 36 -12.5q23 0 36.5 12.5t13.5 32.5t-13.5 32t-36.5 12
q-22 0 -36 -12t-14 -32t14 -32.5zM167 134q12 -11 32 -11t32 11t12 29q0 19 -12 30t-32 11t-32 -11t-12 -30q0 -18 12 -29z" />
    <glyph glyph-name="uni2089" unicode="&#x2089;" horiz-adv-x="398" 
d="M216 -128l-153 3q39 27 78.5 66.5t65.5 76.5q-20 -8 -46 -8q-58 0 -96.5 38t-38.5 95q0 66 48 107.5t124 41.5q78 0 126 -43t48 -113q0 -65 -42 -135.5t-114 -128.5zM199 193q-22 0 -36 -13.5t-14 -33.5q0 -21 14 -34.5t36 -13.5q23 0 36.5 13t13.5 35q0 20 -13.5 33.5
t-36.5 13.5z" />
    <glyph glyph-name="Euro" unicode="&#x20ac;" horiz-adv-x="646" 
d="M624 580q-69 32 -140 32q-63 0 -100.5 -28t-54.5 -77h226v-98h-245q-1 -18 -1 -38q0 -19 1 -36h245v-98h-226q19 -52 59.5 -78.5t106.5 -26.5q32 0 67.5 8.5t70.5 26.5l20 -141q-39 -22 -84.5 -32t-98.5 -10q-138 0 -218 68.5t-107 184.5h-103v98h90q-1 17 -1 34
q0 20 1 40h-90v98h106q30 114 111 183.5t209 69.5q53 0 96.5 -9.5t80.5 -29.5z" />
    <glyph glyph-name="uni20B4" unicode="&#x20b4;" horiz-adv-x="620" 
d="M547 34q-38 -25 -90.5 -37.5t-114.5 -12.5q-131 0 -204.5 51t-73.5 140q0 44 16 74h-61v96h135q32 28 85 64h-220v96h333q18 21 18 42q0 27 -23.5 43t-65.5 16q-34 0 -73 -10.5t-76 -28.5l-27 145q38 20 94.5 34t116.5 14q110 0 173 -48.5t63 -132.5q0 -41 -15 -74h61
v-96h-133q-33 -28 -85 -64h218v-96h-336q-13 -19 -13 -42q0 -32 31 -50.5t85 -18.5q86 0 157 47z" />
    <glyph glyph-name="uni20B9" unicode="&#x20b9;" horiz-adv-x="646" 
d="M538 0h-237l-237 256v97h124q57 0 93.5 23t50.5 65h-268v108h270q-25 87 -142 87h-128v108h543v-108h-138q37 -35 51 -87h87v-108h-83q-13 -82 -74 -131t-163 -61z" />
    <glyph glyph-name="uni20BA" unicode="&#x20ba;" horiz-adv-x="646" 
d="M237 -16q-34 0 -64 2.5t-53 7.5v255l-91 -42v101l91 42v73l-91 -42v101l91 42v220h176v-138l155 72v-101l-155 -72v-73l155 71v-101l-155 -71v-197q76 10 116.5 60t53.5 147l160 -7q-21 -350 -389 -350z" />
    <glyph glyph-name="uni20BD" unicode="&#x20bd;" horiz-adv-x="620" 
d="M100 0v126h-86v109h86v67h-86v116h86v326h216q131 0 203.5 -59.5t72.5 -160.5q0 -103 -71.5 -162.5t-204.5 -59.5h-50v-67h187v-109h-187v-126h-166zM389 587.5q-30 25.5 -87 25.5h-36v-195h36q56 0 86.5 25.5t30.5 71.5q0 47 -30 72.5z" />
    <glyph glyph-name="uni2116" unicode="&#x2116;" horiz-adv-x="1347" 
d="M80 760h172l342 -464v464h184v-760h-173l-342 463v-463h-183v760zM900 567q0 56 26.5 99.5t72.5 68.5t104 25q59 0 105 -25t72.5 -68.5t26.5 -99.5q0 -55 -26.5 -99t-72.5 -69t-105 -25q-58 0 -104 25t-72.5 69t-26.5 99zM912 191v118h383v-118h-383zM1038 567
q0 -32 18 -52t48 -20q29 0 47.5 20t18.5 52t-18 52t-48 20q-29 0 -47.5 -20t-18.5 -52z" />
    <glyph glyph-name="trademark" unicode="&#x2122;" horiz-adv-x="865" 
d="M398 760h132l75 -182l78 182h131l25 -370h-115l-12 212l-63 -150h-88l-62 146l-11 -208h-115zM107 662h-99v98h326v-98h-99v-272h-128v272z" />
    <glyph glyph-name="Omega" unicode="&#x2126;" horiz-adv-x="922" 
d="M734 160h120v-160h-342v156q68 39 103 100.5t35 139.5q0 60 -24 105.5t-66.5 71t-98.5 25.5t-99 -25.5t-67 -71t-24 -105.5q0 -78 36 -139.5t103 -100.5v-156h-343v160h120q-60 47 -92 114t-32 148q0 77 29.5 141.5t83 112.5t126 74t159.5 26q118 0 207.5 -45t140 -124.5
t50.5 -184.5q0 -166 -125 -262z" />
    <glyph glyph-name="uni2150" unicode="&#x2150;" horiz-adv-x="986" 
d="M645 744h142l-506 -744h-143zM796 -2l-140 3l152 292h-175v115h317v-99zM295 336h-134v279l-99 -45l-18 113l133 61h118v-408z" />
    <glyph glyph-name="uni2151" unicode="&#x2151;" horiz-adv-x="986" 
d="M671 744h142l-506 -744h-143zM804 -2l-153 3q39 27 78.5 66.5t65.5 76.5q-20 -8 -46 -8q-58 0 -96.5 38t-38.5 95q0 66 48 107.5t124 41.5q78 0 126 -43t48 -113q0 -65 -42 -135.5t-114 -128.5zM787 319q-22 0 -36 -13.5t-14 -33.5q0 -21 14 -34.5t36 -13.5q23 0 36.5 13
t13.5 35q0 20 -13.5 33.5t-36.5 13.5zM295 336h-134v279l-99 -45l-18 113l133 61h118v-408z" />
    <glyph glyph-name="onethird" unicode="&#x2153;" horiz-adv-x="986" 
d="M654 744h142l-506 -744h-143zM635 118q26 -13 57 -20t59 -7q61 0 61 41q0 38 -58 38q-25 0 -43 -7l-27 64l96 81h-143v100h290v-92l-88 -73q47 -7 75.5 -38.5t28.5 -74.5q0 -64 -49 -102t-132 -38q-90 0 -137 28zM295 336h-134v279l-99 -45l-18 113l133 61h118v-408z" />
    <glyph glyph-name="twothirds" unicode="&#x2154;" horiz-adv-x="986" 
d="M678 744h142l-506 -744h-143zM635 118q26 -13 57 -20t59 -7q61 0 61 41q0 38 -58 38q-25 0 -43 -7l-27 64l96 81h-143v100h290v-92l-88 -73q47 -7 75.5 -38.5t28.5 -74.5q0 -64 -49 -102t-132 -38q-90 0 -137 28zM355 336h-319v102q35 23 66 46.5t52 42.5q56 52 56 84
q0 37 -49 37q-53 0 -103 -47l-21 101q23 23 65.5 37.5t83.5 14.5q71 0 113.5 -34t42.5 -91q0 -77 -82 -150q-21 -19 -43 -36h138v-107z" />
    <glyph glyph-name="uni2155" unicode="&#x2155;" horiz-adv-x="986" 
d="M657 744h142l-506 -744h-143zM656 408h264v-100h-158l-2 -47q15 1 31 1q74 0 114.5 -34t40.5 -97q0 -67 -47.5 -104t-133.5 -37q-43 0 -80 7.5t-54 19.5l10 102q45 -28 106 -28q68 0 68 42q0 39 -65 39q-25 0 -51.5 -2t-52.5 -7zM295 336h-134v279l-99 -45l-18 113
l133 61h118v-408z" />
    <glyph glyph-name="uni2156" unicode="&#x2156;" horiz-adv-x="986" 
d="M686 744h142l-506 -744h-143zM656 408h264v-100h-158l-2 -47q15 1 31 1q74 0 114.5 -34t40.5 -97q0 -67 -47.5 -104t-133.5 -37q-43 0 -80 7.5t-54 19.5l10 102q45 -28 106 -28q68 0 68 42q0 39 -65 39q-25 0 -51.5 -2t-52.5 -7zM355 336h-319v102q35 23 66 46.5t52 42.5
q56 52 56 84q0 37 -49 37q-53 0 -103 -47l-21 101q23 23 65.5 37.5t83.5 14.5q71 0 113.5 -34t42.5 -91q0 -77 -82 -150q-21 -19 -43 -36h138v-107z" />
    <glyph glyph-name="uni2157" unicode="&#x2157;" horiz-adv-x="986" 
d="M661 744h142l-506 -744h-143zM656 408h264v-100h-158l-2 -47q15 1 31 1q74 0 114.5 -34t40.5 -97q0 -67 -47.5 -104t-133.5 -37q-43 0 -80 7.5t-54 19.5l10 102q45 -28 106 -28q68 0 68 42q0 39 -65 39q-25 0 -51.5 -2t-52.5 -7zM47 454q26 -13 57 -20t59 -7q61 0 61 41
q0 38 -58 38q-25 0 -43 -7l-27 64l96 81h-143v100h290v-92l-88 -73q47 -7 75.5 -38.5t28.5 -74.5q0 -64 -49 -102t-132 -38q-90 0 -137 28z" />
    <glyph glyph-name="uni2158" unicode="&#x2158;" horiz-adv-x="986" 
d="M679 744h142l-506 -744h-143zM656 408h264v-100h-158l-2 -47q15 1 31 1q74 0 114.5 -34t40.5 -97q0 -67 -47.5 -104t-133.5 -37q-43 0 -80 7.5t-54 19.5l10 102q45 -28 106 -28q68 0 68 42q0 39 -65 39q-25 0 -51.5 -2t-52.5 -7zM329 506h44v-95h-44v-75h-115v75h-194v99
l175 234h134v-238zM214 506v115l-86 -115h86z" />
    <glyph glyph-name="uni2159" unicode="&#x2159;" horiz-adv-x="986" 
d="M684 744h142l-506 -744h-143zM770 410l153 -3q-39 -27 -78.5 -66t-66.5 -78q22 9 46 9q59 0 97.5 -38t38.5 -95q0 -66 -48 -107.5t-124 -41.5q-78 0 -126 43t-48 113q0 65 41.5 135.5t114.5 128.5zM787 184q-22 0 -36 -13t-14 -35q0 -20 14 -33.5t36 -13.5t36 13.5
t14 33.5q0 21 -14 34.5t-36 13.5zM295 336h-134v279l-99 -45l-18 113l133 61h118v-408z" />
    <glyph glyph-name="uni215A" unicode="&#x215a;" horiz-adv-x="986" 
d="M691 744h142l-506 -744h-143zM770 410l153 -3q-39 -27 -78.5 -66t-66.5 -78q22 9 46 9q59 0 97.5 -38t38.5 -95q0 -66 -48 -107.5t-124 -41.5q-78 0 -126 43t-48 113q0 65 41.5 135.5t114.5 128.5zM787 184q-22 0 -36 -13t-14 -35q0 -20 14 -33.5t36 -13.5t36 13.5
t14 33.5q0 21 -14 34.5t-36 13.5zM68 744h264v-100h-158l-2 -47q15 1 31 1q74 0 114.5 -34t40.5 -97q0 -67 -47.5 -104t-133.5 -37q-43 0 -80 7.5t-54 19.5l10 102q45 -28 106 -28q68 0 68 42q0 39 -65 39q-25 0 -51.5 -2t-52.5 -7z" />
    <glyph glyph-name="oneeighth" unicode="&#x215b;" horiz-adv-x="986" 
d="M663 744h142l-506 -744h-143zM906 385q45 -33 45 -87q0 -56 -48 -84q28 -13 44 -39t16 -57q0 -60 -46.5 -94t-129.5 -34q-82 0 -129 34t-47 94q0 32 16.5 57.5t44.5 39.5q-49 26 -49 83q0 54 45.5 87t118.5 33q74 0 119 -33zM751 93.5q14 -12.5 36 -12.5q23 0 36.5 12.5
t13.5 32.5t-13.5 32t-36.5 12q-22 0 -36 -12t-14 -32t14 -32.5zM755 260q12 -11 32 -11t32 11t12 29q0 19 -12 30t-32 11t-32 -11t-12 -30q0 -18 12 -29zM295 336h-134v279l-99 -45l-18 113l133 61h118v-408z" />
    <glyph glyph-name="threeeighths" unicode="&#x215c;" horiz-adv-x="986" 
d="M664 744h142l-506 -744h-143zM906 385q45 -33 45 -87q0 -56 -48 -84q28 -13 44 -39t16 -57q0 -60 -46.5 -94t-129.5 -34q-82 0 -129 34t-47 94q0 32 16.5 57.5t44.5 39.5q-49 26 -49 83q0 54 45.5 87t118.5 33q74 0 119 -33zM751 93.5q14 -12.5 36 -12.5q23 0 36.5 12.5
t13.5 32.5t-13.5 32t-36.5 12q-22 0 -36 -12t-14 -32t14 -32.5zM755 260q12 -11 32 -11t32 11t12 29q0 19 -12 30t-32 11t-32 -11t-12 -30q0 -18 12 -29zM47 454q26 -13 57 -20t59 -7q61 0 61 41q0 38 -58 38q-25 0 -43 -7l-27 64l96 81h-143v100h290v-92l-88 -73
q47 -7 75.5 -38.5t28.5 -74.5q0 -64 -49 -102t-132 -38q-90 0 -137 28z" />
    <glyph glyph-name="fiveeighths" unicode="&#x215d;" horiz-adv-x="986" 
d="M670 744h142l-506 -744h-143zM906 385q45 -33 45 -87q0 -56 -48 -84q28 -13 44 -39t16 -57q0 -60 -46.5 -94t-129.5 -34q-82 0 -129 34t-47 94q0 32 16.5 57.5t44.5 39.5q-49 26 -49 83q0 54 45.5 87t118.5 33q74 0 119 -33zM751 93.5q14 -12.5 36 -12.5q23 0 36.5 12.5
t13.5 32.5t-13.5 32t-36.5 12q-22 0 -36 -12t-14 -32t14 -32.5zM755 260q12 -11 32 -11t32 11t12 29q0 19 -12 30t-32 11t-32 -11t-12 -30q0 -18 12 -29zM68 744h264v-100h-158l-2 -47q15 1 31 1q74 0 114.5 -34t40.5 -97q0 -67 -47.5 -104t-133.5 -37q-43 0 -80 7.5
t-54 19.5l10 102q45 -28 106 -28q68 0 68 42q0 39 -65 39q-25 0 -51.5 -2t-52.5 -7z" />
    <glyph glyph-name="seveneighths" unicode="&#x215e;" horiz-adv-x="986" 
d="M634 744h142l-506 -744h-143zM906 385q45 -33 45 -87q0 -56 -48 -84q28 -13 44 -39t16 -57q0 -60 -46.5 -94t-129.5 -34q-82 0 -129 34t-47 94q0 32 16.5 57.5t44.5 39.5q-49 26 -49 83q0 54 45.5 87t118.5 33q74 0 119 -33zM751 93.5q14 -12.5 36 -12.5q23 0 36.5 12.5
t13.5 32.5t-13.5 32t-36.5 12q-22 0 -36 -12t-14 -32t14 -32.5zM755 260q12 -11 32 -11t32 11t12 29q0 19 -12 30t-32 11t-32 -11t-12 -30q0 -18 12 -29zM208 334l-140 3l152 292h-175v115h317v-99z" />
    <glyph glyph-name="partialdiff" unicode="&#x2202;" horiz-adv-x="648" 
d="M454 37q-74 -53 -176 -53q-76 0 -133 29t-88.5 81.5t-31.5 122.5q0 73 33 130.5t90 91.5t128 34q48 0 86 -17t60 -49v16v15q0 82 -36 124.5t-107 42.5q-40 0 -82 -15t-71 -39l-21 149q35 28 90 44t113 16q144 0 222.5 -90t78.5 -255q0 -131 -40.5 -228t-114.5 -150z
M310 339q-47 0 -77.5 -31.5t-30.5 -79.5q0 -42 24.5 -66t67.5 -24q46 0 77.5 32.5t31.5 78.5q0 42 -24.5 66t-68.5 24z" />
    <glyph glyph-name="Delta" unicode="&#x2206;" horiz-adv-x="846" 
d="M321 760h202l302 -760h-804zM563 151l-147 442l-146 -442h293z" />
    <glyph glyph-name="product" unicode="&#x220f;" horiz-adv-x="787" 
d="M80 760h628v-839h-199v682h-230v-682h-199v839z" />
    <glyph glyph-name="summation" unicode="&#x2211;" horiz-adv-x="656" 
d="M232 350l-193 279v131h561v-164h-318l167 -241l-180 -270h336v-164h-571v131z" />
    <glyph glyph-name="minus" unicode="&#x2212;" horiz-adv-x="646" 
d="M94 410h482v-149h-482v149z" />
    <glyph glyph-name="uni2215" unicode="&#x2215;" horiz-adv-x="190" 
d="M277 744h142l-506 -744h-143z" />
    <glyph glyph-name="uni2219" unicode="&#x2219;" horiz-adv-x="306" 
d="M51 379q0 41 28.5 68t73.5 27t73.5 -27t28.5 -68q0 -42 -28.5 -69t-73.5 -27t-73.5 27t-28.5 69z" />
    <glyph glyph-name="radical" unicode="&#x221a;" horiz-adv-x="759" 
d="M466 0h-174l-142 336h-119v145h256l97 -281l242 631h177z" />
    <glyph glyph-name="infinity" unicode="&#x221e;" horiz-adv-x="731" 
d="M215 151q-87 0 -138 53t-51 144t51 144t138 53q44 0 84.5 -21t65.5 -57q26 36 66 57t84 21q88 0 138.5 -53t50.5 -144t-50.5 -144t-138.5 -53q-45 0 -85 20.5t-65 57.5q-25 -37 -64.5 -57.5t-85.5 -20.5zM550 396.5q-16 17.5 -43 17.5q-50 0 -77 -66q26 -67 77 -67
q27 0 43 18t16 49t-16 48.5zM224 414q-28 0 -43.5 -17.5t-15.5 -48.5t15.5 -49t43.5 -18q47 0 77 67q-30 66 -77 66z" />
    <glyph glyph-name="integral" unicode="&#x222b;" horiz-adv-x="473" 
d="M109 530q-1 12 -1 21.5v28.5q0 116 55.5 178.5t159.5 62.5q31 0 65.5 -6.5t55.5 -17.5l-17 -146q-13 5 -33.5 9.5t-34.5 4.5q-77 0 -77 -95v-22t1 -19l31 -492q1 -9 1 -19.5v-30.5q0 -116 -55.5 -178.5t-159.5 -62.5q-31 0 -65.5 7t-55.5 17l17 146q13 -5 33.5 -9.5
t34.5 -4.5q77 0 77 95v24t-1 17z" />
    <glyph glyph-name="approxequal" unicode="&#x2248;" horiz-adv-x="646" 
d="M60 80v15q0 84 21 132t58 68t85 20q40 0 70.5 -13.5t58.5 -33.5q23 -16 40 -24t34 -8q20 0 32.5 17t13.5 62h137v-15q0 -83 -21 -131.5t-58 -68.5t-85 -20q-33 0 -60.5 10.5t-52.5 27.5q-28 18 -48.5 29.5t-41.5 11.5q-20 0 -32.5 -17t-13.5 -62h-137zM60 360v14
q0 84 21 132t58 68t85 20q40 0 70.5 -13.5t58.5 -32.5q23 -16 40 -24.5t34 -8.5q20 0 32.5 17t13.5 62h137v-14q0 -83 -21 -131.5t-58 -68.5t-85 -20q-33 0 -60.5 10.5t-52.5 26.5q-28 18 -48.5 30t-41.5 12q-20 0 -32.5 -17t-13.5 -62h-137z" />
    <glyph glyph-name="notequal" unicode="&#x2260;" horiz-adv-x="646" 
d="M112 282h148l45 99h-193v140h257l53 115h105l-53 -115h84v-140h-148l-45 -99h193v-140h-257l-53 -115h-105l53 115h-84v140z" />
    <glyph glyph-name="lessequal" unicode="&#x2264;" horiz-adv-x="646" 
d="M572 192l-475 158v170l475 158v-155l-316 -87l316 -88v-156zM576 0h-482v149h482v-149z" />
    <glyph glyph-name="greaterequal" unicode="&#x2265;" horiz-adv-x="646" 
d="M98 192v156l319 87l-319 88v155l475 -158v-170zM576 0h-482v149h482v-149z" />
    <glyph glyph-name="lozenge" unicode="&#x25ca;" horiz-adv-x="700" 
d="M272 811h156l231 -406l-231 -405h-156l-231 405zM350 637l-122 -231l122 -231l122 230z" />
    <glyph glyph-name="uniFB00" unicode="&#xfb00;" horiz-adv-x="876" 
d="M114 371h-83v145h83v50q0 119 59 184t168 65q33 0 69 -6.5t58 -17.5l-18 -146q-13 6 -33 10t-36 4q-86 0 -86 -105v-38h122v-145h-122v-371h-181v371zM542 371h-83v145h83v50q0 119 59 184t168 65q33 0 69 -6.5t58 -17.5l-18 -146q-13 6 -33 10t-36 4q-86 0 -86 -105v-38
h122v-145h-122v-371h-181v371z" />
    <glyph glyph-name="uniFB01" unicode="&#xfb01;" horiz-adv-x="735" 
d="M114 371h-83v145h83v50q0 119 58.5 184t165.5 65q31 0 58.5 -4.5t46.5 -12.5l-9 -150q-11 5 -26.5 8t-28.5 3q-84 0 -84 -105v-38h122v-145h-122v-371h-181v371zM494 516h181v-516h-181v516zM482 693q0 42 29.5 69.5t72.5 27.5t72 -27.5t29 -69.5q0 -40 -29 -68t-72 -28
t-72.5 28t-29.5 68z" />
    <glyph glyph-name="uniFB02" unicode="&#xfb02;" horiz-adv-x="735" 
d="M114 371h-83v145h83v50q0 119 58.5 184t165.5 65q31 0 58.5 -4.5t46.5 -12.5l-9 -150q-11 5 -26.5 8t-28.5 3q-84 0 -84 -105v-38h122v-145h-122v-371h-181v371zM494 810h181v-810h-181v810z" />
    <glyph glyph-name="uniFB03" unicode="&#xfb03;" horiz-adv-x="1164" 
d="M114 371h-83v145h83v50q0 119 59 184t168 65q33 0 69 -6.5t58 -17.5l-18 -146q-13 6 -33 10t-36 4q-86 0 -86 -105v-38h122v-145h-122v-371h-181v371zM542 371h-83v145h83v50q0 119 58.5 184t165.5 65q31 0 58.5 -4.5t46.5 -12.5l-9 -150q-11 5 -26.5 8t-28.5 3
q-84 0 -84 -105v-38h122v-145h-122v-371h-181v371zM922 516h181v-516h-181v516zM910 693q0 42 29.5 69.5t72.5 27.5t72 -27.5t29 -69.5q0 -40 -29 -68t-72 -28t-72.5 28t-29.5 68z" />
    <glyph glyph-name="uniFB04" unicode="&#xfb04;" horiz-adv-x="1164" 
d="M114 371h-83v145h83v50q0 119 59 184t168 65q33 0 69 -6.5t58 -17.5l-18 -146q-13 6 -33 10t-36 4q-86 0 -86 -105v-38h122v-145h-122v-371h-181v371zM542 371h-83v145h83v50q0 119 58.5 184t165.5 65q31 0 58.5 -4.5t46.5 -12.5l-9 -150q-11 5 -26.5 8t-28.5 3
q-84 0 -84 -105v-38h122v-145h-122v-371h-181v371zM922 810h181v-810h-181v810z" />
    <glyph glyph-name="uniFEFF" unicode="&#xfeff;" 
 />
    <glyph glyph-name="zero.pnum" horiz-adv-x="680" 
d="M53 504q25 123 98.5 189.5t188.5 66.5q143 0 222 -102t79 -286q0 -36 -4 -69t-10 -63q-23 -123 -97.5 -189.5t-189.5 -66.5q-142 0 -221.5 102t-79.5 286q0 36 3.5 69t10.5 63zM241.5 440.5q-2.5 -30.5 -2.5 -68.5q0 -222 101 -222q68 0 90 98q6 25 8.5 56t2.5 68
q0 222 -101 222q-69 0 -90 -98q-6 -25 -8.5 -55.5z" />
    <glyph glyph-name="one.pnum" horiz-adv-x="527" 
d="M413 0h-184v558l-186 -79l-30 156l251 109h149v-744z" />
    <glyph glyph-name="two.pnum" horiz-adv-x="647" 
d="M556 0h-518v137q62 53 112.5 102t86.5 89q38 45 60.5 77t32 58t9.5 52q0 40 -25.5 63.5t-67.5 23.5q-45 0 -89.5 -21t-83.5 -59l-31 153q46 41 108.5 63t129.5 22q77 0 133.5 -27t87.5 -77t31 -118q0 -65 -33.5 -132t-105.5 -145q-19 -21 -47 -48t-55 -53h265v-160z" />
    <glyph glyph-name="three.pnum" horiz-adv-x="610" 
d="M295 594h-264v150h481v-130l-170 -170q57 -4 101 -31.5t69 -73.5t25 -105q0 -76 -36.5 -132.5t-103.5 -87t-160 -30.5q-66 0 -124 13t-98 37l16 151q90 -49 191 -49q59 0 91.5 25t32.5 70q0 44 -31 67.5t-87 23.5q-19 0 -35.5 -1.5t-31.5 -6.5l-44 100z" />
    <glyph glyph-name="four.pnum" horiz-adv-x="663" 
d="M333 744h185v-448h85v-144h-85v-152h-170v152h-335v141zM348 535l-170 -239h170v239z" />
    <glyph glyph-name="five.pnum" horiz-adv-x="616" 
d="M69 744h433v-154h-271l-5 -119q33 5 54 5q82 0 142 -29t93.5 -81.5t33.5 -123.5q0 -79 -36.5 -137t-104 -89.5t-160.5 -31.5q-65 0 -127 12.5t-99 31.5l16 154q96 -44 188 -44q62 0 97.5 27t35.5 73q0 47 -39 73t-110 26q-37 0 -81.5 -5.5t-76.5 -14.5z" />
    <glyph glyph-name="six.pnum" horiz-adv-x="651" 
d="M154.5 595q61.5 83 146.5 152l223 -7q-195 -161 -268 -299q39 32 104 32q67 0 119 -30.5t82 -83.5t30 -121q0 -74 -35.5 -131.5t-97.5 -90t-144 -32.5q-90 0 -154.5 33t-99 94.5t-34.5 146.5q0 82 33.5 168t95 169zM310 334q-42 0 -70 -28t-28 -72q0 -43 28 -71t70 -28
q44 0 71.5 28t27.5 71q0 44 -27.5 72t-71.5 28z" />
    <glyph glyph-name="seven.pnum" horiz-adv-x="604" 
d="M284 -3l-198 5l260 570h-327v172h529v-149z" />
    <glyph glyph-name="eight.pnum" horiz-adv-x="663" 
d="M171.5 734q60.5 26 141.5 26t141.5 -26t94 -73t33.5 -110q0 -55 -27.5 -97.5t-77.5 -63.5q57 -21 90.5 -70t33.5 -112q0 -69 -35 -119t-99.5 -77.5t-153.5 -27.5t-153.5 27.5t-99.5 77.5t-35 119q0 64 33 112.5t91 69.5q-50 21 -77.5 63t-27.5 98q0 63 33.5 110t94 73z
M385 289.5q-28 25.5 -72 25.5t-72 -25.5t-28 -67.5q0 -41 27.5 -67t72.5 -26t72.5 26t27.5 67q0 42 -28 67.5zM380.5 598.5q-25.5 23.5 -67.5 23.5t-67.5 -23.5t-25.5 -62.5q0 -40 25.5 -63.5t67.5 -23.5t67.5 23.5t25.5 63.5q0 39 -25.5 62.5z" />
    <glyph glyph-name="nine.pnum" horiz-adv-x="651" 
d="M90 4q96 78 162.5 152.5t105.5 145.5q-19 -16 -45.5 -23.5t-58.5 -7.5q-66 0 -118.5 30.5t-82.5 84t-30 120.5q0 75 35.5 132t98 89.5t143.5 32.5q90 0 154.5 -33t99 -94.5t34.5 -146.5q0 -81 -33.5 -168t-95 -169t-146.5 -152zM304 410q43 0 70.5 28.5t27.5 71.5
q0 44 -27.5 71.5t-70.5 27.5t-71 -27.5t-28 -71.5t28 -72t71 -28z" />
    <glyph glyph-name="zero.dnom" horiz-adv-x="398" 
d="M13 204q0 32 6 60q13 74 60 114t120 40q87 0 136.5 -56.5t49.5 -157.5q0 -31 -6 -60q-13 -73 -59.5 -113.5t-120.5 -40.5q-87 0 -136.5 57t-49.5 157zM246 153q2 11 3 23.5t1 27.5q0 102 -51 102q-37 0 -47 -51q-2 -10 -3 -23t-1 -28q0 -102 51 -102q37 0 47 51z" />
    <glyph glyph-name="one.dnom" horiz-adv-x="398" 
d="M295 0h-134v279l-99 -45l-18 113l133 61h118v-408z" />
    <glyph glyph-name="two.dnom" horiz-adv-x="398" 
d="M355 0h-319v102q35 23 66 46.5t52 42.5q56 52 56 84q0 37 -49 37q-53 0 -103 -47l-21 101q23 23 65.5 37.5t83.5 14.5q71 0 113.5 -34t42.5 -91q0 -77 -82 -150q-21 -19 -43 -36h138v-107z" />
    <glyph glyph-name="three.dnom" horiz-adv-x="398" 
d="M47 118q26 -13 57 -20t59 -7q61 0 61 41q0 38 -58 38q-25 0 -43 -7l-27 64l96 81h-143v100h290v-92l-88 -73q47 -7 75.5 -38.5t28.5 -74.5q0 -64 -49 -102t-132 -38q-90 0 -137 28z" />
    <glyph glyph-name="four.dnom" horiz-adv-x="398" 
d="M329 170h44v-95h-44v-75h-115v75h-194v99l175 234h134v-238zM214 170v115l-86 -115h86z" />
    <glyph glyph-name="five.dnom" horiz-adv-x="398" 
d="M68 408h264v-100h-158l-2 -47q15 1 31 1q74 0 114.5 -34t40.5 -97q0 -67 -47.5 -104t-133.5 -37q-43 0 -80 7.5t-54 19.5l10 102q45 -28 106 -28q68 0 68 42q0 39 -65 39q-25 0 -51.5 -2t-52.5 -7z" />
    <glyph glyph-name="six.dnom" horiz-adv-x="398" 
d="M182 410l153 -3q-39 -27 -78.5 -66t-66.5 -78q22 9 46 9q59 0 97.5 -38t38.5 -95q0 -66 -48 -107.5t-124 -41.5q-78 0 -126 43t-48 113q0 65 41.5 135.5t114.5 128.5zM199 184q-22 0 -36 -13t-14 -35q0 -20 14 -33.5t36 -13.5t36 13.5t14 33.5q0 21 -14 34.5t-36 13.5z
" />
    <glyph glyph-name="seven.dnom" horiz-adv-x="398" 
d="M208 -2l-140 3l152 292h-175v115h317v-99z" />
    <glyph glyph-name="eight.dnom" horiz-adv-x="398" 
d="M318 385q45 -33 45 -87q0 -56 -48 -84q28 -13 44 -39t16 -57q0 -60 -46.5 -94t-129.5 -34q-82 0 -129 34t-47 94q0 32 16.5 57.5t44.5 39.5q-49 26 -49 83q0 54 45.5 87t118.5 33q74 0 119 -33zM163 93.5q14 -12.5 36 -12.5q23 0 36.5 12.5t13.5 32.5t-13.5 32t-36.5 12
q-22 0 -36 -12t-14 -32t14 -32.5zM167 260q12 -11 32 -11t32 11t12 29q0 19 -12 30t-32 11t-32 -11t-12 -30q0 -18 12 -29z" />
    <glyph glyph-name="nine.dnom" horiz-adv-x="398" 
d="M216 -2l-153 3q39 27 78.5 66.5t65.5 76.5q-20 -8 -46 -8q-58 0 -96.5 38t-38.5 95q0 66 48 107.5t124 41.5q78 0 126 -43t48 -113q0 -65 -42 -135.5t-114 -128.5zM199 319q-22 0 -36 -13.5t-14 -33.5q0 -21 14 -34.5t36 -13.5q23 0 36.5 13t13.5 35q0 20 -13.5 33.5
t-36.5 13.5z" />
    <glyph glyph-name="zero.numr" horiz-adv-x="398" 
d="M13 540q0 32 6 60q13 74 60 114t120 40q87 0 136.5 -56.5t49.5 -157.5q0 -31 -6 -60q-13 -73 -59.5 -113.5t-120.5 -40.5q-87 0 -136.5 57t-49.5 157zM246 489q2 11 3 23.5t1 27.5q0 102 -51 102q-37 0 -47 -51q-2 -10 -3 -23t-1 -28q0 -102 51 -102q37 0 47 51z" />
    <glyph glyph-name="one.numr" horiz-adv-x="398" 
d="M295 336h-134v279l-99 -45l-18 113l133 61h118v-408z" />
    <glyph glyph-name="two.numr" horiz-adv-x="398" 
d="M355 336h-319v102q35 23 66 46.5t52 42.5q56 52 56 84q0 37 -49 37q-53 0 -103 -47l-21 101q23 23 65.5 37.5t83.5 14.5q71 0 113.5 -34t42.5 -91q0 -77 -82 -150q-21 -19 -43 -36h138v-107z" />
    <glyph glyph-name="three.numr" horiz-adv-x="398" 
d="M47 454q26 -13 57 -20t59 -7q61 0 61 41q0 38 -58 38q-25 0 -43 -7l-27 64l96 81h-143v100h290v-92l-88 -73q47 -7 75.5 -38.5t28.5 -74.5q0 -64 -49 -102t-132 -38q-90 0 -137 28z" />
    <glyph glyph-name="four.numr" horiz-adv-x="398" 
d="M329 506h44v-95h-44v-75h-115v75h-194v99l175 234h134v-238zM214 506v115l-86 -115h86z" />
    <glyph glyph-name="five.numr" horiz-adv-x="398" 
d="M68 744h264v-100h-158l-2 -47q15 1 31 1q74 0 114.5 -34t40.5 -97q0 -67 -47.5 -104t-133.5 -37q-43 0 -80 7.5t-54 19.5l10 102q45 -28 106 -28q68 0 68 42q0 39 -65 39q-25 0 -51.5 -2t-52.5 -7z" />
    <glyph glyph-name="six.numr" horiz-adv-x="398" 
d="M182 746l153 -3q-39 -27 -78.5 -66t-66.5 -78q22 9 46 9q59 0 97.5 -38t38.5 -95q0 -66 -48 -107.5t-124 -41.5q-78 0 -126 43t-48 113q0 65 41.5 135.5t114.5 128.5zM199 520q-22 0 -36 -13t-14 -35q0 -20 14 -33.5t36 -13.5t36 13.5t14 33.5q0 21 -14 34.5t-36 13.5z
" />
    <glyph glyph-name="seven.numr" horiz-adv-x="398" 
d="M208 334l-140 3l152 292h-175v115h317v-99z" />
    <glyph glyph-name="eight.numr" horiz-adv-x="398" 
d="M318 721q45 -33 45 -87q0 -56 -48 -84q28 -13 44 -39t16 -57q0 -60 -46.5 -94t-129.5 -34q-82 0 -129 34t-47 94q0 32 16.5 57.5t44.5 39.5q-49 26 -49 83q0 54 45.5 87t118.5 33q74 0 119 -33zM163 429.5q14 -12.5 36 -12.5q23 0 36.5 12.5t13.5 32.5t-13.5 32t-36.5 12
q-22 0 -36 -12t-14 -32t14 -32.5zM167 596q12 -11 32 -11t32 11t12 29q0 19 -12 30t-32 11t-32 -11t-12 -30q0 -18 12 -29z" />
    <glyph glyph-name="nine.numr" horiz-adv-x="398" 
d="M216 334l-153 3q39 27 78.5 66.5t65.5 76.5q-20 -8 -46 -8q-58 0 -96.5 38t-38.5 95q0 66 48 107.5t124 41.5q78 0 126 -43t48 -113q0 -65 -42 -135.5t-114 -128.5zM199 655q-22 0 -36 -13.5t-14 -33.5q0 -21 14 -34.5t36 -13.5q23 0 36.5 13t13.5 35q0 20 -13.5 33.5
t-36.5 13.5z" />
    <glyph glyph-name="zero.percent" horiz-adv-x="514" 
d="M257 -14q-58 0 -103.5 25t-72 68.5t-26.5 99.5t26.5 99.5t72 68.5t103.5 25t103.5 -25t72 -68.5t26.5 -99.5t-26.5 -99.5t-72 -68.5t-103.5 -25zM309.5 236.5q-19.5 21.5 -52.5 21.5t-52.5 -21.5t-19.5 -57.5t19.5 -58t52.5 -22t52.5 22t19.5 58t-19.5 57.5z" />
    <glyph glyph-name="twosevenths" horiz-adv-x="986" 
d="M677 744h142l-506 -744h-143zM796 -2l-140 3l152 292h-175v115h317v-99zM355 336h-319v102q35 23 66 46.5t52 42.5q56 52 56 84q0 37 -49 37q-53 0 -103 -47l-21 101q23 23 65.5 37.5t83.5 14.5q71 0 113.5 -34t42.5 -91q0 -77 -82 -150q-21 -19 -43 -36h138v-107z" />
    <glyph glyph-name="threesevenths" horiz-adv-x="986" 
d="M651 744h142l-506 -744h-143zM796 -2l-140 3l152 292h-175v115h317v-99zM47 454q26 -13 57 -20t59 -7q61 0 61 41q0 38 -58 38q-25 0 -43 -7l-27 64l96 81h-143v100h290v-92l-88 -73q47 -7 75.5 -38.5t28.5 -74.5q0 -64 -49 -102t-132 -38q-90 0 -137 28z" />
    <glyph glyph-name="foursevenths" horiz-adv-x="986" 
d="M665 744h142l-506 -744h-143zM796 -2l-140 3l152 292h-175v115h317v-99zM329 506h44v-95h-44v-75h-115v75h-194v99l175 234h134v-238zM214 506v115l-86 -115h86z" />
    <glyph glyph-name="fivesevenths" horiz-adv-x="986" 
d="M654 744h142l-506 -744h-143zM796 -2l-140 3l152 292h-175v115h317v-99zM68 744h264v-100h-158l-2 -47q15 1 31 1q74 0 114.5 -34t40.5 -97q0 -67 -47.5 -104t-133.5 -37q-43 0 -80 7.5t-54 19.5l10 102q45 -28 106 -28q68 0 68 42q0 39 -65 39q-25 0 -51.5 -2t-52.5 -7z
" />
    <glyph glyph-name="sixsevenths" horiz-adv-x="986" 
d="M655 744h142l-506 -744h-143zM796 -2l-140 3l152 292h-175v115h317v-99zM182 746l153 -3q-39 -27 -78.5 -66t-66.5 -78q22 9 46 9q59 0 97.5 -38t38.5 -95q0 -66 -48 -107.5t-124 -41.5q-78 0 -126 43t-48 113q0 65 41.5 135.5t114.5 128.5zM199 520q-22 0 -36 -13
t-14 -35q0 -20 14 -33.5t36 -13.5t36 13.5t14 33.5q0 21 -14 34.5t-36 13.5z" />
    <glyph glyph-name="twoninths" horiz-adv-x="986" 
d="M691 744h142l-506 -744h-143zM804 -2l-153 3q39 27 78.5 66.5t65.5 76.5q-20 -8 -46 -8q-58 0 -96.5 38t-38.5 95q0 66 48 107.5t124 41.5q78 0 126 -43t48 -113q0 -65 -42 -135.5t-114 -128.5zM787 319q-22 0 -36 -13.5t-14 -33.5q0 -21 14 -34.5t36 -13.5q23 0 36.5 13
t13.5 35q0 20 -13.5 33.5t-36.5 13.5zM355 336h-319v102q35 23 66 46.5t52 42.5q56 52 56 84q0 37 -49 37q-53 0 -103 -47l-21 101q23 23 65.5 37.5t83.5 14.5q71 0 113.5 -34t42.5 -91q0 -77 -82 -150q-21 -19 -43 -36h138v-107z" />
    <glyph glyph-name="fourninths" horiz-adv-x="986" 
d="M691 744h142l-506 -744h-143zM804 -2l-153 3q39 27 78.5 66.5t65.5 76.5q-20 -8 -46 -8q-58 0 -96.5 38t-38.5 95q0 66 48 107.5t124 41.5q78 0 126 -43t48 -113q0 -65 -42 -135.5t-114 -128.5zM787 319q-22 0 -36 -13.5t-14 -33.5q0 -21 14 -34.5t36 -13.5q23 0 36.5 13
t13.5 35q0 20 -13.5 33.5t-36.5 13.5zM329 506h44v-95h-44v-75h-115v75h-194v99l175 234h134v-238zM214 506v115l-86 -115h86z" />
    <glyph glyph-name="fiveninths" horiz-adv-x="986" 
d="M670 744h142l-506 -744h-143zM804 -2l-153 3q39 27 78.5 66.5t65.5 76.5q-20 -8 -46 -8q-58 0 -96.5 38t-38.5 95q0 66 48 107.5t124 41.5q78 0 126 -43t48 -113q0 -65 -42 -135.5t-114 -128.5zM787 319q-22 0 -36 -13.5t-14 -33.5q0 -21 14 -34.5t36 -13.5q23 0 36.5 13
t13.5 35q0 20 -13.5 33.5t-36.5 13.5zM68 744h264v-100h-158l-2 -47q15 1 31 1q74 0 114.5 -34t40.5 -97q0 -67 -47.5 -104t-133.5 -37q-43 0 -80 7.5t-54 19.5l10 102q45 -28 106 -28q68 0 68 42q0 39 -65 39q-25 0 -51.5 -2t-52.5 -7z" />
    <glyph glyph-name="sevenninths" horiz-adv-x="986" 
d="M624 744h142l-506 -744h-143zM804 -2l-153 3q39 27 78.5 66.5t65.5 76.5q-20 -8 -46 -8q-58 0 -96.5 38t-38.5 95q0 66 48 107.5t124 41.5q78 0 126 -43t48 -113q0 -65 -42 -135.5t-114 -128.5zM787 319q-22 0 -36 -13.5t-14 -33.5q0 -21 14 -34.5t36 -13.5q23 0 36.5 13
t13.5 35q0 20 -13.5 33.5t-36.5 13.5zM208 334l-140 3l152 292h-175v115h317v-99z" />
    <glyph glyph-name="eightninths" horiz-adv-x="986" 
d="M677 744h142l-506 -744h-143zM804 -2l-153 3q39 27 78.5 66.5t65.5 76.5q-20 -8 -46 -8q-58 0 -96.5 38t-38.5 95q0 66 48 107.5t124 41.5q78 0 126 -43t48 -113q0 -65 -42 -135.5t-114 -128.5zM787 319q-22 0 -36 -13.5t-14 -33.5q0 -21 14 -34.5t36 -13.5q23 0 36.5 13
t13.5 35q0 20 -13.5 33.5t-36.5 13.5zM318 721q45 -33 45 -87q0 -56 -48 -84q28 -13 44 -39t16 -57q0 -60 -46.5 -94t-129.5 -34q-82 0 -129 34t-47 94q0 32 16.5 57.5t44.5 39.5q-49 26 -49 83q0 54 45.5 87t118.5 33q74 0 119 -33zM163 429.5q14 -12.5 36 -12.5
q23 0 36.5 12.5t13.5 32.5t-13.5 32t-36.5 12q-22 0 -36 -12t-14 -32t14 -32.5zM167 596q12 -11 32 -11t32 11t12 29q0 19 -12 30t-32 11t-32 -11t-12 -30q0 -18 12 -29z" />
    <glyph glyph-name="hyphen.case" horiz-adv-x="419" 
d="M50 453h319v-147h-319v147z" />
    <glyph glyph-name="endash.case" horiz-adv-x="500" 
d="M0 447h500v-133h-500v133z" />
    <glyph glyph-name="emdash.case" horiz-adv-x="1000" 
d="M0 447h1000v-133h-1000v133z" />
    <glyph glyph-name="parenleft.case" horiz-adv-x="446" 
d="M242 416q0 -136 53 -258t153 -219h-188q-57 57 -98.5 132.5t-63.5 163.5t-22 181t22 181t63.5 164t98.5 132h188q-100 -97 -153 -219t-53 -258z" />
    <glyph glyph-name="parenright.case" horiz-adv-x="446" 
d="M205 416q0 136 -53 258t-154 219h189q58 -56 98.5 -132t62.5 -164t22 -181t-22 -181t-62.5 -163.5t-98.5 -132.5h-189q101 97 154 219t53 258z" />
    <glyph glyph-name="slash.case" horiz-adv-x="578" 
d="M407 851h167l-403 -943h-166z" />
    <glyph glyph-name="backslash.case" horiz-adv-x="578" 
d="M5 851h166l403 -943h-167z" />
    <glyph glyph-name="bracketleft.case" horiz-adv-x="447" 
d="M100 892h304v-146h-139v-660h139v-147h-304v953z" />
    <glyph glyph-name="bracketright.case" horiz-adv-x="447" 
d="M347 -61h-303v147h139v660h-139v146h303v-953z" />
    <glyph glyph-name="braceleft.case" horiz-adv-x="458" 
d="M124 101q0 39 10 79.5t10 84.5q0 42 -17 58.5t-60 16.5h-24v145h24q43 0 60 16.5t17 58.5q0 44 -10 84.5t-10 79.5q0 171 219 171q17 0 40.5 -1t37.5 -2v-140q-8 1 -18.5 1h-28.5q-44 0 -64.5 -17.5t-20.5 -55.5q0 -31 10 -71.5t10 -82.5q0 -41 -21.5 -71t-61.5 -43
q83 -25 83 -113q0 -42 -10 -82.5t-10 -71.5q0 -38 20.5 -55.5t64.5 -17.5h28t19 1v-140q-14 -1 -37.5 -2t-40.5 -1q-219 0 -219 171z" />
    <glyph glyph-name="braceright.case" horiz-adv-x="458" 
d="M334 724q0 -39 -10 -79.5t-10 -84.5q0 -42 17 -58.5t60 -16.5h24v-145h-24q-43 0 -60 -16.5t-17 -58.5q0 -44 10 -84.5t10 -79.5q0 -171 -219 -171q-17 0 -40.5 1t-37.5 2v140q8 -1 18.5 -1h28.5q44 0 64.5 17.5t20.5 55.5q0 31 -10 71.5t-10 82.5q0 41 21.5 71t61.5 43
q-83 25 -83 113q0 42 10 82.5t10 71.5q0 38 -20.5 55.5t-64.5 17.5h-28t-19 -1v140q14 1 37.5 2t40.5 1q219 0 219 -171z" />
    <glyph glyph-name="bullet.case" horiz-adv-x="366" 
d="M46 326q0 38 18 69t49 49t69 18t69 -18t49.5 -49t18.5 -69q0 -37 -18.5 -68t-49.5 -49.5t-69 -18.5q-37 0 -68 18.5t-49.5 49.5t-18.5 68z" />
    <glyph glyph-name="guilsinglleft.case" horiz-adv-x="394" 
d="M24 380l152 223h191l-157 -223l157 -223h-191z" />
    <glyph glyph-name="guilsinglright.case" horiz-adv-x="394" 
d="M184 380l-157 223h192l151 -223l-151 -223h-192z" />
    <glyph glyph-name="guillemotleft.case" horiz-adv-x="672" 
d="M24 380l152 223h191l-157 -223l157 -223h-191zM302 380l152 223h191l-157 -223l157 -223h-191z" />
    <glyph glyph-name="guillemotright.case" horiz-adv-x="672" 
d="M184 380l-157 223h192l151 -223l-151 -223h-192zM462 380l-157 223h192l151 -223l-151 -223h-192z" />
    <glyph glyph-name="at.case" horiz-adv-x="1045" 
d="M512 -79q-142 0 -246.5 52t-162 147.5t-57.5 224.5q0 107 40 198.5t112 159.5t169 105.5t211 37.5q127 0 221.5 -48t147.5 -133.5t53 -200.5q0 -92 -33.5 -162.5t-93 -110t-137.5 -39.5q-54 0 -92 18.5t-53 53.5q-22 -33 -58.5 -51.5t-78.5 -18.5q-78 0 -126 56t-48 147
q0 71 28.5 128.5t77 91t108.5 33.5q40 0 72.5 -17.5t50.5 -49.5l12 53h141l-42 -246q-3 -22 -3 -32q0 -50 39 -50q28 0 51 26t37 69.5t14 96.5q0 125 -78.5 195t-218.5 70q-85 0 -156 -27.5t-123.5 -78.5t-81 -119.5t-28.5 -151.5q0 -144 90 -224.5t250 -80.5q63 0 126 12.5
t115 35.5l12 -120q-58 -24 -125.5 -37t-135.5 -13zM432 370q0 -39 18.5 -60t52.5 -21q40 0 65 29.5t25 75.5q0 81 -70 81q-40 0 -65.5 -29t-25.5 -76z" />
    <glyph glyph-name="periodcentered.case" horiz-adv-x="306" 
d="M51 399q0 41 28.5 68t73.5 27t73.5 -27t28.5 -68q0 -42 -28.5 -69t-73.5 -27t-73.5 27t-28.5 69z" />
    <glyph glyph-name="M" horiz-adv-x="989" 
d="M80 760h213l205 -424l204 424h208v-760h-185v477l-152 -314h-156l-152 314v-477h-185v760z" />
    <glyph glyph-name="j" horiz-adv-x="303" 
d="M61 516h181v-761h-181v761zM49 693q0 42 29.5 69.5t72.5 27.5t72 -27.5t29 -69.5q0 -40 -29 -68t-72 -28t-72.5 28t-29.5 68z" />
    <glyph glyph-name="t" horiz-adv-x="431" 
d="M108 371h-87v145h87v133h181v-133h105v-145h-105v-371h-181v371z" />
    <glyph glyph-name="u" horiz-adv-x="612" 
d="M56 516h181v-284q0 -87 70 -87q68 0 68 87v284h181v-289q0 -119 -63.5 -181t-186.5 -62t-186.5 62t-63.5 181v289z" />
    <glyph glyph-name="a.alt" horiz-adv-x="580" 
d="M527 0h-163l-2 59q-23 -36 -62.5 -55.5t-90.5 -19.5q-78 0 -124 44t-46 117q0 77 55 123.5t145 46.5q68 0 119 -21q-2 52 -29.5 76.5t-86.5 24.5q-84 0 -158 -48l-12 137q35 22 89.5 35t106.5 13q127 0 193 -62.5t66 -181.5v-288zM268 103q41 0 64.5 26t25.5 71
q-17 8 -37 12.5t-40 4.5q-37 0 -57.5 -15.5t-20.5 -43.5q0 -26 17 -40.5t48 -14.5z" />
    <glyph glyph-name="g.alt" horiz-adv-x="615" 
d="M74.5 264q-22.5 36 -22.5 85q0 55 29.5 96t83 64t124.5 23q35 0 66 -6t58 -18l184 13v-115l-80 9q19 -37 19 -79q0 -50 -29 -89t-81.5 -60.5t-121.5 -21.5q-37 0 -70 6q-30 -14 -30 -35q0 -16 16.5 -22.5t55.5 -6.5h48q127 0 188.5 -42t61.5 -130q0 -91 -75.5 -140
t-218.5 -49q-123 0 -190 38t-67 108q0 42 27.5 74.5t73.5 45.5q-72 26 -72 89q0 32 22 59.5t62 44.5q-39 23 -61.5 59zM176 -76q0 -25 32 -38t89 -13t88.5 14t31.5 39t-26.5 36.5t-82.5 11.5h-23q-109 0 -109 -50zM216 348q0 -30 21.5 -48t56.5 -18t57 18t22 48t-22 48
t-57 18t-56.5 -18t-21.5 -48z" />
    <glyph glyph-name="y.alt" horiz-adv-x="622" 
d="M389 -20q-37 -91 -73 -142t-79.5 -71.5t-103.5 -20.5q-32 0 -65 6.5t-53 17.5l22 150q35 -16 73 -16q37 0 60 18.5t42 63.5l15 37l-214 493h198l111 -320l94 320h192z" />
    <glyph glyph-name="periodcentered.loclCAT" horiz-adv-x="306" 
d="M51 379q0 42 28.5 69t73.5 27t73.5 -27t28.5 -69t-28.5 -69t-73.5 -27t-73.5 27t-28.5 69z" />
    <glyph glyph-name="periodcentered.loclCAT.cap" horiz-adv-x="306" 
d="M51 408q0 42 28.5 69t73.5 27t73.5 -27t28.5 -69t-28.5 -69t-73.5 -27t-73.5 27t-28.5 69z" />
    <glyph glyph-name="uni0307.i" 
d="M-102 693q0 42 29.5 69.5t72.5 27.5t72 -27.5t29 -69.5q0 -40 -29 -68t-72 -28t-72.5 28t-29.5 68z" />
    <glyph glyph-name="uni0237" horiz-adv-x="303" 
d="M61 516h181v-761h-181v761z" />
    <glyph glyph-name="dotlessij" horiz-adv-x="606" 
d="M364 516h181v-761h-181v761zM61 516h181v-516h-181v516z" />
    <glyph glyph-name="dotlessij.alt" horiz-adv-x="606" 
d="M545 -18q0 -116 -56 -176t-164 -60q-39 0 -76.5 7t-58.5 19l18 147q38 -16 77 -16q41 0 60 22t19 71v520h181v-534zM61 516h181v-516h-181v516z" />
    <glyph glyph-name="f.short" horiz-adv-x="422" 
d="M114 371h-83v145h83v50q0 119 58.5 184t165.5 65q31 0 58.5 -4.5t46.5 -12.5l-9 -150q-11 5 -26.5 8t-28.5 3q-84 0 -84 -105v-38h122v-145h-122v-371h-181v371z" />
    <glyph glyph-name="ij" horiz-adv-x="606" 
d="M61 516h181v-516h-181v516zM49 693q0 42 29.5 69.5t72.5 27.5t72 -27.5t29 -69.5q0 -40 -29 -68t-72 -28t-72.5 28t-29.5 68zM364 516h181v-761h-181v761zM352 693q0 42 29.5 69.5t72.5 27.5t72 -27.5t29 -69.5q0 -40 -29 -68t-72 -28t-72.5 28t-29.5 68z" />
    <glyph glyph-name="ae.alt" horiz-adv-x="922" 
d="M233 -16q-91 0 -142.5 43t-51.5 118q0 77 55 123.5t145 46.5q68 0 119 -21q-2 52 -29.5 76.5t-86.5 24.5q-84 0 -158 -48l-12 137q35 22 89 35t107 13q66 0 113 -19.5t70 -56.5q29 36 75 56t104 20q76 0 132 -31.5t86.5 -89.5t30.5 -137q0 -14 -1 -28t-3 -29h-343
q12 -52 51 -75.5t106 -23.5q44 0 88.5 9.5t78.5 25.5l16 -130q-42 -19 -95.5 -29t-109.5 -10q-89 0 -152 27t-94 79q-22 -50 -73 -78t-115 -28zM358 200q-17 8 -37 12.5t-40 4.5q-37 0 -57.5 -15.5t-20.5 -43.5q0 -26 17 -40.5t48 -14.5q40 0 64 26t26 71zM529 315h183
q-1 10 -3 19q-7 35 -28.5 55.5t-57.5 20.5q-78 0 -94 -95z" />
    <glyph glyph-name="tbar" horiz-adv-x="431" 
d="M108 177h-74v103h74v91h-87v145h87v133h181v-133h105v-145h-105v-91h92v-103h-92v-177h-181v177z" />
    <glyph glyph-name="uni0327.cap" 
d="M-51 10h100l-18 -61q46 -4 75 -31t29 -67q0 -58 -43.5 -88t-126.5 -30q-26 0 -55 5.5t-43 13.5l17 87q27 -12 63 -12q50 0 50 29q0 28 -53 28q-8 0 -17 -0.5t-14 -2.5z" />
    <glyph glyph-name="uni0326.cap" 
d="M-80 -62h163q0 -31 -10 -67t-25 -67.5t-34 -52.5h-135q18 39 29.5 91t11.5 96z" />
    <glyph glyph-name="uni0328.cap" 
d="M108 -244q-13 -9 -38 -14.5t-51 -5.5q-66 0 -102.5 30t-36.5 84q0 53 44 104t124 90l53 -44q-79 -60 -79 -105q0 -32 38 -32q20 0 38 10z" />
    <glyph glyph-name="uni0328.round" 
d="M110 -244q-13 -9 -38 -14.5t-51 -5.5q-67 0 -104 29.5t-37 81.5q0 59 45 108.5t132 85.5l59 -18q-48 -32 -74 -65t-26 -62q0 -37 41 -37q25 0 43 10z" />
    <glyph glyph-name="uni0328.round.cap" 
d="M123 -243q-13 -8 -44 -14.5t-58 -6.5q-66 0 -104 29.5t-38 80.5q0 62 49.5 119.5t130.5 91.5l59 -19q-44 -31 -71 -67.5t-27 -68.5q0 -39 46 -39q23 0 47 12z" />
    <glyph glyph-name="uni0163" horiz-adv-x="431" 
d="M108 371h-87v145h87v133h181v-133h105v-145h-105v-371h-181v371zM144 10h94l-19 -64q47 -4 75 -30t28 -68q0 -53 -42 -84t-113 -31q-29 0 -61.5 6t-45.5 13l17 83q27 -11 66 -11q52 0 52 32q0 30 -55 30q-9 0 -17.5 -0.5t-14.5 -1.5z" />
    <glyph glyph-name="uni021B" horiz-adv-x="431" 
d="M108 371h-87v145h87v133h181v-133h105v-145h-105v-371h-181v371zM126 -62h159q0 -31 -9.5 -67t-25 -67.5t-34.5 -52.5h-131q18 39 29.5 91t11.5 96z" />
    <glyph glyph-name="uogonek" horiz-adv-x="612" 
d="M56 516h181v-284q0 -87 70 -87q68 0 68 87v284h181v-289q0 -119 -63.5 -181t-186.5 -62t-186.5 62t-63.5 181v289zM457 -244q-13 -9 -38 -14.5t-51 -5.5q-67 0 -104 29.5t-37 81.5q0 59 45 108.5t132 85.5l59 -18q-48 -32 -74 -65t-26 -62q0 -37 41 -37q25 0 43 10z" />
    <glyph glyph-name="uni0123.alt" horiz-adv-x="615" 
d="M74.5 264q-22.5 36 -22.5 85q0 55 29.5 96t83 64t124.5 23q35 0 66 -6t58 -18l184 13v-115l-80 9q19 -37 19 -79q0 -50 -29 -89t-81.5 -60.5t-121.5 -21.5q-37 0 -70 6q-30 -14 -30 -35q0 -16 16.5 -22.5t55.5 -6.5h48q127 0 188.5 -42t61.5 -130q0 -91 -75.5 -140
t-218.5 -49q-123 0 -190 38t-67 108q0 42 27.5 74.5t73.5 45.5q-72 26 -72 89q0 32 22 59.5t62 44.5q-39 23 -61.5 59zM176 -76q0 -25 32 -38t89 -13t88.5 14t31.5 39t-26.5 36.5t-82.5 11.5h-23q-109 0 -109 -50zM216 348q0 -30 21.5 -48t56.5 -18t57 18t22 48t-22 48
t-57 18t-56.5 -18t-21.5 -48zM284 792h126q-18 -39 -28.5 -87.5t-11.5 -94.5h-154q1 47 20 98.5t48 83.5z" />
    <glyph glyph-name="aogonek.alt" horiz-adv-x="580" 
d="M527 0h-163l-2 59q-23 -36 -62.5 -55.5t-90.5 -19.5q-78 0 -124 44t-46 117q0 77 55 123.5t145 46.5q68 0 119 -21q-2 52 -29.5 76.5t-86.5 24.5q-84 0 -158 -48l-12 137q35 22 89.5 35t106.5 13q127 0 193 -62.5t66 -181.5v-288zM268 103q41 0 64.5 26t25.5 71
q-17 8 -37 12.5t-40 4.5q-37 0 -57.5 -15.5t-20.5 -43.5q0 -26 17 -40.5t48 -14.5zM534 -244q-13 -9 -38 -14.5t-51 -5.5q-66 0 -102.5 30t-36.5 84q0 53 44 104t123 90l54 -44q-45 -32 -65 -57t-20 -49q0 -16 11 -25.5t30 -9.5q11 0 22 2.5t20 6.5z" />
    <glyph glyph-name="acutecomb.cap" 
d="M-5 989h210l-163 -154h-164z" />
    <glyph glyph-name="uni030B.cap" 
d="M112 987h195l-118 -152h-164zM-129 987h194l-118 -152h-164z" />
    <glyph glyph-name="IJacute" horiz-adv-x="944" 
d="M870 270q0 -286 -280 -286q-55 0 -108 11.5t-85 30.5l18 155q65 -33 135 -33q63 0 90 31t27 103v478h203v-490zM80 760h202v-760h-202v760zM176 989h210l-163 -154h-164zM763 989h210l-163 -154h-164z" />
    <glyph glyph-name="ijacute" horiz-adv-x="606" 
d="M364 516h181v-761h-181v761zM61 516h181v-516h-181v516zM149 780h193l-148 -170h-150zM452 780h193l-148 -170h-150z" />
    <glyph glyph-name="uacute" horiz-adv-x="612" 
d="M56 516h181v-284q0 -87 70 -87q68 0 68 87v284h181v-289q0 -119 -63.5 -181t-186.5 -62t-186.5 62t-63.5 181v289zM304 780h193l-148 -170h-150z" />
    <glyph glyph-name="uhungarumlaut" horiz-adv-x="612" 
d="M56 516h181v-284q0 -87 70 -87q68 0 68 87v284h181v-289q0 -119 -63.5 -181t-186.5 -62t-186.5 62t-63.5 181v289zM408 780h170l-114 -170h-139zM201 780h169l-113 -170h-139z" />
    <glyph glyph-name="aacute.alt" horiz-adv-x="580" 
d="M527 0h-163l-2 59q-23 -36 -62.5 -55.5t-90.5 -19.5q-78 0 -124 44t-46 117q0 77 55 123.5t145 46.5q68 0 119 -21q-2 52 -29.5 76.5t-86.5 24.5q-84 0 -158 -48l-12 137q35 22 89.5 35t106.5 13q127 0 193 -62.5t66 -181.5v-288zM268 103q41 0 64.5 26t25.5 71
q-17 8 -37 12.5t-40 4.5q-37 0 -57.5 -15.5t-20.5 -43.5q0 -26 17 -40.5t48 -14.5zM279 780h193l-148 -170h-150z" />
    <glyph glyph-name="ijacute.alt" horiz-adv-x="606" 
d="M545 -18q0 -116 -56 -176t-164 -60q-39 0 -76.5 7t-58.5 19l18 147q38 -16 77 -16q41 0 60 22t19 71v520h181v-534zM61 516h181v-516h-181v516zM149 780h193l-148 -170h-150zM452 780h193l-148 -170h-150z" />
    <glyph glyph-name="yacute.alt" horiz-adv-x="622" 
d="M389 -20q-37 -91 -73 -142t-79.5 -71.5t-103.5 -20.5q-32 0 -65 6.5t-53 17.5l22 150q35 -16 73 -16q37 0 60 18.5t42 63.5l15 37l-214 493h198l111 -320l94 320h192zM310 780h193l-148 -170h-150z" />
    <glyph glyph-name="gravecomb.cap" 
d="M-210 989h210l117 -154h-163z" />
    <glyph glyph-name="ugrave" horiz-adv-x="612" 
d="M56 516h181v-284q0 -87 70 -87q68 0 68 87v284h181v-289q0 -119 -63.5 -181t-186.5 -62t-186.5 62t-63.5 181v289zM115 780h194l105 -170h-150z" />
    <glyph glyph-name="agrave.alt" horiz-adv-x="580" 
d="M527 0h-163l-2 59q-23 -36 -62.5 -55.5t-90.5 -19.5q-78 0 -124 44t-46 117q0 77 55 123.5t145 46.5q68 0 119 -21q-2 52 -29.5 76.5t-86.5 24.5q-84 0 -158 -48l-12 137q35 22 89.5 35t106.5 13q127 0 193 -62.5t66 -181.5v-288zM268 103q41 0 64.5 26t25.5 71
q-17 8 -37 12.5t-40 4.5q-37 0 -57.5 -15.5t-20.5 -43.5q0 -26 17 -40.5t48 -14.5zM90 780h194l105 -170h-150z" />
    <glyph glyph-name="ygrave.alt" horiz-adv-x="622" 
d="M389 -20q-37 -91 -73 -142t-79.5 -71.5t-103.5 -20.5q-32 0 -65 6.5t-53 17.5l22 150q35 -16 73 -16q37 0 60 18.5t42 63.5l15 37l-214 493h198l111 -320l94 320h192zM121 780h194l105 -170h-150z" />
    <glyph glyph-name="uni0302.cap" 
d="M-90 992h180l143 -157h-173l-60 69l-60 -69h-173z" />
    <glyph glyph-name="tildecomb.cap" 
d="M-81 1005q36 0 60 -13t42 -25.5t36 -12.5q28 0 28 49h116q0 -172 -120 -172q-36 0 -59.5 13t-41.5 26t-36 13q-29 0 -29 -50h-116q0 172 120 172z" />
    <glyph glyph-name="ucircumflex" horiz-adv-x="612" 
d="M56 516h181v-284q0 -87 70 -87q68 0 68 87v284h181v-289q0 -119 -63.5 -181t-186.5 -62t-186.5 62t-63.5 181v289zM227 780h158l137 -170h-154l-62 77l-62 -77h-154z" />
    <glyph glyph-name="utilde" horiz-adv-x="612" 
d="M56 516h181v-284q0 -87 70 -87q68 0 68 87v284h181v-289q0 -119 -63.5 -181t-186.5 -62t-186.5 62t-63.5 181v289zM221 777q38 0 62.5 -13.5t42.5 -27t37 -13.5q29 0 29 52h113q0 -168 -113 -168q-38 0 -62.5 13.5t-42.5 27t-38 13.5q-29 0 -29 -52h-113q0 168 114 168z
" />
    <glyph glyph-name="acircumflex.alt" horiz-adv-x="580" 
d="M527 0h-163l-2 59q-23 -36 -62.5 -55.5t-90.5 -19.5q-78 0 -124 44t-46 117q0 77 55 123.5t145 46.5q68 0 119 -21q-2 52 -29.5 76.5t-86.5 24.5q-84 0 -158 -48l-12 137q35 22 89.5 35t106.5 13q127 0 193 -62.5t66 -181.5v-288zM268 103q41 0 64.5 26t25.5 71
q-17 8 -37 12.5t-40 4.5q-37 0 -57.5 -15.5t-20.5 -43.5q0 -26 17 -40.5t48 -14.5zM202 780h158l137 -170h-154l-62 77l-62 -77h-154z" />
    <glyph glyph-name="ycircumflex.alt" horiz-adv-x="622" 
d="M389 -20q-37 -91 -73 -142t-79.5 -71.5t-103.5 -20.5q-32 0 -65 6.5t-53 17.5l22 150q35 -16 73 -16q37 0 60 18.5t42 63.5l15 37l-214 493h198l111 -320l94 320h192zM233 780h158l137 -170h-154l-62 77l-62 -77h-154z" />
    <glyph glyph-name="atilde.alt" horiz-adv-x="580" 
d="M527 0h-163l-2 59q-23 -36 -62.5 -55.5t-90.5 -19.5q-78 0 -124 44t-46 117q0 77 55 123.5t145 46.5q68 0 119 -21q-2 52 -29.5 76.5t-86.5 24.5q-84 0 -158 -48l-12 137q35 22 89.5 35t106.5 13q127 0 193 -62.5t66 -181.5v-288zM268 103q41 0 64.5 26t25.5 71
q-17 8 -37 12.5t-40 4.5q-37 0 -57.5 -15.5t-20.5 -43.5q0 -26 17 -40.5t48 -14.5zM196 777q38 0 62.5 -13.5t42.5 -27t37 -13.5q29 0 29 52h113q0 -168 -113 -168q-38 0 -62.5 13.5t-42.5 27t-38 13.5q-29 0 -29 -52h-113q0 168 114 168z" />
    <glyph glyph-name="uni030C.cap" 
d="M-233 992h173l60 -69l60 69h173l-143 -157h-180z" />
    <glyph glyph-name="uni0315.short" 
d="M-62 810h158l-58 -223h-112z" />
    <glyph glyph-name="uni0304.cap" 
d="M-171 963h343v-123h-343v123z" />
    <glyph glyph-name="tcaron" horiz-adv-x="431" 
d="M108 371h-87v145h87v133h181v-133h105v-145h-105v-371h-181v371zM360 810h158l-58 -223h-112z" />
    <glyph glyph-name="umacron" horiz-adv-x="612" 
d="M56 516h181v-284q0 -87 70 -87q68 0 68 87v284h181v-289q0 -119 -63.5 -181t-186.5 -62t-186.5 62t-63.5 181v289zM138 740h336v-120h-336v120z" />
    <glyph glyph-name="amacron.alt" horiz-adv-x="580" 
d="M527 0h-163l-2 59q-23 -36 -62.5 -55.5t-90.5 -19.5q-78 0 -124 44t-46 117q0 77 55 123.5t145 46.5q68 0 119 -21q-2 52 -29.5 76.5t-86.5 24.5q-84 0 -158 -48l-12 137q35 22 89.5 35t106.5 13q127 0 193 -62.5t66 -181.5v-288zM268 103q41 0 64.5 26t25.5 71
q-17 8 -37 12.5t-40 4.5q-37 0 -57.5 -15.5t-20.5 -43.5q0 -26 17 -40.5t48 -14.5zM113 740h336v-120h-336v120z" />
    <glyph glyph-name="uni0308.cap" 
d="M-209 915q0 37 24.5 60t63.5 23t64 -23t25 -60t-25 -60t-64 -23t-63.5 23t-24.5 60zM32 915q0 37 25 60t63 23q40 0 64.5 -23t24.5 -60t-24.5 -60t-64.5 -23q-38 0 -63 23t-25 60z" />
    <glyph glyph-name="uni0306.cap" 
d="M-194 977q0 8 1 13h125v-7q0 -27 18.5 -44t49.5 -17t49.5 17t18.5 44v7h125q1 -5 1 -13q0 -74 -52.5 -117.5t-141.5 -43.5t-141.5 43.5t-52.5 117.5z" />
    <glyph glyph-name="udieresis" horiz-adv-x="612" 
d="M56 516h181v-284q0 -87 70 -87q68 0 68 87v284h181v-289q0 -119 -63.5 -181t-186.5 -62t-186.5 62t-63.5 181v289zM187 758q38 0 61.5 -22.5t23.5 -57.5q0 -36 -23.5 -58t-61.5 -22t-62 22t-24 58q0 35 24.5 57.5t61.5 22.5zM425 758q38 0 62 -22.5t24 -57.5
q0 -36 -24 -58t-62 -22t-61.5 22t-23.5 58q0 35 24 57.5t61 22.5z" />
    <glyph glyph-name="adieresis.alt" horiz-adv-x="580" 
d="M527 0h-163l-2 59q-23 -36 -62.5 -55.5t-90.5 -19.5q-78 0 -124 44t-46 117q0 77 55 123.5t145 46.5q68 0 119 -21q-2 52 -29.5 76.5t-86.5 24.5q-84 0 -158 -48l-12 137q35 22 89.5 35t106.5 13q127 0 193 -62.5t66 -181.5v-288zM268 103q41 0 64.5 26t25.5 71
q-17 8 -37 12.5t-40 4.5q-37 0 -57.5 -15.5t-20.5 -43.5q0 -26 17 -40.5t48 -14.5zM162 758q38 0 61.5 -22.5t23.5 -57.5q0 -36 -23.5 -58t-61.5 -22t-62 22t-24 58q0 35 24.5 57.5t61.5 22.5zM400 758q38 0 62 -22.5t24 -57.5q0 -36 -24 -58t-62 -22t-61.5 22t-23.5 58
q0 35 24 57.5t61 22.5z" />
    <glyph glyph-name="ydieresis.alt" horiz-adv-x="622" 
d="M389 -20q-37 -91 -73 -142t-79.5 -71.5t-103.5 -20.5q-32 0 -65 6.5t-53 17.5l22 150q35 -16 73 -16q37 0 60 18.5t42 63.5l15 37l-214 493h198l111 -320l94 320h192zM193 758q38 0 61.5 -22.5t23.5 -57.5q0 -36 -23.5 -58t-61.5 -22t-62 22t-24 58q0 35 24.5 57.5
t61.5 22.5zM431 758q38 0 62 -22.5t24 -57.5q0 -36 -24 -58t-62 -22t-61.5 22t-23.5 58q0 35 24 57.5t61 22.5z" />
    <glyph glyph-name="abreve.alt" horiz-adv-x="580" 
d="M527 0h-163l-2 59q-23 -36 -62.5 -55.5t-90.5 -19.5q-78 0 -124 44t-46 117q0 77 55 123.5t145 46.5q68 0 119 -21q-2 52 -29.5 76.5t-86.5 24.5q-84 0 -158 -48l-12 137q35 22 89.5 35t106.5 13q127 0 193 -62.5t66 -181.5v-288zM268 103q41 0 64.5 26t25.5 71
q-17 8 -37 12.5t-40 4.5q-37 0 -57.5 -15.5t-20.5 -43.5q0 -26 17 -40.5t48 -14.5zM91 751q0 8 1 14h118v-6q0 -33 18.5 -51t52.5 -18t52.5 18.5t18.5 50.5v6h118q1 -6 1 -14q0 -76 -50.5 -120t-139.5 -44q-88 0 -139 44t-51 120z" />
    <glyph glyph-name="gbreve.alt" horiz-adv-x="615" 
d="M74.5 264q-22.5 36 -22.5 85q0 55 29.5 96t83 64t124.5 23q35 0 66 -6t58 -18l184 13v-115l-80 9q19 -37 19 -79q0 -50 -29 -89t-81.5 -60.5t-121.5 -21.5q-37 0 -70 6q-30 -14 -30 -35q0 -16 16.5 -22.5t55.5 -6.5h48q127 0 188.5 -42t61.5 -130q0 -91 -75.5 -140
t-218.5 -49q-123 0 -190 38t-67 108q0 42 27.5 74.5t73.5 45.5q-72 26 -72 89q0 32 22 59.5t62 44.5q-39 23 -61.5 59zM176 -76q0 -25 32 -38t89 -13t88.5 14t31.5 39t-26.5 36.5t-82.5 11.5h-23q-109 0 -109 -50zM216 348q0 -30 21.5 -48t56.5 -18t57 18t22 48t-22 48
t-57 18t-56.5 -18t-21.5 -48zM120 751q0 8 1 14h118v-6q0 -33 18.5 -51t52.5 -18t52.5 18.5t18.5 50.5v6h118q1 -6 1 -14q0 -76 -50.5 -120t-139.5 -44q-88 0 -139 44t-51 120z" />
    <glyph glyph-name="uni0307.cap" 
d="M0 1017q45 0 72.5 -26t27.5 -68q0 -41 -27.5 -67.5t-72.5 -26.5t-72.5 26t-27.5 68q0 41 28 67.5t72 26.5z" />
    <glyph glyph-name="dotbelowcomb.cap" 
d="M0 -50q45 0 72.5 -26.5t27.5 -67.5q0 -42 -27.5 -68t-72.5 -26t-72.5 26t-27.5 68q0 41 28 67.5t72 26.5z" />
    <glyph glyph-name="gdotaccent.alt" horiz-adv-x="615" 
d="M74.5 264q-22.5 36 -22.5 85q0 55 29.5 96t83 64t124.5 23q35 0 66 -6t58 -18l184 13v-115l-80 9q19 -37 19 -79q0 -50 -29 -89t-81.5 -60.5t-121.5 -21.5q-37 0 -70 6q-30 -14 -30 -35q0 -16 16.5 -22.5t55.5 -6.5h48q127 0 188.5 -42t61.5 -130q0 -91 -75.5 -140
t-218.5 -49q-123 0 -190 38t-67 108q0 42 27.5 74.5t73.5 45.5q-72 26 -72 89q0 32 22 59.5t62 44.5q-39 23 -61.5 59zM176 -76q0 -25 32 -38t89 -13t88.5 14t31.5 39t-26.5 36.5t-82.5 11.5h-23q-109 0 -109 -50zM216 348q0 -30 21.5 -48t56.5 -18t57 18t22 48t-22 48
t-57 18t-56.5 -18t-21.5 -48zM216 685q0 40 25.5 64.5t68.5 24.5t69 -24t26 -65q0 -40 -26 -64.5t-69 -24.5t-68.5 24.5t-25.5 64.5z" />
    <glyph glyph-name="uni030A.cap" 
d="M0 816q-43 0 -76.5 18.5t-53 50.5t-19.5 72t19.5 71.5t53 50t76.5 18.5t76.5 -18.5t53 -50t19.5 -71.5t-19.5 -72t-53 -50.5t-76.5 -18.5zM39.5 996q-14.5 15 -39.5 15t-39.5 -15t-14.5 -39q0 -25 14.5 -40t39.5 -15t39.5 15t14.5 40q0 24 -14.5 39z" />
    <glyph glyph-name="uring" horiz-adv-x="612" 
d="M56 516h181v-284q0 -87 70 -87q68 0 68 87v284h181v-289q0 -119 -63.5 -181t-186.5 -62t-186.5 62t-63.5 181v289zM306 571q-43 0 -76.5 18.5t-53 50.5t-19.5 72q0 41 19.5 72.5t53 50t76.5 18.5t76.5 -18.5t53 -50t19.5 -72.5q0 -40 -19.5 -72t-53 -50.5t-76.5 -18.5z
M345.5 751.5q-14.5 14.5 -39.5 14.5t-39.5 -14.5t-14.5 -39.5q0 -24 14.5 -39t39.5 -15t39.5 15t14.5 39q0 25 -14.5 39.5z" />
    <glyph glyph-name="aring.alt" horiz-adv-x="580" 
d="M527 0h-163l-2 59q-23 -36 -62.5 -55.5t-90.5 -19.5q-78 0 -124 44t-46 117q0 77 55 123.5t145 46.5q68 0 119 -21q-2 52 -29.5 76.5t-86.5 24.5q-84 0 -158 -48l-12 137q35 22 89.5 35t106.5 13q127 0 193 -62.5t66 -181.5v-288zM268 103q41 0 64.5 26t25.5 71
q-17 8 -37 12.5t-40 4.5q-37 0 -57.5 -15.5t-20.5 -43.5q0 -26 17 -40.5t48 -14.5zM281 571q-43 0 -76.5 18.5t-53 50.5t-19.5 72q0 41 19.5 72.5t53 50t76.5 18.5t76.5 -18.5t53 -50t19.5 -72.5q0 -40 -19.5 -72t-53 -50.5t-76.5 -18.5zM320.5 751.5q-14.5 14.5 -39.5 14.5
t-39.5 -14.5t-14.5 -39.5q0 -24 14.5 -39t39.5 -15t39.5 15t14.5 39q0 25 -14.5 39.5z" />
    <glyph glyph-name="uni0414" horiz-adv-x="907" 
d="M773 163h107v-342h-194v179h-474v-179h-194v342h90q33 41 46.5 107t13.5 177v313h605v-597zM575 163v434h-219v-166q0 -98 -10 -162t-32 -106h261z" />
    <glyph glyph-name="uni041B" horiz-adv-x="862" 
d="M783 0h-198v597h-229v-300q0 -109 -25.5 -176t-81 -97.5t-145.5 -30.5q-53 0 -87 8l9 156q13 -1 20 -1.5t15 -0.5q60 0 83.5 36.5t23.5 130.5v438h615v-760z" />
    <glyph glyph-name="uni041C" horiz-adv-x="989" 
d="M80 760h213l205 -424l204 424h208v-760h-185v477l-152 -314h-156l-152 314v-477h-185v760z" />
    <glyph glyph-name="uni0434" horiz-adv-x="717" 
d="M604 145h93v-300h-173v155h-339v-155h-172v300h70q25 31 35.5 81t10.5 133v157h475v-371zM424 372h-129v-52q0 -117 -32 -175h161v227z" />
    <glyph glyph-name="uni043B" horiz-adv-x="662" 
d="M601 0h-181v371h-131v-137q0 -124 -49 -182t-156 -58q-36 0 -73 8l8 144q17 -3 30 -3q39 0 56 26.5t17 87.5v259h479v-516z" />
    <glyph glyph-name="uni043C" horiz-adv-x="800" 
d="M61 516h215l126 -251l124 251h213v-516h-166v318l-120 -241h-106l-121 240v-317h-165v516z" />
    <glyph glyph-name="uni0423.alt" horiz-adv-x="798" 
d="M498 181q-30 -62 -64.5 -106t-83 -67t-123.5 -23q-28 0 -63 6.5t-60 16.5l24 161q18 -7 40 -12t46 -5q31 0 55.5 12.5t49.5 52.5l-307 543h221l181 -358l156 358h216z" />
    <glyph glyph-name="uni0430.alt" horiz-adv-x="580" 
d="M527 0h-163l-2 59q-23 -36 -62.5 -55.5t-90.5 -19.5q-78 0 -124 44t-46 117q0 77 55 123.5t145 46.5q68 0 119 -21q-2 52 -29.5 76.5t-86.5 24.5q-84 0 -158 -48l-12 137q35 22 89.5 35t106.5 13q127 0 193 -62.5t66 -181.5v-288zM268 103q41 0 64.5 26t25.5 71
q-17 8 -37 12.5t-40 4.5q-37 0 -57.5 -15.5t-20.5 -43.5q0 -26 17 -40.5t48 -14.5z" />
    <glyph glyph-name="uni0443.alt" horiz-adv-x="622" 
d="M389 -20q-37 -91 -73 -142t-79.5 -71.5t-103.5 -20.5q-32 0 -65 6.5t-53 17.5l22 150q35 -16 73 -16q37 0 60 18.5t42 63.5l15 37l-214 493h198l111 -320l94 320h192z" />
    <glyph glyph-name="uni0414.loclBGR" horiz-adv-x="902" 
d="M340 760h222l228 -597h94v-342h-194v179h-478v-179h-194v342h94zM301 163h287l-143 432z" />
    <glyph glyph-name="uni041B.loclBGR" horiz-adv-x="817" 
d="M303 760h211l281 -760h-213l-176 522l-177 -522h-208z" />
    <glyph glyph-name="uni0424.loclBGR" horiz-adv-x="1007" 
d="M216 680q81 46 189 54v76h197v-75q108 -8 189 -54t126.5 -123t45.5 -176q0 -100 -45.5 -176.5t-126.5 -122.5t-189 -54v-76h-197v76q-108 8 -189 54t-126.5 122.5t-45.5 175.5q0 100 45.5 176.5t126.5 122.5zM720.5 252q45.5 52 45.5 130t-45.5 130t-121.5 65v-390
q76 13 121.5 65zM408 577q-76 -13 -121.5 -65.5t-45.5 -130.5t45.5 -129.5t121.5 -64.5v390z" />
    <glyph glyph-name="uni0431.loclMKDSRB" horiz-adv-x="641" 
d="M322 -16q-84 0 -148.5 34t-100.5 94t-36 138q0 84 45 143.5t122 81.5l-44 26q-79 46 -79 129q0 77 59.5 122.5t165.5 50.5l252 12v-157l-235 -10q-32 -1 -46.5 -11.5t-14.5 -27.5q0 -14 10 -24t33 -20l72 -30q117 -49 172 -115t55 -166q0 -80 -35.5 -141t-99 -95
t-147.5 -34zM320 371q-45 0 -74 -31.5t-29 -81.5q0 -49 29 -81t74 -32q46 0 75 32t29 81q0 50 -29 81.5t-75 31.5z" />
    </font>
</defs>
</svg>
